<?xml version="1.0" standalone="no"?>
<!DOCTYPE svg PUBLIC "-//W3C//DTD SVG 1.1//EN" "http://www.w3.org/Graphics/SVG/1.1/DTD/svg11.dtd" >
<svg xmlns="http://www.w3.org/2000/svg" xmlns:xlink="http://www.w3.org/1999/xlink" version="1.1">
<metadata>
Created by FontForge 20170731 at Wed Feb  7 16:54:15 2018
 By Aleksey,,,
Copyright (c) 2015 by Noel Leu. All rights reserved.
</metadata>
<defs>
<font id="GTWalsheimPro-ThinOblique" horiz-adv-x="640" >
  <font-face 
    font-family="GT Walsheim Pro Thin"
    font-weight="275"
    font-style="oblique"
    font-stretch="normal"
    units-per-em="1000"
    panose-1="0 0 3 0 0 0 0 0 0 0"
    ascent="765"
    descent="-235"
    x-height="450"
    cap-height="700"
    bbox="-430.545 -235 1125.29 900"
    underline-thickness="50"
    underline-position="-200"
    slope="-6"
    unicode-range="U+000D-FB02"
  />
<missing-glyph horiz-adv-x="800" 
d="M398 -17q-109 0 -187.5 52.5t-113 135.5t-24.5 179q16 149 127.5 258t274.5 109q109 0 188 -52.5t113.5 -135.5t24.5 -179q-16 -149 -128 -258t-275 -109zM401 6q140 0 250 100.5t125 243.5q9 90 -26 169t-109 127.5t-168 48.5q-143 0 -252 -103t-124 -242
q-15 -143 73.5 -243.5t230.5 -100.5zM291 457q-17 0 -28 13t-9 30q1 18 15 30.5t31 12.5q18 0 29.5 -12.5t9.5 -30.5q-2 -17 -16 -30t-32 -13zM588 457q-17 0 -28 13t-9 30q1 18 15 30.5t31 12.5q18 0 29.5 -12.5t9.5 -30.5q-2 -17 -16 -30t-32 -13zM246 259l207 268
l-135 -243h178l-3 -25h-247zM154 207q2 37 31 52l25 13q11 6 14.5 17.5t6.5 39.5h17q-7 -57 -28 -69l-23 -13q-24 -13 -27 -40h-16zM633 157l-16 4q7 17 5.5 26t-14.5 15l-39 20q-52 27 -20 98l14 -5q-26 -61 18 -82l38 -19q19 -9 20 -26.5t-6 -30.5zM373 66
q-101 0 -181 162q76 -49 108 -59q35 -12 73 -12q148 0 223 37l4 2q-28 -49 -98 -89.5t-129 -40.5zM376 92q31 0 73.5 16.5t65 30t34.5 21.5q-11 -2 -42 -9.5t-45.5 -10t-40 -5.5t-49.5 -3q-30 0 -69 11.5t-60 30.5q22 -42 63 -62t70 -20z" />
    <glyph glyph-name="fi" unicode="fi" horiz-adv-x="543" 
d="M185 554q16 152 141 152q38 0 63 -14l-4 -38q-24 13 -56 13q-18 0 -32 -3.5t-29.5 -14t-25.5 -34t-14 -58.5l-12 -107h147l-4 -37h-147l-43 -413h-42l43 413h-103l4 37h103zM506 652q21 0 33.5 -14t10.5 -35t-17.5 -35.5t-37.5 -14.5q-21 0 -33.5 14.5t-10.5 35.5
q2 20 18 34.5t37 14.5zM416 0l47 450h42l-47 -450h-42z" />
    <glyph glyph-name="fl" unicode="fl" horiz-adv-x="543" 
d="M185 554q16 152 141 152q38 0 63 -14l-4 -38q-24 13 -56 13q-18 0 -32 -3.5t-29.5 -14t-25.5 -34t-14 -58.5l-12 -107h147l-4 -37h-147l-43 -413h-42l43 413h-103l4 37h103zM490 700h42l-74 -700h-42z" />
    <glyph glyph-name="f_f" unicode="ff" horiz-adv-x="689" 
d="M185 554q16 152 141 152q38 0 63 -14l-4 -38q-24 13 -56 13q-18 0 -32 -3.5t-29.5 -14t-25.5 -34t-14 -58.5l-12 -107h147l-4 -37h-147l-43 -413h-42l43 413h-103l4 37h103zM687 667q-18 0 -32 -3.5t-29.5 -14t-25.5 -34t-14 -58.5l-12 -107h147l-4 -37h-147l-43 -413
h-42l43 413h-103l4 37h103l11 104q16 152 141 152q38 0 63 -14l-4 -38q-24 13 -56 13z" />
    <glyph glyph-name="f_f_i" unicode="ffi" horiz-adv-x="901" 
d="M185 554q16 152 141 152q38 0 63 -14l-4 -38q-24 13 -56 13q-18 0 -32 -3.5t-29.5 -14t-25.5 -34t-14 -58.5l-12 -107h147l-4 -37h-147l-43 -413h-42l43 413h-103l4 37h103zM543 554q16 152 141 152q38 0 63 -14l-4 -38q-24 13 -56 13q-18 0 -32 -3.5t-29.5 -14
t-25.5 -34t-14 -58.5l-12 -107h147l-4 -37h-147l-43 -413h-42l43 413h-103l4 37h103zM864 652q21 0 33.5 -14t10.5 -35t-17.5 -35.5t-37.5 -14.5q-21 0 -33.5 14.5t-10.5 35.5q2 20 18 34.5t37 14.5zM774 0l47 450h42l-47 -450h-42z" />
    <glyph glyph-name="f_f_l" unicode="ffl" horiz-adv-x="902" 
d="M185 554q16 152 141 152q38 0 63 -14l-4 -38q-24 13 -56 13q-18 0 -32 -3.5t-29.5 -14t-25.5 -34t-14 -58.5l-12 -107h147l-4 -37h-147l-43 -413h-42l43 413h-103l4 37h103zM543 554q16 152 141 152q38 0 63 -14l-4 -38q-24 13 -56 13q-18 0 -32 -3.5t-29.5 -14
t-25.5 -34t-14 -58.5l-12 -107h147l-4 -37h-147l-43 -413h-42l43 413h-103l4 37h103zM848 700h42l-74 -700h-42z" />
    <glyph glyph-name=".notdef" horiz-adv-x="800" 
d="M398 -17q-109 0 -187.5 52.5t-113 135.5t-24.5 179q16 149 127.5 258t274.5 109q109 0 188 -52.5t113.5 -135.5t24.5 -179q-16 -149 -128 -258t-275 -109zM401 6q140 0 250 100.5t125 243.5q9 90 -26 169t-109 127.5t-168 48.5q-143 0 -252 -103t-124 -242
q-15 -143 73.5 -243.5t230.5 -100.5zM291 457q-17 0 -28 13t-9 30q1 18 15 30.5t31 12.5q18 0 29.5 -12.5t9.5 -30.5q-2 -17 -16 -30t-32 -13zM588 457q-17 0 -28 13t-9 30q1 18 15 30.5t31 12.5q18 0 29.5 -12.5t9.5 -30.5q-2 -17 -16 -30t-32 -13zM246 259l207 268
l-135 -243h178l-3 -25h-247zM154 207q2 37 31 52l25 13q11 6 14.5 17.5t6.5 39.5h17q-7 -57 -28 -69l-23 -13q-24 -13 -27 -40h-16zM633 157l-16 4q7 17 5.5 26t-14.5 15l-39 20q-52 27 -20 98l14 -5q-26 -61 18 -82l38 -19q19 -9 20 -26.5t-6 -30.5zM373 66
q-101 0 -181 162q76 -49 108 -59q35 -12 73 -12q148 0 223 37l4 2q-28 -49 -98 -89.5t-129 -40.5zM376 92q31 0 73.5 16.5t65 30t34.5 21.5q-11 -2 -42 -9.5t-45.5 -10t-40 -5.5t-49.5 -3q-30 0 -69 11.5t-60 30.5q22 -42 63 -62t70 -20z" />
    <glyph glyph-name=".null" horiz-adv-x="0" 
 />
    <glyph glyph-name="nonmarkingreturn" horiz-adv-x="333" 
 />
    <glyph glyph-name="CR" unicode="&#xd;" horiz-adv-x="250" 
 />
    <glyph glyph-name="space" unicode=" " horiz-adv-x="258" 
 />
    <glyph glyph-name="exclam" unicode="!" horiz-adv-x="240" 
d="M118 185l55 515h42l-55 -515h-42zM119 -5q-22 0 -34 14.5t-10 35.5t17.5 35.5t37.5 14.5q21 0 34 -14.5t11 -35.5t-18.5 -35.5t-37.5 -14.5z" />
    <glyph glyph-name="quotedbl" unicode="&#x22;" horiz-adv-x="363" 
d="M229 644q0 -1 -1 -7t-2 -10l-50 -173h-28l-15 173q-1 10 0 17q2 20 17.5 34t35.5 14t32.5 -14t10.5 -34zM366 644q0 -1 -1 -7t-2 -10l-50 -173h-28l-15 173q-1 10 0 17q2 20 17.5 34t35.5 14t32.5 -14t10.5 -34z" />
    <glyph glyph-name="numbersign" unicode="#" horiz-adv-x="547" 
d="M105 0l53 219h-107l4 36h113l46 190h-109l4 36h114l53 219h37l-53 -219h175l53 219h37l-53 -219h99l-4 -36h-104l-46 -190h100l-4 -36h-106l-53 -219h-37l53 219h-175l-53 -219h-37zM205 255h175l46 190h-175z" />
    <glyph glyph-name="dollar" unicode="$" horiz-adv-x="568" 
d="M536 172q-9 -83 -69 -132t-156 -54l-10 -86h-36l10 86q-108 5 -163 65t-45 155h44q-8 -80 41 -130t145 -50q85 0 136.5 38t58.5 107q12 111 -109 139l-122 24q-155 33 -140 174q8 74 68.5 127t159.5 55l9 90h36l-10 -91q88 -8 133.5 -60t38.5 -139h-43q5 77 -37.5 119
t-124.5 42q-83 0 -131.5 -41t-54.5 -101q-11 -112 121 -138l125 -26q64 -14 98.5 -57t26.5 -116z" />
    <glyph glyph-name="percent" unicode="%" horiz-adv-x="749" 
d="M149 -7l-29 17l544 682l29 -17zM228 351q-78 0 -119.5 49.5t-33.5 120.5q7 71 59 120.5t130 49.5t119 -49.5t34 -120.5q-8 -71 -59.5 -120.5t-129.5 -49.5zM232 386q61 0 101 39.5t46 95.5t-26 95.5t-93 39.5t-101.5 -39.5t-45.5 -95.5q-6 -56 26 -95.5t93 -39.5zM556 -5
q-78 0 -119 49.5t-34 120.5q8 71 59.5 120.5t129.5 49.5t119.5 -49.5t33.5 -120.5q-7 -71 -59 -120.5t-130 -49.5zM560 30q61 0 101.5 39.5t45.5 95.5q6 56 -25.5 95.5t-92.5 39.5t-101.5 -39.5t-46.5 -95.5t26 -95.5t93 -39.5z" />
    <glyph glyph-name="ampersand" unicode="&#x26;" horiz-adv-x="589" 
d="M612 273l-5 -40h-73q-13 -111 -77.5 -177.5t-175.5 -66.5q-102 0 -159 55t-47 142q7 68 53.5 116.5t116.5 59.5q-64 13 -96.5 57t-26.5 107q9 83 73.5 134t164.5 51q94 0 148 -50t45 -135h-45q7 65 -34.5 105.5t-117.5 40.5q-79 0 -130.5 -40t-59.5 -106
q-7 -66 32.5 -105t117.5 -39h28l-4 -41h-28q-83 0 -134.5 -43t-58.5 -112q-8 -69 37 -113t129 -44q92 0 142.5 55.5t62.5 148.5h-100l5 40h217z" />
    <glyph glyph-name="quotesingle" unicode="'" horiz-adv-x="226" 
d="M229 644q0 -1 -1 -7t-2 -10l-50 -173h-28l-15 173q-1 10 0 17q2 20 17.5 34t35.5 14t32.5 -14t10.5 -34z" />
    <glyph glyph-name="parenleft" unicode="(" horiz-adv-x="303" 
d="M264 -190q-191 189 -163 461q30 272 260 460l24 -26q-215 -183 -242 -434q-14 -133 24.5 -238t126.5 -196z" />
    <glyph glyph-name="parenright" unicode=")" horiz-adv-x="303" 
d="M-1 -190l-24 27q107 91 167 196t74 238q15 133 -23.5 238t-126.5 196l30 26q192 -188 162 -460q-28 -271 -259 -461z" />
    <glyph glyph-name="asterisk" unicode="*" horiz-adv-x="438" 
d="M159 363l-27 21l119 137l-156 49l14 34l154 -58l14 171h35l-22 -171l165 58l8 -34l-166 -49l88 -137l-31 -21l-81 142z" />
    <glyph glyph-name="plus" unicode="+" horiz-adv-x="504" 
d="M245 121l18 174h-174l4 39h174l18 175h40l-18 -175h174l-4 -39h-174l-18 -174h-40z" />
    <glyph glyph-name="comma" unicode="," horiz-adv-x="287" 
d="M107 -116q-17 0 -24 2l3 28q7 -2 23 -2q24 0 40.5 14.5t21.5 38.5q6 23 0 44q-12 -13 -33 -13q-20 0 -32.5 13.5t-10.5 34.5q2 22 17.5 36t38.5 14q32 0 50.5 -28t13.5 -73q-5 -50 -35 -79.5t-73 -29.5z" />
    <glyph glyph-name="hyphen" unicode="-" horiz-adv-x="413" 
d="M83 238l4 39h297l-4 -39h-297z" />
    <glyph glyph-name="period" unicode="." horiz-adv-x="280" 
d="M138 -5q-21 0 -33 14.5t-10 35.5t17.5 35.5t36.5 14.5q22 0 35 -14.5t11 -35.5t-18.5 -35.5t-38.5 -14.5z" />
    <glyph glyph-name="slash" unicode="/" horiz-adv-x="413" 
d="M47 -56l-33 15l426 795l34 -15z" />
    <glyph glyph-name="zero" unicode="0" horiz-adv-x="604" 
d="M301 -10q-122 0 -176 90t-36 262q18 171 91 260.5t195 89.5t176.5 -89.5t36.5 -260.5q-18 -172 -91.5 -262t-195.5 -90zM305 30q208 0 241 312q32 310 -175 310q-208 0 -240 -310q-33 -312 174 -312z" />
    <glyph glyph-name="one" unicode="1" horiz-adv-x="342" 
d="M175 0l55 525h-136l4 39q83 0 113.5 24.5t37.5 91.5h41l-71 -680h-44z" />
    <glyph glyph-name="two" unicode="2" horiz-adv-x="548" 
d="M58 0q12 115 56.5 178.5t144.5 108.5l120 54q115 52 127 167q7 63 -32.5 102.5t-108.5 39.5q-82 0 -135.5 -50t-62.5 -135h-45q10 102 78.5 163.5t169.5 61.5q91 0 140.5 -49t41.5 -131q-15 -135 -153 -200l-119 -54q-81 -37 -120.5 -86.5t-49.5 -128.5h397l-4 -41h-445z
" />
    <glyph glyph-name="three" unicode="3" horiz-adv-x="544" 
d="M271 -10q-103 0 -159 54t-46 145h44q-7 -73 37.5 -116.5t127.5 -43.5q81 0 134 42t61 110q8 69 -35.5 110t-123.5 41h-56l4 38h55q76 0 124 38t55 103q7 63 -35 101.5t-116 38.5q-77 0 -128 -40t-58 -107h-43q9 84 72.5 135t160.5 51q94 0 146.5 -49t44.5 -129
q-7 -65 -48.5 -107t-111.5 -54q64 -2 104 -52t32 -119q-9 -85 -75.5 -137.5t-166.5 -52.5z" />
    <glyph glyph-name="four" unicode="4" horiz-adv-x="561" 
d="M555 281l-5 -41h-124l-25 -241h-43l25 241h-283l46 440h43l-41 -399h240l23 221h43l-23 -221h124z" />
    <glyph glyph-name="five" unicode="5" horiz-adv-x="561" 
d="M288 -10q-97 0 -151 48.5t-51 126.5h44q-2 -61 41 -97.5t122 -36.5q83 0 139 53t66 145q10 90 -31 140t-122 50q-70 0 -113 -25t-72 -78h-44l38 364h390l-4 -40h-349l-29 -276q58 93 191 93q98 0 148 -60t39 -167q-11 -110 -80 -175t-172 -65z" />
    <glyph glyph-name="six" unicode="6" horiz-adv-x="559" 
d="M327 463q102 0 157.5 -68.5t45.5 -169.5q-11 -100 -81 -168.5t-172 -68.5q-103 0 -159 68.5t-45 168.5q9 90 67 156l225 299h52l-176 -231q40 14 86 14zM281 28q84 0 141 56.5t66 140.5q8 84 -37 141t-129 57t-141.5 -57t-65.5 -141q-9 -83 36.5 -140t129.5 -57z" />
    <glyph glyph-name="seven" unicode="7" horiz-adv-x="485" 
d="M65 0l420 639h-373l4 41h440l-442 -680h-49z" />
    <glyph glyph-name="eight" unicode="8" horiz-adv-x="555" 
d="M277 -10q-103 0 -160 52t-48 137q7 68 51.5 114t113.5 57q-62 12 -94.5 56t-25.5 106q8 80 73.5 129t163.5 49t152 -49t46 -129q-7 -62 -48.5 -106t-105.5 -56q66 -11 101 -57t28 -114q-9 -86 -76.5 -137.5t-170.5 -51.5zM317 370q79 0 130 38t57 101q7 64 -36 103.5
t-121 39.5q-79 0 -130.5 -39t-59.5 -104q-6 -63 37.5 -101t122.5 -38zM281 29q82 0 136.5 42t62.5 110q7 69 -38.5 110t-128.5 41t-138 -41t-62 -110q-7 -68 39 -110t129 -42z" />
    <glyph glyph-name="nine" unicode="9" horiz-adv-x="531" 
d="M530 455q-9 -91 -68 -156l-225 -299h-52l176 231q-40 -14 -85 -14q-103 0 -158.5 68.5t-44.5 169.5q10 100 80 168.5t173 68.5t158.5 -68t45.5 -169zM115 455q-9 -84 36 -141t129 -57t141.5 57t66.5 141q9 83 -36.5 140t-129.5 57t-141.5 -57t-65.5 -140z" />
    <glyph glyph-name="colon" unicode=":" horiz-adv-x="280" 
d="M177 359q-21 0 -33.5 14.5t-10.5 35.5t17.5 35.5t36.5 14.5q22 0 35 -14.5t11 -35.5t-18 -35.5t-38 -14.5zM138 -5q-21 0 -33 14.5t-10 35.5t17.5 35.5t36.5 14.5q22 0 35 -14.5t11 -35.5t-18.5 -35.5t-38.5 -14.5z" />
    <glyph glyph-name="semicolon" unicode=";" horiz-adv-x="287" 
d="M177 358q-21 0 -33.5 14.5t-10.5 35.5t17.5 35.5t36.5 14.5q22 0 35 -14.5t11 -35.5t-18 -35.5t-38 -14.5zM107 -116q-17 0 -24 2l3 28q7 -2 23 -2q24 0 40.5 14.5t21.5 38.5q6 23 0 44q-12 -13 -33 -13q-20 0 -32.5 13.5t-10.5 34.5q2 22 17.5 36t38.5 14q32 0 50.5 -28
t13.5 -73q-5 -50 -35 -79.5t-73 -29.5z" />
    <glyph glyph-name="less" unicode="&#x3c;" horiz-adv-x="503" 
d="M459 137l-369 167l4 35l404 167l-4 -42l-343 -142l313 -143z" />
    <glyph glyph-name="equal" unicode="=" horiz-adv-x="539" 
d="M98 383l4 39h424l-4 -39h-424zM80 205l4 39h424l-4 -39h-424z" />
    <glyph glyph-name="greater" unicode="&#x3e;" horiz-adv-x="503" 
d="M72 137l5 42l343 143l-313 142l4 42l370 -167l-4 -35z" />
    <glyph glyph-name="question" unicode="?" horiz-adv-x="479" 
d="M213 185l3 25q6 52 25 83.5t59 55.5l63 40q82 52 92 144q6 63 -32.5 103.5t-117.5 40.5q-80 0 -132 -49.5t-61 -133.5h-44q11 102 76 162.5t166 60.5q100 0 149 -51.5t40 -131.5q-11 -105 -112 -173l-60 -38q-34 -22 -49.5 -46t-19.5 -70l-3 -22h-42zM214 -5
q-21 0 -33 14.5t-10 35.5t17.5 35.5t36.5 14.5t34.5 -14.5t11.5 -35.5t-19 -35.5t-38 -14.5z" />
    <glyph glyph-name="at" unicode="@" horiz-adv-x="899" 
d="M434 -197q-190 0 -289.5 111t-79.5 295q20 186 145 296.5t317 110.5q87 0 156 -25.5t116.5 -76.5t68.5 -132t10 -186q-12 -105 -53 -172t-113 -67q-61 0 -83.5 37t-17.5 120q-24 -48 -73 -79.5t-112 -31.5q-90 0 -140 60t-41 145q9 86 72.5 146t152.5 60
q63 0 104.5 -30.5t56.5 -80.5l11 103h37l-31 -288q-8 -77 12 -102.5t59 -25.5q49 0 80.5 57.5t41.5 150.5q20 191 -67 288t-251 97q-176 0 -290 -102t-132 -273q-17 -168 73.5 -269t265.5 -101q138 0 244 71l12 -31q-114 -75 -262 -75zM433 37q75 0 127.5 50t60.5 121
q8 72 -34.5 122t-117.5 50t-127 -50t-60 -122q-8 -71 34 -121t117 -50z" />
    <glyph glyph-name="A" unicode="A" horiz-adv-x="564" 
d="M495 0l-33 144h-331l-62 -144h-46l313 700h40l165 -700h-46zM149 184h304l-104 459z" />
    <glyph glyph-name="B" unicode="B" horiz-adv-x="577" 
d="M423 352q58 -10 91.5 -55t26.5 -113q-9 -86 -70 -135t-155 -49h-226l74 700h223q93 0 143.5 -48t41.5 -132q-7 -69 -47.5 -112.5t-101.5 -55.5zM381 660h-178l-30 -288h197q61 0 105.5 39.5t51.5 104.5q7 68 -32.5 106t-113.5 38zM319 40q75 0 123.5 39t55.5 108
q7 64 -30 104.5t-98 40.5h-201l-31 -292h181z" />
    <glyph glyph-name="C" unicode="C" horiz-adv-x="775" 
d="M400 -14q-162 0 -249 105.5t-71 258.5t125 258.5t271 105.5q132 0 209 -61.5t94 -163.5h-47q-18 85 -82.5 134.5t-176.5 49.5q-144 0 -239 -93t-109 -230q-15 -137 60.5 -230t219.5 -93q112 0 187 49.5t111 134.5h47q-38 -102 -128 -163.5t-222 -61.5z" />
    <glyph glyph-name="D" unicode="D" horiz-adv-x="684" 
d="M90 0l74 700h196q111 0 189.5 -51t110.5 -129.5t23 -169.5q-7 -68 -38 -130t-80.5 -111.5t-122 -79t-156.5 -29.5h-196zM138 41h149q148 0 243 91.5t109 217.5q8 81 -20.5 150t-98 114t-168.5 45h-149z" />
    <glyph glyph-name="E" unicode="E" horiz-adv-x="548" 
d="M90 0l74 700h385l-5 -41h-341l-30 -291h341l-5 -40h-341l-30 -287h341l-4 -41h-385z" />
    <glyph glyph-name="F" unicode="F" horiz-adv-x="537" 
d="M90 0l74 700h385l-5 -41h-341l-33 -313h341l-4 -41h-341l-32 -305h-44z" />
    <glyph glyph-name="G" unicode="G" horiz-adv-x="819" 
d="M829 317l-4 -40h-77q-30 -134 -119.5 -212.5t-229.5 -78.5q-166 0 -251 103.5t-68 259.5q16 159 121 262t268 103q112 0 187.5 -53.5t89.5 -141.5h-47q-17 71 -79 112.5t-155 41.5q-144 0 -235 -90.5t-105 -233.5q-16 -139 58 -230.5t220 -91.5q121 0 196.5 66.5
t103.5 183.5h-239l4 40h361z" />
    <glyph glyph-name="H" unicode="H" horiz-adv-x="665" 
d="M90 0l74 700h44l-35 -332h398l35 332h43l-74 -700h-43l34 328h-398l-34 -328h-44z" />
    <glyph glyph-name="I" unicode="I" horiz-adv-x="224" 
d="M90 0l74 700h44l-74 -700h-44z" />
    <glyph glyph-name="J" unicode="J" horiz-adv-x="537" 
d="M253 -14q-99 0 -156.5 59t-46.5 166h43q-9 -88 38 -136t126 -48q77 0 129.5 50.5t62.5 140.5l51 482h43l-51 -482q-12 -109 -77 -170.5t-162 -61.5z" />
    <glyph glyph-name="K" unicode="K" horiz-adv-x="574" 
d="M626 700l-409 -349l335 -351h-60l-322 342l-36 -342h-44l74 700h44l-36 -342l395 342h59z" />
    <glyph glyph-name="L" unicode="L" horiz-adv-x="509" 
d="M90 0l74 700h44l-70 -658h332l-4 -42h-376z" />
    <glyph glyph-name="M" unicode="M" horiz-adv-x="812" 
d="M90 0l74 700h43l205 -641l341 641h43l-74 -700h-42l64 606l-319 -606h-37l-192 607l-64 -607h-42z" />
    <glyph glyph-name="N" unicode="N" horiz-adv-x="662" 
d="M90 0l74 700h48l324 -629l67 629h43l-74 -700h-48l-326 629l-66 -629h-42z" />
    <glyph glyph-name="O" unicode="O" horiz-adv-x="803" 
d="M401 -14q-108 0 -186 51.5t-111.5 133.5t-23.5 179q16 150 125.5 257t271.5 107q108 0 186 -51.5t111.5 -133.5t23.5 -179q-16 -150 -125.5 -257t-271.5 -107zM405 27q142 0 238 95t109 228q15 133 -61 228t-218 95q-143 0 -239 -95t-109 -228q-15 -133 61 -228t219 -95z
" />
    <glyph glyph-name="P" unicode="P" horiz-adv-x="574" 
d="M401 700q98 0 155 -66.5t46 -168.5q-10 -102 -81.5 -168.5t-169.5 -66.5h-193l-24 -230h-44l74 700h237zM353 270q79 0 137.5 55.5t67.5 139.5t-37.5 139t-126.5 55h-191l-41 -389h191z" />
    <glyph glyph-name="Q" unicode="Q" horiz-adv-x="803" 
d="M798 350q-15 -137 -109 -240t-235 -121l77 -113l-40 -19l-86 129h-4q-108 0 -186 51.5t-111.5 133.5t-23.5 179q16 150 125.5 257t271.5 107q108 0 186 -51.5t111.5 -133.5t23.5 -179zM405 27q142 0 238 95t109 228q15 133 -61 228t-218 95q-143 0 -239 -95t-109 -228
q-15 -133 61 -228t219 -95z" />
    <glyph glyph-name="R" unicode="R" horiz-adv-x="603" 
d="M602 465q-9 -83 -60 -144.5t-126 -81.5l129 -239h-52l-124 231q-6 -1 -18 -1h-193l-24 -230h-44l74 700h237q98 0 155 -66.5t46 -168.5zM353 270q79 0 137.5 55.5t67.5 139.5t-37.5 139t-126.5 55h-191l-41 -389h191z" />
    <glyph glyph-name="S" unicode="S" horiz-adv-x="566" 
d="M292 -14q-114 0 -175 61t-50 164h44q-9 -84 41 -134.5t143 -50.5q85 0 136.5 40t58.5 110q13 115 -114 146l-117 31q-151 34 -136 180q8 81 72.5 131t160.5 50q101 0 154 -55t43 -150h-44q8 78 -34 122t-124 44q-76 0 -127 -39t-58 -102q-12 -116 123 -147l117 -30
q69 -16 102 -62t26 -118q-10 -89 -74 -140t-168 -51z" />
    <glyph glyph-name="T" unicode="T" horiz-adv-x="500" 
d="M228 0l69 658h-219l5 42h482l-5 -42h-220l-69 -658h-43z" />
    <glyph glyph-name="U" unicode="U" horiz-adv-x="625" 
d="M311 -14q-113 0 -172.5 63t-46.5 177l50 474h43l-50 -472q-10 -97 38.5 -149t141.5 -52q94 0 153.5 52t69.5 149l50 472h43l-50 -474q-13 -115 -85 -177.5t-185 -62.5z" />
    <glyph glyph-name="V" unicode="V" horiz-adv-x="547" 
d="M252 0l-174 700h47l155 -636l290 636h47l-322 -700h-43z" />
    <glyph glyph-name="W" unicode="W" horiz-adv-x="928" 
d="M242 0l-160 700h45l141 -632l252 632h36l118 -632l275 632h45l-308 -700h-36l-120 628l-252 -628h-36z" />
    <glyph glyph-name="X" unicode="X" horiz-adv-x="580" 
d="M30 0l272 350l-198 350h50l177 -314l243 314h50l-273 -350l199 -350h-50l-177 313l-243 -313h-50z" />
    <glyph glyph-name="Y" unicode="Y" horiz-adv-x="532" 
d="M564 700h47l-436 -700h-48l172 275l-225 425h51l202 -380z" />
    <glyph glyph-name="Z" unicode="Z" horiz-adv-x="557" 
d="M28 0l475 659h-380l5 41h455l-475 -659h417l-4 -41h-493z" />
    <glyph glyph-name="bracketleft" unicode="[" horiz-adv-x="281" 
d="M70 -193l97 926h187l-4 -37h-147l-90 -853h147l-3 -36h-187z" />
    <glyph glyph-name="backslash" unicode="\" horiz-adv-x="413" 
d="M354 -56l-259 795l36 15l260 -795z" />
    <glyph glyph-name="bracketright" unicode="]" horiz-adv-x="281" 
d="M171 -193h-187l3 36h147l90 853h-147l4 37h187z" />
    <glyph glyph-name="asciicircum" unicode="^" horiz-adv-x="523" 
d="M82 303l235 405h34l154 -405h-48l-128 353l-200 -353h-47z" />
    <glyph glyph-name="underscore" unicode="_" horiz-adv-x="505" 
d="M-23 -218l4 34h505l-4 -34h-505z" />
    <glyph glyph-name="grave" unicode="`" horiz-adv-x="600" 
d="M237 513l-143 140l28 27l144 -141z" />
    <glyph glyph-name="a" unicode="a" horiz-adv-x="590" 
d="M268 -12q-103 0 -157.5 67t-43.5 169q11 103 80.5 170.5t171.5 67.5q69 0 116 -35.5t63 -94.5l12 118h42l-47 -450h-42l12 116q-28 -58 -83.5 -93t-123.5 -35zM276 27q86 0 145 57t68 140q9 84 -38 141.5t-134 57.5q-85 0 -142 -56t-66 -143q-9 -85 36.5 -141t130.5 -56z
" />
    <glyph glyph-name="b" unicode="b" horiz-adv-x="590" 
d="M372 462q98 0 153.5 -67t45.5 -171q-11 -102 -82 -169t-169 -67q-67 0 -115.5 34.5t-65.5 93.5l-12 -116h-42l74 700h42l-39 -368q30 61 85.5 95.5t124.5 34.5zM320 27q82 0 141 56t68 141q9 86 -38.5 142.5t-129.5 56.5q-84 0 -144 -56.5t-69 -142.5q-9 -85 40 -141
t132 -56z" />
    <glyph glyph-name="c" unicode="c" horiz-adv-x="512" 
d="M265 -12q-101 0 -155 66t-43 171t78.5 170t168.5 65q85 0 135.5 -43t52.5 -115h-43q-4 57 -44 88t-106 31q-82 0 -136.5 -54t-63.5 -142q-10 -89 33.5 -143.5t125.5 -54.5q66 0 112 31.5t62 88.5h43q-17 -72 -76 -115.5t-144 -43.5z" />
    <glyph glyph-name="d" unicode="d" horiz-adv-x="590" 
d="M537 700h42l-74 -700h-42l12 116q-28 -58 -83.5 -93t-123.5 -35q-103 0 -157.5 67t-43.5 169q11 103 80.5 170.5t171.5 67.5q69 0 116 -35.5t63 -94.5zM276 27q86 0 145 57t68 140q9 84 -38 141.5t-134 57.5q-85 0 -142 -56t-66 -143q-9 -85 36.5 -141t130.5 -56z" />
    <glyph glyph-name="e" unicode="e" horiz-adv-x="509" 
d="M488 220h-379v-2q-9 -86 33.5 -138.5t121.5 -52.5q57 0 102 26.5t65 71.5h42q-20 -61 -79 -99t-133 -38q-99 0 -152 65t-42 173q11 106 77 171t163 65q92 0 143.5 -58.5t42.5 -148.5zM303 426q-73 0 -124 -46.5t-65 -123.5h338q8 75 -32.5 122.5t-116.5 47.5z" />
    <glyph glyph-name="f" unicode="f" horiz-adv-x="331" 
d="M329 667q-18 0 -32 -3.5t-29.5 -14t-25.5 -34t-14 -58.5l-12 -107h147l-4 -37h-147l-43 -413h-42l43 413h-103l4 37h103l11 104q16 152 141 152q38 0 63 -14l-4 -38q-24 13 -56 13z" />
    <glyph glyph-name="g" unicode="g" horiz-adv-x="590" 
d="M510 450h42l-48 -455q-12 -118 -92 -178q-62 -47 -160 -47q-102 0 -159 49q-51 47 -44 112h43q-4 -52 38.5 -87.5t124.5 -35.5q91 0 144.5 48t62.5 137l13 123q-29 -60 -84.5 -94t-122.5 -34q-99 0 -155.5 67.5t-45.5 168.5q11 102 82 170t170 68q68 0 115.5 -34
t63.5 -96zM276 27q84 0 144 56.5t69 140.5q8 86 -40 142.5t-132 56.5q-82 0 -140.5 -56.5t-67.5 -142.5q-9 -85 38 -141t129 -56z" />
    <glyph glyph-name="h" unicode="h" horiz-adv-x="565" 
d="M360 462q86 0 124.5 -50.5t28.5 -146.5l-28 -265h-42l26 252q18 172 -125 172q-83 0 -132 -56.5t-58 -147.5l-23 -220h-42l74 700h42l-40 -374q21 61 71 98.5t124 37.5z" />
    <glyph glyph-name="i" unicode="i" horiz-adv-x="212" 
d="M164 553q-21 0 -33.5 14.5t-10.5 35.5q2 20 18 34.5t37 14.5t33.5 -14t10.5 -35t-17.5 -35.5t-37.5 -14.5zM85 0l47 450h42l-47 -450h-42z" />
    <glyph glyph-name="j" unicode="j" horiz-adv-x="215" 
d="M167 553q-21 0 -33.5 14.5t-10.5 35.5q2 20 18 34.5t37 14.5t33.5 -14t10.5 -35t-17.5 -35.5t-37.5 -14.5zM1 -224q-39 0 -62 13l4 41q25 -13 57 -13t52.5 24t25.5 67l57 542h42l-58 -550q-6 -58 -37.5 -91t-80.5 -33z" />
    <glyph glyph-name="k" unicode="k" horiz-adv-x="479" 
d="M493 450l-290 -221l243 -229h-58l-238 223l-23 -223h-42l74 700h42l-50 -469l285 219h57z" />
    <glyph glyph-name="l" unicode="l" horiz-adv-x="212" 
d="M85 0l74 700h42l-74 -700h-42z" />
    <glyph glyph-name="m" unicode="m" horiz-adv-x="831" 
d="M85 0l47 450h42l-12 -121q17 55 59 94t109 39q59 0 96 -32t39 -98q18 55 66 92.5t109 37.5q73 0 112 -42.5t29 -134.5l-30 -285h-41l29 276q8 77 -23 112.5t-89 35.5q-68 0 -111.5 -55t-52.5 -143l-24 -226h-42l27 255q18 169 -110 169q-71 0 -112.5 -56.5t-50.5 -141.5
l-24 -226h-42z" />
    <glyph glyph-name="n" unicode="n" horiz-adv-x="561" 
d="M85 0l47 450h42l-13 -124q21 61 71 98.5t124 37.5q86 0 124.5 -50.5t28.5 -146.5l-28 -265h-42l26 252q18 172 -125 172q-82 0 -131.5 -56.5t-58.5 -147.5l-23 -220h-42z" />
    <glyph glyph-name="o" unicode="o" horiz-adv-x="542" 
d="M270 -12q-102 0 -158 68.5t-45 168.5q10 101 80 169t173 68t158.5 -68t45.5 -169q-11 -100 -81 -168.5t-173 -68.5zM274 28q84 0 141.5 57t66.5 140q8 84 -37.5 140.5t-129.5 56.5t-141 -56.5t-65 -140.5q-9 -83 36 -140t129 -57z" />
    <glyph glyph-name="p" unicode="p" horiz-adv-x="590" 
d="M372 462q98 0 153.5 -67t45.5 -171q-11 -102 -82 -169t-169 -67q-67 0 -115.5 34.5t-65.5 93.5l-35 -334h-42l70 668h42l-12 -118q30 61 85.5 95.5t124.5 34.5zM320 27q82 0 141 56t68 141q9 86 -38.5 142.5t-129.5 56.5q-84 0 -144 -56.5t-69 -142.5q-9 -85 40 -141
t132 -56z" />
    <glyph glyph-name="q" unicode="q" horiz-adv-x="590" 
d="M510 450h42l-70 -668h-42l35 334q-28 -58 -83.5 -93t-123.5 -35q-103 0 -157.5 67t-43.5 169q11 103 80.5 170.5t171.5 67.5q69 0 116 -35.5t63 -94.5zM276 27q86 0 145 57t68 140q9 84 -38 141.5t-134 57.5q-85 0 -142 -56t-66 -143q-9 -85 36.5 -141t130.5 -56z" />
    <glyph glyph-name="r" unicode="r" horiz-adv-x="349" 
d="M85 0l47 450h42l-14 -135q24 73 70.5 109.5t103.5 36.5q20 0 40 -4l-4 -40q-13 3 -43 3q-56 0 -97 -38t-59 -87t-24 -103l-20 -192h-42z" />
    <glyph glyph-name="s" unicode="s" horiz-adv-x="434" 
d="M221 -12q-82 0 -126.5 40.5t-37.5 100.5h42q-5 -44 28.5 -74t99.5 -30q55 0 90 23t39 65q3 33 -14 54t-61 32l-94 24q-105 27 -96 118q6 56 54 88.5t119 32.5q76 0 116 -33.5t33 -93.5h-41q4 42 -26.5 67t-88.5 25q-51 0 -85.5 -22t-38.5 -64q-7 -61 77 -83l96 -24
q102 -27 93 -118q-7 -62 -54.5 -95t-123.5 -33z" />
    <glyph glyph-name="t" unicode="t" horiz-adv-x="336" 
d="M245 33q38 0 65 8l-4 -39q-26 -8 -72 -8q-55 0 -84.5 29.5t-20.5 120.5l28 269h-93l4 37h93l17 157h41l-17 -157h136l-4 -37h-136l-27 -263q-8 -70 12 -93.5t62 -23.5z" />
    <glyph glyph-name="u" unicode="u" horiz-adv-x="563" 
d="M259 -12q-83 0 -126.5 50t-33.5 146l28 266h42l-27 -258q-8 -75 24 -120t107 -45q81 0 129.5 59.5t56.5 133.5l24 230h42l-47 -450h-42l13 122q-22 -57 -73 -95.5t-117 -38.5z" />
    <glyph glyph-name="v" unicode="v" horiz-adv-x="463" 
d="M213 0l-158 450h45l138 -394l219 394h46l-253 -450h-37z" />
    <glyph glyph-name="w" unicode="w" horiz-adv-x="707" 
d="M179 0l-119 450h45l97 -393l176 393h45l92 -393l181 393h45l-213 -450h-38l-95 397l-179 -397h-37z" />
    <glyph glyph-name="x" unicode="x" horiz-adv-x="455" 
d="M26 0l200 225l-152 225h51l129 -193l169 193h52l-199 -225l153 -225h-52l-130 194l-170 -194h-51z" />
    <glyph glyph-name="y" unicode="y" horiz-adv-x="568" 
d="M487 450h42l-49 -472q-12 -113 -83 -166q-58 -42 -141 -42q-95 0 -144 46q-46 42 -39 115h42q-4 -54 30 -88.5t115 -34.5q160 0 178 172l15 139q-25 -56 -75 -92.5t-118 -36.5q-95 0 -132.5 52t-27.5 153l27 255h41l-26 -248q-9 -86 20.5 -129.5t112.5 -43.5q80 0 130 59
t58 133z" />
    <glyph glyph-name="z" unicode="z" horiz-adv-x="433" 
d="M28 0l349 412h-290l4 38h366l-351 -412h307l-4 -38h-381z" />
    <glyph glyph-name="braceleft" unicode="{" horiz-adv-x="305" 
d="M229 -194q-51 0 -86.5 36.5t-28.5 102.5l22 211q5 45 -23.5 70t-58.5 25l4 38q30 0 63.5 25t38.5 70l23 211q6 66 49 102.5t94 36.5h47l-4 -37h-43q-42 0 -71 -28.5t-34 -79.5l-22 -208q-9 -83 -95 -111q32 -11 54.5 -38t17.5 -73l-22 -208q-5 -51 18 -79.5t64 -28.5h43
l-3 -37h-47z" />
    <glyph glyph-name="bar" unicode="|" horiz-adv-x="216" 
d="M70 -193l97 926h36l-97 -926h-36z" />
    <glyph glyph-name="braceright" unicode="}" horiz-adv-x="305" 
d="M36 -194h-47l3 37h43q42 0 71.5 29t34.5 79l22 208q8 82 94 111q-79 29 -71 111l22 208q5 51 -18 79.5t-65 28.5h-43l4 37h47q51 0 86 -36.5t29 -102.5l-23 -211q-5 -45 23.5 -70t58.5 -25l-4 -38q-30 0 -63.5 -25t-38.5 -70l-22 -211q-7 -66 -49.5 -102.5t-93.5 -36.5z
" />
    <glyph glyph-name="asciitilde" unicode="~" horiz-adv-x="535" 
d="M400 238q-31 0 -110 37q-68 31 -110 31q-53 0 -103 -50l5 44q46 45 103 45q42 0 115 -32q83 -36 104 -36q52 0 116 53l-5 -41q-56 -51 -115 -51z" />
    <glyph glyph-name="uni00A0" unicode="&#xa0;" horiz-adv-x="275" 
 />
    <glyph glyph-name="exclamdown" unicode="&#xa1;" horiz-adv-x="240" 
d="M171 487q21 0 34 -14.5t11 -35.5t-18 -35.5t-37 -14.5q-22 0 -34.5 14.5t-10.5 35.5t17.5 35.5t37.5 14.5zM130 297h42l-54 -515h-42z" />
    <glyph glyph-name="cent" unicode="&#xa2;" horiz-adv-x="512" 
d="M280 143q66 0 112.5 31.5t62.5 88.5h43q-16 -69 -71 -112t-134 -47l-11 -104h-35l11 105q-92 6 -141 71t-38 165t73 164t155 70l11 105h35l-10 -104q78 -4 123.5 -47t47.5 -111h-43q-4 57 -44 88t-106 31q-82 0 -136.5 -54t-63.5 -142q-10 -89 33.5 -143.5t125.5 -54.5z
" />
    <glyph glyph-name="sterling" unicode="&#xa3;" horiz-adv-x="514" 
d="M179 226q-12 -119 -84 -185h380l-4 -41h-430l4 34q38 34 60 75.5t29 110.5l15 138h-72l3 35h72l9 84q11 104 69.5 159.5t153.5 55.5q90 0 136 -50.5t37 -134.5h-43q8 67 -27.5 107t-106.5 40q-82 0 -124 -47t-52 -141l-8 -73h201l-3 -35h-201z" />
    <glyph glyph-name="currency" unicode="&#xa4;" horiz-adv-x="576" 
d="M81 124l-25 27l82 74q-44 63 -35 145q9 83 65 145l-66 74l31 28l65 -74q67 52 153 52q89 0 143 -51l80 72l24 -27l-80 -72q46 -64 37 -147q-9 -85 -67 -146l64 -72l-30 -28l-64 72q-69 -51 -155 -51q-87 0 -140 53zM307 184q83 0 140 54t66 132q8 78 -38 132t-129 54
q-80 0 -136.5 -54t-64.5 -132q-8 -77 37 -131.5t125 -54.5z" />
    <glyph glyph-name="yen" unicode="&#xa5;" horiz-adv-x="527" 
d="M578 680l-261 -410h166l-3 -32h-169l-11 -104h169l-3 -34h-169l-11 -100h-45l11 100h-169l3 34h169l11 104h-169l3 32h166l-175 410h50l154 -374l233 374h50z" />
    <glyph glyph-name="brokenbar" unicode="&#xa6;" horiz-adv-x="216" 
d="M124 321l43 412h36l-43 -412h-36zM70 -193l45 431h36l-45 -431h-36z" />
    <glyph glyph-name="section" unicode="&#xa7;" horiz-adv-x="529" 
d="M375 89q99 -51 88 -154q-8 -78 -67.5 -120t-154.5 -42q-103 0 -152.5 48t-41.5 126h44q-6 -61 32 -98t122 -37q73 0 118.5 31t52.5 91q5 48 -19 80.5t-63.5 47.5t-86 31.5t-86 31.5t-63.5 48.5t-19 81.5q5 51 39 87.5t91 54.5q-103 52 -92 155q8 79 68.5 122t153.5 43
q104 0 153 -49t41 -128h-47q6 63 -31 100.5t-119 37.5q-73 0 -118.5 -31.5t-52.5 -92.5q-5 -48 19 -81t63.5 -48t86 -31.5t86 -31.5t63.5 -47.5t19 -80.5q-11 -101 -127 -145zM122 258q-3 -28 7 -48.5t35 -35.5t46 -24t62 -22t60 -20q117 37 126 123q3 27 -6.5 47t-34.5 35
t-44.5 23.5t-60.5 21.5t-59 20q-121 -33 -131 -120z" />
    <glyph glyph-name="dieresis" unicode="&#xa8;" horiz-adv-x="600" 
d="M183 554q-20 0 -32 13.5t-10 33.5t17 34.5t35 14.5q21 0 33.5 -14t10.5 -35q-2 -20 -18 -33.5t-36 -13.5zM377 554q-20 0 -32 13.5t-10 33.5t17 34.5t35 14.5t33 -14.5t11 -34.5t-18 -33.5t-36 -13.5z" />
    <glyph glyph-name="copyright" unicode="&#xa9;" horiz-adv-x="802" 
d="M399 -17q-163 0 -249.5 105t-69.5 262q16 157 124.5 262t271.5 105q162 0 249 -105t71 -262q-17 -157 -126 -262t-271 -105zM403 17q145 0 243 96t113 237q15 142 -63 237.5t-223 95.5q-146 0 -244 -95.5t-113 -237.5t63 -237.5t224 -95.5zM417 135q-98 0 -148.5 62.5
t-41.5 152.5t73 152.5t162 62.5q77 0 121 -37t49 -97h-34q-5 46 -41.5 74.5t-97.5 28.5q-83 0 -136.5 -53.5t-61.5 -130.5t34 -130.5t125 -53.5q60 0 102.5 28t58.5 73h34q-18 -59 -69.5 -95.5t-128.5 -36.5z" />
    <glyph glyph-name="ordfeminine" unicode="&#xaa;" horiz-adv-x="363" 
d="M204 394q-61 0 -94.5 39t-27.5 97t48.5 98t102.5 40q42 0 70 -19.5t38 -52.5l6 65h36l-27 -260h-36l7 63q-37 -70 -123 -70zM215 425q49 0 82.5 31t38.5 74q5 45 -22.5 76t-76.5 31q-48 0 -81 -31t-38 -76q-5 -44 22 -74.5t75 -30.5z" />
    <glyph glyph-name="guillemotleft" unicode="&#xab;" horiz-adv-x="464" 
d="M220 76l-184 185l223 185l24 -26l-191 -159l158 -159zM424 76l-184 185l223 185l24 -26l-191 -159l158 -159z" />
    <glyph glyph-name="logicalnot" unicode="&#xac;" horiz-adv-x="504" 
d="M427 217l15 142h-346l4 39h388l-19 -181h-42z" />
    <glyph glyph-name="uni00AD" unicode="&#xad;" horiz-adv-x="413" 
d="M83 238l4 39h297l-4 -39h-297z" />
    <glyph glyph-name="registered" unicode="&#xae;" horiz-adv-x="578" 
d="M311 212q-111 0 -171 72t-48 181q12 108 86.5 180t185.5 72q112 0 172 -72t48 -180q-12 -109 -86.5 -181t-186.5 -72zM314 236q100 0 167.5 66t77.5 163t-43.5 163t-153.5 66t-167.5 -66t-77.5 -163t43.5 -163t153.5 -66zM238 328l30 282h99q40 0 63 -27t18 -65
q-3 -31 -24.5 -55t-53.5 -31l56 -104h-27l-55 101h-71l-11 -101h-24zM276 451h73q30 0 51.5 19.5t23.5 47.5q3 29 -13.5 49.5t-46.5 20.5h-73z" />
    <glyph glyph-name="macron" unicode="&#xaf;" horiz-adv-x="600" 
d="M143 554l4 36h317l-4 -36h-317z" />
    <glyph glyph-name="degree" unicode="&#xb0;" horiz-adv-x="363" 
d="M224 399q-63 0 -100.5 42t-31.5 104q7 63 53.5 105t109.5 42t100 -42t30 -105q-6 -62 -52 -104t-109 -42zM228 434q49 0 82.5 32t38.5 79t-22 79t-76 32t-83.5 -32t-39.5 -79t23 -79t77 -32z" />
    <glyph glyph-name="plusminus" unicode="&#xb1;" horiz-adv-x="504" 
d="M259 264l13 124h-173l4 39h173l13 126h42l-13 -126h173l-4 -39h-173l-13 -124h-42zM75 165l4 39h388l-4 -39h-388z" />
    <glyph glyph-name="uni00B2" unicode="&#xb2;" horiz-adv-x="367" 
d="M85 400q8 68 35 106t88 64l71 32q66 28 73 91q4 34 -18 55t-61 21q-46 0 -76.5 -27t-35.5 -73h-38q7 60 49 96t104 36q57 0 88.5 -29t26.5 -77q-9 -80 -91 -117l-72 -31q-45 -20 -67 -46t-28 -68h233l-4 -33h-277z" />
    <glyph glyph-name="uni00B3" unicode="&#xb3;" horiz-adv-x="375" 
d="M228 394q-65 0 -99 31.5t-28 86.5h39q-5 -40 20.5 -64t71.5 -24t75 23t33 60q5 38 -19 60t-70 22h-35l3 29h34q44 0 71 20.5t31 56.5q4 34 -19.5 55t-65.5 21q-43 0 -71.5 -22t-32.5 -58h-38q5 49 44.5 79.5t100.5 30.5q59 0 92 -29t28 -76q-8 -77 -97 -92
q39 -2 63 -30.5t20 -68.5q-5 -50 -46.5 -80.5t-104.5 -30.5z" />
    <glyph glyph-name="acute" unicode="&#xb4;" horiz-adv-x="600" 
d="M168 513l-23 26l172 141l24 -27z" />
    <glyph glyph-name="uni00B5" unicode="&#xb5;" horiz-adv-x="568" 
d="M488 450h42l-47 -450h-42l13 122q-22 -57 -73 -95.5t-117 -38.5q-98 0 -130 74l-30 -280h-42l70 668h42l-27 -258q-8 -75 24 -120t107 -45q81 0 129.5 59.5t56.5 133.5z" />
    <glyph glyph-name="paragraph" unicode="&#xb6;" horiz-adv-x="642" 
d="M250 -148l51 477q-97 0 -151.5 48.5t-44.5 142.5q5 50 27 87.5t50 58t65.5 32.5t66.5 15.5t60 3.5h293l-4 -37h-53l-87 -828h-40l87 827h-192l-87 -827h-41z" />
    <glyph glyph-name="periodcentered" unicode="&#xb7;" horiz-adv-x="280" 
d="M167 263q-21 0 -33.5 14t-10.5 35t17.5 35.5t36.5 14.5q22 0 35 -14.5t11 -35.5t-18 -35t-38 -14z" />
    <glyph glyph-name="cedilla" unicode="&#xb8;" horiz-adv-x="600" 
d="M117 -214q-34 0 -53.5 19t-17.5 48h29q-1 -18 11 -29.5t34 -11.5q26 0 42 15t19 43q3 26 -9 42t-38 16q-33 0 -54 -28h-24l11 100h29l-7 -70q16 23 56 23q33 0 51.5 -23t14.5 -59q-4 -38 -29 -61.5t-65 -23.5z" />
    <glyph glyph-name="uni00B9" unicode="&#xb9;" horiz-adv-x="257" 
d="M170 400l31 297h-90l3 29q54 0 74.5 15t24.5 53h34l-41 -394h-36z" />
    <glyph glyph-name="ordmasculine" unicode="&#xba;" horiz-adv-x="339" 
d="M210 394q-64 0 -98.5 39t-28.5 98t49 98t107 39q65 0 100 -39.5t29 -97.5t-49.5 -97.5t-108.5 -39.5zM214 425q48 0 80.5 30.5t37.5 75.5t-21.5 75.5t-74.5 30.5t-80.5 -30.5t-37.5 -75.5t21.5 -75.5t74.5 -30.5z" />
    <glyph glyph-name="guillemotright" unicode="&#xbb;" horiz-adv-x="464" 
d="M56 76l-24 26l190 159l-157 159l30 26l183 -185zM260 76l-24 26l190 159l-157 159l30 26l183 -185z" />
    <glyph glyph-name="onequarter" unicode="&#xbc;" horiz-adv-x="759" 
d="M613 692l28 -19l-544 -682l-28 19zM158 286l31 297h-90l3 29q54 0 74.5 15t24.5 53h34l-41 -394h-36zM742 168l-4 -33h-71l-14 -136h-38l14 136h-171l27 259h37l-23 -226h134l13 124h38l-13 -124h71z" />
    <glyph glyph-name="onehalf" unicode="&#xbd;" horiz-adv-x="737" 
d="M97 -9l-28 19l544 682l28 -19zM158 286l31 297h-90l3 29q54 0 74.5 15t24.5 53h34l-41 -394h-36zM413 0q7 68 34.5 106t88.5 64l71 32q66 28 73 91q4 34 -18 55t-61 21q-46 0 -76.5 -27t-35.5 -73h-38q7 60 49 96t104 36q57 0 88.5 -29t26.5 -77q-9 -80 -91 -117l-72 -31
q-45 -20 -67 -46t-29 -68h233l-3 -33h-277z" />
    <glyph glyph-name="threequarters" unicode="&#xbe;" horiz-adv-x="861" 
d="M715 692l28 -19l-544 -682l-28 19zM367 391q-5 -50 -46.5 -80.5t-104.5 -30.5q-65 0 -99 31.5t-28 86.5h39q-5 -40 20.5 -64t71.5 -24t75 23t33 60q5 38 -19 60t-70 22h-35l3 29h34q44 0 71 20.5t31 56.5q4 34 -19.5 55t-65.5 21q-43 0 -71.5 -22t-32.5 -58h-38
q5 49 44.5 79.5t100.5 30.5q59 0 92 -29t28 -76q-8 -77 -96 -92q39 -2 62.5 -30.5t19.5 -68.5zM844 168l-4 -33h-71l-14 -136h-38l14 136h-171l27 259h37l-23 -226h134l13 124h38l-13 -124h71z" />
    <glyph glyph-name="questiondown" unicode="&#xbf;" horiz-adv-x="479" 
d="M316 490q21 0 33 -14.5t10 -35.5t-17.5 -35.5t-36.5 -14.5t-34.5 14.5t-11.5 35.5t19 35.5t38 14.5zM317 300l-3 -25q-6 -52 -25 -83.5t-59 -55.5l-63 -40q-82 -52 -92 -144q-6 -63 32.5 -103.5t117.5 -40.5q80 0 132 49.5t61 133.5h44q-11 -102 -76 -162.5t-166 -60.5
q-100 0 -149 51.5t-40 131.5q11 105 112 173l60 38q33 21 48.5 45.5t20.5 70.5l3 22h42z" />
    <glyph glyph-name="Agrave" unicode="&#xc0;" horiz-adv-x="564" 
d="M488 762l-20 -32l-226 126l20 32zM495 0l-33 144h-331l-62 -144h-46l313 700h40l165 -700h-46zM149 184h304l-104 459z" />
    <glyph glyph-name="Aacute" unicode="&#xc1;" horiz-adv-x="564" 
d="M501 856l-252 -126l-14 32l252 126zM495 0l-33 144h-331l-62 -144h-46l313 700h40l165 -700h-46zM149 184h304l-104 459z" />
    <glyph glyph-name="Acircumflex" unicode="&#xc2;" horiz-adv-x="564" 
d="M368 830l-109 -90l-21 24l135 109l112 -109l-26 -24zM495 0l-33 144h-331l-62 -144h-46l313 700h40l165 -700h-46zM149 184h304l-104 459z" />
    <glyph glyph-name="Atilde" unicode="&#xc3;" horiz-adv-x="564" 
d="M294 822q-46 0 -83 -52l-21 18q49 69 108 69q26 0 74.5 -30t70.5 -30q45 0 81 51l20 -19q-44 -67 -103 -67q-31 -1 -78 29.5t-69 30.5zM495 0l-33 144h-331l-62 -144h-46l313 700h40l165 -700h-46zM149 184h304l-104 459z" />
    <glyph glyph-name="Adieresis" unicode="&#xc4;" horiz-adv-x="564" 
d="M247 766q-20 0 -32.5 13.5t-10.5 33.5t17.5 34.5t35.5 14.5t32 -14.5t10 -34.5q-1 -20 -16.5 -33.5t-35.5 -13.5zM478 766q-20 0 -32 13.5t-11 33.5q2 20 17.5 34.5t35.5 14.5q21 0 33 -14.5t10 -34.5q-1 -20 -16.5 -33.5t-36.5 -13.5zM495 0l-33 144h-331l-62 -144h-46
l313 700h40l165 -700h-46zM149 184h304l-104 459z" />
    <glyph glyph-name="Aring" unicode="&#xc5;" horiz-adv-x="564" 
d="M495 0l-33 144h-331l-62 -144h-46l302 675q-37 10 -57.5 40.5t-16.5 69.5q5 47 41 80t84 33t78.5 -33t25.5 -80q-4 -39 -32 -69.5t-67 -40.5l160 -675h-46zM283 785q-4 -34 17.5 -58t55.5 -24q35 0 61.5 24t30.5 58q3 35 -18.5 58.5t-56.5 23.5t-61 -24t-29 -58zM149 184
h304l-104 459z" />
    <glyph glyph-name="AE" unicode="&#xc6;" horiz-adv-x="796" 
d="M793 659h-292l-30 -291h292l-5 -40h-292l-30 -287h292l-4 -41h-336l15 145h-250l-88 -145h-47l430 700h350zM176 184h231l49 460z" />
    <glyph glyph-name="Ccedilla" unicode="&#xc7;" horiz-adv-x="775" 
d="M405 27q112 0 187 49.5t111 134.5h47q-37 -98 -123.5 -159.5t-211.5 -65.5l-6 -56q16 23 56 23q33 0 51.5 -23t14.5 -59q-4 -38 -29 -61.5t-65 -23.5q-34 0 -53.5 19t-17.5 48h29q-1 -18 11 -29.5t34 -11.5q26 0 42 15t19 43q3 26 -9 42t-38 16q-33 0 -54 -28h-24l10 86
q-156 5 -239 109.5t-67 254.5q16 153 125 258.5t271 105.5q132 0 209 -61.5t94 -163.5h-47q-18 85 -82.5 134.5t-176.5 49.5q-144 0 -239 -93t-109 -230q-15 -137 60.5 -230t219.5 -93z" />
    <glyph glyph-name="Egrave" unicode="&#xc8;" horiz-adv-x="548" 
d="M476 730l-226 126l20 32l226 -126zM90 0l74 700h385l-5 -41h-341l-30 -291h341l-5 -40h-341l-30 -287h341l-4 -41h-385z" />
    <glyph glyph-name="Eacute" unicode="&#xc9;" horiz-adv-x="548" 
d="M257 730l-14 32l252 126l14 -32zM90 0l74 700h385l-5 -41h-341l-30 -291h341l-5 -40h-341l-30 -287h341l-4 -41h-385z" />
    <glyph glyph-name="Ecircumflex" unicode="&#xca;" horiz-adv-x="548" 
d="M381 873l112 -109l-26 -24l-91 90l-109 -90l-21 24zM90 0l74 700h385l-5 -41h-341l-30 -291h341l-5 -40h-341l-30 -287h341l-4 -41h-385z" />
    <glyph glyph-name="Edieresis" unicode="&#xcb;" horiz-adv-x="548" 
d="M255 766q-20 0 -32.5 13.5t-10.5 33.5t17.5 34.5t35.5 14.5t32 -14.5t10 -34.5q-1 -20 -16.5 -33.5t-35.5 -13.5zM486 766q-20 0 -32 13.5t-11 33.5q2 20 17.5 34.5t35.5 14.5q21 0 33 -14.5t10 -34.5q-1 -20 -16.5 -33.5t-36.5 -13.5zM90 0l74 700h385l-5 -41h-341
l-30 -291h341l-5 -40h-341l-30 -287h341l-4 -41h-385z" />
    <glyph glyph-name="Igrave" unicode="&#xcc;" horiz-adv-x="224" 
d="M248 751l-127 81l23 32l127 -81zM90 0l74 700h44l-74 -700h-44z" />
    <glyph glyph-name="Iacute" unicode="&#xcd;" horiz-adv-x="224" 
d="M130 751l-16 31l148 84l17 -31zM90 0l74 700h44l-74 -700h-44z" />
    <glyph glyph-name="Icircumflex" unicode="&#xce;" horiz-adv-x="224" 
d="M267 753l-69 70l-84 -70l-20 25l108 90l92 -90zM90 0l74 700h44l-74 -700h-44z" />
    <glyph glyph-name="Idieresis" unicode="&#xcf;" horiz-adv-x="224" 
d="M137 767q-20 0 -31.5 13t-10.5 33q2 20 16.5 33.5t34.5 13.5t32 -13.5t10 -33.5q-1 -20 -16 -33t-35 -13zM248 767q-20 0 -32 13t-10 33t16.5 33.5t34.5 13.5t31.5 -13.5t9.5 -33.5q-1 -20 -15.5 -33t-34.5 -13zM90 0l74 700h44l-74 -700h-44z" />
    <glyph glyph-name="Eth" unicode="&#xd0;" horiz-adv-x="684" 
d="M360 700q111 0 189.5 -51t110.5 -129.5t23 -169.5q-7 -68 -38 -130t-80.5 -111.5t-122 -79t-156.5 -29.5h-196l35 334h-81l4 39h81l35 327h196zM287 41q148 0 243 91.5t109 217.5q8 81 -20.5 150t-98 114t-168.5 45h-149l-30 -286h154l-4 -39h-154l-31 -293h149z" />
    <glyph glyph-name="Ntilde" unicode="&#xd1;" horiz-adv-x="662" 
d="M490 762q-31 -1 -78 29.5t-69 30.5q-46 0 -83 -52l-21 18q49 69 108 69q26 0 74.5 -30t70.5 -30q45 0 81 51l20 -19q-44 -67 -103 -67zM90 0l74 700h48l324 -629l67 629h43l-74 -700h-48l-326 629l-66 -629h-42z" />
    <glyph glyph-name="Ograve" unicode="&#xd2;" horiz-adv-x="803" 
d="M588 730l-226 126l20 32l226 -126zM401 -14q-108 0 -186 51.5t-111.5 133.5t-23.5 179q16 150 125.5 257t271.5 107q108 0 186 -51.5t111.5 -133.5t23.5 -179q-16 -150 -125.5 -257t-271.5 -107zM405 27q142 0 238 95t109 228q15 133 -61 228t-218 95q-143 0 -239 -95
t-109 -228q-15 -133 61 -228t219 -95z" />
    <glyph glyph-name="Oacute" unicode="&#xd3;" horiz-adv-x="803" 
d="M368 730l-14 32l252 126l14 -32zM401 -14q-108 0 -186 51.5t-111.5 133.5t-23.5 179q16 150 125.5 257t271.5 107q108 0 186 -51.5t111.5 -133.5t23.5 -179q-16 -150 -125.5 -257t-271.5 -107zM405 27q142 0 238 95t109 228q15 133 -61 228t-218 95q-143 0 -239 -95
t-109 -228q-15 -133 61 -228t219 -95z" />
    <glyph glyph-name="Ocircumflex" unicode="&#xd4;" horiz-adv-x="803" 
d="M492 873l112 -109l-26 -24l-91 90l-109 -90l-21 24zM401 -14q-108 0 -186 51.5t-111.5 133.5t-23.5 179q16 150 125.5 257t271.5 107q108 0 186 -51.5t111.5 -133.5t23.5 -179q-16 -150 -125.5 -257t-271.5 -107zM405 27q142 0 238 95t109 228q15 133 -61 228t-218 95
q-143 0 -239 -95t-109 -228q-15 -133 61 -228t219 -95z" />
    <glyph glyph-name="Otilde" unicode="&#xd5;" horiz-adv-x="803" 
d="M560 762q-31 -1 -78 29.5t-69 30.5q-46 0 -83 -52l-21 18q49 69 108 69q26 0 74.5 -30t70.5 -30q45 0 81 51l20 -19q-44 -67 -103 -67zM401 -14q-108 0 -186 51.5t-111.5 133.5t-23.5 179q16 150 125.5 257t271.5 107q108 0 186 -51.5t111.5 -133.5t23.5 -179
q-16 -150 -125.5 -257t-271.5 -107zM405 27q142 0 238 95t109 228q15 133 -61 228t-218 95q-143 0 -239 -95t-109 -228q-15 -133 61 -228t219 -95z" />
    <glyph glyph-name="Odieresis" unicode="&#xd6;" horiz-adv-x="803" 
d="M366 766q-20 0 -32.5 13.5t-10.5 33.5t17.5 34.5t35.5 14.5t32 -14.5t10 -34.5q-1 -20 -16.5 -33.5t-35.5 -13.5zM597 766q-20 0 -32 13.5t-11 33.5q2 20 17.5 34.5t35.5 14.5q21 0 33 -14.5t10 -34.5q-1 -20 -16.5 -33.5t-36.5 -13.5zM401 -14q-108 0 -186 51.5
t-111.5 133.5t-23.5 179q16 150 125.5 257t271.5 107q108 0 186 -51.5t111.5 -133.5t23.5 -179q-16 -150 -125.5 -257t-271.5 -107zM405 27q142 0 238 95t109 228q15 133 -61 228t-218 95q-143 0 -239 -95t-109 -228q-15 -133 61 -228t219 -95z" />
    <glyph glyph-name="multiply" unicode="&#xd7;" horiz-adv-x="469" 
d="M460 464l-165 -150l133 -149l-30 -27l-134 149l-163 -149l-26 27l165 149l-133 150l30 28l133 -150l166 150z" />
    <glyph glyph-name="Oslash" unicode="&#xd8;" horiz-adv-x="803" 
d="M630 681q90 -43 134.5 -133t33.5 -198q-16 -150 -125.5 -257t-271.5 -107q-72 0 -130 23l-40 -75l-31 14l39 75q-86 44 -128 133t-31 194q16 150 125.5 257t271.5 107q64 0 121 -19l37 70l32 -14zM125 350q-11 -93 24.5 -171t109.5 -118l318 595q-48 17 -104 17
q-143 0 -239 -95t-109 -228zM405 27q142 0 238 95t109 228q11 95 -26.5 174.5t-115.5 118.5l-319 -596q52 -20 114 -20z" />
    <glyph glyph-name="Ugrave" unicode="&#xd9;" horiz-adv-x="625" 
d="M499 730l-226 126l20 32l226 -126zM311 -14q-113 0 -172.5 63t-46.5 177l50 474h43l-50 -472q-10 -97 38.5 -149t141.5 -52q94 0 153.5 52t69.5 149l50 472h43l-50 -474q-13 -115 -85 -177.5t-185 -62.5z" />
    <glyph glyph-name="Uacute" unicode="&#xda;" horiz-adv-x="625" 
d="M279 730l-14 32l252 126l14 -32zM311 -14q-113 0 -172.5 63t-46.5 177l50 474h43l-50 -472q-10 -97 38.5 -149t141.5 -52q94 0 153.5 52t69.5 149l50 472h43l-50 -474q-13 -115 -85 -177.5t-185 -62.5z" />
    <glyph glyph-name="Ucircumflex" unicode="&#xdb;" horiz-adv-x="625" 
d="M403 873l112 -109l-26 -24l-91 90l-109 -90l-21 24zM311 -14q-113 0 -172.5 63t-46.5 177l50 474h43l-50 -472q-10 -97 38.5 -149t141.5 -52q94 0 153.5 52t69.5 149l50 472h43l-50 -474q-13 -115 -85 -177.5t-185 -62.5z" />
    <glyph glyph-name="Udieresis" unicode="&#xdc;" horiz-adv-x="625" 
d="M277 766q-20 0 -32.5 13.5t-10.5 33.5t17.5 34.5t35.5 14.5t32 -14.5t10 -34.5q-1 -20 -16.5 -33.5t-35.5 -13.5zM508 766q-20 0 -32 13.5t-11 33.5q2 20 17.5 34.5t35.5 14.5q21 0 33 -14.5t10 -34.5q-1 -20 -16.5 -33.5t-36.5 -13.5zM311 -14q-113 0 -172.5 63
t-46.5 177l50 474h43l-50 -472q-10 -97 38.5 -149t141.5 -52q94 0 153.5 52t69.5 149l50 472h43l-50 -474q-13 -115 -85 -177.5t-185 -62.5z" />
    <glyph glyph-name="Yacute" unicode="&#xdd;" horiz-adv-x="532" 
d="M499 856l-252 -126l-14 32l252 126zM564 700h47l-436 -700h-48l172 275l-225 425h51l202 -380z" />
    <glyph glyph-name="Thorn" unicode="&#xde;" horiz-adv-x="574" 
d="M387 575q102 0 157.5 -65.5t45.5 -159.5t-79.5 -159.5t-170.5 -65.5h-193l-13 -125h-44l74 700h44l-14 -125h193zM342 166q82 0 138.5 53.5t65.5 130.5q8 78 -37.5 131.5t-127.5 53.5h-191l-39 -369h191z" />
    <glyph glyph-name="germandbls" unicode="&#xdf;" horiz-adv-x="563" 
d="M287 -13q-51 0 -88 13l4 40q39 -14 86 -14q82 0 135.5 42.5t60.5 114.5q7 67 -37 113t-127 46h-57l4 39h53q78 0 127.5 41t55.5 106q8 66 -31 106.5t-116 40.5q-76 0 -124.5 -48.5t-56.5 -119.5l-53 -507h-42l53 507q9 89 70.5 148t156.5 59q97 0 145.5 -50t40.5 -134
q-7 -66 -52.5 -113.5t-115.5 -54.5q75 -7 115 -60t33 -123q-10 -88 -76 -140t-164 -52z" />
    <glyph glyph-name="agrave" unicode="&#xe0;" horiz-adv-x="590" 
d="M366 513l-143 140l28 27l144 -141zM268 -12q-103 0 -157.5 67t-43.5 169q11 103 80.5 170.5t171.5 67.5q69 0 116 -35.5t63 -94.5l12 118h42l-47 -450h-42l12 116q-28 -58 -83.5 -93t-123.5 -35zM276 27q86 0 145 57t68 140q9 84 -38 141.5t-134 57.5q-85 0 -142 -56
t-66 -143q-9 -85 36.5 -141t130.5 -56z" />
    <glyph glyph-name="aacute" unicode="&#xe1;" horiz-adv-x="590" 
d="M297 513l-23 26l172 141l24 -27zM268 -12q-103 0 -157.5 67t-43.5 169q11 103 80.5 170.5t171.5 67.5q69 0 116 -35.5t63 -94.5l12 118h42l-47 -450h-42l12 116q-28 -58 -83.5 -93t-123.5 -35zM276 27q86 0 145 57t68 140q9 84 -38 141.5t-134 57.5q-85 0 -142 -56
t-66 -143q-9 -85 36.5 -141t130.5 -56z" />
    <glyph glyph-name="acircumflex" unicode="&#xe2;" horiz-adv-x="590" 
d="M349 686l133 -148l-30 -25l-108 123l-134 -123l-24 25zM268 -12q-103 0 -157.5 67t-43.5 169q11 103 80.5 170.5t171.5 67.5q69 0 116 -35.5t63 -94.5l12 118h42l-47 -450h-42l12 116q-28 -58 -83.5 -93t-123.5 -35zM276 27q86 0 145 57t68 140q9 84 -38 141.5t-134 57.5
q-85 0 -142 -56t-66 -143q-9 -85 36.5 -141t130.5 -56z" />
    <glyph glyph-name="atilde" unicode="&#xe3;" horiz-adv-x="590" 
d="M407 551q-26 0 -72.5 29t-67.5 29q-43 0 -80 -50l-19 22q45 65 102 65q26 0 72.5 -29t68.5 -29q43 0 80 50l18 -22q-45 -65 -102 -65zM268 -12q-103 0 -157.5 67t-43.5 169q11 103 80.5 170.5t171.5 67.5q69 0 116 -35.5t63 -94.5l12 118h42l-47 -450h-42l12 116
q-28 -58 -83.5 -93t-123.5 -35zM276 27q86 0 145 57t68 140q9 84 -38 141.5t-134 57.5q-85 0 -142 -56t-66 -143q-9 -85 36.5 -141t130.5 -56z" />
    <glyph glyph-name="adieresis" unicode="&#xe4;" horiz-adv-x="590" 
d="M236 554q-20 0 -32 13.5t-10 33.5t17 34.5t35 14.5q21 0 33.5 -14t10.5 -35q-2 -20 -18 -33.5t-36 -13.5zM430 554q-20 0 -32 13.5t-10 33.5t17 34.5t35 14.5t33 -14.5t11 -34.5t-18 -33.5t-36 -13.5zM268 -12q-103 0 -157.5 67t-43.5 169q11 103 80.5 170.5t171.5 67.5
q69 0 116 -35.5t63 -94.5l12 118h42l-47 -450h-42l12 116q-28 -58 -83.5 -93t-123.5 -35zM276 27q86 0 145 57t68 140q9 84 -38 141.5t-134 57.5q-85 0 -142 -56t-66 -143q-9 -85 36.5 -141t130.5 -56z" />
    <glyph glyph-name="aring" unicode="&#xe5;" horiz-adv-x="590" 
d="M328 491q-45 0 -73 30.5t-23 76.5q4 46 38.5 76.5t79.5 30.5t72.5 -30t23.5 -77q-5 -47 -39 -77t-79 -30zM331 519q33 0 57 22t28 57t-16 57t-53 22t-57 -22t-28 -57t16 -57t53 -22zM268 -12q-103 0 -157.5 67t-43.5 169q11 103 80.5 170.5t171.5 67.5q69 0 116 -35.5
t63 -94.5l12 118h42l-47 -450h-42l12 116q-28 -58 -83.5 -93t-123.5 -35zM276 27q86 0 145 57t68 140q9 84 -38 141.5t-134 57.5q-85 0 -142 -56t-66 -143q-9 -85 36.5 -141t130.5 -56z" />
    <glyph glyph-name="ae" unicode="&#xe6;" horiz-adv-x="886" 
d="M871 255q-3 -24 -6 -35h-380q-8 -88 35.5 -141t123.5 -53q56 0 100 27t64 73h42q-20 -62 -78 -100t-132 -38q-70 0 -119 34.5t-69 95.5q-67 -130 -232 -130q-78 0 -122 35t-38 92q7 70 62 104q58 36 182 36h145l4 37q6 63 -30.5 98.5t-114.5 35.5q-68 0 -114 -33t-56 -93
h-42q10 74 69.5 118t147.5 44q152 0 176 -107q69 107 198 107q89 0 141 -59t43 -148zM489 255h340q8 75 -33 123t-114 48q-76 0 -128.5 -46t-64.5 -125zM442 192l1 6q0 15 1 22h-168q-162 0 -173 -103q-4 -45 31.5 -69t105.5 -24q80 0 137 45.5t65 122.5z" />
    <glyph glyph-name="ccedilla" unicode="&#xe7;" horiz-adv-x="512" 
d="M268 27q66 0 112 31.5t62 88.5h43q-16 -69 -71.5 -112t-135.5 -47l-6 -58q16 23 56 23q33 0 51.5 -23t14.5 -59q-4 -38 -29 -61.5t-65 -23.5q-34 0 -53.5 19t-17.5 48h29q-1 -18 11 -29.5t34 -11.5q26 0 42 15t19 43q3 26 -9 42t-38 16q-33 0 -54 -28h-24l10 88
q-94 6 -143.5 71t-38.5 166q11 105 78.5 170t168.5 65q85 0 135.5 -43t52.5 -115h-43q-4 57 -44 88t-106 31q-82 0 -136.5 -54t-63.5 -142q-10 -89 33.5 -143.5t125.5 -54.5z" />
    <glyph glyph-name="egrave" unicode="&#xe8;" horiz-adv-x="509" 
d="M376 539l-29 -26l-143 140l28 27zM488 220h-379v-2q-9 -86 33.5 -138.5t121.5 -52.5q57 0 102 26.5t65 71.5h42q-20 -61 -79 -99t-133 -38q-99 0 -152 65t-42 173q11 106 77 171t163 65q92 0 143.5 -58.5t42.5 -148.5zM303 426q-73 0 -124 -46.5t-65 -123.5h338
q8 75 -32.5 122.5t-116.5 47.5z" />
    <glyph glyph-name="eacute" unicode="&#xe9;" horiz-adv-x="509" 
d="M451 653l-173 -140l-23 26l172 141zM488 220h-379v-2q-9 -86 33.5 -138.5t121.5 -52.5q57 0 102 26.5t65 71.5h42q-20 -61 -79 -99t-133 -38q-99 0 -152 65t-42 173q11 106 77 171t163 65q92 0 143.5 -58.5t42.5 -148.5zM303 426q-73 0 -124 -46.5t-65 -123.5h338
q8 75 -32.5 122.5t-116.5 47.5z" />
    <glyph glyph-name="ecircumflex" unicode="&#xea;" horiz-adv-x="509" 
d="M324 636l-134 -123l-24 25l163 148l133 -148l-30 -25zM488 220h-379v-2q-9 -86 33.5 -138.5t121.5 -52.5q57 0 102 26.5t65 71.5h42q-20 -61 -79 -99t-133 -38q-99 0 -152 65t-42 173q11 106 77 171t163 65q92 0 143.5 -58.5t42.5 -148.5zM303 426q-73 0 -124 -46.5
t-65 -123.5h338q8 75 -32.5 122.5t-116.5 47.5z" />
    <glyph glyph-name="edieresis" unicode="&#xeb;" horiz-adv-x="509" 
d="M217 554q-20 0 -32 13.5t-10 33.5t17 34.5t35 14.5q21 0 33.5 -14t10.5 -35q-2 -20 -18 -33.5t-36 -13.5zM411 554q-20 0 -32 13.5t-10 33.5t17 34.5t35 14.5t33 -14.5t11 -34.5t-18 -33.5t-36 -13.5zM488 220h-379v-2q-9 -86 33.5 -138.5t121.5 -52.5q57 0 102 26.5
t65 71.5h42q-20 -61 -79 -99t-133 -38q-99 0 -152 65t-42 173q11 106 77 171t163 65q92 0 143.5 -58.5t42.5 -148.5zM303 426q-73 0 -124 -46.5t-65 -123.5h338q8 75 -32.5 122.5t-116.5 47.5z" />
    <glyph glyph-name="igrave" unicode="&#xec;" horiz-adv-x="212" 
d="M196 513l-143 140l28 27l144 -141zM85 0l47 450h42l-47 -450h-42z" />
    <glyph glyph-name="iacute" unicode="&#xed;" horiz-adv-x="212" 
d="M127 513l-23 26l172 141l24 -27zM85 0l47 450h42l-47 -450h-42z" />
    <glyph glyph-name="icircumflex" unicode="&#xee;" horiz-adv-x="212" 
d="M179 686l133 -148l-30 -25l-108 123l-134 -123l-24 25zM85 0l47 450h42l-47 -450h-42z" />
    <glyph glyph-name="idieresis" unicode="&#xef;" horiz-adv-x="212" 
d="M105 556q-18 0 -29.5 13t-9.5 31q2 20 16 33t33 13t30.5 -13.5t9.5 -32.5q-1 -18 -16 -31t-34 -13zM222 556q-18 0 -29.5 13t-9.5 31q2 20 16 33t33 13t30.5 -13.5t9.5 -32.5q-1 -18 -16 -31t-34 -13zM85 0l47 450h42l-47 -450h-42z" />
    <glyph glyph-name="eth" unicode="&#xf0;" horiz-adv-x="542" 
d="M497 366q34 -61 27 -141q-11 -100 -81 -168.5t-173 -68.5q-102 0 -158 68.5t-45 168.5q11 102 81.5 169.5t173.5 67.5q46 0 82 -18l-64 117l-106 -55l-12 28l104 54l-60 112h52l49 -91l100 52l15 -26l-101 -53zM274 28q84 0 141.5 57t66.5 140q8 84 -37.5 140.5
t-129.5 56.5t-141 -56.5t-65 -140.5q-9 -83 36 -140t129 -57z" />
    <glyph glyph-name="ntilde" unicode="&#xf1;" horiz-adv-x="561" 
d="M410 550q-26 0 -72.5 29t-67.5 29q-43 0 -80 -50l-19 22q45 65 102 65q26 0 72.5 -29t68.5 -29q43 0 80 50l18 -22q-45 -65 -102 -65zM85 0l47 450h42l-13 -124q21 61 71 98.5t124 37.5q86 0 124.5 -50.5t28.5 -146.5l-28 -265h-42l26 252q18 172 -125 172
q-82 0 -131.5 -56.5t-58.5 -147.5l-23 -220h-42z" />
    <glyph glyph-name="ograve" unicode="&#xf2;" horiz-adv-x="542" 
d="M361 512l-143 140l28 27l144 -141zM270 -12q-102 0 -158 68.5t-45 168.5q10 101 80 169t173 68t158.5 -68t45.5 -169q-11 -100 -81 -168.5t-173 -68.5zM274 28q84 0 141.5 57t66.5 140q8 84 -37.5 140.5t-129.5 56.5t-141 -56.5t-65 -140.5q-9 -83 36 -140t129 -57z" />
    <glyph glyph-name="oacute" unicode="&#xf3;" horiz-adv-x="542" 
d="M277 512l-23 26l172 141l24 -27zM270 -12q-102 0 -158 68.5t-45 168.5q10 101 80 169t173 68t158.5 -68t45.5 -169q-11 -100 -81 -168.5t-173 -68.5zM274 28q84 0 141.5 57t66.5 140q8 84 -37.5 140.5t-129.5 56.5t-141 -56.5t-65 -140.5q-9 -83 36 -140t129 -57z" />
    <glyph glyph-name="ocircumflex" unicode="&#xf4;" horiz-adv-x="542" 
d="M344 686l133 -148l-30 -25l-108 123l-134 -123l-24 25zM270 -12q-102 0 -158 68.5t-45 168.5q10 101 80 169t173 68t158.5 -68t45.5 -169q-11 -100 -81 -168.5t-173 -68.5zM274 28q84 0 141.5 57t66.5 140q8 84 -37.5 140.5t-129.5 56.5t-141 -56.5t-65 -140.5
q-9 -83 36 -140t129 -57z" />
    <glyph glyph-name="otilde" unicode="&#xf5;" horiz-adv-x="542" 
d="M402 550q-26 0 -72.5 29t-67.5 29q-43 0 -80 -50l-19 22q45 65 102 65q26 0 72.5 -29t68.5 -29q43 0 80 50l18 -22q-45 -65 -102 -65zM270 -12q-102 0 -158 68.5t-45 168.5q10 101 80 169t173 68t158.5 -68t45.5 -169q-11 -100 -81 -168.5t-173 -68.5zM274 28
q84 0 141.5 57t66.5 140q8 84 -37.5 140.5t-129.5 56.5t-141 -56.5t-65 -140.5q-9 -83 36 -140t129 -57z" />
    <glyph glyph-name="odieresis" unicode="&#xf6;" horiz-adv-x="542" 
d="M231 553q-20 0 -32 13.5t-10 33.5t17 34.5t35 14.5q21 0 33.5 -14t10.5 -35q-2 -20 -18 -33.5t-36 -13.5zM425 553q-20 0 -32 13.5t-10 33.5t17 34.5t35 14.5t33 -14.5t11 -34.5t-18 -33.5t-36 -13.5zM270 -12q-102 0 -158 68.5t-45 168.5q10 101 80 169t173 68
t158.5 -68t45.5 -169q-11 -100 -81 -168.5t-173 -68.5zM274 28q84 0 141.5 57t66.5 140q8 84 -37.5 140.5t-129.5 56.5t-141 -56.5t-65 -140.5q-9 -83 36 -140t129 -57z" />
    <glyph glyph-name="divide" unicode="&#xf7;" horiz-adv-x="504" 
d="M294 403q-20 0 -32.5 14t-10.5 34q2 21 18 35.5t36 14.5q21 0 33 -14.5t10 -35.5q-1 -20 -17 -34t-37 -14zM89 294l4 39h388l-4 -39h-388zM265 128q-20 0 -32.5 14t-10.5 34q2 21 18 35.5t36 14.5q21 0 33 -14.5t10 -35.5q-1 -20 -17 -34t-37 -14z" />
    <glyph glyph-name="oslash" unicode="&#xf8;" horiz-adv-x="542" 
d="M432 434q50 -30 74.5 -85.5t17.5 -123.5q-11 -100 -81 -168.5t-173 -68.5q-39 0 -72 11l-32 -59l-27 13l31 57q-56 28 -83.5 85.5t-19.5 129.5q10 101 80 169t173 68q47 0 84 -15l22 41l28 -13zM109 225q-7 -59 14.5 -106t66.5 -71l194 362q-30 12 -69 12
q-84 0 -141 -56.5t-65 -140.5zM274 28q84 0 141.5 57t66.5 140q5 55 -13 100.5t-57 70.5l-194 -360q26 -8 56 -8z" />
    <glyph glyph-name="ugrave" unicode="&#xf9;" horiz-adv-x="563" 
d="M374 512l-143 140l28 27l144 -141zM259 -12q-83 0 -126.5 50t-33.5 146l28 266h42l-27 -258q-8 -75 24 -120t107 -45q81 0 129.5 59.5t56.5 133.5l24 230h42l-47 -450h-42l13 122q-22 -57 -73 -95.5t-117 -38.5z" />
    <glyph glyph-name="uacute" unicode="&#xfa;" horiz-adv-x="563" 
d="M290 512l-23 26l172 141l24 -27zM259 -12q-83 0 -126.5 50t-33.5 146l28 266h42l-27 -258q-8 -75 24 -120t107 -45q81 0 129.5 59.5t56.5 133.5l24 230h42l-47 -450h-42l13 122q-22 -57 -73 -95.5t-117 -38.5z" />
    <glyph glyph-name="ucircumflex" unicode="&#xfb;" horiz-adv-x="563" 
d="M357 686l133 -148l-30 -25l-108 123l-134 -123l-24 25zM259 -12q-83 0 -126.5 50t-33.5 146l28 266h42l-27 -258q-8 -75 24 -120t107 -45q81 0 129.5 59.5t56.5 133.5l24 230h42l-47 -450h-42l13 122q-22 -57 -73 -95.5t-117 -38.5z" />
    <glyph glyph-name="udieresis" unicode="&#xfc;" horiz-adv-x="563" 
d="M244 553q-20 0 -32 13.5t-10 33.5t17 34.5t35 14.5q21 0 33.5 -14t10.5 -35q-2 -20 -18 -33.5t-36 -13.5zM438 553q-20 0 -32 13.5t-10 33.5t17 34.5t35 14.5t33 -14.5t11 -34.5t-18 -33.5t-36 -13.5zM259 -12q-83 0 -126.5 50t-33.5 146l28 266h42l-27 -258
q-8 -75 24 -120t107 -45q81 0 129.5 59.5t56.5 133.5l24 230h42l-47 -450h-42l13 122q-22 -57 -73 -95.5t-117 -38.5z" />
    <glyph glyph-name="yacute" unicode="&#xfd;" horiz-adv-x="568" 
d="M287 512l-23 26l172 141l24 -27zM487 450h42l-49 -472q-12 -113 -83 -166q-58 -42 -141 -42q-95 0 -144 46q-46 42 -39 115h42q-4 -54 30 -88.5t115 -34.5q160 0 178 172l15 139q-25 -56 -75 -92.5t-118 -36.5q-95 0 -132.5 52t-27.5 153l27 255h41l-26 -248
q-9 -86 20.5 -129.5t112.5 -43.5q80 0 130 59t58 133z" />
    <glyph glyph-name="thorn" unicode="&#xfe;" horiz-adv-x="590" 
d="M62 -218l97 918h42l-39 -368q30 61 85.5 95.5t124.5 34.5q98 0 153.5 -67t45.5 -171q-11 -102 -82 -169t-169 -67q-67 0 -115.5 34.5t-65.5 93.5l-35 -334h-42zM320 27q82 0 141 56t68 141q9 86 -38.5 142.5t-129.5 56.5q-84 0 -144 -56.5t-69 -142.5q-9 -85 40 -141
t132 -56z" />
    <glyph glyph-name="ydieresis" unicode="&#xff;" horiz-adv-x="568" 
d="M242 553q-20 0 -32 13.5t-10 33.5t17 34.5t35 14.5q21 0 33.5 -14t10.5 -35q-2 -20 -18 -33.5t-36 -13.5zM436 553q-20 0 -32 13.5t-10 33.5t17 34.5t35 14.5t33 -14.5t11 -34.5t-18 -33.5t-36 -13.5zM487 450h42l-49 -472q-12 -113 -83 -166q-58 -42 -141 -42
q-95 0 -144 46q-46 42 -39 115h42q-4 -54 30 -88.5t115 -34.5q160 0 178 172l15 139q-25 -56 -75 -92.5t-118 -36.5q-95 0 -132.5 52t-27.5 153l27 255h41l-26 -248q-9 -86 20.5 -129.5t112.5 -43.5q80 0 130 59t58 133z" />
    <glyph glyph-name="Amacron" unicode="&#x100;" horiz-adv-x="564" 
d="M536 812l-4 -37h-338l4 37h338zM495 0l-33 144h-331l-62 -144h-46l313 700h40l165 -700h-46zM149 184h304l-104 459z" />
    <glyph glyph-name="amacron" unicode="&#x101;" horiz-adv-x="590" 
d="M175 554l4 36h317l-4 -36h-317zM268 -12q-103 0 -157.5 67t-43.5 169q11 103 80.5 170.5t171.5 67.5q69 0 116 -35.5t63 -94.5l12 118h42l-47 -450h-42l12 116q-28 -58 -83.5 -93t-123.5 -35zM276 27q86 0 145 57t68 140q9 84 -38 141.5t-134 57.5q-85 0 -142 -56
t-66 -143q-9 -85 36.5 -141t130.5 -56z" />
    <glyph glyph-name="Abreve" unicode="&#x102;" horiz-adv-x="564" 
d="M360 738q-62 0 -103.5 33t-41.5 89h38q1 -42 32 -65t78 -23t83.5 23t45.5 65h37q-12 -56 -59.5 -89t-109.5 -33zM495 0l-33 144h-331l-62 -144h-46l313 700h40l165 -700h-46zM149 184h304l-104 459z" />
    <glyph glyph-name="abreve" unicode="&#x103;" horiz-adv-x="590" 
d="M329 509q-65 0 -105.5 37.5t-39.5 102.5h39q-1 -49 30.5 -77t79.5 -28t85.5 28t46.5 77h38q-12 -65 -60.5 -102.5t-113.5 -37.5zM268 -12q-103 0 -157.5 67t-43.5 169q11 103 80.5 170.5t171.5 67.5q69 0 116 -35.5t63 -94.5l12 118h42l-47 -450h-42l12 116
q-28 -58 -83.5 -93t-123.5 -35zM276 27q86 0 145 57t68 140q9 84 -38 141.5t-134 57.5q-85 0 -142 -56t-66 -143q-9 -85 36.5 -141t130.5 -56z" />
    <glyph glyph-name="Aogonek" unicode="&#x104;" horiz-adv-x="564" 
d="M494 -177q32 0 69 15l-5 -35q-41 -15 -78 -15q-47 0 -70 25.5t-19 65.5q4 35 31.5 66.5t76.5 54.5h-4l-33 144h-331l-62 -144h-46l313 700h40l165 -700q-51 -17 -78.5 -46.5t-30.5 -62.5q-4 -31 12 -49.5t50 -18.5zM149 184h304l-104 459z" />
    <glyph glyph-name="aogonek" unicode="&#x105;" horiz-adv-x="590" 
d="M457 -177q31 0 69 15l-5 -35q-41 -15 -78 -15q-47 0 -70 25.5t-19 65.5q4 35 31.5 66.5t76.5 54.5h1l12 116q-28 -58 -83.5 -93t-123.5 -35q-103 0 -157.5 67t-43.5 169q11 103 80.5 170.5t171.5 67.5q69 0 116 -35.5t63 -94.5l12 118h42l-47 -450h-1
q-51 -17 -78.5 -46.5t-30.5 -62.5q-4 -31 12 -49.5t50 -18.5zM276 27q86 0 145 57t68 140q9 84 -38 141.5t-134 57.5q-85 0 -142 -56t-66 -143q-9 -85 36.5 -141t130.5 -56z" />
    <glyph glyph-name="Cacute" unicode="&#x106;" horiz-adv-x="775" 
d="M368 730l-14 32l252 126l14 -32zM400 -14q-162 0 -249 105.5t-71 258.5t125 258.5t271 105.5q132 0 209 -61.5t94 -163.5h-47q-18 85 -82.5 134.5t-176.5 49.5q-144 0 -239 -93t-109 -230q-15 -137 60.5 -230t219.5 -93q112 0 187 49.5t111 134.5h47
q-38 -102 -128 -163.5t-222 -61.5z" />
    <glyph glyph-name="cacute" unicode="&#x107;" horiz-adv-x="512" 
d="M285 513l-23 26l172 141l24 -27zM265 -12q-101 0 -155 66t-43 171t78.5 170t168.5 65q85 0 135.5 -43t52.5 -115h-43q-4 57 -44 88t-106 31q-82 0 -136.5 -54t-63.5 -142q-10 -89 33.5 -143.5t125.5 -54.5q66 0 112 31.5t62 88.5h43q-17 -72 -76 -115.5t-144 -43.5z" />
    <glyph glyph-name="Ccircumflex" unicode="&#x108;" horiz-adv-x="775" 
d="M492 873l112 -109l-26 -24l-91 90l-109 -90l-21 24zM400 -14q-162 0 -249 105.5t-71 258.5t125 258.5t271 105.5q132 0 209 -61.5t94 -163.5h-47q-18 85 -82.5 134.5t-176.5 49.5q-144 0 -239 -93t-109 -230q-15 -137 60.5 -230t219.5 -93q112 0 187 49.5t111 134.5h47
q-38 -102 -128 -163.5t-222 -61.5z" />
    <glyph glyph-name="ccircumflex" unicode="&#x109;" horiz-adv-x="512" 
d="M337 686l133 -148l-30 -25l-108 123l-134 -123l-24 25zM265 -12q-101 0 -155 66t-43 171t78.5 170t168.5 65q85 0 135.5 -43t52.5 -115h-43q-4 57 -44 88t-106 31q-82 0 -136.5 -54t-63.5 -142q-10 -89 33.5 -143.5t125.5 -54.5q66 0 112 31.5t62 88.5h43
q-17 -72 -76 -115.5t-144 -43.5z" />
    <glyph glyph-name="Cdotaccent" unicode="&#x10a;" horiz-adv-x="775" 
d="M480 765q-21 0 -32.5 13.5t-9.5 34.5t16.5 34.5t35.5 13.5t33.5 -14t10.5 -34q-1 -21 -17 -34.5t-37 -13.5zM400 -14q-162 0 -249 105.5t-71 258.5t125 258.5t271 105.5q132 0 209 -61.5t94 -163.5h-47q-18 85 -82.5 134.5t-176.5 49.5q-144 0 -239 -93t-109 -230
q-15 -137 60.5 -230t219.5 -93q112 0 187 49.5t111 134.5h47q-38 -102 -128 -163.5t-222 -61.5z" />
    <glyph glyph-name="cdotaccent" unicode="&#x10b;" horiz-adv-x="512" 
d="M322 553q-21 0 -33.5 14.5t-10.5 35.5q2 20 18 34.5t37 14.5t33.5 -14t10.5 -35t-17.5 -35.5t-37.5 -14.5zM265 -12q-101 0 -155 66t-43 171t78.5 170t168.5 65q85 0 135.5 -43t52.5 -115h-43q-4 57 -44 88t-106 31q-82 0 -136.5 -54t-63.5 -142q-10 -89 33.5 -143.5
t125.5 -54.5q66 0 112 31.5t62 88.5h43q-17 -72 -76 -115.5t-144 -43.5z" />
    <glyph glyph-name="Ccaron" unicode="&#x10c;" horiz-adv-x="775" 
d="M478 739l-113 109l27 24l90 -90l110 90l20 -24zM400 -14q-162 0 -249 105.5t-71 258.5t125 258.5t271 105.5q132 0 209 -61.5t94 -163.5h-47q-18 85 -82.5 134.5t-176.5 49.5q-144 0 -239 -93t-109 -230q-15 -137 60.5 -230t219.5 -93q112 0 187 49.5t111 134.5h47
q-38 -102 -128 -163.5t-222 -61.5z" />
    <glyph glyph-name="ccaron" unicode="&#x10d;" horiz-adv-x="512" 
d="M318 513l-133 148l30 25l108 -123l134 123l24 -25zM265 -12q-101 0 -155 66t-43 171t78.5 170t168.5 65q85 0 135.5 -43t52.5 -115h-43q-4 57 -44 88t-106 31q-82 0 -136.5 -54t-63.5 -142q-10 -89 33.5 -143.5t125.5 -54.5q66 0 112 31.5t62 88.5h43q-17 -72 -76 -115.5
t-144 -43.5z" />
    <glyph glyph-name="Dcaron" unicode="&#x10e;" horiz-adv-x="684" 
d="M400 739l-113 109l27 24l90 -90l110 90l20 -24zM90 0l74 700h196q111 0 189.5 -51t110.5 -129.5t23 -169.5q-7 -68 -38 -130t-80.5 -111.5t-122 -79t-156.5 -29.5h-196zM138 41h149q148 0 243 91.5t109 217.5q8 81 -20.5 150t-98 114t-168.5 45h-149z" />
    <glyph glyph-name="dcaron" unicode="&#x10f;" horiz-adv-x="694" 
d="M652 511q-11 0 -16 2l3 26q7 -1 16 -1q23 0 39 14t20 38q6 28 -3 45q-14 -17 -38 -17q-19 0 -29.5 12.5t-8.5 32.5q2 19 16.5 32.5t36.5 13.5q32 0 48.5 -27.5t12.5 -70.5q-5 -47 -32 -73.5t-65 -26.5zM537 700h42l-74 -700h-42l12 116q-28 -58 -83.5 -93t-123.5 -35
q-103 0 -157.5 67t-43.5 169q11 103 80.5 170.5t171.5 67.5q69 0 116 -35.5t63 -94.5zM276 27q86 0 145 57t68 140q9 84 -38 141.5t-134 57.5q-85 0 -142 -56t-66 -143q-9 -85 36.5 -141t130.5 -56z" />
    <glyph glyph-name="Dcroat" unicode="&#x110;" horiz-adv-x="684" 
d="M360 700q111 0 189.5 -51t110.5 -129.5t23 -169.5q-7 -68 -38 -130t-80.5 -111.5t-122 -79t-156.5 -29.5h-196l35 334h-81l4 39h81l35 327h196zM287 41q148 0 243 91.5t109 217.5q8 81 -20.5 150t-98 114t-168.5 45h-149l-30 -286h154l-4 -39h-154l-31 -293h149z" />
    <glyph glyph-name="dcroat" unicode="&#x111;" horiz-adv-x="580" 
d="M629 581l-3 -33h-63l-58 -548h-42l12 116q-28 -58 -83.5 -93t-123.5 -35q-103 0 -157.5 67t-43.5 169q11 103 80.5 170.5t171.5 67.5q69 0 116 -35.5t63 -94.5l23 216h-197l3 33h197l13 119h42l-13 -119h63zM276 27q86 0 145 57t68 140q9 84 -38 141.5t-134 57.5
q-85 0 -142 -56t-66 -143q-9 -85 36.5 -141t130.5 -56z" />
    <glyph glyph-name="Emacron" unicode="&#x112;" horiz-adv-x="548" 
d="M202 775l4 37h338l-4 -37h-338zM90 0l74 700h385l-5 -41h-341l-30 -291h341l-5 -40h-341l-30 -287h341l-4 -41h-385z" />
    <glyph glyph-name="emacron" unicode="&#x113;" horiz-adv-x="509" 
d="M477 590l-4 -36h-317l4 36h317zM488 220h-379v-2q-9 -86 33.5 -138.5t121.5 -52.5q57 0 102 26.5t65 71.5h42q-20 -61 -79 -99t-133 -38q-99 0 -152 65t-42 173q11 106 77 171t163 65q92 0 143.5 -58.5t42.5 -148.5zM303 426q-73 0 -124 -46.5t-65 -123.5h338
q8 75 -32.5 122.5t-116.5 47.5z" />
    <glyph glyph-name="Ebreve" unicode="&#x114;" horiz-adv-x="548" 
d="M368 738q-62 0 -103.5 33t-41.5 89h38q1 -42 32 -65t78 -23t83.5 23t45.5 65h37q-12 -56 -59.5 -89t-109.5 -33zM90 0l74 700h385l-5 -41h-341l-30 -291h341l-5 -40h-341l-30 -287h341l-4 -41h-385z" />
    <glyph glyph-name="ebreve" unicode="&#x115;" horiz-adv-x="509" 
d="M310 509q-65 0 -105.5 37.5t-39.5 102.5h39q-1 -49 30.5 -77t79.5 -28t85.5 28t46.5 77h38q-12 -65 -60.5 -102.5t-113.5 -37.5zM488 220h-379v-2q-9 -86 33.5 -138.5t121.5 -52.5q57 0 102 26.5t65 71.5h42q-20 -61 -79 -99t-133 -38q-99 0 -152 65t-42 173
q11 106 77 171t163 65q92 0 143.5 -58.5t42.5 -148.5zM303 426q-73 0 -124 -46.5t-65 -123.5h338q8 75 -32.5 122.5t-116.5 47.5z" />
    <glyph glyph-name="Edotaccent" unicode="&#x116;" horiz-adv-x="548" 
d="M369 765q-21 0 -32.5 13.5t-9.5 34.5t16.5 34.5t35.5 13.5t33.5 -14t10.5 -34q-1 -21 -17 -34.5t-37 -13.5zM90 0l74 700h385l-5 -41h-341l-30 -291h341l-5 -40h-341l-30 -287h341l-4 -41h-385z" />
    <glyph glyph-name="edotaccent" unicode="&#x117;" horiz-adv-x="509" 
d="M315 553q-21 0 -33.5 14.5t-10.5 35.5q2 20 18 34.5t37 14.5t33.5 -14t10.5 -35t-17.5 -35.5t-37.5 -14.5zM488 220h-379v-2q-9 -86 33.5 -138.5t121.5 -52.5q57 0 102 26.5t65 71.5h42q-20 -61 -79 -99t-133 -38q-99 0 -152 65t-42 173q11 106 77 171t163 65
q92 0 143.5 -58.5t42.5 -148.5zM303 426q-73 0 -124 -46.5t-65 -123.5h338q8 75 -32.5 122.5t-116.5 47.5z" />
    <glyph glyph-name="Eogonek" unicode="&#x118;" horiz-adv-x="548" 
d="M428 -177q32 0 69 15l-5 -35q-41 -15 -78 -15q-47 0 -70 25.5t-19 65.5q4 35 31.5 66.5t76.5 54.5h-343l74 700h385l-5 -41h-341l-30 -291h341l-5 -40h-341l-30 -287h341l-4 -41q-51 -17 -78.5 -46.5t-30.5 -62.5q-4 -31 12 -49.5t50 -18.5z" />
    <glyph glyph-name="eogonek" unicode="&#x119;" horiz-adv-x="509" 
d="M488 220h-379v-2q-9 -86 33.5 -138.5t121.5 -52.5q57 0 102 26.5t65 71.5h42q-15 -46 -53.5 -80t-90.5 -48q-47 -18 -72.5 -46.5t-28.5 -59.5q-4 -31 12 -49.5t50 -18.5q31 0 69 15l-5 -35q-41 -15 -78 -15q-47 0 -70 25.5t-19 65.5q6 65 85 109h-11q-99 0 -152 65
t-42 173q11 106 77 171t163 65q92 0 143.5 -58.5t42.5 -148.5zM303 426q-73 0 -124 -46.5t-65 -123.5h338q8 75 -32.5 122.5t-116.5 47.5z" />
    <glyph glyph-name="Ecaron" unicode="&#x11a;" horiz-adv-x="548" 
d="M368 739l-113 109l27 24l90 -90l110 90l20 -24zM90 0l74 700h385l-5 -41h-341l-30 -291h341l-5 -40h-341l-30 -287h341l-4 -41h-385z" />
    <glyph glyph-name="ecaron" unicode="&#x11b;" horiz-adv-x="509" 
d="M474 661l-163 -148l-133 148l30 25l108 -123l134 123zM488 220h-379v-2q-9 -86 33.5 -138.5t121.5 -52.5q57 0 102 26.5t65 71.5h42q-20 -61 -79 -99t-133 -38q-99 0 -152 65t-42 173q11 106 77 171t163 65q92 0 143.5 -58.5t42.5 -148.5zM303 426q-73 0 -124 -46.5
t-65 -123.5h338q8 75 -32.5 122.5t-116.5 47.5z" />
    <glyph glyph-name="Gcircumflex" unicode="&#x11c;" horiz-adv-x="819" 
d="M482 830l-109 -90l-21 24l135 109l112 -109l-26 -24zM829 317l-4 -40h-77q-30 -134 -119.5 -212.5t-229.5 -78.5q-166 0 -251 103.5t-68 259.5q16 159 121 262t268 103q112 0 187.5 -53.5t89.5 -141.5h-47q-17 71 -79 112.5t-155 41.5q-144 0 -235 -90.5t-105 -233.5
q-16 -139 58 -230.5t220 -91.5q121 0 196.5 66.5t103.5 183.5h-239l4 40h361z" />
    <glyph glyph-name="gcircumflex" unicode="&#x11d;" horiz-adv-x="590" 
d="M347 686l133 -148l-30 -25l-108 123l-134 -123l-24 25zM510 450h42l-48 -455q-12 -118 -92 -178q-62 -47 -160 -47q-102 0 -159 49q-51 47 -44 112h43q-4 -52 38.5 -87.5t124.5 -35.5q91 0 144.5 48t62.5 137l13 123q-29 -60 -84.5 -94t-122.5 -34q-99 0 -155.5 67.5
t-45.5 168.5q11 102 82 170t170 68q68 0 115.5 -34t63.5 -96zM276 27q84 0 144 56.5t69 140.5q8 86 -40 142.5t-132 56.5q-82 0 -140.5 -56.5t-67.5 -142.5q-9 -85 38 -141t129 -56z" />
    <glyph glyph-name="Gbreve" unicode="&#x11e;" horiz-adv-x="819" 
d="M474 738q-62 0 -103.5 33t-41.5 89h38q1 -42 32 -65t78 -23t83.5 23t45.5 65h37q-12 -56 -59.5 -89t-109.5 -33zM829 317l-4 -40h-77q-30 -134 -119.5 -212.5t-229.5 -78.5q-166 0 -251 103.5t-68 259.5q16 159 121 262t268 103q112 0 187.5 -53.5t89.5 -141.5h-47
q-17 71 -79 112.5t-155 41.5q-144 0 -235 -90.5t-105 -233.5q-16 -139 58 -230.5t220 -91.5q121 0 196.5 66.5t103.5 183.5h-239l4 40h361z" />
    <glyph glyph-name="gbreve" unicode="&#x11f;" horiz-adv-x="590" 
d="M328 509q-65 0 -105.5 37.5t-39.5 102.5h39q-1 -49 30.5 -77t79.5 -28t85.5 28t46.5 77h38q-12 -65 -60.5 -102.5t-113.5 -37.5zM510 450h42l-48 -455q-12 -118 -92 -178q-62 -47 -160 -47q-102 0 -159 49q-51 47 -44 112h43q-4 -52 38.5 -87.5t124.5 -35.5
q91 0 144.5 48t62.5 137l13 123q-29 -60 -84.5 -94t-122.5 -34q-99 0 -155.5 67.5t-45.5 168.5q11 102 82 170t170 68q68 0 115.5 -34t63.5 -96zM276 27q84 0 144 56.5t69 140.5q8 86 -40 142.5t-132 56.5q-82 0 -140.5 -56.5t-67.5 -142.5q-9 -85 38 -141t129 -56z" />
    <glyph glyph-name="Gdotaccent" unicode="&#x120;" horiz-adv-x="819" 
d="M475 765q-21 0 -32.5 13.5t-9.5 34.5t16.5 34.5t35.5 13.5t33.5 -14t10.5 -34q-1 -21 -17 -34.5t-37 -13.5zM829 317l-4 -40h-77q-30 -134 -119.5 -212.5t-229.5 -78.5q-166 0 -251 103.5t-68 259.5q16 159 121 262t268 103q112 0 187.5 -53.5t89.5 -141.5h-47
q-17 71 -79 112.5t-155 41.5q-144 0 -235 -90.5t-105 -233.5q-16 -139 58 -230.5t220 -91.5q121 0 196.5 66.5t103.5 183.5h-239l4 40h361z" />
    <glyph glyph-name="gdotaccent" unicode="&#x121;" horiz-adv-x="590" 
d="M332 553q-21 0 -33.5 14.5t-10.5 35.5q2 20 18 34.5t37 14.5t33.5 -14t10.5 -35t-17.5 -35.5t-37.5 -14.5zM510 450h42l-48 -455q-12 -118 -92 -178q-62 -47 -160 -47q-102 0 -159 49q-51 47 -44 112h43q-4 -52 38.5 -87.5t124.5 -35.5q91 0 144.5 48t62.5 137l13 123
q-29 -60 -84.5 -94t-122.5 -34q-99 0 -155.5 67.5t-45.5 168.5q11 102 82 170t170 68q68 0 115.5 -34t63.5 -96zM276 27q84 0 144 56.5t69 140.5q8 86 -40 142.5t-132 56.5q-82 0 -140.5 -56.5t-67.5 -142.5q-9 -85 38 -141t129 -56z" />
    <glyph glyph-name="Gcommaaccent" unicode="&#x122;" horiz-adv-x="819" 
d="M829 317l-4 -40h-77q-30 -134 -119.5 -212.5t-229.5 -78.5q-166 0 -251 103.5t-68 259.5q16 159 121 262t268 103q112 0 187.5 -53.5t89.5 -141.5h-47q-17 71 -79 112.5t-155 41.5q-144 0 -235 -90.5t-105 -233.5q-16 -139 58 -230.5t220 -91.5q121 0 196.5 66.5
t103.5 183.5h-239l4 40h361zM392 -30q27 0 42 -20.5t11 -54.5q-4 -45 -32.5 -70t-73.5 -26l2 24q59 0 70 52q2 8 2.5 17t-0.5 12q-10 -18 -32 -18q-19 0 -30 11.5t-9 29.5q2 19 16 31t34 12z" />
    <glyph glyph-name="gcommaaccent" unicode="&#x123;" horiz-adv-x="590" 
d="M383 690l-3 -24q-60 0 -70 -44q-5 -18 -2 -31q10 19 33 19q19 0 29.5 -12t8.5 -30t-16.5 -30.5t-34.5 -12.5q-28 0 -41.5 21.5t-10.5 55.5q4 41 32 64t75 24zM510 450h42l-48 -455q-12 -118 -92 -178q-62 -47 -160 -47q-102 0 -159 49q-51 47 -44 112h43
q-4 -52 38.5 -87.5t124.5 -35.5q91 0 144.5 48t62.5 137l13 123q-29 -60 -84.5 -94t-122.5 -34q-99 0 -155.5 67.5t-45.5 168.5q11 102 82 170t170 68q68 0 115.5 -34t63.5 -96zM276 27q84 0 144 56.5t69 140.5q8 86 -40 142.5t-132 56.5q-82 0 -140.5 -56.5t-67.5 -142.5
q-9 -85 38 -141t129 -56z" />
    <glyph glyph-name="Hcircumflex" unicode="&#x124;" horiz-adv-x="665" 
d="M424 873l112 -109l-26 -24l-91 90l-109 -90l-21 24zM90 0l74 700h44l-35 -332h398l35 332h43l-74 -700h-43l34 328h-398l-34 -328h-44z" />
    <glyph glyph-name="hcircumflex" unicode="&#x125;" horiz-adv-x="565" 
d="M265 753l-69 70l-84 -70l-20 25l108 90l92 -90zM360 462q86 0 124.5 -50.5t28.5 -146.5l-28 -265h-42l26 252q18 172 -125 172q-83 0 -132 -56.5t-58 -147.5l-23 -220h-42l74 700h42l-40 -374q21 61 71 98.5t124 37.5z" />
    <glyph glyph-name="Hbar" unicode="&#x126;" horiz-adv-x="665" 
d="M668 549l-4 -33h-35l-54 -516h-43l34 328h-398l-34 -328h-44l54 516h-35l4 33h35l16 151h44l-16 -151h398l16 151h43l-16 -151h35zM571 368l15 148h-398l-15 -148h398z" />
    <glyph glyph-name="hbar" unicode="&#x127;" horiz-adv-x="565" 
d="M360 462q86 0 124.5 -50.5t28.5 -146.5l-28 -265h-42l26 252q18 172 -125 172q-83 0 -132 -56.5t-58 -147.5l-23 -220h-42l58 548h-71l3 33h71l13 119h42l-13 -119h188l-3 -33h-188l-24 -222q21 61 71 98.5t124 37.5z" />
    <glyph glyph-name="Itilde" unicode="&#x128;" horiz-adv-x="224" 
d="M230 771q-21 0 -39 19.5t-29 19.5q-21 0 -42 -36l-17 18q24 51 64 51q20 0 38 -19.5t31 -19.5q22 0 35 31l19 -16q-20 -48 -60 -48zM90 0l74 700h44l-74 -700h-44z" />
    <glyph glyph-name="itilde" unicode="&#x129;" horiz-adv-x="212" 
d="M197 537q-20 0 -38 21.5t-30 21.5q-21 0 -41 -37l-16 20q25 55 64 55q21 0 39.5 -21.5t30.5 -21.5q23 0 36 31l17 -18q-19 -51 -62 -51zM85 0l47 450h42l-47 -450h-42z" />
    <glyph glyph-name="Imacron" unicode="&#x12a;" horiz-adv-x="224" 
d="M112 775l4 34h161l-4 -34h-161zM90 0l74 700h44l-74 -700h-44z" />
    <glyph glyph-name="imacron" unicode="&#x12b;" horiz-adv-x="212" 
d="M75 554l4 36h178l-4 -36h-178zM85 0l47 450h42l-47 -450h-42z" />
    <glyph glyph-name="Ibreve" unicode="&#x12c;" horiz-adv-x="224" 
d="M189 746q-40 0 -65.5 26t-20.5 80h37q-2 -35 13 -53.5t40 -18.5t44.5 18.5t25.5 53.5h36q-8 -54 -39 -80t-71 -26zM90 0l74 700h44l-74 -700h-44z" />
    <glyph glyph-name="ibreve" unicode="&#x12d;" horiz-adv-x="212" 
d="M160 524q-43 0 -66 28t-17 86h33q-6 -83 53 -83q57 0 71 83h34q-9 -59 -37.5 -86.5t-70.5 -27.5zM85 0l47 450h42l-47 -450h-42z" />
    <glyph glyph-name="Iogonek" unicode="&#x12e;" horiz-adv-x="224" 
d="M86 -177q32 0 69 15l-5 -35q-41 -15 -78 -15q-47 0 -70 25.5t-19 65.5q4 35 31.5 66.5t76.5 54.5h-1l74 700h44l-74 -700h-1q-51 -17 -78.5 -46.5t-30.5 -62.5q-4 -31 12 -49.5t50 -18.5z" />
    <glyph glyph-name="iogonek" unicode="&#x12f;" horiz-adv-x="212" 
d="M164 553q-21 0 -33.5 14.5t-10.5 35.5q2 20 18 34.5t37 14.5t33.5 -14t10.5 -35t-17.5 -35.5t-37.5 -14.5zM80 -177q32 0 69 15l-5 -35q-41 -15 -78 -15q-47 0 -70 25.5t-19 65.5q4 35 31.5 66.5t76.5 54.5l47 450h42l-47 -450q-51 -17 -78.5 -46.5t-30.5 -62.5
q-4 -31 12 -49.5t50 -18.5z" />
    <glyph glyph-name="Idotaccent" unicode="&#x130;" horiz-adv-x="224" 
d="M191 765q-21 0 -32.5 13.5t-9.5 34.5t16.5 34.5t35.5 13.5t33.5 -14t10.5 -34q-1 -21 -17 -34.5t-37 -13.5zM90 0l74 700h44l-74 -700h-44z" />
    <glyph glyph-name="dotlessi" unicode="&#x131;" horiz-adv-x="212" 
d="M85 0l47 450h42l-47 -450h-42z" />
    <glyph glyph-name="IJ" unicode="&#x132;" horiz-adv-x="760" 
d="M90 0l74 700h44l-74 -700h-44zM477 -14q-99 0 -156.5 59t-46.5 166h43q-9 -88 38 -136t126 -48q77 0 129.5 50.5t62.5 140.5l51 482h43l-51 -482q-12 -109 -77 -170.5t-162 -61.5z" />
    <glyph glyph-name="ij" unicode="&#x133;" horiz-adv-x="427" 
d="M164 553q-21 0 -33.5 14.5t-10.5 35.5q2 20 18 34.5t37 14.5t33.5 -14t10.5 -35t-17.5 -35.5t-37.5 -14.5zM379 553q-21 0 -33.5 14.5t-10.5 35.5q2 20 18 34.5t37 14.5t33.5 -14t10.5 -35t-17.5 -35.5t-37.5 -14.5zM85 0l47 450h42l-47 -450h-42zM213 -224q-39 0 -62 13
l4 41q25 -13 57 -13t52.5 24t25.5 67l57 542h42l-58 -550q-6 -58 -37.5 -91t-80.5 -33z" />
    <glyph glyph-name="Jcircumflex" unicode="&#x134;" horiz-adv-x="537" 
d="M603 753l-69 70l-84 -70l-20 25l108 90l92 -90zM253 -14q-99 0 -156.5 59t-46.5 166h43q-9 -88 38 -136t126 -48q77 0 129.5 50.5t62.5 140.5l51 482h43l-51 -482q-12 -109 -77 -170.5t-162 -61.5z" />
    <glyph glyph-name="jcircumflex" unicode="&#x135;" horiz-adv-x="215" 
d="M235 686l133 -148l-30 -25l-108 123l-134 -123l-24 25zM1 -224q-39 0 -62 13l4 41q25 -13 57 -13t52.5 24t25.5 67l57 542h42l-58 -550q-6 -58 -37.5 -91t-80.5 -33z" />
    <glyph glyph-name="Kcommaaccent" unicode="&#x136;" horiz-adv-x="574" 
d="M626 700l-409 -349l335 -351h-60l-322 342l-36 -342h-44l74 700h44l-36 -342l395 342h59zM278 -30q27 0 42 -20.5t11 -54.5q-4 -45 -32.5 -70t-73.5 -26l2 24q59 0 70 52q2 8 2.5 17t-0.5 12q-10 -18 -32 -18q-19 0 -30 11.5t-9 29.5q2 19 16 31t34 12z" />
    <glyph glyph-name="kcommaaccent" unicode="&#x137;" horiz-adv-x="479" 
d="M493 450l-290 -221l243 -229h-58l-238 223l-23 -223h-42l74 700h42l-50 -469l285 219h57zM246 -30q27 0 42 -20.5t11 -54.5q-4 -45 -32.5 -70t-73.5 -26l2 24q59 0 70 52q2 8 2.5 17t-0.5 12q-10 -18 -32 -18q-19 0 -30 11.5t-9 29.5q2 19 16 31t34 12z" />
    <glyph glyph-name="kgreenlandic" unicode="&#x138;" horiz-adv-x="479" 
d="M493 450l-290 -221l243 -229h-58l-238 223l-23 -223h-42l47 450h42l-23 -219l285 219h57z" />
    <glyph glyph-name="Lacute" unicode="&#x139;" horiz-adv-x="509" 
d="M168 751l-16 31l148 84l17 -31zM90 0l74 700h44l-70 -658h332l-4 -42h-376z" />
    <glyph glyph-name="lacute" unicode="&#x13a;" horiz-adv-x="212" 
d="M124 751l-16 31l148 84l17 -31zM85 0l74 700h42l-74 -700h-42z" />
    <glyph glyph-name="Lcommaaccent" unicode="&#x13b;" horiz-adv-x="509" 
d="M90 0l74 700h44l-70 -658h332l-4 -42h-376zM232 -201l2 24q59 0 70 52q4 17 2 29q-10 -18 -32 -18q-19 0 -30 11.5t-9 29.5q2 19 16 31t34 12q27 0 42 -20.5t11 -54.5q-4 -45 -32.5 -70t-73.5 -26z" />
    <glyph glyph-name="lcommaaccent" unicode="&#x13c;" horiz-adv-x="212" 
d="M85 0l74 700h42l-74 -700h-42zM49 -201l2 24q59 0 70 52q4 17 2 29q-10 -18 -32 -18q-19 0 -30 11.5t-9 29.5q2 19 16 31t34 12q27 0 42 -20.5t11 -54.5q-4 -45 -32.5 -70t-73.5 -26z" />
    <glyph glyph-name="Lcaron" unicode="&#x13d;" horiz-adv-x="509" 
d="M306 511q-11 0 -16 2l3 26q7 -1 16 -1q23 0 39 14t20 38q6 28 -3 45q-14 -17 -38 -17q-19 0 -29.5 12.5t-8.5 32.5q2 19 16.5 32.5t36.5 13.5q32 0 48.5 -27.5t12.5 -70.5q-5 -47 -32 -73.5t-65 -26.5zM90 0l74 700h44l-70 -658h332l-4 -42h-376z" />
    <glyph glyph-name="lcaron" unicode="&#x13e;" horiz-adv-x="334" 
d="M287 511q-11 0 -16 2l3 26q7 -1 16 -1q23 0 39 14t20 38q6 28 -3 45q-14 -17 -38 -17q-19 0 -29.5 12.5t-8.5 32.5q2 19 16.5 32.5t36.5 13.5q32 0 48.5 -27.5t12.5 -70.5q-5 -47 -32 -73.5t-65 -26.5zM85 0l74 700h42l-74 -700h-42z" />
    <glyph glyph-name="Ldot" unicode="&#x13f;" horiz-adv-x="509" 
d="M90 0l74 700h44l-70 -658h332l-4 -42h-376zM354 328q-21 0 -33 14t-10 35t17.5 35.5t36.5 14.5q22 0 35 -14.5t11 -35.5t-18.5 -35t-38.5 -14z" />
    <glyph glyph-name="ldot" unicode="&#x140;" horiz-adv-x="310" 
d="M85 0l74 700h42l-74 -700h-42zM283 301q-21 0 -33.5 14t-10.5 35t17.5 35.5t36.5 14.5q22 0 35 -14.5t11 -35.5t-18 -35t-38 -14z" />
    <glyph glyph-name="Lslash" unicode="&#x141;" horiz-adv-x="495" 
d="M138 42h332l-4 -42h-376l31 297l-77 -38l4 40l77 38l39 363h44l-36 -341l163 80l-4 -40l-163 -80z" />
    <glyph glyph-name="lslash" unicode="&#x142;" horiz-adv-x="212" 
d="M250 437l-4 -38l-85 -43l-37 -356h-42l35 333l-78 -40l4 38l78 40l35 329h42l-33 -306z" />
    <glyph glyph-name="Nacute" unicode="&#x143;" horiz-adv-x="662" 
d="M298 730l-14 32l252 126l14 -32zM90 0l74 700h48l324 -629l67 629h43l-74 -700h-48l-326 629l-66 -629h-42z" />
    <glyph glyph-name="nacute" unicode="&#x144;" horiz-adv-x="561" 
d="M284 512l-23 26l172 141l24 -27zM85 0l47 450h42l-13 -124q21 61 71 98.5t124 37.5q86 0 124.5 -50.5t28.5 -146.5l-28 -265h-42l26 252q18 172 -125 172q-82 0 -131.5 -56.5t-58.5 -147.5l-23 -220h-42z" />
    <glyph glyph-name="Ncommaaccent" unicode="&#x145;" horiz-adv-x="662" 
d="M90 0l74 700h48l324 -629l67 629h43l-74 -700h-48l-326 629l-66 -629h-42zM274 -201l2 24q59 0 70 52q4 17 2 29q-10 -18 -32 -18q-19 0 -30 11.5t-9 29.5q2 19 16 31t34 12q27 0 42 -20.5t11 -54.5q-4 -45 -32.5 -70t-73.5 -26z" />
    <glyph glyph-name="ncommaaccent" unicode="&#x146;" horiz-adv-x="561" 
d="M85 0l47 450h42l-13 -124q21 61 71 98.5t124 37.5q86 0 124.5 -50.5t28.5 -146.5l-28 -265h-42l26 252q18 172 -125 172q-82 0 -131.5 -56.5t-58.5 -147.5l-23 -220h-42zM221 -201l2 24q59 0 70 52q2 8 2.5 17t-0.5 12q-10 -18 -32 -18q-19 0 -30 11.5t-9 29.5
q2 19 16 31t34 12q27 0 42 -20.5t11 -54.5q-4 -45 -32.5 -70t-73.5 -26z" />
    <glyph glyph-name="Ncaron" unicode="&#x147;" horiz-adv-x="662" 
d="M409 739l-113 109l27 24l90 -90l110 90l20 -24zM90 0l74 700h48l324 -629l67 629h43l-74 -700h-48l-326 629l-66 -629h-42z" />
    <glyph glyph-name="ncaron" unicode="&#x148;" horiz-adv-x="561" 
d="M332 512l-133 148l30 25l108 -123l134 123l24 -25zM85 0l47 450h42l-13 -124q21 61 71 98.5t124 37.5q86 0 124.5 -50.5t28.5 -146.5l-28 -265h-42l26 252q18 172 -125 172q-82 0 -131.5 -56.5t-58.5 -147.5l-23 -220h-42z" />
    <glyph glyph-name="napostrophe" unicode="&#x149;" horiz-adv-x="575" 
d="M106 511q-11 0 -16 2l3 26q7 -1 16 -1q23 0 39 14t20 38q6 28 -3 45q-14 -17 -38 -17q-19 0 -29.5 12.5t-8.5 32.5q2 19 16.5 32.5t36.5 13.5q32 0 48.5 -27.5t12.5 -70.5q-5 -47 -32 -73.5t-65 -26.5zM98 0l47 450h42l-13 -124q21 61 71 98.5t124 37.5q86 0 124.5 -50.5
t28.5 -146.5l-28 -265h-42l26 252q18 172 -125 172q-82 0 -131.5 -56.5t-58.5 -147.5l-23 -220h-42z" />
    <glyph glyph-name="Eng" unicode="&#x14a;" horiz-adv-x="662" 
d="M435 -224q-35 0 -62 13l4 42q26 -13 59 -13q35 0 56.5 25t26.5 71l9 86l-330 629l-66 -629h-42l74 700h48l325 -628l66 628h43l-84 -795q-6 -60 -40 -94.5t-87 -34.5z" />
    <glyph glyph-name="eng" unicode="&#x14b;" horiz-adv-x="561" 
d="M356 462q86 0 124.5 -50.5t28.5 -146.5l-39 -365q-6 -58 -37.5 -91t-80.5 -33q-38 0 -61 13l4 41q23 -13 56 -13t53 24t25 67l36 344q18 172 -125 172q-82 0 -131.5 -56.5t-58.5 -147.5l-23 -220h-42l47 450h42l-13 -124q21 61 71 98.5t124 37.5z" />
    <glyph glyph-name="Omacron" unicode="&#x14c;" horiz-adv-x="803" 
d="M314 775l4 37h338l-4 -37h-338zM401 -14q-108 0 -186 51.5t-111.5 133.5t-23.5 179q16 150 125.5 257t271.5 107q108 0 186 -51.5t111.5 -133.5t23.5 -179q-16 -150 -125.5 -257t-271.5 -107zM405 27q142 0 238 95t109 228q15 133 -61 228t-218 95q-143 0 -239 -95
t-109 -228q-15 -133 61 -228t219 -95z" />
    <glyph glyph-name="omacron" unicode="&#x14d;" horiz-adv-x="542" 
d="M170 553l4 36h317l-4 -36h-317zM270 -12q-102 0 -158 68.5t-45 168.5q10 101 80 169t173 68t158.5 -68t45.5 -169q-11 -100 -81 -168.5t-173 -68.5zM274 28q84 0 141.5 57t66.5 140q8 84 -37.5 140.5t-129.5 56.5t-141 -56.5t-65 -140.5q-9 -83 36 -140t129 -57z" />
    <glyph glyph-name="Obreve" unicode="&#x14e;" horiz-adv-x="803" 
d="M480 738q-62 0 -103.5 33t-41.5 89h38q1 -42 32 -65t78 -23t83.5 23t45.5 65h37q-12 -56 -59.5 -89t-109.5 -33zM401 -14q-108 0 -186 51.5t-111.5 133.5t-23.5 179q16 150 125.5 257t271.5 107q108 0 186 -51.5t111.5 -133.5t23.5 -179q-16 -150 -125.5 -257
t-271.5 -107zM405 27q142 0 238 95t109 228q15 133 -61 228t-218 95q-143 0 -239 -95t-109 -228q-15 -133 61 -228t219 -95z" />
    <glyph glyph-name="obreve" unicode="&#x14f;" horiz-adv-x="542" 
d="M324 508q-65 0 -105.5 37.5t-39.5 102.5h39q-1 -49 30.5 -77t79.5 -28t85.5 28t46.5 77h38q-12 -65 -60.5 -102.5t-113.5 -37.5zM270 -12q-102 0 -158 68.5t-45 168.5q10 101 80 169t173 68t158.5 -68t45.5 -169q-11 -100 -81 -168.5t-173 -68.5zM274 28q84 0 141.5 57
t66.5 140q8 84 -37.5 140.5t-129.5 56.5t-141 -56.5t-65 -140.5q-9 -83 36 -140t129 -57z" />
    <glyph glyph-name="Ohungarumlaut" unicode="&#x150;" horiz-adv-x="803" 
d="M379 737l-26 12l146 132l36 -16zM568 736l-26 13l147 132l35 -17zM401 -14q-108 0 -186 51.5t-111.5 133.5t-23.5 179q16 150 125.5 257t271.5 107q108 0 186 -51.5t111.5 -133.5t23.5 -179q-16 -150 -125.5 -257t-271.5 -107zM405 27q142 0 238 95t109 228
q15 133 -61 228t-218 95q-143 0 -239 -95t-109 -228q-15 -133 61 -228t219 -95z" />
    <glyph glyph-name="ohungarumlaut" unicode="&#x151;" horiz-adv-x="542" 
d="M229 507l-25 14l142 166l36 -19zM409 507l-25 14l142 166l36 -19zM270 -12q-102 0 -158 68.5t-45 168.5q10 101 80 169t173 68t158.5 -68t45.5 -169q-11 -100 -81 -168.5t-173 -68.5zM274 28q84 0 141.5 57t66.5 140q8 84 -37.5 140.5t-129.5 56.5t-141 -56.5t-65 -140.5
q-9 -83 36 -140t129 -57z" />
    <glyph glyph-name="OE" unicode="&#x152;" horiz-adv-x="850" 
d="M846 659h-299l-30 -291h299l-5 -40h-299l-30 -287h299l-4 -41h-411q-145 0 -223 103t-63 247q15 143 115 246.5t245 103.5h411zM370 41h68l65 618h-68q-126 0 -211.5 -91t-98.5 -218q-13 -128 53 -218.5t192 -90.5z" />
    <glyph glyph-name="oe" unicode="&#x153;" horiz-adv-x="924" 
d="M903 220h-379v-2q-9 -86 33.5 -138.5t121.5 -52.5q57 0 102 26.5t65 71.5h42q-20 -61 -79 -99t-133 -38q-71 0 -119.5 34.5t-66.5 95.5q-33 -60 -90.5 -95t-129.5 -35q-102 0 -158 68.5t-45 168.5q10 101 80 169t173 68q72 0 122 -35t70 -94q31 61 86 95t124 34
q92 0 143.5 -58.5t42.5 -148.5zM718 426q-73 0 -124 -46.5t-65 -123.5h338q8 75 -32.5 122.5t-116.5 47.5zM274 28q84 0 141.5 57t66.5 140q8 84 -37.5 140.5t-129.5 56.5t-141 -56.5t-65 -140.5q-9 -83 36 -140t129 -57z" />
    <glyph glyph-name="Racute" unicode="&#x154;" horiz-adv-x="603" 
d="M518 856l-252 -126l-14 32l252 126zM602 465q-9 -83 -60 -144.5t-126 -81.5l129 -239h-52l-124 231q-6 -1 -18 -1h-193l-24 -230h-44l74 700h237q98 0 155 -66.5t46 -168.5zM353 270q79 0 137.5 55.5t67.5 139.5t-37.5 139t-126.5 55h-191l-41 -389h191z" />
    <glyph glyph-name="racute" unicode="&#x155;" horiz-adv-x="349" 
d="M186 511l-24 26l173 141l23 -27zM85 0l47 450h42l-14 -135q24 73 70.5 109.5t103.5 36.5q20 0 40 -4l-4 -40q-13 3 -43 3q-56 0 -97 -38t-59 -87t-24 -103l-20 -192h-42z" />
    <glyph glyph-name="Rcommaaccent" unicode="&#x156;" horiz-adv-x="603" 
d="M602 465q-9 -83 -60 -144.5t-126 -81.5l129 -239h-52l-124 231q-6 -1 -18 -1h-193l-24 -230h-44l74 700h237q98 0 155 -66.5t46 -168.5zM353 270q79 0 137.5 55.5t67.5 139.5t-37.5 139t-126.5 55h-191l-41 -389h191zM295 -30q27 0 42 -20.5t11 -54.5q-4 -45 -32.5 -70
t-73.5 -26l2 24q59 0 70 52q4 17 2 29q-10 -18 -32 -18q-19 0 -30 11.5t-9 29.5q2 19 16 31t34 12z" />
    <glyph glyph-name="rcommaaccent" unicode="&#x157;" horiz-adv-x="349" 
d="M85 0l47 450h42l-14 -135q24 73 70.5 109.5t103.5 36.5q20 0 40 -4l-4 -40q-13 3 -43 3q-56 0 -97 -38t-59 -87t-24 -103l-20 -192h-42zM51 -201l2 24q59 0 70 52q2 8 2.5 17t-0.5 12q-10 -18 -32 -18q-19 0 -30 11.5t-9 29.5q2 19 16 31t34 12q27 0 42 -20.5t11 -54.5
q-4 -45 -32.5 -70t-73.5 -26z" />
    <glyph glyph-name="Rcaron" unicode="&#x158;" horiz-adv-x="603" 
d="M510 848l-134 -109l-113 109l27 24l90 -90l110 90zM602 465q-9 -83 -60 -144.5t-126 -81.5l129 -239h-52l-124 231q-6 -1 -18 -1h-193l-24 -230h-44l74 700h237q98 0 155 -66.5t46 -168.5zM353 270q79 0 137.5 55.5t67.5 139.5t-37.5 139t-126.5 55h-191l-41 -389h191z
" />
    <glyph glyph-name="rcaron" unicode="&#x159;" horiz-adv-x="349" 
d="M219 511l-133 148l30 25l108 -123l134 123l24 -25zM85 0l47 450h42l-14 -135q24 73 70.5 109.5t103.5 36.5q20 0 40 -4l-4 -40q-13 3 -43 3q-56 0 -97 -38t-59 -87t-24 -103l-20 -192h-42z" />
    <glyph glyph-name="Sacute" unicode="&#x15a;" horiz-adv-x="566" 
d="M250 730l-14 32l252 126l14 -32zM292 -14q-114 0 -175 61t-50 164h44q-9 -84 41 -134.5t143 -50.5q85 0 136.5 40t58.5 110q13 115 -114 146l-117 31q-151 34 -136 180q8 81 72.5 131t160.5 50q101 0 154 -55t43 -150h-44q8 78 -34 122t-124 44q-76 0 -127 -39t-58 -102
q-12 -116 123 -147l117 -30q69 -16 102 -62t26 -118q-10 -89 -74 -140t-168 -51z" />
    <glyph glyph-name="sacute" unicode="&#x15b;" horiz-adv-x="434" 
d="M219 512l-23 26l172 141l24 -27zM221 -12q-82 0 -126.5 40.5t-37.5 100.5h42q-5 -44 28.5 -74t99.5 -30q55 0 90 23t39 65q3 33 -14 54t-61 32l-94 24q-105 27 -96 118q6 56 54 88.5t119 32.5q76 0 116 -33.5t33 -93.5h-41q4 42 -26.5 67t-88.5 25q-51 0 -85.5 -22
t-38.5 -64q-7 -61 77 -83l96 -24q102 -27 93 -118q-7 -62 -54.5 -95t-123.5 -33z" />
    <glyph glyph-name="Scircumflex" unicode="&#x15c;" horiz-adv-x="566" 
d="M374 873l112 -109l-26 -24l-91 90l-109 -90l-21 24zM292 -14q-114 0 -175 61t-50 164h44q-9 -84 41 -134.5t143 -50.5q85 0 136.5 40t58.5 110q13 115 -114 146l-117 31q-151 34 -136 180q8 81 72.5 131t160.5 50q101 0 154 -55t43 -150h-44q8 78 -34 122t-124 44
q-76 0 -127 -39t-58 -102q-12 -116 123 -147l117 -30q69 -16 102 -62t26 -118q-10 -89 -74 -140t-168 -51z" />
    <glyph glyph-name="scircumflex" unicode="&#x15d;" horiz-adv-x="434" 
d="M286 686l133 -148l-30 -25l-108 123l-134 -123l-24 25zM221 -12q-82 0 -126.5 40.5t-37.5 100.5h42q-5 -44 28.5 -74t99.5 -30q55 0 90 23t39 65q3 33 -14 54t-61 32l-94 24q-105 27 -96 118q6 56 54 88.5t119 32.5q76 0 116 -33.5t33 -93.5h-41q4 42 -26.5 67t-88.5 25
q-51 0 -85.5 -22t-38.5 -64q-7 -61 77 -83l96 -24q102 -27 93 -118q-7 -62 -54.5 -95t-123.5 -33z" />
    <glyph glyph-name="Scedilla" unicode="&#x15e;" horiz-adv-x="566" 
d="M534 177q-9 -86 -70 -136.5t-159 -54.5l-6 -56q16 23 56 23q33 0 51.5 -23t14.5 -59q-4 -38 -29 -61.5t-65 -23.5q-34 0 -53.5 19t-17.5 48h29q-1 -18 11 -29.5t34 -11.5q26 0 42 15t19 43q3 26 -9 42t-38 16q-33 0 -54 -28h-24l10 86q-107 4 -163.5 65t-45.5 160h44
q-9 -84 41 -134.5t143 -50.5q85 0 136.5 40t58.5 110q13 115 -114 146l-117 31q-151 34 -136 180q8 81 72.5 131t160.5 50q101 0 154 -55t43 -150h-44q8 78 -34 122t-124 44q-76 0 -127 -39t-58 -102q-12 -116 123 -147l117 -30q69 -16 102 -62t26 -118z" />
    <glyph glyph-name="scedilla" unicode="&#x15f;" horiz-adv-x="434" 
d="M277 -47q33 0 51.5 -23t14.5 -59q-4 -38 -29 -61.5t-65 -23.5q-34 0 -53.5 19t-17.5 48h29q-1 -18 11 -29.5t34 -11.5q26 0 42 15t19 43q3 26 -9 42t-38 16q-33 0 -54 -28h-24l10 89q-72 6 -109.5 45t-31.5 95h42q-5 -44 28.5 -74t99.5 -30q55 0 90 23t39 65q3 33 -14 54
t-61 32l-94 24q-105 27 -96 118q6 56 54 88.5t119 32.5q76 0 116 -33.5t33 -93.5h-41q4 42 -26.5 67t-88.5 25q-51 0 -85.5 -22t-38.5 -64q-7 -61 77 -83l96 -24q102 -27 93 -118q-6 -60 -52 -93t-120 -35l-6 -58q16 23 56 23z" />
    <glyph glyph-name="Scaron" unicode="&#x160;" horiz-adv-x="566" 
d="M360 739l-113 109l27 24l90 -90l110 90l20 -24zM292 -14q-114 0 -175 61t-50 164h44q-9 -84 41 -134.5t143 -50.5q85 0 136.5 40t58.5 110q13 115 -114 146l-117 31q-151 34 -136 180q8 81 72.5 131t160.5 50q101 0 154 -55t43 -150h-44q8 78 -34 122t-124 44
q-76 0 -127 -39t-58 -102q-12 -116 123 -147l117 -30q69 -16 102 -62t26 -118q-10 -89 -74 -140t-168 -51z" />
    <glyph glyph-name="scaron" unicode="&#x161;" horiz-adv-x="434" 
d="M267 512l-133 148l30 25l108 -123l134 123l24 -25zM221 -12q-82 0 -126.5 40.5t-37.5 100.5h42q-5 -44 28.5 -74t99.5 -30q55 0 90 23t39 65q3 33 -14 54t-61 32l-94 24q-105 27 -96 118q6 56 54 88.5t119 32.5q76 0 116 -33.5t33 -93.5h-41q4 42 -26.5 67t-88.5 25
q-51 0 -85.5 -22t-38.5 -64q-7 -61 77 -83l96 -24q102 -27 93 -118q-7 -62 -54.5 -95t-123.5 -33z" />
    <glyph glyph-name="uni0162" unicode="&#x162;" horiz-adv-x="500" 
d="M271 0h-7l-7 -70q16 23 56 23q33 0 51.5 -23t14.5 -59q-4 -38 -29 -61.5t-65 -23.5q-34 0 -53.5 19t-17.5 48h29q-1 -18 11 -29.5t34 -11.5q26 0 42 15t19 43q3 26 -9 42t-38 16q-33 0 -54 -28h-24l11 100h-7l69 658h-219l5 42h482l-5 -42h-220z" />
    <glyph glyph-name="uni0163" unicode="&#x163;" horiz-adv-x="336" 
d="M287 -47q33 0 51.5 -23t14.5 -59q-4 -38 -29 -61.5t-65 -23.5q-34 0 -53.5 19t-17.5 48h29q-1 -18 11 -29.5t34 -11.5q26 0 42 15t19 43q3 26 -9 42t-38 16q-33 0 -54 -28h-24l10 95q-42 5 -64.5 37.5t-14.5 111.5l28 269h-93l4 37h93l17 157h41l-17 -157h136l-4 -37
h-136l-27 -263q-8 -70 12 -93.5t62 -23.5q38 0 65 8l-4 -39q-24 -8 -69 -8l-6 -64q16 23 56 23z" />
    <glyph glyph-name="Tcaron" unicode="&#x164;" horiz-adv-x="500" 
d="M328 739l-113 109l27 24l90 -90l110 90l20 -24zM228 0l69 658h-219l5 42h482l-5 -42h-220l-69 -658h-43z" />
    <glyph glyph-name="tcaron" unicode="&#x165;" horiz-adv-x="358" 
d="M320 620q-18 0 -28.5 12.5t-8.5 31.5t16.5 32t35.5 13q31 0 47 -26.5t12 -69.5q-4 -45 -30.5 -71.5t-64.5 -26.5q-10 0 -15 2l3 26q6 -1 15 -1q48 0 58 51q6 27 -3 43q-14 -16 -37 -16zM171 150q-8 -70 12 -93.5t62 -23.5q38 0 65 8l-4 -39q-26 -8 -72 -8
q-55 0 -84.5 29.5t-20.5 120.5l28 269h-93l4 37h93l17 157h41l-17 -157h136l-4 -37h-136z" />
    <glyph glyph-name="Tbar" unicode="&#x166;" horiz-adv-x="500" 
d="M560 658h-220l-18 -172h152l-4 -35h-152l-47 -451h-43l47 451h-152l4 35h152l18 172h-219l5 42h482z" />
    <glyph glyph-name="tbar" unicode="&#x167;" horiz-adv-x="337" 
d="M246 33q38 0 65 8l-4 -39q-26 -8 -72 -8q-55 0 -84.5 29.5t-20.5 120.5l9 82h-94l3 32h94l16 155h-93l4 37h93l17 157h41l-17 -157h136l-4 -37h-136l-16 -155h141l-3 -32h-141l-8 -76q-8 -70 12 -93.5t62 -23.5z" />
    <glyph glyph-name="Utilde" unicode="&#x168;" horiz-adv-x="625" 
d="M471 762q-31 -1 -78 29.5t-69 30.5q-46 0 -83 -52l-21 18q49 69 108 69q26 0 74.5 -30t70.5 -30q45 0 81 51l20 -19q-44 -67 -103 -67zM311 -14q-113 0 -172.5 63t-46.5 177l50 474h43l-50 -472q-10 -97 38.5 -149t141.5 -52q94 0 153.5 52t69.5 149l50 472h43l-50 -474
q-13 -115 -85 -177.5t-185 -62.5z" />
    <glyph glyph-name="utilde" unicode="&#x169;" horiz-adv-x="563" 
d="M415 550q-26 0 -72.5 29t-67.5 29q-43 0 -80 -50l-19 22q45 65 102 65q26 0 72.5 -29t68.5 -29q43 0 80 50l18 -22q-45 -65 -102 -65zM259 -12q-83 0 -126.5 50t-33.5 146l28 266h42l-27 -258q-8 -75 24 -120t107 -45q81 0 129.5 59.5t56.5 133.5l24 230h42l-47 -450h-42
l13 122q-22 -57 -73 -95.5t-117 -38.5z" />
    <glyph glyph-name="Umacron" unicode="&#x16a;" horiz-adv-x="625" 
d="M224 775l4 37h338l-4 -37h-338zM311 -14q-113 0 -172.5 63t-46.5 177l50 474h43l-50 -472q-10 -97 38.5 -149t141.5 -52q94 0 153.5 52t69.5 149l50 472h43l-50 -474q-13 -115 -85 -177.5t-185 -62.5z" />
    <glyph glyph-name="umacron" unicode="&#x16b;" horiz-adv-x="563" 
d="M183 553l4 36h317l-4 -36h-317zM259 -12q-83 0 -126.5 50t-33.5 146l28 266h42l-27 -258q-8 -75 24 -120t107 -45q81 0 129.5 59.5t56.5 133.5l24 230h42l-47 -450h-42l13 122q-22 -57 -73 -95.5t-117 -38.5z" />
    <glyph glyph-name="Ubreve" unicode="&#x16c;" horiz-adv-x="625" 
d="M390 738q-62 0 -103.5 33t-41.5 89h38q1 -42 32 -65t78 -23t83.5 23t45.5 65h37q-12 -56 -59.5 -89t-109.5 -33zM311 -14q-113 0 -172.5 63t-46.5 177l50 474h43l-50 -472q-10 -97 38.5 -149t141.5 -52q94 0 153.5 52t69.5 149l50 472h43l-50 -474q-13 -115 -85 -177.5
t-185 -62.5z" />
    <glyph glyph-name="ubreve" unicode="&#x16d;" horiz-adv-x="563" 
d="M337 508q-65 0 -105.5 37.5t-39.5 102.5h39q-1 -49 30.5 -77t79.5 -28t85.5 28t46.5 77h38q-12 -65 -60.5 -102.5t-113.5 -37.5zM259 -12q-83 0 -126.5 50t-33.5 146l28 266h42l-27 -258q-8 -75 24 -120t107 -45q81 0 129.5 59.5t56.5 133.5l24 230h42l-47 -450h-42
l13 122q-22 -57 -73 -95.5t-117 -38.5z" />
    <glyph glyph-name="Uring" unicode="&#x16e;" horiz-adv-x="625" 
d="M383 673q-48 0 -78 33.5t-25 80.5t42 80t85 33t78 -33t25 -80t-42 -80.5t-85 -33.5zM386 704q35 0 61 24t30 59q4 34 -17.5 58t-56.5 24q-34 0 -60 -23.5t-30 -58.5t17 -59t56 -24zM311 -14q-113 0 -172.5 63t-46.5 177l50 474h43l-50 -472q-10 -97 38.5 -149t141.5 -52
q94 0 153.5 52t69.5 149l50 472h43l-50 -474q-13 -115 -85 -177.5t-185 -62.5z" />
    <glyph glyph-name="uring" unicode="&#x16f;" horiz-adv-x="563" 
d="M336 490q-45 0 -73 30.5t-23 76.5q4 46 38.5 76.5t79.5 30.5t72.5 -30t23.5 -77q-5 -47 -39 -77t-79 -30zM338 518q33 0 57.5 22t28.5 57t-16 57t-53 22t-57 -22t-28 -57t15.5 -57t52.5 -22zM259 -12q-83 0 -126.5 50t-33.5 146l28 266h42l-27 -258q-8 -75 24 -120
t107 -45q81 0 129.5 59.5t56.5 133.5l24 230h42l-47 -450h-42l13 122q-22 -57 -73 -95.5t-117 -38.5z" />
    <glyph glyph-name="Uhungarumlaut" unicode="&#x170;" horiz-adv-x="625" 
d="M290 737l-26 12l146 132l36 -16zM479 736l-26 13l147 132l35 -17zM311 -14q-113 0 -172.5 63t-46.5 177l50 474h43l-50 -472q-10 -97 38.5 -149t141.5 -52q94 0 153.5 52t69.5 149l50 472h43l-50 -474q-13 -115 -85 -177.5t-185 -62.5z" />
    <glyph glyph-name="uhungarumlaut" unicode="&#x171;" horiz-adv-x="563" 
d="M242 507l-25 14l142 166l36 -19zM422 507l-25 14l142 166l36 -19zM259 -12q-83 0 -126.5 50t-33.5 146l28 266h42l-27 -258q-8 -75 24 -120t107 -45q81 0 129.5 59.5t56.5 133.5l24 230h42l-47 -450h-42l13 122q-22 -57 -73 -95.5t-117 -38.5z" />
    <glyph glyph-name="Uogonek" unicode="&#x172;" horiz-adv-x="625" 
d="M588 700h43l-50 -474q-10 -91 -57.5 -149.5t-125.5 -79.5q-47 -18 -72.5 -46.5t-28.5 -59.5q-4 -31 12 -49.5t50 -18.5q31 0 69 15l-5 -35q-41 -15 -78 -15q-47 0 -70 25.5t-19 65.5q7 64 83 108q-9 -1 -28 -1q-113 0 -172.5 63t-46.5 177l50 474h43l-50 -472
q-10 -97 38.5 -149t141.5 -52q94 0 153.5 52t69.5 149z" />
    <glyph glyph-name="uogonek" unicode="&#x173;" horiz-adv-x="563" 
d="M431 -177q31 0 69 15l-5 -35q-41 -15 -78 -15q-47 0 -70 25.5t-19 65.5q4 35 31.5 66.5t76.5 54.5l13 122q-22 -57 -73 -95.5t-117 -38.5q-83 0 -126.5 50t-33.5 146l28 266h42l-27 -258q-8 -75 24 -120t107 -45q81 0 129.5 59.5t56.5 133.5l24 230h42l-47 -450
q-51 -17 -78.5 -46.5t-30.5 -62.5q-4 -31 12 -49.5t50 -18.5z" />
    <glyph glyph-name="Wcircumflex" unicode="&#x174;" horiz-adv-x="928" 
d="M555 873l112 -109l-26 -24l-91 90l-109 -90l-21 24zM242 0l-160 700h45l141 -632l252 632h36l118 -632l275 632h45l-308 -700h-36l-120 628l-252 -628h-36z" />
    <glyph glyph-name="wcircumflex" unicode="&#x175;" horiz-adv-x="707" 
d="M426 686l133 -148l-30 -25l-108 123l-134 -123l-24 25zM179 0l-119 450h45l97 -393l176 393h45l92 -393l181 393h45l-213 -450h-38l-95 397l-179 -397h-37z" />
    <glyph glyph-name="Ycircumflex" unicode="&#x176;" horiz-adv-x="532" 
d="M366 830l-109 -90l-21 24l135 109l112 -109l-26 -24zM564 700h47l-436 -700h-48l172 275l-225 425h51l202 -380z" />
    <glyph glyph-name="ycircumflex" unicode="&#x177;" horiz-adv-x="568" 
d="M354 686l133 -148l-30 -25l-108 123l-134 -123l-24 25zM487 450h42l-49 -472q-12 -113 -83 -166q-58 -42 -141 -42q-95 0 -144 46q-46 42 -39 115h42q-4 -54 30 -88.5t115 -34.5q160 0 178 172l15 139q-25 -56 -75 -92.5t-118 -36.5q-95 0 -132.5 52t-27.5 153l27 255h41
l-26 -248q-9 -86 20.5 -129.5t112.5 -43.5q80 0 130 59t58 133z" />
    <glyph glyph-name="Ydieresis" unicode="&#x178;" horiz-adv-x="532" 
d="M245 766q-20 0 -32.5 13.5t-10.5 33.5t17.5 34.5t35.5 14.5t32 -14.5t10 -34.5q-1 -20 -16.5 -33.5t-35.5 -13.5zM476 766q-20 0 -32 13.5t-11 33.5q2 20 17.5 34.5t35.5 14.5q21 0 33 -14.5t10 -34.5q-1 -20 -16.5 -33.5t-36.5 -13.5zM564 700h47l-436 -700h-48l172 275
l-225 425h51l202 -380z" />
    <glyph glyph-name="Zacute" unicode="&#x179;" horiz-adv-x="557" 
d="M242 730l-14 32l252 126l14 -32zM28 0l475 659h-380l5 41h455l-475 -659h417l-4 -41h-493z" />
    <glyph glyph-name="zacute" unicode="&#x17a;" horiz-adv-x="433" 
d="M221 513l-23 26l172 141l24 -27zM28 0l349 412h-290l4 38h366l-351 -412h307l-4 -38h-381z" />
    <glyph glyph-name="Zdotaccent" unicode="&#x17b;" horiz-adv-x="557" 
d="M354 765q-21 0 -32.5 13.5t-9.5 34.5t16.5 34.5t35.5 13.5t33.5 -14t10.5 -34q-1 -21 -17 -34.5t-37 -13.5zM28 0l475 659h-380l5 41h455l-475 -659h417l-4 -41h-493z" />
    <glyph glyph-name="zdotaccent" unicode="&#x17c;" horiz-adv-x="433" 
d="M273 553q-21 0 -33.5 14.5t-10.5 35.5q2 20 18 34.5t37 14.5t33.5 -14t10.5 -35t-17.5 -35.5t-37.5 -14.5zM28 0l349 412h-290l4 38h366l-351 -412h307l-4 -38h-381z" />
    <glyph glyph-name="Zcaron" unicode="&#x17d;" horiz-adv-x="557" 
d="M352 739l-113 109l27 24l90 -90l110 90l20 -24zM28 0l475 659h-380l5 41h455l-475 -659h417l-4 -41h-493z" />
    <glyph glyph-name="zcaron" unicode="&#x17e;" horiz-adv-x="433" 
d="M269 513l-133 148l30 25l108 -123l134 123l24 -25zM28 0l349 412h-290l4 38h366l-351 -412h307l-4 -38h-381z" />
    <glyph glyph-name="florin" unicode="&#x192;" horiz-adv-x="427" 
d="M441 651q-41 0 -72 -24.5t-50 -92.5l-29 -103h146l-11 -38h-146l-132 -467q-42 -152 -165 -152q-37 0 -64 11l11 38q23 -10 55 -10q89 0 121 113l132 467h-104l11 38h104l29 104q43 155 169 155q34 0 60 -12l-10 -37q-23 10 -55 10z" />
    <glyph glyph-name="AEacute" unicode="&#x1fc;" horiz-adv-x="796" 
d="M769 856l-252 -126l-14 32l252 126zM793 659h-292l-30 -291h292l-5 -40h-292l-30 -287h292l-4 -41h-336l15 145h-250l-88 -145h-47l430 700h350zM176 184h231l49 460z" />
    <glyph glyph-name="aeacute" unicode="&#x1fd;" horiz-adv-x="886" 
d="M642 653l-173 -140l-23 26l172 141zM871 255q-3 -24 -6 -35h-380q-8 -88 35.5 -141t123.5 -53q56 0 100 27t64 73h42q-20 -62 -78 -100t-132 -38q-70 0 -119 34.5t-69 95.5q-67 -130 -232 -130q-78 0 -122 35t-38 92q7 70 62 104q58 36 182 36h145l4 37q6 63 -30.5 98.5
t-114.5 35.5q-68 0 -114 -33t-56 -93h-42q10 74 69.5 118t147.5 44q152 0 176 -107q69 107 198 107q89 0 141 -59t43 -148zM489 255h340q8 75 -33 123t-114 48q-76 0 -128.5 -46t-64.5 -125zM442 192l1 6q0 15 1 22h-168q-162 0 -173 -103q-4 -45 31.5 -69t105.5 -24
q80 0 137 45.5t65 122.5z" />
    <glyph glyph-name="Oslashacute" unicode="&#x1fe;" horiz-adv-x="803" 
d="M622 856l-252 -126l-14 32l252 126zM630 681q90 -43 134.5 -133t33.5 -198q-16 -150 -125.5 -257t-271.5 -107q-72 0 -130 23l-40 -75l-31 14l39 75q-86 44 -128 133t-31 194q16 150 125.5 257t271.5 107q64 0 121 -19l37 70l32 -14zM125 350q-11 -93 24.5 -171
t109.5 -118l318 595q-48 17 -104 17q-143 0 -239 -95t-109 -228zM405 27q142 0 238 95t109 228q11 95 -26.5 174.5t-115.5 118.5l-319 -596q52 -20 114 -20z" />
    <glyph glyph-name="oslashacute" unicode="&#x1ff;" horiz-adv-x="542" 
d="M446 633l-173 -140l-23 26l172 141zM432 434q50 -30 74.5 -85.5t17.5 -123.5q-11 -100 -81 -168.5t-173 -68.5q-39 0 -72 11l-32 -59l-27 13l31 57q-56 28 -83.5 85.5t-19.5 129.5q10 101 80 169t173 68q47 0 84 -15l22 41l28 -13zM109 225q-7 -59 14.5 -106t66.5 -71
l194 362q-30 12 -69 12q-84 0 -141 -56.5t-65 -140.5zM274 28q84 0 141.5 57t66.5 140q5 55 -13 100.5t-57 70.5l-194 -360q26 -8 56 -8z" />
    <glyph glyph-name="Scommaaccent" unicode="&#x218;" horiz-adv-x="566" 
d="M292 -14q-114 0 -175 61t-50 164h44q-9 -84 41 -134.5t143 -50.5q85 0 136.5 40t58.5 110q13 115 -114 146l-117 31q-151 34 -136 180q8 81 72.5 131t160.5 50q101 0 154 -55t43 -150h-44q8 78 -34 122t-124 44q-76 0 -127 -39t-58 -102q-12 -116 123 -147l117 -30
q69 -16 102 -62t26 -118q-10 -89 -74 -140t-168 -51zM234 -201l2 24q59 0 70 52q4 17 2 29q-10 -18 -32 -18q-19 0 -30 11.5t-9 29.5q2 19 16 31t34 12q27 0 42 -20.5t11 -54.5q-4 -45 -32.5 -70t-73.5 -26z" />
    <glyph glyph-name="scommaaccent" unicode="&#x219;" horiz-adv-x="434" 
d="M221 -12q-82 0 -126.5 40.5t-37.5 100.5h42q-5 -44 28.5 -74t99.5 -30q55 0 90 23t39 65q3 33 -14 54t-61 32l-94 24q-105 27 -96 118q6 56 54 88.5t119 32.5q76 0 116 -33.5t33 -93.5h-41q4 42 -26.5 67t-88.5 25q-51 0 -85.5 -22t-38.5 -64q-7 -61 77 -83l96 -24
q102 -27 93 -118q-7 -62 -54.5 -95t-123.5 -33zM156 -201l2 24q59 0 70 52q2 8 2.5 17t-0.5 12q-10 -18 -32 -18q-19 0 -30 11.5t-9 29.5q2 19 16 31t34 12q27 0 42 -20.5t11 -54.5q-4 -45 -32.5 -70t-73.5 -26z" />
    <glyph glyph-name="uni021A" unicode="&#x21a;" horiz-adv-x="500" 
d="M228 0l69 658h-219l5 42h482l-5 -42h-220l-69 -658h-43zM192 -201l2 24q59 0 70 52q4 17 2 29q-10 -18 -32 -18q-19 0 -30 11.5t-9 29.5q2 19 16 31t34 12q27 0 42 -20.5t11 -54.5q-4 -45 -32.5 -70t-73.5 -26z" />
    <glyph glyph-name="uni021B" unicode="&#x21b;" horiz-adv-x="336" 
d="M245 33q38 0 65 8l-4 -39q-26 -8 -72 -8q-55 0 -84.5 29.5t-20.5 120.5l28 269h-93l4 37h93l17 157h41l-17 -157h136l-4 -37h-136l-27 -263q-8 -70 12 -93.5t62 -23.5zM219 -30q27 0 42 -20.5t11 -54.5q-4 -45 -32.5 -70t-73.5 -26l2 24q59 0 70 52q4 17 2 29
q-10 -18 -32 -18q-19 0 -30 11.5t-9 29.5q2 19 16 31t34 12z" />
    <glyph glyph-name="uni0237" unicode="&#x237;" horiz-adv-x="215" 
d="M1 -224q-39 0 -62 13l4 41q25 -13 57 -13t52.5 24t25.5 67l57 542h42l-58 -550q-6 -58 -37.5 -91t-80.5 -33z" />
    <glyph glyph-name="uni0243" unicode="&#x243;" horiz-adv-x="577" 
d="M541 178q-8 -76 -60.5 -122.5t-135.5 -54.5l-10 -99h-36l10 98h-83l-10 -98h-35l10 98h-101l72 682h101l10 98h35l-10 -98h83l10 98h36l-11 -100q79 -8 120.5 -54t33.5 -120q-7 -68 -47.5 -111t-100.5 -52q58 -10 92 -54t27 -111zM379 642h-178l-29 -280h197
q61 0 105.5 38.5t51.5 101.5q7 66 -33 103t-114 37zM319 39q75 0 123 38t55 105q7 63 -30 102t-98 39h-201l-30 -284h181z" />
    <glyph glyph-name="uni02BC" unicode="&#x2bc;" horiz-adv-x="261" 
d="M202 742q31 0 49.5 -27.5t14.5 -71.5q-5 -49 -35 -78t-72 -29q-17 0 -23 2l2 27q16 -2 21 -2q24 0 41 14.5t23 38.5q7 25 -1 43q-12 -13 -33 -13q-20 0 -31.5 13t-9.5 34t17 35t37 14z" />
    <glyph glyph-name="circumflex" unicode="&#x2c6;" horiz-adv-x="600" 
d="M258 686l133 -148l-30 -25l-108 123l-134 -123l-24 25z" />
    <glyph glyph-name="caron" unicode="&#x2c7;" horiz-adv-x="600" 
d="M240 513l-133 148l30 25l108 -123l134 123l24 -25z" />
    <glyph glyph-name="breve" unicode="&#x2d8;" horiz-adv-x="600" 
d="M292 509q-65 0 -105.5 37.5t-39.5 102.5h39q-1 -49 30.5 -77t79.5 -28t85.5 28t46.5 77h38q-12 -65 -60.5 -102.5t-113.5 -37.5z" />
    <glyph glyph-name="dotaccent" unicode="&#x2d9;" horiz-adv-x="600" 
d="M358 553q-21 0 -33.5 14.5t-10.5 35.5q2 20 18 34.5t37 14.5t33.5 -14t10.5 -35t-17.5 -35.5t-37.5 -14.5z" />
    <glyph glyph-name="ring" unicode="&#x2da;" horiz-adv-x="600" 
d="M216 491q-45 0 -73 30.5t-23 76.5q4 46 38.5 76.5t79.5 30.5t72.5 -30t23.5 -77q-5 -47 -39 -77t-79 -30zM219 519q33 0 57 22t28 57t-16 57t-53 22t-57 -22t-28 -57t16 -57t53 -22z" />
    <glyph glyph-name="ogonek" unicode="&#x2db;" horiz-adv-x="600" 
d="M102 -212q-47 0 -70 25.5t-19 65.5q4 35 31.5 66.5t76.5 54.5h42q-51 -17 -78.5 -46.5t-30.5 -62.5q-4 -31 12 -49.5t50 -18.5q32 0 69 15l-5 -35q-41 -15 -78 -15z" />
    <glyph glyph-name="tilde" unicode="&#x2dc;" horiz-adv-x="600" 
d="M344 551q-26 0 -72.5 29t-67.5 29q-43 0 -80 -50l-19 22q45 65 102 65q26 0 72.5 -29t68.5 -29q43 0 80 50l18 -22q-45 -65 -102 -65z" />
    <glyph glyph-name="hungarumlaut" unicode="&#x2dd;" horiz-adv-x="600" 
d="M140 508l-25 14l142 166l36 -19zM320 508l-25 14l142 166l36 -19z" />
    <glyph glyph-name="gravecomb" unicode="&#x300;" horiz-adv-x="0" 
d="M-59 513l-143 140l28 27l144 -141z" />
    <glyph glyph-name="acutecomb" unicode="&#x301;" horiz-adv-x="0" 
d="M-128 513l-23 26l172 141l24 -27z" />
    <glyph glyph-name="uni0302" unicode="&#x302;" horiz-adv-x="0" 
d="M-114 686l133 -148l-30 -25l-108 123l-134 -123l-24 25z" />
    <glyph glyph-name="tildecomb" unicode="&#x303;" horiz-adv-x="0" 
d="M-71 551q-26 0 -72.5 29t-67.5 29q-43 0 -80 -50l-19 22q45 65 102 65q26 0 72.5 -29t68.5 -29q43 0 80 50l18 -22q-45 -65 -102 -65z" />
    <glyph glyph-name="uni0304" unicode="&#x304;" horiz-adv-x="0" 
d="M-344 554l4 36h317l-4 -36h-317z" />
    <glyph glyph-name="uni0306" unicode="&#x306;" horiz-adv-x="0" 
d="M-187 509q-65 0 -105.5 37.5t-39.5 102.5h39q-1 -49 30.5 -77t79.5 -28t85.5 28t46.5 77h38q-12 -65 -60.5 -102.5t-113.5 -37.5z" />
    <glyph glyph-name="uni0307" unicode="&#x307;" horiz-adv-x="0" 
d="M-34 553q-21 0 -33.5 14.5t-10.5 35.5q2 20 18 34.5t37 14.5t33.5 -14t10.5 -35t-17.5 -35.5t-37.5 -14.5z" />
    <glyph glyph-name="uni0308" unicode="&#x308;" horiz-adv-x="0" 
d="M-261 554q-20 0 -32 13.5t-10 33.5t17 34.5t35 14.5q21 0 33.5 -14t10.5 -35q-2 -20 -18 -33.5t-36 -13.5zM-67 554q-20 0 -32 13.5t-10 33.5t17 34.5t35 14.5t33 -14.5t11 -34.5t-18 -33.5t-36 -13.5z" />
    <glyph glyph-name="uni030A" unicode="&#x30a;" horiz-adv-x="0" 
d="M-111 491q-45 0 -73 30.5t-23 76.5q4 46 38.5 76.5t79.5 30.5t72.5 -30t23.5 -77q-5 -47 -39 -77t-79 -30zM-108 519q33 0 57 22t28 57t-16 57t-53 22t-57 -22t-28 -57t16 -57t53 -22z" />
    <glyph glyph-name="uni030B" unicode="&#x30b;" horiz-adv-x="0" 
d="M-277 508l-25 14l142 166l36 -19zM-97 508l-25 14l142 166l36 -19z" />
    <glyph glyph-name="uni030C" unicode="&#x30c;" horiz-adv-x="0" 
d="M-132 513l-133 148l30 25l108 -123l134 123l24 -25z" />
    <glyph glyph-name="uni0312" unicode="&#x312;" horiz-adv-x="0" 
d="M-323 690l-3 -24q-60 0 -70 -44q-5 -18 -2 -31q10 19 33 19q19 0 29.5 -12t8.5 -30t-16.5 -30.5t-34.5 -12.5q-28 0 -41.5 21.5t-10.5 55.5q4 41 32 64t75 24z" />
    <glyph glyph-name="uni0326" unicode="&#x326;" horiz-adv-x="0" 
d="M-154 -201l2 24q59 0 70 52q4 17 2 29q-10 -18 -32 -18q-19 0 -30 11.5t-9 29.5q2 19 16 31t34 12q27 0 42 -20.5t11 -54.5q-4 -45 -32.5 -70t-73.5 -26z" />
    <glyph glyph-name="uni0327" unicode="&#x327;" horiz-adv-x="0" 
d="M-140 -214q-34 0 -53.5 19t-17.5 48h29q-1 -18 11 -29.5t34 -11.5q26 0 42 15t19 43q3 26 -9 42t-38 16q-33 0 -54 -28h-24l11 100h29l-7 -70q16 23 56 23q33 0 51.5 -23t14.5 -59q-4 -38 -29 -61.5t-65 -23.5z" />
    <glyph glyph-name="uni0328" unicode="&#x328;" horiz-adv-x="0" 
d="M-155 -212q-47 0 -70 25.5t-19 65.5q4 35 31.5 66.5t76.5 54.5h42q-51 -17 -78.5 -46.5t-30.5 -62.5q-4 -31 12 -49.5t50 -18.5q32 0 69 15l-5 -35q-41 -15 -78 -15z" />
    <glyph glyph-name="uni0394" unicode="&#x394;" horiz-adv-x="562" 
d="M23 0l314 700h36l166 -700h-516zM87 41h396l-135 594z" />
    <glyph glyph-name="uni03A9" unicode="&#x3a9;" horiz-adv-x="713" 
d="M68 0l4 41h218l5 48q-104 26 -162.5 113t-47.5 196q14 136 108.5 225.5t237.5 89.5q144 0 219.5 -89.5t61.5 -225.5q-11 -109 -88.5 -196t-187.5 -114l-5 -47h218l-4 -41h-255l12 116q106 18 180.5 98.5t85.5 184.5q12 119 -52 196t-189 77t-206 -77t-93 -196
q-11 -104 46.5 -184.5t160.5 -98.5l-12 -116h-255z" />
    <glyph glyph-name="uni03BC" unicode="&#x3bc;" horiz-adv-x="568" 
d="M488 450h42l-47 -450h-42l13 122q-22 -57 -73 -95.5t-117 -38.5q-98 0 -130 74l-30 -280h-42l70 668h42l-27 -258q-8 -75 24 -120t107 -45q81 0 129.5 59.5t56.5 133.5z" />
    <glyph glyph-name="pi" unicode="&#x3c0;" horiz-adv-x="574" 
d="M132 0l41 392h-47l4 39h404l-4 -39h-47l-41 -392h-43l41 392h-224l-41 -392h-43z" />
    <glyph glyph-name="uni0401" unicode="&#x401;" horiz-adv-x="548" 
d="M255 766q-20 0 -32.5 13.5t-10.5 33.5t17.5 34.5t35.5 14.5t32 -14.5t10 -34.5q-1 -20 -16.5 -33.5t-35.5 -13.5zM486 766q-20 0 -32 13.5t-11 33.5q2 20 17.5 34.5t35.5 14.5q21 0 33 -14.5t10 -34.5q-1 -20 -16.5 -33.5t-36.5 -13.5zM90 0l74 700h385l-5 -41h-341
l-30 -291h341l-5 -40h-341l-30 -287h341l-4 -41h-385z" />
    <glyph glyph-name="uni0402" unicode="&#x402;" horiz-adv-x="691" 
d="M485 464q93 0 146.5 -60t41.5 -176t-77 -178.5t-175 -62.5q-36 0 -67 8l5 39q27 -7 59 -7q97 0 149 54.5t62 143.5q10 97 -31.5 148t-121.5 51q-98 0 -165 -45l-40 -379h-43l69 658h-219l5 42h482l-5 -42h-220l-25 -238q74 44 170 44z" />
    <glyph glyph-name="uni0403" unicode="&#x403;" horiz-adv-x="469" 
d="M255 730l-14 32l252 126l14 -32zM164 700h370l-5 -42h-326l-69 -658h-44z" />
    <glyph glyph-name="uni0404" unicode="&#x404;" horiz-adv-x="764" 
d="M400 27q102 0 180 48t113 132h47q-39 -102 -131.5 -161.5t-212.5 -59.5q-154 0 -243 102.5t-73 261.5t127 261.5t265 102.5q119 0 199 -59t99 -161h-47q-18 83 -86 131t-169 48q-130 0 -224.5 -84t-115.5 -219h407l-4 -40h-407q-8 -135 69 -219t207 -84z" />
    <glyph glyph-name="uni0405" unicode="&#x405;" horiz-adv-x="566" 
d="M292 -14q-114 0 -175 61t-50 164h44q-9 -84 41 -134.5t143 -50.5q85 0 136.5 40t58.5 110q13 115 -114 146l-117 31q-151 34 -136 180q8 81 72.5 131t160.5 50q101 0 154 -55t43 -150h-44q8 78 -34 122t-124 44q-76 0 -127 -39t-58 -102q-12 -116 123 -147l117 -30
q69 -16 102 -62t26 -118q-10 -89 -74 -140t-168 -51z" />
    <glyph glyph-name="uni0406" unicode="&#x406;" horiz-adv-x="224" 
d="M90 0l74 700h44l-74 -700h-44z" />
    <glyph glyph-name="uni0407" unicode="&#x407;" horiz-adv-x="224" 
d="M137 767q-20 0 -31.5 13t-10.5 33q2 20 16.5 33.5t34.5 13.5t32 -13.5t10 -33.5q-1 -20 -16 -33t-35 -13zM248 767q-20 0 -32 13t-10 33t16.5 33.5t34.5 13.5t31.5 -13.5t9.5 -33.5q-1 -20 -15.5 -33t-34.5 -13zM90 0l74 700h44l-74 -700h-44z" />
    <glyph glyph-name="uni0408" unicode="&#x408;" horiz-adv-x="537" 
d="M253 -14q-99 0 -156.5 59t-46.5 166h43q-9 -88 38 -136t126 -48q77 0 129.5 50.5t62.5 140.5l51 482h43l-51 -482q-12 -109 -77 -170.5t-162 -61.5z" />
    <glyph glyph-name="uni0409" unicode="&#x409;" horiz-adv-x="1017" 
d="M835 386q76 0 123 -56t38 -137q-8 -80 -68 -136.5t-139 -56.5h-245l69 660h-338l-44 -421q-14 -134 -58.5 -187.5t-112.5 -53.5h-36l4 42h28q56 0 88.5 44.5t43.5 155.5l49 460h425l-33 -314h206zM793 40q60 0 106 45t53 108t-29 108t-93 45h-206l-32 -306h201z" />
    <glyph glyph-name="uni040A" unicode="&#x40a;" horiz-adv-x="1005" 
d="M823 386q76 0 123 -56t38 -137q-8 -80 -68 -136.5t-139 -56.5h-245l34 328h-398l-34 -328h-44l74 700h44l-35 -332h398l35 332h44l-33 -314h206zM781 40q60 0 106 45t53 108t-29 108t-93 45h-206l-32 -306h201z" />
    <glyph glyph-name="uni040B" unicode="&#x40b;" horiz-adv-x="734" 
d="M491 454q211 0 187 -223l-24 -231h-43l23 222q21 191 -158 191q-99 0 -167 -49l-38 -364h-43l69 658h-219l5 42h482l-5 -42h-220l-26 -252q73 48 177 48z" />
    <glyph glyph-name="uni040C" unicode="&#x40c;" horiz-adv-x="576" 
d="M531 856l-252 -126l-14 32l252 126zM235 360l319 -360h-59l-322 367l-39 -367h-44l74 700h44l-33 -314h47q67 0 118 77l104 151q31 46 58.5 66.5t64.5 20.5h47l-5 -41h-40q-28 0 -47 -15.5t-48 -58.5l-105 -150q-53 -76 -113 -76h-21z" />
    <glyph glyph-name="uni040E" unicode="&#x40e;" horiz-adv-x="532" 
d="M358 738q-62 0 -103.5 33t-41.5 89h38q1 -42 32 -65t78 -23t83.5 23t45.5 65h37q-12 -56 -59.5 -89t-109.5 -33zM564 700h47l-436 -700h-48l172 275l-225 425h51l202 -380z" />
    <glyph glyph-name="uni040F" unicode="&#x40f;" horiz-adv-x="629" 
d="M613 700l-74 -700h-202l-13 -120h-44l13 120h-203l74 700h44l-70 -659h362l70 659h43z" />
    <glyph glyph-name="uni0410" unicode="&#x410;" horiz-adv-x="564" 
d="M495 0l-33 144h-331l-62 -144h-46l313 700h40l165 -700h-46zM149 184h304l-104 459z" />
    <glyph glyph-name="uni0411" unicode="&#x411;" horiz-adv-x="563" 
d="M90 0l74 700h376l-5 -41h-332l-28 -273h206q76 0 123 -56t38 -137q-8 -80 -68 -136.5t-139 -56.5h-245zM138 40h201q60 0 106 45t53 108t-29 108t-93 45h-206z" />
    <glyph glyph-name="uni0412" unicode="&#x412;" horiz-adv-x="577" 
d="M423 352q58 -10 91.5 -55t26.5 -113q-9 -86 -70 -135t-155 -49h-226l74 700h223q93 0 143.5 -48t41.5 -132q-7 -69 -47.5 -112.5t-101.5 -55.5zM381 660h-178l-30 -288h197q61 0 105.5 39.5t51.5 104.5q7 68 -32.5 106t-113.5 38zM319 40q75 0 123.5 39t55.5 108
q7 64 -30 104.5t-98 40.5h-201l-31 -292h181z" />
    <glyph glyph-name="uni0413" unicode="&#x413;" horiz-adv-x="469" 
d="M164 700h370l-5 -42h-326l-69 -658h-44z" />
    <glyph glyph-name="uni0414" unicode="&#x414;" horiz-adv-x="622" 
d="M534 41h28l-17 -161h-42l13 120h-447l-13 -120h-44l17 161h25q45 0 71.5 44t37.5 155l49 460h392zM141 41h349l65 618h-303l-44 -419q-14 -141 -67 -199z" />
    <glyph glyph-name="uni0415" unicode="&#x415;" horiz-adv-x="548" 
d="M90 0l74 700h385l-5 -41h-341l-30 -291h341l-5 -40h-341l-30 -287h341l-4 -41h-385z" />
    <glyph glyph-name="uni0416" unicode="&#x416;" horiz-adv-x="928" 
d="M587 360l319 -360h-59l-322 367l-39 -367h-44l39 367l-400 -367h-59l395 360h-21q-60 0 -97 76l-73 150q-21 43 -37 58.5t-44 15.5h-40l5 41h47q36 0 59.5 -20t45.5 -67l72 -151q34 -77 102 -77h47l33 314h44l-33 -314h47q67 0 118 77l104 151q31 46 58.5 66.5t64.5 20.5
h47l-5 -41h-40q-28 0 -47 -15.5t-48 -58.5l-105 -150q-53 -76 -113 -76h-21z" />
    <glyph glyph-name="uni0417" unicode="&#x417;" horiz-adv-x="547" 
d="M111 192q-8 -75 37.5 -120t128.5 -45t136.5 44t61.5 115q7 72 -35 114t-125 42h-57l4 40h57q78 0 126 40.5t54 104.5q7 65 -34 105.5t-118 40.5q-81 0 -135.5 -42.5t-61.5 -111.5h-43q9 87 76 141t167 54q96 0 149.5 -50t44.5 -135q-7 -64 -49 -109t-109 -56
q68 -10 103.5 -58.5t28.5 -118.5q-10 -91 -76.5 -146t-168.5 -55t-158.5 56.5t-46.5 149.5h43z" />
    <glyph glyph-name="uni0418" unicode="&#x418;" horiz-adv-x="664" 
d="M593 590l-454 -546l-5 -44h-44l74 700h44l-62 -589l454 545l5 44h43l-74 -700h-43z" />
    <glyph glyph-name="uni0419" unicode="&#x419;" horiz-adv-x="664" 
d="M410 718q-64 0 -106 27t-42 75h37q2 -33 34.5 -51t80.5 -18t84 18t45 51h37q-10 -48 -58 -75t-112 -27zM593 590l-454 -546l-5 -44h-44l74 700h44l-62 -589l454 545l5 44h43l-74 -700h-43z" />
    <glyph glyph-name="uni041A" unicode="&#x41a;" horiz-adv-x="576" 
d="M235 360l319 -360h-59l-322 367l-39 -367h-44l74 700h44l-33 -314h47q67 0 118 77l104 151q31 46 58.5 66.5t64.5 20.5h47l-5 -41h-40q-28 0 -47 -15.5t-48 -58.5l-105 -150q-53 -76 -113 -76h-21z" />
    <glyph glyph-name="uni041B" unicode="&#x41b;" horiz-adv-x="677" 
d="M28 40h28q56 0 88.5 44.5t43.5 155.5l49 460h424l-74 -700h-43l69 660h-338l-44 -421q-14 -134 -58.5 -187.5t-112.5 -53.5h-36z" />
    <glyph glyph-name="uni041C" unicode="&#x41c;" horiz-adv-x="812" 
d="M90 0l74 700h43l205 -641l341 641h43l-74 -700h-42l64 606l-319 -606h-37l-192 607l-64 -607h-42z" />
    <glyph glyph-name="uni041D" unicode="&#x41d;" horiz-adv-x="665" 
d="M90 0l74 700h44l-35 -332h398l35 332h43l-74 -700h-43l34 328h-398l-34 -328h-44z" />
    <glyph glyph-name="uni041E" unicode="&#x41e;" horiz-adv-x="803" 
d="M401 -14q-108 0 -186 51.5t-111.5 133.5t-23.5 179q16 150 125.5 257t271.5 107q108 0 186 -51.5t111.5 -133.5t23.5 -179q-16 -150 -125.5 -257t-271.5 -107zM405 27q142 0 238 95t109 228q15 133 -61 228t-218 95q-143 0 -239 -95t-109 -228q-15 -133 61 -228t219 -95z
" />
    <glyph glyph-name="uni041F" unicode="&#x41f;" horiz-adv-x="659" 
d="M203 659l-69 -659h-44l74 700h479l-74 -700h-44l69 659h-391z" />
    <glyph glyph-name="uni0420" unicode="&#x420;" horiz-adv-x="574" 
d="M401 700q98 0 155 -66.5t46 -168.5q-10 -102 -81.5 -168.5t-169.5 -66.5h-193l-24 -230h-44l74 700h237zM353 270q79 0 137.5 55.5t67.5 139.5t-37.5 139t-126.5 55h-191l-41 -389h191z" />
    <glyph glyph-name="uni0421" unicode="&#x421;" horiz-adv-x="775" 
d="M400 -14q-162 0 -249 105.5t-71 258.5t125 258.5t271 105.5q132 0 209 -61.5t94 -163.5h-47q-18 85 -82.5 134.5t-176.5 49.5q-144 0 -239 -93t-109 -230q-15 -137 60.5 -230t219.5 -93q112 0 187 49.5t111 134.5h47q-38 -102 -128 -163.5t-222 -61.5z" />
    <glyph glyph-name="uni0422" unicode="&#x422;" horiz-adv-x="500" 
d="M228 0l69 658h-219l5 42h482l-5 -42h-220l-69 -658h-43z" />
    <glyph glyph-name="uni0423" unicode="&#x423;" horiz-adv-x="532" 
d="M564 700h47l-436 -700h-48l172 275l-225 425h51l202 -380z" />
    <glyph glyph-name="uni0424" unicode="&#x424;" horiz-adv-x="726" 
d="M519 598q106 0 164.5 -71.5t47.5 -176.5q-11 -104 -84.5 -175.5t-179.5 -71.5h-71l-11 -103h-44l11 103h-71q-106 0 -165 71.5t-48 175.5q11 105 85 176.5t180 71.5h71l11 102h44l-11 -102h71zM112 350q-9 -87 38.5 -146.5t134.5 -59.5h71l44 413h-71q-87 0 -147.5 -59.5
t-69.5 -147.5zM471 144q87 0 147.5 59.5t69.5 146.5q9 88 -38.5 147.5t-134.5 59.5h-71l-44 -413h71z" />
    <glyph glyph-name="uni0425" unicode="&#x425;" horiz-adv-x="580" 
d="M30 0l272 350l-198 350h50l177 -314l243 314h50l-273 -350l199 -350h-50l-177 313l-243 -313h-50z" />
    <glyph glyph-name="uni0426" unicode="&#x426;" horiz-adv-x="631" 
d="M543 41h29l-17 -161h-42l13 120h-436l74 700h44l-70 -659h362l70 659h43z" />
    <glyph glyph-name="uni0427" unicode="&#x427;" horiz-adv-x="572" 
d="M438 0l31 294q-71 -48 -176 -48q-212 0 -189 223l25 231h44l-24 -222q-9 -93 27 -142t130 -49q100 0 167 49l39 364h44l-74 -700h-44z" />
    <glyph glyph-name="uni0428" unicode="&#x428;" horiz-adv-x="922" 
d="M90 0l74 700h44l-70 -659h305l70 659h44l-70 -659h305l70 659h44l-74 -700h-742z" />
    <glyph glyph-name="uni0429" unicode="&#x429;" horiz-adv-x="924" 
d="M836 41h28l-17 -161h-42l13 120h-728l74 700h44l-70 -659h305l70 659h44l-70 -659h305l70 659h44z" />
    <glyph glyph-name="uni042A" unicode="&#x42a;" horiz-adv-x="704" 
d="M522 386q76 0 123 -56t38 -137q-8 -80 -68 -136.5t-139 -56.5h-245l69 659h-223l5 41h267l-33 -314h206zM480 40q60 0 106 45t53 108t-29 108t-93 45h-206l-32 -306h201z" />
    <glyph glyph-name="uni042B" unicode="&#x42b;" horiz-adv-x="747" 
d="M90 0l74 700h44l-33 -314h206q76 0 123 -56t38 -137q-8 -80 -68 -136.5t-139 -56.5h-245zM613 0l74 700h44l-74 -700h-44zM138 40h201q60 0 106 45t53 108t-29 108t-93 45h-206z" />
    <glyph glyph-name="uni042C" unicode="&#x42c;" horiz-adv-x="563" 
d="M90 0l74 700h44l-33 -314h206q76 0 123 -56t38 -137q-8 -80 -68 -136.5t-139 -56.5h-245zM138 40h201q60 0 106 45t53 108t-29 108t-93 45h-206z" />
    <glyph glyph-name="uni042D" unicode="&#x42d;" horiz-adv-x="764" 
d="M442 714q154 0 243 -102.5t73 -261.5t-127 -261.5t-265 -102.5q-120 0 -200 59.5t-98 161.5h47q17 -84 85 -132t170 -48q130 0 224.5 84t115.5 219h-407l4 40h407q8 135 -69 219t-207 84q-102 0 -180 -48t-113 -131h-47q40 102 132.5 161t211.5 59z" />
    <glyph glyph-name="uni042E" unicode="&#x42e;" horiz-adv-x="1022" 
d="M696 714q108 0 186 -51.5t111.5 -133.5t23.5 -179q-16 -150 -125.5 -257t-271.5 -107q-156 0 -243.5 100t-78.5 243h-129l-35 -329h-44l74 700h44l-35 -330h128q23 144 131 244t264 100zM624 27q142 0 238 95t109 228q15 133 -61 228t-218 95q-143 0 -239 -95t-109 -228
q-15 -133 61 -228t219 -95z" />
    <glyph glyph-name="uni042F" unicode="&#x42f;" horiz-adv-x="603" 
d="M350 700h237l-74 -700h-44l24 230h-193q-12 0 -18 1l-172 -231h-52l179 239q-70 20 -108.5 81.5t-29.5 144.5q11 101 82 168t169 67zM306 270h191l41 389h-191q-80 0 -137.5 -54.5t-66.5 -139.5q-9 -84 37.5 -139.5t125.5 -55.5z" />
    <glyph glyph-name="uni0430" unicode="&#x430;" horiz-adv-x="590" 
d="M268 -12q-103 0 -157.5 67t-43.5 169q11 103 80.5 170.5t171.5 67.5q69 0 116 -35.5t63 -94.5l12 118h42l-47 -450h-42l12 116q-28 -58 -83.5 -93t-123.5 -35zM276 27q86 0 145 57t68 140q9 84 -38 141.5t-134 57.5q-85 0 -142 -56t-66 -143q-9 -85 36.5 -141t130.5 -56z
" />
    <glyph glyph-name="uni0431" unicode="&#x431;" horiz-adv-x="562" 
d="M289 -12q-110 0 -162.5 76t-38.5 209q11 105 34.5 180t67 132.5t113 86t167.5 28.5h81l-5 -41h-89q-150 0 -225.5 -85.5t-95.5 -250.5q32 67 87.5 103t124.5 36q99 0 152.5 -68.5t43.5 -167.5q-11 -101 -81 -169.5t-174 -68.5zM294 27q84 0 141.5 57t66.5 141
q9 83 -37 140.5t-130 57.5t-141.5 -57t-65.5 -141q-9 -84 36.5 -141t129.5 -57z" />
    <glyph glyph-name="uni0432" unicode="&#x432;" horiz-adv-x="495" 
d="M132 450h222q59 0 89 -33.5t24 -81.5q-4 -38 -32.5 -67.5t-72.5 -36.5q43 -2 67 -35.5t19 -77.5q-5 -47 -43.5 -82.5t-97.5 -35.5h-222zM334 247q34 0 60 26t30 60t-17.5 58.5t-57.5 24.5h-179l-18 -169h182zM148 213l-18 -179h182q35 0 63 25.5t32 60.5q4 37 -18.5 65
t-57.5 28h-183z" />
    <glyph glyph-name="uni0433" unicode="&#x433;" horiz-adv-x="371" 
d="M395 450l-4 -40h-221l-43 -410h-42l47 450h263z" />
    <glyph glyph-name="uni0434" unicode="&#x434;" horiz-adv-x="535" 
d="M449 41h28l-17 -161h-42l13 120h-367l-13 -120h-44l17 161h41q56 18 68 144l28 265h331zM123 37h284l39 376h-247l-23 -227q-11 -102 -53 -149z" />
    <glyph glyph-name="uni0435" unicode="&#x435;" horiz-adv-x="509" 
d="M488 220h-379v-2q-9 -86 33.5 -138.5t121.5 -52.5q57 0 102 26.5t65 71.5h42q-20 -61 -79 -99t-133 -38q-99 0 -152 65t-42 173q11 106 77 171t163 65q92 0 143.5 -58.5t42.5 -148.5zM303 426q-73 0 -124 -46.5t-65 -123.5h338q8 75 -32.5 122.5t-116.5 47.5z" />
    <glyph glyph-name="uni0436" unicode="&#x436;" horiz-adv-x="715" 
d="M678 0h-56l-219 224l-24 -224h-43l24 224l-267 -224h-56l267 225h-3q-27 0 -43.5 14t-34.5 48l-43 78q-19 36 -30 43q-12 8 -30 8h-26l4 39h37q28 0 42.5 -14t35.5 -50l51 -93q28 -58 67 -58h30l22 210h43l-22 -210h30q41 0 79 58l71 93q19 24 29 35t26.5 20t36.5 9h37
l-4 -39h-26q-8 0 -14 -1t-12 -4.5t-9.5 -5t-9.5 -8t-8 -8.5t-9.5 -12t-9.5 -12l-59 -78q-24 -34 -43.5 -48t-46.5 -14h-3z" />
    <glyph glyph-name="uni0437" unicode="&#x437;" horiz-adv-x="472" 
d="M112 121q-5 -43 29.5 -68.5t98.5 -25.5q62 0 100.5 25t42.5 68q4 41 -23.5 66t-78.5 25h-70l4 34h69q47 0 77.5 26t34.5 66q5 39 -25 63.5t-85 24.5q-62 0 -99.5 -24.5t-42.5 -65.5h-44q6 56 58 91t130 35q74 0 116 -33.5t37 -86.5q-5 -43 -33.5 -73.5t-73.5 -37.5
q46 -4 71 -35.5t20 -77.5q-6 -57 -59 -92t-132 -35q-82 0 -128 36t-39 95h45z" />
    <glyph glyph-name="uni0438" unicode="&#x438;" horiz-adv-x="552" 
d="M463 366l-333 -335l-3 -31h-42l47 450h42l-38 -367l333 335l3 32h42l-47 -450h-42z" />
    <glyph glyph-name="uni0439" unicode="&#x439;" horiz-adv-x="552" 
d="M329 499q-65 0 -106 35.5t-40 97.5h39q0 -46 31.5 -72.5t79.5 -26.5t85 26.5t46 72.5h38q-12 -62 -60 -97.5t-113 -35.5zM463 366l-333 -335l-3 -31h-42l47 450h42l-38 -367l333 335l3 32h42l-47 -450h-42z" />
    <glyph glyph-name="uni043A" unicode="&#x43a;" horiz-adv-x="464" 
d="M208 225l219 -225h-56l-220 225l-24 -225h-42l47 450h42l-22 -210h31q41 0 79 58l71 93q19 24 29 35t26.5 20t36.5 9h37l-4 -39h-26q-8 0 -14 -1t-12 -4.5t-9.5 -5t-9.5 -8t-8 -8.5t-9.5 -12t-9.5 -12l-59 -78q-24 -34 -43.5 -48t-46.5 -14h-3z" />
    <glyph glyph-name="uni043B" unicode="&#x43b;" horiz-adv-x="539" 
d="M34 39h19q78 0 92 144l28 267h328l-47 -450h-42l43 410h-244l-24 -226q-11 -101 -44 -143t-85 -42h-28z" />
    <glyph glyph-name="uni043C" unicode="&#x43c;" horiz-adv-x="678" 
d="M85 0l47 450h66l147 -391l229 391h66l-47 -450h-41l43 410l-242 -410h-27l-157 410l-43 -410h-41z" />
    <glyph glyph-name="uni043D" unicode="&#x43d;" horiz-adv-x="551" 
d="M85 0l47 450h42l-21 -206h297l21 206h42l-47 -450h-42l22 206h-297l-22 -206h-42z" />
    <glyph glyph-name="uni043E" unicode="&#x43e;" horiz-adv-x="542" 
d="M270 -12q-102 0 -158 68.5t-45 168.5q10 101 80 169t173 68t158.5 -68t45.5 -169q-11 -100 -81 -168.5t-173 -68.5zM274 28q84 0 141.5 57t66.5 140q8 84 -37.5 140.5t-129.5 56.5t-141 -56.5t-65 -140.5q-9 -83 36 -140t129 -57z" />
    <glyph glyph-name="uni043F" unicode="&#x43f;" horiz-adv-x="561" 
d="M476 0h-42l43 413h-307l-43 -413h-42l47 450h391z" />
    <glyph glyph-name="uni0440" unicode="&#x440;" horiz-adv-x="590" 
d="M372 462q98 0 153.5 -67t45.5 -171q-11 -102 -82 -169t-169 -67q-67 0 -115.5 34.5t-65.5 93.5l-35 -334h-42l70 668h42l-12 -118q30 61 85.5 95.5t124.5 34.5zM320 27q82 0 141 56t68 141q9 86 -38.5 142.5t-129.5 56.5q-84 0 -144 -56.5t-69 -142.5q-9 -85 40 -141
t132 -56z" />
    <glyph glyph-name="uni0441" unicode="&#x441;" horiz-adv-x="512" 
d="M265 -12q-101 0 -155 66t-43 171t78.5 170t168.5 65q85 0 135.5 -43t52.5 -115h-43q-4 57 -44 88t-106 31q-82 0 -136.5 -54t-63.5 -142q-10 -89 33.5 -143.5t125.5 -54.5q66 0 112 31.5t62 88.5h43q-17 -72 -76 -115.5t-144 -43.5z" />
    <glyph glyph-name="uni0442" unicode="&#x442;" horiz-adv-x="421" 
d="M434 450l-4 -40h-156l-43 -410h-42l43 410h-155l4 40h353z" />
    <glyph glyph-name="uni0443" unicode="&#x443;" horiz-adv-x="568" 
d="M487 450h42l-49 -472q-12 -113 -83 -166q-58 -42 -141 -42q-95 0 -144 46q-46 42 -39 115h42q-4 -54 30 -88.5t115 -34.5q160 0 178 172l15 139q-25 -56 -75 -92.5t-118 -36.5q-95 0 -132.5 52t-27.5 153l27 255h41l-26 -248q-9 -86 20.5 -129.5t112.5 -43.5q80 0 130 59
t58 133z" />
    <glyph glyph-name="uni0444" unicode="&#x444;" horiz-adv-x="561" 
d="M543 225q-11 -97 -79 -166.5t-164 -70.5l-22 -206h-42l22 206q-95 2 -148 71.5t-43 165.5q10 98 78 167t163 71l25 237h42l-25 -237q96 -1 149.5 -70.5t43.5 -167.5zM302 27q80 1 135 58.5t64 139.5t-34.5 140t-122.5 59zM109 225q-9 -82 33.5 -139.5t121.5 -58.5l42 397
q-80 -1 -134 -59t-63 -140z" />
    <glyph glyph-name="uni0445" unicode="&#x445;" horiz-adv-x="455" 
d="M26 0l200 225l-152 225h51l129 -193l169 193h52l-199 -225l153 -225h-52l-130 194l-170 -194h-51z" />
    <glyph glyph-name="uni0446" unicode="&#x446;" horiz-adv-x="570" 
d="M484 41h29l-17 -161h-42l13 120h-382l47 450h42l-43 -412h311l43 412h42z" />
    <glyph glyph-name="uni0447" unicode="&#x447;" horiz-adv-x="473" 
d="M346 0l20 188q-61 -33 -145 -33q-87 0 -126.5 38t-30.5 121l14 136h42l-14 -132q-7 -65 24.5 -95t101.5 -30q86 0 138 33l23 224h42l-47 -450h-42z" />
    <glyph glyph-name="uni0448" unicode="&#x448;" horiz-adv-x="802" 
d="M426 38h253l43 412h42l-47 -450h-632l47 450h42l-43 -412h253l43 412h42z" />
    <glyph glyph-name="uni0449" unicode="&#x449;" horiz-adv-x="807" 
d="M721 41h28l-17 -161h-42l13 120h-618l47 450h42l-43 -412h253l43 412h42l-43 -412h253l43 412h42z" />
    <glyph glyph-name="uni044A" unicode="&#x44a;" horiz-adv-x="487" 
d="M345 268q58 0 92 -38.5t28 -95.5q-6 -56 -49.5 -95t-102.5 -39h-184l43 411h-105l4 39h147l-19 -182h146zM316 36q41 0 71.5 29t34.5 69q5 40 -19 69t-64 29h-144l-20 -196h141z" />
    <glyph glyph-name="uni044B" unicode="&#x44b;" horiz-adv-x="615" 
d="M132 450h42l-19 -182h146q58 0 92 -38.5t28 -95.5q-6 -56 -49.5 -95t-102.5 -39h-184zM488 0l47 450h42l-47 -450h-42zM151 232l-20 -196h141q41 0 71.5 29t34.5 69q5 40 -19 69t-64 29h-144z" />
    <glyph glyph-name="uni044C" unicode="&#x44c;" horiz-adv-x="443" 
d="M132 450h42l-19 -182h146q58 0 92 -38.5t28 -95.5q-6 -56 -49.5 -95t-102.5 -39h-184zM151 232l-20 -196h141q41 0 71.5 29t34.5 69q5 40 -19 69t-64 29h-144z" />
    <glyph glyph-name="uni044D" unicode="&#x44d;" horiz-adv-x="521" 
d="M118 285h-42q13 75 71.5 126t155.5 51q108 0 159 -68.5t40 -167.5q-10 -99 -76.5 -168.5t-172.5 -69.5q-94 0 -144 46.5t-51 119.5h44q4 -57 42.5 -92t113.5 -35q82 0 134 51.5t64 130.5h-220l4 35h220q4 77 -36 128t-125 51q-78 0 -123 -39.5t-58 -98.5z" />
    <glyph glyph-name="uni044E" unicode="&#x44e;" horiz-adv-x="704" 
d="M482 462q103 0 158.5 -68t45.5 -169q-11 -100 -81 -168.5t-173 -68.5q-96 0 -151.5 61t-53.5 153h-79l-21 -202h-42l47 450h42l-22 -210h78q15 96 84 159t168 63zM436 28q84 0 141.5 57t66.5 140q8 84 -37.5 140.5t-129.5 56.5t-141 -56.5t-65 -140.5q-9 -83 36 -140
t129 -57z" />
    <glyph glyph-name="uni044F" unicode="&#x44f;" horiz-adv-x="509" 
d="M68 0l136 165q-52 4 -84.5 46.5t-27.5 93.5q6 60 53 102.5t114 42.5h212l-47 -450h-41l17 161h-150l-131 -161h-51zM239 198h165l22 215h-165q-51 0 -86 -32t-40 -76t24 -75.5t80 -31.5z" />
    <glyph glyph-name="uni0451" unicode="&#x451;" horiz-adv-x="509" 
d="M219 553q-20 0 -32 13.5t-10 33.5t17 34.5t35 14.5q21 0 33.5 -14t10.5 -35q-2 -20 -18 -33.5t-36 -13.5zM413 553q-20 0 -32 13.5t-10 33.5t17 34.5t35 14.5t33 -14.5t11 -34.5t-18 -33.5t-36 -13.5zM488 220h-379v-2q-9 -86 33.5 -138.5t121.5 -52.5q57 0 102 26.5
t65 71.5h42q-20 -61 -79 -99t-133 -38q-99 0 -152 65t-42 173q11 106 77 171t163 65q92 0 143.5 -58.5t42.5 -148.5zM303 426q-73 0 -124 -46.5t-65 -123.5h338q8 75 -32.5 122.5t-116.5 47.5z" />
    <glyph glyph-name="uni0452" unicode="&#x452;" horiz-adv-x="565" 
d="M360 462q86 0 124.5 -50.5t28.5 -146.5l-39 -365q-6 -58 -37.5 -91t-80.5 -33q-39 0 -62 13l4 41q25 -13 57 -13t52.5 24t25.5 67l36 344q18 172 -125 172q-83 0 -132 -56.5t-58 -147.5l-23 -220h-42l59 560h-73l4 37h73l11 103h42l-11 -103h213l-4 -37h-213l-25 -234
q21 61 71 98.5t124 37.5z" />
    <glyph glyph-name="uni0453" unicode="&#x453;" horiz-adv-x="371" 
d="M258 513l-23 26l172 141l24 -27zM395 450l-4 -40h-221l-43 -410h-42l47 450h263z" />
    <glyph glyph-name="uni0454" unicode="&#x454;" horiz-adv-x="521" 
d="M463 285q-1 59 -38 98.5t-115 39.5q-85 0 -135 -50.5t-62 -128.5h220l-4 -35h-220q-4 -79 37 -130.5t123 -51.5q75 0 121 35t61 92h44q-17 -74 -76 -120t-153 -46q-106 0 -157.5 69.5t-41.5 168.5q11 99 76 167.5t173 68.5q97 0 144.5 -51t44.5 -126h-42z" />
    <glyph glyph-name="uni0455" unicode="&#x455;" horiz-adv-x="434" 
d="M221 -12q-82 0 -126.5 40.5t-37.5 100.5h42q-5 -44 28.5 -74t99.5 -30q55 0 90 23t39 65q3 33 -14 54t-61 32l-94 24q-105 27 -96 118q6 56 54 88.5t119 32.5q76 0 116 -33.5t33 -93.5h-41q4 42 -26.5 67t-88.5 25q-51 0 -85.5 -22t-38.5 -64q-7 -61 77 -83l96 -24
q102 -27 93 -118q-7 -62 -54.5 -95t-123.5 -33z" />
    <glyph glyph-name="uni0456" unicode="&#x456;" horiz-adv-x="212" 
d="M164 553q-21 0 -33.5 14.5t-10.5 35.5q2 20 18 34.5t37 14.5t33.5 -14t10.5 -35t-17.5 -35.5t-37.5 -14.5zM85 0l47 450h42l-47 -450h-42z" />
    <glyph glyph-name="uni0457" unicode="&#x457;" horiz-adv-x="212" 
d="M105 556q-18 0 -29.5 13t-9.5 31q2 20 16 33t33 13t30.5 -13.5t9.5 -32.5q-1 -18 -16 -31t-34 -13zM222 556q-18 0 -29.5 13t-9.5 31q2 20 16 33t33 13t30.5 -13.5t9.5 -32.5q-1 -18 -16 -31t-34 -13zM85 0l47 450h42l-47 -450h-42z" />
    <glyph glyph-name="uni0458" unicode="&#x458;" horiz-adv-x="215" 
d="M167 553q-21 0 -33.5 14.5t-10.5 35.5q2 20 18 34.5t37 14.5t33.5 -14t10.5 -35t-17.5 -35.5t-37.5 -14.5zM1 -224q-39 0 -62 13l4 41q25 -13 57 -13t52.5 24t25.5 67l57 542h42l-58 -550q-6 -58 -37.5 -91t-80.5 -33z" />
    <glyph glyph-name="uni0459" unicode="&#x459;" horiz-adv-x="771" 
d="M629 268q58 0 92 -38.5t28 -95.5q-6 -56 -49.5 -95t-102.5 -39h-185l43 410h-244l-24 -226q-11 -101 -44 -143t-85 -42h-28l4 40h19q78 0 92 144l28 267h329l-19 -182h146zM600 36q41 0 71.5 29t34.5 69q5 40 -19 69t-64 29h-144l-20 -196h141z" />
    <glyph glyph-name="uni045A" unicode="&#x45a;" horiz-adv-x="782" 
d="M640 268q58 0 92 -38.5t28 -95.5q-6 -56 -49.5 -95t-102.5 -39h-184l22 206h-297l-22 -206h-42l47 450h42l-21 -206h297l21 206h42l-19 -182h146zM611 36q41 0 71.5 29t34.5 69q5 40 -19 69t-64 29h-144l-20 -196h141z" />
    <glyph glyph-name="uni045B" unicode="&#x45b;" horiz-adv-x="565" 
d="M360 462q86 0 124.5 -50.5t28.5 -146.5l-28 -265h-42l26 252q18 172 -125 172q-83 0 -132 -56.5t-58 -147.5l-23 -220h-42l59 560h-73l4 37h73l11 103h42l-11 -103h213l-4 -37h-213l-25 -234q21 61 71 98.5t124 37.5z" />
    <glyph glyph-name="uni045C" unicode="&#x45c;" horiz-adv-x="464" 
d="M444 653l-173 -140l-23 26l172 141zM208 225l219 -225h-56l-220 225l-24 -225h-42l47 450h42l-22 -210h31q41 0 79 58l71 93q19 24 29 35t26.5 20t36.5 9h37l-4 -39h-26q-8 0 -14 -1t-12 -4.5t-9.5 -5t-9.5 -8t-8 -8.5t-9.5 -12t-9.5 -12l-59 -78q-24 -34 -43.5 -48
t-46.5 -14h-3z" />
    <glyph glyph-name="uni045E" unicode="&#x45e;" horiz-adv-x="568" 
d="M335 508q-65 0 -106 35.5t-40 97.5h39q0 -46 31.5 -72.5t79.5 -26.5t85 26.5t46 72.5h38q-12 -62 -60 -97.5t-113 -35.5zM487 450h42l-49 -472q-12 -113 -83 -166q-58 -42 -141 -42q-95 0 -144 46q-46 42 -39 115h42q-4 -54 30 -88.5t115 -34.5q160 0 178 172l15 139
q-25 -56 -75 -92.5t-118 -36.5q-95 0 -132.5 52t-27.5 153l27 255h41l-26 -248q-9 -86 20.5 -129.5t112.5 -43.5q80 0 130 59t58 133z" />
    <glyph glyph-name="uni045F" unicode="&#x45f;" horiz-adv-x="565" 
d="M527 450l-47 -450h-176l-10 -91h-42l10 91h-177l47 450h42l-43 -412h311l43 412h42z" />
    <glyph glyph-name="uni0462" unicode="&#x462;" horiz-adv-x="701" 
d="M519 386q76 0 123 -56t38 -137q-8 -80 -68 -136.5t-139 -56.5h-245l69 658h-219l5 42h482l-5 -42h-219l-28 -272h206zM477 40q60 0 106 45t53 108t-29 108t-93 45h-206l-32 -306h201z" />
    <glyph glyph-name="uni0463" unicode="&#x463;" horiz-adv-x="443" 
d="M301 268q58 0 92 -38.5t28 -95.5q-6 -56 -49.5 -95t-102.5 -39h-184l45 431h-76l4 37h76l25 232h42l-25 -232h140l-4 -37h-140l-17 -163h146zM272 36q41 0 71.5 29t34.5 69q5 40 -19 69t-64 29h-144l-20 -196h141z" />
    <glyph glyph-name="uni0472" unicode="&#x472;" horiz-adv-x="803" 
d="M477 714q108 0 186 -51.5t111.5 -133.5t23.5 -179q-16 -150 -125.5 -257t-271.5 -107q-108 0 -186 51.5t-111.5 133.5t-23.5 179q16 150 125.5 257t271.5 107zM473 673q-138 0 -232.5 -89t-113.5 -217h627q8 128 -68 217t-213 89zM405 27q138 0 232.5 89.5t112.5 217.5
h-627q-9 -128 67 -217.5t215 -89.5z" />
    <glyph glyph-name="uni0473" unicode="&#x473;" horiz-adv-x="542" 
d="M320 462q103 0 158.5 -68t45.5 -169q-11 -100 -81 -168.5t-173 -68.5q-102 0 -158 68.5t-45 168.5q10 101 80 169t173 68zM315 422q-80 0 -135 -51t-69 -129h371q3 78 -42 129t-125 51zM274 28q80 0 136 52t70 130h-373q-3 -78 42 -130t125 -52z" />
    <glyph glyph-name="uni0474" unicode="&#x474;" horiz-adv-x="615" 
d="M291 0h-36l-177 700h46l155 -636l241 528q28 61 60 86t84 25h24l-4 -39h-21q-33 0 -57 -17t-43 -60z" />
    <glyph glyph-name="uni0475" unicode="&#x475;" horiz-adv-x="505" 
d="M247 0h-33l-159 450h45l137 -394l164 296q30 55 56.5 78.5t66.5 23.5h21l-4 -39h-13q-26 0 -45 -14.5t-38 -51.5z" />
    <glyph glyph-name="uni048A" unicode="&#x48a;" horiz-adv-x="666" 
d="M410 718q-64 0 -106 27t-42 75h37q2 -33 34.5 -51t80.5 -18t84 18t45 51h37q-10 -48 -58 -75t-112 -27zM578 41h28l-17 -161h-42l13 120h-29l62 590l-454 -546l-5 -44h-44l74 700h44l-62 -589l454 545l5 44h43z" />
    <glyph glyph-name="uni048B" unicode="&#x48b;" horiz-adv-x="556" 
d="M329 499q-65 0 -106 35.5t-40 97.5h39q0 -46 31.5 -72.5t79.5 -26.5t85 26.5t46 72.5h38q-12 -62 -60 -97.5t-113 -35.5zM471 41h28l-17 -161h-42l13 120h-28l38 366l-333 -335l-3 -31h-42l47 450h42l-38 -367l333 335l3 32h42z" />
    <glyph glyph-name="uni048C" unicode="&#x48c;" horiz-adv-x="563" 
d="M381 386q76 0 123 -56t38 -137q-8 -80 -68 -136.5t-139 -56.5h-245l58 555h-73l4 37h73l12 108h44l-12 -108h211l-4 -37h-211l-17 -169h206zM339 40q60 0 106 45t53 108t-29 108t-93 45h-206l-32 -306h201z" />
    <glyph glyph-name="uni048D" unicode="&#x48d;" horiz-adv-x="443" 
d="M301 268q58 0 92 -38.5t28 -95.5q-6 -56 -49.5 -95t-102.5 -39h-184l45 431h-76l4 37h76l25 232h42l-25 -232h140l-4 -37h-140l-17 -163h146zM272 36q41 0 71.5 29t34.5 69q5 40 -19 69t-64 29h-144l-20 -196h141z" />
    <glyph glyph-name="uni048E" unicode="&#x48e;" horiz-adv-x="574" 
d="M602 465q-7 -63 -38.5 -114.5t-80.5 -82.5l65 -73l-25 -23l-72 79q-48 -21 -100 -21h-193l-24 -230h-44l74 700h237q98 0 155 -66.5t46 -168.5zM353 270q39 0 71 13l-92 101l26 23l97 -109q43 26 70 69.5t33 97.5q9 84 -37.5 139t-126.5 55h-191l-41 -389h191z" />
    <glyph glyph-name="uni048F" unicode="&#x48f;" horiz-adv-x="590" 
d="M571 224q-12 -111 -93 -179l62 -70l-25 -23l-65 73q-59 -37 -130 -37q-67 0 -115.5 34.5t-65.5 93.5l-35 -334h-42l70 668h42l-12 -118q30 61 85.5 95.5t124.5 34.5q98 0 153.5 -67t45.5 -171zM320 27q55 0 103 28l-99 109l26 23l101 -113q67 56 78 150q9 86 -38.5 142.5
t-129.5 56.5q-84 0 -144 -56.5t-69 -142.5q-9 -85 40 -141t132 -56z" />
    <glyph glyph-name="uni0490" unicode="&#x490;" horiz-adv-x="469" 
d="M500 798h44l-15 -140h-326l-69 -658h-44l74 700h326z" />
    <glyph glyph-name="uni0491" unicode="&#x491;" horiz-adv-x="371" 
d="M362 548h44l-15 -138h-221l-43 -410h-42l47 450h219z" />
    <glyph glyph-name="uni0492" unicode="&#x492;" horiz-adv-x="469" 
d="M529 658h-326l-25 -242h198l-4 -37h-198l-40 -379h-44l40 379h-86l4 37h86l30 284h370z" />
    <glyph glyph-name="uni0493" unicode="&#x493;" horiz-adv-x="397" 
d="M417 410h-221l-15 -146h143l-4 -37h-143l-24 -227h-42l24 227h-73l4 37h73l19 186h263z" />
    <glyph glyph-name="uni0494" unicode="&#x494;" horiz-adv-x="597" 
d="M351 439q212 0 189 -223l-33 -311q-6 -60 -39.5 -94.5t-86.5 -34.5q-36 0 -62 13l4 42q25 -13 58 -13q35 0 56.5 25t26.5 71l31 293q9 93 -27 142t-130 49q-96 0 -167 -44l-37 -354h-44l74 700h370l-5 -42h-326l-27 -263q75 44 175 44z" />
    <glyph glyph-name="uni0495" unicode="&#x495;" horiz-adv-x="493" 
d="M299 278q83 0 129.5 -57t35.5 -167q-12 -114 -71.5 -176.5t-161.5 -62.5q-27 0 -59 8l4 39q25 -7 52 -7q89 0 136.5 54t57.5 144q9 90 -27 138t-105 48q-76 0 -141 -33l-22 -206h-42l47 450h263l-4 -40h-221l-17 -164q80 32 146 32z" />
    <glyph glyph-name="uni0496" unicode="&#x496;" horiz-adv-x="932" 
d="M873 40h42l-17 -160h-42l13 120h-22l-322 367l-39 -367h-44l39 367l-400 -367h-59l395 360h-21q-60 0 -97 76l-73 150q-21 43 -37 58.5t-44 15.5h-40l5 41h47q36 0 59.5 -20t45.5 -67l72 -151q34 -77 102 -77h47l33 314h44l-33 -314h47q67 0 118 77l104 151
q31 46 58.5 66.5t64.5 20.5h47l-5 -41h-40q-28 0 -47 -15.5t-48 -58.5l-105 -150q-53 -76 -113 -76h-21l286 -323v3z" />
    <glyph glyph-name="uni0497" unicode="&#x497;" horiz-adv-x="746" 
d="M647 38h42l-17 -158h-42l13 120h-21l-219 224l-24 -224h-43l24 224l-267 -224h-56l267 225h-3q-27 0 -43.5 14t-34.5 48l-43 78q-19 36 -30 43q-12 8 -30 8h-26l4 39h37q28 0 42.5 -14t35.5 -50l51 -93q28 -58 67 -58h30l22 210h43l-22 -210h30q41 0 79 58l71 93
q19 24 29 35t26.5 20t36.5 9h37l-4 -39h-26q-8 0 -14 -1t-12 -4.5t-9.5 -5t-9.5 -8t-8 -8.5t-9.5 -12t-9.5 -12l-59 -78q-24 -34 -43.5 -48t-46.5 -14h-3l187 -193z" />
    <glyph glyph-name="uni0498" unicode="&#x498;" horiz-adv-x="547" 
d="M518 187q-9 -86 -69.5 -140t-154.5 -60l-6 -57q16 23 56 23q33 0 51.5 -23t14.5 -59q-4 -38 -29 -61.5t-65 -23.5q-34 0 -53.5 19t-17.5 48h29q-1 -18 11 -29.5t34 -11.5q26 0 42 15t19 43q3 26 -9 42t-38 16q-33 0 -54 -28h-24l10 86q-99 2 -153 58t-44 148h43
q-8 -75 37.5 -120t128.5 -45t136.5 44t61.5 115q7 72 -35 114t-125 42h-57l4 40h57q78 0 126 40.5t54 104.5q7 65 -34 105.5t-118 40.5q-81 0 -135.5 -42.5t-61.5 -111.5h-43q9 87 76 141t167 54q96 0 149.5 -50t44.5 -135q-7 -64 -49 -109t-109 -56q68 -10 103.5 -58.5
t28.5 -118.5z" />
    <glyph glyph-name="uni0499" unicode="&#x499;" horiz-adv-x="472" 
d="M425 117q-5 -54 -54 -88.5t-123 -38.5l-6 -60q16 23 56 23q33 0 51.5 -23t14.5 -59q-4 -38 -29 -61.5t-65 -23.5q-34 0 -53.5 19t-17.5 48h29q-1 -18 11 -29.5t34 -11.5q26 0 42 15t19 43q3 26 -9 42t-38 16q-33 0 -54 -28h-24l10 90q-76 4 -117 39.5t-35 91.5h45
q-5 -43 29.5 -68.5t98.5 -25.5q62 0 100.5 25t42.5 68q4 41 -23.5 66t-78.5 25h-70l4 34h69q47 0 77.5 26t34.5 66q5 39 -25 63.5t-85 24.5q-62 0 -99.5 -24.5t-42.5 -65.5h-44q6 56 58 91t130 35q74 0 116 -33.5t37 -86.5q-5 -43 -33.5 -73.5t-73.5 -37.5q46 -4 71 -35.5
t20 -77.5z" />
    <glyph glyph-name="uni049A" unicode="&#x49a;" horiz-adv-x="579" 
d="M520 40h42l-17 -160h-42l13 120h-21l-322 367l-39 -367h-44l74 700h44l-33 -314h47q67 0 118 77l104 151q31 46 58.5 66.5t64.5 20.5h47l-5 -41h-40q-28 0 -47 -15.5t-48 -58.5l-105 -150q-53 -76 -113 -76h-21l285 -322v2z" />
    <glyph glyph-name="uni049B" unicode="&#x49b;" horiz-adv-x="492" 
d="M393 38h42l-17 -158h-42l13 120h-18l-220 225l-24 -225h-42l47 450h42l-22 -210h31q41 0 79 58l71 93q19 24 29 35t26.5 20t36.5 9h37l-4 -39h-26q-8 0 -14 -1t-12 -4.5t-9.5 -5t-9.5 -8t-8 -8.5t-9.5 -12t-9.5 -12l-59 -78q-24 -34 -43.5 -48t-46.5 -14h-3l185 -190v3z
" />
    <glyph glyph-name="uni049C" unicode="&#x49c;" horiz-adv-x="636" 
d="M614 0h-59l-320 348l-17 -155h-25l17 159h-39l-37 -352h-44l74 700h44l-33 -314h39l17 167h25l-17 -167h28q81 0 133 77l104 151q31 46 58.5 66.5t64.5 20.5h47l-5 -41h-40q-28 0 -47 -15.5t-48 -58.5l-105 -150q-53 -76 -129 -76h-20z" />
    <glyph glyph-name="uni049D" unicode="&#x49d;" horiz-adv-x="485" 
d="M449 0h-58l-193 201l-13 -126h-21l14 136h-29l-22 -211h-42l47 450h42l-22 -210h29l15 136h21l-15 -136q38 0 81 58l71 93q18 23 28.5 34.5t27 20.5t36.5 9h37l-4 -39h-26q-9 0 -16.5 -2t-12.5 -4t-11.5 -8.5l-9.5 -9.5t-11 -13t-11 -14l-58 -78q-27 -35 -45 -48.5
t-44 -13.5h-5z" />
    <glyph glyph-name="uni049E" unicode="&#x49e;" horiz-adv-x="655" 
d="M315 360l319 -360h-59l-322 367l-39 -367h-44l57 544h-80l4 37h80l13 119h44l-13 -119h139l-4 -37h-139l-16 -158h47q67 0 118 77l104 151q31 46 58.5 66.5t64.5 20.5h47l-5 -41h-40q-28 0 -47 -15.5t-48 -58.5l-105 -150q-53 -76 -113 -76h-21z" />
    <glyph glyph-name="uni049F" unicode="&#x49f;" horiz-adv-x="464" 
d="M208 225l219 -225h-56l-220 225l-24 -225h-42l36 341h-47l3 31h47l8 78h42l-8 -78h83l-3 -31h-83l-11 -101h31q41 0 79 58l71 93q19 24 29 35t26.5 20t36.5 9h37l-4 -39h-26q-8 0 -14 -1t-12 -4.5t-9.5 -5t-9.5 -8t-8 -8.5t-9.5 -12t-9.5 -12l-59 -78q-24 -34 -43.5 -48
t-46.5 -14h-3z" />
    <glyph glyph-name="uni04A0" unicode="&#x4a0;" horiz-adv-x="717" 
d="M376 360l319 -360h-59l-322 367l-39 -367h-44l69 659h-223l5 41h267l-33 -314h47q67 0 118 77l104 151q31 46 58.5 66.5t64.5 20.5h47l-5 -41h-40q-28 0 -47 -15.5t-48 -58.5l-105 -150q-53 -76 -113 -76h-21z" />
    <glyph glyph-name="uni04A1" unicode="&#x4a1;" horiz-adv-x="507" 
d="M252 225l219 -225h-56l-220 225l-24 -225h-42l43 411h-105l4 39h147l-22 -210h31q41 0 79 58l71 93q19 24 29 35t26.5 20t36.5 9h37l-4 -39h-26q-8 0 -14 -1t-12 -4.5t-9.5 -5t-9.5 -8t-8 -8.5t-9.5 -12t-9.5 -12l-59 -78q-24 -34 -43.5 -48t-46.5 -14h-3z" />
    <glyph glyph-name="uni04A2" unicode="&#x4a2;" horiz-adv-x="667" 
d="M579 41h28l-17 -161h-42l13 120h-29l34 328h-398l-34 -328h-44l74 700h44l-35 -332h398l35 332h43z" />
    <glyph glyph-name="uni04A3" unicode="&#x4a3;" horiz-adv-x="555" 
d="M470 41h27l-17 -161h-42l13 120h-27l22 206h-297l-22 -206h-42l47 450h42l-21 -206h297l21 206h42z" />
    <glyph glyph-name="uni04A4" unicode="&#x4a4;" horiz-adv-x="910" 
d="M975 700l-5 -42h-326l-69 -658h-44l34 328h-397l-34 -328h-44l74 700h44l-35 -332h397l35 332h370z" />
    <glyph glyph-name="uni04A5" unicode="&#x4a5;" horiz-adv-x="710" 
d="M734 450l-4 -40h-221l-43 -410h-42l22 206h-297l-22 -206h-42l47 450h42l-21 -206h297l21 206h263z" />
    <glyph glyph-name="uni04A6" unicode="&#x4a6;" horiz-adv-x="1032" 
d="M788 451q211 0 188 -223l-34 -323q-6 -60 -39.5 -94.5t-86.5 -34.5q-36 0 -62 13l4 42q25 -13 58 -13q35 0 56.5 25t26.5 71l32 305q10 94 -26 143t-131 49q-96 0 -167 -46l-38 -365h-44l69 659h-391l-69 -659h-44l74 700h479l-31 -293q74 44 176 44z" />
    <glyph glyph-name="uni04A7" unicode="&#x4a7;" horiz-adv-x="842" 
d="M647 278q84 0 130.5 -57t35.5 -167q-12 -114 -71.5 -176.5t-161.5 -62.5q-27 0 -59 8l4 39q25 -7 52 -7q89 0 136 54t57 144q9 90 -26.5 138t-104.5 48q-75 0 -141 -33l-22 -206h-42l43 413h-307l-43 -413h-42l47 450h391l-21 -204q82 32 145 32z" />
    <glyph glyph-name="uni04A8" unicode="&#x4a8;" horiz-adv-x="764" 
d="M614 22q55 -1 112 28l-4 -40q-54 -27 -110 -27q-68 0 -110 24q-54 -24 -129 -24q-149 0 -230 101t-63 268q17 160 127 262.5t277 102.5q77 0 137 -21l-4 -42q-73 22 -139 22q-142 0 -240 -93t-113 -232q-16 -148 55 -238.5t201 -90.5q46 0 82 10q-61 39 -88 113.5
t-17 167.5q11 107 69 172t147 65q87 0 129.5 -61.5t31.5 -164.5q-10 -97 -58.5 -175.5t-127.5 -117.5q36 -10 65 -9zM401 309q-9 -89 21 -158t88 -103q77 33 125 104t58 166q10 88 -24 139.5t-100 51.5q-68 0 -113 -54.5t-55 -145.5z" />
    <glyph glyph-name="uni04A9" unicode="&#x4a9;" horiz-adv-x="564" 
d="M445 21q45 0 90 20l-3 -34q-45 -20 -87 -20q-46 0 -80 17q-40 -21 -91 -21q-105 0 -162.5 58.5t-45.5 175.5q12 113 91 179t201 66q50 0 88 -14l-5 -38q-36 14 -86 14q-102 0 -169.5 -54.5t-77.5 -151.5q-10 -96 35 -147t136 -51q23 0 43 3q-81 50 -70 162q8 72 49.5 113
t106.5 41q66 0 97 -40.5t24 -108.5q-11 -110 -118 -167q22 -2 34 -2zM291 184q-11 -111 78 -149q51 20 83 60t38 94q5 51 -15.5 82.5t-70.5 31.5q-45 0 -76 -29.5t-37 -89.5z" />
    <glyph glyph-name="uni04AA" unicode="&#x4aa;" horiz-adv-x="775" 
d="M405 27q112 0 187 49.5t111 134.5h47q-37 -98 -123.5 -159.5t-211.5 -65.5l-6 -56q16 23 56 23q33 0 51.5 -23t14.5 -59q-4 -38 -29 -61.5t-65 -23.5q-34 0 -53.5 19t-17.5 48h29q-1 -18 11 -29.5t34 -11.5q26 0 42 15t19 43q3 26 -9 42t-38 16q-33 0 -54 -28h-24l10 86
q-156 5 -239 109.5t-67 254.5q16 153 125 258.5t271 105.5q132 0 209 -61.5t94 -163.5h-47q-18 85 -82.5 134.5t-176.5 49.5q-144 0 -239 -93t-109 -230q-15 -137 60.5 -230t219.5 -93z" />
    <glyph glyph-name="uni04AB" unicode="&#x4ab;" horiz-adv-x="512" 
d="M268 27q66 0 112 31.5t62 88.5h43q-16 -69 -71.5 -112t-135.5 -47l-6 -58q16 23 56 23q33 0 51.5 -23t14.5 -59q-4 -38 -29 -61.5t-65 -23.5q-34 0 -53.5 19t-17.5 48h29q-1 -18 11 -29.5t34 -11.5q26 0 42 15t19 43q3 26 -9 42t-38 16q-33 0 -54 -28h-24l10 88
q-94 6 -143.5 71t-38.5 166q11 105 78.5 170t168.5 65q85 0 135.5 -43t52.5 -115h-43q-4 57 -44 88t-106 31q-82 0 -136.5 -54t-63.5 -142q-10 -89 33.5 -143.5t125.5 -54.5z" />
    <glyph glyph-name="uni04AC" unicode="&#x4ac;" horiz-adv-x="500" 
d="M560 658h-220l-65 -617h29l-17 -161h-42l13 120h-30l69 658h-219l5 42h482z" />
    <glyph glyph-name="uni04AD" unicode="&#x4ad;" horiz-adv-x="421" 
d="M430 410h-156l-39 -369h29l-17 -161h-42l13 120h-29l43 410h-155l4 40h353z" />
    <glyph glyph-name="uni04AE" unicode="&#x4ae;" horiz-adv-x="549" 
d="M252 0l29 277l-208 423h51l185 -379l265 379h51l-299 -423l-29 -277h-45z" />
    <glyph glyph-name="uni04AF" unicode="&#x4af;" horiz-adv-x="463" 
d="M503 450l-249 -443l-24 -225h-42l23 222l-156 446h45l138 -394l219 394h46z" />
    <glyph glyph-name="uni04B0" unicode="&#x4b0;" horiz-adv-x="549" 
d="M326 277l-7 -63h127l-3 -36h-127l-19 -178h-45l19 178h-127l3 36h127l7 63l-208 423h51l185 -379l265 379h51z" />
    <glyph glyph-name="uni04B1" unicode="&#x4b1;" horiz-adv-x="463" 
d="M254 7l-5 -41h148l-3 -37h-148l-16 -147h-42l16 147h-147l3 37h147l4 38l-156 446h45l138 -394l219 394h46z" />
    <glyph glyph-name="uni04B2" unicode="&#x4b2;" horiz-adv-x="619" 
d="M526 41h33l-17 -161h-42l13 120h-13l-177 313l-243 -313h-50l272 350l-198 350h50l177 -314l243 314h50l-273 -350z" />
    <glyph glyph-name="uni04B3" unicode="&#x4b3;" horiz-adv-x="511" 
d="M417 41h37l-17 -161h-42l13 120h-15l-130 194l-170 -194h-51l200 225l-152 225h51l129 -193l169 193h52l-199 -225z" />
    <glyph glyph-name="uni04B4" unicode="&#x4b4;" horiz-adv-x="745" 
d="M658 41h28l-17 -161h-42l13 120h-435l69 658h-196l5 42h437l-5 -42h-197l-65 -617h361l70 659h44z" />
    <glyph glyph-name="uni04B5" unicode="&#x4b5;" horiz-adv-x="669" 
d="M583 41h29l-17 -161h-42l13 120h-382l43 410h-150l4 40h344l-4 -40h-152l-39 -372h311l43 412h42z" />
    <glyph glyph-name="uni04B6" unicode="&#x4b6;" horiz-adv-x="578" 
d="M486 41h32l-17 -161h-42l13 120h-34l31 294q-71 -48 -176 -48q-212 0 -189 223l25 231h44l-24 -222q-9 -93 27 -142t130 -49q100 0 167 49l39 364h44z" />
    <glyph glyph-name="uni04B7" unicode="&#x4b7;" horiz-adv-x="489" 
d="M392 41h40l-17 -161h-42l13 120h-40l20 188q-61 -33 -145 -33q-87 0 -126.5 38t-30.5 121l14 136h42l-14 -132q-7 -65 24.5 -95t101.5 -30q86 0 138 33l23 224h42z" />
    <glyph glyph-name="uni04B8" unicode="&#x4b8;" horiz-adv-x="572" 
d="M512 700h44l-74 -700h-44l31 294q-65 -43 -150 -47l-13 -124h-33l13 123q-205 4 -182 223l25 231h44l-24 -222q-9 -89 23.5 -138t117.5 -53l14 135h33l-14 -135q87 4 150 49z" />
    <glyph glyph-name="uni04B9" unicode="&#x4b9;" horiz-adv-x="473" 
d="M393 450h42l-47 -450h-42l20 188q-39 -22 -108 -31l-11 -103h-26l10 101h-10q-87 0 -126.5 38t-30.5 121l14 136h42l-14 -132q-7 -65 24.5 -95t101.5 -30h3l12 114h26l-12 -113q72 8 109 32z" />
    <glyph glyph-name="uni04BA" unicode="&#x4ba;" horiz-adv-x="572" 
d="M208 700l-31 -294q71 48 176 48q212 0 188 -223l-24 -231h-44l23 222q10 93 -26.5 142t-130.5 49q-99 0 -167 -49l-38 -364h-44l74 700h44z" />
    <glyph glyph-name="uni04BB" unicode="&#x4bb;" horiz-adv-x="565" 
d="M360 462q86 0 124.5 -50.5t28.5 -146.5l-28 -265h-42l26 252q18 172 -125 172q-83 0 -132 -56.5t-58 -147.5l-23 -220h-42l74 700h42l-40 -374q21 61 71 98.5t124 37.5z" />
    <glyph glyph-name="uni04BC" unicode="&#x4bc;" horiz-adv-x="907" 
d="M599 713q151 0 235 -105t67 -256l-2 -22h-651q-9 -129 61 -216t218 -87q202 0 292 184h50q-41 -100 -130.5 -162.5t-215.5 -62.5q-165 0 -248 98.5t-73 245.5h-29q-46 0 -71.5 30t-20.5 75l3 28h40l-3 -26q-3 -32 13.5 -50.5t50.5 -18.5h21q22 145 129 245t264 100z
M858 368q11 126 -62 215t-202 89q-137 0 -231.5 -87.5t-110.5 -216.5h606z" />
    <glyph glyph-name="uni04BD" unicode="&#x4bd;" horiz-adv-x="595" 
d="M195 220v-2q-9 -86 33.5 -138.5t121.5 -52.5q57 0 102 26.5t65 71.5h42q-20 -61 -79 -99t-133 -38q-98 0 -151.5 63.5t-43.5 168.5h-21q-46 0 -71.5 29t-20.5 74l3 27h38l-3 -26q-3 -32 13.5 -50t49.5 -18h17q19 94 82.5 150t153.5 56q92 0 143.5 -58.5t42.5 -148.5
l-5 -35h-379zM389 426q-73 0 -124 -46.5t-65 -123.5h338q8 75 -32.5 122.5t-116.5 47.5z" />
    <glyph glyph-name="uni04BE" unicode="&#x4be;" horiz-adv-x="907" 
d="M479 766q-20 0 -32.5 13.5t-10.5 33.5t17.5 34.5t35.5 14.5t32 -14.5t10 -34.5q-1 -20 -16.5 -33.5t-35.5 -13.5zM710 766q-20 0 -32 13.5t-11 33.5q2 20 17.5 34.5t35.5 14.5q21 0 33 -14.5t10 -34.5q-1 -20 -16.5 -33.5t-36.5 -13.5zM599 713q151 0 235 -105t67 -256
l-2 -22h-651q-9 -129 61 -216t218 -87q202 0 292 184h50q-41 -100 -130.5 -162.5t-215.5 -62.5q-165 0 -248 98.5t-73 245.5h-29q-46 0 -71.5 30t-20.5 75l3 28h40l-3 -26q-3 -32 13.5 -50.5t50.5 -18.5h21q22 145 129 245t264 100zM858 368q11 126 -62 215t-202 89
q-137 0 -231.5 -87.5t-110.5 -216.5h606z" />
    <glyph glyph-name="uni04BF" unicode="&#x4bf;" horiz-adv-x="595" 
d="M195 220v-2q-9 -86 33.5 -138.5t121.5 -52.5q57 0 102 26.5t65 71.5h42q-15 -44 -50.5 -77t-83.5 -48q-51 -17 -78.5 -46.5t-30.5 -62.5q-4 -31 12 -49.5t50 -18.5q32 0 69 15l-5 -35q-41 -15 -78 -15q-47 0 -70 25.5t-19 65.5q6 65 85 109h-13q-98 0 -151.5 63.5
t-43.5 168.5h-21q-46 0 -71.5 29t-20.5 74l3 27h38l-3 -26q-3 -32 13.5 -50t49.5 -18h17q19 94 82.5 150t153.5 56q92 0 143.5 -58.5t42.5 -148.5l-5 -35h-379zM389 426q-73 0 -124 -46.5t-65 -123.5h338q8 75 -32.5 122.5t-116.5 47.5z" />
    <glyph glyph-name="uni04C0" unicode="&#x4c0;" horiz-adv-x="224" 
d="M90 0l74 700h44l-74 -700h-44z" />
    <glyph glyph-name="uni04C1" unicode="&#x4c1;" horiz-adv-x="928" 
d="M542 738q-64 0 -106.5 27t-42.5 75h37q2 -33 34.5 -51t80.5 -18t84 18t45 51h37q-10 -48 -57.5 -75t-111.5 -27zM587 360l319 -360h-59l-322 367l-39 -367h-44l39 367l-400 -367h-59l395 360h-21q-60 0 -97 76l-73 150q-21 43 -37 58.5t-44 15.5h-40l5 41h47
q36 0 59.5 -20t45.5 -67l72 -151q34 -77 102 -77h47l33 314h44l-33 -314h47q67 0 118 77l104 151q31 46 58.5 66.5t64.5 20.5h47l-5 -41h-40q-28 0 -47 -15.5t-48 -58.5l-105 -150q-53 -76 -113 -76h-21z" />
    <glyph glyph-name="uni04C2" unicode="&#x4c2;" horiz-adv-x="715" 
d="M411 509q-65 0 -105.5 35.5t-40.5 97.5h39q0 -46 31.5 -72.5t79.5 -26.5t85 26.5t46 72.5h38q-12 -62 -60 -97.5t-113 -35.5zM678 0h-56l-219 224l-24 -224h-43l24 224l-267 -224h-56l267 225h-3q-27 0 -43.5 14t-34.5 48l-43 78q-19 36 -30 43q-12 8 -30 8h-26l4 39h37
q28 0 42.5 -14t35.5 -50l51 -93q28 -58 67 -58h30l22 210h43l-22 -210h30q41 0 79 58l71 93q19 24 29 35t26.5 20t36.5 9h37l-4 -39h-26q-8 0 -14 -1t-12 -4.5t-9.5 -5t-9.5 -8t-8 -8.5t-9.5 -12t-9.5 -12l-59 -78q-24 -34 -43.5 -48t-46.5 -14h-3z" />
    <glyph glyph-name="uni04C3" unicode="&#x4c3;" horiz-adv-x="593" 
d="M387 391q88 0 139.5 -51.5t41.5 -151.5q-10 -95 -71.5 -148.5t-165.5 -53.5q-39 0 -85 8l4 39q42 -8 78 -8q92 0 141 44.5t57 117.5q8 79 -32.5 122t-115.5 43h-183v3l-21 28l-40 -383h-44l74 700h44l-34 -316h26l1 7h57q50 17 87 72l103 151q32 47 60 67t64 20h46
l-5 -41h-40q-28 0 -47 -15.5t-48 -58.5l-104 -150q-19 -26 -41 -45h54z" />
    <glyph glyph-name="uni04C4" unicode="&#x4c4;" horiz-adv-x="469" 
d="M269 240q83 0 131 -51.5t38 -151.5q-11 -102 -71 -159t-162 -57q-24 0 -58 8l4 39q27 -7 54 -7q88 0 135 47.5t56 126.5q8 83 -28.5 126.5t-108.5 43.5h-110l-22 -205h-42l47 450h42l-22 -210h31q37 0 79 58l71 93q19 24 29 35t26.5 20t36.5 9h37l-4 -39h-26q-8 0 -14 -1
t-12 -4.5t-9.5 -5t-9.5 -8t-8 -8.5t-9.5 -12t-9.5 -12l-59 -78q-27 -36 -44 -47h12z" />
    <glyph glyph-name="uni04C5" unicode="&#x4c5;" horiz-adv-x="677" 
d="M591 41h29l-78 -161h-44l58 120h-12l69 660h-338l-44 -421q-14 -134 -58.5 -187.5t-112.5 -53.5h-36l4 42h28q56 0 88.5 44.5t43.5 155.5l49 460h424z" />
    <glyph glyph-name="uni04C6" unicode="&#x4c6;" horiz-adv-x="528" 
d="M458 41h29l-78 -161h-44l58 120h-11l43 410h-244l-24 -226q-11 -101 -44 -143t-85 -42h-28l4 40h19q78 0 92 144l28 267h328z" />
    <glyph glyph-name="uni04C7" unicode="&#x4c7;" horiz-adv-x="665" 
d="M606 700h43l-84 -795q-6 -60 -39.5 -94.5t-86.5 -34.5q-36 0 -62 13l4 42q25 -13 58 -13q35 0 56.5 25t26.5 71l12 112h1l31 302h-398l-34 -328h-44l74 700h44l-35 -332h398z" />
    <glyph glyph-name="uni04C8" unicode="&#x4c8;" horiz-adv-x="551" 
d="M471 450h42l-58 -550q-6 -58 -38 -91t-81 -33q-38 0 -61 13l4 41q23 -13 57 -13q32 0 52.5 24t25.5 67l32 298h-297l-22 -206h-42l47 450h42l-21 -206h297z" />
    <glyph glyph-name="uni04C9" unicode="&#x4c9;" horiz-adv-x="665" 
d="M579 41h29l-78 -161h-44l58 120h-12l34 328h-398l-34 -328h-44l74 700h44l-35 -332h398l35 332h43z" />
    <glyph glyph-name="uni04CA" unicode="&#x4ca;" horiz-adv-x="540" 
d="M470 41h29l-78 -161h-44l58 120h-11l22 206h-297l-22 -206h-42l47 450h42l-21 -206h297l21 206h42z" />
    <glyph glyph-name="uni04CB" unicode="&#x4cb;" horiz-adv-x="572" 
d="M556 700l-74 -700h-30l-13 -120h-44l17 161h30l27 253q-71 -48 -176 -48q-212 0 -189 223l25 231h44l-24 -222q-9 -93 27 -142t130 -49q100 0 167 49l39 364h44z" />
    <glyph glyph-name="uni04CC" unicode="&#x4cc;" horiz-adv-x="473" 
d="M435 450l-47 -450h-28l-13 -120h-44l17 161h30l16 147q-61 -33 -145 -33q-87 0 -126.5 38t-30.5 121l14 136h42l-14 -132q-7 -65 24.5 -95t101.5 -30q86 0 138 33l23 224h42z" />
    <glyph glyph-name="uni04CD" unicode="&#x4cd;" horiz-adv-x="812" 
d="M726 41h29l-78 -161h-44l58 120h-11l64 606l-319 -606h-37l-192 607l-64 -607h-42l74 700h43l205 -641l341 641h43z" />
    <glyph glyph-name="uni04CE" unicode="&#x4ce;" horiz-adv-x="667" 
d="M597 41h29l-78 -161h-44l58 120h-10l43 410l-242 -410h-27l-157 410l-43 -410h-41l47 450h66l147 -391l229 391h66z" />
    <glyph glyph-name="uni04CF" unicode="&#x4cf;" horiz-adv-x="212" 
d="M85 0l47 450h42l-47 -450h-42z" />
    <glyph glyph-name="uni04D0" unicode="&#x4d0;" horiz-adv-x="564" 
d="M360 738q-64 0 -106.5 27t-42.5 75h37q2 -33 34.5 -51t80.5 -18t84 18t45 51h37q-10 -48 -57.5 -75t-111.5 -27zM495 0l-33 144h-331l-62 -144h-46l313 700h40l165 -700h-46zM149 184h304l-104 459z" />
    <glyph glyph-name="uni04D1" unicode="&#x4d1;" horiz-adv-x="590" 
d="M329 509q-65 0 -105.5 35.5t-40.5 97.5h39q0 -46 31.5 -72.5t79.5 -26.5t85 26.5t46 72.5h38q-12 -62 -60 -97.5t-113 -35.5zM268 -12q-103 0 -157.5 67t-43.5 169q11 103 80.5 170.5t171.5 67.5q69 0 116 -35.5t63 -94.5l12 118h42l-47 -450h-42l12 116
q-28 -58 -83.5 -93t-123.5 -35zM276 27q86 0 145 57t68 140q9 84 -38 141.5t-134 57.5q-85 0 -142 -56t-66 -143q-9 -85 36.5 -141t130.5 -56z" />
    <glyph glyph-name="uni04D2" unicode="&#x4d2;" horiz-adv-x="564" 
d="M247 766q-20 0 -32.5 13.5t-10.5 33.5t17.5 34.5t35.5 14.5t32 -14.5t10 -34.5q-1 -20 -16.5 -33.5t-35.5 -13.5zM478 766q-20 0 -32 13.5t-11 33.5q2 20 17.5 34.5t35.5 14.5q21 0 33 -14.5t10 -34.5q-1 -20 -16.5 -33.5t-36.5 -13.5zM495 0l-33 144h-331l-62 -144h-46
l313 700h40l165 -700h-46zM149 184h304l-104 459z" />
    <glyph glyph-name="uni04D3" unicode="&#x4d3;" horiz-adv-x="590" 
d="M236 554q-20 0 -32 13.5t-10 33.5t17 34.5t35 14.5q21 0 33.5 -14t10.5 -35q-2 -20 -18 -33.5t-36 -13.5zM430 554q-20 0 -32 13.5t-10 33.5t17 34.5t35 14.5t33 -14.5t11 -34.5t-18 -33.5t-36 -13.5zM268 -12q-103 0 -157.5 67t-43.5 169q11 103 80.5 170.5t171.5 67.5
q69 0 116 -35.5t63 -94.5l12 118h42l-47 -450h-42l12 116q-28 -58 -83.5 -93t-123.5 -35zM276 27q86 0 145 57t68 140q9 84 -38 141.5t-134 57.5q-85 0 -142 -56t-66 -143q-9 -85 36.5 -141t130.5 -56z" />
    <glyph glyph-name="uni04D4" unicode="&#x4d4;" horiz-adv-x="796" 
d="M793 659h-292l-30 -291h292l-5 -40h-292l-30 -287h292l-4 -41h-336l15 145h-250l-88 -145h-47l430 700h350zM176 184h231l49 460z" />
    <glyph glyph-name="uni04D5" unicode="&#x4d5;" horiz-adv-x="886" 
d="M871 255q-3 -24 -6 -35h-380q-8 -88 35.5 -141t123.5 -53q56 0 100 27t64 73h42q-20 -62 -78 -100t-132 -38q-70 0 -119 34.5t-69 95.5q-67 -130 -232 -130q-78 0 -122 35t-38 92q7 70 62 104q58 36 182 36h145l4 37q6 63 -30.5 98.5t-114.5 35.5q-68 0 -114 -33t-56 -93
h-42q10 74 69.5 118t147.5 44q152 0 176 -107q69 107 198 107q89 0 141 -59t43 -148zM489 255h340q8 75 -33 123t-114 48q-76 0 -128.5 -46t-64.5 -125zM442 192l1 6q0 15 1 22h-168q-162 0 -173 -103q-4 -45 31.5 -69t105.5 -24q80 0 137 45.5t65 122.5z" />
    <glyph glyph-name="uni04D6" unicode="&#x4d6;" horiz-adv-x="548" 
d="M368 738q-64 0 -106.5 27t-42.5 75h37q2 -33 34.5 -51t80.5 -18t84 18t45 51h37q-10 -48 -57.5 -75t-111.5 -27zM90 0l74 700h385l-5 -41h-341l-30 -291h341l-5 -40h-341l-30 -287h341l-4 -41h-385z" />
    <glyph glyph-name="uni04D7" unicode="&#x4d7;" horiz-adv-x="509" 
d="M312 508q-65 0 -106 35.5t-40 97.5h39q0 -46 31.5 -72.5t79.5 -26.5t85 26.5t46 72.5h38q-12 -62 -60 -97.5t-113 -35.5zM488 220h-379v-2q-9 -86 33.5 -138.5t121.5 -52.5q57 0 102 26.5t65 71.5h42q-20 -61 -79 -99t-133 -38q-99 0 -152 65t-42 173q11 106 77 171
t163 65q92 0 143.5 -58.5t42.5 -148.5zM303 426q-73 0 -124 -46.5t-65 -123.5h338q8 75 -32.5 122.5t-116.5 47.5z" />
    <glyph glyph-name="uni04D8" unicode="&#x4d8;" horiz-adv-x="782" 
d="M382 -13q-151 0 -235 105t-67 256l2 22h651q9 129 -61 216t-218 87q-203 0 -293 -184h-50q42 100 131.5 162.5t215.5 62.5q87 0 153 -29.5t104 -80t54 -115.5t8 -138q-16 -151 -124 -257.5t-271 -106.5zM387 28q137 0 231 87.5t111 216.5h-606q-11 -126 62 -215t202 -89z
" />
    <glyph glyph-name="uni04D9" unicode="&#x4d9;" horiz-adv-x="509" 
d="M296 462q99 0 152 -65t42 -173q-11 -106 -77 -171t-163 -65q-92 0 -144 58.5t-43 148.5l5 35h379v2q9 86 -33.5 138.5t-121.5 52.5q-57 0 -102 -26.5t-65 -71.5h-42q21 61 80 99t133 38zM254 24q73 0 124 46.5t64 123.5h-338q-8 -75 33 -122.5t117 -47.5z" />
    <glyph glyph-name="uni04DA" unicode="&#x4da;" horiz-adv-x="782" 
d="M346 766q-20 0 -32.5 13.5t-10.5 33.5t17.5 34.5t35.5 14.5t32 -14.5t10 -34.5q-1 -20 -16.5 -33.5t-35.5 -13.5zM577 766q-20 0 -32 13.5t-11 33.5q2 20 17.5 34.5t35.5 14.5q21 0 33 -14.5t10 -34.5q-1 -20 -16.5 -33.5t-36.5 -13.5zM382 -13q-151 0 -235 105t-67 256
l2 22h651q9 129 -61 216t-218 87q-203 0 -293 -184h-50q42 100 131.5 162.5t215.5 62.5q87 0 153 -29.5t104 -80t54 -115.5t8 -138q-16 -151 -124 -257.5t-271 -106.5zM387 28q137 0 231 87.5t111 216.5h-606q-11 -126 62 -215t202 -89z" />
    <glyph glyph-name="uni04DB" unicode="&#x4db;" horiz-adv-x="509" 
d="M217 554q-20 0 -32 13.5t-10 33.5t17 34.5t35 14.5q21 0 33.5 -14t10.5 -35q-2 -20 -18 -33.5t-36 -13.5zM411 554q-20 0 -32 13.5t-10 33.5t17 34.5t35 14.5t33 -14.5t11 -34.5t-18 -33.5t-36 -13.5zM296 462q99 0 152 -65t42 -173q-11 -106 -77 -171t-163 -65
q-92 0 -144 58.5t-43 148.5l5 35h379v2q9 86 -33.5 138.5t-121.5 52.5q-57 0 -102 -26.5t-65 -71.5h-42q21 61 80 99t133 38zM254 24q73 0 124 46.5t64 123.5h-338q-8 -75 33 -122.5t117 -47.5z" />
    <glyph glyph-name="uni04DC" unicode="&#x4dc;" horiz-adv-x="928" 
d="M428 766q-20 0 -32.5 13.5t-10.5 33.5t17.5 34.5t35.5 14.5t32 -14.5t10 -34.5q-1 -20 -16.5 -33.5t-35.5 -13.5zM659 766q-20 0 -32 13.5t-11 33.5q2 20 17.5 34.5t35.5 14.5q21 0 33 -14.5t10 -34.5q-1 -20 -16.5 -33.5t-36.5 -13.5zM587 360l319 -360h-59l-322 367
l-39 -367h-44l39 367l-400 -367h-59l395 360h-21q-60 0 -97 76l-73 150q-21 43 -37 58.5t-44 15.5h-40l5 41h47q36 0 59.5 -20t45.5 -67l72 -151q34 -77 102 -77h47l33 314h44l-33 -314h47q67 0 118 77l104 151q31 46 58.5 66.5t64.5 20.5h47l-5 -41h-40q-28 0 -47 -15.5
t-48 -58.5l-105 -150q-53 -76 -113 -76h-21z" />
    <glyph glyph-name="uni04DD" unicode="&#x4dd;" horiz-adv-x="715" 
d="M318 554q-20 0 -32 13.5t-10 33.5t17 34.5t35 14.5q21 0 33.5 -14t10.5 -35q-2 -20 -18 -33.5t-36 -13.5zM512 554q-20 0 -32 13.5t-10 33.5t17 34.5t35 14.5t33 -14.5t11 -34.5t-18 -33.5t-36 -13.5zM678 0h-56l-219 224l-24 -224h-43l24 224l-267 -224h-56l267 225h-3
q-27 0 -43.5 14t-34.5 48l-43 78q-19 36 -30 43q-12 8 -30 8h-26l4 39h37q28 0 42.5 -14t35.5 -50l51 -93q28 -58 67 -58h30l22 210h43l-22 -210h30q41 0 79 58l71 93q19 24 29 35t26.5 20t36.5 9h37l-4 -39h-26q-8 0 -14 -1t-12 -4.5t-9.5 -5t-9.5 -8t-8 -8.5t-9.5 -12
t-9.5 -12l-59 -78q-24 -34 -43.5 -48t-46.5 -14h-3z" />
    <glyph glyph-name="uni04DE" unicode="&#x4de;" horiz-adv-x="547" 
d="M235 766q-20 0 -32.5 13.5t-10.5 33.5t17.5 34.5t35.5 14.5t32 -14.5t10 -34.5q-1 -20 -16.5 -33.5t-35.5 -13.5zM466 766q-20 0 -32 13.5t-11 33.5q2 20 17.5 34.5t35.5 14.5q21 0 33 -14.5t10 -34.5q-1 -20 -16.5 -33.5t-36.5 -13.5zM111 192q-8 -75 37.5 -120
t128.5 -45t136.5 44t61.5 115q7 72 -35 114t-125 42h-57l4 40h57q78 0 126 40.5t54 104.5q7 65 -34 105.5t-118 40.5q-81 0 -135.5 -42.5t-61.5 -111.5h-43q9 87 76 141t167 54q96 0 149.5 -50t44.5 -135q-7 -64 -49 -109t-109 -56q68 -10 103.5 -58.5t28.5 -118.5
q-10 -91 -76.5 -146t-168.5 -55t-158.5 56.5t-46.5 149.5h43z" />
    <glyph glyph-name="uni04DF" unicode="&#x4df;" horiz-adv-x="472" 
d="M200 554q-20 0 -32 13.5t-10 33.5t17 34.5t35 14.5q21 0 33.5 -14t10.5 -35q-2 -20 -18 -33.5t-36 -13.5zM394 554q-20 0 -32 13.5t-10 33.5t17 34.5t35 14.5t33 -14.5t11 -34.5t-18 -33.5t-36 -13.5zM112 121q-5 -43 29.5 -68.5t98.5 -25.5q62 0 100.5 25t42.5 68
q4 41 -23.5 66t-78.5 25h-70l4 34h69q47 0 77.5 26t34.5 66q5 39 -25 63.5t-85 24.5q-62 0 -99.5 -24.5t-42.5 -65.5h-44q6 56 58 91t130 35q74 0 116 -33.5t37 -86.5q-5 -43 -33.5 -73.5t-73.5 -37.5q46 -4 71 -35.5t20 -77.5q-6 -57 -59 -92t-132 -35q-82 0 -128 36
t-39 95h45z" />
    <glyph glyph-name="uni04E0" unicode="&#x4e0;" horiz-adv-x="544" 
d="M273 -13q-102 0 -158.5 56.5t-46.5 150.5h43q-7 -75 39 -120.5t127 -45.5q83 0 137 46.5t62 121.5q8 77 -34.5 122.5t-125.5 45.5h-68l247 296h-346l5 40h422l-254 -301q100 2 153.5 -52t43.5 -149q-10 -94 -78 -152.5t-168 -58.5z" />
    <glyph glyph-name="uni04E1" unicode="&#x4e1;" horiz-adv-x="467" 
d="M177 -230q-93 0 -142.5 51t-39.5 137h42q-7 -68 32.5 -108.5t113.5 -40.5q81 0 130.5 49t57.5 130q9 86 -36 133.5t-150 47.5h-34l236 243h-318l4 38h394l-242 -250q106 -1 152 -57t36 -154q-11 -101 -72.5 -160t-163.5 -59z" />
    <glyph glyph-name="uni04E2" unicode="&#x4e2;" horiz-adv-x="664" 
d="M245 755l4 37h338l-4 -37h-338zM593 590l-454 -546l-5 -44h-44l74 700h44l-62 -589l454 545l5 44h43l-74 -700h-43z" />
    <glyph glyph-name="uni04E3" unicode="&#x4e3;" horiz-adv-x="552" 
d="M175 544l4 36h317l-4 -36h-317zM463 366l-333 -335l-3 -31h-42l47 450h42l-38 -367l333 335l3 32h42l-47 -450h-42z" />
    <glyph glyph-name="uni04E4" unicode="&#x4e4;" horiz-adv-x="664" 
d="M297 746q-20 0 -32 13.5t-10 33.5t17 34.5t35 14.5t32.5 -14.5t10.5 -34.5q-1 -20 -16.5 -33.5t-36.5 -13.5zM528 746q-20 0 -31.5 13.5t-10.5 33.5q2 20 17.5 34.5t34.5 14.5q21 0 33.5 -14.5t10.5 -34.5q-1 -20 -17 -33.5t-37 -13.5zM593 590l-454 -546l-5 -44h-44
l74 700h44l-62 -589l454 545l5 44h43l-74 -700h-43z" />
    <glyph glyph-name="uni04E5" unicode="&#x4e5;" horiz-adv-x="552" 
d="M236 544q-20 0 -32 13.5t-10 33.5t17 34.5t35 14.5q21 0 33.5 -14t10.5 -35q-2 -20 -18 -33.5t-36 -13.5zM430 544q-20 0 -32 13.5t-10 33.5t17 34.5t35 14.5t33 -14.5t11 -34.5t-18 -33.5t-36 -13.5zM463 366l-333 -335l-3 -31h-42l47 450h42l-38 -367l333 335l3 32h42
l-47 -450h-42z" />
    <glyph glyph-name="uni04E6" unicode="&#x4e6;" horiz-adv-x="803" 
d="M366 766q-20 0 -32.5 13.5t-10.5 33.5t17.5 34.5t35.5 14.5t32 -14.5t10 -34.5q-1 -20 -16.5 -33.5t-35.5 -13.5zM597 766q-20 0 -32 13.5t-11 33.5q2 20 17.5 34.5t35.5 14.5q21 0 33 -14.5t10 -34.5q-1 -20 -16.5 -33.5t-36.5 -13.5zM401 -14q-108 0 -186 51.5
t-111.5 133.5t-23.5 179q16 150 125.5 257t271.5 107q108 0 186 -51.5t111.5 -133.5t23.5 -179q-16 -150 -125.5 -257t-271.5 -107zM405 27q142 0 238 95t109 228q15 133 -61 228t-218 95q-143 0 -239 -95t-109 -228q-15 -133 61 -228t219 -95z" />
    <glyph glyph-name="uni04E7" unicode="&#x4e7;" horiz-adv-x="542" 
d="M231 553q-20 0 -32 13.5t-10 33.5t17 34.5t35 14.5q21 0 33.5 -14t10.5 -35q-2 -20 -18 -33.5t-36 -13.5zM425 553q-20 0 -32 13.5t-10 33.5t17 34.5t35 14.5t33 -14.5t11 -34.5t-18 -33.5t-36 -13.5zM270 -12q-102 0 -158 68.5t-45 168.5q10 101 80 169t173 68
t158.5 -68t45.5 -169q-11 -100 -81 -168.5t-173 -68.5zM274 28q84 0 141.5 57t66.5 140q8 84 -37.5 140.5t-129.5 56.5t-141 -56.5t-65 -140.5q-9 -83 36 -140t129 -57z" />
    <glyph glyph-name="uni04E8" unicode="&#x4e8;" horiz-adv-x="803" 
d="M477 714q108 0 186 -51.5t111.5 -133.5t23.5 -179q-16 -150 -125.5 -257t-271.5 -107q-108 0 -186 51.5t-111.5 133.5t-23.5 179q16 150 125.5 257t271.5 107zM473 673q-138 0 -232.5 -89t-113.5 -217h627q8 128 -68 217t-213 89zM405 27q138 0 232.5 89.5t112.5 217.5
h-627q-9 -128 67 -217.5t215 -89.5z" />
    <glyph glyph-name="uni04E9" unicode="&#x4e9;" horiz-adv-x="542" 
d="M320 462q103 0 158.5 -68t45.5 -169q-11 -100 -81 -168.5t-173 -68.5q-102 0 -158 68.5t-45 168.5q10 101 80 169t173 68zM315 422q-80 0 -135.5 -51.5t-68.5 -129.5h371q4 78 -41.5 129.5t-125.5 51.5zM274 28q79 0 135 51.5t70 128.5h-371q-3 -77 41.5 -128.5
t124.5 -51.5z" />
    <glyph glyph-name="uni04EA" unicode="&#x4ea;" horiz-adv-x="803" 
d="M366 766q-20 0 -32.5 13.5t-10.5 33.5t17.5 34.5t35.5 14.5t32 -14.5t10 -34.5q-1 -20 -16.5 -33.5t-35.5 -13.5zM597 766q-20 0 -32 13.5t-11 33.5q2 20 17.5 34.5t35.5 14.5q21 0 33 -14.5t10 -34.5q-1 -20 -16.5 -33.5t-36.5 -13.5zM477 714q108 0 186 -51.5
t111.5 -133.5t23.5 -179q-16 -150 -125.5 -257t-271.5 -107q-108 0 -186 51.5t-111.5 133.5t-23.5 179q16 150 125.5 257t271.5 107zM473 673q-138 0 -232.5 -89t-113.5 -217h627q8 128 -68 217t-213 89zM405 27q138 0 232.5 89.5t112.5 217.5h-627q-9 -128 67 -217.5
t215 -89.5z" />
    <glyph glyph-name="uni04EB" unicode="&#x4eb;" horiz-adv-x="542" 
d="M231 554q-20 0 -32 13.5t-10 33.5t17 34.5t35 14.5q21 0 33.5 -14t10.5 -35q-2 -20 -18 -33.5t-36 -13.5zM425 554q-20 0 -32 13.5t-10 33.5t17 34.5t35 14.5t33 -14.5t11 -34.5t-18 -33.5t-36 -13.5zM320 462q103 0 158.5 -68t45.5 -169q-11 -100 -81 -168.5t-173 -68.5
q-102 0 -158 68.5t-45 168.5q10 101 80 169t173 68zM315 422q-80 0 -135.5 -51.5t-68.5 -129.5h371q4 78 -41.5 129.5t-125.5 51.5zM274 28q79 0 135 51.5t70 128.5h-371q-3 -77 41.5 -128.5t124.5 -51.5z" />
    <glyph glyph-name="uni04EC" unicode="&#x4ec;" horiz-adv-x="764" 
d="M335 766q-20 0 -32.5 13.5t-10.5 33.5t17.5 34.5t35.5 14.5t32 -14.5t10 -34.5q-1 -20 -16.5 -33.5t-35.5 -13.5zM566 766q-20 0 -32 13.5t-11 33.5q2 20 17.5 34.5t35.5 14.5q21 0 33 -14.5t10 -34.5q-1 -20 -16.5 -33.5t-36.5 -13.5zM442 714q154 0 243 -102.5
t73 -261.5t-127 -261.5t-265 -102.5q-120 0 -200 59.5t-98 161.5h47q17 -84 85 -132t170 -48q130 0 224.5 84t115.5 219h-407l4 40h407q8 135 -69 219t-207 84q-102 0 -180 -48t-113 -131h-47q40 102 132.5 161t211.5 59z" />
    <glyph glyph-name="uni04ED" unicode="&#x4ed;" horiz-adv-x="521" 
d="M215 554q-20 0 -32 13.5t-10 33.5t17 34.5t35 14.5q21 0 33.5 -14t10.5 -35q-2 -20 -18 -33.5t-36 -13.5zM409 554q-20 0 -32 13.5t-10 33.5t17 34.5t35 14.5t33 -14.5t11 -34.5t-18 -33.5t-36 -13.5zM118 285h-42q13 75 71.5 126t155.5 51q108 0 159 -68.5t40 -167.5
q-10 -99 -76.5 -168.5t-172.5 -69.5q-94 0 -144 46.5t-51 119.5h44q4 -57 42.5 -92t113.5 -35q82 0 134 51.5t64 130.5h-220l4 35h220q4 77 -36 128t-125 51q-78 0 -123 -39.5t-58 -98.5z" />
    <glyph glyph-name="uni04EE" unicode="&#x4ee;" horiz-adv-x="532" 
d="M534 812l-4 -37h-338l4 37h338zM564 700h47l-436 -700h-48l172 275l-225 425h51l202 -380z" />
    <glyph glyph-name="uni04EF" unicode="&#x4ef;" horiz-adv-x="568" 
d="M181 553l4 36h317l-4 -36h-317zM487 450h42l-49 -472q-12 -113 -83 -166q-58 -42 -141 -42q-95 0 -144 46q-46 42 -39 115h42q-4 -54 30 -88.5t115 -34.5q160 0 178 172l15 139q-25 -56 -75 -92.5t-118 -36.5q-95 0 -132.5 52t-27.5 153l27 255h41l-26 -248
q-9 -86 20.5 -129.5t112.5 -43.5q80 0 130 59t58 133z" />
    <glyph glyph-name="uni04F0" unicode="&#x4f0;" horiz-adv-x="532" 
d="M245 766q-20 0 -32.5 13.5t-10.5 33.5t17.5 34.5t35.5 14.5t32 -14.5t10 -34.5q-1 -20 -16.5 -33.5t-35.5 -13.5zM476 766q-20 0 -32 13.5t-11 33.5q2 20 17.5 34.5t35.5 14.5q21 0 33 -14.5t10 -34.5q-1 -20 -16.5 -33.5t-36.5 -13.5zM564 700h47l-436 -700h-48l172 275
l-225 425h51l202 -380z" />
    <glyph glyph-name="uni04F1" unicode="&#x4f1;" horiz-adv-x="568" 
d="M242 553q-20 0 -32 13.5t-10 33.5t17 34.5t35 14.5q21 0 33.5 -14t10.5 -35q-2 -20 -18 -33.5t-36 -13.5zM436 553q-20 0 -32 13.5t-10 33.5t17 34.5t35 14.5t33 -14.5t11 -34.5t-18 -33.5t-36 -13.5zM487 450h42l-49 -472q-12 -113 -83 -166q-58 -42 -141 -42
q-95 0 -144 46q-46 42 -39 115h42q-4 -54 30 -88.5t115 -34.5q160 0 178 172l15 139q-25 -56 -75 -92.5t-118 -36.5q-95 0 -132.5 52t-27.5 153l27 255h41l-26 -248q-9 -86 20.5 -129.5t112.5 -43.5q80 0 130 59t58 133z" />
    <glyph glyph-name="uni04F2" unicode="&#x4f2;" horiz-adv-x="532" 
d="M414 865l-156 -128l-26 12l146 132zM603 864l-156 -128l-26 13l147 132zM564 700h47l-436 -700h-48l172 275l-225 425h51l202 -380z" />
    <glyph glyph-name="uni04F3" unicode="&#x4f3;" horiz-adv-x="568" 
d="M239 507l-25 14l142 166l36 -19zM419 507l-25 14l142 166l36 -19zM487 450h42l-49 -472q-12 -113 -83 -166q-58 -42 -141 -42q-95 0 -144 46q-46 42 -39 115h42q-4 -54 30 -88.5t115 -34.5q160 0 178 172l15 139q-25 -56 -75 -92.5t-118 -36.5q-95 0 -132.5 52t-27.5 153
l27 255h41l-26 -248q-9 -86 20.5 -129.5t112.5 -43.5q80 0 130 59t58 133z" />
    <glyph glyph-name="uni04F4" unicode="&#x4f4;" horiz-adv-x="572" 
d="M237 766q-20 0 -32.5 13.5t-10.5 33.5t17.5 34.5t35.5 14.5t32 -14.5t10 -34.5q-1 -20 -16.5 -33.5t-35.5 -13.5zM468 766q-20 0 -32 13.5t-11 33.5q2 20 17.5 34.5t35.5 14.5q21 0 33 -14.5t10 -34.5q-1 -20 -16.5 -33.5t-36.5 -13.5zM438 0l31 294q-71 -48 -176 -48
q-212 0 -189 223l25 231h44l-24 -222q-9 -93 27 -142t130 -49q100 0 167 49l39 364h44l-74 -700h-44z" />
    <glyph glyph-name="uni04F5" unicode="&#x4f5;" horiz-adv-x="473" 
d="M170 554q-20 0 -32 13.5t-10 33.5t17 34.5t35 14.5q21 0 33.5 -14t10.5 -35q-2 -20 -18 -33.5t-36 -13.5zM364 554q-20 0 -32 13.5t-10 33.5t17 34.5t35 14.5t33 -14.5t11 -34.5t-18 -33.5t-36 -13.5zM346 0l20 188q-61 -33 -145 -33q-87 0 -126.5 38t-30.5 121l14 136
h42l-14 -132q-7 -65 24.5 -95t101.5 -30q86 0 138 33l23 224h42l-47 -450h-42z" />
    <glyph glyph-name="uni04F6" unicode="&#x4f6;" horiz-adv-x="469" 
d="M529 658h-326l-65 -617h28l-17 -161h-42l13 120h-30l74 700h370z" />
    <glyph glyph-name="uni04F7" unicode="&#x4f7;" horiz-adv-x="371" 
d="M391 410h-221l-39 -369h29l-17 -161h-42l13 120h-29l47 450h263z" />
    <glyph glyph-name="uni04F8" unicode="&#x4f8;" horiz-adv-x="747" 
d="M346 766q-20 0 -32.5 13.5t-10.5 33.5t17.5 34.5t35.5 14.5t32 -14.5t10 -34.5q-1 -20 -16.5 -33.5t-35.5 -13.5zM577 766q-20 0 -32 13.5t-11 33.5q2 20 17.5 34.5t35.5 14.5q21 0 33 -14.5t10 -34.5q-1 -20 -16.5 -33.5t-36.5 -13.5zM90 0l74 700h44l-33 -314h206
q76 0 123 -56t38 -137q-8 -80 -68 -136.5t-139 -56.5h-245zM613 0l74 700h44l-74 -700h-44zM138 40h201q60 0 106 45t53 108t-29 108t-93 45h-206z" />
    <glyph glyph-name="uni04F9" unicode="&#x4f9;" horiz-adv-x="615" 
d="M266 554q-20 0 -32 13.5t-10 33.5t17 34.5t35 14.5q21 0 33.5 -14t10.5 -35q-2 -20 -18 -33.5t-36 -13.5zM460 554q-20 0 -32 13.5t-10 33.5t17 34.5t35 14.5t33 -14.5t11 -34.5t-18 -33.5t-36 -13.5zM132 450h42l-19 -182h146q58 0 92 -38.5t28 -95.5q-6 -56 -49.5 -95
t-102.5 -39h-184zM488 0l47 450h42l-47 -450h-42zM151 232l-20 -196h141q41 0 71.5 29t34.5 69q5 40 -19 69t-64 29h-144z" />
    <glyph glyph-name="uni04FC" unicode="&#x4fc;" horiz-adv-x="580" 
d="M405 -223q-33 0 -58 13l4 42q29 -13 54 -13q78 0 88 97q5 46 -10 92.5t-57 119.5l-103 185l-243 -313h-50l272 350l-198 350h50l177 -314l243 314h50l-273 -350l113 -199q46 -81 62 -134t11 -105q-15 -135 -132 -135z" />
    <glyph glyph-name="uni04FD" unicode="&#x4fd;" horiz-adv-x="456" 
d="M293 -224q-33 0 -56 13l4 38q27 -13 51 -13q75 0 85 92q4 42 -13 87.5t-55 106.5l-62 94l-170 -194h-51l200 225l-152 225h51l129 -193l169 193h52l-199 -225l69 -106q46 -70 61.5 -119.5t10.5 -99.5q-5 -58 -37 -91t-87 -33z" />
    <glyph glyph-name="uni0510" unicode="&#x510;" horiz-adv-x="547" 
d="M476 192h43q-10 -93 -77.5 -149.5t-169.5 -56.5t-157.5 55.5t-45.5 145.5q7 70 52.5 118.5t115.5 58.5q-64 11 -96.5 56.5t-25.5 108.5q9 85 73 135t159 50q100 0 156 -54t47 -141h-43q7 70 -38.5 112t-126.5 42q-77 0 -127 -40.5t-57 -105.5q-6 -64 33.5 -104.5
t116.5 -40.5h57l-4 -40h-57q-83 0 -134 -42.5t-58 -113.5q-8 -71 36.5 -115t127.5 -44t138 45t62 120z" />
    <glyph glyph-name="uni0511" unicode="&#x511;" horiz-adv-x="472" 
d="M386 121h45q-7 -59 -60 -95t-135 -36q-79 0 -125 35t-40 92q5 46 37 77.5t78 35.5q-43 7 -65.5 37.5t-17.5 73.5q5 53 54 86.5t123 33.5q78 0 123 -35t39 -91h-44q5 41 -27.5 65.5t-94.5 24.5q-55 0 -90 -24.5t-40 -63.5q-4 -40 21.5 -66t72.5 -26h69l-4 -34h-70
q-51 0 -83.5 -25t-36.5 -66q-4 -43 28.5 -68t94.5 -25q64 0 103.5 25.5t44.5 68.5z" />
    <glyph glyph-name="uni0512" unicode="&#x512;" horiz-adv-x="677" 
d="M237 700h424l-84 -795q-6 -60 -39.5 -94.5t-86.5 -34.5q-36 0 -62 13l4 42q25 -13 58 -13q35 0 56.5 25t26.5 71l12 112h1l66 634h-338l-44 -421q-14 -134 -58.5 -187.5t-112.5 -53.5h-36l4 42h28q56 0 88.5 44.5t43.5 155.5z" />
    <glyph glyph-name="uni0513" unicode="&#x513;" horiz-adv-x="539" 
d="M173 450h328l-58 -550q-6 -58 -37.5 -91t-80.5 -33q-39 0 -62 13l4 41q25 -13 57 -13t52.5 24t25.5 67l53 502h-244l-24 -226q-11 -101 -44 -143t-85 -42h-28l4 40h19q78 0 92 144z" />
    <glyph glyph-name="uni051C" unicode="&#x51c;" horiz-adv-x="928" 
d="M242 0l-160 700h45l141 -632l252 632h36l118 -632l275 632h45l-308 -700h-36l-120 628l-252 -628h-36z" />
    <glyph glyph-name="uni051D" unicode="&#x51d;" horiz-adv-x="707" 
d="M179 0l-119 450h45l97 -393l176 393h45l92 -393l181 393h45l-213 -450h-38l-95 397l-179 -397h-37z" />
    <glyph glyph-name="uni0524" unicode="&#x524;" horiz-adv-x="659" 
d="M573 41h28l-17 -161h-42l13 120h-30l69 659h-391l-69 -659h-44l74 700h479z" />
    <glyph glyph-name="uni0525" unicode="&#x525;" horiz-adv-x="566" 
d="M480 41h28l-17 -161h-42l13 120h-28l43 413h-307l-43 -413h-42l47 450h391z" />
    <glyph glyph-name="uni0526" unicode="&#x526;" horiz-adv-x="608" 
d="M521 41h27l-17 -161h-42l13 120h-29l23 222q10 93 -26.5 142t-130.5 49q-99 0 -167 -49l-38 -364h-44l74 700h44l-31 -294q71 48 176 48q212 0 188 -223z" />
    <glyph glyph-name="uni0527" unicode="&#x527;" horiz-adv-x="574" 
d="M489 41h28l-17 -161h-42l13 120h-28l26 252q18 172 -125 172q-83 0 -132 -56.5t-58 -147.5l-23 -220h-42l74 700h42l-40 -374q21 61 71 98.5t124 37.5q86 0 124.5 -50.5t28.5 -146.5z" />
    <glyph glyph-name="uni0E3F" unicode="&#xe3f;" horiz-adv-x="577" 
d="M422 343q58 -10 92 -54t27 -111q-9 -83 -70 -130.5t-155 -47.5h-16l-10 -98h-35l10 98h-175l72 682h175l10 98h35l-10 -98h13q93 0 143.5 -47t41.5 -129q-7 -68 -47.5 -111t-100.5 -52zM379 642h-178l-29 -280h197q61 0 105.5 38.5t51.5 101.5q7 66 -33 103t-114 37z
M319 39q75 0 123 38t55 105q7 63 -30 102t-98 39h-201l-30 -284h181z" />
    <glyph glyph-name="Wgrave" unicode="&#x1e80;" horiz-adv-x="928" 
d="M650 730l-226 126l20 32l226 -126zM242 0l-160 700h45l141 -632l252 632h36l118 -632l275 632h45l-308 -700h-36l-120 628l-252 -628h-36z" />
    <glyph glyph-name="wgrave" unicode="&#x1e81;" horiz-adv-x="707" 
d="M443 513l-143 140l28 27l144 -141zM179 0l-119 450h45l97 -393l176 393h45l92 -393l181 393h45l-213 -450h-38l-95 397l-179 -397h-37z" />
    <glyph glyph-name="Wacute" unicode="&#x1e82;" horiz-adv-x="928" 
d="M431 730l-14 32l252 126l14 -32zM242 0l-160 700h45l141 -632l252 632h36l118 -632l275 632h45l-308 -700h-36l-120 628l-252 -628h-36z" />
    <glyph glyph-name="wacute" unicode="&#x1e83;" horiz-adv-x="707" 
d="M359 513l-23 26l172 141l24 -27zM179 0l-119 450h45l97 -393l176 393h45l92 -393l181 393h45l-213 -450h-38l-95 397l-179 -397h-37z" />
    <glyph glyph-name="Wdieresis" unicode="&#x1e84;" horiz-adv-x="928" 
d="M429 766q-20 0 -32.5 13.5t-10.5 33.5t17.5 34.5t35.5 14.5t32 -14.5t10 -34.5q-1 -20 -16.5 -33.5t-35.5 -13.5zM660 766q-20 0 -32 13.5t-11 33.5q2 20 17.5 34.5t35.5 14.5q21 0 33 -14.5t10 -34.5q-1 -20 -16.5 -33.5t-36.5 -13.5zM242 0l-160 700h45l141 -632
l252 632h36l118 -632l275 632h45l-308 -700h-36l-120 628l-252 -628h-36z" />
    <glyph glyph-name="wdieresis" unicode="&#x1e85;" horiz-adv-x="707" 
d="M314 554q-20 0 -32 13.5t-10 33.5t17 34.5t35 14.5q21 0 33.5 -14t10.5 -35q-2 -20 -18 -33.5t-36 -13.5zM508 554q-20 0 -32 13.5t-10 33.5t17 34.5t35 14.5t33 -14.5t11 -34.5t-18 -33.5t-36 -13.5zM179 0l-119 450h45l97 -393l176 393h45l92 -393l181 393h45
l-213 -450h-38l-95 397l-179 -397h-37z" />
    <glyph glyph-name="Ygrave" unicode="&#x1ef2;" horiz-adv-x="532" 
d="M486 762l-20 -32l-226 126l20 32zM564 700h47l-436 -700h-48l172 275l-225 425h51l202 -380z" />
    <glyph glyph-name="ygrave" unicode="&#x1ef3;" horiz-adv-x="568" 
d="M371 512l-143 140l28 27l144 -141zM487 450h42l-49 -472q-12 -113 -83 -166q-58 -42 -141 -42q-95 0 -144 46q-46 42 -39 115h42q-4 -54 30 -88.5t115 -34.5q160 0 178 172l15 139q-25 -56 -75 -92.5t-118 -36.5q-95 0 -132.5 52t-27.5 153l27 255h41l-26 -248
q-9 -86 20.5 -129.5t112.5 -43.5q80 0 130 59t58 133z" />
    <glyph glyph-name="uni2002" unicode="&#x2002;" horiz-adv-x="500" 
 />
    <glyph glyph-name="uni2003" unicode="&#x2003;" horiz-adv-x="1000" 
 />
    <glyph glyph-name="uni2004" unicode="&#x2004;" horiz-adv-x="0" 
 />
    <glyph glyph-name="uni2005" unicode="&#x2005;" horiz-adv-x="250" 
 />
    <glyph glyph-name="uni2009" unicode="&#x2009;" horiz-adv-x="135" 
 />
    <glyph glyph-name="uni200A" unicode="&#x200a;" horiz-adv-x="75" 
 />
    <glyph glyph-name="endash" unicode="&#x2013;" horiz-adv-x="577" 
d="M83 242l4 36h461l-4 -36h-461z" />
    <glyph glyph-name="emdash" unicode="&#x2014;" horiz-adv-x="759" 
d="M84 249l4 37h644l-4 -37h-644z" />
    <glyph glyph-name="quoteleft" unicode="&#x2018;" horiz-adv-x="261" 
d="M205 531q-31 0 -49.5 27.5t-14.5 71.5q5 49 34.5 78t71.5 29q17 0 24 -2l-3 -27q-14 2 -20 2q-24 0 -41.5 -14.5t-22.5 -38.5q-7 -25 1 -43q10 13 33 13q20 0 31.5 -13t9.5 -34t-17 -35t-37 -14z" />
    <glyph glyph-name="quoteright" unicode="&#x2019;" horiz-adv-x="261" 
d="M187 718q31 0 49.5 -27.5t14.5 -71.5q-5 -49 -34.5 -78t-71.5 -29q-17 0 -24 2l3 27q16 -2 21 -2q24 0 41 14.5t22 38.5q6 22 0 43q-12 -13 -34 -13q-20 0 -31.5 13t-9.5 34t17 35t37 14z" />
    <glyph glyph-name="quotesinglbase" unicode="&#x201a;" horiz-adv-x="261" 
d="M122 91q31 0 49 -27.5t14 -71.5q-5 -49 -34.5 -78t-71.5 -29q-17 0 -24 2l3 27q16 -2 21 -2q24 0 41 14.5t22 38.5q6 22 0 43q-12 -13 -34 -13q-20 0 -31.5 13t-9.5 34t17.5 35t37.5 14z" />
    <glyph glyph-name="quotedblleft" unicode="&#x201c;" horiz-adv-x="413" 
d="M205 531q-31 0 -49.5 27.5t-14.5 71.5q5 49 34.5 78t71.5 29q17 0 24 -2l-3 -27q-14 2 -20 2q-24 0 -41.5 -14.5t-22.5 -38.5q-7 -25 1 -43q10 13 33 13q20 0 31.5 -13t9.5 -34t-17 -35t-37 -14zM357 531q-31 0 -49.5 27.5t-14.5 71.5q5 49 34.5 78t71.5 29q17 0 24 -2
l-3 -27q-14 2 -20 2q-24 0 -41.5 -14.5t-22.5 -38.5q-7 -25 1 -43q10 13 33 13q20 0 31.5 -13t9.5 -34t-17 -35t-37 -14z" />
    <glyph glyph-name="quotedblright" unicode="&#x201d;" horiz-adv-x="413" 
d="M187 718q31 0 49.5 -27.5t14.5 -71.5q-5 -49 -34.5 -78t-71.5 -29q-17 0 -24 2l3 27q16 -2 21 -2q24 0 41 14.5t22 38.5q6 22 0 43q-12 -13 -34 -13q-20 0 -31.5 13t-9.5 34t17 35t37 14zM339 718q31 0 49.5 -27.5t14.5 -71.5q-5 -49 -34.5 -78t-71.5 -29q-17 0 -24 2
l3 27q16 -2 21 -2q24 0 41 14.5t22 38.5q6 22 0 43q-12 -13 -34 -13q-20 0 -31.5 13t-9.5 34t17 35t37 14z" />
    <glyph glyph-name="quotedblbase" unicode="&#x201e;" horiz-adv-x="413" 
d="M122 91q31 0 49 -27.5t14 -71.5q-5 -49 -34.5 -78t-71.5 -29q-17 0 -24 2l3 27q16 -2 21 -2q24 0 41 14.5t22 38.5q6 22 0 43q-12 -13 -34 -13q-20 0 -31.5 13t-9.5 34t17.5 35t37.5 14zM274 91q31 0 49 -27.5t14 -71.5q-5 -49 -34.5 -78t-71.5 -29q-17 0 -24 2l3 27
q16 -2 21 -2q24 0 41 14.5t22 38.5q6 22 0 43q-12 -13 -34 -13q-20 0 -31.5 13t-9.5 34t17.5 35t37.5 14z" />
    <glyph glyph-name="dagger" unicode="&#x2020;" horiz-adv-x="423" 
d="M171 -182l61 580h-140l4 39h140l29 280h42l-29 -280h141l-4 -39h-141l-61 -580h-42z" />
    <glyph glyph-name="daggerdbl" unicode="&#x2021;" horiz-adv-x="423" 
d="M171 -182l22 210h-140l4 38h140l35 332h-140l4 39h140l29 280h42l-29 -280h141l-4 -39h-141l-35 -332h141l-4 -38h-141l-22 -210h-42z" />
    <glyph glyph-name="bullet" unicode="&#x2022;" horiz-adv-x="368" 
d="M205 196q-48 0 -78.5 34t-25.5 82q5 49 42.5 83t85.5 34q49 0 79.5 -34t25.5 -83q-5 -48 -42.5 -82t-86.5 -34z" />
    <glyph glyph-name="ellipsis" unicode="&#x2026;" horiz-adv-x="732" 
d="M138 -9q-21 0 -33.5 14.5t-10.5 35.5t18 35.5t37 14.5q22 0 34.5 -14.5t10.5 -35.5t-18 -35.5t-38 -14.5zM364 -9q-21 0 -33.5 14.5t-10.5 35.5t18 35.5t37 14.5q22 0 34.5 -14.5t10.5 -35.5t-18 -35.5t-38 -14.5zM590 -9q-21 0 -33.5 14.5t-10.5 35.5t18 35.5t37 14.5
q22 0 34.5 -14.5t10.5 -35.5t-18 -35.5t-38 -14.5z" />
    <glyph glyph-name="perthousand" unicode="&#x2030;" horiz-adv-x="1127" 
d="M149 -7l-29 17l544 682l29 -17zM228 351q-78 0 -119.5 49.5t-33.5 120.5q7 71 59 120.5t130 49.5t119 -49.5t34 -120.5q-8 -71 -59.5 -120.5t-129.5 -49.5zM232 386q61 0 101 39.5t46 95.5t-26 95.5t-93 39.5t-101.5 -39.5t-45.5 -95.5q-6 -56 26 -95.5t93 -39.5zM556 -5
q-78 0 -119 49.5t-34 120.5q8 71 59.5 120.5t129.5 49.5t119.5 -49.5t33.5 -120.5q-7 -71 -59 -120.5t-130 -49.5zM935 -5q-78 0 -119 49.5t-34 120.5q8 71 59.5 120.5t129.5 49.5t119.5 -49.5t33.5 -120.5q-7 -71 -59 -120.5t-130 -49.5zM560 30q61 0 101.5 39.5t45.5 95.5
q6 56 -25.5 95.5t-92.5 39.5t-101.5 -39.5t-46.5 -95.5t26 -95.5t93 -39.5zM939 30q61 0 101.5 39.5t45.5 95.5q6 56 -25.5 95.5t-92.5 39.5t-101.5 -39.5t-46.5 -95.5t26 -95.5t93 -39.5z" />
    <glyph glyph-name="guilsinglleft" unicode="&#x2039;" horiz-adv-x="260" 
d="M220 76l-184 185l223 185l24 -26l-191 -159l158 -159z" />
    <glyph glyph-name="guilsinglright" unicode="&#x203a;" horiz-adv-x="260" 
d="M56 76l-24 26l190 159l-157 159l30 26l183 -185z" />
    <glyph glyph-name="fraction" unicode="&#x2044;" horiz-adv-x="138" 
d="M-153 -9l-28 19l544 682l28 -19z" />
    <glyph glyph-name="uni2070" unicode="&#x2070;" horiz-adv-x="410" 
d="M246 394q-75 0 -109 52t-24 152q10 99 55.5 151t120.5 52t109.5 -52t24.5 -151t-56 -151.5t-121 -52.5zM250 427q116 0 134 171q18 170 -98 170q-115 0 -133 -170q-18 -171 97 -171z" />
    <glyph glyph-name="uni2074" unicode="&#x2074;" horiz-adv-x="379" 
d="M404 568l-4 -33h-71l-14 -136h-38l14 136h-171l27 259h37l-23 -226h134l13 124h38l-13 -124h71z" />
    <glyph glyph-name="uni2075" unicode="&#x2075;" horiz-adv-x="385" 
d="M238 394q-61 0 -94.5 28.5t-31.5 76.5h37q-1 -33 24 -53t70 -20q48 0 79.5 29t36.5 79q5 48 -18.5 75t-69.5 27q-72 0 -105 -55h-35l22 213h243l-3 -31h-209l-15 -148q35 51 112 51q59 0 90.5 -35t24.5 -97q-7 -65 -50 -102.5t-108 -37.5z" />
    <glyph glyph-name="uni2076" unicode="&#x2076;" horiz-adv-x="384" 
d="M262 672q64 0 98.5 -40t28.5 -100q-6 -59 -49.5 -99t-107.5 -40q-63 0 -97.5 40t-28.5 99q5 46 32 81h-1l142 181h44l-101 -127q20 5 40 5zM236 425q48 0 79.5 30.5t36.5 76.5t-20.5 77t-73.5 31t-79.5 -31t-36.5 -77t20.5 -76.5t73.5 -30.5z" />
    <glyph glyph-name="uni2077" unicode="&#x2077;" horiz-adv-x="335" 
d="M100 400l246 362h-220l3 32h275l-261 -394h-43z" />
    <glyph glyph-name="uni2078" unicode="&#x2078;" horiz-adv-x="382" 
d="M232 394q-64 0 -99.5 30t-30.5 80q4 39 30.5 65.5t68.5 32.5q-37 8 -56.5 33.5t-15.5 61.5q5 47 45 75.5t101 28.5t95.5 -29t29.5 -75q-4 -36 -28.5 -61.5t-63.5 -33.5q40 -6 61 -32.5t17 -65.5q-5 -50 -47.5 -80t-106.5 -30zM256 618q45 0 73.5 20.5t32.5 55.5t-21 56.5
t-69 21.5t-73 -21.5t-33 -56.5q-4 -34 21 -55t69 -21zM235 423q47 0 78 23t35 61q5 38 -21 60t-74 22q-47 0 -77.5 -22t-35.5 -60q-4 -38 22 -61t73 -23z" />
    <glyph glyph-name="uni2079" unicode="&#x2079;" horiz-adv-x="384" 
d="M404 662q-6 -47 -33 -81h1l-142 -181h-44l101 127q-20 -5 -39 -5q-64 0 -99 40t-28 100q6 59 49 99t107 40q63 0 98 -40t29 -99zM158 662q-5 -46 20 -77t73 -31t80 31t37 77t-20.5 76.5t-73.5 30.5t-79.5 -30.5t-36.5 -76.5z" />
    <glyph glyph-name="uni207A" unicode="&#x207a;" horiz-adv-x="387" 
d="M228 466l11 105h-101l3 28h101l11 106h30l-11 -106h101l-3 -28h-101l-11 -105h-30z" />
    <glyph glyph-name="uni207B" unicode="&#x207b;" horiz-adv-x="387" 
d="M138 571l3 28h232l-3 -28h-232z" />
    <glyph glyph-name="uni207C" unicode="&#x207c;" horiz-adv-x="387" 
d="M135 629l3 28h249l-3 -28h-249zM123 515l3 28h249l-3 -28h-249z" />
    <glyph glyph-name="uni207D" unicode="&#x207d;" horiz-adv-x="211" 
d="M209 330q-107 110 -90 269q16 156 146 270l21 -22q-119 -105 -134 -248q-15 -142 82 -248z" />
    <glyph glyph-name="uni207E" unicode="&#x207e;" horiz-adv-x="211" 
d="M72 330l-21 21q60 54 93 112.5t41 135.5q15 143 -82 248l25 22q106 -112 90 -270q-16 -157 -146 -269z" />
    <glyph glyph-name="uni2080" unicode="&#x2080;" horiz-adv-x="410" 
d="M197 -78q-75 0 -109.5 52.5t-24.5 151.5t56 151t121 52t109 -52t24 -151q-10 -100 -55.5 -152t-120.5 -52zM200 -45q116 0 134 171q18 170 -98 170q-115 0 -133 -170q-18 -171 97 -171z" />
    <glyph glyph-name="uni2081" unicode="&#x2081;" horiz-adv-x="257" 
d="M120 -72l32 297h-90l3 29q54 0 74.5 15t24.5 53h34l-42 -394h-36z" />
    <glyph glyph-name="uni2082" unicode="&#x2082;" horiz-adv-x="367" 
d="M35 -72q8 68 35 106t88 64l72 32q66 29 72 91q4 34 -18 55t-61 21q-46 0 -76.5 -27t-34.5 -73h-38q6 60 48 96t105 36q57 0 88 -29t26 -77q-7 -80 -91 -117l-71 -31q-45 -19 -67 -45.5t-29 -68.5h233l-4 -33h-277z" />
    <glyph glyph-name="uni2083" unicode="&#x2083;" horiz-adv-x="375" 
d="M179 -78q-65 0 -99 31.5t-29 86.5h39q-4 -40 21 -64t71 -24t75.5 23t33.5 60q4 38 -20 60t-70 22h-35l3 29h34q44 0 71 20.5t31 56.5q4 34 -19.5 55t-65.5 21q-43 0 -71.5 -22t-32.5 -58h-38q5 49 45 79.5t101 30.5q59 0 92 -29t28 -76q-9 -77 -97 -92q39 -2 62.5 -30.5
t19.5 -68.5q-5 -50 -46 -80.5t-104 -30.5z" />
    <glyph glyph-name="uni2084" unicode="&#x2084;" horiz-adv-x="379" 
d="M354 96l-3 -33h-71l-15 -136h-38l15 136h-171l27 259h37l-24 -226h134l13 124h38l-13 -124h71z" />
    <glyph glyph-name="uni2085" unicode="&#x2085;" horiz-adv-x="385" 
d="M189 -78q-61 0 -94.5 28.5t-31.5 76.5h37q-2 -33 23 -53t70 -20q48 0 79.5 28.5t37.5 79.5q4 48 -19.5 75t-69.5 27q-72 0 -105 -55h-35l23 213h243l-3 -31h-209l-16 -148q35 51 112 51q59 0 90.5 -35t25.5 -97q-7 -65 -50.5 -102.5t-107.5 -37.5z" />
    <glyph glyph-name="uni2086" unicode="&#x2086;" horiz-adv-x="384" 
d="M212 200q64 0 99 -40t28 -100q-6 -59 -49 -99t-107 -40q-63 0 -98 40t-29 99q5 47 33 81h-1l142 181h44l-102 -127q22 5 40 5zM186 -47q48 0 79.5 30.5t36.5 76.5t-20 77t-73 31t-80 -31t-37 -77t20.5 -76.5t73.5 -30.5z" />
    <glyph glyph-name="uni2087" unicode="&#x2087;" horiz-adv-x="335" 
d="M50 -72l246 362h-220l4 32h275l-262 -394h-43z" />
    <glyph glyph-name="uni2088" unicode="&#x2088;" horiz-adv-x="382" 
d="M183 -78q-64 0 -100 30t-31 80q5 39 31.5 65.5t68.5 32.5q-37 8 -56.5 33.5t-15.5 61.5q4 46 44.5 75t101.5 29t95.5 -28.5t29.5 -75.5q-4 -36 -28.5 -61.5t-63.5 -33.5q40 -6 60.5 -32.5t16.5 -65.5q-5 -50 -47 -80t-106 -30zM206 146q45 0 73.5 20.5t32.5 55.5
t-20.5 56.5t-68.5 21.5t-73.5 -21.5t-33.5 -56.5q-4 -34 21 -55t69 -21zM186 -49q47 0 77.5 23t35.5 61q4 38 -22 60t-74 22q-47 0 -77.5 -22.5t-34.5 -59.5q-5 -38 21.5 -61t73.5 -23z" />
    <glyph glyph-name="uni2089" unicode="&#x2089;" horiz-adv-x="384" 
d="M354 190q-5 -47 -33 -81h1l-142 -181h-44l102 127q-22 -5 -40 -5q-64 0 -98.5 40t-28.5 100q6 59 49.5 99t107.5 40q63 0 97.5 -40t28.5 -99zM108 190q-5 -46 20.5 -77t73.5 -31t79.5 31t36.5 77t-20.5 76.5t-73.5 30.5t-79.5 -30.5t-36.5 -76.5z" />
    <glyph glyph-name="uni208A" unicode="&#x208a;" horiz-adv-x="387" 
d="M178 -13l11 105h-101l3 28h101l11 106h30l-11 -106h101l-3 -28h-101l-11 -105h-30z" />
    <glyph glyph-name="uni208B" unicode="&#x208b;" horiz-adv-x="387" 
d="M88 92l3 28h232l-3 -28h-232z" />
    <glyph glyph-name="uni208C" unicode="&#x208c;" horiz-adv-x="387" 
d="M85 150l3 28h249l-3 -28h-249zM73 36l3 28h249l-3 -28h-249z" />
    <glyph glyph-name="uni208D" unicode="&#x208d;" horiz-adv-x="211" 
d="M158 -149q-107 112 -89 269q16 158 146 270l21 -22q-119 -105 -134 -248q-16 -141 82 -248z" />
    <glyph glyph-name="uni208E" unicode="&#x208e;" horiz-adv-x="211" 
d="M21 -149l-20 21q60 54 92.5 112.5t41.5 135.5q15 143 -82 248l25 22q106 -113 90 -270q-18 -159 -147 -269z" />
    <glyph glyph-name="uni20A9" unicode="&#x20a9;" horiz-adv-x="781" 
d="M806 412h-89l-35 -107h113l-4 -36h-121l-89 -269h-43l-84 612l-211 -612h-42l-33 269h-121l4 36h113l-13 107h-89l4 35h81l-29 233h45l67 -611l213 611h38l84 -611l195 611h45l-76 -233h81z" />
    <glyph glyph-name="Euro" unicode="&#x20ac;" horiz-adv-x="582" 
d="M319 30q143 0 188 162h43q-26 -92 -84 -147t-151 -55q-197 0 -197 260h-68l12 33h57q2 40 4 59q2 22 8 56h-61l11 33h55q57 261 253 261q93 0 139.5 -54.5t53.5 -145.5h-43q-14 160 -154 160q-160 0 -207 -221h241l-12 -33h-235q-3 -18 -7 -56q-2 -19 -4 -59h239l-13 -33
h-228q1 -104 37 -162t123 -58z" />
    <glyph glyph-name="uni20AE" unicode="&#x20ae;" horiz-adv-x="500" 
d="M558 639h-220l-20 -196l145 66l-3 -38l-146 -66l-11 -97l146 66l-4 -38l-146 -66l-28 -270h-43l26 249l-148 -67l4 39l148 67l10 96l-148 -67l4 39l148 67l23 216h-219l4 41h482z" />
    <glyph glyph-name="uni20B4" unicode="&#x20b4;" horiz-adv-x="571" 
d="M390 348l-137 -53h300l-11 -29h-347q-57 -39 -64 -103q-7 -65 32 -100.5t115 -35.5q84 0 136.5 42.5t60.5 113.5h41q-9 -89 -74 -142.5t-169 -53.5q-94 0 -143.5 46t-40.5 129q7 63 47 104h-59l12 29h81q27 18 57 29l147 57l5 2h-290l12 30h333q55 40 62 114q6 58 -30 92
t-106 34q-75 0 -123 -37.5t-55 -103.5h-41q9 84 69.5 132t153.5 48q89 0 135.5 -44t38.5 -120q-6 -69 -49 -115h76l-11 -30h-99q-28 -20 -65 -35z" />
    <glyph glyph-name="uni20B8" unicode="&#x20b8;" horiz-adv-x="500" 
d="M76 639l4 41h482l-4 -41h-482zM228 0l52 497h-219l5 41h482l-5 -41h-220l-52 -497h-43z" />
    <glyph glyph-name="uni20B9" unicode="&#x20b9;" horiz-adv-x="503" 
d="M409 646q90 -61 84 -184h76l-12 -34h-68q-13 -78 -62 -134t-119 -75l129 -219h-51l-125 211q-6 -1 -19 -1h-147l4 40h145q75 0 131.5 50t70.5 128h-328l4 34h328q2 78 -43.5 127.5t-121.5 49.5h-145l4 41h447l-11 -34h-171z" />
    <glyph glyph-name="uni20BA" unicode="&#x20ba;" horiz-adv-x="436" 
d="M411 263h43q-14 -129 -94.5 -196t-241.5 -67h-42l24 230l-54 -26l4 37l54 26l11 100l-54 -26l4 37l53 26l29 276h44l-26 -254l199 94l-4 -37l-199 -94l-11 -100l199 94l-4 -37l-199 -94l-22 -211q143 0 209.5 57t77.5 165z" />
    <glyph glyph-name="uni20BD" unicode="&#x20bd;" horiz-adv-x="565" 
d="M340 210h-178l-8 -80h183l-4 -33h-183l-10 -97h-44l10 97h-100l4 33h100l8 80h-100l4 40h100l45 430h222q98 0 155.5 -67t46.5 -168q-11 -102 -82 -168.5t-169 -66.5zM207 639l-41 -389h176q79 0 137.5 55.5t67.5 139.5t-37.5 139t-126.5 55h-176z" />
    <glyph glyph-name="uni2113" unicode="&#x2113;" horiz-adv-x="370" 
d="M235 -10q-17 0 -32 2t-36.5 12.5t-35.5 28t-22 52t-3 81.5l2 16l-70 -56l-17 31l92 73l29 277q11 106 45 158t108 52q63 0 91.5 -42.5t20.5 -125.5q-8 -75 -69 -152.5t-188 -183.5l-4 -46q-5 -48 2 -78t26 -42t33 -15t35 -3q55 0 93 38l9 -30q-14 -14 -25 -22.5
t-33.5 -16.5t-50.5 -8zM156 263q108 93 157 159t56 128q14 131 -76 131q-51 0 -76.5 -42.5t-34.5 -126.5z" />
    <glyph glyph-name="uni2116" unicode="&#x2116;" horiz-adv-x="1100" 
d="M90 0l74 700h48l324 -629l67 629h43l-74 -700h-48l-326 629l-66 -629h-42zM833 91q-83 0 -128.5 53.5t-37.5 129.5q8 77 64.5 131t139.5 54t129.5 -54t38.5 -131q-9 -77 -66 -130t-140 -53zM837 130q64 0 109 42t51 102q6 61 -30 103.5t-100 42.5t-108 -42.5t-50 -103.5
q-6 -60 29 -102t99 -42zM638 0l4 39h372l-4 -39h-372z" />
    <glyph glyph-name="trademark" unicode="&#x2122;" horiz-adv-x="823" 
d="M149 293l39 374h-109l4 33h254l-4 -33h-110l-39 -374h-35zM384 293l43 407h49l104 -352l178 352h49l-43 -407h-35l36 349l-175 -349h-33l-102 349l-36 -349h-35z" />
    <glyph glyph-name="uni2126" unicode="&#x2126;" horiz-adv-x="713" 
d="M68 0l4 41h218l5 48q-104 26 -162.5 113t-47.5 196q14 136 108.5 225.5t237.5 89.5q144 0 219.5 -89.5t61.5 -225.5q-11 -109 -88.5 -196t-187.5 -114l-5 -47h218l-4 -41h-255l12 116q106 18 180.5 98.5t85.5 184.5q12 119 -52 196t-189 77t-206 -77t-93 -196
q-11 -104 46.5 -184.5t160.5 -98.5l-12 -116h-255z" />
    <glyph glyph-name="estimated" unicode="&#x212e;" horiz-adv-x="517" 
d="M267 -12q-108 0 -159 68.5t-41 168.5q11 104 77 170.5t170 66.5q88 0 142 -59t45 -146q-3 -23 -4 -27h-347l-17 -166q48 -55 136 -55q66 0 116.5 32t71.5 79h22q-21 -56 -78 -94t-134 -38zM152 251h265l15 141q-45 50 -121 50q-85 0 -144 -54z" />
    <glyph glyph-name="uni2153" unicode="&#x2153;" horiz-adv-x="733" 
d="M97 -9l-28 19l544 682l28 -19zM158 286l31 297h-90l3 29q54 0 74.5 15t24.5 53h34l-41 -394h-36zM543 -6q-65 0 -99 31.5t-28 86.5h39q-5 -40 20.5 -64t71.5 -24t75 23t33 60q5 38 -19 60t-70 22h-35l3 29h34q44 0 71 20.5t31 56.5q4 34 -19.5 55t-65.5 21
q-43 0 -71.5 -22t-32.5 -58h-38q5 49 44.5 79.5t100.5 30.5q59 0 92 -29t28 -76q-8 -77 -97 -92q39 -2 63 -30.5t20 -68.5q-5 -50 -46.5 -80.5t-104.5 -30.5z" />
    <glyph glyph-name="uni2154" unicode="&#x2154;" horiz-adv-x="850" 
d="M214 -9l-28 19l544 682l28 -19zM73 286q8 68 35 106t88 64l71 32q66 28 73 91q4 34 -18 55t-61 21q-46 0 -76.5 -27t-35.5 -73h-38q7 60 49 96t104 36q57 0 88.5 -29t26.5 -77q-9 -80 -91 -117l-71 -31q-46 -20 -68 -46t-28 -68h233l-4 -33h-277zM661 -6q-65 0 -99 31.5
t-28 86.5h39q-5 -40 20.5 -64t71.5 -24t75 23t33 60q5 38 -19 60t-70 22h-35l3 29h34q44 0 71 20.5t31 56.5q4 34 -19.5 55t-65.5 21q-43 0 -71.5 -22t-32.5 -58h-38q5 49 44.5 79.5t100.5 30.5q59 0 92 -29t28 -76q-8 -77 -97 -92q39 -2 63 -30.5t20 -68.5
q-5 -50 -46.5 -80.5t-104.5 -30.5z" />
    <glyph glyph-name="arrowleft" unicode="&#x2190;" horiz-adv-x="720" 
d="M266 134l-219 216l264 216l23 -27l-209 -171h624l-4 -37h-624l173 -170z" />
    <glyph glyph-name="arrowup" unicode="&#x2191;" horiz-adv-x="477" 
d="M220 0l66 624l-190 -191l-26 25l242 242l190 -242l-29 -25l-150 191l-66 -624h-37z" />
    <glyph glyph-name="arrowright" unicode="&#x2192;" horiz-adv-x="720" 
d="M482 133l-22 28l209 170h-624l4 37h624l-173 170l27 27l220 -216z" />
    <glyph glyph-name="arrowdown" unicode="&#x2193;" horiz-adv-x="477" 
d="M238 0l-191 242l31 25l150 -191l66 624h37l-66 -624l190 191l24 -25z" />
    <glyph glyph-name="uni2196" unicode="&#x2196;" horiz-adv-x="538" 
d="M505 89l-394 441l-12 -255l-38 -1l17 323l321 -17l-6 -38l-253 15l395 -441z" />
    <glyph glyph-name="uni2197" unicode="&#x2197;" horiz-adv-x="538" 
d="M51 89l-24 27l488 441l-257 -15l3 38l325 17l-51 -323l-38 1l42 256z" />
    <glyph glyph-name="uni2198" unicode="&#x2198;" horiz-adv-x="538" 
d="M534 103l-321 17l5 38l254 -15l-396 441l30 27l395 -441l12 255l38 1z" />
    <glyph glyph-name="uni2199" unicode="&#x2199;" horiz-adv-x="538" 
d="M26 103l51 323l38 -1l-42 -256l487 442l24 -27l-488 -441l257 15l-2 -38z" />
    <glyph glyph-name="partialdiff" unicode="&#x2202;" horiz-adv-x="561" 
d="M343 714q122 0 173 -89t30 -288q-18 -170 -79.5 -260t-189.5 -90q-111 0 -163 62t-42 156q10 99 76.5 164t165.5 65q132 0 189 -111l2 17q18 178 -22.5 256t-144.5 78q-82 0 -131 -49t-58 -126h-44q10 94 73 154.5t165 60.5zM278 26q96 0 146.5 60.5t70.5 183.5
q-23 65 -72 95t-108 30q-83 0 -138 -53.5t-63 -136.5q-9 -78 32.5 -128.5t131.5 -50.5z" />
    <glyph glyph-name="emptyset" unicode="&#x2205;" 
d="M600 523l-62 -56q47 -62 37 -150q-10 -99 -79 -160.5t-166 -61.5q-89 0 -144 53l-62 -56l-17 19l62 56q-47 61 -38 150q10 99 79.5 160.5t166.5 61.5q89 0 144 -53l62 56zM163 317q-8 -78 30 -128l305 276q-47 45 -123 45q-84 0 -143 -53t-69 -140zM544 317q9 75 -29 129
l-306 -277q48 -45 125 -45q84 0 142.5 53t67.5 140z" />
    <glyph glyph-name="uni2206" unicode="&#x2206;" horiz-adv-x="562" 
d="M23 0l314 700h36l166 -700h-516zM87 41h396l-135 594z" />
    <glyph glyph-name="product" unicode="&#x220f;" horiz-adv-x="642" 
d="M74 -218l102 972h-47l4 40h542l-4 -40h-47l-102 -972h-44l102 972h-360l-102 -972h-44z" />
    <glyph glyph-name="summation" unicode="&#x2211;" horiz-adv-x="620" 
d="M27 -218l4 41l407 465l-309 466l4 40h520l-4 -42h-466l309 -464l-406 -464h466l-5 -42h-520z" />
    <glyph glyph-name="minus" unicode="&#x2212;" horiz-adv-x="504" 
d="M89 295l4 39h388l-4 -39h-388z" />
    <glyph glyph-name="radical" unicode="&#x221a;" horiz-adv-x="780" 
d="M303 -218l-108 427h-123l4 39h153l99 -399l439 945h46l-474 -1012h-36z" />
    <glyph glyph-name="infinity" unicode="&#x221e;" horiz-adv-x="879" 
d="M253 88q-92 0 -137 58.5t-36 142.5q10 85 67 143t149 58q58 0 107 -37.5t73 -110.5q39 73 96 110.5t115 37.5q92 0 137 -58t35 -143q-9 -85 -66 -143t-149 -58q-58 0 -107 37t-72 110q-39 -73 -96.5 -110t-115.5 -37zM257 127q54 0 107 41t83 121q-13 79 -57.5 120.5
t-98.5 41.5q-72 0 -117.5 -47t-52.5 -115t28.5 -115t107.5 -47zM648 127q72 0 118 47t53 115t-29 115t-108 47q-54 0 -107 -41.5t-83 -120.5q13 -80 57.5 -121t98.5 -41z" />
    <glyph glyph-name="integral" unicode="&#x222b;" horiz-adv-x="390" 
d="M95 -222q-42 0 -67 12l4 40q25 -14 56 -14q32 0 52 24t24 67l80 760q7 61 37 94t74 33t67 -13l-4 -39q-26 13 -56 13q-32 0 -52 -23.5t-24 -66.5l-80 -760q-7 -61 -37 -94t-74 -33z" />
    <glyph glyph-name="approxequal" unicode="&#x2248;" horiz-adv-x="541" 
d="M409 346q-37 0 -101.5 34t-105.5 34q-59 0 -106 -49l5 43q45 45 106 45q41 0 108 -34t99 -34q49 0 114 54l-4 -42q-60 -51 -115 -51zM394 181q-37 0 -101.5 34t-105.5 34q-57 0 -106 -49l5 43q47 45 104 45q40 0 109 -34t99 -34q50 0 114 54l-5 -42q-54 -51 -113 -51z
" />
    <glyph glyph-name="notequal" unicode="&#x2260;" horiz-adv-x="539" 
d="M522 383h-159l-83 -139h228l-4 -39h-247l-74 -123h-37l74 123h-140l4 39h159l83 139h-228l4 39h247l74 123h37l-74 -123h140z" />
    <glyph glyph-name="lessequal" unicode="&#x2264;" horiz-adv-x="504" 
d="M470 232l-375 122l4 34l401 123l-5 -42l-334 -97l314 -98zM458 111h-388l4 39h388z" />
    <glyph glyph-name="greaterequal" unicode="&#x2265;" horiz-adv-x="504" 
d="M82 232l5 42l334 98l-314 97l5 42l375 -123l-4 -34zM70 111l4 39h388l-4 -39h-388z" />
    <glyph glyph-name="uni2460" unicode="&#x2460;" horiz-adv-x="802" 
d="M399 -17q-163 0 -249.5 105t-69.5 262q16 157 124.5 262t271.5 105q162 0 249 -105t71 -262q-17 -157 -126 -262t-271 -105zM403 17q145 0 243 96t113 237q15 142 -63 237.5t-223 95.5q-146 0 -244 -95.5t-113 -237.5t63 -237.5t224 -95.5zM412 171l28 270h-82l3 26
q49 0 68 13.5t23 48.5h31l-38 -358h-33z" />
    <glyph glyph-name="uni2461" unicode="&#x2461;" horiz-adv-x="802" 
d="M399 -17q-163 0 -249.5 105t-69.5 262q16 157 124.5 262t271.5 105q162 0 249 -105t71 -262q-17 -157 -126 -262t-271 -105zM403 17q145 0 243 96t113 237q15 142 -63 237.5t-223 95.5q-146 0 -244 -95.5t-113 -237.5t63 -237.5t224 -95.5zM283 171q7 62 32 96t80 58
l65 29q60 27 66 83q3 31 -17 50t-55 19q-42 0 -69.5 -24t-31.5 -67h-35q5 54 43.5 87t95.5 33q52 0 80.5 -26t23.5 -70q-7 -73 -82 -106l-65 -29q-41 -17 -61.5 -41t-26.5 -62h212l-3 -30h-252z" />
    <glyph glyph-name="uni2462" unicode="&#x2462;" horiz-adv-x="802" 
d="M399 -17q-163 0 -249.5 105t-69.5 262q16 157 124.5 262t271.5 105q162 0 249 -105t71 -262q-17 -157 -126 -262t-271 -105zM403 17q145 0 243 96t113 237q15 142 -63 237.5t-223 95.5q-146 0 -244 -95.5t-113 -237.5t63 -237.5t224 -95.5zM418 166q-59 0 -89.5 28.5
t-25.5 78.5h35q-4 -36 18.5 -58t64.5 -22t69 21t30 54q4 35 -17.5 55t-63.5 20h-32l3 26h31q40 0 64.5 19t27.5 51q4 31 -17.5 50t-59.5 19q-40 0 -65.5 -20t-28.5 -52h-35q5 45 40.5 72.5t91.5 27.5q54 0 84 -26.5t25 -69.5q-6 -69 -88 -84q35 -2 57 -27.5t18 -62.5
q-4 -45 -42 -72.5t-95 -27.5z" />
    <glyph glyph-name="uni2463" unicode="&#x2463;" horiz-adv-x="802" 
d="M476 717q162 0 249 -105t71 -262q-17 -157 -126 -262t-271 -105q-163 0 -249.5 105t-69.5 262q16 157 124.5 262t271.5 105zM403 17q145 0 243 96t113 237q15 142 -63 237.5t-223 95.5q-146 0 -244 -95.5t-113 -237.5t63 -237.5t224 -95.5zM526 437l-12 -113h65l-3 -30
h-65l-13 -123h-34l13 123h-156l25 236h34l-22 -206h122l12 113h34z" />
    <glyph glyph-name="uni2464" unicode="&#x2464;" horiz-adv-x="802" 
d="M399 -17q-163 0 -249.5 105t-69.5 262q16 157 124.5 262t271.5 105q162 0 249 -105t71 -262q-17 -157 -126 -262t-271 -105zM403 17q145 0 243 96t113 237q15 142 -63 237.5t-223 95.5q-146 0 -244 -95.5t-113 -237.5t63 -237.5t224 -95.5zM415 166q-55 0 -85.5 25.5
t-28.5 69.5h33q-1 -30 22 -48t63 -18q44 0 73 26t34 72q4 43 -17.5 68t-62.5 25q-66 0 -96 -50h-32l21 193h221l-3 -28h-190l-15 -135q32 47 102 47q54 0 82.5 -32t22.5 -88q-7 -59 -46 -93t-98 -34z" />
    <glyph glyph-name="uni2465" unicode="&#x2465;" horiz-adv-x="802" 
d="M476 717q162 0 249 -105t71 -262q-17 -157 -126 -262t-271 -105q-163 0 -249.5 105t-69.5 262q16 157 124.5 262t271.5 105zM403 17q145 0 243 96t113 237q15 142 -63 237.5t-223 95.5q-146 0 -244 -95.5t-113 -237.5t63 -237.5t224 -95.5zM441 423q58 0 89.5 -36.5
t26.5 -91.5q-5 -54 -44.5 -90t-97.5 -36t-89.5 36t-26.5 90q4 40 30 74h-1l129 164h40l-91 -114q15 4 35 4zM418 198q44 0 72 28t33 69q5 42 -18 70t-67 28q-43 0 -72 -28t-34 -70q-5 -41 19 -69t67 -28z" />
    <glyph glyph-name="uni2466" unicode="&#x2466;" horiz-adv-x="802" 
d="M399 -17q-163 0 -249.5 105t-69.5 262q16 157 124.5 262t271.5 105q162 0 249 -105t71 -262q-17 -157 -126 -262t-271 -105zM403 17q145 0 243 96t113 237q15 142 -63 237.5t-223 95.5q-146 0 -244 -95.5t-113 -237.5t63 -237.5t224 -95.5zM330 171l224 329h-200l3 29
h250l-238 -358h-39z" />
    <glyph glyph-name="uni2467" unicode="&#x2467;" horiz-adv-x="802" 
d="M399 -17q-163 0 -249.5 105t-69.5 262q16 157 124.5 262t271.5 105q162 0 249 -105t71 -262q-17 -157 -126 -262t-271 -105zM403 17q145 0 243 96t113 237q15 142 -63 237.5t-223 95.5q-146 0 -244 -95.5t-113 -237.5t63 -237.5t224 -95.5zM417 166q-58 0 -90 27t-28 73
q4 35 28 59t62 30q-34 7 -51 30t-14 56q5 42 41 68.5t91 26.5t87 -26.5t27 -68.5q-3 -33 -25.5 -55.5t-57.5 -30.5q36 -6 55.5 -30t15.5 -59q-4 -45 -43 -72.5t-98 -27.5zM439 369q41 0 67.5 19t29.5 50q4 32 -19.5 51.5t-63.5 19.5t-66 -19.5t-30 -51.5q-3 -31 19.5 -50
t62.5 -19zM420 192q43 0 71 21t32 55q4 35 -19.5 55t-67.5 20q-43 0 -70.5 -20.5t-31.5 -54.5t19.5 -55t66.5 -21z" />
    <glyph glyph-name="uni2468" unicode="&#x2468;" horiz-adv-x="802" 
d="M476 717q162 0 249 -105t71 -262q-17 -157 -126 -262t-271 -105q-163 0 -249.5 105t-69.5 262q16 157 124.5 262t271.5 105zM403 17q145 0 243 96t113 237q15 142 -63 237.5t-223 95.5q-146 0 -244 -95.5t-113 -237.5t63 -237.5t224 -95.5zM461 532q58 0 89.5 -36
t26.5 -90q-5 -42 -30 -74h1l-129 -164h-40l92 115q-16 -4 -37 -4q-58 0 -89.5 36.5t-25.5 90.5q5 54 44.5 90t97.5 36zM353 406q-5 -43 17.5 -70.5t66.5 -27.5q43 0 72.5 28t34.5 70q4 42 -19.5 69.5t-66.5 27.5q-44 0 -72.5 -27.5t-32.5 -69.5z" />
    <glyph glyph-name="uni24EA" unicode="&#x24ea;" horiz-adv-x="802" 
d="M399 -17q-163 0 -249.5 105t-69.5 262q16 157 124.5 262t271.5 105q162 0 249 -105t71 -262q-17 -157 -126 -262t-271 -105zM403 17q145 0 243 96t113 237q15 142 -63 237.5t-223 95.5q-146 0 -244 -95.5t-113 -237.5t63 -237.5t224 -95.5zM417 166q-68 0 -99.5 47.5
t-21.5 137.5q10 91 51 138t109 47q69 0 100.5 -47.5t21.5 -137.5t-51.5 -137.5t-109.5 -47.5zM421 196q106 0 122 155q17 155 -90 155q-103 0 -120 -155q-16 -155 88 -155z" />
    <glyph glyph-name="uni24FF" unicode="&#x24ff;" horiz-adv-x="802" 
d="M399 -17q-163 0 -249.5 105t-69.5 262q16 157 124.5 262t271.5 105q162 0 249 -105t71 -262q-17 -157 -126 -262t-271 -105zM418 166q68 0 109 47t51 138q10 90 -21.5 137.5t-99.5 47.5q-140 0 -160 -185q-10 -91 21 -138t100 -47zM422 196q-105 0 -89 155
q17 155 121 155q106 0 89 -155q-16 -155 -121 -155z" />
    <glyph glyph-name="lozenge" unicode="&#x25ca;" horiz-adv-x="545" 
d="M253 0l-161 396l244 398h40l161 -398l-244 -396h-40zM278 47l214 349l-140 351l-215 -351z" />
    <glyph glyph-name="uni2776" unicode="&#x2776;" horiz-adv-x="802" 
d="M399 -17q-163 0 -249.5 105t-69.5 262q16 157 124.5 262t271.5 105q162 0 249 -105t71 -262q-17 -157 -126 -262t-271 -105zM423 171h33l38 358h-30q-4 -35 -23 -48.5t-68 -13.5l-3 -26h81z" />
    <glyph glyph-name="uni2777" unicode="&#x2777;" horiz-adv-x="802" 
d="M399 -17q-163 0 -249.5 105t-69.5 262q16 157 124.5 262t271.5 105q162 0 249 -105t71 -262q-17 -157 -126 -262t-271 -105zM284 171h251l3 29h-211q5 39 25 62.5t62 41.5l64 29q76 33 84 105q4 44 -24.5 70.5t-80.5 26.5q-57 0 -95 -32.5t-43 -87.5h34q4 42 31.5 66.5
t69.5 24.5q35 0 55 -19t17 -50q-6 -57 -66 -83l-65 -28q-55 -25 -79.5 -59t-31.5 -96z" />
    </font>
</defs>
</svg>
