<svg xmlns="http://www.w3.org/2000/svg">
<defs>
<font id="GTWalsheimPro-BlackOblique" horiz-adv-x="640" >
  <font-face 
    font-family="GT Walsheim Pro Black"
    font-weight="800"
    font-style="oblique"
    font-stretch="normal"
    units-per-em="1000"
    panose-1="0 0 9 0 0 0 0 0 0 0"
    ascent="765"
    descent="-235"
    x-height="497"
    cap-height="700"
    bbox="-471 -218 1234 902"
    underline-thickness="50"
    underline-position="-150"
    slope="-6"
    unicode-range="U+000D-FB02"
  />
<missing-glyph horiz-adv-x="800" 
d="M223 27.5q-74 44.5 -113 119t-39 162.5q0 13 2 41q10 96 63.5 180.5t141.5 135.5t197 51q101 0 175.5 -44.5t113.5 -119t39 -162.5q0 -13 -2 -41q-10 -96 -64 -180.5t-142 -135.5t-197 -51q-101 0 -175 44.5zM575.5 52q82.5 46 136.5 125t64 173q2 24 2 35q0 83 -39 154
t-108.5 113.5t-157.5 42.5q-95 0 -178 -48t-136 -127.5t-62 -169.5q-2 -26 -2 -37q0 -86 39.5 -156t109.5 -110.5t157 -40.5q92 0 174.5 46zM264.5 468q-10.5 11 -10.5 27q0 20 13.5 34t32.5 14q17 0 28 -11t11 -28q0 -19 -14.5 -33t-33.5 -14q-16 0 -26.5 11zM561.5 468
q-10.5 11 -10.5 27q0 20 13.5 34t32.5 14q17 0 28 -11t11 -28q0 -19 -14.5 -33t-33.5 -14q-16 0 -26.5 11zM453 527l-135 -243h178l-3 -25h-247zM162.5 236q7.5 15 22.5 23l25 13q11 6 14.5 17.5t6.5 39.5h17q-4 -35 -10.5 -48.5t-17.5 -20.5l-23 -13q-24 -13 -27 -40h-16
q1 14 8.5 29zM617 161q5 17 5 23q0 11 -14 18l-39 20q-33 17 -33 50q0 20 13 48l14 -5q-11 -24 -11 -41q0 -27 29 -41l38 -19q20 -10 20 -29q0 -10 -6 -28zM278.5 104.5q-44.5 38.5 -86.5 123.5q6 -4 42.5 -27.5t70 -33.5t68.5 -10q57 0 118.5 8t104.5 29l4 2
q-18 -32 -57 -62.5t-85.5 -49t-84.5 -18.5q-50 0 -94.5 38.5zM472.5 117q52.5 25 76.5 43l-36 -8q-47 -10 -76 -15t-65 -5q-30 0 -69 11.5t-60 30.5q22 -42 63 -62t70 -20q44 0 96.5 25z" />
    <glyph glyph-name="fi" unicode="fi" horiz-adv-x="711" 
d="M540 542q-28 28 -28 68q0 32 16.5 59t44.5 43t61 16q43 0 70.5 -27.5t27.5 -68.5q0 -31 -16.5 -58t-44.5 -43.5t-60 -16.5q-43 0 -71 28zM218 668.5q61 43.5 145 43.5q63 0 100 -13l-13 -127q-32 4 -40 4q-27 0 -46 -11.5t-22 -38.5l-3 -29h103l-16 -150h-103l-36 -347
h-195l36 347h-79l16 150h79l3 27q10 101 71 144.5zM511 497h196l-52 -497h-196z" />
    <glyph glyph-name="fl" unicode="fl" horiz-adv-x="711" 
d="M218 668.5q61 43.5 145 43.5q63 0 100 -13l-13 -127q-32 4 -40 4q-27 0 -46 -11.5t-22 -38.5l-3 -29h103l-16 -150h-103l-36 -347h-195l36 347h-79l16 150h79l3 27q10 101 71 144.5zM729 700l-74 -700h-196l74 700h196z" />
    <glyph glyph-name="f_f" unicode="ff" horiz-adv-x="827" 
d="M218 668.5q61 43.5 145 43.5q63 0 100 -13l-13 -127q-32 4 -40 4q-27 0 -46 -11.5t-22 -38.5l-3 -29h103l-16 -150h-103l-36 -347h-195l36 347h-79l16 150h79l3 27q10 101 71 144.5zM789 564.5q-19 -11.5 -22 -38.5l-3 -29h103l-16 -150h-103l-36 -347h-195l36 347h-79
l16 150h79l3 27q10 101 71 144.5t145 43.5q63 0 100 -13l-13 -127q-32 4 -40 4q-27 0 -46 -11.5z" />
    <glyph glyph-name="f_f_i" unicode="ffi" horiz-adv-x="1136" 
d="M965 542q-28 28 -28 68q0 32 16.5 59t44.5 43t61 16q43 0 70.5 -27.5t27.5 -68.5q0 -31 -16.5 -58t-44.5 -43.5t-60 -16.5q-43 0 -71 28zM218 668.5q61 43.5 145 43.5q63 0 100 -13l-13 -127q-32 4 -40 4q-27 0 -46 -11.5t-22 -38.5l-3 -29h103l-16 -150h-103l-36 -347
h-195l36 347h-79l16 150h79l3 27q10 101 71 144.5zM643 668.5q61 43.5 145 43.5q63 0 100 -13l-13 -127q-32 4 -40 4q-27 0 -46 -11.5t-22 -38.5l-3 -29h103l-16 -150h-103l-36 -347h-195l36 347h-79l16 150h79l3 27q10 101 71 144.5zM936 497h196l-52 -497h-196z" />
    <glyph glyph-name="f_f_l" unicode="ffl" horiz-adv-x="1136" 
d="M218 668.5q61 43.5 145 43.5q63 0 100 -13l-13 -127q-32 4 -40 4q-27 0 -46 -11.5t-22 -38.5l-3 -29h103l-16 -150h-103l-36 -347h-195l36 347h-79l16 150h79l3 27q10 101 71 144.5zM643 668.5q61 43.5 145 43.5q63 0 100 -13l-13 -127q-32 4 -40 4q-27 0 -46 -11.5
t-22 -38.5l-3 -29h103l-16 -150h-103l-36 -347h-195l36 347h-79l16 150h79l3 27q10 101 71 144.5zM1154 700l-74 -700h-196l74 700h196z" />
    <glyph glyph-name=".notdef" horiz-adv-x="800" 
d="M223 27.5q-74 44.5 -113 119t-39 162.5q0 13 2 41q10 96 63.5 180.5t141.5 135.5t197 51q101 0 175.5 -44.5t113.5 -119t39 -162.5q0 -13 -2 -41q-10 -96 -64 -180.5t-142 -135.5t-197 -51q-101 0 -175 44.5zM575.5 52q82.5 46 136.5 125t64 173q2 24 2 35q0 83 -39 154
t-108.5 113.5t-157.5 42.5q-95 0 -178 -48t-136 -127.5t-62 -169.5q-2 -26 -2 -37q0 -86 39.5 -156t109.5 -110.5t157 -40.5q92 0 174.5 46zM264.5 468q-10.5 11 -10.5 27q0 20 13.5 34t32.5 14q17 0 28 -11t11 -28q0 -19 -14.5 -33t-33.5 -14q-16 0 -26.5 11zM561.5 468
q-10.5 11 -10.5 27q0 20 13.5 34t32.5 14q17 0 28 -11t11 -28q0 -19 -14.5 -33t-33.5 -14q-16 0 -26.5 11zM453 527l-135 -243h178l-3 -25h-247zM162.5 236q7.5 15 22.5 23l25 13q11 6 14.5 17.5t6.5 39.5h17q-4 -35 -10.5 -48.5t-17.5 -20.5l-23 -13q-24 -13 -27 -40h-16
q1 14 8.5 29zM617 161q5 17 5 23q0 11 -14 18l-39 20q-33 17 -33 50q0 20 13 48l14 -5q-11 -24 -11 -41q0 -27 29 -41l38 -19q20 -10 20 -29q0 -10 -6 -28zM278.5 104.5q-44.5 38.5 -86.5 123.5q6 -4 42.5 -27.5t70 -33.5t68.5 -10q57 0 118.5 8t104.5 29l4 2
q-18 -32 -57 -62.5t-85.5 -49t-84.5 -18.5q-50 0 -94.5 38.5zM472.5 117q52.5 25 76.5 43l-36 -8q-47 -10 -76 -15t-65 -5q-30 0 -69 11.5t-60 30.5q22 -42 63 -62t70 -20q44 0 96.5 25z" />
    <glyph glyph-name=".null" horiz-adv-x="0" 
 />
    <glyph glyph-name="nonmarkingreturn" unicode="&#xd;" horiz-adv-x="250" 
 />
    <glyph glyph-name="space" unicode=" " horiz-adv-x="237" 
 />
    <glyph glyph-name="exclam" unicode="!" horiz-adv-x="337" 
d="M139 700h207l-46 -435h-207zM87.5 20.5q-31.5 31.5 -31.5 77.5q0 35 18.5 66t49.5 49.5t68 18.5q49 0 81 -31.5t32 -77.5q0 -35 -19 -66t-51 -49.5t-68 -18.5q-48 0 -79.5 31.5z" />
    <glyph glyph-name="quotedbl" unicode="&#x22;" horiz-adv-x="520" 
d="M306 567.5q-5 -14.5 -16 -40.5l-80 -196h-65l-40 196q-7 26 -7 44q0 12 1 18q5 45 38 76.5t78 31.5q42 0 69 -28t27 -68q0 -19 -5 -33.5zM541 567.5q-5 -14.5 -16 -40.5l-80 -196h-65l-40 196q-7 26 -7 44q0 12 1 18q5 45 38 76.5t78 31.5q42 0 69 -28t27 -68
q0 -19 -5 -33.5z" />
    <glyph glyph-name="numbersign" unicode="#" horiz-adv-x="607" 
d="M111 157h-84l13 131h102l30 124h-89l14 131h107l39 157h135l-39 -157h103l39 157h134l-39 -157h78l-14 -131h-96l-30 -124h83l-13 -131h-101l-39 -157h-134l38 157h-103l-39 -157h-134zM380 288l30 124h-103l-30 -124h103z" />
    <glyph glyph-name="dollar" unicode="$" horiz-adv-x="604" 
d="M578 112q-31 -54 -89.5 -88t-138.5 -41l-9 -83h-95l9 84q-105 11 -160.5 67t-55.5 145q0 10 2 32h208q-1 -5 -1 -15q0 -38 20 -59.5t57 -21.5q34 0 53 16t19 45q0 18 -12 31.5t-43 24.5l-133 40q-62 19 -96 61.5t-34 105.5q0 69 34 120.5t91 81.5t126 37l9 85h95l-9 -86
q105 -11 153.5 -64t48.5 -127q0 -17 -1 -26h-208q1 6 1 16q0 32 -16 48t-46 16q-29 0 -47.5 -15.5t-18.5 -41.5q0 -20 14 -34t50 -26l127 -42q62 -20 94.5 -61.5t32.5 -103.5q0 -67 -31 -121z" />
    <glyph glyph-name="percent" unicode="%" horiz-adv-x="828" 
d="M141 24l549 686l71 -49l-548 -686zM152.5 369.5q-38.5 20.5 -58.5 54.5t-20 76q0 49 25.5 92.5t72 70t106.5 26.5q54 0 93 -20.5t59.5 -55.5t20.5 -77q0 -49 -26 -92t-73.5 -69t-108.5 -26q-52 0 -90.5 20.5zM309.5 470.5q20.5 23.5 20.5 58.5q0 28 -16 45t-46 17
q-35 0 -55.5 -24t-20.5 -59q0 -27 16 -44t45 -17q36 0 56.5 23.5zM527.5 12.5q-38.5 20.5 -58.5 55.5t-20 77q0 49 26 92t72.5 69t106.5 26q54 0 93 -20.5t59 -55t20 -76.5q0 -49 -26 -92.5t-73.5 -69.5t-108.5 -26q-52 0 -90.5 20.5zM685 113.5q21 23.5 21 58.5
q0 28 -16 45t-46 17q-35 0 -55.5 -24t-20.5 -60q0 -26 16 -43t44 -17q36 0 57 23.5z" />
    <glyph glyph-name="ampersand" unicode="&#x26;" horiz-adv-x="644" 
d="M665 231h-34q-9 -70 -48 -127t-106.5 -90t-158.5 -33q-122 0 -199 48t-77 138q0 50 22 91t58 68t77 36q-47 12 -78 47.5t-31 89.5q0 68 40.5 118t107.5 76t146 26q141 0 201.5 -55t60.5 -142q0 -10 -2 -32h-210q1 7 1 19q0 71 -64 71q-32 0 -54 -21.5t-22 -57.5
q0 -29 17 -46.5t51 -17.5h20l-15 -143h-17q-37 0 -58 -22.5t-25 -57.5q-3 -33 15 -55.5t54 -22.5q35 0 59.5 23t31.5 72h-39l16 146h276z" />
    <glyph glyph-name="quotesingle" unicode="'" horiz-adv-x="285" 
d="M306 567.5q-5 -14.5 -16 -40.5l-80 -196h-65l-40 196q-7 26 -7 44q0 12 1 18q5 45 38 76.5t78 31.5q42 0 69 -28t27 -68q0 -19 -5 -33.5z" />
    <glyph glyph-name="parenleft" unicode="(" horiz-adv-x="378" 
d="M110 -25.5q-48 97.5 -48 224.5q0 40 4 73q16 154 88.5 268t190.5 214l113 -105q-102 -91 -151.5 -174.5t-61.5 -202.5q-4 -31 -4 -65q0 -92 33 -163t105 -150l-135 -105q-86 88 -134 185.5z" />
    <glyph glyph-name="parenright" unicode=")" horiz-adv-x="378" 
d="M-23 -106q102 91 151.5 175t62.5 203q3 33 3 63q0 92 -33 163.5t-105 150.5l135 105q86 -88 134.5 -186.5t48.5 -225.5q0 -38 -4 -70q-17 -155 -89.5 -269t-190.5 -214z" />
    <glyph glyph-name="asterisk" unicode="*" horiz-adv-x="453" 
d="M95 377l96 110l-123 36l47 104l125 -50l6 140h112l-22 -140l134 50l25 -104l-130 -36l73 -110l-98 -65l-67 126l-94 -126z" />
    <glyph glyph-name="plus" unicode="+" horiz-adv-x="565" 
d="M230 243h-164l15 149h164l17 161h157l-17 -161h164l-15 -149h-164l-17 -161h-157z" />
    <glyph glyph-name="comma" unicode="," horiz-adv-x="342" 
d="M35 -156l7 69q24 -3 44 -3q52 0 84 30q29 26 37 66q-8 -8 -22.5 -12.5t-30.5 -4.5q-45 0 -71 27t-26 69q0 33 16.5 62t45.5 46.5t65 17.5q51 0 82.5 -35t31.5 -98q0 -18 -1 -27q-10 -104 -69.5 -157.5t-156.5 -53.5q-16 0 -36 4z" />
    <glyph glyph-name="hyphen" unicode="-" horiz-adv-x="406" 
d="M78 364h326l-15 -148h-326z" />
    <glyph glyph-name="period" unicode="." horiz-adv-x="335" 
d="M92.5 16q-29.5 29 -29.5 71q0 33 17 61.5t46.5 46t63.5 17.5q44 0 74 -29.5t30 -71.5q0 -32 -17.5 -61t-47 -46t-62.5 -17q-45 0 -74.5 29z" />
    <glyph glyph-name="slash" unicode="/" horiz-adv-x="494" 
d="M9 -14l411 769l137 -61l-412 -769z" />
    <glyph glyph-name="zero" unicode="0" horiz-adv-x="677" 
d="M133.5 56q-69.5 73 -69.5 213q0 38 4 70q18 175 106 266.5t237 91.5q135 0 204.5 -74t69.5 -216q0 -20 -4 -68q-19 -174 -107 -265t-238 -91q-133 0 -202.5 73zM440 190q31 47 42 149q4 46 4 63q0 69 -22.5 102t-69.5 33q-56 0 -86.5 -47t-40.5 -151q-4 -33 -4 -66
q0 -67 21.5 -98.5t68.5 -31.5q56 0 87 47z" />
    <glyph glyph-name="one" unicode="1" horiz-adv-x="465" 
d="M213 392h-144l17 159q71 0 111 14.5t58 42t22 72.5h174l-71 -680h-208z" />
    <glyph glyph-name="two" unicode="2" horiz-adv-x="649" 
d="M98.5 212q51.5 79 154.5 127l125 58q38 18 56 41t18 56q0 24 -16 38.5t-42 14.5q-38 0 -60.5 -23.5t-26.5 -68.5h-209q7 72 48.5 127t109 85t153.5 30q121 0 188 -48t67 -134q0 -15 -1 -23q-15 -141 -160 -208l-108 -50q-34 -17 -52 -33t-29 -40h303l-17 -161h-567
q14 133 65.5 212z" />
    <glyph glyph-name="three" unicode="3" horiz-adv-x="633" 
d="M109 35q-66 52 -66 152q0 11 2 35h209q-4 -40 16 -61.5t59 -21.5q38 0 60 21t22 56q0 61 -80 61h-88l16 147h88q82 0 90 67q2 28 -14.5 44.5t-47.5 16.5q-35 0 -57 -19.5t-26 -53.5h-208q7 65 46.5 114.5t108 76.5t158.5 27q116 0 183.5 -44.5t67.5 -124.5
q0 -65 -39.5 -112t-113.5 -64q60 -12 92.5 -48.5t32.5 -92.5q0 -67 -38.5 -119t-110 -80.5t-167.5 -28.5q-129 0 -195 52z" />
    <glyph glyph-name="four" unicode="4" horiz-adv-x="650" 
d="M636 177h-66l-19 -177h-205l19 177h-296l52 503h205l-35 -334h91l18 164h205l-18 -164h66z" />
    <glyph glyph-name="five" unicode="5" horiz-adv-x="642" 
d="M124 39.5q-67 56.5 -63 160.5h199q0 -29 21 -44.5t56 -15.5q46 0 74.5 31t28.5 82q0 35 -21 57t-56 22q-67 0 -95 -54h-180l42 402h522l-15 -149h-334l-12 -112q51 47 146 47q94 0 149 -54t55 -142q0 -9 -2 -29q-8 -77 -49.5 -135t-110.5 -90.5t-156 -32.5
q-132 0 -199 56.5z" />
    <glyph glyph-name="six" unicode="6" horiz-adv-x="625" 
d="M576.5 433q53.5 -61 53.5 -152q0 -11 -2 -33q-8 -78 -50 -138t-111 -93.5t-156 -33.5q-81 0 -140.5 29.5t-91.5 82.5t-32 122q0 9 2 31q9 85 60 152l227 280h233l-140 -170q94 -16 147.5 -77zM403.5 177.5q29.5 33.5 29.5 85.5q0 40 -22.5 65t-60.5 25q-47 0 -76 -34
t-29 -86q0 -40 22 -64.5t61 -24.5q46 0 75.5 33.5z" />
    <glyph glyph-name="seven" unicode="7" horiz-adv-x="604" 
d="M360 510h-284l17 170h582l-394 -680h-233z" />
    <glyph glyph-name="eight" unicode="8" horiz-adv-x="645" 
d="M123.5 30q-71.5 47 -71.5 134q0 70 36 119.5t101 66.5q-39 15 -63.5 52t-24.5 85q0 66 37 113.5t103.5 72t153.5 24.5q118 0 186 -44.5t68 -125.5q0 -61 -34.5 -109.5t-85.5 -67.5q50 -14 76.5 -50.5t26.5 -90.5q0 -71 -39 -122t-109.5 -77.5t-163.5 -26.5
q-125 0 -196.5 47zM431.5 441q25.5 22 25.5 57q0 28 -20.5 44.5t-55.5 16.5q-39 0 -65 -21.5t-26 -55.5q0 -28 21 -45.5t55 -17.5q40 0 65.5 22zM405.5 148.5q27.5 23.5 27.5 60.5q0 31 -22 49t-60 18q-42 0 -70 -23.5t-28 -60.5q0 -30 22.5 -48.5t59.5 -18.5
q43 0 70.5 23.5z" />
    <glyph glyph-name="nine" unicode="9" horiz-adv-x="624" 
d="M586 280l-227 -280h-233l141 170q-95 16 -148.5 77.5t-53.5 152.5q0 10 2 32q8 78 50 138t111 93.5t156 33.5q80 0 140 -29t92 -81.5t32 -121.5q0 -11 -2 -33q-9 -87 -60 -152zM284.5 352q22.5 -25 60.5 -25q47 0 76 34.5t29 87.5q0 40 -22 63.5t-61 23.5
q-46 0 -75.5 -33.5t-29.5 -85.5q0 -40 22.5 -65z" />
    <glyph glyph-name="colon" unicode=":" horiz-adv-x="335" 
d="M124.5 321q-29.5 29 -29.5 71q0 33 17 61.5t46.5 46t63.5 17.5q44 0 74 -29.5t30 -71.5q0 -32 -17.5 -61t-47 -46t-62.5 -17q-45 0 -74.5 29zM92.5 16q-29.5 29 -29.5 71q0 33 17 61.5t46.5 46t63.5 17.5q44 0 74 -29.5t30 -71.5q0 -32 -17.5 -61t-47 -46t-62.5 -17
q-45 0 -74.5 29z" />
    <glyph glyph-name="semicolon" unicode=";" horiz-adv-x="342" 
d="M124.5 321q-29.5 29 -29.5 71q0 33 17 61.5t46.5 46t63.5 17.5q44 0 74 -29.5t30 -71.5q0 -32 -17.5 -61t-47 -46t-62.5 -17q-45 0 -74.5 29zM35 -156l7 69q24 -3 44 -3q52 0 84 30q29 26 37 66q-8 -8 -22.5 -12.5t-30.5 -4.5q-45 0 -71 27t-26 69q0 33 16.5 62
t45.5 46.5t65 17.5q51 0 82.5 -35t31.5 -98q0 -18 -1 -27q-10 -104 -69.5 -157.5t-156.5 -53.5q-16 0 -36 4z" />
    <glyph glyph-name="less" unicode="&#x3c;" horiz-adv-x="549" 
d="M64 232l18 164l487 179l-18 -174l-254 -87l236 -87l-18 -174z" />
    <glyph glyph-name="equal" unicode="=" horiz-adv-x="572" 
d="M93 507h492l-15 -148h-492zM70 282h492l-16 -148h-492z" />
    <glyph glyph-name="greater" unicode="&#x3e;" horiz-adv-x="549" 
d="M64 227l254 87l-236 87l18 174l451 -179l-18 -164l-487 -179z" />
    <glyph glyph-name="question" unicode="?" horiz-adv-x="541" 
d="M188 276q5 50 25.5 80.5t68.5 56.5l51 28q29 17 42.5 35.5t13.5 46.5q0 25 -15 39t-41 14q-36 0 -60 -21t-28 -65h-205q6 60 41 112t103 84.5t168 32.5q109 0 177 -43t68 -129q0 -68 -32 -112t-82 -78l-48 -30q-21 -14 -30.5 -25t-10.5 -26l-1 -10h-206zM181 20.5
q-31 31.5 -31 77.5q0 35 18.5 66t49.5 49.5t67 18.5q49 0 81 -31t32 -77q0 -36 -19 -67t-50.5 -49.5t-68.5 -18.5q-48 0 -79 31.5z" />
    <glyph glyph-name="at" unicode="@" horiz-adv-x="923" 
d="M232 -139q-94 49 -142.5 135t-48.5 196q0 27 3 55q13 128 81 225t177 150t242 53q116 0 204.5 -40.5t138 -118t49.5 -186.5q0 -26 -3 -53q-14 -134 -81 -201.5t-165 -67.5q-64 0 -104 27.5t-50 81.5q-15 -28 -52 -49.5t-84 -21.5q-46 0 -83 22t-58 62t-21 90
q0 64 29 115.5t76 81t100 29.5q44 0 75 -20.5t41 -47.5l6 59h142l-26 -247q-1 -7 -1 -20q0 -57 43 -57q35 0 59.5 37t32.5 113q3 26 3 48q0 128 -75 192t-210 64q-102 0 -179.5 -38t-125 -109.5t-57.5 -170.5q-2 -16 -2 -46q0 -127 77 -203t231 -76q55 0 117 12t116 40
l40 -98q-66 -35 -141.5 -50.5t-146.5 -15.5q-133 0 -227 49zM519 191q26 28 26 65q0 31 -19.5 52t-51.5 21q-37 0 -62.5 -28t-25.5 -66q0 -31 19 -51.5t51 -20.5q37 0 63 28z" />
    <glyph glyph-name="A" unicode="A" horiz-adv-x="712" 
d="M478 81h-226l-31 -81h-216l313 700h225l164 -700h-216zM453 232l-44 272l-102 -272h146z" />
    <glyph glyph-name="B" unicode="B" horiz-adv-x="661" 
d="M623.5 311.5q35.5 -37.5 35.5 -96.5q0 -15 -1 -22q-9 -88 -75.5 -140.5t-170.5 -52.5h-350l74 700h342q96 0 150.5 -43t54.5 -118q0 -13 -1 -20q-7 -66 -48 -109t-105 -54q59 -7 94.5 -44.5zM329 566l-15 -148h66q41 0 66.5 23t25.5 62q0 30 -20.5 46.5t-56.5 16.5h-66z
M424.5 168.5q25.5 23.5 25.5 63.5q0 29 -21 47t-56 18h-72l-16 -152h71q43 0 68.5 23.5z" />
    <glyph glyph-name="C" unicode="C" horiz-adv-x="801" 
d="M219 19.5q-80 41.5 -123 115.5t-43 170q0 30 2 45q11 107 69 192t151.5 132.5t206.5 47.5q109 0 187 -34.5t119 -100t40 -156.5h-220q-5 49 -43 77.5t-102 28.5q-81 0 -131.5 -50t-59.5 -137q-2 -20 -2 -30q0 -73 40.5 -115t113.5 -42q64 0 108 28.5t59 77.5h220
q-27 -137 -135 -214t-272 -77q-105 0 -185 41.5z" />
    <glyph glyph-name="D" unicode="D" horiz-adv-x="730" 
d="M136 700h289q100 0 174 -40.5t114 -111t40 -158.5q0 -12 -2 -40q-10 -98 -64 -178t-141 -126t-195 -46h-289zM351 170q55 0 97 28t65 75t23 101q0 68 -38.5 112t-108.5 44h-63l-38 -360h63z" />
    <glyph glyph-name="E" unicode="E" horiz-adv-x="567" 
d="M136 700h450l-17 -156h-242l-13 -122h242l-15 -149h-242l-13 -117h242l-16 -156h-450z" />
    <glyph glyph-name="F" unicode="F" horiz-adv-x="552" 
d="M136 700h450l-18 -170h-242l-17 -155h242l-17 -164h-242l-22 -211h-208z" />
    <glyph glyph-name="G" unicode="G" horiz-adv-x="832" 
d="M848 244h-55q-42 -128 -144 -197t-253 -69q-103 0 -181 41t-120.5 114.5t-42.5 168.5q0 22 3 46q12 108 68 193t149.5 133t211.5 48q101 0 176.5 -31t115.5 -86.5t38 -127.5h-226q-5 35 -37 56.5t-84 21.5q-83 0 -134 -54.5t-61 -145.5q-2 -20 -2 -30q0 -77 41 -123.5
t112 -46.5q116 0 156 89h-115l14 141h384z" />
    <glyph glyph-name="H" unicode="H" horiz-adv-x="735" 
d="M136 700h208l-28 -266h195l28 266h208l-74 -700h-208l27 261h-195l-27 -261h-208z" />
    <glyph glyph-name="I" unicode="I" horiz-adv-x="332" 
d="M136 700h208l-74 -700h-208z" />
    <glyph glyph-name="J" unicode="J" horiz-adv-x="620" 
d="M99 45q-64 64 -64 171q0 13 2 39h208q-1 -8 -1 -22q0 -37 16.5 -57.5t48.5 -20.5q38 0 59 25t26 68l48 452h209l-46 -432q-15 -145 -97 -216t-217 -71q-128 0 -192 64z" />
    <glyph glyph-name="K" unicode="K" horiz-adv-x="716" 
d="M497 352l212 -352h-239l-168 304l-32 -304h-208l74 700h208l-32 -304l232 304h239z" />
    <glyph glyph-name="L" unicode="L" horiz-adv-x="545" 
d="M136 700h208l-55 -521h238l-19 -179h-446z" />
    <glyph glyph-name="M" unicode="M" horiz-adv-x="943" 
d="M136 700h264l101 -457l196 457h258l-74 -700h-200l47 444l-175 -444h-154l-90 446l-47 -446h-200z" />
    <glyph glyph-name="N" unicode="N" horiz-adv-x="742" 
d="M136 700h210l166 -398l42 398h200l-74 -700h-210l-166 398l-42 -398h-200z" />
    <glyph glyph-name="O" unicode="O" horiz-adv-x="809" 
d="M214 22q-79 44 -120 119t-41 166q0 29 2 43q11 101 66.5 186t148 135.5t210.5 50.5q109 0 188 -44t120 -119t41 -166q0 -29 -2 -43q-11 -101 -66.5 -186t-148 -135.5t-210.5 -50.5q-109 0 -188 44zM523.5 193.5q43.5 29.5 66 78.5t22.5 105q0 70 -39 114.5t-113 44.5
q-59 0 -102 -29.5t-65.5 -78.5t-22.5 -105q0 -70 39 -114.5t112 -44.5q59 0 102.5 29.5z" />
    <glyph glyph-name="P" unicode="P" horiz-adv-x="667" 
d="M595.5 670.5q53.5 -29.5 83 -81.5t29.5 -118q0 -10 -2 -32q-8 -74 -48 -133.5t-102.5 -93t-136.5 -33.5h-130l-19 -179h-208l74 700h338q68 0 121.5 -29.5zM465.5 372q30.5 32 30.5 80q0 38 -23 62t-59 24h-87l-21 -198h86q43 0 73.5 32z" />
    <glyph glyph-name="Q" unicode="Q" horiz-adv-x="809" 
d="M762 166.5q-54 -83.5 -142 -133.5l58 -86l-193 -93l-80 124h-3q-109 0 -188 44t-120 119t-41 166q0 29 2 43q11 101 66.5 186t148 135.5t210.5 50.5q109 0 188 -44t120 -119t41 -166q0 -29 -2 -43q-11 -100 -65 -183.5zM309 208.5q39 -44.5 112 -44.5q59 0 102.5 29.5
t66 78.5t22.5 105q0 70 -39 114.5t-113 44.5q-59 0 -102 -29.5t-65.5 -78.5t-22.5 -105q0 -70 39 -114.5z" />
    <glyph glyph-name="R" unicode="R" horiz-adv-x="692" 
d="M662.5 311.5q-36.5 -57.5 -94.5 -91.5l89 -220h-239l-71 179h-58l-19 -179h-208l74 700h338q68 0 121.5 -29.5t83 -81.5t29.5 -118q0 -10 -2 -32q-7 -70 -43.5 -127.5zM306 340h86q43 0 73.5 32t30.5 80q0 38 -23 62t-59 24h-87z" />
    <glyph glyph-name="S" unicode="S" horiz-adv-x="611" 
d="M110 36q-71 58 -71 161q0 10 2 32h208q-1 -5 -1 -15q0 -38 21 -60t59 -22q36 0 56 17t20 48q0 21 -13.5 34t-45.5 26l-134 51q-130 51 -130 172q0 72 37 127t104.5 85t156.5 30q120 0 189 -52.5t69 -145.5q0 -17 -1 -26h-208q1 5 1 15q0 32 -17.5 49.5t-49.5 17.5
q-31 0 -50 -16t-19 -43q0 -19 16 -33t54 -29l123 -49q67 -27 98.5 -70t31.5 -103q0 -78 -38 -137t-108 -90.5t-161 -31.5q-128 0 -199 58z" />
    <glyph glyph-name="T" unicode="T" horiz-adv-x="579" 
d="M240 521h-180l19 179h569l-19 -179h-180l-55 -521h-209z" />
    <glyph glyph-name="U" unicode="U" horiz-adv-x="697" 
d="M141.5 41q-74.5 60 -74.5 168q0 10 2 34l48 457h209l-47 -444q-1 -5 -1 -15q0 -39 23.5 -61.5t64.5 -22.5q44 0 73 26.5t34 72.5l47 444h208l-48 -457q-9 -81 -52.5 -140t-115.5 -90.5t-165 -31.5q-131 0 -205.5 60z" />
    <glyph glyph-name="V" unicode="V" horiz-adv-x="690" 
d="M67 700h223l79 -469l179 469h223l-312 -700h-228z" />
    <glyph glyph-name="W" unicode="W" horiz-adv-x="1087" 
d="M67 700h221l81 -422l166 422h165l76 -422l171 422h221l-326 -700h-182l-76 381l-157 -381h-182z" />
    <glyph glyph-name="X" unicode="X" horiz-adv-x="700" 
d="M267 350l-185 350h228l92 -202l136 202h228l-259 -350l185 -350h-228l-93 202l-135 -202h-228z" />
    <glyph glyph-name="Y" unicode="Y" horiz-adv-x="663" 
d="M757 700l-421 -700h-233l146 246l-187 454h245l84 -250l134 250h232z" />
    <glyph glyph-name="Z" unicode="Z" horiz-adv-x="659" 
d="M380 530h-274l18 170h597l-371 -530h293l-18 -170h-618z" />
    <glyph glyph-name="bracketleft" unicode="[" horiz-adv-x="354" 
d="M139 733h280l-16 -156h-114l-65 -614h114l-16 -156h-280z" />
    <glyph glyph-name="backslash" unicode="\" horiz-adv-x="494" 
d="M83 694l149 61l251 -769l-150 -61z" />
    <glyph glyph-name="bracketright" unicode="]" horiz-adv-x="354" 
d="M-8 -193l16 156h114l65 614h-114l16 156h280l-97 -926h-280z" />
    <glyph glyph-name="asciicircum" unicode="^" horiz-adv-x="630" 
d="M341 700h98l169 -430h-172l-68 228l-119 -228h-171z" />
    <glyph glyph-name="underscore" unicode="_" horiz-adv-x="533" 
d="M-9 -82h533l-11 -108h-533z" />
    <glyph glyph-name="grave" unicode="`" horiz-adv-x="600" 
d="M109 678l86 84l159 -145l-85 -85z" />
    <glyph glyph-name="a" unicode="a" horiz-adv-x="655" 
d="M99 47q-53 61 -53 161q0 12 2 40q8 76 42.5 136t89.5 93.5t122 33.5q56 0 93.5 -24t51.5 -64l8 74h196l-52 -497h-196l8 74q-22 -39 -66 -63.5t-99 -24.5q-94 0 -147 61zM408.5 178q29.5 34 29.5 85q0 40 -22 65t-62 25q-45 0 -74.5 -34t-29.5 -86q0 -40 22 -64.5
t60 -24.5q47 0 76.5 34z" />
    <glyph glyph-name="b" unicode="b" horiz-adv-x="655" 
d="M608.5 451q53.5 -60 53.5 -162q0 -27 -2 -41q-8 -77 -42.5 -136.5t-89.5 -92.5t-120 -33q-56 0 -95 25.5t-52 62.5l-8 -74h-196l74 700h196l-30 -277q22 38 67 63t102 25q89 0 142.5 -60zM427.5 177q30.5 35 30.5 87q0 40 -23 64.5t-60 24.5q-45 0 -75 -33.5t-30 -85.5
q0 -42 22.5 -67t60.5 -25q44 0 74.5 35z" />
    <glyph glyph-name="c" unicode="c" horiz-adv-x="592" 
d="M161 14q-59 28 -90.5 80t-31.5 121q0 10 2 34q8 79 49.5 138.5t109.5 91.5t154 32q118 0 186.5 -57t67.5 -155h-196q-4 27 -22 39t-53 12q-46 0 -73.5 -31t-27.5 -88q0 -40 21 -61.5t59 -21.5q35 0 55.5 12t30.5 38h196q-20 -98 -100.5 -155t-198.5 -57q-79 0 -138 28z
" />
    <glyph glyph-name="d" unicode="d" horiz-adv-x="655" 
d="M673 700l-74 -700h-196l8 74q-22 -39 -66 -63.5t-99 -24.5q-94 0 -147 61t-53 161q0 12 2 40q8 76 42.5 136t89.5 93.5t122 33.5q56 0 93.5 -24t51.5 -64l30 277h196zM408.5 178q29.5 34 29.5 85q0 40 -22 65t-62 25q-45 0 -74.5 -34t-29.5 -86q0 -40 22 -64.5t60 -24.5
q47 0 76.5 34z" />
    <glyph glyph-name="e" unicode="e" horiz-adv-x="597" 
d="M598 201h-366q-1 -39 22 -59.5t65 -20.5q65 0 81 34h190q-22 -78 -99 -123.5t-186 -45.5q-125 0 -195.5 58.5t-70.5 166.5q0 11 2 37q13 124 98.5 193.5t216.5 69.5q77 0 135 -26t89.5 -74t31.5 -111q0 -17 -1 -26q-4 -36 -13 -73zM418 309q4 41 -16 62.5t-61 21.5
q-40 0 -66 -22.5t-32 -61.5h175z" />
    <glyph glyph-name="f" unicode="f" horiz-adv-x="402" 
d="M364 564.5q-19 -11.5 -22 -38.5l-3 -29h103l-16 -150h-103l-36 -347h-195l36 347h-79l16 150h79l3 27q10 101 71 144.5t145 43.5q63 0 100 -13l-13 -127q-32 4 -40 4q-27 0 -46 -11.5z" />
    <glyph glyph-name="g" unicode="g" horiz-adv-x="656" 
d="M651 497l-48 -455q-7 -69 -39 -121.5t-84 -84.5q-69 -43 -188 -43q-60 0 -102.5 8t-76.5 28q-37 21 -60.5 56.5t-23.5 72.5l1 12h198q2 -21 20.5 -32.5t54.5 -11.5q93 0 102 90l8 78q-19 -37 -65 -60t-97 -23q-95 0 -149.5 58t-54.5 154q0 11 2 35q8 74 42.5 131.5
t90 89.5t123.5 32q53 0 92 -24t50 -64l8 74h196zM409.5 184.5q29.5 34.5 29.5 85.5q0 39 -22 64.5t-61 25.5q-45 0 -75 -34.5t-30 -86.5q0 -39 23 -64t60 -25q46 0 75.5 34.5z" />
    <glyph glyph-name="h" unicode="h" horiz-adv-x="647" 
d="M630 345q0 -12 -2 -42l-32 -303h-200l27 253q1 8 1 22q0 37 -15 54.5t-46 17.5q-74 0 -84 -98l-26 -249h-196l74 700h196l-29 -276q24 43 67.5 65t102.5 22q162 0 162 -166z" />
    <glyph glyph-name="i" unicode="i" horiz-adv-x="309" 
d="M138 542q-28 28 -28 68q0 32 16.5 59t44.5 43t61 16q43 0 70.5 -27.5t27.5 -68.5q0 -31 -16.5 -58t-44.5 -43.5t-60 -16.5q-43 0 -71 28zM109 497h196l-52 -497h-196z" />
    <glyph glyph-name="j" unicode="j" horiz-adv-x="311" 
d="M139 542q-28 28 -28 68q0 32 16.5 59t44.5 43t61 16q43 0 70.5 -27.5t27.5 -68.5q0 -31 -16.5 -58t-44.5 -43.5t-60 -16.5q-43 0 -71 28zM8.5 -193.5q-17.5 2.5 -39.5 8.5l14 137q18 -3 32 -3q19 0 29.5 10.5t12.5 34.5l53 503h196l-53 -509q-10 -92 -61.5 -138
t-139.5 -46q-26 0 -43.5 2.5z" />
    <glyph glyph-name="k" unicode="k" horiz-adv-x="631" 
d="M388 0l-113 206l-22 -206h-196l74 700h196l-42 -399l158 196h222l-205 -233l159 -264h-231z" />
    <glyph glyph-name="l" unicode="l" horiz-adv-x="310" 
d="M131 700h196l-74 -700h-196z" />
    <glyph glyph-name="m" unicode="m" horiz-adv-x="945" 
d="M109 497h196l-7 -73q21 41 61 64t95 23q117 0 145 -94q26 44 71.5 69t101.5 25q84 0 120 -43t36 -119q0 -21 -3 -45l-32 -304h-200l28 268q1 7 1 20q0 31 -12.5 45t-37.5 14q-31 0 -49 -23t-24 -75l-26 -249h-200l28 268q1 8 1 21q0 31 -12 44.5t-37 13.5
q-32 0 -50 -22.5t-24 -75.5l-26 -249h-196z" />
    <glyph glyph-name="n" unicode="n" horiz-adv-x="647" 
d="M109 497h196l-7 -73q24 43 67.5 65t102.5 22q162 0 162 -166q0 -12 -2 -42l-32 -303h-200l27 253q1 8 1 22q0 37 -15 54.5t-46 17.5q-74 0 -84 -98l-26 -249h-196z" />
    <glyph glyph-name="o" unicode="o" horiz-adv-x="609" 
d="M162.5 14.5q-59.5 28.5 -91.5 81t-32 121.5q0 10 2 32q8 78 50 137.5t111 92t156 32.5q81 0 140.5 -28t91.5 -80t32 -121q0 -11 -2 -33q-8 -78 -49.5 -137.5t-111 -92.5t-156.5 -33q-81 0 -140.5 28.5zM395.5 180.5q28.5 32.5 28.5 85.5q0 39 -22 61.5t-61 22.5
q-46 0 -75.5 -32t-29.5 -83q0 -40 22.5 -63.5t61.5 -23.5q47 0 75.5 32.5z" />
    <glyph glyph-name="p" unicode="p" horiz-adv-x="655" 
d="M608.5 451q53.5 -60 53.5 -162q0 -27 -2 -41q-8 -77 -42.5 -136.5t-89.5 -92.5t-120 -33q-56 0 -95 25.5t-52 62.5l-28 -264h-196l72 687h196l-8 -74q22 38 67 63t102 25q89 0 142.5 -60zM427.5 177q30.5 35 30.5 87q0 40 -23 64.5t-60 24.5q-45 0 -75 -33.5t-30 -85.5
q0 -42 22.5 -67t60.5 -25q44 0 74.5 35z" />
    <glyph glyph-name="q" unicode="q" horiz-adv-x="655" 
d="M651 497l-72 -687h-196l28 264q-22 -39 -66 -63.5t-99 -24.5q-94 0 -147 61t-53 161q0 12 2 40q8 76 42.5 136t89.5 93.5t122 33.5q56 0 93.5 -24t51.5 -64l8 74h196zM408.5 178q29.5 34 29.5 85q0 40 -22 65t-62 25q-45 0 -74.5 -34t-29.5 -86q0 -40 22 -64.5t60 -24.5
q47 0 76.5 34z" />
    <glyph glyph-name="r" unicode="r" horiz-adv-x="449" 
d="M109 497h196l-11 -111q19 57 61 89t94 32q19 0 37 -3l-19 -185q-25 4 -50 4q-66 0 -102 -38t-44 -118l-18 -167h-196z" />
    <glyph glyph-name="s" unicode="s" horiz-adv-x="541" 
d="M100.5 25q-63.5 39 -63.5 107q0 11 1 16h195q-2 -21 13 -33t44 -12q22 0 35 9.5t13 27.5q0 11 -9 18.5t-30 12.5l-106 24q-61 14 -94 49t-33 86q0 85 68.5 133t183.5 48q113 0 172 -34.5t59 -101.5q0 -10 -1 -16h-193q4 41 -49 41q-22 0 -34 -8.5t-12 -23.5q0 -24 44 -35
l108 -28q61 -16 92.5 -47t31.5 -81q0 -12 -1 -18q-9 -82 -78.5 -127.5t-179.5 -45.5q-113 0 -176.5 39z" />
    <glyph glyph-name="t" unicode="t" horiz-adv-x="422" 
d="M418 149l-16 -149q-58 -10 -123 -10q-78 0 -126 32t-48 122q0 9 2 35l17 168h-73l16 150h73l15 145h196l-15 -145h113l-16 -150h-113l-13 -127q-1 -5 -1 -15q0 -34 16.5 -47t44.5 -13q17 0 51 4z" />
    <glyph glyph-name="u" unicode="u" horiz-adv-x="642" 
d="M110 30.5q-40 44.5 -40 124.5q0 11 2 39l32 303h199l-27 -260q-1 -7 -1 -20q0 -67 59 -67q71 0 81 93l26 254h197l-52 -497h-197l8 74q-23 -42 -65 -65t-98 -23q-84 0 -124 44.5z" />
    <glyph glyph-name="v" unicode="v" horiz-adv-x="605" 
d="M45 497h223l57 -284l117 284h222l-267 -497h-188z" />
    <glyph glyph-name="w" unicode="w" horiz-adv-x="861" 
d="M54 497h199l48 -275l92 275h179l34 -275l106 275h200l-228 -497h-181l-45 255l-100 -255h-181z" />
    <glyph glyph-name="x" unicode="x" horiz-adv-x="623" 
d="M213 251l-150 246h231l56 -127l84 127h230l-202 -246l153 -251h-230l-60 133l-86 -133h-231z" />
    <glyph glyph-name="y" unicode="y" horiz-adv-x="644" 
d="M639 497l-49 -464q-6 -61 -31.5 -108t-62.5 -76q-40 -30 -86.5 -43t-115.5 -13q-71 0 -116.5 12t-75.5 39q-24 22 -39 53.5t-15 64.5l1 14h196q-1 -24 14.5 -37.5t48.5 -13.5q75 0 84 80l9 91q-24 -40 -66 -62.5t-98 -22.5q-164 0 -164 170q0 14 2 42l29 274h196
l-26 -251q-1 -8 -1 -21q0 -66 60 -66q74 0 86 103l24 235h196z" />
    <glyph glyph-name="z" unicode="z" horiz-adv-x="516" 
d="M261 337h-197l17 160h482l-249 -337h194l-17 -160h-486z" />
    <glyph glyph-name="braceleft" unicode="{" horiz-adv-x="398" 
d="M137 -145.5q-44 40.5 -44 112.5q0 18 1 27l12 108q4 39 -17 57.5t-57 18.5l19 180q36 0 61 18.5t29 57.5l12 119q9 85 63.5 132.5t142.5 47.5h107l-16 -153h-45q-42 0 -65 -25.5t-26 -61.5l-12 -109q-6 -59 -39 -86t-66 -30q30 -3 56 -26t26 -73q0 -11 -1 -17l-10 -97
q-1 -5 -1 -14q0 -32 18 -53t56 -21h45l-17 -153h-107q-81 0 -125 40.5z" />
    <glyph glyph-name="bar" unicode="|" horiz-adv-x="259" 
d="M139 733h136l-97 -926h-136z" />
    <glyph glyph-name="braceright" unicode="}" horiz-adv-x="398" 
d="M-11 -186l17 153h45q42 0 64.5 25.5t26.5 62.5l10 97q6 59 39 86t66 30q-30 3 -56 26t-26 73q0 11 1 17l12 109q3 36 -14 61.5t-59 25.5h-45l16 153h107q81 0 125 -40t44 -113q0 -18 -1 -27l-12 -119q-4 -39 17 -57.5t57 -18.5l-19 -180q-36 0 -61 -18.5t-29 -57.5
l-12 -108q-9 -85 -63.5 -132.5t-142.5 -47.5h-107z" />
    <glyph glyph-name="asciitilde" unicode="~" horiz-adv-x="635" 
d="M409.5 188.5q-29.5 8.5 -64.5 24.5t-69 25.5t-73 9.5q-59 0 -133 -55l16 146q31 31 68 45t71 14q29 0 62 -8.5t75 -23.5q18 -6 27 -10q38 -13 60 -19.5t40 -6.5q64 0 136 55l-15 -146q-31 -31 -68 -45t-71 -14q-32 0 -61.5 8.5z" />
    <glyph glyph-name="uni00A0" unicode="&#xa0;" horiz-adv-x="247" 
 />
    <glyph glyph-name="exclamdown" unicode="&#xa1;" horiz-adv-x="337" 
d="M303 489.5q32 -31.5 32 -77.5q0 -35 -19 -66t-51 -49.5t-68 -18.5q-48 0 -79.5 31t-31.5 77q0 36 19 67t50.5 49.5t67.5 18.5q48 0 80 -31.5zM298 245l-46 -435h-207l46 435h207z" />
    <glyph glyph-name="cent" unicode="&#xa2;" horiz-adv-x="592" 
d="M381 251q21 12 30 38h196q-18 -88 -85 -143.5t-168 -66.5l-8 -79h-95l8 80q-99 13 -154.5 72.5t-55.5 153.5q0 10 2 34q11 108 81.5 176.5t181.5 82.5l8 81h95l-8 -80q98 -11 153.5 -66.5t55.5 -143.5h-196q-4 27 -22.5 39t-53.5 12q-46 0 -73 -31t-27 -88
q0 -40 20.5 -61.5t58.5 -21.5q35 0 56 12z" />
    <glyph glyph-name="sterling" unicode="&#xa3;" horiz-adv-x="629" 
d="M302 202q-14 -29 -33 -42h335l-17 -160h-557l14 132q26 15 44.5 48.5t22.5 77.5l4 37h-56l11 102h56l7 66q12 115 89.5 174.5t199.5 59.5q120 0 182.5 -52.5t62.5 -140.5q0 -8 -2 -28h-209l1 14q0 57 -51 57q-57 0 -65 -77l-7 -73h144l-11 -102h-144l-3 -29
q-4 -35 -18 -64z" />
    <glyph glyph-name="currency" unicode="&#xa4;" horiz-adv-x="626" 
d="M56 160l58 53q-36 56 -36 130q0 51 18 98.5t51 86.5l-47 53l79 71l50 -56q70 40 151 40q79 0 143 -40l62 56l63 -71l-59 -53q37 -57 37 -129q0 -52 -18 -99.5t-52 -86.5l47 -53l-78 -71l-50 56q-70 -40 -151 -40q-79 0 -143 40l-62 -56zM416.5 305q29.5 32 29.5 79
q0 37 -23 61t-61 24q-45 0 -74.5 -32.5t-29.5 -78.5q0 -37 23 -61t61 -24q45 0 74.5 32z" />
    <glyph glyph-name="yen" unicode="&#xa5;" horiz-adv-x="639" 
d="M440 157h127l-9 -85h-127l-8 -72h-208l8 72h-126l9 85h126l5 49h-126l9 85h122l-176 389h206l92 -251l145 251h206l-256 -389h121l-9 -85h-126z" />
    <glyph glyph-name="brokenbar" unicode="&#xa6;" horiz-adv-x="259" 
d="M139 735h136l-43 -412h-136zM86 224h136l-44 -417h-136z" />
    <glyph glyph-name="section" unicode="&#xa7;" horiz-adv-x="641" 
d="M585.5 184q-29.5 -36 -91.5 -63q69 -50 69 -125q0 -63 -34.5 -109.5t-97 -71t-143.5 -24.5q-117 0 -178.5 46.5t-61.5 127.5q0 17 1 25h161q-1 -5 -1 -14q0 -35 23 -53.5t68 -18.5q47 0 73 19.5t26 52.5t-31.5 52.5t-98.5 43.5q-60 21 -97.5 39.5t-64 50.5t-26.5 81
q0 53 29 90.5t92 63.5q-70 46 -70 122q0 61 35 107t97 71t142 25q118 0 179.5 -46t61.5 -128q0 -17 -1 -25h-160l1 13q0 36 -23.5 54.5t-68.5 18.5t-70 -16.5t-29 -46.5q-4 -36 28.5 -57t101.5 -45q61 -21 98 -39.5t64 -50.5t27 -81q0 -53 -29.5 -89zM267 221
q32 -20 100 -44q14 -4 21 -7q72 28 72 75q0 33 -31 52t-97 42q-9 4 -27 10q-70 -27 -70 -75q0 -33 32 -53z" />
    <glyph glyph-name="dieresis" unicode="&#xa8;" horiz-adv-x="600" 
d="M143 565q-25 24 -25 59q0 43 32 74.5t75 31.5q38 0 62.5 -24.5t24.5 -61.5q0 -41 -32 -72t-75 -31q-37 0 -62 24zM378.5 565q-24.5 24 -24.5 59q0 43 31.5 74.5t75.5 31.5q38 0 62 -24.5t24 -60.5q0 -42 -31.5 -73t-74.5 -31q-38 0 -62.5 24z" />
    <glyph glyph-name="copyright" unicode="&#xa9;" horiz-adv-x="795" 
d="M211.5 20.5q-77.5 42.5 -118 116.5t-40.5 167q0 30 2 46q11 104 66 189t146.5 134t206.5 49q107 0 184 -42.5t117.5 -116.5t40.5 -167q0 -30 -2 -46q-11 -104 -66 -189t-146 -134t-206 -49q-107 0 -184.5 42.5zM553 108q65 35 104.5 98t47.5 144q2 26 2 38q0 71 -29 125
t-83.5 84t-130.5 30q-82 0 -147 -35t-104.5 -98t-47.5 -144q-2 -26 -2 -38q0 -108 64.5 -173.5t178.5 -65.5q82 0 147 35zM319 180q-41 23 -62 62t-21 86q0 56 27.5 105.5t78 79.5t115.5 30q55 0 94 -21t58.5 -56.5t17.5 -79.5h-112q-2 25 -19.5 41t-49.5 16
q-44 0 -70.5 -31.5t-26.5 -75.5q0 -34 20.5 -56.5t56.5 -22.5q32 0 53 16t28 41h112q-11 -67 -65.5 -112t-136.5 -45q-57 0 -98 23z" />
    <glyph glyph-name="ordfeminine" unicode="&#xaa;" horiz-adv-x="417" 
d="M111 428.5q-33 35.5 -33 93.5q0 48 20 87t55.5 61.5t78.5 22.5q35 0 58.5 -14t32.5 -37l5 43h120l-30 -284h-120l5 42q-13 -22 -40.5 -36t-62.5 -14q-56 0 -89 35.5zM299.5 506q17.5 17 17.5 43q0 21 -13.5 34t-37.5 13q-26 0 -43.5 -17t-17.5 -42q0 -22 13 -35t36 -13
q28 0 45.5 17z" />
    <glyph glyph-name="guillemotleft" unicode="&#xab;" horiz-adv-x="587" 
d="M31 278l250 218l76 -95l-145 -123l119 -124l-96 -94zM293 278l250 218l76 -95l-145 -123l119 -124l-96 -94z" />
    <glyph glyph-name="logicalnot" unicode="&#xac;" horiz-adv-x="565" 
d="M409 343h-333l16 148h485l-36 -340h-152z" />
    <glyph glyph-name="uni00AD" unicode="&#xad;" horiz-adv-x="406" 
d="M78 364h326l-15 -148h-326z" />
    <glyph glyph-name="registered" unicode="&#xae;" horiz-adv-x="613" 
d="M183.5 191.5q-59.5 32.5 -90.5 89t-31 128.5q0 11 2 33q9 79 50.5 143t111 101.5t157.5 37.5q81 0 139.5 -32t89.5 -88t31 -127q0 -11 -2 -35q-8 -79 -49.5 -143.5t-110.5 -102t-157 -37.5q-81 0 -140.5 32.5zM450 262q52 31 81 85.5t29 123.5q0 82 -49 131.5t-135 49.5
q-95 0 -156.5 -58t-71.5 -152q-1 -9 -1 -28q0 -83 48.5 -133t135.5 -50q67 0 119 31zM268 573h123q38 0 61 -23.5t23 -58.5q0 -30 -15.5 -54.5t-44.5 -36.5l46 -78l-84 1l-38 69h-16l-6 -70h-75zM363 445q15 0 24.5 11.5t9.5 27.5q0 13 -7.5 21.5t-19.5 8.5h-33l-7 -69h33z
" />
    <glyph glyph-name="macron" unicode="&#xaf;" horiz-adv-x="600" 
d="M118 674h364l-11 -103h-364z" />
    <glyph glyph-name="degree" unicode="&#xb0;" horiz-adv-x="399" 
d="M146.5 347.5q-38.5 21.5 -60 59t-21.5 83.5q0 55 28.5 101.5t76.5 74t102 27.5q48 0 86.5 -21.5t60 -59t21.5 -83.5q0 -54 -28.5 -101t-76 -74.5t-102.5 -27.5q-48 0 -86.5 21.5zM300 459.5q22 22.5 22 60.5q0 29 -17 45.5t-45 16.5q-32 0 -54.5 -22t-22.5 -60
q0 -29 17.5 -46t44.5 -17q33 0 55 22.5z" />
    <glyph glyph-name="plusminus" unicode="&#xb1;" horiz-adv-x="565" 
d="M243 377h-163l15 148h163l10 92h159l-10 -92h163l-15 -148h-163l-10 -91h-159zM65 241h485l-15 -148h-485z" />
    <glyph glyph-name="uni00B2" unicode="&#xb2;" horiz-adv-x="427" 
d="M112.5 526q30.5 46 91.5 74l76 35q36 15 41 46q1 14 -7 22.5t-23 8.5q-20 0 -32.5 -12t-14.5 -35h-133q7 63 58.5 101.5t130.5 38.5q74 0 114.5 -28t40.5 -78q0 -9 -1 -14q-4 -42 -27.5 -71t-67.5 -49l-63 -29q-17 -9 -26.5 -16.5t-16.5 -19.5h175l-11 -100h-343
q8 80 38.5 126z" />
    <glyph glyph-name="uni00B3" unicode="&#xb3;" horiz-adv-x="427" 
d="M90 509q0 12 1 19h133q-3 -41 39 -41q19 0 30.5 10.5t11.5 27.5q0 32 -42 32h-56l9 92h57q50 0 50 38q0 13 -9 20t-25 7q-18 0 -30 -9.5t-14 -26.5h-132q6 58 57 92.5t134 34.5q71 0 112 -26t41 -73q0 -39 -23.5 -66t-70.5 -37q39 -7 59.5 -28t20.5 -53
q0 -60 -53.5 -96.5t-142.5 -36.5q-157 0 -157 120z" />
    <glyph glyph-name="acute" unicode="&#xb4;" horiz-adv-x="600" 
d="M174 620l189 145l69 -84l-191 -146z" />
    <glyph glyph-name="uni00B5" unicode="&#xb5;" horiz-adv-x="647" 
d="M643 497l-52 -497h-197l8 74q-20 -36 -52.5 -57t-75.5 -21q-12 0 -21 3l-20 -189h-196l72 687h199l-27 -260q-1 -7 -1 -20q0 -67 59 -67q71 0 81 93l26 254h197z" />
    <glyph glyph-name="paragraph" unicode="&#xb6;" horiz-adv-x="737" 
d="M310 267q-60 0 -107.5 25t-74.5 70t-27 103q0 78 39.5 135t101 87t126.5 30h394l-13 -123h-58l-80 -765h-138l80 764h-71l-80 -764h-138z" />
    <glyph glyph-name="periodcentered" unicode="&#xb7;" horiz-adv-x="356" 
d="M117 221q-32 32 -32 78q0 36 19 67t51 49.5t68 18.5q49 0 81 -31.5t32 -77.5q0 -36 -19 -67.5t-51 -50t-69 -18.5q-48 0 -80 32z" />
    <glyph glyph-name="cedilla" unicode="&#xb8;" horiz-adv-x="600" 
d="M56 -187.5q-26 19.5 -25 51.5h72q1 -8 8 -13.5t18 -5.5q15 0 24 10.5t9 28.5q0 25 -25 25q-19 0 -27 -13h-66l12 110h72l-7 -65q6 5 17.5 8.5t26.5 3.5q33 0 51.5 -19t18.5 -49q0 -37 -30 -64.5t-80 -27.5q-43 0 -69 19.5z" />
    <glyph glyph-name="uni00B9" unicode="&#xb9;" horiz-adv-x="328" 
d="M189 619h-86l10 99q62 0 87 18.5t29 57.5h110l-41 -394h-132z" />
    <glyph glyph-name="ordmasculine" unicode="&#xba;" horiz-adv-x="394" 
d="M119.5 428q-43.5 37 -43.5 99q0 49 24.5 87.5t69 60.5t100.5 22q74 0 118 -37t44 -98q0 -49 -24.5 -88t-69 -61t-100.5 -22q-75 0 -118.5 37zM293 506q17 17 17 45q0 21 -13 33.5t-37 12.5q-28 0 -45.5 -17t-17.5 -43q0 -22 13.5 -35t37.5 -13q28 0 45 17z" />
    <glyph glyph-name="guillemotright" unicode="&#xbb;" horiz-adv-x="587" 
d="M26 154l145 124l-119 123l96 95l204 -218l-250 -218zM288 154l145 124l-119 123l96 95l204 -218l-250 -218z" />
    <glyph glyph-name="onequarter" unicode="&#xbc;" horiz-adv-x="950" 
d="M773 654l-544 -682l-88 59l544 682zM154 286l23 219h-86l10 99q62 0 87 18.5t29 57.5h110l-41 -394h-132zM918 99h-38l-10 -99h-130l10 99h-173l31 295h129l-19 -189h44l9 92h130l-9 -92h38z" />
    <glyph glyph-name="onehalf" unicode="&#xbd;" horiz-adv-x="917" 
d="M141 31l544 682l88 -59l-544 -682zM177 505h-86l10 99q62 0 87 18.5t29 57.5h110l-41 -394h-132zM560.5 126q30.5 46 91.5 74l76 35q36 15 41 46q1 14 -7 22.5t-23 8.5q-20 0 -32.5 -12t-14.5 -35h-133q7 63 58.5 101.5t130.5 38.5q74 0 114.5 -28t40.5 -78q0 -9 -1 -14
q-4 -42 -27.5 -71t-67.5 -49l-63 -29q-17 -9 -26.5 -16.5t-16.5 -19.5h175l-11 -100h-343q8 80 38.5 126z" />
    <glyph glyph-name="threequarters" unicode="&#xbe;" horiz-adv-x="1030" 
d="M852 654l-544 -682l-88 59l544 682zM377.5 311.5q-53.5 -36.5 -142.5 -36.5q-78 0 -117 30t-39 88q0 14 1 21h133q-5 -41 38 -41q19 0 30.5 10.5t11.5 27.5q0 32 -42 32h-56l9 92h57q50 0 50 38q0 13 -9 20t-25 7q-18 0 -30 -9.5t-14 -26.5h-132q6 58 57 92.5t134 34.5
q71 0 112 -26t41 -73q0 -39 -23.5 -66t-70.5 -37q39 -7 59.5 -28t20.5 -53q0 -60 -53.5 -96.5zM997 99h-38l-10 -99h-130l10 99h-173l31 295h129l-19 -189h44l9 92h130l-9 -92h38z" />
    <glyph glyph-name="questiondown" unicode="&#xbf;" horiz-adv-x="541" 
d="M418 528.5q31 -31.5 31 -77.5q0 -35 -18.5 -66t-50 -49.5t-67.5 -18.5q-49 0 -80.5 31t-31.5 77q0 36 19 67t50.5 49.5t68.5 18.5q48 0 79 -31.5zM411 273q-5 -50 -25.5 -80.5t-69.5 -56.5l-51 -28q-29 -17 -42 -35.5t-13 -46.5q0 -25 15 -39t41 -14q36 0 60 21t28 65
h205q-6 -60 -41 -112t-103 -84.5t-168 -32.5q-108 0 -176.5 42.5t-68.5 128.5q0 69 32 113t82 78l47 30q21 14 30.5 25t11.5 26l1 10h206z" />
    <glyph glyph-name="Agrave" unicode="&#xc0;" horiz-adv-x="712" 
d="M524 727l-217 86l48 86l217 -86zM478 81h-226l-31 -81h-216l313 700h225l164 -700h-216zM453 232l-44 272l-102 -272h146z" />
    <glyph glyph-name="Aacute" unicode="&#xc1;" horiz-adv-x="712" 
d="M341 727l-30 86l235 86l30 -86zM478 81h-226l-31 -81h-216l313 700h225l164 -700h-216zM453 232l-44 272l-102 -272h146z" />
    <glyph glyph-name="Acircumflex" unicode="&#xc2;" horiz-adv-x="712" 
d="M356 729l-60 62l154 104l131 -104l-72 -62l-70 60zM478 81h-226l-31 -81h-216l313 700h225l164 -700h-216zM453 232l-44 272l-102 -272h146z" />
    <glyph glyph-name="Atilde" unicode="&#xc3;" horiz-adv-x="712" 
d="M316.5 776.5q-18.5 -10.5 -43.5 -35.5l-46 67q41 47 71.5 63t55.5 16q21 0 42 -8t50 -23q24 -12 40 -18.5t30 -6.5q23 0 41.5 8t54.5 36l42 -71q-36 -44 -72 -58t-65 -14q-22 0 -44 8t-49 23q-22 12 -37 18t-29 6q-23 0 -41.5 -10.5zM478 81h-226l-31 -81h-216l313 700
h225l164 -700h-216zM453 232l-44 272l-102 -272h146z" />
    <glyph glyph-name="Adieresis" unicode="&#xc4;" horiz-adv-x="712" 
d="M259.5 751q-22.5 22 -22.5 54q0 37 28.5 64.5t67.5 27.5q35 0 56.5 -21.5t21.5 -54.5q0 -37 -28 -64.5t-67 -27.5q-34 0 -56.5 22zM493.5 751q-21.5 22 -21.5 53q0 38 27.5 65.5t66.5 27.5q35 0 57 -21.5t22 -54.5q0 -37 -28.5 -64.5t-67.5 -27.5q-34 0 -55.5 22zM478 81
h-226l-31 -81h-216l313 700h225l164 -700h-216zM453 232l-44 272l-102 -272h146z" />
    <glyph glyph-name="Aring" unicode="&#xc5;" horiz-adv-x="712" 
d="M478 81h-226l-31 -81h-216l304 681q-21 29 -21 67q0 41 22.5 76t60 55.5t80.5 20.5q58 0 96 -36t38 -89q0 -52 -38 -95l160 -680h-216zM396 802q-19 -18 -19 -47q0 -22 15 -36.5t38 -14.5q28 0 46.5 18.5t18.5 47.5q0 23 -14.5 36.5t-38.5 13.5q-27 0 -46 -18zM453 232
l-44 272l-102 -272h146z" />
    <glyph glyph-name="AE" unicode="&#xc6;" horiz-adv-x="936" 
d="M709 544l-13 -122h229l-15 -149h-229l-13 -117h229l-16 -156h-434l9 83h-193l-43 -83h-217l420 700h532l-17 -156h-229zM471 232l33 315l-164 -315h131z" />
    <glyph glyph-name="Ccedilla" unicode="&#xc7;" horiz-adv-x="801" 
d="M532 191.5q44 28.5 59 77.5h220q-25 -129 -123 -205t-247 -85l-4 -38q6 5 17.5 8.5t26.5 3.5q33 0 51.5 -19t18.5 -49q0 -37 -30 -64.5t-80 -27.5q-43 0 -69 19.5t-25 51.5h72q1 -8 8 -13.5t18 -5.5q15 0 24 10.5t9 28.5q0 25 -25 25q-19 0 -27 -13h-66l9 83
q-96 7 -167.5 49.5t-110 114t-38.5 161.5q0 30 2 46q11 107 69 192t151.5 132.5t206.5 47.5q109 0 187 -34.5t119 -100t40 -156.5h-220q-5 49 -43 77.5t-102 28.5q-81 0 -131.5 -50t-59.5 -137q-2 -20 -2 -30q0 -73 40.5 -115t113.5 -42q64 0 108 28.5z" />
    <glyph glyph-name="Egrave" unicode="&#xc8;" horiz-adv-x="567" 
d="M247 813l48 86l217 -86l-48 -86zM136 700h450l-17 -156h-242l-13 -122h242l-15 -149h-242l-13 -117h242l-16 -156h-450z" />
    <glyph glyph-name="Eacute" unicode="&#xc9;" horiz-adv-x="567" 
d="M250 813l235 86l30 -86l-235 -86zM136 700h450l-17 -156h-242l-13 -122h242l-15 -149h-242l-13 -117h242l-16 -156h-450z" />
    <glyph glyph-name="Ecircumflex" unicode="&#xca;" horiz-adv-x="567" 
d="M520 791l-72 -62l-70 60l-83 -60l-60 62l154 104zM136 700h450l-17 -156h-242l-13 -122h242l-15 -149h-242l-13 -117h242l-16 -156h-450z" />
    <glyph glyph-name="Edieresis" unicode="&#xcb;" horiz-adv-x="567" 
d="M199.5 751q-22.5 22 -22.5 54q0 37 28.5 64.5t67.5 27.5q35 0 56.5 -21.5t21.5 -54.5q0 -37 -28 -64.5t-67 -27.5q-34 0 -56.5 22zM433.5 751q-21.5 22 -21.5 53q0 38 27.5 65.5t66.5 27.5q35 0 57 -21.5t22 -54.5q0 -37 -28.5 -64.5t-67.5 -27.5q-34 0 -55.5 22z
M136 700h450l-17 -156h-242l-13 -122h242l-15 -149h-242l-13 -117h242l-16 -156h-450z" />
    <glyph glyph-name="Igrave" unicode="&#xcc;" horiz-adv-x="332" 
d="M125 813l52 86l201 -86l-52 -86zM136 700h208l-74 -700h-208z" />
    <glyph glyph-name="Iacute" unicode="&#xcd;" horiz-adv-x="332" 
d="M123 811l224 91l35 -84l-225 -91zM136 700h208l-74 -700h-208z" />
    <glyph glyph-name="Icircumflex" unicode="&#xce;" horiz-adv-x="332" 
d="M252 789l-91 -68l-49 60l151 114l127 -114l-67 -60zM136 700h208l-74 -700h-208z" />
    <glyph glyph-name="Idieresis" unicode="&#xcf;" horiz-adv-x="332" 
d="M102.5 752q-20.5 20 -20.5 49q0 35 26.5 59.5t61.5 24.5q33 0 53 -19t20 -49q0 -35 -26 -60t-63 -25q-31 0 -51.5 20zM281.5 751.5q-19.5 19.5 -19.5 48.5q0 36 25 60.5t61 24.5q32 0 53 -19.5t21 -48.5q0 -34 -27 -59.5t-63 -25.5q-31 0 -50.5 19.5zM136 700h208
l-74 -700h-208z" />
    <glyph glyph-name="Eth" unicode="&#xd0;" horiz-adv-x="730" 
d="M599 659.5q74 -40.5 114 -111t40 -158.5q0 -12 -2 -40q-10 -98 -64 -178t-141 -126t-195 -46h-289l31 299h-53l11 101h53l32 300h289q100 0 174 -40.5zM448 198q42 28 65 75t23 101q0 68 -38.5 112t-108.5 44h-63l-14 -130h86l-11 -101h-86l-13 -129h63q55 0 97 28z" />
    <glyph glyph-name="Ntilde" unicode="&#xd1;" horiz-adv-x="742" 
d="M501 740q-22 8 -49 23q-22 12 -37 18t-29 6q-23 0 -41.5 -10.5t-43.5 -35.5l-46 67q41 47 71.5 63t55.5 16q21 0 42 -8t50 -23q24 -12 40 -18.5t30 -6.5q23 0 41.5 8t54.5 36l42 -71q-36 -44 -72 -58t-65 -14q-22 0 -44 8zM136 700h210l166 -398l42 398h200l-74 -700
h-210l-166 398l-42 -398h-200z" />
    <glyph glyph-name="Ograve" unicode="&#xd2;" horiz-adv-x="809" 
d="M355 813l48 86l217 -86l-48 -86zM214 22q-79 44 -120 119t-41 166q0 29 2 43q11 101 66.5 186t148 135.5t210.5 50.5q109 0 188 -44t120 -119t41 -166q0 -29 -2 -43q-11 -101 -66.5 -186t-148 -135.5t-210.5 -50.5q-109 0 -188 44zM523.5 193.5q43.5 29.5 66 78.5
t22.5 105q0 70 -39 114.5t-113 44.5q-59 0 -102 -29.5t-65.5 -78.5t-22.5 -105q0 -70 39 -114.5t112 -44.5q59 0 102.5 29.5z" />
    <glyph glyph-name="Oacute" unicode="&#xd3;" horiz-adv-x="809" 
d="M358 813l235 86l30 -86l-235 -86zM214 22q-79 44 -120 119t-41 166q0 29 2 43q11 101 66.5 186t148 135.5t210.5 50.5q109 0 188 -44t120 -119t41 -166q0 -29 -2 -43q-11 -101 -66.5 -186t-148 -135.5t-210.5 -50.5q-109 0 -188 44zM523.5 193.5q43.5 29.5 66 78.5
t22.5 105q0 70 -39 114.5t-113 44.5q-59 0 -102 -29.5t-65.5 -78.5t-22.5 -105q0 -70 39 -114.5t112 -44.5q59 0 102.5 29.5z" />
    <glyph glyph-name="Ocircumflex" unicode="&#xd4;" horiz-adv-x="809" 
d="M628 791l-72 -62l-70 60l-83 -60l-60 62l154 104zM214 22q-79 44 -120 119t-41 166q0 29 2 43q11 101 66.5 186t148 135.5t210.5 50.5q109 0 188 -44t120 -119t41 -166q0 -29 -2 -43q-11 -101 -66.5 -186t-148 -135.5t-210.5 -50.5q-109 0 -188 44zM523.5 193.5
q43.5 29.5 66 78.5t22.5 105q0 70 -39 114.5t-113 44.5q-59 0 -102 -29.5t-65.5 -78.5t-22.5 -105q0 -70 39 -114.5t112 -44.5q59 0 102.5 29.5z" />
    <glyph glyph-name="Otilde" unicode="&#xd5;" horiz-adv-x="809" 
d="M521 740q-22 8 -49 23q-22 12 -37 18t-29 6q-23 0 -41.5 -10.5t-43.5 -35.5l-46 67q41 47 71.5 63t55.5 16q21 0 42 -8t50 -23q24 -12 40 -18.5t30 -6.5q23 0 41.5 8t54.5 36l42 -71q-36 -44 -72 -58t-65 -14q-22 0 -44 8zM214 22q-79 44 -120 119t-41 166q0 29 2 43
q11 101 66.5 186t148 135.5t210.5 50.5q109 0 188 -44t120 -119t41 -166q0 -29 -2 -43q-11 -101 -66.5 -186t-148 -135.5t-210.5 -50.5q-109 0 -188 44zM523.5 193.5q43.5 29.5 66 78.5t22.5 105q0 70 -39 114.5t-113 44.5q-59 0 -102 -29.5t-65.5 -78.5t-22.5 -105
q0 -70 39 -114.5t112 -44.5q59 0 102.5 29.5z" />
    <glyph glyph-name="Odieresis" unicode="&#xd6;" horiz-adv-x="809" 
d="M307.5 751q-22.5 22 -22.5 54q0 37 28.5 64.5t67.5 27.5q35 0 56.5 -21.5t21.5 -54.5q0 -37 -28 -64.5t-67 -27.5q-34 0 -56.5 22zM541.5 751q-21.5 22 -21.5 53q0 38 27.5 65.5t66.5 27.5q35 0 57 -21.5t22 -54.5q0 -37 -28.5 -64.5t-67.5 -27.5q-34 0 -55.5 22zM214 22
q-79 44 -120 119t-41 166q0 29 2 43q11 101 66.5 186t148 135.5t210.5 50.5q109 0 188 -44t120 -119t41 -166q0 -29 -2 -43q-11 -101 -66.5 -186t-148 -135.5t-210.5 -50.5q-109 0 -188 44zM523.5 193.5q43.5 29.5 66 78.5t22.5 105q0 70 -39 114.5t-113 44.5
q-59 0 -102 -29.5t-65.5 -78.5t-22.5 -105q0 -70 39 -114.5t112 -44.5q59 0 102.5 29.5z" />
    <glyph glyph-name="multiply" unicode="&#xd7;" horiz-adv-x="568" 
d="M422 318l124 -139l-115 -105l-125 139l-153 -139l-94 105l153 139l-124 138l116 105l124 -139l154 139l94 -104z" />
    <glyph glyph-name="Oslash" unicode="&#xd8;" horiz-adv-x="809" 
d="M787 560.5q42 -75.5 42 -169.5q0 -13 -2 -41q-11 -101 -66.5 -186t-148 -135.5t-210.5 -50.5q-56 0 -110 13l-43 -79l-71 32l41 75q-80 41 -123 117.5t-43 170.5q0 28 2 43q11 101 66.5 186t148 135.5t210.5 50.5q65 0 117 -15l45 81l67 -32l-42 -77q78 -43 120 -118.5z
M282.5 253.5q12.5 -31.5 36.5 -53.5l182 332q-17 4 -41 4q-59 0 -102 -29.5t-65.5 -78.5t-22.5 -105q0 -38 12.5 -69.5zM523.5 193.5q43.5 29.5 66 79t22.5 106.5q0 35 -11.5 66t-32.5 52l-180 -330q15 -3 33 -3q59 0 102.5 29.5z" />
    <glyph glyph-name="Ugrave" unicode="&#xd9;" horiz-adv-x="697" 
d="M299 813l48 86l217 -86l-48 -86zM141.5 41q-74.5 60 -74.5 168q0 10 2 34l48 457h209l-47 -444q-1 -5 -1 -15q0 -39 23.5 -61.5t64.5 -22.5q44 0 73 26.5t34 72.5l47 444h208l-48 -457q-9 -81 -52.5 -140t-115.5 -90.5t-165 -31.5q-131 0 -205.5 60z" />
    <glyph glyph-name="Uacute" unicode="&#xda;" horiz-adv-x="697" 
d="M303 813l235 86l30 -86l-235 -86zM141.5 41q-74.5 60 -74.5 168q0 10 2 34l48 457h209l-47 -444q-1 -5 -1 -15q0 -39 23.5 -61.5t64.5 -22.5q44 0 73 26.5t34 72.5l47 444h208l-48 -457q-9 -81 -52.5 -140t-115.5 -90.5t-165 -31.5q-131 0 -205.5 60z" />
    <glyph glyph-name="Ucircumflex" unicode="&#xdb;" horiz-adv-x="697" 
d="M573 791l-72 -62l-70 60l-83 -60l-60 62l154 104zM141.5 41q-74.5 60 -74.5 168q0 10 2 34l48 457h209l-47 -444q-1 -5 -1 -15q0 -39 23.5 -61.5t64.5 -22.5q44 0 73 26.5t34 72.5l47 444h208l-48 -457q-9 -81 -52.5 -140t-115.5 -90.5t-165 -31.5q-131 0 -205.5 60z" />
    <glyph glyph-name="Udieresis" unicode="&#xdc;" horiz-adv-x="697" 
d="M251.5 751q-22.5 22 -22.5 54q0 37 28.5 64.5t67.5 27.5q35 0 56.5 -21.5t21.5 -54.5q0 -37 -28 -64.5t-67 -27.5q-34 0 -56.5 22zM485.5 751q-21.5 22 -21.5 53q0 38 27.5 65.5t66.5 27.5q35 0 57 -21.5t22 -54.5q0 -37 -28.5 -64.5t-67.5 -27.5q-34 0 -55.5 22z
M141.5 41q-74.5 60 -74.5 168q0 10 2 34l48 457h209l-47 -444q-1 -5 -1 -15q0 -39 23.5 -61.5t64.5 -22.5q44 0 73 26.5t34 72.5l47 444h208l-48 -457q-9 -81 -52.5 -140t-115.5 -90.5t-165 -31.5q-131 0 -205.5 60z" />
    <glyph glyph-name="Yacute" unicode="&#xdd;" horiz-adv-x="663" 
d="M325 727l-30 86l235 86l30 -86zM757 700l-421 -700h-233l146 246l-187 454h245l84 -250l134 250h232z" />
    <glyph glyph-name="Thorn" unicode="&#xde;" horiz-adv-x="667" 
d="M589.5 580.5q53.5 -30.5 82 -83.5t28.5 -117q0 -10 -2 -30q-8 -70 -46.5 -129.5t-101.5 -95t-141 -35.5h-130l-9 -90h-208l74 700h208l-10 -89h130q72 0 125.5 -30.5zM456.5 283.5q30.5 32.5 30.5 77.5q0 38 -22.5 63t-60.5 25h-87l-21 -198h86q44 0 74.5 32.5z" />
    <glyph glyph-name="germandbls" unicode="&#xdf;" 
d="M329.5 -10.5q-22.5 3.5 -50.5 10.5l15 140q21 -6 49 -6q39 0 65 24.5t26 65.5q0 32 -21.5 53.5t-59.5 21.5h-40l14 131h35q48 0 74 26t26 64q0 29 -19 46.5t-52 17.5q-39 0 -61.5 -23.5t-27.5 -64.5l-52 -496h-197l48 460q12 113 85 186t226 73q116 0 180.5 -45
t64.5 -125q0 -70 -44.5 -121t-113.5 -61q39 -3 70.5 -26t49.5 -60t18 -79q0 -13 -1 -20q-10 -91 -80.5 -143.5t-174.5 -52.5q-29 0 -51.5 3.5z" />
    <glyph glyph-name="agrave" unicode="&#xe0;" horiz-adv-x="655" 
d="M231 678l86 84l159 -145l-85 -85zM99 47q-53 61 -53 161q0 12 2 40q8 76 42.5 136t89.5 93.5t122 33.5q56 0 93.5 -24t51.5 -64l8 74h196l-52 -497h-196l8 74q-22 -39 -66 -63.5t-99 -24.5q-94 0 -147 61zM408.5 178q29.5 34 29.5 85q0 40 -22 65t-62 25q-45 0 -74.5 -34
t-29.5 -86q0 -40 22 -64.5t60 -24.5q47 0 76.5 34z" />
    <glyph glyph-name="aacute" unicode="&#xe1;" horiz-adv-x="655" 
d="M257 620l189 145l69 -84l-191 -146zM99 47q-53 61 -53 161q0 12 2 40q8 76 42.5 136t89.5 93.5t122 33.5q56 0 93.5 -24t51.5 -64l8 74h196l-52 -497h-196l8 74q-22 -39 -66 -63.5t-99 -24.5q-94 0 -147 61zM408.5 178q29.5 34 29.5 85q0 40 -22 65t-62 25
q-45 0 -74.5 -34t-29.5 -86q0 -40 22 -64.5t60 -24.5q47 0 76.5 34z" />
    <glyph glyph-name="acircumflex" unicode="&#xe2;" horiz-adv-x="655" 
d="M523 594l-81 -66l-73 76l-88 -76l-67 66l169 140zM99 47q-53 61 -53 161q0 12 2 40q8 76 42.5 136t89.5 93.5t122 33.5q56 0 93.5 -24t51.5 -64l8 74h196l-52 -497h-196l8 74q-22 -39 -66 -63.5t-99 -24.5q-94 0 -147 61zM408.5 178q29.5 34 29.5 85q0 40 -22 65t-62 25
q-45 0 -74.5 -34t-29.5 -86q0 -40 22 -64.5t60 -24.5q47 0 76.5 34z" />
    <glyph glyph-name="atilde" unicode="&#xe3;" horiz-adv-x="655" 
d="M411 544q-16 7 -39 21q-18 12 -30 17.5t-27 5.5q-43 0 -84 -35l-28 81q55 61 112 61q23 0 39 -7t39 -21q17 -12 30 -17.5t28 -5.5q43 0 83 35l29 -81q-55 -61 -113 -61q-23 0 -39 7zM99 47q-53 61 -53 161q0 12 2 40q8 76 42.5 136t89.5 93.5t122 33.5q56 0 93.5 -24
t51.5 -64l8 74h196l-52 -497h-196l8 74q-22 -39 -66 -63.5t-99 -24.5q-94 0 -147 61zM408.5 178q29.5 34 29.5 85q0 40 -22 65t-62 25q-45 0 -74.5 -34t-29.5 -86q0 -40 22 -64.5t60 -24.5q47 0 76.5 34z" />
    <glyph glyph-name="adieresis" unicode="&#xe4;" horiz-adv-x="655" 
d="M192 565q-25 24 -25 59q0 43 32 74.5t75 31.5q38 0 62.5 -24.5t24.5 -61.5q0 -41 -32 -72t-75 -31q-37 0 -62 24zM427.5 565q-24.5 24 -24.5 59q0 43 31.5 74.5t75.5 31.5q38 0 62 -24.5t24 -60.5q0 -42 -31.5 -73t-74.5 -31q-38 0 -62.5 24zM99 47q-53 61 -53 161
q0 12 2 40q8 76 42.5 136t89.5 93.5t122 33.5q56 0 93.5 -24t51.5 -64l8 74h196l-52 -497h-196l8 74q-22 -39 -66 -63.5t-99 -24.5q-94 0 -147 61zM408.5 178q29.5 34 29.5 85q0 40 -22 65t-62 25q-45 0 -74.5 -34t-29.5 -86q0 -40 22 -64.5t60 -24.5q47 0 76.5 34z" />
    <glyph glyph-name="aring" unicode="&#xe5;" horiz-adv-x="655" 
d="M295 553q-29 26 -29 69q0 53 37 87t90 34q47 0 76 -27t29 -70q0 -52 -37.5 -85.5t-90.5 -33.5q-46 0 -75 26zM412.5 601q15.5 16 15.5 40q0 20 -11.5 32t-29.5 12q-21 0 -36 -16t-15 -41q0 -19 11 -31t29 -12q21 0 36.5 16zM99 47q-53 61 -53 161q0 12 2 40
q8 76 42.5 136t89.5 93.5t122 33.5q56 0 93.5 -24t51.5 -64l8 74h196l-52 -497h-196l8 74q-22 -39 -66 -63.5t-99 -24.5q-94 0 -147 61zM408.5 178q29.5 34 29.5 85q0 40 -22 65t-62 25q-45 0 -74.5 -34t-29.5 -86q0 -40 22 -64.5t60 -24.5q47 0 76.5 34z" />
    <glyph glyph-name="ae" unicode="&#xe6;" horiz-adv-x="969" 
d="M970 204h-366q-3 -41 19.5 -64t64.5 -23q31 0 53 13t32 36h190q-22 -83 -100 -133.5t-187 -50.5q-64 0 -114 20.5t-82 58.5q-43 -40 -100 -59t-133 -19q-95 0 -153 37.5t-58 100.5l1 13q5 43 23.5 74.5t54.5 53.5q37 24 91 33t138 9h78l4 35q2 24 -12.5 40.5t-52.5 16.5
q-73 0 -82 -63h-200q15 84 92 133t204 49q119 0 174 -57q76 56 179 56q76 0 134.5 -27t90 -75.5t31.5 -111.5q0 -17 -1 -26q-3 -33 -13 -70zM791 321q0 36 -19.5 55.5t-56.5 19.5q-40 0 -67.5 -25.5t-32.5 -66.5h175q1 6 1 17zM414 205h-78q-41 0 -61.5 -15t-20.5 -39
q0 -44 62 -44q36 0 63.5 19t31.5 56z" />
    <glyph glyph-name="ccedilla" unicode="&#xe7;" horiz-adv-x="592" 
d="M371.5 160q20.5 12 30.5 38h196q-19 -92 -91.5 -148t-180.5 -63l-5 -46q6 5 17.5 8.5t26.5 3.5q33 0 51.5 -19t18.5 -49q0 -37 -30 -64.5t-80 -27.5q-43 0 -69 19.5t-25 51.5h72q1 -8 8 -13.5t18 -5.5q15 0 24 10.5t9 28.5q0 25 -25 25q-19 0 -27 -13h-66l10 92
q-101 12 -158 72t-57 156q0 11 2 33q8 79 49.5 138.5t109.5 91.5t154 32q118 0 186.5 -57t67.5 -155h-196q-4 27 -22 39t-53 12q-46 0 -73.5 -31t-27.5 -88q0 -40 21 -61.5t59 -21.5q35 0 55.5 12z" />
    <glyph glyph-name="egrave" unicode="&#xe8;" horiz-adv-x="597" 
d="M385 532l-160 146l86 84l159 -145zM598 201h-366q-1 -39 22 -59.5t65 -20.5q65 0 81 34h190q-22 -78 -99 -123.5t-186 -45.5q-125 0 -195.5 58.5t-70.5 166.5q0 11 2 37q13 124 98.5 193.5t216.5 69.5q77 0 135 -26t89.5 -74t31.5 -111q0 -17 -1 -26q-4 -36 -13 -73z
M418 309q4 41 -16 62.5t-61 21.5q-40 0 -66 -22.5t-32 -61.5h175z" />
    <glyph glyph-name="eacute" unicode="&#xe9;" horiz-adv-x="597" 
d="M311 535l-67 85l189 145l69 -84zM598 201h-366q-1 -39 22 -59.5t65 -20.5q65 0 81 34h190q-22 -78 -99 -123.5t-186 -45.5q-125 0 -195.5 58.5t-70.5 166.5q0 11 2 37q13 124 98.5 193.5t216.5 69.5q77 0 135 -26t89.5 -74t31.5 -111q0 -17 -1 -26q-4 -36 -13 -73z
M418 309q4 41 -16 62.5t-61 21.5q-40 0 -66 -22.5t-32 -61.5h175z" />
    <glyph glyph-name="ecircumflex" unicode="&#xea;" horiz-adv-x="597" 
d="M275 528l-67 66l169 140l140 -140l-81 -66l-73 76zM598 201h-366q-1 -39 22 -59.5t65 -20.5q65 0 81 34h190q-22 -78 -99 -123.5t-186 -45.5q-125 0 -195.5 58.5t-70.5 166.5q0 11 2 37q13 124 98.5 193.5t216.5 69.5q77 0 135 -26t89.5 -74t31.5 -111q0 -17 -1 -26
q-4 -36 -13 -73zM418 309q4 41 -16 62.5t-61 21.5q-40 0 -66 -22.5t-32 -61.5h175z" />
    <glyph glyph-name="edieresis" unicode="&#xeb;" horiz-adv-x="597" 
d="M177 565q-25 24 -25 59q0 43 32 74.5t75 31.5q38 0 62.5 -24.5t24.5 -61.5q0 -41 -32 -72t-75 -31q-37 0 -62 24zM412.5 565q-24.5 24 -24.5 59q0 43 31.5 74.5t75.5 31.5q38 0 62 -24.5t24 -60.5q0 -42 -31.5 -73t-74.5 -31q-38 0 -62.5 24zM598 201h-366
q-1 -39 22 -59.5t65 -20.5q65 0 81 34h190q-22 -78 -99 -123.5t-186 -45.5q-125 0 -195.5 58.5t-70.5 166.5q0 11 2 37q13 124 98.5 193.5t216.5 69.5q77 0 135 -26t89.5 -74t31.5 -111q0 -17 -1 -26q-4 -36 -13 -73zM418 309q4 41 -16 62.5t-61 21.5q-40 0 -66 -22.5
t-32 -61.5h175z" />
    <glyph glyph-name="igrave" unicode="&#xec;" horiz-adv-x="309" 
d="M79 678l86 84l159 -145l-85 -85zM109 497h196l-52 -497h-196z" />
    <glyph glyph-name="iacute" unicode="&#xed;" horiz-adv-x="309" 
d="M99 620l189 145l69 -84l-191 -146zM109 497h196l-52 -497h-196z" />
    <glyph glyph-name="icircumflex" unicode="&#xee;" horiz-adv-x="309" 
d="M371 594l-81 -66l-73 76l-88 -76l-67 66l169 140zM109 497h196l-52 -497h-196z" />
    <glyph glyph-name="idieresis" unicode="&#xef;" horiz-adv-x="309" 
d="M72.5 573.5q-20.5 20.5 -20.5 50.5q0 37 26.5 64t63.5 27q33 0 54 -21.5t21 -52.5q0 -36 -27 -62t-65 -26q-32 0 -52.5 20.5zM247.5 573.5q-20.5 20.5 -20.5 50.5q0 37 27 64t64 27q33 0 54 -21.5t21 -52.5q0 -36 -27 -62t-65 -26q-33 0 -53.5 20.5zM109 497h196
l-52 -497h-196z" />
    <glyph glyph-name="eth" unicode="&#xf0;" horiz-adv-x="609" 
d="M622 283q0 -10 -2 -34q-8 -78 -50 -138.5t-111.5 -94t-156.5 -33.5q-81 0 -140.5 29t-91 82t-31.5 123q0 10 2 32q11 106 80.5 176t173.5 85l-23 38l-88 -28l-17 64l70 22l-56 94h233l19 -33l91 29l17 -63l-74 -23l122 -204q33 -55 33 -123zM395 178.5q29 34.5 29 87.5
q0 40 -22 64t-61 24q-46 0 -75.5 -34t-29.5 -86q0 -40 22.5 -65t60.5 -25q47 0 76 34.5z" />
    <glyph glyph-name="ntilde" unicode="&#xf1;" horiz-adv-x="647" 
d="M418 544q-16 7 -39 21q-18 12 -30 17.5t-27 5.5q-43 0 -84 -35l-28 81q55 61 112 61q23 0 39 -7t39 -21q17 -12 30 -17.5t28 -5.5q43 0 83 35l29 -81q-55 -61 -113 -61q-23 0 -39 7zM109 497h196l-7 -73q24 43 67.5 65t102.5 22q162 0 162 -166q0 -12 -2 -42l-32 -303
h-200l27 253q1 8 1 22q0 37 -15 54.5t-46 17.5q-74 0 -84 -98l-26 -249h-196z" />
    <glyph glyph-name="ograve" unicode="&#xf2;" horiz-adv-x="609" 
d="M229 678l86 84l159 -145l-85 -85zM162.5 14.5q-59.5 28.5 -91.5 81t-32 121.5q0 10 2 32q8 78 50 137.5t111 92t156 32.5q81 0 140.5 -28t91.5 -80t32 -121q0 -11 -2 -33q-8 -78 -49.5 -137.5t-111 -92.5t-156.5 -33q-81 0 -140.5 28.5zM395.5 180.5q28.5 32.5 28.5 85.5
q0 39 -22 61.5t-61 22.5q-46 0 -75.5 -32t-29.5 -83q0 -40 22.5 -63.5t61.5 -23.5q47 0 75.5 32.5z" />
    <glyph glyph-name="oacute" unicode="&#xf3;" horiz-adv-x="609" 
d="M255 620l189 145l69 -84l-191 -146zM162.5 14.5q-59.5 28.5 -91.5 81t-32 121.5q0 10 2 32q8 78 50 137.5t111 92t156 32.5q81 0 140.5 -28t91.5 -80t32 -121q0 -11 -2 -33q-8 -78 -49.5 -137.5t-111 -92.5t-156.5 -33q-81 0 -140.5 28.5zM395.5 180.5
q28.5 32.5 28.5 85.5q0 39 -22 61.5t-61 22.5q-46 0 -75.5 -32t-29.5 -83q0 -40 22.5 -63.5t61.5 -23.5q47 0 75.5 32.5z" />
    <glyph glyph-name="ocircumflex" unicode="&#xf4;" horiz-adv-x="609" 
d="M520 594l-81 -66l-73 76l-88 -76l-67 66l169 140zM162.5 14.5q-59.5 28.5 -91.5 81t-32 121.5q0 10 2 32q8 78 50 137.5t111 92t156 32.5q81 0 140.5 -28t91.5 -80t32 -121q0 -11 -2 -33q-8 -78 -49.5 -137.5t-111 -92.5t-156.5 -33q-81 0 -140.5 28.5zM395.5 180.5
q28.5 32.5 28.5 85.5q0 39 -22 61.5t-61 22.5q-46 0 -75.5 -32t-29.5 -83q0 -40 22.5 -63.5t61.5 -23.5q47 0 75.5 32.5z" />
    <glyph glyph-name="otilde" unicode="&#xf5;" horiz-adv-x="609" 
d="M400 544q-16 7 -39 21q-18 12 -30 17.5t-27 5.5q-43 0 -84 -35l-28 81q55 61 112 61q23 0 39 -7t39 -21q17 -12 30 -17.5t28 -5.5q43 0 83 35l29 -81q-55 -61 -113 -61q-23 0 -39 7zM162.5 14.5q-59.5 28.5 -91.5 81t-32 121.5q0 10 2 32q8 78 50 137.5t111 92t156 32.5
q81 0 140.5 -28t91.5 -80t32 -121q0 -11 -2 -33q-8 -78 -49.5 -137.5t-111 -92.5t-156.5 -33q-81 0 -140.5 28.5zM395.5 180.5q28.5 32.5 28.5 85.5q0 39 -22 61.5t-61 22.5q-46 0 -75.5 -32t-29.5 -83q0 -40 22.5 -63.5t61.5 -23.5q47 0 75.5 32.5z" />
    <glyph glyph-name="odieresis" unicode="&#xf6;" horiz-adv-x="609" 
d="M181 565q-25 24 -25 59q0 43 32 74.5t75 31.5q38 0 62.5 -24.5t24.5 -61.5q0 -41 -32 -72t-75 -31q-37 0 -62 24zM416.5 565q-24.5 24 -24.5 59q0 43 31.5 74.5t75.5 31.5q38 0 62 -24.5t24 -60.5q0 -42 -31.5 -73t-74.5 -31q-38 0 -62.5 24zM162.5 14.5
q-59.5 28.5 -91.5 81t-32 121.5q0 10 2 32q8 78 50 137.5t111 92t156 32.5q81 0 140.5 -28t91.5 -80t32 -121q0 -11 -2 -33q-8 -78 -49.5 -137.5t-111 -92.5t-156.5 -33q-81 0 -140.5 28.5zM395.5 180.5q28.5 32.5 28.5 85.5q0 39 -22 61.5t-61 22.5q-46 0 -75.5 -32
t-29.5 -83q0 -40 22.5 -63.5t61.5 -23.5q47 0 75.5 32.5z" />
    <glyph glyph-name="divide" unicode="&#xf7;" horiz-adv-x="565" 
d="M261.5 435.5q-25.5 25.5 -25.5 63.5q0 45 33 77.5t78 32.5q40 0 65 -26t25 -64q0 -44 -33 -76.5t-78 -32.5q-39 0 -64.5 25.5zM81 387h485l-16 -148h-485zM220.5 46q-25.5 25 -25.5 63q0 44 32.5 76.5t78.5 32.5q40 0 65 -25.5t25 -63.5q0 -44 -33 -76t-78 -32
q-39 0 -64.5 25z" />
    <glyph glyph-name="oslash" unicode="&#xf8;" horiz-adv-x="609" 
d="M589 404q33 -52 33 -121q0 -10 -2 -34q-8 -78 -49.5 -137.5t-111 -92.5t-156.5 -33q-41 0 -79 8l-37 -66l-50 24l33 59q-63 27 -97 80t-34 125q0 11 2 33q8 78 50 137.5t111 92t156 32.5q43 0 84 -9l38 70l51 -24l-36 -64q61 -28 94 -80zM258 171l99 178q-5 1 -16 1
q-43 0 -71 -27.5t-33 -73.5q-4 -49 21 -78zM395.5 180q28.5 32 28.5 84q0 37 -18 59l-96 -175h10q47 0 75.5 32z" />
    <glyph glyph-name="ugrave" unicode="&#xf9;" horiz-adv-x="642" 
d="M248 678l86 84l159 -145l-85 -85zM110 30.5q-40 44.5 -40 124.5q0 11 2 39l32 303h199l-27 -260q-1 -7 -1 -20q0 -67 59 -67q71 0 81 93l26 254h197l-52 -497h-197l8 74q-23 -42 -65 -65t-98 -23q-84 0 -124 44.5z" />
    <glyph glyph-name="uacute" unicode="&#xfa;" horiz-adv-x="642" 
d="M274 620l189 145l69 -84l-191 -146zM110 30.5q-40 44.5 -40 124.5q0 11 2 39l32 303h199l-27 -260q-1 -7 -1 -20q0 -67 59 -67q71 0 81 93l26 254h197l-52 -497h-197l8 74q-23 -42 -65 -65t-98 -23q-84 0 -124 44.5z" />
    <glyph glyph-name="ucircumflex" unicode="&#xfb;" horiz-adv-x="642" 
d="M538 594l-81 -66l-73 76l-88 -76l-67 66l169 140zM110 30.5q-40 44.5 -40 124.5q0 11 2 39l32 303h199l-27 -260q-1 -7 -1 -20q0 -67 59 -67q71 0 81 93l26 254h197l-52 -497h-197l8 74q-23 -42 -65 -65t-98 -23q-84 0 -124 44.5z" />
    <glyph glyph-name="udieresis" unicode="&#xfc;" horiz-adv-x="642" 
d="M200 565q-25 24 -25 59q0 43 32 74.5t75 31.5q38 0 62.5 -24.5t24.5 -61.5q0 -41 -32 -72t-75 -31q-37 0 -62 24zM435.5 565q-24.5 24 -24.5 59q0 43 31.5 74.5t75.5 31.5q38 0 62 -24.5t24 -60.5q0 -42 -31.5 -73t-74.5 -31q-38 0 -62.5 24zM110 30.5
q-40 44.5 -40 124.5q0 11 2 39l32 303h199l-27 -260q-1 -7 -1 -20q0 -67 59 -67q71 0 81 93l26 254h197l-52 -497h-197l8 74q-23 -42 -65 -65t-98 -23q-84 0 -124 44.5z" />
    <glyph glyph-name="yacute" unicode="&#xfd;" horiz-adv-x="644" 
d="M266 620l189 145l69 -84l-191 -146zM639 497l-49 -464q-6 -61 -31.5 -108t-62.5 -76q-40 -30 -86.5 -43t-115.5 -13q-71 0 -116.5 12t-75.5 39q-24 22 -39 53.5t-15 64.5l1 14h196q-1 -24 14.5 -37.5t48.5 -13.5q75 0 84 80l9 91q-24 -40 -66 -62.5t-98 -22.5
q-164 0 -164 170q0 14 2 42l29 274h196l-26 -251q-1 -8 -1 -21q0 -66 60 -66q74 0 86 103l24 235h196z" />
    <glyph glyph-name="thorn" unicode="&#xfe;" horiz-adv-x="655" 
d="M131 700h196l-30 -277q22 38 67 63t102 25q89 0 142.5 -60t53.5 -162q0 -27 -2 -41q-8 -77 -42.5 -136.5t-89.5 -92.5t-120 -33q-56 0 -95 25.5t-52 62.5l-28 -264h-196zM427.5 177q30.5 35 30.5 87q0 40 -23 64.5t-60 24.5q-45 0 -75 -33.5t-30 -85.5q0 -42 22.5 -67
t60.5 -25q44 0 74.5 35z" />
    <glyph glyph-name="ydieresis" unicode="&#xff;" horiz-adv-x="644" 
d="M192 565q-25 24 -25 59q0 43 32 74.5t75 31.5q38 0 62.5 -24.5t24.5 -61.5q0 -41 -32 -72t-75 -31q-37 0 -62 24zM427.5 565q-24.5 24 -24.5 59q0 43 31.5 74.5t75.5 31.5q38 0 62 -24.5t24 -60.5q0 -42 -31.5 -73t-74.5 -31q-38 0 -62.5 24zM639 497l-49 -464
q-6 -61 -31.5 -108t-62.5 -76q-40 -30 -86.5 -43t-115.5 -13q-71 0 -116.5 12t-75.5 39q-24 22 -39 53.5t-15 64.5l1 14h196q-1 -24 14.5 -37.5t48.5 -13.5q75 0 84 80l9 91q-24 -40 -66 -62.5t-98 -22.5q-164 0 -164 170q0 14 2 42l29 274h196l-26 -251q-1 -8 -1 -21
q0 -66 60 -66q74 0 86 103l24 235h196z" />
    <glyph glyph-name="Amacron" unicode="&#x100;" horiz-adv-x="712" 
d="M639 757h-404l10 100h404zM478 81h-226l-31 -81h-216l313 700h225l164 -700h-216zM453 232l-44 272l-102 -272h146z" />
    <glyph glyph-name="amacron" unicode="&#x101;" horiz-adv-x="655" 
d="M204 674h364l-11 -103h-364zM99 47q-53 61 -53 161q0 12 2 40q8 76 42.5 136t89.5 93.5t122 33.5q56 0 93.5 -24t51.5 -64l8 74h196l-52 -497h-196l8 74q-22 -39 -66 -63.5t-99 -24.5q-94 0 -147 61zM408.5 178q29.5 34 29.5 85q0 40 -22 65t-62 25q-45 0 -74.5 -34
t-29.5 -86q0 -40 22 -64.5t60 -24.5q47 0 76.5 34z" />
    <glyph glyph-name="Abreve" unicode="&#x102;" horiz-adv-x="712" 
d="M344 755.5q-39 18.5 -60 51t-19 74.5h101q1 -31 22.5 -46.5t54.5 -15.5t58 15.5t33 46.5h101q-10 -63 -67 -103.5t-134 -40.5q-51 0 -90 18.5zM478 81h-226l-31 -81h-216l313 700h225l164 -700h-216zM453 232l-44 272l-102 -272h146z" />
    <glyph glyph-name="abreve" unicode="&#x103;" horiz-adv-x="655" 
d="M237 577q-45 40 -40 112h132q-2 -55 53 -55q54 0 62 55h133q-11 -71 -66.5 -111.5t-139.5 -40.5q-89 0 -134 40zM99 47q-53 61 -53 161q0 12 2 40q8 76 42.5 136t89.5 93.5t122 33.5q56 0 93.5 -24t51.5 -64l8 74h196l-52 -497h-196l8 74q-22 -39 -66 -63.5t-99 -24.5
q-94 0 -147 61zM408.5 178q29.5 34 29.5 85q0 40 -22 65t-62 25q-45 0 -74.5 -34t-29.5 -86q0 -40 22 -64.5t60 -24.5q47 0 76.5 34z" />
    <glyph glyph-name="Aogonek" unicode="&#x104;" horiz-adv-x="712" 
d="M612 -95q12 -11 33 -11q25 0 49 12l-9 -88q-29 -11 -53 -15t-59 -4q-68 0 -102.5 28t-30.5 71q8 66 77 102h-26l-13 81h-226l-31 -81h-216l313 700h225l164 -700q-57 -2 -82 -22t-25 -44q0 -18 12 -29zM453 232l-44 272l-102 -272h146z" />
    <glyph glyph-name="aogonek" unicode="&#x105;" horiz-adv-x="655" 
d="M517 -22q-25 -20 -25 -44q0 -18 12 -29t33 -11q25 0 49 12l-9 -88q-29 -11 -53 -15t-59 -4q-68 0 -102.5 28t-30.5 71q8 66 77 102h-6l8 74q-22 -39 -66 -63.5t-99 -24.5q-94 0 -147 61t-53 161q0 12 2 40q8 76 42.5 136t89.5 93.5t122 33.5q56 0 93.5 -24t51.5 -64l8 74
h196l-52 -497q-57 -2 -82 -22zM408.5 178q29.5 34 29.5 85q0 40 -22 65t-62 25q-45 0 -74.5 -34t-29.5 -86q0 -40 22 -64.5t60 -24.5q47 0 76.5 34z" />
    <glyph glyph-name="Cacute" unicode="&#x106;" horiz-adv-x="798" 
d="M361 813l235 86l30 -86l-235 -86zM219 19.5q-80 41.5 -123 115.5t-43 170q0 30 2 45q11 107 69 192t151.5 132.5t206.5 47.5q109 0 187 -34.5t119 -100t40 -156.5h-220q-5 49 -43 77.5t-102 28.5q-81 0 -131.5 -50t-59.5 -137q-2 -20 -2 -30q0 -73 40.5 -115t113.5 -42
q64 0 108 28.5t59 77.5h220q-27 -137 -135 -214t-272 -77q-105 0 -185 41.5z" />
    <glyph glyph-name="cacute" unicode="&#x107;" horiz-adv-x="592" 
d="M248 620l189 145l69 -84l-191 -146zM161 14q-59 28 -90.5 80t-31.5 121q0 10 2 34q8 79 49.5 138.5t109.5 91.5t154 32q118 0 186.5 -57t67.5 -155h-196q-4 27 -22 39t-53 12q-46 0 -73.5 -31t-27.5 -88q0 -40 21 -61.5t59 -21.5q35 0 55.5 12t30.5 38h196
q-20 -98 -100.5 -155t-198.5 -57q-79 0 -138 28z" />
    <glyph glyph-name="Ccircumflex" unicode="&#x108;" horiz-adv-x="798" 
d="M631 791l-72 -62l-70 60l-83 -60l-60 62l154 104zM219 19.5q-80 41.5 -123 115.5t-43 170q0 30 2 45q11 107 69 192t151.5 132.5t206.5 47.5q109 0 187 -34.5t119 -100t40 -156.5h-220q-5 49 -43 77.5t-102 28.5q-81 0 -131.5 -50t-59.5 -137q-2 -20 -2 -30
q0 -73 40.5 -115t113.5 -42q64 0 108 28.5t59 77.5h220q-27 -137 -135 -214t-272 -77q-105 0 -185 41.5z" />
    <glyph glyph-name="ccircumflex" unicode="&#x109;" horiz-adv-x="592" 
d="M513 594l-81 -66l-73 76l-88 -76l-67 66l169 140zM161 14q-59 28 -90.5 80t-31.5 121q0 10 2 34q8 79 49.5 138.5t109.5 91.5t154 32q118 0 186.5 -57t67.5 -155h-196q-4 27 -22 39t-53 12q-46 0 -73.5 -31t-27.5 -88q0 -40 21 -61.5t59 -21.5q35 0 55.5 12t30.5 38h196
q-20 -98 -100.5 -155t-198.5 -57q-79 0 -138 28z" />
    <glyph glyph-name="Cdotaccent" unicode="&#x10a;" horiz-adv-x="798" 
d="M432.5 757q-19.5 20 -19.5 49q0 38 25.5 64t62.5 26q32 0 52 -20.5t20 -51.5q0 -35 -26 -61t-63 -26q-32 0 -51.5 20zM219 19.5q-80 41.5 -123 115.5t-43 170q0 30 2 45q11 107 69 192t151.5 132.5t206.5 47.5q109 0 187 -34.5t119 -100t40 -156.5h-220q-5 49 -43 77.5
t-102 28.5q-81 0 -131.5 -50t-59.5 -137q-2 -20 -2 -30q0 -73 40.5 -115t113.5 -42q64 0 108 28.5t59 77.5h220q-27 -137 -135 -214t-272 -77q-105 0 -185 41.5z" />
    <glyph glyph-name="cdotaccent" unicode="&#x10b;" horiz-adv-x="592" 
d="M286 565.5q-27 25.5 -27 65.5q0 48 34.5 80.5t82.5 32.5q41 0 67.5 -25t26.5 -64q0 -49 -33.5 -82t-81.5 -33q-42 0 -69 25.5zM161 14q-59 28 -90.5 80t-31.5 121q0 10 2 34q8 79 49.5 138.5t109.5 91.5t154 32q118 0 186.5 -57t67.5 -155h-196q-4 27 -22 39t-53 12
q-46 0 -73.5 -31t-27.5 -88q0 -40 21 -61.5t59 -21.5q35 0 55.5 12t30.5 38h196q-20 -98 -100.5 -155t-198.5 -57q-79 0 -138 28z" />
    <glyph glyph-name="Ccaron" unicode="&#x10c;" horiz-adv-x="798" 
d="M353 838l73 62l69 -60l84 60l59 -62l-154 -104zM219 19.5q-80 41.5 -123 115.5t-43 170q0 30 2 45q11 107 69 192t151.5 132.5t206.5 47.5q109 0 187 -34.5t119 -100t40 -156.5h-220q-5 49 -43 77.5t-102 28.5q-81 0 -131.5 -50t-59.5 -137q-2 -20 -2 -30
q0 -73 40.5 -115t113.5 -42q64 0 108 28.5t59 77.5h220q-27 -137 -135 -214t-272 -77q-105 0 -185 41.5z" />
    <glyph glyph-name="ccaron" unicode="&#x10d;" horiz-adv-x="592" 
d="M212 668l81 66l72 -76l89 76l67 -66l-170 -140zM161 14q-59 28 -90.5 80t-31.5 121q0 10 2 34q8 79 49.5 138.5t109.5 91.5t154 32q118 0 186.5 -57t67.5 -155h-196q-4 27 -22 39t-53 12q-46 0 -73.5 -31t-27.5 -88q0 -40 21 -61.5t59 -21.5q35 0 55.5 12t30.5 38h196
q-20 -98 -100.5 -155t-198.5 -57q-79 0 -138 28z" />
    <glyph glyph-name="Dcaron" unicode="&#x10e;" horiz-adv-x="730" 
d="M281 838l73 62l69 -60l84 60l59 -62l-154 -104zM136 700h289q100 0 174 -40.5t114 -111t40 -158.5q0 -12 -2 -40q-10 -98 -64 -178t-141 -126t-195 -46h-289zM351 170q55 0 97 28t65 75t23 101q0 68 -38.5 112t-108.5 44h-63l-38 -360h63z" />
    <glyph glyph-name="dcaron" unicode="&#x10f;" horiz-adv-x="783" 
d="M720 509l5 42q7 -1 17 -1q32 0 50 18q11 14 14 40q-5 -6 -16.5 -10t-24.5 -4q-22 0 -35.5 14.5t-13.5 37.5q0 32 20 51.5t53 19.5t53 -20t20 -58l-1 -15q-6 -54 -38 -85t-83 -31q-13 0 -20 1zM673 700l-74 -700h-196l8 74q-22 -39 -66 -63.5t-99 -24.5q-94 0 -147 61
t-53 161q0 12 2 40q8 76 42.5 136t89.5 93.5t122 33.5q56 0 93.5 -24t51.5 -64l30 277h196zM408.5 178q29.5 34 29.5 85q0 40 -22 65t-62 25q-45 0 -74.5 -34t-29.5 -86q0 -40 22 -64.5t60 -24.5q47 0 76.5 34z" />
    <glyph glyph-name="Dcroat" unicode="&#x110;" horiz-adv-x="730" 
d="M599 659.5q74 -40.5 114 -111t40 -158.5q0 -12 -2 -40q-10 -98 -64 -178t-141 -126t-195 -46h-289l31 299h-53l11 101h53l32 300h289q100 0 174 -40.5zM448 198q42 28 65 75t23 101q0 68 -38.5 112t-108.5 44h-63l-14 -130h86l-11 -101h-86l-13 -129h63q55 0 97 28z" />
    <glyph glyph-name="dcroat" unicode="&#x111;" horiz-adv-x="666" 
d="M706 537h-51l-56 -537h-196l8 74q-22 -39 -66 -63.5t-99 -24.5q-94 0 -147 61t-53 161q0 12 2 40q8 76 42.5 136t89.5 93.5t122 33.5q56 0 93.5 -24t51.5 -64l12 114h-109l10 92h109l8 71h196l-8 -71h51zM408.5 178q29.5 34 29.5 85q0 40 -22 65t-62 25q-45 0 -74.5 -34
t-29.5 -86q0 -40 22 -64.5t60 -24.5q47 0 76.5 34z" />
    <glyph glyph-name="Emacron" unicode="&#x112;" horiz-adv-x="567" 
d="M184 857h404l-10 -100h-404zM136 700h450l-17 -156h-242l-13 -122h242l-15 -149h-242l-13 -117h242l-16 -156h-450z" />
    <glyph glyph-name="emacron" unicode="&#x113;" horiz-adv-x="597" 
d="M542 571h-364l11 103h364zM598 201h-366q-1 -39 22 -59.5t65 -20.5q65 0 81 34h190q-22 -78 -99 -123.5t-186 -45.5q-125 0 -195.5 58.5t-70.5 166.5q0 11 2 37q13 124 98.5 193.5t216.5 69.5q77 0 135 -26t89.5 -74t31.5 -111q0 -17 -1 -26q-4 -36 -13 -73zM418 309
q4 41 -16 62.5t-61 21.5q-40 0 -66 -22.5t-32 -61.5h175z" />
    <glyph glyph-name="Ebreve" unicode="&#x114;" horiz-adv-x="567" 
d="M283 755.5q-39 18.5 -60 51t-19 74.5h101q1 -31 22.5 -46.5t54.5 -15.5t58 15.5t33 46.5h101q-10 -63 -67 -103.5t-134 -40.5q-51 0 -90 18.5zM136 700h450l-17 -156h-242l-13 -122h242l-15 -149h-242l-13 -117h242l-16 -156h-450z" />
    <glyph glyph-name="ebreve" unicode="&#x115;" horiz-adv-x="597" 
d="M222 577q-45 40 -40 112h132q-2 -55 53 -55q54 0 62 55h133q-11 -71 -66.5 -111.5t-139.5 -40.5q-89 0 -134 40zM598 201h-366q-1 -39 22 -59.5t65 -20.5q65 0 81 34h190q-22 -78 -99 -123.5t-186 -45.5q-125 0 -195.5 58.5t-70.5 166.5q0 11 2 37q13 124 98.5 193.5
t216.5 69.5q77 0 135 -26t89.5 -74t31.5 -111q0 -17 -1 -26q-4 -36 -13 -73zM418 309q4 41 -16 62.5t-61 21.5q-40 0 -66 -22.5t-32 -61.5h175z" />
    <glyph glyph-name="Edotaccent" unicode="&#x116;" horiz-adv-x="567" 
d="M321.5 757q-19.5 20 -19.5 49q0 38 25.5 64t62.5 26q32 0 52 -20.5t20 -51.5q0 -35 -26 -61t-63 -26q-32 0 -51.5 20zM136 700h450l-17 -156h-242l-13 -122h242l-15 -149h-242l-13 -117h242l-16 -156h-450z" />
    <glyph glyph-name="edotaccent" unicode="&#x117;" horiz-adv-x="597" 
d="M288 565.5q-27 25.5 -27 65.5q0 48 34.5 80.5t82.5 32.5q41 0 67.5 -25t26.5 -64q0 -49 -33.5 -82t-81.5 -33q-42 0 -69 25.5zM598 201h-366q-1 -39 22 -59.5t65 -20.5q65 0 81 34h190q-22 -78 -99 -123.5t-186 -45.5q-125 0 -195.5 58.5t-70.5 166.5q0 11 2 37
q13 124 98.5 193.5t216.5 69.5q77 0 135 -26t89.5 -74t31.5 -111q0 -17 -1 -26q-4 -36 -13 -73zM418 309q4 41 -16 62.5t-61 21.5q-40 0 -66 -22.5t-32 -61.5h175z" />
    <glyph glyph-name="Eogonek" unicode="&#x118;" horiz-adv-x="567" 
d="M327 544l-13 -122h242l-15 -149h-242l-13 -117h242l-16 -156q-57 -2 -82 -22t-25 -44q0 -18 12 -29t33 -11q25 0 49 12l-9 -88q-29 -11 -53 -15t-59 -4q-68 0 -102.5 28t-30.5 71q8 66 77 102h-260l74 700h450l-17 -156h-242z" />
    <glyph glyph-name="eogonek" unicode="&#x119;" horiz-adv-x="597" 
d="M598 201h-366q-1 -39 22 -59.5t65 -20.5q65 0 81 34h190q-16 -57 -61.5 -97t-113.5 -58h9q-7 0 -11 -1q-24 -6 -48 -9q-25 -10 -36.5 -25t-11.5 -31q0 -18 12 -29t33 -11q25 0 49 12l-9 -88q-29 -11 -53 -15t-59 -4q-65 0 -99 25.5t-34 65.5q0 63 65 103
q-88 18 -135.5 73.5t-47.5 144.5q0 11 2 37q13 124 98.5 193.5t216.5 69.5q77 0 135 -26t89.5 -74t31.5 -111q0 -17 -1 -26q-4 -36 -13 -73zM418 309q4 41 -16 62.5t-61 21.5q-40 0 -66 -22.5t-32 -61.5h175z" />
    <glyph glyph-name="Ecaron" unicode="&#x11a;" horiz-adv-x="567" 
d="M242 838l73 62l69 -60l84 60l59 -62l-154 -104zM136 700h450l-17 -156h-242l-13 -122h242l-15 -149h-242l-13 -117h242l-16 -156h-450z" />
    <glyph glyph-name="ecaron" unicode="&#x11b;" horiz-adv-x="597" 
d="M353 528l-139 140l81 66l72 -76l89 76l67 -66zM598 201h-366q-1 -39 22 -59.5t65 -20.5q65 0 81 34h190q-22 -78 -99 -123.5t-186 -45.5q-125 0 -195.5 58.5t-70.5 166.5q0 11 2 37q13 124 98.5 193.5t216.5 69.5q77 0 135 -26t89.5 -74t31.5 -111q0 -17 -1 -26
q-4 -36 -13 -73zM418 309q4 41 -16 62.5t-61 21.5q-40 0 -66 -22.5t-32 -61.5h175z" />
    <glyph glyph-name="Gcircumflex" unicode="&#x11c;" horiz-adv-x="832" 
d="M405 729l-60 62l154 104l131 -104l-72 -62l-70 60zM848 244h-55q-42 -128 -144 -197t-253 -69q-103 0 -181 41t-120.5 114.5t-42.5 168.5q0 22 3 46q12 108 68 193t149.5 133t211.5 48q101 0 176.5 -31t115.5 -86.5t38 -127.5h-226q-5 35 -37 56.5t-84 21.5
q-83 0 -134 -54.5t-61 -145.5q-2 -20 -2 -30q0 -77 41 -123.5t112 -46.5q116 0 156 89h-115l14 141h384z" />
    <glyph glyph-name="gcircumflex" unicode="&#x11d;" horiz-adv-x="656" 
d="M529 594l-81 -66l-73 76l-88 -76l-67 66l169 140zM651 497l-48 -455q-7 -69 -39 -121.5t-84 -84.5q-69 -43 -188 -43q-60 0 -102.5 8t-76.5 28q-37 21 -60.5 56.5t-23.5 72.5l1 12h198q2 -21 20.5 -32.5t54.5 -11.5q93 0 102 90l8 78q-19 -37 -65 -60t-97 -23
q-95 0 -149.5 58t-54.5 154q0 11 2 35q8 74 42.5 131.5t90 89.5t123.5 32q53 0 92 -24t50 -64l8 74h196zM409.5 184.5q29.5 34.5 29.5 85.5q0 39 -22 64.5t-61 25.5q-45 0 -75 -34.5t-30 -86.5q0 -39 23 -64t60 -25q46 0 75.5 34.5z" />
    <glyph glyph-name="Gbreve" unicode="&#x11e;" horiz-adv-x="832" 
d="M393 755.5q-39 18.5 -60 51t-19 74.5h101q1 -31 22.5 -46.5t54.5 -15.5t58 15.5t33 46.5h101q-10 -63 -67 -103.5t-134 -40.5q-51 0 -90 18.5zM848 244h-55q-42 -128 -144 -197t-253 -69q-103 0 -181 41t-120.5 114.5t-42.5 168.5q0 22 3 46q12 108 68 193t149.5 133
t211.5 48q101 0 176.5 -31t115.5 -86.5t38 -127.5h-226q-5 35 -37 56.5t-84 21.5q-83 0 -134 -54.5t-61 -145.5q-2 -20 -2 -30q0 -77 41 -123.5t112 -46.5q116 0 156 89h-115l14 141h384z" />
    <glyph glyph-name="gbreve" unicode="&#x11f;" horiz-adv-x="656" 
d="M236 577q-45 40 -40 112h132q-2 -55 53 -55q54 0 62 55h133q-11 -71 -66.5 -111.5t-139.5 -40.5q-89 0 -134 40zM651 497l-48 -455q-7 -69 -39 -121.5t-84 -84.5q-69 -43 -188 -43q-60 0 -102.5 8t-76.5 28q-37 21 -60.5 56.5t-23.5 72.5l1 12h198q2 -21 20.5 -32.5
t54.5 -11.5q93 0 102 90l8 78q-19 -37 -65 -60t-97 -23q-95 0 -149.5 58t-54.5 154q0 11 2 35q8 74 42.5 131.5t90 89.5t123.5 32q53 0 92 -24t50 -64l8 74h196zM409.5 184.5q29.5 34.5 29.5 85.5q0 39 -22 64.5t-61 25.5q-45 0 -75 -34.5t-30 -86.5q0 -39 23 -64t60 -25
q46 0 75.5 34.5z" />
    <glyph glyph-name="Gdotaccent" unicode="&#x120;" horiz-adv-x="832" 
d="M431.5 757q-19.5 20 -19.5 49q0 38 25.5 64t62.5 26q32 0 52 -20.5t20 -51.5q0 -35 -26 -61t-63 -26q-32 0 -51.5 20zM848 244h-55q-42 -128 -144 -197t-253 -69q-103 0 -181 41t-120.5 114.5t-42.5 168.5q0 22 3 46q12 108 68 193t149.5 133t211.5 48q101 0 176.5 -31
t115.5 -86.5t38 -127.5h-226q-5 35 -37 56.5t-84 21.5q-83 0 -134 -54.5t-61 -145.5q-2 -20 -2 -30q0 -77 41 -123.5t112 -46.5q116 0 156 89h-115l14 141h384z" />
    <glyph glyph-name="gdotaccent" unicode="&#x121;" horiz-adv-x="656" 
d="M302 565.5q-27 25.5 -27 65.5q0 48 34.5 80.5t82.5 32.5q41 0 67.5 -25t26.5 -64q0 -49 -33.5 -82t-81.5 -33q-42 0 -69 25.5zM651 497l-48 -455q-7 -69 -39 -121.5t-84 -84.5q-69 -43 -188 -43q-60 0 -102.5 8t-76.5 28q-37 21 -60.5 56.5t-23.5 72.5l1 12h198
q2 -21 20.5 -32.5t54.5 -11.5q93 0 102 90l8 78q-19 -37 -65 -60t-97 -23q-95 0 -149.5 58t-54.5 154q0 11 2 35q8 74 42.5 131.5t90 89.5t123.5 32q53 0 92 -24t50 -64l8 74h196zM409.5 184.5q29.5 34.5 29.5 85.5q0 39 -22 64.5t-61 25.5q-45 0 -75 -34.5t-30 -86.5
q0 -39 23 -64t60 -25q46 0 75.5 34.5z" />
    <glyph glyph-name="Gcommaaccent" unicode="&#x122;" horiz-adv-x="832" 
d="M848 244h-55q-42 -128 -144 -197t-253 -69q-103 0 -181 41t-120.5 114.5t-42.5 168.5q0 22 3 46q12 108 68 193t149.5 133t211.5 48q101 0 176.5 -31t115.5 -86.5t38 -127.5h-226q-5 35 -37 56.5t-84 21.5q-83 0 -134 -54.5t-61 -145.5q-2 -20 -2 -30q0 -77 41 -123.5
t112 -46.5q116 0 156 89h-115l14 141h384zM457 -51.5q20 -20.5 16 -57.5q-6 -53 -40 -80.5t-94 -28.5l5 42q38 0 54 11q17 11 21 34q-11 -14 -34 -14q-25 0 -39 13t-14 35q0 29 20 47.5t50 18.5q35 0 55 -20.5z" />
    <glyph glyph-name="gcommaaccent" unicode="&#x123;" horiz-adv-x="656" 
d="M401 675q-37 0 -51 -10q-19 -15 -23 -34q2 6 11.5 10.5t21.5 4.5q24 0 36 -13.5t12 -35.5q0 -25 -18 -44.5t-48 -19.5t-47.5 19.5t-17.5 50.5l1 12q5 50 38 74.5t89 24.5zM651 497l-48 -455q-7 -69 -39 -121.5t-84 -84.5q-69 -43 -188 -43q-60 0 -102.5 8t-76.5 28
q-37 21 -60.5 56.5t-23.5 72.5l1 12h198q2 -21 20.5 -32.5t54.5 -11.5q93 0 102 90l8 78q-19 -37 -65 -60t-97 -23q-95 0 -149.5 58t-54.5 154q0 11 2 35q8 74 42.5 131.5t90 89.5t123.5 32q53 0 92 -24t50 -64l8 74h196zM409.5 184.5q29.5 34.5 29.5 85.5q0 39 -22 64.5
t-61 25.5q-45 0 -75 -34.5t-30 -86.5q0 -39 23 -64t60 -25q46 0 75.5 34.5z" />
    <glyph glyph-name="Hcircumflex" unicode="&#x124;" horiz-adv-x="735" 
d="M592 791l-72 -62l-70 60l-83 -60l-60 62l154 104zM136 700h208l-28 -266h195l28 266h208l-74 -700h-208l27 261h-195l-27 -261h-208z" />
    <glyph glyph-name="hcircumflex" unicode="&#x125;" horiz-adv-x="647" 
d="M240 789l-91 -68l-49 60l151 114l127 -114l-67 -60zM630 345q0 -12 -2 -42l-32 -303h-200l27 253q1 8 1 22q0 37 -15 54.5t-46 17.5q-74 0 -84 -98l-26 -249h-196l74 700h196l-29 -276q24 43 67.5 65t102.5 22q162 0 162 -166z" />
    <glyph glyph-name="Hbar" unicode="&#x126;" horiz-adv-x="735" 
d="M763 519h-35l-55 -519h-208l27 261h-195l-27 -261h-208l55 519h-35l8 79h35l11 102h208l-11 -102h195l11 102h208l-11 -102h35zM520 519h-195l-9 -85h195z" />
    <glyph glyph-name="hbar" unicode="&#x127;" horiz-adv-x="647" 
d="M630 345q0 -12 -2 -42l-32 -303h-200l27 253q1 8 1 22q0 37 -15 54.5t-46 17.5q-74 0 -84 -98l-26 -249h-196l56 537h-39l10 92h39l8 71h196l-8 -71h120l-10 -92h-120l-11 -113q24 43 67.5 65t102.5 22q162 0 162 -166z" />
    <glyph glyph-name="Itilde" unicode="&#x128;" horiz-adv-x="332" 
d="M272.5 747q-12.5 6 -30.5 19q-13 10 -23 15.5t-21 5.5q-28 0 -58 -40l-28 69q27 40 48 53.5t40 13.5q16 0 28.5 -6.5t30.5 -18.5q13 -10 23.5 -15.5t21.5 -5.5q14 0 26 6.5t37 29.5l25 -71q-23 -35 -47 -48t-44 -13q-16 0 -28.5 6zM136 700h208l-74 -700h-208z" />
    <glyph glyph-name="itilde" unicode="&#x129;" horiz-adv-x="309" 
d="M235.5 539q-12.5 7 -28.5 21q-13 11 -23 17t-21 6q-14 0 -26 -10t-28 -31l-21 78q20 50 42 68t41 18q17 0 30 -7.5t30 -21.5q15 -12 24 -17.5t20 -5.5q13 0 23.5 6.5t34.5 30.5l17 -84q-20 -44 -43.5 -59.5t-42.5 -15.5q-16 0 -28.5 7zM109 497h196l-52 -497h-196z" />
    <glyph glyph-name="Imacron" unicode="&#x12a;" horiz-adv-x="332" 
d="M134 867h246l-11 -103h-246zM136 700h208l-74 -700h-208z" />
    <glyph glyph-name="imacron" unicode="&#x12b;" horiz-adv-x="309" 
d="M100 662h249l-12 -113h-249zM109 497h196l-52 -497h-196z" />
    <glyph glyph-name="Ibreve" unicode="&#x12c;" horiz-adv-x="332" 
d="M149 762q-37 30 -37 97q0 16 1 25h95q-6 -72 43 -72q23 0 39 18.5t20 53.5h95q-8 -80 -53.5 -116t-108.5 -36q-57 0 -94 30zM136 700h208l-74 -700h-208z" />
    <glyph glyph-name="ibreve" unicode="&#x12d;" horiz-adv-x="309" 
d="M118 557q-36 31 -36 98q0 9 2 29h98q-1 -6 -1 -16q0 -50 38 -50q43 0 51 66h99q-9 -83 -53.5 -120.5t-106.5 -37.5q-55 0 -91 31zM109 497h196l-52 -497h-196z" />
    <glyph glyph-name="Iogonek" unicode="&#x12e;" horiz-adv-x="332" 
d="M188 -22q-25 -20 -25 -44q0 -18 12 -29t33 -11q25 0 49 12l-9 -88q-29 -11 -53 -15t-59 -4q-68 0 -102.5 28t-30.5 71q8 66 77 102h-18l74 700h208l-74 -700q-57 -2 -82 -22z" />
    <glyph glyph-name="iogonek" unicode="&#x12f;" horiz-adv-x="309" 
d="M138 542q-28 28 -28 68q0 32 16.5 59t44.5 43t61 16q43 0 70.5 -27.5t27.5 -68.5q0 -31 -16.5 -58t-44.5 -43.5t-60 -16.5q-43 0 -71 28zM109 497h196l-52 -497q-57 -2 -82 -22t-25 -44q0 -18 12 -29t33 -11q25 0 49 12l-9 -88q-29 -11 -53 -15t-59 -4q-68 0 -102.5 28
t-30.5 71q8 66 77 102h-6z" />
    <glyph glyph-name="Idotaccent" unicode="&#x130;" horiz-adv-x="332" 
d="M191.5 757q-19.5 20 -19.5 49q0 38 25.5 64t62.5 26q32 0 52 -20.5t20 -51.5q0 -35 -26 -61t-63 -26q-32 0 -51.5 20zM136 700h208l-74 -700h-208z" />
    <glyph glyph-name="dotlessi" unicode="&#x131;" horiz-adv-x="309" 
d="M109 497h196l-52 -497h-196z" />
    <glyph glyph-name="IJ" unicode="&#x132;" horiz-adv-x="952" 
d="M136 700h208l-74 -700h-208zM431 45q-64 64 -64 171q0 13 2 39h208q-1 -8 -1 -22q0 -37 16.5 -57.5t48.5 -20.5q38 0 59 25t26 68l48 452h209l-46 -432q-15 -145 -97 -216t-217 -71q-128 0 -192 64z" />
    <glyph glyph-name="ij" unicode="&#x133;" horiz-adv-x="620" 
d="M138 542q-28 28 -28 68q0 32 16.5 59t44.5 43t61 16q43 0 70.5 -27.5t27.5 -68.5q0 -31 -16.5 -58t-44.5 -43.5t-60 -16.5q-43 0 -71 28zM448 542q-28 28 -28 68q0 32 16.5 59t44.5 43t61 16q43 0 70.5 -27.5t27.5 -68.5q0 -31 -16.5 -58t-44.5 -43.5t-60 -16.5
q-43 0 -71 28zM109 497h196l-52 -497h-196zM317.5 -193.5q-17.5 2.5 -39.5 8.5l14 137q18 -3 32 -3q19 0 29.5 10.5t12.5 34.5l53 503h196l-53 -509q-10 -92 -61.5 -138t-139.5 -46q-26 0 -43.5 2.5z" />
    <glyph glyph-name="Jcircumflex" unicode="&#x134;" horiz-adv-x="620" 
d="M558 789l-91 -68l-49 60l151 114l127 -114l-67 -60zM99 45q-64 64 -64 171q0 13 2 39h208q-1 -8 -1 -22q0 -37 16.5 -57.5t48.5 -20.5q38 0 59 25t26 68l48 452h209l-46 -432q-15 -145 -97 -216t-217 -71q-128 0 -192 64z" />
    <glyph glyph-name="jcircumflex" unicode="&#x135;" horiz-adv-x="311" 
d="M419 594l-81 -66l-73 76l-88 -76l-67 66l169 140zM8.5 -193.5q-17.5 2.5 -39.5 8.5l14 137q18 -3 32 -3q19 0 29.5 10.5t12.5 34.5l53 503h196l-53 -509q-10 -92 -61.5 -138t-139.5 -46q-26 0 -43.5 2.5z" />
    <glyph glyph-name="Kcommaaccent" unicode="&#x136;" horiz-adv-x="716" 
d="M497 352l212 -352h-239l-168 304l-32 -304h-208l74 700h208l-32 -304l232 304h239zM403 -51.5q20 -20.5 16 -57.5q-6 -53 -40 -80.5t-94 -28.5l5 42q38 0 54 11q17 11 21 34q-11 -14 -34 -14q-25 0 -39 13t-14 35q0 29 20 47.5t50 18.5q35 0 55 -20.5z" />
    <glyph glyph-name="kcommaaccent" unicode="&#x137;" horiz-adv-x="631" 
d="M275 206l-22 -206h-196l74 700h196l-42 -399l158 196h222l-205 -233l159 -264h-231zM370 -51.5q20 -20.5 16 -57.5q-6 -53 -40 -80.5t-94 -28.5l5 42q38 0 54 11q17 11 21 34q-11 -14 -34 -14q-25 0 -39 13t-14 35q0 29 20 47.5t50 18.5q35 0 55 -20.5z" />
    <glyph glyph-name="kgreenlandic" unicode="&#x138;" horiz-adv-x="631" 
d="M388 0l-113 206l-22 -206h-196l52 497h196l-20 -196l158 196h222l-205 -233l159 -264h-231z" />
    <glyph glyph-name="Lacute" unicode="&#x139;" horiz-adv-x="545" 
d="M123 811l224 91l35 -84l-225 -91zM136 700h208l-55 -521h238l-19 -179h-446z" />
    <glyph glyph-name="lacute" unicode="&#x13a;" horiz-adv-x="310" 
d="M111 811l224 91l35 -84l-225 -91zM131 700h196l-74 -700h-196z" />
    <glyph glyph-name="Lcommaaccent" unicode="&#x13b;" horiz-adv-x="545" 
d="M136 700h208l-55 -521h238l-19 -179h-446zM226 -176q37 0 54 11t21 34q-11 -14 -34 -14q-25 0 -39 13t-14 35q0 29 20 47.5t50 18.5q35 0 55 -20.5t16 -57.5q-6 -53 -40 -80.5t-94 -28.5z" />
    <glyph glyph-name="lcommaaccent" unicode="&#x13c;" horiz-adv-x="310" 
d="M131 700h196l-74 -700h-196zM93 -176q38 0 54 11q17 11 21 34q-11 -14 -34 -14q-25 0 -39 13t-14 35q0 29 20 47.5t50 18.5q35 0 55 -20.5t16 -57.5q-6 -53 -40 -80.5t-94 -28.5z" />
    <glyph glyph-name="Lcaron" unicode="&#x13d;" horiz-adv-x="545" 
d="M379 509l5 42q7 -1 17 -1q32 0 50 18q11 14 14 40q-5 -6 -16.5 -10t-24.5 -4q-22 0 -35.5 14.5t-13.5 37.5q0 32 20 51.5t53 19.5t53 -20t20 -58l-1 -15q-6 -54 -38 -85t-83 -31q-13 0 -20 1zM136 700h208l-55 -521h238l-19 -179h-446z" />
    <glyph glyph-name="lcaron" unicode="&#x13e;" horiz-adv-x="444" 
d="M377 509l5 42q7 -1 17 -1q32 0 50 18q11 14 14 40q-5 -6 -16.5 -10t-24.5 -4q-22 0 -35.5 14.5t-13.5 37.5q0 32 20 51.5t53 19.5t53 -20t20 -58l-1 -15q-6 -54 -38 -85t-83 -31q-13 0 -20 1zM131 700h196l-74 -700h-196z" />
    <glyph glyph-name="Ldot" unicode="&#x13f;" horiz-adv-x="545" 
d="M136 700h208l-55 -521h238l-19 -179h-446zM383 322q-32 32 -32 78q0 36 19 67t51 49.5t68 18.5q49 0 81 -31.5t32 -77.5q0 -36 -19 -67.5t-51 -50t-69 -18.5q-48 0 -80 32z" />
    <glyph glyph-name="ldot" unicode="&#x140;" horiz-adv-x="509" 
d="M131 700h196l-74 -700h-196zM343 280q-29 29 -29 72q0 32 17.5 60.5t46.5 45t62 16.5q45 0 74 -28.5t29 -70.5q0 -32 -17.5 -61t-47 -46t-62.5 -17q-44 0 -73 29z" />
    <glyph glyph-name="Lslash" unicode="&#x141;" horiz-adv-x="529" 
d="M527 179l-19 -179h-446l27 253l-46 -22l11 102l45 22l37 345h208l-26 -241l123 58l-10 -102l-123 -58l-19 -178h238z" />
    <glyph glyph-name="lslash" unicode="&#x142;" horiz-adv-x="310" 
d="M351 403l-60 -32l-39 -371h-196l28 262l-59 -31l11 100l58 31l36 338h196l-25 -230l61 32z" />
    <glyph glyph-name="Nacute" unicode="&#x143;" horiz-adv-x="742" 
d="M338 813l235 86l30 -86l-235 -86zM136 700h210l166 -398l42 398h200l-74 -700h-210l-166 398l-42 -398h-200z" />
    <glyph glyph-name="nacute" unicode="&#x144;" horiz-adv-x="647" 
d="M273 620l189 145l69 -84l-191 -146zM109 497h196l-7 -73q24 43 67.5 65t102.5 22q162 0 162 -166q0 -12 -2 -42l-32 -303h-200l27 253q1 8 1 22q0 37 -15 54.5t-46 17.5q-74 0 -84 -98l-26 -249h-196z" />
    <glyph glyph-name="Ncommaaccent" unicode="&#x145;" horiz-adv-x="742" 
d="M136 700h210l166 -398l42 398h200l-74 -700h-210l-166 398l-42 -398h-200zM322 -176q37 0 54 11t21 34q-11 -14 -34 -14q-25 0 -39 13t-14 35q0 29 20 47.5t50 18.5q35 0 55 -20.5t16 -57.5q-6 -53 -40 -80.5t-94 -28.5z" />
    <glyph glyph-name="ncommaaccent" unicode="&#x146;" horiz-adv-x="647" 
d="M109 497h196l-7 -73q24 43 67.5 65t102.5 22q162 0 162 -166q0 -12 -2 -42l-32 -303h-200l27 253q1 8 1 22q0 37 -15 54.5t-46 17.5q-74 0 -84 -98l-26 -249h-196zM260 -176q38 0 54 11q17 11 21 34q-11 -14 -34 -14q-25 0 -39 13t-14 35q0 29 20 47.5t50 18.5
q35 0 55 -20.5t16 -57.5q-6 -53 -40 -80.5t-94 -28.5z" />
    <glyph glyph-name="Ncaron" unicode="&#x147;" horiz-adv-x="742" 
d="M330 838l73 62l69 -60l84 60l59 -62l-154 -104zM136 700h210l166 -398l42 398h200l-74 -700h-210l-166 398l-42 -398h-200z" />
    <glyph glyph-name="ncaron" unicode="&#x148;" horiz-adv-x="647" 
d="M237 668l81 66l72 -76l89 76l67 -66l-170 -140zM109 497h196l-7 -73q24 43 67.5 65t102.5 22q162 0 162 -166q0 -12 -2 -42l-32 -303h-200l27 253q1 8 1 22q0 37 -15 54.5t-46 17.5q-74 0 -84 -98l-26 -249h-196z" />
    <glyph glyph-name="napostrophe" unicode="&#x149;" horiz-adv-x="671" 
d="M84 509l5 42q7 -1 17 -1q32 0 50 18q11 14 14 40q-5 -6 -16.5 -10t-24.5 -4q-22 0 -35.5 14.5t-13.5 37.5q0 32 20 51.5t53 19.5t53 -20t20 -58l-1 -15q-6 -54 -38 -85t-83 -31q-13 0 -20 1zM133 497h196l-7 -73q24 43 67.5 65t102.5 22q162 0 162 -166q0 -12 -2 -42
l-32 -303h-200l27 253q1 8 1 22q0 37 -15 54.5t-46 17.5q-74 0 -84 -98l-26 -249h-196z" />
    <glyph glyph-name="Eng" unicode="&#x14a;" horiz-adv-x="742" 
d="M365 -183l13 130q24 -3 44 -3q22 0 34 9.5t15 33.5l1 13l-168 398l-42 -398h-200l74 700h210l166 -397l42 397h200l-77 -725q-9 -89 -65.5 -130t-158.5 -41q-50 0 -88 13z" />
    <glyph glyph-name="eng" unicode="&#x14b;" horiz-adv-x="647" 
d="M630 345q0 -12 -2 -42l-35 -335q-9 -82 -65 -123t-154 -41q-43 0 -73 13l13 123q6 -1 13.5 -2.5t16.5 -1.5q46 0 50 42l29 275q1 8 1 22q0 37 -15 54.5t-46 17.5q-74 0 -84 -98l-26 -249h-196l52 497h196l-7 -73q24 43 67.5 65t102.5 22q162 0 162 -166z" />
    <glyph glyph-name="Omacron" unicode="&#x14c;" horiz-adv-x="809" 
d="M292 857h404l-10 -100h-404zM214 22q-79 44 -120 119t-41 166q0 29 2 43q11 101 66.5 186t148 135.5t210.5 50.5q109 0 188 -44t120 -119t41 -166q0 -29 -2 -43q-11 -101 -66.5 -186t-148 -135.5t-210.5 -50.5q-109 0 -188 44zM523.5 193.5q43.5 29.5 66 78.5t22.5 105
q0 70 -39 114.5t-113 44.5q-59 0 -102 -29.5t-65.5 -78.5t-22.5 -105q0 -70 39 -114.5t112 -44.5q59 0 102.5 29.5z" />
    <glyph glyph-name="omacron" unicode="&#x14d;" horiz-adv-x="609" 
d="M193 674h364l-11 -103h-364zM162.5 14.5q-59.5 28.5 -91.5 81t-32 121.5q0 10 2 32q8 78 50 137.5t111 92t156 32.5q81 0 140.5 -28t91.5 -80t32 -121q0 -11 -2 -33q-8 -78 -49.5 -137.5t-111 -92.5t-156.5 -33q-81 0 -140.5 28.5zM395.5 180.5q28.5 32.5 28.5 85.5
q0 39 -22 61.5t-61 22.5q-46 0 -75.5 -32t-29.5 -83q0 -40 22.5 -63.5t61.5 -23.5q47 0 75.5 32.5z" />
    <glyph glyph-name="Obreve" unicode="&#x14e;" horiz-adv-x="809" 
d="M391 755.5q-39 18.5 -60 51t-19 74.5h101q1 -31 22.5 -46.5t54.5 -15.5t58 15.5t33 46.5h101q-10 -63 -67 -103.5t-134 -40.5q-51 0 -90 18.5zM214 22q-79 44 -120 119t-41 166q0 29 2 43q11 101 66.5 186t148 135.5t210.5 50.5q109 0 188 -44t120 -119t41 -166
q0 -29 -2 -43q-11 -101 -66.5 -186t-148 -135.5t-210.5 -50.5q-109 0 -188 44zM523.5 193.5q43.5 29.5 66 78.5t22.5 105q0 70 -39 114.5t-113 44.5q-59 0 -102 -29.5t-65.5 -78.5t-22.5 -105q0 -70 39 -114.5t112 -44.5q59 0 102.5 29.5z" />
    <glyph glyph-name="obreve" unicode="&#x14f;" horiz-adv-x="609" 
d="M226 577q-45 40 -40 112h132q-2 -55 53 -55q54 0 62 55h133q-11 -71 -66.5 -111.5t-139.5 -40.5q-89 0 -134 40zM162.5 14.5q-59.5 28.5 -91.5 81t-32 121.5q0 10 2 32q8 78 50 137.5t111 92t156 32.5q81 0 140.5 -28t91.5 -80t32 -121q0 -11 -2 -33q-8 -78 -49.5 -137.5
t-111 -92.5t-156.5 -33q-81 0 -140.5 28.5zM395.5 180.5q28.5 32.5 28.5 85.5q0 39 -22 61.5t-61 22.5q-46 0 -75.5 -32t-29.5 -83q0 -40 22.5 -63.5t61.5 -23.5q47 0 75.5 32.5z" />
    <glyph glyph-name="Ohungarumlaut" unicode="&#x150;" horiz-adv-x="809" 
d="M335 766l155 131l105 -40l-196 -118zM528 766l154 131l104 -43l-195 -116zM214 22q-79 44 -120 119t-41 166q0 29 2 43q11 101 66.5 186t148 135.5t210.5 50.5q109 0 188 -44t120 -119t41 -166q0 -29 -2 -43q-11 -101 -66.5 -186t-148 -135.5t-210.5 -50.5
q-109 0 -188 44zM523.5 193.5q43.5 29.5 66 78.5t22.5 105q0 70 -39 114.5t-113 44.5q-59 0 -102 -29.5t-65.5 -78.5t-22.5 -105q0 -70 39 -114.5t112 -44.5q59 0 102.5 29.5z" />
    <glyph glyph-name="ohungarumlaut" unicode="&#x151;" horiz-adv-x="609" 
d="M204 560l143 154l89 -60l-170 -128zM399 560l143 154l89 -60l-170 -128zM162.5 14.5q-59.5 28.5 -91.5 81t-32 121.5q0 10 2 32q8 78 50 137.5t111 92t156 32.5q81 0 140.5 -28t91.5 -80t32 -121q0 -11 -2 -33q-8 -78 -49.5 -137.5t-111 -92.5t-156.5 -33
q-81 0 -140.5 28.5zM395.5 180.5q28.5 32.5 28.5 85.5q0 39 -22 61.5t-61 22.5q-46 0 -75.5 -32t-29.5 -83q0 -40 22.5 -63.5t61.5 -23.5q47 0 75.5 32.5z" />
    <glyph glyph-name="OE" unicode="&#x152;" horiz-adv-x="913" 
d="M715 544l-13 -122h200l-15 -149h-200l-13 -117h200l-16 -156h-480q-101 0 -174.5 41t-112 111.5t-38.5 156.5q0 13 2 41q10 95 62 175t139 127.5t196 47.5h480l-17 -156h-200zM467 172l37 356h-51q-56 0 -97.5 -28t-63 -74.5t-21.5 -100.5q0 -67 37.5 -110t107.5 -43h51z
" />
    <glyph glyph-name="oe" unicode="&#x153;" horiz-adv-x="979" 
d="M980 201h-366q-1 -39 22 -59.5t65 -20.5q65 0 81 34h190q-22 -78 -99 -123.5t-186 -45.5q-123 0 -191 54q-79 -54 -193 -54q-81 0 -140.5 28.5t-91.5 81t-32 121.5q0 10 2 32q8 78 50 137.5t111 92t156 32.5q56 0 102.5 -14t80.5 -40q82 54 197 54q77 0 135 -26t89.5 -74
t31.5 -111q0 -17 -1 -26q-4 -36 -13 -73zM800 309q4 41 -16 62.5t-61 21.5q-40 0 -66 -22.5t-32 -61.5h175zM395.5 180.5q28.5 32.5 28.5 85.5q0 39 -22 61.5t-61 22.5q-46 0 -75.5 -32t-29.5 -83q0 -40 22.5 -63.5t61.5 -23.5q47 0 75.5 32.5z" />
    <glyph glyph-name="Racute" unicode="&#x154;" horiz-adv-x="692" 
d="M329 727l-30 86l235 86l30 -86zM662.5 311.5q-36.5 -57.5 -94.5 -91.5l89 -220h-239l-71 179h-58l-19 -179h-208l74 700h338q68 0 121.5 -29.5t83 -81.5t29.5 -118q0 -10 -2 -32q-7 -70 -43.5 -127.5zM306 340h86q43 0 73.5 32t30.5 80q0 38 -23 62t-59 24h-87z" />
    <glyph glyph-name="racute" unicode="&#x155;" horiz-adv-x="449" 
d="M168 620l189 145l69 -84l-191 -146zM109 497h196l-11 -111q19 57 61 89t94 32q19 0 37 -3l-19 -185q-25 4 -50 4q-66 0 -102 -38t-44 -118l-18 -167h-196z" />
    <glyph glyph-name="Rcommaaccent" unicode="&#x156;" horiz-adv-x="692" 
d="M662.5 311.5q-36.5 -57.5 -94.5 -91.5l89 -220h-239l-71 179h-58l-19 -179h-208l74 700h338q68 0 121.5 -29.5t83 -81.5t29.5 -118q0 -10 -2 -32q-7 -70 -43.5 -127.5zM306 340h86q43 0 73.5 32t30.5 80q0 38 -23 62t-59 24h-87zM395 -51.5q20 -20.5 16 -57.5
q-6 -53 -40 -80.5t-94 -28.5l5 42q38 0 54 11q17 11 21 34q-11 -14 -34 -14q-25 0 -39 13t-14 35q0 29 20 47.5t50 18.5q35 0 55 -20.5z" />
    <glyph glyph-name="rcommaaccent" unicode="&#x157;" horiz-adv-x="449" 
d="M109 497h196l-11 -111q19 57 61 89t94 32q19 0 37 -3l-19 -185q-25 4 -50 4q-66 0 -102 -38t-44 -118l-18 -167h-196zM93 -176q38 0 54 11q17 11 21 34q-11 -14 -34 -14q-25 0 -39 13t-14 35q0 29 20 47.5t50 18.5q35 0 55 -20.5t16 -57.5q-6 -53 -40 -80.5t-94 -28.5z
" />
    <glyph glyph-name="Rcaron" unicode="&#x158;" horiz-adv-x="692" 
d="M421 734l-131 104l73 62l69 -60l84 60l59 -62zM662.5 311.5q-36.5 -57.5 -94.5 -91.5l89 -220h-239l-71 179h-58l-19 -179h-208l74 700h338q68 0 121.5 -29.5t83 -81.5t29.5 -118q0 -10 -2 -32q-7 -70 -43.5 -127.5zM306 340h86q43 0 73.5 32t30.5 80q0 38 -23 62t-59 24
h-87z" />
    <glyph glyph-name="rcaron" unicode="&#x159;" horiz-adv-x="449" 
d="M132 668l81 66l72 -76l89 76l67 -66l-170 -140zM109 497h196l-11 -111q19 57 61 89t94 32q19 0 37 -3l-19 -185q-25 4 -50 4q-66 0 -102 -38t-44 -118l-18 -167h-196z" />
    <glyph glyph-name="Sacute" unicode="&#x15a;" horiz-adv-x="611" 
d="M253 813l235 86l30 -86l-235 -86zM110 36q-71 58 -71 161q0 10 2 32h208q-1 -5 -1 -15q0 -38 21 -60t59 -22q36 0 56 17t20 48q0 21 -13.5 34t-45.5 26l-134 51q-130 51 -130 172q0 72 37 127t104.5 85t156.5 30q120 0 189 -52.5t69 -145.5q0 -17 -1 -26h-208q1 5 1 15
q0 32 -17.5 49.5t-49.5 17.5q-31 0 -50 -16t-19 -43q0 -19 16 -33t54 -29l123 -49q67 -27 98.5 -70t31.5 -103q0 -78 -38 -137t-108 -90.5t-161 -31.5q-128 0 -199 58z" />
    <glyph glyph-name="sacute" unicode="&#x15b;" horiz-adv-x="541" 
d="M219 620l189 145l69 -84l-191 -146zM100.5 25q-63.5 39 -63.5 107q0 11 1 16h195q-2 -21 13 -33t44 -12q22 0 35 9.5t13 27.5q0 11 -9 18.5t-30 12.5l-106 24q-61 14 -94 49t-33 86q0 85 68.5 133t183.5 48q113 0 172 -34.5t59 -101.5q0 -10 -1 -16h-193q4 41 -49 41
q-22 0 -34 -8.5t-12 -23.5q0 -24 44 -35l108 -28q61 -16 92.5 -47t31.5 -81q0 -12 -1 -18q-9 -82 -78.5 -127.5t-179.5 -45.5q-113 0 -176.5 39z" />
    <glyph glyph-name="Scircumflex" unicode="&#x15c;" horiz-adv-x="611" 
d="M523 791l-72 -62l-70 60l-83 -60l-60 62l154 104zM110 36q-71 58 -71 161q0 10 2 32h208q-1 -5 -1 -15q0 -38 21 -60t59 -22q36 0 56 17t20 48q0 21 -13.5 34t-45.5 26l-134 51q-130 51 -130 172q0 72 37 127t104.5 85t156.5 30q120 0 189 -52.5t69 -145.5q0 -17 -1 -26
h-208q1 5 1 15q0 32 -17.5 49.5t-49.5 17.5q-31 0 -50 -16t-19 -43q0 -19 16 -33t54 -29l123 -49q67 -27 98.5 -70t31.5 -103q0 -78 -38 -137t-108 -90.5t-161 -31.5q-128 0 -199 58z" />
    <glyph glyph-name="scircumflex" unicode="&#x15d;" horiz-adv-x="541" 
d="M484 594l-81 -66l-73 76l-88 -76l-67 66l169 140zM100.5 25q-63.5 39 -63.5 107q0 11 1 16h195q-2 -21 13 -33t44 -12q22 0 35 9.5t13 27.5q0 11 -9 18.5t-30 12.5l-106 24q-61 14 -94 49t-33 86q0 85 68.5 133t183.5 48q113 0 172 -34.5t59 -101.5q0 -10 -1 -16h-193
q4 41 -49 41q-22 0 -34 -8.5t-12 -23.5q0 -24 44 -35l108 -28q61 -16 92.5 -47t31.5 -81q0 -12 -1 -18q-9 -82 -78.5 -127.5t-179.5 -45.5q-113 0 -176.5 39z" />
    <glyph glyph-name="Scedilla" unicode="&#x15e;" horiz-adv-x="611" 
d="M581 104q-35 -57 -99.5 -89.5t-149.5 -35.5l-4 -38q6 5 17.5 8.5t26.5 3.5q33 0 51.5 -19t18.5 -49q0 -37 -30 -64.5t-80 -27.5q-43 0 -69 19.5t-25 51.5h72q1 -8 8 -13.5t18 -5.5q15 0 24 10.5t9 28.5q0 25 -25 25q-19 0 -27 -13h-66l9 84q-105 11 -163 67.5t-58 149.5
q0 10 2 32h208q-1 -5 -1 -15q0 -38 21 -60t59 -22q36 0 56 17t20 48q0 21 -13.5 34t-45.5 26l-134 51q-130 51 -130 172q0 72 37 127t104.5 85t156.5 30q120 0 189 -52.5t69 -145.5q0 -17 -1 -26h-208q1 5 1 15q0 32 -17.5 49.5t-49.5 17.5q-31 0 -50 -16t-19 -43
q0 -19 16 -33t54 -29l123 -49q67 -27 98.5 -70t31.5 -103q0 -76 -35 -133z" />
    <glyph glyph-name="scedilla" unicode="&#x15f;" horiz-adv-x="541" 
d="M474.5 45q-61.5 -50 -164.5 -58l-5 -46q6 5 17.5 8.5t26.5 3.5q33 0 51.5 -19t18.5 -49q0 -37 -30 -64.5t-80 -27.5q-43 0 -69 19.5t-25 51.5h72q1 -8 8 -13.5t18 -5.5q15 0 24 10.5t9 28.5q0 25 -25 25q-19 0 -27 -13h-66l10 91q-95 7 -148 45t-53 100q0 11 1 16h195
q-2 -21 13 -33t44 -12q22 0 35 9.5t13 27.5q0 11 -9 18.5t-30 12.5l-106 24q-61 14 -94 49t-33 86q0 85 68.5 133t183.5 48q113 0 172 -34.5t59 -101.5q0 -10 -1 -16h-193q4 41 -49 41q-22 0 -34 -8.5t-12 -23.5q0 -24 44 -35l108 -28q61 -16 92.5 -47t31.5 -81
q0 -82 -61.5 -132z" />
    <glyph glyph-name="Scaron" unicode="&#x160;" horiz-adv-x="611" 
d="M244 838l73 62l69 -60l84 60l59 -62l-154 -104zM110 36q-71 58 -71 161q0 10 2 32h208q-1 -5 -1 -15q0 -38 21 -60t59 -22q36 0 56 17t20 48q0 21 -13.5 34t-45.5 26l-134 51q-130 51 -130 172q0 72 37 127t104.5 85t156.5 30q120 0 189 -52.5t69 -145.5q0 -17 -1 -26
h-208q1 5 1 15q0 32 -17.5 49.5t-49.5 17.5q-31 0 -50 -16t-19 -43q0 -19 16 -33t54 -29l123 -49q67 -27 98.5 -70t31.5 -103q0 -78 -38 -137t-108 -90.5t-161 -31.5q-128 0 -199 58z" />
    <glyph glyph-name="scaron" unicode="&#x161;" horiz-adv-x="541" 
d="M183 668l81 66l72 -76l89 76l67 -66l-170 -140zM100.5 25q-63.5 39 -63.5 107q0 11 1 16h195q-2 -21 13 -33t44 -12q22 0 35 9.5t13 27.5q0 11 -9 18.5t-30 12.5l-106 24q-61 14 -94 49t-33 86q0 85 68.5 133t183.5 48q113 0 172 -34.5t59 -101.5q0 -10 -1 -16h-193
q4 41 -49 41q-22 0 -34 -8.5t-12 -23.5q0 -24 44 -35l108 -28q61 -16 92.5 -47t31.5 -81q0 -12 -1 -18q-9 -82 -78.5 -127.5t-179.5 -45.5q-113 0 -176.5 39z" />
    <glyph glyph-name="uni0162" unicode="&#x162;" horiz-adv-x="579" 
d="M326 0l-6 -59q6 5 17.5 8.5t26.5 3.5q33 0 51.5 -19t18.5 -49q0 -37 -30 -64.5t-80 -27.5q-43 0 -69 19.5t-25 51.5h72q1 -8 8 -13.5t18 -5.5q15 0 24 10.5t9 28.5q0 25 -25 25q-19 0 -27 -13h-66l11 104h-69l55 521h-180l19 179h569l-19 -179h-180l-55 -521h-68z" />
    <glyph glyph-name="uni0163" unicode="&#x163;" horiz-adv-x="422" 
d="M387.5 -66q18.5 -19 18.5 -49q0 -37 -30 -64.5t-80 -27.5q-43 0 -69 19.5t-25 51.5h72q1 -8 8 -13.5t18 -5.5q15 0 24 10.5t9 28.5q0 25 -25 25q-19 0 -27 -13h-66l10 98q-120 19 -120 149q0 10 2 36l17 168h-73l16 150h73l15 145h196l-15 -145h113l-16 -150h-113
l-13 -127q-1 -5 -1 -15q0 -34 16.5 -47t44.5 -13q17 0 51 4l-16 -149q-56 -9 -105 -10l-5 -49q6 5 17.5 8.5t26.5 3.5q33 0 51.5 -19z" />
    <glyph glyph-name="Tcaron" unicode="&#x164;" horiz-adv-x="579" 
d="M236 838l73 62l69 -60l84 60l59 -62l-154 -104zM240 521h-180l19 179h569l-19 -179h-180l-55 -521h-209z" />
    <glyph glyph-name="tcaron" unicode="&#x165;" horiz-adv-x="443" 
d="M508 703.5q19 -18.5 19 -54.5q0 -60 -32 -95t-85 -35q-12 0 -19 1l4 41q7 -1 16 -1q30 0 49 17q10 12 13 39q-4 -6 -15.5 -9.5t-23.5 -3.5q-21 0 -34.5 14t-13.5 36q0 31 19.5 50t51.5 19t51 -18.5zM306 205q0 -34 16.5 -47t44.5 -13q17 0 51 4l-16 -149
q-58 -10 -123 -10q-78 0 -126 32t-48 122q0 9 2 35l17 168h-73l16 150h73l15 145h196l-15 -145h113l-16 -150h-113l-13 -127q-1 -5 -1 -15z" />
    <glyph glyph-name="Tbar" unicode="&#x166;" horiz-adv-x="579" 
d="M449 521l-12 -114h114l-10 -95h-114l-33 -312h-209l33 312h-113l10 95h113l12 114h-180l19 179h569l-19 -179h-180z" />
    <glyph glyph-name="tbar" unicode="&#x167;" horiz-adv-x="434" 
d="M430 149l-16 -149q-58 -10 -123 -10q-78 0 -126 32t-48 122q0 9 2 35l5 47h-85l6 61h85l6 60h-73l16 150h73l15 145h196l-15 -145h113l-16 -150h-113l-6 -60h101l-6 -61h-101l-1 -6q-1 -5 -1 -15q0 -34 16.5 -47t44.5 -13q17 0 51 4z" />
    <glyph glyph-name="Utilde" unicode="&#x168;" horiz-adv-x="697" 
d="M465 740q-22 8 -49 23q-22 12 -37 18t-29 6q-23 0 -41.5 -10.5t-43.5 -35.5l-46 67q41 47 71.5 63t55.5 16q21 0 42 -8t50 -23q24 -12 40 -18.5t30 -6.5q23 0 41.5 8t54.5 36l42 -71q-36 -44 -72 -58t-65 -14q-22 0 -44 8zM141.5 41q-74.5 60 -74.5 168q0 10 2 34l48 457
h209l-47 -444q-1 -5 -1 -15q0 -39 23.5 -61.5t64.5 -22.5q44 0 73 26.5t34 72.5l47 444h208l-48 -457q-9 -81 -52.5 -140t-115.5 -90.5t-165 -31.5q-131 0 -205.5 60z" />
    <glyph glyph-name="utilde" unicode="&#x169;" horiz-adv-x="642" 
d="M418 544q-16 7 -39 21q-18 12 -30 17.5t-27 5.5q-43 0 -84 -35l-28 81q55 61 112 61q23 0 39 -7t39 -21q17 -12 30 -17.5t28 -5.5q43 0 83 35l29 -81q-55 -61 -113 -61q-23 0 -39 7zM110 30.5q-40 44.5 -40 124.5q0 11 2 39l32 303h199l-27 -260q-1 -7 -1 -20
q0 -67 59 -67q71 0 81 93l26 254h197l-52 -497h-197l8 74q-23 -42 -65 -65t-98 -23q-84 0 -124 44.5z" />
    <glyph glyph-name="Umacron" unicode="&#x16a;" horiz-adv-x="697" 
d="M237 857h404l-10 -100h-404zM141.5 41q-74.5 60 -74.5 168q0 10 2 34l48 457h209l-47 -444q-1 -5 -1 -15q0 -39 23.5 -61.5t64.5 -22.5q44 0 73 26.5t34 72.5l47 444h208l-48 -457q-9 -81 -52.5 -140t-115.5 -90.5t-165 -31.5q-131 0 -205.5 60z" />
    <glyph glyph-name="umacron" unicode="&#x16b;" horiz-adv-x="642" 
d="M212 674h364l-11 -103h-364zM110 30.5q-40 44.5 -40 124.5q0 11 2 39l32 303h199l-27 -260q-1 -7 -1 -20q0 -67 59 -67q71 0 81 93l26 254h197l-52 -497h-197l8 74q-23 -42 -65 -65t-98 -23q-84 0 -124 44.5z" />
    <glyph glyph-name="Ubreve" unicode="&#x16c;" horiz-adv-x="697" 
d="M336 755.5q-39 18.5 -60 51t-19 74.5h101q1 -31 22.5 -46.5t54.5 -15.5t58 15.5t33 46.5h101q-10 -63 -67 -103.5t-134 -40.5q-51 0 -90 18.5zM141.5 41q-74.5 60 -74.5 168q0 10 2 34l48 457h209l-47 -444q-1 -5 -1 -15q0 -39 23.5 -61.5t64.5 -22.5q44 0 73 26.5
t34 72.5l47 444h208l-48 -457q-9 -81 -52.5 -140t-115.5 -90.5t-165 -31.5q-131 0 -205.5 60z" />
    <glyph glyph-name="ubreve" unicode="&#x16d;" horiz-adv-x="642" 
d="M245 577q-45 40 -40 112h132q-2 -55 53 -55q54 0 62 55h133q-11 -71 -66.5 -111.5t-139.5 -40.5q-89 0 -134 40zM110 30.5q-40 44.5 -40 124.5q0 11 2 39l32 303h199l-27 -260q-1 -7 -1 -20q0 -67 59 -67q71 0 81 93l26 254h197l-52 -497h-197l8 74q-23 -42 -65 -65
t-98 -23q-84 0 -124 44.5z" />
    <glyph glyph-name="Uring" unicode="&#x16e;" horiz-adv-x="697" 
d="M343.5 708q-30.5 29 -30.5 71q0 32 18 60t48.5 44.5t64.5 16.5q46 0 76.5 -29t30.5 -71q0 -32 -18 -60t-48.5 -44.5t-64.5 -16.5q-46 0 -76.5 29zM465.5 757.5q15.5 15.5 15.5 38.5q0 18 -12.5 30t-31.5 12q-22 0 -38 -15.5t-16 -38.5q0 -19 12 -30.5t32 -11.5
q23 0 38.5 15.5zM141.5 41q-74.5 60 -74.5 168q0 10 2 34l48 457h209l-47 -444q-1 -5 -1 -15q0 -39 23.5 -61.5t64.5 -22.5q44 0 73 26.5t34 72.5l47 444h208l-48 -457q-9 -81 -52.5 -140t-115.5 -90.5t-165 -31.5q-131 0 -205.5 60z" />
    <glyph glyph-name="uring" unicode="&#x16f;" horiz-adv-x="642" 
d="M303 553q-29 26 -29 69q0 53 37 87t90 34q47 0 76 -27t29 -70q0 -52 -37.5 -85.5t-90.5 -33.5q-46 0 -75 26zM420.5 601q15.5 16 15.5 40q0 20 -11.5 32t-29.5 12q-21 0 -36 -16t-15 -41q0 -19 11 -31t29 -12q21 0 36.5 16zM110 30.5q-40 44.5 -40 124.5q0 11 2 39
l32 303h199l-27 -260q-1 -7 -1 -20q0 -67 59 -67q71 0 81 93l26 254h197l-52 -497h-197l8 74q-23 -42 -65 -65t-98 -23q-84 0 -124 44.5z" />
    <glyph glyph-name="Uhungarumlaut" unicode="&#x170;" horiz-adv-x="697" 
d="M280 766l155 131l105 -40l-196 -118zM473 766l154 131l104 -43l-195 -116zM141.5 41q-74.5 60 -74.5 168q0 10 2 34l48 457h209l-47 -444q-1 -5 -1 -15q0 -39 23.5 -61.5t64.5 -22.5q44 0 73 26.5t34 72.5l47 444h208l-48 -457q-9 -81 -52.5 -140t-115.5 -90.5
t-165 -31.5q-131 0 -205.5 60z" />
    <glyph glyph-name="uhungarumlaut" unicode="&#x171;" horiz-adv-x="642" 
d="M222 560l143 154l89 -60l-170 -128zM417 560l143 154l89 -60l-170 -128zM110 30.5q-40 44.5 -40 124.5q0 11 2 39l32 303h199l-27 -260q-1 -7 -1 -20q0 -67 59 -67q71 0 81 93l26 254h197l-52 -497h-197l8 74q-23 -42 -65 -65t-98 -23q-84 0 -124 44.5z" />
    <glyph glyph-name="Uogonek" unicode="&#x172;" horiz-adv-x="697" 
d="M728 700l-48 -457q-10 -90 -62.5 -153t-138.5 -90h1h-2q-34 -11 -69 -15q-36 -19 -36 -51q0 -18 12 -29t33 -11q25 0 49 12l-9 -88q-29 -11 -53 -15t-59 -4q-65 0 -99 25.5t-34 65.5q0 59 56 97q-96 17 -149 74.5t-53 147.5q0 10 2 34l48 457h209l-47 -444q-1 -5 -1 -15
q0 -39 23.5 -61.5t64.5 -22.5q44 0 73 26.5t34 72.5l47 444h208z" />
    <glyph glyph-name="uogonek" unicode="&#x173;" horiz-adv-x="642" 
d="M504 -22q-25 -20 -25 -44q0 -18 12 -29t33 -11q25 0 49 12l-9 -88q-29 -11 -53 -15t-59 -4q-68 0 -102.5 28t-30.5 71q8 66 77 102h-7l8 74q-23 -42 -65 -65t-98 -23q-84 0 -124 44.5t-40 124.5q0 11 2 39l32 303h199l-27 -260q-1 -7 -1 -20q0 -67 59 -67q71 0 81 93
l26 254h197l-52 -497q-57 -2 -82 -22z" />
    <glyph glyph-name="Wcircumflex" unicode="&#x174;" horiz-adv-x="1087" 
d="M768 791l-72 -62l-70 60l-83 -60l-60 62l154 104zM67 700h221l81 -422l166 422h165l76 -422l171 422h221l-326 -700h-182l-76 381l-157 -381h-182z" />
    <glyph glyph-name="wcircumflex" unicode="&#x175;" horiz-adv-x="861" 
d="M646 594l-81 -66l-73 76l-88 -76l-67 66l169 140zM54 497h199l48 -275l92 275h179l34 -275l106 275h200l-228 -497h-181l-45 255l-100 -255h-181z" />
    <glyph glyph-name="Ycircumflex" unicode="&#x176;" horiz-adv-x="663" 
d="M340 729l-60 62l154 104l131 -104l-72 -62l-70 60zM757 700l-421 -700h-233l146 246l-187 454h245l84 -250l134 250h232z" />
    <glyph glyph-name="ycircumflex" unicode="&#x177;" horiz-adv-x="644" 
d="M531 594l-81 -66l-73 76l-88 -76l-67 66l169 140zM639 497l-49 -464q-6 -61 -31.5 -108t-62.5 -76q-40 -30 -86.5 -43t-115.5 -13q-71 0 -116.5 12t-75.5 39q-24 22 -39 53.5t-15 64.5l1 14h196q-1 -24 14.5 -37.5t48.5 -13.5q75 0 84 80l9 91q-24 -40 -66 -62.5
t-98 -22.5q-164 0 -164 170q0 14 2 42l29 274h196l-26 -251q-1 -8 -1 -21q0 -66 60 -66q74 0 86 103l24 235h196z" />
    <glyph glyph-name="Ydieresis" unicode="&#x178;" horiz-adv-x="663" 
d="M243.5 751q-22.5 22 -22.5 54q0 37 28.5 64.5t67.5 27.5q35 0 56.5 -21.5t21.5 -54.5q0 -37 -28 -64.5t-67 -27.5q-34 0 -56.5 22zM477.5 751q-21.5 22 -21.5 53q0 38 27.5 65.5t66.5 27.5q35 0 57 -21.5t22 -54.5q0 -37 -28.5 -64.5t-67.5 -27.5q-34 0 -55.5 22z
M757 700l-421 -700h-233l146 246l-187 454h245l84 -250l134 250h232z" />
    <glyph glyph-name="Zacute" unicode="&#x179;" horiz-adv-x="659" 
d="M293 813l235 86l30 -86l-235 -86zM380 530h-274l18 170h597l-371 -530h293l-18 -170h-618z" />
    <glyph glyph-name="zacute" unicode="&#x17a;" horiz-adv-x="516" 
d="M208 620l189 145l69 -84l-191 -146zM261 337h-197l17 160h482l-249 -337h194l-17 -160h-486z" />
    <glyph glyph-name="Zdotaccent" unicode="&#x17b;" horiz-adv-x="659" 
d="M364.5 757q-19.5 20 -19.5 49q0 38 25.5 64t62.5 26q32 0 52 -20.5t20 -51.5q0 -35 -26 -61t-63 -26q-32 0 -51.5 20zM380 530h-274l18 170h597l-371 -530h293l-18 -170h-618z" />
    <glyph glyph-name="zdotaccent" unicode="&#x17c;" horiz-adv-x="516" 
d="M246 565.5q-27 25.5 -27 65.5q0 48 34.5 80.5t82.5 32.5q41 0 67.5 -25t26.5 -64q0 -49 -33.5 -82t-81.5 -33q-42 0 -69 25.5zM261 337h-197l17 160h482l-249 -337h194l-17 -160h-486z" />
    <glyph glyph-name="Zcaron" unicode="&#x17d;" horiz-adv-x="659" 
d="M285 838l73 62l69 -60l84 60l59 -62l-154 -104zM380 530h-274l18 170h597l-371 -530h293l-18 -170h-618z" />
    <glyph glyph-name="zcaron" unicode="&#x17e;" horiz-adv-x="516" 
d="M172 668l81 66l72 -76l89 76l67 -66l-170 -140zM261 337h-197l17 160h482l-249 -337h194l-17 -160h-486z" />
    <glyph glyph-name="florin" unicode="&#x192;" horiz-adv-x="456" 
d="M424.5 554q-18.5 -15 -24.5 -43l-5 -14h102l-38 -137h-102l-106 -372q-30 -105 -90 -146.5t-152 -41.5q-69 0 -106 14l37 128q18 -6 44 -6q29 0 46 13t26 43l105 368h-79l38 137h79l5 15q23 95 88.5 140t157.5 45q68 0 102 -14l-36 -121q-21 7 -44 7q-29 0 -47.5 -15z
" />
    <glyph glyph-name="AEacute" unicode="&#x1fc;" horiz-adv-x="936" 
d="M620 727l-30 86l235 86l30 -86zM709 544l-13 -122h229l-15 -149h-229l-13 -117h229l-16 -156h-434l9 83h-193l-43 -83h-217l420 700h532l-17 -156h-229zM471 232l33 315l-164 -315h131z" />
    <glyph glyph-name="aeacute" unicode="&#x1fd;" horiz-adv-x="969" 
d="M533 535l-67 85l189 145l69 -84zM970 204h-366q-3 -41 19.5 -64t64.5 -23q31 0 53 13t32 36h190q-22 -83 -100 -133.5t-187 -50.5q-64 0 -114 20.5t-82 58.5q-43 -40 -100 -59t-133 -19q-95 0 -153 37.5t-58 100.5l1 13q5 43 23.5 74.5t54.5 53.5q37 24 91 33t138 9h78
l4 35q2 24 -12.5 40.5t-52.5 16.5q-73 0 -82 -63h-200q15 84 92 133t204 49q119 0 174 -57q76 56 179 56q76 0 134.5 -27t90 -75.5t31.5 -111.5q0 -17 -1 -26q-3 -33 -13 -70zM791 321q0 36 -19.5 55.5t-56.5 19.5q-40 0 -67.5 -25.5t-32.5 -66.5h175q1 6 1 17zM414 205h-78
q-41 0 -61.5 -15t-20.5 -39q0 -44 62 -44q36 0 63.5 19t31.5 56z" />
    <glyph glyph-name="Oslashacute" unicode="&#x1fe;" horiz-adv-x="809" 
d="M390 727l-30 86l235 86l30 -86zM787 560.5q42 -75.5 42 -169.5q0 -13 -2 -41q-11 -101 -66.5 -186t-148 -135.5t-210.5 -50.5q-56 0 -110 13l-43 -79l-71 32l41 75q-80 41 -123 117.5t-43 170.5q0 28 2 43q11 101 66.5 186t148 135.5t210.5 50.5q65 0 117 -15l45 81
l67 -32l-42 -77q78 -43 120 -118.5zM282.5 253.5q12.5 -31.5 36.5 -53.5l182 332q-17 4 -41 4q-59 0 -102 -29.5t-65.5 -78.5t-22.5 -105q0 -38 12.5 -69.5zM523.5 193.5q43.5 29.5 66 79t22.5 106.5q0 35 -11.5 66t-32.5 52l-180 -330q15 -3 33 -3q59 0 102.5 29.5z" />
    <glyph glyph-name="oslashacute" unicode="&#x1ff;" horiz-adv-x="609" 
d="M322 535l-67 85l189 145l69 -84zM589 404q33 -52 33 -121q0 -10 -2 -34q-8 -78 -49.5 -137.5t-111 -92.5t-156.5 -33q-41 0 -79 8l-37 -66l-50 24l33 59q-63 27 -97 80t-34 125q0 11 2 33q8 78 50 137.5t111 92t156 32.5q43 0 84 -9l38 70l51 -24l-36 -64q61 -28 94 -80z
M258 171l99 178q-5 1 -16 1q-43 0 -71 -27.5t-33 -73.5q-4 -49 21 -78zM395.5 180q28.5 32 28.5 84q0 37 -18 59l-96 -175h10q47 0 75.5 32z" />
    <glyph glyph-name="Scommaaccent" unicode="&#x218;" horiz-adv-x="611" 
d="M110 36q-71 58 -71 161q0 10 2 32h208q-1 -5 -1 -15q0 -38 21 -60t59 -22q36 0 56 17t20 48q0 21 -13.5 34t-45.5 26l-134 51q-130 51 -130 172q0 72 37 127t104.5 85t156.5 30q120 0 189 -52.5t69 -145.5q0 -17 -1 -26h-208q1 5 1 15q0 32 -17.5 49.5t-49.5 17.5
q-31 0 -50 -16t-19 -43q0 -19 16 -33t54 -29l123 -49q67 -27 98.5 -70t31.5 -103q0 -78 -38 -137t-108 -90.5t-161 -31.5q-128 0 -199 58zM236 -176q38 0 54 11q17 11 21 34q-11 -14 -34 -14q-25 0 -39 13t-14 35q0 29 20 47.5t50 18.5q35 0 55 -20.5t16 -57.5
q-6 -53 -40 -80.5t-94 -28.5z" />
    <glyph glyph-name="scommaaccent" unicode="&#x219;" horiz-adv-x="541" 
d="M100.5 25q-63.5 39 -63.5 107q0 11 1 16h195q-2 -21 13 -33t44 -12q22 0 35 9.5t13 27.5q0 11 -9 18.5t-30 12.5l-106 24q-61 14 -94 49t-33 86q0 85 68.5 133t183.5 48q113 0 172 -34.5t59 -101.5q0 -10 -1 -16h-193q4 41 -49 41q-22 0 -34 -8.5t-12 -23.5q0 -24 44 -35
l108 -28q61 -16 92.5 -47t31.5 -81q0 -12 -1 -18q-9 -82 -78.5 -127.5t-179.5 -45.5q-113 0 -176.5 39zM213 -176q38 0 54 11q17 11 21 34q-11 -14 -34 -14q-25 0 -39 13t-14 35q0 29 20 47.5t50 18.5q35 0 55 -20.5t16 -57.5q-6 -53 -40 -80.5t-94 -28.5z" />
    <glyph glyph-name="uni021A" unicode="&#x21a;" horiz-adv-x="579" 
d="M240 521h-180l19 179h569l-19 -179h-180l-55 -521h-209zM228 -176q38 0 54 11q17 11 21 34q-11 -14 -34 -14q-25 0 -39 13t-14 35q0 29 20 47.5t50 18.5q35 0 55 -20.5t16 -57.5q-6 -53 -40 -80.5t-94 -28.5z" />
    <glyph glyph-name="uni021B" unicode="&#x21b;" horiz-adv-x="422" 
d="M418 149l-16 -149q-58 -10 -123 -10q-78 0 -126 32t-48 122q0 9 2 35l17 168h-73l16 150h73l15 145h196l-15 -145h113l-16 -150h-113l-13 -127q-1 -5 -1 -15q0 -34 16.5 -47t44.5 -13q17 0 51 4zM313 -51.5q20 -20.5 16 -57.5q-6 -53 -40 -80.5t-94 -28.5l5 42
q37 0 54 11t21 34q-11 -14 -34 -14q-25 0 -39 13t-14 35q0 29 20 47.5t50 18.5q35 0 55 -20.5z" />
    <glyph glyph-name="uni0237" unicode="&#x237;" horiz-adv-x="311" 
d="M8.5 -193.5q-17.5 2.5 -39.5 8.5l14 137q18 -3 32 -3q19 0 29.5 10.5t12.5 34.5l53 503h196l-53 -509q-10 -92 -61.5 -138t-139.5 -46q-26 0 -43.5 2.5z" />
    <glyph glyph-name="uni0243" unicode="&#x243;" horiz-adv-x="661" 
d="M589.5 57q-59.5 -50 -153.5 -56l-11 -101h-95l11 100h-62l-11 -100h-95l11 100h-122l71 679h122l11 101h95l-11 -101h62l11 101h95l-11 -102q82 -7 128 -48t46 -107q0 -71 -42 -119t-111 -59q60 -6 95.5 -43t35.5 -96q0 -12 -1 -19q-9 -80 -68.5 -130zM449.5 531
q-20.5 16 -56.5 16h-66l-14 -140h66q41 0 66 22t25 58q0 28 -20.5 44zM423.5 166.5q25.5 21.5 25.5 57.5q0 29 -20.5 46t-56.5 17h-72l-15 -142h71q42 0 67.5 21.5z" />
    <glyph glyph-name="uni02BC" unicode="&#x2bc;" horiz-adv-x="306" 
d="M297.5 666.5q28.5 -32.5 28.5 -90.5q0 -16 -1 -25q-10 -95 -63 -144t-141 -49q-3 0 -33 3l7 63q13 -2 37 -2q48 0 78 27q25 22 35 61q-7 -7 -20.5 -11.5t-28.5 -4.5q-41 0 -64.5 25.5t-23.5 64.5q0 47 33 81t82 34q46 0 74.5 -32.5z" />
    <glyph glyph-name="circumflex" unicode="&#x2c6;" horiz-adv-x="600" 
d="M450 594l-81 -66l-73 76l-88 -76l-67 66l169 140z" />
    <glyph glyph-name="caron" unicode="&#x2c7;" horiz-adv-x="600" 
d="M149 668l81 66l72 -76l89 76l67 -66l-170 -140z" />
    <glyph glyph-name="breve" unicode="&#x2d8;" horiz-adv-x="600" 
d="M175 577q-45 40 -40 112h132q-2 -55 53 -55q54 0 62 55h133q-11 -71 -66.5 -111.5t-139.5 -40.5q-89 0 -134 40z" />
    <glyph glyph-name="dotaccent" unicode="&#x2d9;" horiz-adv-x="600" 
d="M288 564.5q-27 25.5 -27 65.5q0 48 34.5 80.5t82.5 32.5q41 0 67.5 -25t26.5 -64q0 -49 -33.5 -82t-81.5 -33q-42 0 -69 25.5z" />
    <glyph glyph-name="ring" unicode="&#x2da;" horiz-adv-x="600" 
d="M135 553q-29 26 -29 69q0 53 37 87t90 34q47 0 76 -27t29 -70q0 -52 -37.5 -85.5t-90.5 -33.5q-46 0 -75 26zM252.5 601q15.5 16 15.5 40q0 20 -11.5 32t-29.5 12q-21 0 -36 -16t-15 -41q0 -19 11 -31t29 -12q21 0 36.5 16z" />
    <glyph glyph-name="ogonek" unicode="&#x2db;" horiz-adv-x="600" 
d="M59.5 -173q-34.5 28 -30.5 71q8 66 77 102h190q-57 -2 -82 -22t-25 -44q0 -18 12 -29t33 -11q25 0 49 12l-9 -88q-29 -11 -53 -15t-59 -4q-68 0 -102.5 28z" />
    <glyph glyph-name="tilde" unicode="&#x2dc;" horiz-adv-x="600" 
d="M330 544q-16 7 -39 21q-18 12 -30 17.5t-27 5.5q-43 0 -84 -35l-28 81q55 61 112 61q23 0 39 -7t39 -21q17 -12 30 -17.5t28 -5.5q43 0 83 35l29 -81q-55 -61 -113 -61q-23 0 -39 7z" />
    <glyph glyph-name="hungarumlaut" unicode="&#x2dd;" horiz-adv-x="600" 
d="M102 560l143 154l89 -60l-170 -128zM297 560l143 154l89 -60l-170 -128z" />
    <glyph glyph-name="gravecomb" unicode="&#x300;" horiz-adv-x="0" 
d="M-289 678l86 84l159 -145l-85 -85z" />
    <glyph glyph-name="acutecomb" unicode="&#x301;" horiz-adv-x="0" 
d="M-224 620l189 145l69 -84l-191 -146z" />
    <glyph glyph-name="uni0302" unicode="&#x302;" horiz-adv-x="0" 
d="M-17 594l-81 -66l-73 76l-88 -76l-67 66l169 140z" />
    <glyph glyph-name="tildecomb" unicode="&#x303;" horiz-adv-x="0" 
d="M-139 544q-16 7 -39 21q-18 12 -30 17.5t-27 5.5q-43 0 -84 -35l-28 81q55 61 112 61q23 0 39 -7t39 -21q17 -12 30 -17.5t28 -5.5q43 0 83 35l29 -81q-55 -61 -113 -61q-23 0 -39 7z" />
    <glyph glyph-name="uni0304" unicode="&#x304;" horiz-adv-x="0" 
d="M-340 674h364l-11 -103h-364z" />
    <glyph glyph-name="uni0306" unicode="&#x306;" horiz-adv-x="0" 
d="M-332 577q-45 40 -40 112h132q-2 -55 53 -55q54 0 62 55h133q-11 -71 -66.5 -111.5t-139.5 -40.5q-89 0 -134 40z" />
    <glyph glyph-name="uni0307" unicode="&#x307;" horiz-adv-x="0" 
d="M-156 564.5q-27 25.5 -27 65.5q0 48 34.5 80.5t82.5 32.5q41 0 67.5 -25t26.5 -64q0 -49 -33.5 -82t-81.5 -33q-42 0 -69 25.5z" />
    <glyph glyph-name="uni0308" unicode="&#x308;" horiz-adv-x="0" 
d="M-382 565q-25 24 -25 59q0 43 32 74.5t75 31.5q38 0 62.5 -24.5t24.5 -61.5q0 -41 -32 -72t-75 -31q-37 0 -62 24zM-146.5 565q-24.5 24 -24.5 59q0 43 31.5 74.5t75.5 31.5q38 0 62 -24.5t24 -60.5q0 -42 -31.5 -73t-74.5 -31q-38 0 -62.5 24z" />
    <glyph glyph-name="uni030A" unicode="&#x30a;" horiz-adv-x="0" 
d="M-174 553q-29 26 -29 69q0 53 37 87t90 34q47 0 76 -27t29 -70q0 -52 -37.5 -85.5t-90.5 -33.5q-46 0 -75 26zM-56.5 601q15.5 16 15.5 40q0 20 -11.5 32t-29.5 12q-21 0 -36 -16t-15 -41q0 -19 11 -31t29 -12q21 0 36.5 16z" />
    <glyph glyph-name="uni030B" unicode="&#x30b;" horiz-adv-x="0" 
d="M-381 560l143 154l89 -60l-170 -128zM-186 560l143 154l89 -60l-170 -128z" />
    <glyph glyph-name="uni030C" unicode="&#x30c;" horiz-adv-x="0" 
d="M-318 668l81 66l72 -76l89 76l67 -66l-170 -140z" />
    <glyph glyph-name="uni0312" unicode="&#x312;" horiz-adv-x="0" 
d="M-347 675q-37 0 -51 -10q-19 -15 -23 -34q2 6 11.5 10.5t21.5 4.5q24 0 36 -13.5t12 -35.5q0 -25 -18 -44.5t-48 -19.5t-47.5 19.5t-17.5 50.5l1 12q5 50 38 74.5t89 24.5z" />
    <glyph glyph-name="uni0326" unicode="&#x326;" horiz-adv-x="0" 
d="M-182 -176q37 0 54 11t21 34q-11 -14 -34 -14q-25 0 -39 13t-14 35q0 29 20 47.5t50 18.5q35 0 55 -20.5t16 -57.5q-6 -53 -40 -80.5t-94 -28.5z" />
    <glyph glyph-name="uni0327" unicode="&#x327;" horiz-adv-x="0" 
d="M-244 -187.5q-26 19.5 -25 51.5h72q1 -8 8 -13.5t18 -5.5q15 0 24 10.5t9 28.5q0 25 -25 25q-19 0 -27 -13h-66l12 110h72l-7 -65q6 5 17.5 8.5t26.5 3.5q33 0 51.5 -19t18.5 -49q0 -37 -30 -64.5t-80 -27.5q-43 0 -69 19.5z" />
    <glyph glyph-name="uni0328" unicode="&#x328;" horiz-adv-x="0" 
d="M-231.5 -173q-34.5 28 -30.5 71q8 66 77 102h190q-57 -2 -82 -22t-25 -44q0 -18 12 -29t33 -11q25 0 49 12l-9 -88q-29 -11 -53 -15t-59 -4q-68 0 -102.5 28z" />
    <glyph glyph-name="uni0394" unicode="&#x394;" horiz-adv-x="750" 
d="M337 700h218l190 -700h-740zM484 151l-60 339l-133 -339h193z" />
    <glyph glyph-name="uni03A9" unicode="&#x3a9;" horiz-adv-x="700" 
d="M48 151h135l1 13q-60 34 -92.5 89.5t-32.5 123.5q0 11 2 31q9 81 57 151t127.5 111.5t179.5 41.5q93 0 161.5 -36.5t104.5 -98.5t36 -137q0 -10 -2 -32q-8 -78 -54.5 -142.5t-120.5 -102.5l-1 -12h135l-16 -151h-295l27 255q53 12 84 55.5t31 100.5q0 49 -28.5 81
t-81.5 32q-63 0 -100.5 -44t-37.5 -107q0 -45 22 -76t65 -41l-27 -256h-295z" />
    <glyph glyph-name="uni03BC" unicode="&#x3bc;" horiz-adv-x="647" 
d="M643 497l-52 -497h-197l8 74q-20 -36 -52.5 -57t-75.5 -21q-12 0 -21 3l-20 -189h-196l72 687h199l-27 -260q-1 -7 -1 -20q0 -67 59 -67q71 0 81 93l26 254h197z" />
    <glyph glyph-name="pi" unicode="&#x3c0;" horiz-adv-x="699" 
d="M151 365h-56l14 132h585l-14 -132h-57l-38 -365h-196l38 365h-79l-38 -365h-197z" />
    <glyph glyph-name="uni0401" unicode="&#x401;" horiz-adv-x="567" 
d="M199.5 751q-22.5 22 -22.5 54q0 37 28.5 64.5t67.5 27.5q35 0 56.5 -21.5t21.5 -54.5q0 -37 -28 -64.5t-67 -27.5q-34 0 -56.5 22zM433.5 751q-21.5 22 -21.5 53q0 38 27.5 65.5t66.5 27.5q35 0 57 -21.5t22 -54.5q0 -37 -28.5 -64.5t-67.5 -27.5q-34 0 -55.5 22z
M136 700h450l-17 -156h-242l-13 -122h242l-15 -149h-242l-13 -117h242l-16 -156h-450z" />
    <glyph glyph-name="uni0402" unicode="&#x402;" horiz-adv-x="775" 
d="M731 406.5q54 -52.5 54 -147.5q0 -13 -2 -39q-12 -115 -81 -173.5t-186 -58.5q-47 0 -76 9l15 147q12 -4 29 -4q36 0 60 21t29 63q4 41 -16.5 61.5t-58.5 20.5q-20 0 -37 -4t-37 -15l-30 -287h-209l55 521h-180l19 179h569l-19 -179h-180l-9 -86q59 24 136 24
q101 0 155 -52.5z" />
    <glyph glyph-name="uni0403" unicode="&#x403;" horiz-adv-x="501" 
d="M238 813l235 86l30 -86l-235 -86zM570 700l-19 -179h-226l-55 -521h-208l74 700h434z" />
    <glyph glyph-name="uni0404" unicode="&#x404;" horiz-adv-x="787" 
d="M517 191q42 28 56 79h224q-16 -85 -70 -151.5t-137.5 -103.5t-183.5 -37q-107 0 -187 40t-123.5 113t-43.5 171q0 24 3 48q11 111 69 195t151.5 130.5t208.5 46.5q99 0 174.5 -36.5t116.5 -103t39 -152.5h-224q-5 50 -41.5 78.5t-96.5 28.5t-105 -35t-65 -96h210
l-12 -112h-210q7 -61 45 -96t98 -35q62 0 104 28z" />
    <glyph glyph-name="uni0405" unicode="&#x405;" horiz-adv-x="611" 
d="M110 36q-71 58 -71 161q0 10 2 32h208q-1 -5 -1 -15q0 -38 21 -60t59 -22q36 0 56 17t20 48q0 21 -13.5 34t-45.5 26l-134 51q-130 51 -130 172q0 72 37 127t104.5 85t156.5 30q120 0 189 -52.5t69 -145.5q0 -17 -1 -26h-208q1 5 1 15q0 32 -17.5 49.5t-49.5 17.5
q-31 0 -50 -16t-19 -43q0 -19 16 -33t54 -29l123 -49q67 -27 98.5 -70t31.5 -103q0 -78 -38 -137t-108 -90.5t-161 -31.5q-128 0 -199 58z" />
    <glyph glyph-name="uni0406" unicode="&#x406;" horiz-adv-x="332" 
d="M136 700h208l-74 -700h-208z" />
    <glyph glyph-name="uni0407" unicode="&#x407;" horiz-adv-x="332" 
d="M102.5 752q-20.5 20 -20.5 49q0 35 26.5 59.5t61.5 24.5q33 0 53 -19t20 -49q0 -35 -26 -60t-63 -25q-31 0 -51.5 20zM281.5 751.5q-19.5 19.5 -19.5 48.5q0 36 25 60.5t61 24.5q32 0 53 -19.5t21 -48.5q0 -34 -27 -59.5t-63 -25.5q-31 0 -50.5 19.5zM136 700h208
l-74 -700h-208z" />
    <glyph glyph-name="uni0408" unicode="&#x408;" horiz-adv-x="620" 
d="M99 45q-64 64 -64 171q0 13 2 39h208q-1 -8 -1 -22q0 -37 16.5 -57.5t48.5 -20.5q38 0 59 25t26 68l48 452h209l-46 -432q-15 -145 -97 -216t-217 -71q-128 0 -192 64z" />
    <glyph glyph-name="uni0409" unicode="&#x409;" horiz-adv-x="1061" 
d="M973 409q45 -26 70 -70t25 -98q0 -63 -33 -119t-89 -89t-121 -33h-357l55 527h-146l-23 -226q-17 -157 -85.5 -233.5t-174.5 -76.5h-78l18 172h24q37 0 59 35t28 97l43 405h565l-28 -265h146q57 0 102 -26zM832 165.5q24 24.5 24 62.5q0 29 -19 47t-52 18h-75l-16 -152
h75q39 0 63 24.5z" />
    <glyph glyph-name="uni040A" unicode="&#x40a;" horiz-adv-x="1058" 
d="M970 409q45 -26 70 -70t25 -98q0 -63 -33 -119t-89 -89t-121 -33h-357l27 261h-195l-27 -261h-208l74 700h208l-28 -266h195l28 266h208l-28 -265h149q57 0 102 -26zM829 165.5q24 24.5 24 62.5q0 29 -19 47t-52 18h-78l-16 -152h78q39 0 63 24.5z" />
    <glyph glyph-name="uni040B" unicode="&#x40b;" horiz-adv-x="812" 
d="M730 392q55 -54 55 -141q0 -18 -1 -27l-24 -224h-208l19 179q1 9 1 25q0 92 -80 92q-20 0 -36.5 -3.5t-32.5 -14.5l-29 -278h-209l55 521h-180l19 179h569l-19 -179h-180l-11 -101q56 26 144 26q93 0 148 -54z" />
    <glyph glyph-name="uni040C" unicode="&#x40c;" horiz-adv-x="718" 
d="M369 727l-30 86l235 86l30 -86zM471 0l-169 308l-32 -308h-208l74 700h208l-31 -290h16q15 0 27.5 8.5t27.5 29.5l119 166q36 52 76 71.5t95 19.5h75l-19 -180h-35q-19 0 -35 -13.5t-33 -39.5l-57 -80q-12 -18 -32.5 -30t-38.5 -12h-8l220 -350h-240z" />
    <glyph glyph-name="uni040E" unicode="&#x40e;" horiz-adv-x="663" 
d="M328 755.5q-39 18.5 -60 51t-19 74.5h101q1 -31 22.5 -46.5t54.5 -15.5t58 15.5t33 46.5h101q-10 -63 -67 -103.5t-134 -40.5q-51 0 -90 18.5zM757 700l-421 -700h-233l146 246l-187 454h245l84 -250l134 250h232z" />
    <glyph glyph-name="uni040F" unicode="&#x40f;" horiz-adv-x="727" 
d="M665 0h-208l-13 -120h-192l13 120h-203l74 700h208l-56 -526h187l56 526h208z" />
    <glyph glyph-name="uni0410" unicode="&#x410;" horiz-adv-x="712" 
d="M478 81h-226l-31 -81h-216l313 700h225l164 -700h-216zM453 232l-44 272l-102 -272h146z" />
    <glyph glyph-name="uni0411" unicode="&#x411;" horiz-adv-x="654" 
d="M136 700h515l-17 -156h-307l-12 -119h163q55 0 96.5 -23.5t64.5 -65.5t23 -94q0 -16 -1 -24q-6 -61 -38 -111t-81.5 -78.5t-108.5 -28.5h-371zM363 142q39 0 63 24.5t24 62.5q0 30 -19 47t-52 17h-78l-16 -151h78z" />
    <glyph glyph-name="uni0412" unicode="&#x412;" horiz-adv-x="661" 
d="M623.5 311.5q35.5 -37.5 35.5 -96.5q0 -15 -1 -22q-9 -88 -75.5 -140.5t-170.5 -52.5h-350l74 700h342q96 0 150.5 -43t54.5 -118q0 -13 -1 -20q-7 -66 -48 -109t-105 -54q59 -7 94.5 -44.5zM329 566l-15 -148h66q41 0 66.5 23t25.5 62q0 30 -20.5 46.5t-56.5 16.5h-66z
M424.5 168.5q25.5 23.5 25.5 63.5q0 29 -21 47t-56 18h-72l-16 -152h71q43 0 68.5 23.5z" />
    <glyph glyph-name="uni0413" unicode="&#x413;" horiz-adv-x="501" 
d="M570 700l-19 -179h-226l-55 -521h-208l74 700h434z" />
    <glyph glyph-name="uni0414" unicode="&#x414;" horiz-adv-x="728" 
d="M722 167l-31 -288h-190l13 121h-307l-13 -120h-192l31 287h42q32 0 50 31t25 93l43 409h531l-56 -533h54zM344 305q-9 -84 -41 -138h173l38 365h-146z" />
    <glyph glyph-name="uni0415" unicode="&#x415;" horiz-adv-x="567" 
d="M136 700h450l-17 -156h-242l-13 -122h242l-15 -149h-242l-13 -117h242l-16 -156h-450z" />
    <glyph glyph-name="uni0416" unicode="&#x416;" horiz-adv-x="1104" 
d="M857 0l-169 308l-32 -308h-208l32 308l-233 -308h-240l294 350h-8q-17 0 -35.5 12t-27.5 30l-39 80q-12 26 -25.5 39.5t-32.5 13.5h-35l19 180h75q55 0 91 -19.5t62 -71.5l83 -166q10 -21 21 -29.5t26 -8.5h16l31 290h208l-31 -290h16q15 0 27.5 8.5t27.5 29.5l119 166
q36 52 76 71.5t95 19.5h75l-19 -180h-35q-19 0 -35 -13.5t-33 -39.5l-57 -80q-12 -18 -32.5 -30t-38.5 -12h-8l220 -350h-240z" />
    <glyph glyph-name="uni0417" unicode="&#x417;" horiz-adv-x="639" 
d="M261 216q0 -73 73 -73q40 0 61 25.5t21 59.5q0 33 -19 48.5t-61 15.5h-80l15 142h79q53 0 74 22t21 61q0 26 -17 40.5t-46 14.5q-75 0 -83 -82h-219q10 97 84 163t232 66q119 0 194 -42.5t75 -134.5q0 -16 -1 -24q-4 -39 -25 -72.5t-52 -55.5t-63 -29q48 -12 79.5 -51.5
t31.5 -97.5q0 -74 -43.5 -126.5t-114.5 -78.5t-152 -26q-150 0 -216.5 58t-66.5 158q0 12 2 36h218q-1 -6 -1 -17z" />
    <glyph glyph-name="uni0418" unicode="&#x418;" horiz-adv-x="736" 
d="M275 48l-5 -48h-208l74 700h208l-41 -388l232 340l5 48h208l-74 -700h-208l41 388z" />
    <glyph glyph-name="uni0419" unicode="&#x419;" horiz-adv-x="736" 
d="M320.5 760.5q-48.5 36.5 -47.5 97.5h101q2 -27 25 -40.5t58 -13.5t60 13.5t33 40.5h101q-10 -61 -67 -97.5t-136 -36.5t-127.5 36.5zM275 48l-5 -48h-208l74 700h208l-41 -388l232 340l5 48h208l-74 -700h-208l41 388z" />
    <glyph glyph-name="uni041A" unicode="&#x41a;" horiz-adv-x="718" 
d="M471 0l-169 308l-32 -308h-208l74 700h208l-31 -290h16q15 0 27.5 8.5t27.5 29.5l119 166q36 52 76 71.5t95 19.5h75l-19 -180h-35q-19 0 -35 -13.5t-33 -39.5l-57 -80q-12 -18 -32.5 -30t-38.5 -12h-8l220 -350h-240z" />
    <glyph glyph-name="uni041B" unicode="&#x41b;" horiz-adv-x="741" 
d="M58 163q37 0 59 35t28 97l43 405h565l-74 -700h-208l55 527h-149l-23 -226q-17 -157 -85.5 -233.5t-174.5 -76.5h-78l18 172h24z" />
    <glyph glyph-name="uni041C" unicode="&#x41c;" horiz-adv-x="943" 
d="M136 700h264l101 -457l196 457h258l-74 -700h-200l47 444l-175 -444h-154l-90 446l-47 -446h-200z" />
    <glyph glyph-name="uni041D" unicode="&#x41d;" horiz-adv-x="735" 
d="M136 700h208l-28 -266h195l28 266h208l-74 -700h-208l27 261h-195l-27 -261h-208z" />
    <glyph glyph-name="uni041E" unicode="&#x41e;" horiz-adv-x="809" 
d="M214 22q-79 44 -120 119t-41 166q0 29 2 43q11 101 66.5 186t148 135.5t210.5 50.5q109 0 188 -44t120 -119t41 -166q0 -29 -2 -43q-11 -101 -66.5 -186t-148 -135.5t-210.5 -50.5q-109 0 -188 44zM523.5 193.5q43.5 29.5 66 78.5t22.5 105q0 70 -39 114.5t-113 44.5
q-59 0 -102 -29.5t-65.5 -78.5t-22.5 -105q0 -70 39 -114.5t112 -44.5q59 0 102.5 29.5z" />
    <glyph glyph-name="uni041F" unicode="&#x41f;" horiz-adv-x="735" 
d="M270 0h-208l74 700h611l-74 -700h-208l55 526h-195z" />
    <glyph glyph-name="uni0420" unicode="&#x420;" horiz-adv-x="667" 
d="M595.5 670.5q53.5 -29.5 83 -81.5t29.5 -118q0 -10 -2 -32q-8 -74 -48 -133.5t-102.5 -93t-136.5 -33.5h-130l-19 -179h-208l74 700h338q68 0 121.5 -29.5zM465.5 372q30.5 32 30.5 80q0 38 -23 62t-59 24h-87l-21 -198h86q43 0 73.5 32z" />
    <glyph glyph-name="uni0421" unicode="&#x421;" horiz-adv-x="801" 
d="M219 19.5q-80 41.5 -123 115.5t-43 170q0 30 2 45q11 107 69 192t151.5 132.5t206.5 47.5q109 0 187 -34.5t119 -100t40 -156.5h-220q-5 49 -43 77.5t-102 28.5q-81 0 -131.5 -50t-59.5 -137q-2 -20 -2 -30q0 -73 40.5 -115t113.5 -42q64 0 108 28.5t59 77.5h220
q-27 -137 -135 -214t-272 -77q-105 0 -185 41.5z" />
    <glyph glyph-name="uni0422" unicode="&#x422;" horiz-adv-x="579" 
d="M240 521h-180l19 179h569l-19 -179h-180l-55 -521h-209z" />
    <glyph glyph-name="uni0423" unicode="&#x423;" horiz-adv-x="663" 
d="M757 700l-421 -700h-233l146 246l-187 454h245l84 -250l134 250h232z" />
    <glyph glyph-name="uni0424" unicode="&#x424;" horiz-adv-x="836" 
d="M805.5 209q-42.5 -66 -114 -106.5t-162.5 -40.5l-7 -62h-208l7 62q-85 0 -146 35t-92 93.5t-31 128.5q0 11 2 33q8 76 50 141.5t113.5 105t163.5 39.5l7 62h208l-7 -62q85 0 146 -34.5t92 -92t31 -126.5q0 -11 -2 -33q-8 -77 -50.5 -143zM275 255.5q23 -28.5 64 -28.5h19
l26 246h-19q-50 0 -81.5 -40t-31.5 -102q0 -47 23 -75.5zM620 262q30 35 36 90q1 7 1 19q0 46 -23 74t-63 28h-20l-26 -246h20q45 0 75 35z" />
    <glyph glyph-name="uni0425" unicode="&#x425;" horiz-adv-x="700" 
d="M267 350l-185 350h228l92 -202l136 202h228l-259 -350l185 -350h-228l-93 202l-135 -202h-228z" />
    <glyph glyph-name="uni0426" unicode="&#x426;" horiz-adv-x="743" 
d="M738 167l-31 -288h-190l13 121h-468l74 700h208l-56 -526h187l56 526h208l-56 -533h55z" />
    <glyph glyph-name="uni0427" unicode="&#x427;" horiz-adv-x="666" 
d="M419 220q-56 -26 -144 -26q-61 0 -107 24.5t-71 68.5t-25 101q0 8 2 28l30 284h208l-26 -239q-1 -9 -1 -25q0 -92 80 -92q20 0 36.5 3.5t32.5 14.5l36 338h209l-74 -700h-209z" />
    <glyph glyph-name="uni0428" unicode="&#x428;" horiz-adv-x="1032" 
d="M136 700h208l-56 -526h141l56 526h210l-56 -526h141l56 526h208l-74 -700h-908z" />
    <glyph glyph-name="uni0429" unicode="&#x429;" horiz-adv-x="1048" 
d="M1043 167l-31 -288h-190l13 121h-773l74 700h208l-56 -526h141l56 526h210l-56 -526h141l56 526h208l-56 -533h55z" />
    <glyph glyph-name="uni042A" unicode="&#x42a;" horiz-adv-x="749" 
d="M79 700h151l-19 -181h-151zM231 700h208l-28 -265h149q57 0 102 -26t70 -70t25 -98q0 -63 -33 -119t-89 -89t-121 -33h-357zM458 141q39 0 63 24.5t24 62.5q0 29 -19 47t-52 18h-78l-16 -152h78z" />
    <glyph glyph-name="uni042B" unicode="&#x42b;" horiz-adv-x="956" 
d="M136 700h208l-28 -265h149q57 0 102 -26t70 -70t25 -98q0 -63 -33 -119t-89 -89t-121 -33h-357zM760 700h208l-74 -700h-208zM363 141q39 0 63 24.5t24 62.5q0 29 -19 47t-52 18h-78l-16 -152h78z" />
    <glyph glyph-name="uni042C" unicode="&#x42c;" horiz-adv-x="654" 
d="M136 700h208l-28 -265h149q57 0 102 -26t70 -70t25 -98q0 -63 -33 -119t-89 -89t-121 -33h-357zM363 141q39 0 63 24.5t24 62.5q0 29 -19 47t-52 18h-78l-16 -152h78z" />
    <glyph glyph-name="uni042D" unicode="&#x42d;" horiz-adv-x="787" 
d="M642 682q80 -40 123 -113.5t43 -171.5q0 -31 -2 -47q-12 -111 -69.5 -195t-151 -130.5t-208.5 -46.5q-100 0 -176 37t-116.5 103.5t-38.5 151.5h224q4 -51 39.5 -79t98.5 -28q60 0 105.5 35t65.5 96h-210l12 112h210q-8 61 -46 96t-98 35t-102.5 -28.5t-57.5 -78.5h-224
q17 87 72 153t138 102.5t182 36.5q107 0 187 -40z" />
    <glyph glyph-name="uni042E" unicode="&#x42e;" horiz-adv-x="1110" 
d="M970 678q79 -44 120 -119t41 -166q0 -29 -2 -43q-11 -101 -66.5 -186t-148 -135.5t-210.5 -50.5q-99 0 -173 36.5t-118 99t-55 142.5h-61l-27 -256h-208l74 700h208l-27 -254h62q27 79 84 141.5t138.5 98.5t180.5 36q109 0 188 -44zM825.5 193.5q43.5 29.5 66 78.5
t22.5 105q0 70 -39 114.5t-113 44.5q-59 0 -102 -29.5t-65.5 -78.5t-22.5 -105q0 -70 39 -114.5t112 -44.5q59 0 102.5 29.5z" />
    <glyph glyph-name="uni042F" unicode="&#x42f;" horiz-adv-x="692" 
d="M704 700l-74 -700h-208l19 179h-58l-109 -179h-239l135 220q-45 30 -69.5 79t-24.5 109q0 9 2 31q8 74 48 133.5t103 93.5t137 34h338zM458 340l21 198h-87q-43 0 -73.5 -32t-30.5 -79q0 -38 23.5 -62.5t60.5 -24.5h86z" />
    <glyph glyph-name="uni0430" unicode="&#x430;" horiz-adv-x="655" 
d="M99 47q-53 61 -53 161q0 12 2 40q8 76 42.5 136t89.5 93.5t122 33.5q56 0 93.5 -24t51.5 -64l8 74h196l-52 -497h-196l8 74q-22 -39 -66 -63.5t-99 -24.5q-94 0 -147 61zM408.5 178q29.5 34 29.5 85q0 40 -22 65t-62 25q-45 0 -74.5 -34t-29.5 -86q0 -40 22 -64.5
t60 -24.5q47 0 76.5 34z" />
    <glyph glyph-name="uni0431" unicode="&#x431;" horiz-adv-x="636" 
d="M129 61.5q-70 79.5 -70 214.5q0 27 3 57q19 176 127.5 271.5t283.5 95.5h151l-17 -153h-147q-197 0 -222 -175q64 113 202 113q103 0 156 -56.5t53 -150.5q0 -11 -2 -35q-8 -70 -48.5 -129.5t-110 -95.5t-160.5 -36q-129 0 -199 79.5zM421.5 172q29.5 35 29.5 86
q0 39 -22 64t-61 25q-46 0 -75.5 -34t-29.5 -86q0 -40 22.5 -65t60.5 -25q46 0 75.5 35z" />
    <glyph glyph-name="uni0432" unicode="&#x432;" horiz-adv-x="597" 
d="M449 497q81 0 115.5 -35.5t34.5 -80.5q0 -54 -42.5 -88t-106.5 -37q65 -3 98.5 -29.5t33.5 -75.5q0 -11 -1 -17q-3 -29 -23.5 -59.5t-65 -52.5t-113.5 -22h-322l52 497h340zM376.5 310.5q16.5 15.5 16.5 39.5q0 20 -13 31.5t-37 11.5h-50l-10 -98h49q28 0 44.5 15.5z
M263 105h50q29 0 46 15.5t17 39.5q0 21 -13.5 33t-37.5 12h-51z" />
    <glyph glyph-name="uni0433" unicode="&#x433;" horiz-adv-x="436" 
d="M447 320h-160l-34 -320h-196l52 497h356z" />
    <glyph glyph-name="uni0434" unicode="&#x434;" horiz-adv-x="707" 
d="M700 167l-31 -288h-190l13 121h-287l-13 -120h-192l31 287h54q28 6 45 31.5t21 60.5l25 238h503l-34 -330h55zM339 262q-7 -68 -48 -115h154l23 216h-119z" />
    <glyph glyph-name="uni0435" unicode="&#x435;" horiz-adv-x="597" 
d="M598 201h-366q-1 -39 22 -59.5t65 -20.5q65 0 81 34h190q-22 -78 -99 -123.5t-186 -45.5q-125 0 -195.5 58.5t-70.5 166.5q0 11 2 37q13 124 98.5 193.5t216.5 69.5q77 0 135 -26t89.5 -74t31.5 -111q0 -17 -1 -26q-4 -36 -13 -73zM418 309q4 41 -16 62.5t-61 21.5
q-40 0 -66 -22.5t-32 -61.5h175z" />
    <glyph glyph-name="uni0436" unicode="&#x436;" horiz-adv-x="968" 
d="M946 0h-225l-117 209l-22 -209h-196l22 209l-161 -209h-225l208 254h-8q-19 0 -30.5 6.5t-21.5 22.5l-23 39q-9 16 -19 22t-25 6h-12l16 152h49q44 0 69.5 -5.5t41.5 -19.5t31 -42l57 -108q10 -19 20 -27t27 -8h15l21 205h196l-21 -205h15q17 0 28.5 8t24.5 27l81 108
q30 40 60.5 53.5t95.5 13.5h49l-16 -152h-12q-15 0 -26.5 -6t-23.5 -22l-31 -39q-13 -16 -26 -22.5t-32 -6.5h-8z" />
    <glyph glyph-name="uni0437" unicode="&#x437;" horiz-adv-x="565" 
d="M289 108q30 0 45 15t15 43q0 39 -60 39h-64l10 100h61q32 0 51 15t19 40q0 17 -12 27t-34 10q-59 0 -64 -49h-196q7 68 73 115.5t205 47.5q103 0 165.5 -32.5t62.5 -97.5q0 -59 -38 -89.5t-92 -35.5q49 -4 79.5 -29.5t30.5 -73.5q0 -11 -1 -17q-5 -49 -44.5 -83.5
t-98.5 -52t-124 -17.5q-131 0 -189 43t-58 115q0 14 1 21h196q-6 -54 61 -54z" />
    <glyph glyph-name="uni0438" unicode="&#x438;" horiz-adv-x="650" 
d="M257 34l-4 -34h-196l52 497h196l-29 -274l169 232l4 42h197l-52 -497h-197l28 265z" />
    <glyph glyph-name="uni0439" unicode="&#x439;" horiz-adv-x="650" 
d="M242.5 561q-45.5 38 -41.5 107h132q-2 -52 53 -52q54 0 62 52h133q-10 -68 -65.5 -106.5t-139.5 -38.5q-88 0 -133.5 38zM257 34l-4 -34h-196l52 497h196l-29 -274l169 232l4 42h197l-52 -497h-197l28 265z" />
    <glyph glyph-name="uni043A" unicode="&#x43a;" horiz-adv-x="639" 
d="M617 0h-225l-117 209l-22 -209h-196l52 497h196l-21 -205h15q17 0 28.5 8t24.5 27l81 108q30 40 60.5 53.5t95.5 13.5h49l-16 -152h-12q-15 0 -26.5 -6t-23.5 -22l-31 -39q-13 -16 -26 -22.5t-32 -6.5h-8z" />
    <glyph glyph-name="uni043B" unicode="&#x43b;" horiz-adv-x="646" 
d="M58 151q48 0 56 81l28 265h499l-52 -497h-196l36 340h-106l-11 -104q-12 -116 -71.5 -180t-165.5 -64h-53l17 159h19z" />
    <glyph glyph-name="uni043C" unicode="&#x43c;" horiz-adv-x="894" 
d="M109 497h293l68 -297l130 297h289l-52 -497h-188l37 350l-159 -350h-154l-91 350l-37 -350h-188z" />
    <glyph glyph-name="uni043D" unicode="&#x43d;" horiz-adv-x="652" 
d="M109 497h196l-18 -170h146l18 170h197l-52 -497h-197l18 173h-146l-18 -173h-196z" />
    <glyph glyph-name="uni043E" unicode="&#x43e;" horiz-adv-x="609" 
d="M162.5 14.5q-59.5 28.5 -91.5 81t-32 121.5q0 10 2 32q8 78 50 137.5t111 92t156 32.5q81 0 140.5 -28t91.5 -80t32 -121q0 -11 -2 -33q-8 -78 -49.5 -137.5t-111 -92.5t-156.5 -33q-81 0 -140.5 28.5zM395.5 180.5q28.5 32.5 28.5 85.5q0 39 -22 61.5t-61 22.5
q-46 0 -75.5 -32t-29.5 -83q0 -40 22.5 -63.5t61.5 -23.5q47 0 75.5 32.5z" />
    <glyph glyph-name="uni043F" unicode="&#x43f;" horiz-adv-x="649" 
d="M396 0l36 343h-143l-36 -343h-196l52 497h535l-52 -497h-196z" />
    <glyph glyph-name="uni0440" unicode="&#x440;" horiz-adv-x="655" 
d="M608.5 451q53.5 -60 53.5 -162q0 -27 -2 -41q-8 -77 -42.5 -136.5t-89.5 -92.5t-120 -33q-56 0 -95 25.5t-52 62.5l-28 -264h-196l72 687h196l-8 -74q22 38 67 63t102 25q89 0 142.5 -60zM427.5 177q30.5 35 30.5 87q0 40 -23 64.5t-60 24.5q-45 0 -75 -33.5t-30 -85.5
q0 -42 22.5 -67t60.5 -25q44 0 74.5 35z" />
    <glyph glyph-name="uni0441" unicode="&#x441;" horiz-adv-x="592" 
d="M161 14q-59 28 -90.5 80t-31.5 121q0 10 2 34q8 79 49.5 138.5t109.5 91.5t154 32q118 0 186.5 -57t67.5 -155h-196q-4 27 -22 39t-53 12q-46 0 -73.5 -31t-27.5 -88q0 -40 21 -61.5t59 -21.5q35 0 55.5 12t30.5 38h196q-20 -98 -100.5 -155t-198.5 -57q-79 0 -138 28z
" />
    <glyph glyph-name="uni0442" unicode="&#x442;" horiz-adv-x="519" 
d="M527 333h-135l-35 -333h-196l35 333h-134l17 164h465z" />
    <glyph glyph-name="uni0443" unicode="&#x443;" horiz-adv-x="644" 
d="M639 497l-49 -464q-6 -61 -31.5 -108t-62.5 -76q-40 -30 -86.5 -43t-115.5 -13q-71 0 -116.5 12t-75.5 39q-24 22 -39 53.5t-15 64.5l1 14h196q-1 -24 14.5 -37.5t48.5 -13.5q75 0 84 80l9 91q-24 -40 -66 -62.5t-98 -22.5q-164 0 -164 170q0 14 2 42l29 274h196
l-26 -251q-1 -8 -1 -21q0 -66 60 -66q74 0 86 103l24 235h196z" />
    <glyph glyph-name="uni0444" unicode="&#x444;" horiz-adv-x="729" 
d="M708 143.5q-34 -63.5 -97.5 -105.5t-148.5 -49l-19 -179h-197l19 179q-72 6 -122.5 38.5t-76.5 83t-26 110.5q0 70 34 133.5t97.5 105.5t147.5 49l21 191h197l-21 -191q71 -6 122 -38.5t77.5 -83.5t26.5 -110q0 -70 -34 -133.5zM251.5 170q21.5 -25 58.5 -25h1l22 206h-1
q-45 0 -73.5 -34.5t-28.5 -82.5q0 -39 21.5 -64zM521.5 180q28.5 35 28.5 83q0 39 -21 63.5t-59 24.5h-1l-22 -206h1q45 0 73.5 35z" />
    <glyph glyph-name="uni0445" unicode="&#x445;" horiz-adv-x="623" 
d="M213 251l-150 246h231l56 -127l84 127h230l-202 -246l153 -251h-230l-60 133l-86 -133h-231z" />
    <glyph glyph-name="uni0446" unicode="&#x446;" horiz-adv-x="670" 
d="M663 167l-31 -288h-190l13 121h-398l52 497h196l-36 -343h141l36 343h197l-34 -330h54z" />
    <glyph glyph-name="uni0447" unicode="&#x447;" horiz-adv-x="596" 
d="M359 153q-56 -22 -117 -22q-92 0 -140.5 37.5t-48.5 110.5q0 16 1 25l20 193h199l-17 -163l-1 -14q0 -58 58 -58q20 0 33 3.5t26 13.5l23 218h196l-52 -497h-196z" />
    <glyph glyph-name="uni0448" unicode="&#x448;" horiz-adv-x="916" 
d="M679 154l36 343h197l-52 -497h-803l52 497h196l-36 -343h107l36 343h196l-36 -343h107z" />
    <glyph glyph-name="uni0449" unicode="&#x449;" horiz-adv-x="939" 
d="M932 167l-31 -288h-190l13 121h-667l52 497h196l-36 -343h107l36 343h196l-36 -343h107l36 343h197l-34 -330h54z" />
    <glyph glyph-name="uni044A" unicode="&#x44a;" horiz-adv-x="648" 
d="M75 497h105l-16 -153h-105zM377 497l-16 -152h92q104 0 152 -43t48 -109q0 -13 -1 -20q-4 -41 -30.5 -81t-78 -66t-126.5 -26h-288l52 497h196zM337 113h51q29 0 47 18t18 46q0 23 -13.5 36.5t-39.5 13.5h-51z" />
    <glyph glyph-name="uni044B" unicode="&#x44b;" horiz-adv-x="851" 
d="M305 497l-16 -152h92q104 0 152 -43t48 -109q0 -13 -1 -20q-4 -41 -30.5 -81t-78 -66t-126.5 -26h-288l52 497h196zM651 497h196l-52 -497h-196zM265 113h51q29 0 47 18t18 46q0 23 -13.5 36.5t-39.5 13.5h-51z" />
    <glyph glyph-name="uni044C" unicode="&#x44c;" horiz-adv-x="577" 
d="M305 497l-16 -152h92q104 0 152 -43t48 -109q0 -13 -1 -20q-4 -41 -30.5 -81t-78 -66t-126.5 -26h-288l52 497h196zM265 113h51q29 0 47 18t18 46q0 23 -13.5 36.5t-39.5 13.5h-51z" />
    <glyph glyph-name="uni044D" unicode="&#x44d;" horiz-adv-x="599" 
d="M46 297q13 64 53.5 113.5t105 77t146.5 27.5q87 0 145.5 -30.5t87 -83t28.5 -119.5q0 -12 -2 -34q-8 -73 -46 -133.5t-106.5 -96t-162.5 -35.5q-83 0 -141.5 26.5t-89 74.5t-29.5 111h197q3 -34 23 -50.5t61 -16.5t66 20.5t32 58.5h-134l8 80h134q2 38 -18 60t-61 22
q-81 0 -101 -72h-196z" />
    <glyph glyph-name="uni044E" unicode="&#x44e;" horiz-adv-x="876" 
d="M766.5 483q59.5 -28 91.5 -80t32 -121q0 -11 -2 -33q-8 -78 -49.5 -137.5t-111 -92.5t-156.5 -33q-111 0 -180 52.5t-81 142.5h-38l-19 -181h-196l52 497h196l-18 -178h38q31 89 111 140.5t190 51.5q81 0 140.5 -28zM663.5 180.5q28.5 32.5 28.5 85.5q0 39 -22 61.5
t-61 22.5q-46 0 -75.5 -32t-29.5 -83q0 -40 22.5 -63.5t61.5 -23.5q47 0 75.5 32.5z" />
    <glyph glyph-name="uni044F" unicode="&#x44f;" horiz-adv-x="619" 
d="M154 156q-43 20 -64.5 57t-21.5 84q0 53 28.5 99t77.5 73.5t109 27.5h331l-52 -497h-195l13 128h-34l-95 -128h-225zM393 250l13 124h-70q-29 0 -48 -21t-19 -49q0 -23 14.5 -38.5t39.5 -15.5h70z" />
    <glyph glyph-name="uni0451" unicode="&#x451;" horiz-adv-x="597" 
d="M177 565q-25 24 -25 59q0 43 32 74.5t75 31.5q38 0 62.5 -24.5t24.5 -61.5q0 -41 -32 -72t-75 -31q-37 0 -62 24zM412.5 565q-24.5 24 -24.5 59q0 43 31.5 74.5t75.5 31.5q38 0 62 -24.5t24 -60.5q0 -42 -31.5 -73t-74.5 -31q-38 0 -62.5 24zM598 201h-366
q-1 -39 22 -59.5t65 -20.5q65 0 81 34h190q-22 -78 -99 -123.5t-186 -45.5q-125 0 -195.5 58.5t-70.5 166.5q0 11 2 37q13 124 98.5 193.5t216.5 69.5q77 0 135 -26t89.5 -74t31.5 -111q0 -17 -1 -26q-4 -36 -13 -73zM418 309q4 41 -16 62.5t-61 21.5q-40 0 -66 -22.5
t-32 -61.5h175z" />
    <glyph glyph-name="uni0452" unicode="&#x452;" horiz-adv-x="647" 
d="M630 345q0 -12 -2 -42l-35 -335q-9 -82 -65 -123t-154 -41q-43 0 -73 13l13 123q6 -1 13.5 -2.5t16.5 -1.5q46 0 50 42l29 275q1 8 1 22q0 37 -15 54.5t-46 17.5q-74 0 -84 -98l-26 -249h-196l58 554h-39l9 87h39l7 59h196l-7 -59h146l-9 -87h-146l-13 -130
q24 43 67.5 65t102.5 22q162 0 162 -166z" />
    <glyph glyph-name="uni0453" unicode="&#x453;" horiz-adv-x="436" 
d="M198 620l189 145l69 -84l-191 -146zM447 320h-160l-34 -320h-196l52 497h356z" />
    <glyph glyph-name="uni0454" unicode="&#x454;" horiz-adv-x="599" 
d="M334 369q-41 0 -66 -22t-31 -60h134l-8 -80h-134q-2 -38 18.5 -58.5t61.5 -20.5q42 0 65.5 16.5t32.5 50.5h197q-18 -96 -99 -154t-205 -58q-87 0 -145.5 30.5t-87 83t-28.5 118.5q0 11 2 33q8 74 46 134.5t106.5 96.5t162.5 36q82 0 141 -27.5t89.5 -77t28.5 -113.5
h-196q-5 72 -85 72z" />
    <glyph glyph-name="uni0455" unicode="&#x455;" horiz-adv-x="541" 
d="M100.5 25q-63.5 39 -63.5 107q0 11 1 16h195q-2 -21 13 -33t44 -12q22 0 35 9.5t13 27.5q0 11 -9 18.5t-30 12.5l-106 24q-61 14 -94 49t-33 86q0 85 68.5 133t183.5 48q113 0 172 -34.5t59 -101.5q0 -10 -1 -16h-193q4 41 -49 41q-22 0 -34 -8.5t-12 -23.5q0 -24 44 -35
l108 -28q61 -16 92.5 -47t31.5 -81q0 -12 -1 -18q-9 -82 -78.5 -127.5t-179.5 -45.5q-113 0 -176.5 39z" />
    <glyph glyph-name="uni0456" unicode="&#x456;" horiz-adv-x="309" 
d="M138 542q-28 28 -28 68q0 32 16.5 59t44.5 43t61 16q43 0 70.5 -27.5t27.5 -68.5q0 -31 -16.5 -58t-44.5 -43.5t-60 -16.5q-43 0 -71 28zM109 497h196l-52 -497h-196z" />
    <glyph glyph-name="uni0457" unicode="&#x457;" horiz-adv-x="309" 
d="M72.5 573.5q-20.5 20.5 -20.5 50.5q0 37 26.5 64t63.5 27q33 0 54 -21.5t21 -52.5q0 -36 -27 -62t-65 -26q-32 0 -52.5 20.5zM247.5 573.5q-20.5 20.5 -20.5 50.5q0 37 27 64t64 27q33 0 54 -21.5t21 -52.5q0 -36 -27 -62t-65 -26q-33 0 -53.5 20.5zM109 497h196
l-52 -497h-196z" />
    <glyph glyph-name="uni0458" unicode="&#x458;" horiz-adv-x="311" 
d="M139 542q-28 28 -28 68q0 32 16.5 59t44.5 43t61 16q43 0 70.5 -27.5t27.5 -68.5q0 -31 -16.5 -58t-44.5 -43.5t-60 -16.5q-43 0 -71 28zM8.5 -193.5q-17.5 2.5 -39.5 8.5l14 137q18 -3 32 -3q19 0 29.5 10.5t12.5 34.5l53 503h196l-53 -509q-10 -92 -61.5 -138
t-139.5 -46q-26 0 -43.5 2.5z" />
    <glyph glyph-name="uni0459" unicode="&#x459;" horiz-adv-x="913" 
d="M870 302q48 -43 48 -109q0 -13 -1 -20q-4 -41 -30.5 -81t-78 -66t-126.5 -26h-289l36 340h-106l-11 -104q-12 -116 -71.5 -180t-165.5 -64h-53l17 159h19q48 0 56 81l28 265h500l-16 -152h92q104 0 152 -43zM700 131q18 18 18 46q0 23 -13.5 36.5t-39.5 13.5h-51
l-12 -114h51q29 0 47 18z" />
    <glyph glyph-name="uni045A" unicode="&#x45a;" horiz-adv-x="919" 
d="M875 302q48 -43 48 -109q0 -13 -1 -20q-4 -41 -30.5 -81t-78 -66t-126.5 -26h-288l18 173h-146l-18 -173h-196l52 497h196l-18 -170h146l18 170h197l-16 -152h91q104 0 152 -43zM705 131q18 18 18 46q0 23 -13.5 36.5t-39.5 13.5h-50l-12 -114h50q29 0 47 18z" />
    <glyph glyph-name="uni045B" unicode="&#x45b;" horiz-adv-x="647" 
d="M630 345q0 -12 -2 -42l-32 -303h-200l27 253q1 8 1 22q0 37 -15 54.5t-46 17.5q-74 0 -84 -98l-26 -249h-196l58 554h-39l9 87h39l7 59h196l-7 -59h146l-9 -87h-146l-13 -130q24 43 67.5 65t102.5 22q162 0 162 -166z" />
    <glyph glyph-name="uni045C" unicode="&#x45c;" horiz-adv-x="639" 
d="M368 535l-67 85l189 145l69 -84zM617 0h-225l-117 209l-22 -209h-196l52 497h196l-21 -205h15q17 0 28.5 8t24.5 27l81 108q30 40 60.5 53.5t95.5 13.5h49l-16 -152h-12q-15 0 -26.5 -6t-23.5 -22l-31 -39q-13 -16 -26 -22.5t-32 -6.5h-8z" />
    <glyph glyph-name="uni045E" unicode="&#x45e;" horiz-adv-x="644" 
d="M238.5 571q-45.5 38 -41.5 107h132q-2 -52 53 -52q54 0 62 52h133q-10 -68 -65.5 -106.5t-139.5 -38.5q-88 0 -133.5 38zM639 497l-49 -464q-6 -61 -31.5 -108t-62.5 -76q-40 -30 -86.5 -43t-115.5 -13q-71 0 -116.5 12t-75.5 39q-24 22 -39 53.5t-15 64.5l1 14h196
q-1 -24 14.5 -37.5t48.5 -13.5q75 0 84 80l9 91q-24 -40 -66 -62.5t-98 -22.5q-164 0 -164 170q0 14 2 42l29 274h196l-26 -251q-1 -8 -1 -21q0 -66 60 -66q74 0 86 103l24 235h196z" />
    <glyph glyph-name="uni045F" unicode="&#x45f;" horiz-adv-x="647" 
d="M591 0h-171l-10 -91h-190l10 91h-173l52 497h196l-36 -343h141l36 343h197z" />
    <glyph glyph-name="uni0462" unicode="&#x462;" horiz-adv-x="779" 
d="M691 409q45 -26 70 -70t25 -98q0 -63 -33 -119t-89 -89t-121 -33h-358l55 521h-180l19 179h569l-19 -179h-180l-9 -86h149q57 0 102 -26zM550 165.5q24 24.5 24 62.5q0 29 -19 47t-52 18h-78l-16 -152h78q39 0 63 24.5z" />
    <glyph glyph-name="uni0463" unicode="&#x463;" horiz-adv-x="577" 
d="M533 302q48 -43 48 -109q0 -13 -1 -20q-4 -41 -30.5 -81t-78 -66t-126.5 -26h-288l48 459h-45l9 87h44l17 154h196l-17 -154h78l-9 -87h-77l-12 -114h92q104 0 152 -43zM363 131q18 18 18 46q0 23 -13.5 36.5t-39.5 13.5h-51l-12 -114h51q29 0 47 18z" />
    <glyph glyph-name="uni0472" unicode="&#x472;" horiz-adv-x="809" 
d="M668 678q79 -44 120 -119t41 -166q0 -29 -2 -43q-11 -101 -66.5 -186t-148 -135.5t-210.5 -50.5q-109 0 -188 44t-120 119t-41 166q0 29 2 43q11 101 66.5 186t148 135.5t210.5 50.5q109 0 188 -44zM342 494.5q-47 -41.5 -63 -107.5h333q-3 66 -42 107.5t-110 41.5
t-118 -41.5zM540.5 206q47.5 42 63.5 109h-334q2 -67 41 -109t110 -42q72 0 119.5 42z" />
    <glyph glyph-name="uni0473" unicode="&#x473;" horiz-adv-x="609" 
d="M498.5 483q59.5 -28 91.5 -80t32 -121q0 -11 -2 -33q-8 -78 -49.5 -137.5t-111 -92.5t-156.5 -33q-81 0 -140.5 28.5t-91.5 81t-32 121.5q0 10 2 32q8 78 50 137.5t111 92t156 32.5q81 0 140.5 -28zM279 330q-26 -20 -37 -55h182q-3 35 -25 55t-58 20t-62 -20zM382 168
q26 20 36 55h-182q4 -35 26 -55t58 -20t62 20z" />
    <glyph glyph-name="uni0474" unicode="&#x474;" horiz-adv-x="699" 
d="M235 0l-168 700h222l79 -476l135 356q19 50 41 76.5t55 37.5t87 11h86l-18 -171h-21q-24 0 -38.5 -13t-31.5 -51l-209 -470h-219z" />
    <glyph glyph-name="uni0475" unicode="&#x475;" horiz-adv-x="592" 
d="M215 0l-170 497h204l74 -299l93 204q26 59 65 80.5t104 21.5h67l-16 -154h-14q-22 0 -37 -9.5t-32 -41.5l-166 -299h-172z" />
    <glyph glyph-name="uni048A" unicode="&#x48a;" horiz-adv-x="752" 
d="M320.5 760.5q-48.5 36.5 -47.5 97.5h101q2 -27 25 -40.5t58 -13.5t60 13.5t33 40.5h101q-10 -61 -67 -97.5t-136 -36.5t-127.5 36.5zM747 167l-31 -288h-190l13 121h-73l41 388l-232 -340l-5 -48h-208l74 700h208l-41 -388l232 340l5 48h208l-56 -533h55z" />
    <glyph glyph-name="uni048B" unicode="&#x48b;" horiz-adv-x="673" 
d="M242.5 561q-45.5 38 -41.5 107h132q-2 -52 53 -52q54 0 62 52h133q-10 -68 -65.5 -106.5t-139.5 -38.5q-88 0 -133.5 38zM666 167l-31 -288h-190l13 121h-61l28 265l-168 -231l-4 -34h-196l52 497h196l-29 -274l169 232l4 42h197l-34 -330h54z" />
    <glyph glyph-name="uni048C" unicode="&#x48c;" horiz-adv-x="654" 
d="M567 409q45 -26 70 -70t25 -98q0 -63 -33 -119t-89 -89t-121 -33h-357l56 529h-41l9 87h41l9 84h208l-9 -84h132l-9 -87h-132l-10 -94h149q57 0 102 -26zM426 165.5q24 24.5 24 62.5q0 29 -19 47t-52 18h-78l-16 -152h78q39 0 63 24.5z" />
    <glyph glyph-name="uni048D" unicode="&#x48d;" horiz-adv-x="577" 
d="M533 302q48 -43 48 -109q0 -13 -1 -20q-4 -41 -30.5 -81t-78 -66t-126.5 -26h-288l48 459h-45l9 87h44l17 154h196l-17 -154h78l-9 -87h-77l-12 -114h92q104 0 152 -43zM363 131q18 18 18 46q0 23 -13.5 36.5t-39.5 13.5h-51l-12 -114h51q29 0 47 18z" />
    <glyph glyph-name="uni048E" unicode="&#x48e;" horiz-adv-x="667" 
d="M666.5 318.5q-32.5 -54.5 -83.5 -89.5l32 -36l-49 -44l-44 49q-49 -19 -103 -19h-130l-19 -179h-208l74 700h338q68 0 121.5 -29.5t83 -81.5t29.5 -118q0 -10 -2 -32q-7 -66 -39.5 -120.5zM395 340l-43 48l49 44l59 -65q36 34 36 85q0 38 -23 62t-59 24h-87l-21 -198h86
h3z" />
    <glyph glyph-name="uni048F" unicode="&#x48f;" horiz-adv-x="655" 
d="M631.5 139.5q-22.5 -49.5 -58.5 -84.5l34 -38l-50 -44l-37 42q-50 -29 -112 -29q-56 0 -95 25.5t-52 62.5l-28 -264h-196l72 687h196l-8 -74q22 38 67 63t102 25q89 0 142.5 -60t53.5 -162q0 -27 -2 -41q-6 -59 -28.5 -108.5zM397 152l-54 60l50 44l50 -56q15 30 15 64
q0 40 -23 64.5t-60 24.5q-45 0 -75 -33.5t-30 -85.5q0 -42 22.5 -67t60.5 -25q21 0 44 10z" />
    <glyph glyph-name="uni0490" unicode="&#x490;" horiz-adv-x="501" 
d="M579 791l-28 -270h-226l-55 -521h-208l74 700h242l9 91h192z" />
    <glyph glyph-name="uni0491" unicode="&#x491;" horiz-adv-x="436" 
d="M475 588l-28 -268h-160l-34 -320h-196l52 497h164l10 91h192z" />
    <glyph glyph-name="uni0492" unicode="&#x492;" horiz-adv-x="501" 
d="M325 521l-13 -124h126l-9 -87h-126l-33 -310h-208l33 310h-47l9 87h47l32 303h434l-19 -179h-226z" />
    <glyph glyph-name="uni0493" unicode="&#x493;" horiz-adv-x="436" 
d="M287 320l-6 -54h88l-9 -87h-88l-19 -179h-196l19 179h-34l9 87h34l24 231h356l-18 -177h-160z" />
    <glyph glyph-name="uni0494" unicode="&#x494;" horiz-adv-x="688" 
d="M603.5 355q53.5 -51 53.5 -139q0 -10 -2 -32l-22 -209q-9 -89 -66 -130t-159 -41q-49 0 -87 13l13 130q24 -3 44 -3q22 0 34 9.5t15 33.5l16 152q1 9 1 25q0 92 -81 92q-37 0 -68 -15l-25 -241h-208l74 700h434l-19 -179h-226l-15 -139q34 12 73 18t73 6q94 0 147.5 -51z
" />
    <glyph glyph-name="uni0495" unicode="&#x495;" horiz-adv-x="623" 
d="M566 219q53 -51 53 -145q0 -12 -2 -38q-12 -108 -79 -164.5t-181 -56.5q-25 0 -44 1.5t-37 8.5l15 144q24 -3 26 -3q36 0 59.5 20.5t23.5 60.5q0 28 -16.5 43.5t-46.5 15.5q-34 0 -75 -17l-9 -89h-196l52 497h356l-18 -177h-160l-8 -70q60 20 131 20q103 0 156 -51z" />
    <glyph glyph-name="uni0496" unicode="&#x496;" horiz-adv-x="1126" 
d="M1137 167l-31 -288h-190l13 121h-72l-169 308l-32 -308h-208l32 308l-233 -308h-240l294 350h-8q-17 0 -35.5 12t-27.5 30l-39 80q-12 26 -25.5 39.5t-32.5 13.5h-35l19 180h75q55 0 91 -19.5t62 -71.5l83 -166q10 -21 21 -29.5t26 -8.5h16l31 290h208l-31 -290h16
q15 0 27.5 8.5t27.5 29.5l119 166q36 52 76 71.5t95 19.5h75l-19 -180h-35q-19 0 -35 -13.5t-33 -39.5l-57 -80q-12 -18 -32.5 -30t-38.5 -12h-8l115 -183h145z" />
    <glyph glyph-name="uni0497" unicode="&#x497;" horiz-adv-x="1003" 
d="M996 167l-31 -288h-190l13 121h-67l-117 209l-22 -209h-196l22 209l-161 -209h-225l208 254h-8q-19 0 -30.5 6.5t-21.5 22.5l-23 39q-9 16 -19 22t-25 6h-12l16 152h49q44 0 69.5 -5.5t41.5 -19.5t31 -42l57 -108q10 -19 20 -27t27 -8h15l21 205h196l-21 -205h15
q17 0 28.5 8t24.5 27l81 108q30 40 60.5 53.5t95.5 13.5h49l-16 -152h-12q-15 0 -26.5 -6t-23.5 -22l-31 -39q-13 -16 -26 -22.5t-32 -6.5h-8l53 -87h151z" />
    <glyph glyph-name="uni0498" unicode="&#x498;" horiz-adv-x="639" 
d="M597.5 94q-37.5 -50 -100 -78t-136.5 -34l-4 -41q6 5 17.5 8.5t26.5 3.5q33 0 51.5 -19t18.5 -49q0 -37 -30 -64.5t-80 -27.5q-43 0 -69 19.5t-25 51.5h72q1 -8 8 -13.5t18 -5.5q15 0 24 10.5t9 28.5q0 25 -25 25q-19 0 -27 -13h-66l9 86q-131 7 -189 64.5t-58 150.5
q0 12 2 36h218q-1 -6 -1 -17q0 -73 73 -73q40 0 61 25.5t21 59.5q0 33 -19 48.5t-61 15.5h-80l15 142h79q53 0 74 22t21 61q0 26 -17 40.5t-46 14.5q-75 0 -83 -82h-219q10 97 84 163t232 66q119 0 194 -42.5t75 -134.5q0 -16 -1 -24q-4 -39 -25 -72.5t-52 -55.5t-63 -29
q48 -12 79.5 -51.5t31.5 -97.5q0 -68 -37.5 -118z" />
    <glyph glyph-name="uni0499" unicode="&#x499;" horiz-adv-x="565" 
d="M471.5 30.5q-66.5 -39.5 -159.5 -46.5l-4 -43q6 5 17.5 8.5t26.5 3.5q33 0 51.5 -19t18.5 -49q0 -37 -30 -64.5t-80 -27.5q-43 0 -69 19.5t-25 51.5h72q1 -8 8 -13.5t18 -5.5q15 0 24 10.5t9 28.5q0 25 -25 25q-19 0 -27 -13h-66l9 88q-110 6 -159.5 48t-49.5 108
q0 14 1 22h196q-6 -54 61 -54q30 0 45 15t15 43q0 39 -60 39h-64l10 100h61q32 0 51 15t19 40q0 17 -12 27t-34 10q-59 0 -64 -49h-196q7 68 73 115.5t205 47.5q103 0 165.5 -32.5t62.5 -97.5q0 -59 -38 -89.5t-92 -35.5q49 -4 79.5 -29.5t30.5 -73.5q0 -11 -1 -17
q-7 -66 -73.5 -105.5z" />
    <glyph glyph-name="uni049A" unicode="&#x49a;" horiz-adv-x="759" 
d="M770 167l-31 -288h-190l13 121h-91l-169 308l-32 -308h-208l74 700h208l-31 -290h16q15 0 27.5 8.5t27.5 29.5l119 166q36 52 76 71.5t95 19.5h75l-19 -180h-35q-19 0 -35 -13.5t-33 -39.5l-57 -80q-12 -18 -32.5 -30t-38.5 -12h-8l115 -183h164z" />
    <glyph glyph-name="uni049B" unicode="&#x49b;" horiz-adv-x="683" 
d="M676 167l-31 -288h-190l13 121h-76l-117 209l-22 -209h-196l52 497h196l-21 -205h15q17 0 28.5 8t24.5 27l81 108q30 40 60.5 53.5t95.5 13.5h49l-16 -152h-12q-15 0 -26.5 -6t-23.5 -22l-31 -39q-13 -16 -26 -22.5t-32 -6.5h-8l53 -87h160z" />
    <glyph glyph-name="uni049C" unicode="&#x49c;" horiz-adv-x="785" 
d="M538 0l-158 289l-14 -136h-46l16 156h-34l-32 -309h-208l74 700h208l-31 -290h34l16 156h46l-16 -156h3q14 0 26.5 8.5t27.5 29.5l120 166q36 52 75.5 71.5t94.5 19.5h82l-18 -171h-34q-23 0 -38 -9t-38 -44l-61 -89q-11 -18 -30.5 -30t-36.5 -12h-8l220 -350h-240z" />
    <glyph glyph-name="uni049D" unicode="&#x49d;" horiz-adv-x="667" 
d="M420 0l-96 189l-9 -80h-30l11 100h-21l-22 -209h-196l52 497h196l-21 -205h21l10 100h30l-10 -100q13 2 23.5 10t21.5 25l81 108q30 40 60.5 53.5t95.5 13.5h55l-16 -152h-15q-16 0 -28 -6t-25 -22l-30 -39q-13 -16 -26.5 -22.5t-32.5 -6.5h-8l155 -254h-226z" />
    <glyph glyph-name="uni049E" unicode="&#x49e;" horiz-adv-x="759" 
d="M512 0l-169 308l-32 -308h-208l56 529h-41l10 100h41l8 71h208l-8 -71h85l-10 -100h-85l-13 -119h16q15 0 27.5 8.5t27.5 29.5l119 166q36 52 76 71.5t95 19.5h75l-19 -180h-35q-19 0 -35 -13.5t-33 -39.5l-57 -80q-12 -18 -32.5 -30t-38.5 -12h-8l220 -350h-240z" />
    <glyph glyph-name="uni049F" unicode="&#x49f;" horiz-adv-x="639" 
d="M617 0h-225l-117 209l-22 -209h-196l39 371h-39l8 76h39l5 50h196l-5 -50h68l-8 -76h-68l-8 -79h15q17 0 28.5 8t24.5 27l81 108q30 40 60.5 53.5t95.5 13.5h49l-16 -152h-12q-15 0 -26.5 -6t-23.5 -22l-31 -39q-13 -16 -26 -22.5t-32 -6.5h-8z" />
    <glyph glyph-name="uni04A0" unicode="&#x4a0;" horiz-adv-x="813" 
d="M566 0l-169 308l-32 -308h-208l74 700h208l-31 -290h16q15 0 27.5 8.5t27.5 29.5l119 166q36 52 76 71.5t95 19.5h75l-19 -180h-35q-19 0 -35 -13.5t-33 -39.5l-57 -80q-12 -18 -32.5 -30t-38.5 -12h-8l220 -350h-240zM79 700h151l-19 -181h-151z" />
    <glyph glyph-name="uni04A1" unicode="&#x4a1;" horiz-adv-x="711" 
d="M689 0h-225l-117 209l-22 -209h-196l52 497h196l-21 -205h15q17 0 28.5 8t24.5 27l81 108q30 40 60.5 53.5t95.5 13.5h49l-16 -152h-12q-15 0 -26.5 -6t-23.5 -22l-31 -39q-13 -16 -26 -22.5t-32 -6.5h-8zM75 497h105l-16 -153h-105z" />
    <glyph glyph-name="uni04A2" unicode="&#x4a2;" horiz-adv-x="751" 
d="M746 167l-31 -288h-190l13 121h-73l27 261h-195l-27 -261h-208l74 700h208l-28 -266h195l28 266h208l-56 -533h55z" />
    <glyph glyph-name="uni04A3" unicode="&#x4a3;" horiz-adv-x="675" 
d="M668 167l-31 -288h-190l13 121h-61l18 173h-146l-18 -173h-196l52 497h196l-18 -170h146l18 170h197l-34 -330h54z" />
    <glyph glyph-name="uni04A4" unicode="&#x4a4;" horiz-adv-x="904" 
d="M954 521h-226l-55 -521h-208l27 261h-195l-27 -261h-208l74 700h208l-28 -266h195l28 266h434z" />
    <glyph glyph-name="uni04A5" unicode="&#x4a5;" horiz-adv-x="779" 
d="M790 320h-160l-34 -320h-197l18 173h-146l-18 -173h-196l52 497h196l-18 -170h146l18 170h357z" />
    <glyph glyph-name="uni04A6" unicode="&#x4a6;" horiz-adv-x="1091" 
d="M1013 412q53 -51 53 -140q0 -9 -2 -31l-28 -266q-9 -89 -66 -130t-159 -41q-49 0 -87 13l13 130q24 -3 44 -3q22 0 34 9.5t15 33.5l22 209q1 9 1 25q0 91 -82 91q-38 0 -67 -14l-31 -298h-208l55 526h-195l-55 -526h-208l74 700h611l-28 -261q31 12 71 18t75 6
q95 0 148 -51z" />
    <glyph glyph-name="uni04A7" unicode="&#x4a7;" horiz-adv-x="962" 
d="M909.5 268.5q52.5 -55.5 52.5 -158.5q0 -23 -3 -47q-13 -123 -82 -185.5t-186 -62.5q-47 0 -76 10l15 144q24 -3 27 -3q32 0 55 24t29 72q1 7 1 20q0 37 -15.5 57t-44.5 20q-34 0 -75 -17l-15 -142h-196l36 343h-143l-36 -343h-196l52 497h535l-20 -194q59 21 131 21
q102 0 154.5 -55.5z" />
    <glyph glyph-name="uni04A8" unicode="&#x4a8;" horiz-adv-x="792" 
d="M794 145l-15 -143q-37 -12 -64 -17.5t-63 -5.5q-37 0 -73 7.5t-64 20.5q-62 -29 -142 -29q-100 0 -173 38t-111.5 108t-38.5 163q0 24 3 48q13 121 71.5 208t156 133t225.5 46q70 0 122 -13l-17 -162q-34 11 -97 11q-106 0 -173.5 -58.5t-77.5 -161.5q-2 -22 -2 -33
q0 -62 27 -107.5t77 -66.5q-29 55 -29 123q0 12 2 38q11 106 79.5 162.5t169.5 56.5q95 0 149.5 -46t54.5 -131q0 -59 -24 -114.5t-65 -97.5q44 3 92 23zM517.5 333.5q-19.5 -26.5 -19.5 -75.5q0 -66 54 -104q33 25 52 62t19 81q0 30 -13 46.5t-39 16.5q-34 0 -53.5 -26.5z
" />
    <glyph glyph-name="uni04A9" unicode="&#x4a9;" horiz-adv-x="630" 
d="M622 2q-48 -20 -93 -20q-64 0 -105 32q-26 -18 -62.5 -27t-76.5 -9q-115 0 -181 57.5t-66 162.5q0 12 2 38q10 92 56.5 154.5t120 93t162.5 30.5q56 0 102 -10l-14 -130q-31 6 -78 6q-76 0 -125.5 -41.5t-49.5 -118.5q0 -40 16.5 -68.5t48.5 -42.5q-12 30 -12 66
q0 82 56 128.5t141 46.5q78 0 124 -33t46 -96q0 -85 -75 -146q36 5 72 18zM414.5 212.5q-16.5 -19.5 -16.5 -54.5q0 -29 21 -52q35 10 55 31t20 53q0 19 -9.5 30.5t-28.5 11.5q-25 0 -41.5 -19.5z" />
    <glyph glyph-name="uni04AA" unicode="&#x4aa;" horiz-adv-x="801" 
d="M532 191.5q44 28.5 59 77.5h220q-25 -129 -123 -205t-247 -85l-4 -38q6 5 17.5 8.5t26.5 3.5q33 0 51.5 -19t18.5 -49q0 -37 -30 -64.5t-80 -27.5q-43 0 -69 19.5t-25 51.5h72q1 -8 8 -13.5t18 -5.5q15 0 24 10.5t9 28.5q0 25 -25 25q-19 0 -27 -13h-66l9 83
q-96 7 -167.5 49.5t-110 114t-38.5 161.5q0 30 2 46q11 107 69 192t151.5 132.5t206.5 47.5q109 0 187 -34.5t119 -100t40 -156.5h-220q-5 49 -43 77.5t-102 28.5q-81 0 -131.5 -50t-59.5 -137q-2 -20 -2 -30q0 -73 40.5 -115t113.5 -42q64 0 108 28.5z" />
    <glyph glyph-name="uni04AB" unicode="&#x4ab;" horiz-adv-x="592" 
d="M371.5 160q20.5 12 30.5 38h196q-19 -92 -91.5 -148t-180.5 -63l-5 -46q6 5 17.5 8.5t26.5 3.5q33 0 51.5 -19t18.5 -49q0 -37 -30 -64.5t-80 -27.5q-43 0 -69 19.5t-25 51.5h72q1 -8 8 -13.5t18 -5.5q15 0 24 10.5t9 28.5q0 25 -25 25q-19 0 -27 -13h-66l10 92
q-101 12 -158 72t-57 156q0 11 2 33q8 79 49.5 138.5t109.5 91.5t154 32q118 0 186.5 -57t67.5 -155h-196q-4 27 -22 39t-53 12q-46 0 -73.5 -31t-27.5 -88q0 -40 21 -61.5t59 -21.5q35 0 55.5 12z" />
    <glyph glyph-name="uni04AC" unicode="&#x4ac;" horiz-adv-x="579" 
d="M449 521l-37 -354h54l-31 -288h-190l13 121h-73l55 521h-180l19 179h569l-19 -179h-180z" />
    <glyph glyph-name="uni04AD" unicode="&#x4ad;" horiz-adv-x="519" 
d="M392 333l-17 -166h55l-31 -288h-190l13 121h-61l35 333h-134l17 164h465l-17 -164h-135z" />
    <glyph glyph-name="uni04AE" unicode="&#x4ae;" horiz-adv-x="689" 
d="M267 246l-201 454h234l91 -258l146 258h235l-297 -454l-26 -246h-208z" />
    <glyph glyph-name="uni04AF" unicode="&#x4af;" horiz-adv-x="605" 
d="M402 9l-21 -199h-197l21 202l-160 485h223l57 -284l117 284h222z" />
    <glyph glyph-name="uni04B0" unicode="&#x4b0;" horiz-adv-x="689" 
d="M474 236h109l-11 -103h-109l-14 -133h-208l14 133h-110l11 103h110l1 10l-201 454h234l91 -258l146 258h235l-297 -454z" />
    <glyph glyph-name="uni04B1" unicode="&#x4b1;" horiz-adv-x="605" 
d="M401 0h73l-11 -103h-73l-9 -87h-197l9 87h-72l11 103h72l1 12l-160 485h223l57 -284l117 284h222l-262 -488z" />
    <glyph glyph-name="uni04B2" unicode="&#x4b2;" horiz-adv-x="756" 
d="M751 167l-31 -288h-190l13 121h-79l-93 202l-135 -202h-228l259 350l-185 350h228l92 -202l136 202h228l-259 -350l97 -183h147z" />
    <glyph glyph-name="uni04B3" unicode="&#x4b3;" horiz-adv-x="681" 
d="M674 167l-31 -288h-190l13 121h-74l-60 133l-86 -133h-231l205 251l-150 246h231l56 -127l84 127h230l-202 -246l52 -84h153z" />
    <glyph glyph-name="uni04B4" unicode="&#x4b4;" horiz-adv-x="806" 
d="M801 174l-31 -295h-190l13 121h-468l55 521h-120l19 179h446l-19 -179h-117l-37 -347h186l56 526h208l-56 -526h55z" />
    <glyph glyph-name="uni04B5" unicode="&#x4b5;" horiz-adv-x="721" 
d="M714 174l-31 -295h-190l13 121h-399l35 333h-80l17 164h357l-17 -164h-81l-19 -179h142l36 343h196l-34 -323h55z" />
    <glyph glyph-name="uni04B6" unicode="&#x4b6;" horiz-adv-x="681" 
d="M676 167l-31 -288h-190l13 121h-72l23 220q-56 -26 -144 -26q-61 0 -107 24.5t-71 68.5t-25 101q0 8 2 28l30 284h208l-26 -239q-1 -9 -1 -25q0 -92 80 -92q20 0 36.5 3.5t32.5 14.5l36 338h209l-56 -533h53z" />
    <glyph glyph-name="uni04B7" unicode="&#x4b7;" horiz-adv-x="624" 
d="M617 167l-31 -288h-190l13 121h-66l16 153q-56 -22 -117 -22q-92 0 -140.5 37.5t-48.5 110.5q0 16 1 25l20 193h199l-17 -163l-1 -14q0 -58 58 -58q20 0 33 3.5t26 13.5l23 218h196l-34 -330h60z" />
    <glyph glyph-name="uni04B8" unicode="&#x4b8;" horiz-adv-x="666" 
d="M679 700l-74 -700h-209l23 220q-11 -5 -35 -13l-9 -83h-72l7 71q-12 -1 -35 -1q-61 0 -107 24.5t-71 68.5t-25 101q0 8 2 28l30 284h208l-26 -239q-1 -9 -1 -24q0 -68 42 -86l7 72h72l-8 -76q18 3 36 15l36 338h209z" />
    <glyph glyph-name="uni04B9" unicode="&#x4b9;" horiz-adv-x="596" 
d="M591 497l-52 -497h-196l16 153q-11 -5 -35 -11l-9 -83h-40l8 75q-21 -3 -41 -3q-92 0 -140.5 37.5t-48.5 110.5q0 16 1 25l20 193h199l-17 -163l-1 -13q0 -50 42 -58l10 95h40l-10 -95q17 3 35 16l23 218h196z" />
    <glyph glyph-name="uni04BA" unicode="&#x4ba;" horiz-adv-x="666" 
d="M320 480q57 26 144 26q93 0 148 -54t55 -141q0 -18 -1 -27l-30 -284h-208l25 239q1 9 1 25q0 92 -80 92q-21 0 -36.5 -3.5t-31.5 -14.5l-36 -338h-209l74 700h209z" />
    <glyph glyph-name="uni04BB" unicode="&#x4bb;" horiz-adv-x="647" 
d="M630 345q0 -12 -2 -42l-32 -303h-200l27 253q1 8 1 22q0 37 -15 54.5t-46 17.5q-74 0 -84 -98l-26 -249h-196l74 700h196l-29 -276q24 43 67.5 65t102.5 22q162 0 162 -166z" />
    <glyph glyph-name="uni04BC" unicode="&#x4bc;" horiz-adv-x="930" 
d="M943 297h-536q2 -66 39.5 -102.5t106.5 -36.5q110 0 154 83h221q-19 -67 -72 -128t-135.5 -98.5t-183.5 -37.5q-105 0 -181 41.5t-116 112.5t-43 160h-28q-56 0 -87.5 31.5t-31.5 87.5q0 15 1 23l5 50h123l-5 -48q-2 -15 5.5 -24.5t21.5 -9.5h6q21 91 76.5 163.5
t141 114.5t192.5 42q103 0 178.5 -42.5t115.5 -115.5t40 -164q0 -28 -2 -43zM738 404q-1 64 -39 100.5t-106 36.5q-65 0 -112 -35.5t-62 -101.5h319z" />
    <glyph glyph-name="uni04BD" unicode="&#x4bd;" horiz-adv-x="730" 
d="M731 201h-366q-1 -39 22 -59.5t65 -20.5q65 0 81 34h190q-22 -78 -99 -123.5t-186 -45.5q-123 0 -193 55.5t-73 159.5q-61 4 -96.5 36.5t-35.5 84.5q0 11 1 17l5 49h119l-4 -35q-2 -16 5 -26.5t21 -13.5q29 94 109 146t193 52q77 0 135 -26t89.5 -74t31.5 -111
q0 -17 -1 -26q-4 -36 -13 -73zM551 309q4 41 -16 62.5t-61 21.5q-40 0 -66 -22.5t-32 -61.5h175z" />
    <glyph glyph-name="uni04BE" unicode="&#x4be;" horiz-adv-x="930" 
d="M435.5 751q-22.5 22 -22.5 54q0 37 28.5 64.5t67.5 27.5q35 0 56.5 -21.5t21.5 -54.5q0 -37 -28 -64.5t-67 -27.5q-34 0 -56.5 22zM669.5 751q-21.5 22 -21.5 53q0 38 27.5 65.5t66.5 27.5q35 0 57 -21.5t22 -54.5q0 -37 -28.5 -64.5t-67.5 -27.5q-34 0 -55.5 22z
M943 297h-536q2 -66 39.5 -102.5t106.5 -36.5q110 0 154 83h221q-19 -67 -72 -128t-135.5 -98.5t-183.5 -37.5q-105 0 -181 41.5t-116 112.5t-43 160h-28q-56 0 -87.5 31.5t-31.5 87.5q0 15 1 23l5 50h123l-5 -48q-2 -15 5.5 -24.5t21.5 -9.5h6q21 91 76.5 163.5t141 114.5
t192.5 42q103 0 178.5 -42.5t115.5 -115.5t40 -164q0 -28 -2 -43zM738 404q-1 64 -39 100.5t-106 36.5q-65 0 -112 -35.5t-62 -101.5h319z" />
    <glyph glyph-name="uni04BF" unicode="&#x4bf;" horiz-adv-x="730" 
d="M731 201h-366q-1 -39 22 -59.5t65 -20.5q65 0 81 34h190q-16 -57 -61.5 -97t-113.5 -58h13l-17 -1q-21 -5 -40 -8q-26 -9 -38 -24.5t-12 -32.5q0 -18 12 -29t33 -11q25 0 49 12l-9 -88q-29 -11 -53 -15t-59 -4q-65 0 -99 25.5t-34 65.5q0 63 64 103q-87 16 -135 69
t-51 139q-61 4 -96.5 36.5t-35.5 84.5q0 11 1 17l5 49h119l-4 -35q-2 -16 5 -26.5t21 -13.5q29 94 109 146t193 52q77 0 135 -26t89.5 -74t31.5 -111q0 -17 -1 -26q-4 -36 -13 -73zM551 309q4 41 -16 62.5t-61 21.5q-40 0 -66 -22.5t-32 -61.5h175z" />
    <glyph glyph-name="uni04C0" unicode="&#x4c0;" horiz-adv-x="332" 
d="M136 700h208l-74 -700h-208z" />
    <glyph glyph-name="uni04C1" unicode="&#x4c1;" horiz-adv-x="1104" 
d="M504.5 773.5q-48.5 36.5 -46.5 97.5h101q2 -27 24.5 -40.5t57.5 -13.5t60.5 13.5t33.5 40.5h101q-11 -61 -68 -97.5t-136 -36.5t-127.5 36.5zM857 0l-169 308l-32 -308h-208l32 308l-233 -308h-240l294 350h-8q-17 0 -35.5 12t-27.5 30l-39 80q-12 26 -25.5 39.5
t-32.5 13.5h-35l19 180h75q55 0 91 -19.5t62 -71.5l83 -166q10 -21 21 -29.5t26 -8.5h16l31 290h208l-31 -290h16q15 0 27.5 8.5t27.5 29.5l119 166q36 52 76 71.5t95 19.5h75l-19 -180h-35q-19 0 -35 -13.5t-33 -39.5l-57 -80q-12 -18 -32.5 -30t-38.5 -12h-8l220 -350
h-240z" />
    <glyph glyph-name="uni04C2" unicode="&#x4c2;" horiz-adv-x="968" 
d="M408.5 571q-45.5 38 -41.5 107h132q-2 -52 53 -52q54 0 62 52h133q-10 -68 -65.5 -106.5t-139.5 -38.5q-88 0 -133.5 38zM946 0h-225l-117 209l-22 -209h-196l22 209l-161 -209h-225l208 254h-8q-19 0 -30.5 6.5t-21.5 22.5l-23 39q-9 16 -19 22t-25 6h-12l16 152h49
q44 0 69.5 -5.5t41.5 -19.5t31 -42l57 -108q10 -19 20 -27t27 -8h15l21 205h196l-21 -205h15q17 0 28.5 8t24.5 27l81 108q30 40 60.5 53.5t95.5 13.5h49l-16 -152h-12q-15 0 -26.5 -6t-23.5 -22l-31 -39q-13 -16 -26 -22.5t-32 -6.5h-8z" />
    <glyph glyph-name="uni04C3" unicode="&#x4c3;" horiz-adv-x="712" 
d="M688 363q33 -48 33 -121q0 -12 -2 -36q-11 -108 -80 -164t-187 -56q-60 0 -99 9l16 152q17 -4 52 -4q38 0 61.5 19.5t23.5 60.5q0 31 -20.5 48t-53.5 17h-132l-30 -288h-208l74 700h208l-31 -290h16q15 0 27.5 8.5t27.5 29.5l119 166q37 52 76.5 71.5t94.5 19.5h81
l-18 -171h-34q-23 0 -38 -9t-37 -44l-37 -52q64 -18 97 -66z" />
    <glyph glyph-name="uni04C4" unicode="&#x4c4;" horiz-adv-x="617" 
d="M593.5 214q24.5 -39 24.5 -94q0 -18 -1 -27q-12 -114 -81 -174t-187 -60q-47 0 -76 9l15 145q5 0 13 -1.5t18 -1.5q36 0 62.5 26t26.5 78q0 68 -72 68h-64l-19 -182h-196l52 497h196l-21 -205h15q17 0 28.5 8t24.5 27l81 108q30 40 60.5 53.5t95.5 13.5h55l-16 -152h-16
q-16 0 -28 -6t-24 -22l-31 -39l-9 -10q49 -20 73.5 -59z" />
    <glyph glyph-name="uni04C5" unicode="&#x4c5;" horiz-adv-x="759" 
d="M779 174l-125 -295h-174l52 121h-61l55 527h-149l-23 -226q-17 -157 -85.5 -233.5t-174.5 -76.5h-78l18 172h24q37 0 59 35t28 97l43 405h565l-56 -526h82z" />
    <glyph glyph-name="uni04C6" unicode="&#x4c6;" horiz-adv-x="689" 
d="M693 174l-125 -295h-174l52 121h-53l36 340h-106l-11 -104q-12 -116 -71.5 -180t-165.5 -64h-53l17 159h19q48 0 56 81l28 265h499l-34 -323h86z" />
    <glyph glyph-name="uni04C7" unicode="&#x4c7;" horiz-adv-x="735" 
d="M747 700l-77 -725q-9 -89 -66 -130t-159 -41q-49 0 -87 13l13 130q24 -3 44 -3q22 0 34 9.5t15 33.5l28 274h-195l-27 -261h-208l74 700h208l-28 -266h195l28 266h208z" />
    <glyph glyph-name="uni04C8" unicode="&#x4c8;" horiz-adv-x="652" 
d="M648 497l-55 -529q-18 -164 -216 -164q-43 0 -73 13l13 123q6 -1 13.5 -2.5t16.5 -1.5q46 0 50 42l20 195h-146l-18 -173h-196l52 497h196l-18 -170h146l18 170h197z" />
    <glyph glyph-name="uni04C9" unicode="&#x4c9;" horiz-adv-x="757" 
d="M777 174l-125 -295h-174l52 121h-65l27 261h-195l-27 -261h-208l74 700h208l-28 -266h195l28 266h208l-56 -526h86z" />
    <glyph glyph-name="uni04CA" unicode="&#x4ca;" horiz-adv-x="695" 
d="M699 174l-125 -295h-174l52 121h-53l18 173h-146l-18 -173h-196l52 497h196l-18 -170h146l18 170h197l-34 -323h85z" />
    <glyph glyph-name="uni04CB" unicode="&#x4cb;" horiz-adv-x="666" 
d="M605 0h-113l-13 -120h-192l24 221h96l12 119q-56 -26 -144 -26q-61 0 -107 24.5t-71 68.5t-25 101q0 8 2 28l30 284h208l-26 -239q-1 -9 -1 -25q0 -92 80 -92q20 0 36.5 3.5t32.5 14.5l36 338h209z" />
    <glyph glyph-name="uni04CC" unicode="&#x4cc;" horiz-adv-x="596" 
d="M539 0h-100l-13 -120h-192l24 221h96l5 52q-56 -22 -117 -22q-92 0 -140.5 37.5t-48.5 110.5q0 16 1 25l20 193h199l-17 -163l-1 -14q0 -58 58 -58q20 0 33 3.5t26 13.5l23 218h196z" />
    <glyph glyph-name="uni04CD" unicode="&#x4cd;" horiz-adv-x="965" 
d="M985 174l-125 -295h-174l52 121h-57l47 444l-175 -444h-154l-90 446l-47 -446h-200l74 700h264l101 -457l196 457h258l-56 -526h86z" />
    <glyph glyph-name="uni04CE" unicode="&#x4ce;" horiz-adv-x="937" 
d="M941 174l-125 -295h-174l52 121h-45l37 350l-159 -350h-154l-91 350l-37 -350h-188l52 497h293l68 -297l130 297h289l-34 -323h86z" />
    <glyph glyph-name="uni04CF" unicode="&#x4cf;" horiz-adv-x="309" 
d="M109 497h196l-52 -497h-196z" />
    <glyph glyph-name="uni04D0" unicode="&#x4d0;" horiz-adv-x="712" 
d="M306.5 773.5q-48.5 36.5 -46.5 97.5h101q2 -27 24.5 -40.5t57.5 -13.5t60.5 13.5t33.5 40.5h101q-11 -61 -68 -97.5t-136 -36.5t-127.5 36.5zM478 81h-226l-31 -81h-216l313 700h225l164 -700h-216zM453 232l-44 272l-102 -272h146z" />
    <glyph glyph-name="uni04D1" unicode="&#x4d1;" horiz-adv-x="655" 
d="M238.5 571q-45.5 38 -41.5 107h132q-2 -52 53 -52q54 0 62 52h133q-10 -68 -65.5 -106.5t-139.5 -38.5q-88 0 -133.5 38zM99 47q-53 61 -53 161q0 12 2 40q8 76 42.5 136t89.5 93.5t122 33.5q56 0 93.5 -24t51.5 -64l8 74h196l-52 -497h-196l8 74q-22 -39 -66 -63.5
t-99 -24.5q-94 0 -147 61zM408.5 178q29.5 34 29.5 85q0 40 -22 65t-62 25q-45 0 -74.5 -34t-29.5 -86q0 -40 22 -64.5t60 -24.5q47 0 76.5 34z" />
    <glyph glyph-name="uni04D2" unicode="&#x4d2;" horiz-adv-x="712" 
d="M259.5 751q-22.5 22 -22.5 54q0 37 28.5 64.5t67.5 27.5q35 0 56.5 -21.5t21.5 -54.5q0 -37 -28 -64.5t-67 -27.5q-34 0 -56.5 22zM493.5 751q-21.5 22 -21.5 53q0 38 27.5 65.5t66.5 27.5q35 0 57 -21.5t22 -54.5q0 -37 -28.5 -64.5t-67.5 -27.5q-34 0 -55.5 22zM478 81
h-226l-31 -81h-216l313 700h225l164 -700h-216zM453 232l-44 272l-102 -272h146z" />
    <glyph glyph-name="uni04D3" unicode="&#x4d3;" horiz-adv-x="655" 
d="M192 565q-25 24 -25 59q0 43 32 74.5t75 31.5q38 0 62.5 -24.5t24.5 -61.5q0 -41 -32 -72t-75 -31q-37 0 -62 24zM427.5 565q-24.5 24 -24.5 59q0 43 31.5 74.5t75.5 31.5q38 0 62 -24.5t24 -60.5q0 -42 -31.5 -73t-74.5 -31q-38 0 -62.5 24zM99 47q-53 61 -53 161
q0 12 2 40q8 76 42.5 136t89.5 93.5t122 33.5q56 0 93.5 -24t51.5 -64l8 74h196l-52 -497h-196l8 74q-22 -39 -66 -63.5t-99 -24.5q-94 0 -147 61zM408.5 178q29.5 34 29.5 85q0 40 -22 65t-62 25q-45 0 -74.5 -34t-29.5 -86q0 -40 22 -64.5t60 -24.5q47 0 76.5 34z" />
    <glyph glyph-name="uni04D4" unicode="&#x4d4;" horiz-adv-x="936" 
d="M709 544l-13 -122h229l-15 -149h-229l-13 -117h229l-16 -156h-434l9 83h-193l-43 -83h-217l420 700h532l-17 -156h-229zM471 232l33 315l-164 -315h131z" />
    <glyph glyph-name="uni04D5" unicode="&#x4d5;" horiz-adv-x="969" 
d="M970 204h-366q-3 -41 19.5 -64t64.5 -23q31 0 53 13t32 36h190q-22 -83 -100 -133.5t-187 -50.5q-64 0 -114 20.5t-82 58.5q-43 -40 -100 -59t-133 -19q-95 0 -153 37.5t-58 100.5l1 13q5 43 23.5 74.5t54.5 53.5q37 24 91 33t138 9h78l4 35q2 24 -12.5 40.5t-52.5 16.5
q-73 0 -82 -63h-200q15 84 92 133t204 49q119 0 174 -57q76 56 179 56q76 0 134.5 -27t90 -75.5t31.5 -111.5q0 -17 -1 -26q-3 -33 -13 -70zM791 321q0 36 -19.5 55.5t-56.5 19.5q-40 0 -67.5 -25.5t-32.5 -66.5h175q1 6 1 17zM414 205h-78q-41 0 -61.5 -15t-20.5 -39
q0 -44 62 -44q36 0 63.5 19t31.5 56z" />
    <glyph glyph-name="uni04D6" unicode="&#x4d6;" horiz-adv-x="567" 
d="M245.5 773.5q-48.5 36.5 -46.5 97.5h101q2 -27 24.5 -40.5t57.5 -13.5t60.5 13.5t33.5 40.5h101q-11 -61 -68 -97.5t-136 -36.5t-127.5 36.5zM136 700h450l-17 -156h-242l-13 -122h242l-15 -149h-242l-13 -117h242l-16 -156h-450z" />
    <glyph glyph-name="uni04D7" unicode="&#x4d7;" horiz-adv-x="597" 
d="M222.5 571q-45.5 38 -41.5 107h132q-2 -52 53 -52q54 0 62 52h133q-10 -68 -65.5 -106.5t-139.5 -38.5q-88 0 -133.5 38zM598 201h-366q-1 -39 22 -59.5t65 -20.5q65 0 81 34h190q-22 -78 -99 -123.5t-186 -45.5q-125 0 -195.5 58.5t-70.5 166.5q0 11 2 37
q13 124 98.5 193.5t216.5 69.5q77 0 135 -26t89.5 -74t31.5 -111q0 -17 -1 -26q-4 -36 -13 -73zM418 309q4 41 -16 62.5t-61 21.5q-40 0 -66 -22.5t-32 -61.5h175z" />
    <glyph glyph-name="uni04D8" unicode="&#x4d8;" horiz-adv-x="786" 
d="M208 21.5q-76 42.5 -116 115.5t-40 164q0 28 2 43l6 59h536q-2 66 -39 102.5t-106 36.5q-60 0 -97 -22.5t-58 -60.5h-221q19 68 72.5 128.5t136 98t183.5 37.5q108 0 185 -43.5t116 -117.5t39 -166q0 -30 -2 -45q-11 -102 -65 -187t-145 -135t-208 -50q-103 0 -179 42.5z
M522.5 194.5q46.5 35.5 61.5 101.5h-319q2 -65 40.5 -101t105.5 -36q65 0 111.5 35.5z" />
    <glyph glyph-name="uni04D9" unicode="&#x4d9;" horiz-adv-x="597" 
d="M540 452.5q70 -58.5 70 -166.5q0 -11 -2 -37q-13 -124 -98 -193.5t-216 -69.5q-77 0 -135 26.5t-90 74.5t-32 111q0 17 1 25q4 36 13 73h366q2 39 -20.5 59.5t-65.5 20.5q-32 0 -52.5 -8t-29.5 -26h-190q22 78 99.5 123.5t186.5 45.5q125 0 195 -58.5zM374 126.5
q26 22.5 32 61.5h-175q-4 -41 16 -62.5t61 -21.5q40 0 66 22.5z" />
    <glyph glyph-name="uni04DA" unicode="&#x4da;" horiz-adv-x="786" 
d="M293.5 751q-22.5 22 -22.5 54q0 37 28.5 64.5t67.5 27.5q35 0 56.5 -21.5t21.5 -54.5q0 -37 -28 -64.5t-67 -27.5q-34 0 -56.5 22zM527.5 751q-21.5 22 -21.5 53q0 38 27.5 65.5t66.5 27.5q35 0 57 -21.5t22 -54.5q0 -37 -28.5 -64.5t-67.5 -27.5q-34 0 -55.5 22z
M208 21.5q-76 42.5 -116 115.5t-40 164q0 28 2 43l6 59h536q-2 66 -39 102.5t-106 36.5q-60 0 -97 -22.5t-58 -60.5h-221q19 68 72.5 128.5t136 98t183.5 37.5q108 0 185 -43.5t116 -117.5t39 -166q0 -30 -2 -45q-11 -102 -65 -187t-145 -135t-208 -50q-103 0 -179 42.5z
M522.5 194.5q46.5 35.5 61.5 101.5h-319q2 -65 40.5 -101t105.5 -36q65 0 111.5 35.5z" />
    <glyph glyph-name="uni04DB" unicode="&#x4db;" horiz-adv-x="597" 
d="M167 565q-25 24 -25 59q0 43 32 74.5t75 31.5q38 0 62.5 -24.5t24.5 -61.5q0 -41 -32 -72t-75 -31q-37 0 -62 24zM402.5 565q-24.5 24 -24.5 59q0 43 31.5 74.5t75.5 31.5q38 0 62 -24.5t24 -60.5q0 -42 -31.5 -73t-74.5 -31q-38 0 -62.5 24zM540 452.5
q70 -58.5 70 -166.5q0 -11 -2 -37q-13 -124 -98 -193.5t-216 -69.5q-77 0 -135 26.5t-90 74.5t-32 111q0 17 1 25q4 36 13 73h366q2 39 -20.5 59.5t-65.5 20.5q-32 0 -52.5 -8t-29.5 -26h-190q22 78 99.5 123.5t186.5 45.5q125 0 195 -58.5zM374 126.5q26 22.5 32 61.5h-175
q-4 -41 16 -62.5t61 -21.5q40 0 66 22.5z" />
    <glyph glyph-name="uni04DC" unicode="&#x4dc;" horiz-adv-x="1104" 
d="M458.5 751q-22.5 22 -22.5 54q0 37 28.5 64.5t67.5 27.5q35 0 56.5 -21.5t21.5 -54.5q0 -37 -28 -64.5t-67 -27.5q-34 0 -56.5 22zM692.5 751q-21.5 22 -21.5 53q0 38 27.5 65.5t66.5 27.5q35 0 57 -21.5t22 -54.5q0 -37 -28.5 -64.5t-67.5 -27.5q-34 0 -55.5 22zM857 0
l-169 308l-32 -308h-208l32 308l-233 -308h-240l294 350h-8q-17 0 -35.5 12t-27.5 30l-39 80q-12 26 -25.5 39.5t-32.5 13.5h-35l19 180h75q55 0 91 -19.5t62 -71.5l83 -166q10 -21 21 -29.5t26 -8.5h16l31 290h208l-31 -290h16q15 0 27.5 8.5t27.5 29.5l119 166
q36 52 76 71.5t95 19.5h75l-19 -180h-35q-19 0 -35 -13.5t-33 -39.5l-57 -80q-12 -18 -32.5 -30t-38.5 -12h-8l220 -350h-240z" />
    <glyph glyph-name="uni04DD" unicode="&#x4dd;" horiz-adv-x="968" 
d="M362 565q-25 24 -25 59q0 43 32 74.5t75 31.5q38 0 62.5 -24.5t24.5 -61.5q0 -41 -32 -72t-75 -31q-37 0 -62 24zM597.5 565q-24.5 24 -24.5 59q0 43 31.5 74.5t75.5 31.5q38 0 62 -24.5t24 -60.5q0 -42 -31.5 -73t-74.5 -31q-38 0 -62.5 24zM946 0h-225l-117 209
l-22 -209h-196l22 209l-161 -209h-225l208 254h-8q-19 0 -30.5 6.5t-21.5 22.5l-23 39q-9 16 -19 22t-25 6h-12l16 152h49q44 0 69.5 -5.5t41.5 -19.5t31 -42l57 -108q10 -19 20 -27t27 -8h15l21 205h196l-21 -205h15q17 0 28.5 8t24.5 27l81 108q30 40 60.5 53.5t95.5 13.5
h49l-16 -152h-12q-15 0 -26.5 -6t-23.5 -22l-31 -39q-13 -16 -26 -22.5t-32 -6.5h-8z" />
    <glyph glyph-name="uni04DE" unicode="&#x4de;" horiz-adv-x="639" 
d="M220.5 751q-22.5 22 -22.5 54q0 37 28.5 64.5t67.5 27.5q35 0 56.5 -21.5t21.5 -54.5q0 -37 -28 -64.5t-67 -27.5q-34 0 -56.5 22zM454.5 751q-21.5 22 -21.5 53q0 38 27.5 65.5t66.5 27.5q35 0 57 -21.5t22 -54.5q0 -37 -28.5 -64.5t-67.5 -27.5q-34 0 -55.5 22z
M261 216q0 -73 73 -73q40 0 61 25.5t21 59.5q0 33 -19 48.5t-61 15.5h-80l15 142h79q53 0 74 22t21 61q0 26 -17 40.5t-46 14.5q-75 0 -83 -82h-219q10 97 84 163t232 66q119 0 194 -42.5t75 -134.5q0 -16 -1 -24q-4 -39 -25 -72.5t-52 -55.5t-63 -29q48 -12 79.5 -51.5
t31.5 -97.5q0 -74 -43.5 -126.5t-114.5 -78.5t-152 -26q-150 0 -216.5 58t-66.5 158q0 12 2 36h218q-1 -6 -1 -17z" />
    <glyph glyph-name="uni04DF" unicode="&#x4df;" horiz-adv-x="565" 
d="M152 565q-25 24 -25 59q0 43 32 74.5t75 31.5q38 0 62.5 -24.5t24.5 -61.5q0 -41 -32 -72t-75 -31q-37 0 -62 24zM387.5 565q-24.5 24 -24.5 59q0 43 31.5 74.5t75.5 31.5q38 0 62 -24.5t24 -60.5q0 -42 -31.5 -73t-74.5 -31q-38 0 -62.5 24zM289 108q30 0 45 15t15 43
q0 39 -60 39h-64l10 100h61q32 0 51 15t19 40q0 17 -12 27t-34 10q-59 0 -64 -49h-196q7 68 73 115.5t205 47.5q103 0 165.5 -32.5t62.5 -97.5q0 -59 -38 -89.5t-92 -35.5q49 -4 79.5 -29.5t30.5 -73.5q0 -11 -1 -17q-5 -49 -44.5 -83.5t-98.5 -52t-124 -17.5
q-131 0 -189 43t-58 115q0 14 1 21h196q-6 -54 61 -54z" />
    <glyph glyph-name="uni04E0" unicode="&#x4e0;" 
d="M109.5 39q-67.5 56 -67.5 154q0 11 2 35h218q-4 -37 15.5 -60t60.5 -23q37 0 59 25t25 58q1 6 1 16q0 36 -21 53.5t-66 17.5h-102l153 215h-254l18 170h535l-194 -275q64 -12 104.5 -59.5t40.5 -118.5q0 -84 -44.5 -143.5t-116 -90t-151.5 -30.5q-148 0 -215.5 56z" />
    <glyph glyph-name="uni04E1" unicode="&#x4e1;" horiz-adv-x="588" 
d="M60 -157.5q-69 49.5 -69 147.5q0 10 2 34h212q-3 -37 15.5 -57t51.5 -20q38 0 61 28.5t23 79.5q0 42 -31 60.5t-102 18.5h-62l153 197h-241l17 166h526l-193 -275q66 -8 102.5 -51t36.5 -113q0 -9 -2 -31q-12 -113 -92 -173.5t-206 -60.5q-133 0 -202 49.5z" />
    <glyph glyph-name="uni04E2" unicode="&#x4e2;" horiz-adv-x="736" 
d="M259 844h404l-11 -100h-404zM275 48l-5 -48h-208l74 700h208l-41 -388l232 340l5 48h208l-74 -700h-208l41 388z" />
    <glyph glyph-name="uni04E3" unicode="&#x4e3;" horiz-adv-x="650" 
d="M209 664h364l-11 -103h-364zM257 34l-4 -34h-196l52 497h196l-29 -274l169 232l4 42h197l-52 -497h-197l28 265z" />
    <glyph glyph-name="uni04E4" unicode="&#x4e4;" horiz-adv-x="736" 
d="M274 737.5q-22 21.5 -22 52.5q0 38 28.5 66t67.5 28q35 0 56.5 -21.5t21.5 -54.5q0 -37 -28.5 -64.5t-67.5 -27.5q-34 0 -56 21.5zM507.5 737.5q-21.5 21.5 -21.5 52.5q0 38 28 66t67 28q35 0 57 -21.5t22 -54.5q0 -37 -28.5 -64.5t-68.5 -27.5q-34 0 -55.5 21.5zM275 48
l-5 -48h-208l74 700h208l-41 -388l232 340l5 48h208l-74 -700h-208l41 388z" />
    <glyph glyph-name="uni04E5" unicode="&#x4e5;" horiz-adv-x="650" 
d="M196 555q-25 24 -25 59q0 43 32 74.5t75 31.5q38 0 62.5 -24.5t24.5 -61.5q0 -41 -32 -72t-75 -31q-37 0 -62 24zM431.5 555q-24.5 24 -24.5 59q0 43 31.5 74.5t75.5 31.5q38 0 62 -24.5t24 -60.5q0 -42 -31.5 -73t-74.5 -31q-38 0 -62.5 24zM257 34l-4 -34h-196l52 497
h196l-29 -274l169 232l4 42h197l-52 -497h-197l28 265z" />
    <glyph glyph-name="uni04E6" unicode="&#x4e6;" horiz-adv-x="809" 
d="M307.5 751q-22.5 22 -22.5 54q0 37 28.5 64.5t67.5 27.5q35 0 56.5 -21.5t21.5 -54.5q0 -37 -28 -64.5t-67 -27.5q-34 0 -56.5 22zM541.5 751q-21.5 22 -21.5 53q0 38 27.5 65.5t66.5 27.5q35 0 57 -21.5t22 -54.5q0 -37 -28.5 -64.5t-67.5 -27.5q-34 0 -55.5 22zM214 22
q-79 44 -120 119t-41 166q0 29 2 43q11 101 66.5 186t148 135.5t210.5 50.5q109 0 188 -44t120 -119t41 -166q0 -29 -2 -43q-11 -101 -66.5 -186t-148 -135.5t-210.5 -50.5q-109 0 -188 44zM523.5 193.5q43.5 29.5 66 78.5t22.5 105q0 70 -39 114.5t-113 44.5
q-59 0 -102 -29.5t-65.5 -78.5t-22.5 -105q0 -70 39 -114.5t112 -44.5q59 0 102.5 29.5z" />
    <glyph glyph-name="uni04E7" unicode="&#x4e7;" horiz-adv-x="609" 
d="M181 565q-25 24 -25 59q0 43 32 74.5t75 31.5q38 0 62.5 -24.5t24.5 -61.5q0 -41 -32 -72t-75 -31q-37 0 -62 24zM416.5 565q-24.5 24 -24.5 59q0 43 31.5 74.5t75.5 31.5q38 0 62 -24.5t24 -60.5q0 -42 -31.5 -73t-74.5 -31q-38 0 -62.5 24zM162.5 14.5
q-59.5 28.5 -91.5 81t-32 121.5q0 10 2 32q8 78 50 137.5t111 92t156 32.5q81 0 140.5 -28t91.5 -80t32 -121q0 -11 -2 -33q-8 -78 -49.5 -137.5t-111 -92.5t-156.5 -33q-81 0 -140.5 28.5zM395.5 180.5q28.5 32.5 28.5 85.5q0 39 -22 61.5t-61 22.5q-46 0 -75.5 -32
t-29.5 -83q0 -40 22.5 -63.5t61.5 -23.5q47 0 75.5 32.5z" />
    <glyph glyph-name="uni04E8" unicode="&#x4e8;" horiz-adv-x="809" 
d="M668 678q79 -44 120 -119t41 -166q0 -29 -2 -43q-11 -101 -66.5 -186t-148 -135.5t-210.5 -50.5q-109 0 -188 44t-120 119t-41 166q0 29 2 43q11 101 66.5 186t148 135.5t210.5 50.5q109 0 188 -44zM342 494.5q-47 -41.5 -63 -107.5h333q-3 66 -42 107.5t-110 41.5
t-118 -41.5zM540.5 206q47.5 42 63.5 109h-334q2 -67 41 -109t110 -42q72 0 119.5 42z" />
    <glyph glyph-name="uni04E9" unicode="&#x4e9;" horiz-adv-x="609" 
d="M498.5 483q59.5 -28 91.5 -80t32 -121q0 -11 -2 -33q-8 -78 -49.5 -137.5t-111 -92.5t-156.5 -33q-81 0 -140.5 28.5t-91.5 81t-32 121.5q0 10 2 32q8 78 50 137.5t111 92t156 32.5q81 0 140.5 -28zM279 330q-26 -20 -37 -56h182q-3 36 -24.5 56t-58.5 20q-36 0 -62 -20z
M381 167.5q25 19.5 36 54.5h-180q3 -35 25 -54.5t58 -19.5t61 19.5z" />
    <glyph glyph-name="uni04EA" unicode="&#x4ea;" horiz-adv-x="809" 
d="M307.5 751q-22.5 22 -22.5 54q0 37 28.5 64.5t67.5 27.5q35 0 56.5 -21.5t21.5 -54.5q0 -37 -28 -64.5t-67 -27.5q-34 0 -56.5 22zM541.5 751q-21.5 22 -21.5 53q0 38 27.5 65.5t66.5 27.5q35 0 57 -21.5t22 -54.5q0 -37 -28.5 -64.5t-67.5 -27.5q-34 0 -55.5 22z
M668 678q79 -44 120 -119t41 -166q0 -29 -2 -43q-11 -101 -66.5 -186t-148 -135.5t-210.5 -50.5q-109 0 -188 44t-120 119t-41 166q0 29 2 43q11 101 66.5 186t148 135.5t210.5 50.5q109 0 188 -44zM342 494.5q-47 -41.5 -63 -107.5h333q-3 66 -42 107.5t-110 41.5
t-118 -41.5zM540.5 206q47.5 42 63.5 109h-334q2 -67 41 -109t110 -42q72 0 119.5 42z" />
    <glyph glyph-name="uni04EB" unicode="&#x4eb;" horiz-adv-x="609" 
d="M181 565q-25 24 -25 59q0 43 32 74.5t75 31.5q38 0 62.5 -24.5t24.5 -61.5q0 -41 -32 -72t-75 -31q-37 0 -62 24zM416.5 565q-24.5 24 -24.5 59q0 43 31.5 74.5t75.5 31.5q38 0 62 -24.5t24 -60.5q0 -42 -31.5 -73t-74.5 -31q-38 0 -62.5 24zM498.5 483
q59.5 -28 91.5 -80t32 -121q0 -11 -2 -33q-8 -78 -49.5 -137.5t-111 -92.5t-156.5 -33q-81 0 -140.5 28.5t-91.5 81t-32 121.5q0 10 2 32q8 78 50 137.5t111 92t156 32.5q81 0 140.5 -28zM279 330q-26 -20 -37 -56h182q-3 36 -24.5 56t-58.5 20q-36 0 -62 -20zM381 167.5
q25 19.5 36 54.5h-180q3 -35 25 -54.5t58 -19.5t61 19.5z" />
    <glyph glyph-name="uni04EC" unicode="&#x4ec;" horiz-adv-x="784" 
d="M280.5 751q-22.5 22 -22.5 54q0 37 28.5 64.5t67.5 27.5q35 0 56.5 -21.5t21.5 -54.5q0 -37 -28 -64.5t-67 -27.5q-34 0 -56.5 22zM514.5 751q-21.5 22 -21.5 53q0 38 27.5 65.5t66.5 27.5q35 0 57 -21.5t22 -54.5q0 -37 -28.5 -64.5t-67.5 -27.5q-34 0 -55.5 22z
M642 682q80 -40 123 -113.5t43 -171.5q0 -31 -2 -47q-12 -111 -69.5 -195t-151 -130.5t-208.5 -46.5q-100 0 -176 37t-116.5 103.5t-38.5 151.5h224q4 -51 39.5 -79t98.5 -28q60 0 105.5 35t65.5 96h-210l12 112h210q-8 61 -46 96t-98 35t-102.5 -28.5t-57.5 -78.5h-224
q17 87 72 153t138 102.5t182 36.5q107 0 187 -40z" />
    <glyph glyph-name="uni04ED" unicode="&#x4ed;" horiz-adv-x="599" 
d="M173 565q-25 24 -25 59q0 43 32 74.5t75 31.5q38 0 62.5 -24.5t24.5 -61.5q0 -41 -32 -72t-75 -31q-37 0 -62 24zM408.5 565q-24.5 24 -24.5 59q0 43 31.5 74.5t75.5 31.5q38 0 62 -24.5t24 -60.5q0 -42 -31.5 -73t-74.5 -31q-38 0 -62.5 24zM46 297q13 64 53.5 113.5
t105 77t146.5 27.5q87 0 145.5 -30.5t87 -83t28.5 -119.5q0 -12 -2 -34q-8 -73 -46 -133.5t-106.5 -96t-162.5 -35.5q-83 0 -141.5 26.5t-89 74.5t-29.5 111h197q3 -34 23 -50.5t61 -16.5t66 20.5t32 58.5h-134l8 80h134q2 38 -18 60t-61 22q-81 0 -101 -72h-196z" />
    <glyph glyph-name="uni04EE" unicode="&#x4ee;" horiz-adv-x="663" 
d="M623 757h-404l10 100h404zM757 700l-421 -700h-233l146 246l-187 454h245l84 -250l134 250h232z" />
    <glyph glyph-name="uni04EF" unicode="&#x4ef;" horiz-adv-x="644" 
d="M204 674h364l-11 -103h-364zM639 497l-49 -464q-6 -61 -31.5 -108t-62.5 -76q-40 -30 -86.5 -43t-115.5 -13q-71 0 -116.5 12t-75.5 39q-24 22 -39 53.5t-15 64.5l1 14h196q-1 -24 14.5 -37.5t48.5 -13.5q75 0 84 80l9 91q-24 -40 -66 -62.5t-98 -22.5q-164 0 -164 170
q0 14 2 42l29 274h196l-26 -251q-1 -8 -1 -21q0 -66 60 -66q74 0 86 103l24 235h196z" />
    <glyph glyph-name="uni04F0" unicode="&#x4f0;" horiz-adv-x="663" 
d="M243.5 751q-22.5 22 -22.5 54q0 37 28.5 64.5t67.5 27.5q35 0 56.5 -21.5t21.5 -54.5q0 -37 -28 -64.5t-67 -27.5q-34 0 -56.5 22zM477.5 751q-21.5 22 -21.5 53q0 38 27.5 65.5t66.5 27.5q35 0 57 -21.5t22 -54.5q0 -37 -28.5 -64.5t-67.5 -27.5q-34 0 -55.5 22z
M757 700l-421 -700h-233l146 246l-187 454h245l84 -250l134 250h232z" />
    <glyph glyph-name="uni04F1" unicode="&#x4f1;" horiz-adv-x="644" 
d="M192 565q-25 24 -25 59q0 43 32 74.5t75 31.5q38 0 62.5 -24.5t24.5 -61.5q0 -41 -32 -72t-75 -31q-37 0 -62 24zM427.5 565q-24.5 24 -24.5 59q0 43 31.5 74.5t75.5 31.5q38 0 62 -24.5t24 -60.5q0 -42 -31.5 -73t-74.5 -31q-38 0 -62.5 24zM639 497l-49 -464
q-6 -61 -31.5 -108t-62.5 -76q-40 -30 -86.5 -43t-115.5 -13q-71 0 -116.5 12t-75.5 39q-24 22 -39 53.5t-15 64.5l1 14h196q-1 -24 14.5 -37.5t48.5 -13.5q75 0 84 80l9 91q-24 -40 -66 -62.5t-98 -22.5q-164 0 -164 170q0 14 2 42l29 274h196l-26 -251q-1 -8 -1 -21
q0 -66 60 -66q74 0 86 103l24 235h196z" />
    <glyph glyph-name="uni04F2" unicode="&#x4f2;" horiz-adv-x="663" 
d="M336 739l-64 27l155 131l105 -40zM465 766l154 131l104 -43l-195 -116zM757 700l-421 -700h-233l146 246l-187 454h245l84 -250l134 250h232z" />
    <glyph glyph-name="uni04F3" unicode="&#x4f3;" horiz-adv-x="644" 
d="M215 560l143 154l89 -60l-170 -128zM410 560l143 154l89 -60l-170 -128zM639 497l-49 -464q-6 -61 -31.5 -108t-62.5 -76q-40 -30 -86.5 -43t-115.5 -13q-71 0 -116.5 12t-75.5 39q-24 22 -39 53.5t-15 64.5l1 14h196q-1 -24 14.5 -37.5t48.5 -13.5q75 0 84 80l9 91
q-24 -40 -66 -62.5t-98 -22.5q-164 0 -164 170q0 14 2 42l29 274h196l-26 -251q-1 -8 -1 -21q0 -66 60 -66q74 0 86 103l24 235h196z" />
    <glyph glyph-name="uni04F4" unicode="&#x4f4;" horiz-adv-x="666" 
d="M217.5 751q-22.5 22 -22.5 54q0 37 28.5 64.5t67.5 27.5q35 0 56.5 -21.5t21.5 -54.5q0 -37 -28 -64.5t-67 -27.5q-34 0 -56.5 22zM451.5 751q-21.5 22 -21.5 53q0 38 27.5 65.5t66.5 27.5q35 0 57 -21.5t22 -54.5q0 -37 -28.5 -64.5t-67.5 -27.5q-34 0 -55.5 22z
M419 220q-56 -26 -144 -26q-61 0 -107 24.5t-71 68.5t-25 101q0 8 2 28l30 284h208l-26 -239q-1 -9 -1 -25q0 -92 80 -92q20 0 36.5 3.5t32.5 14.5l36 338h209l-74 -700h-209z" />
    <glyph glyph-name="uni04F5" unicode="&#x4f5;" horiz-adv-x="596" 
d="M159 565q-25 24 -25 59q0 43 32 74.5t75 31.5q38 0 62.5 -24.5t24.5 -61.5q0 -41 -32 -72t-75 -31q-37 0 -62 24zM394.5 565q-24.5 24 -24.5 59q0 43 31.5 74.5t75.5 31.5q38 0 62 -24.5t24 -60.5q0 -42 -31.5 -73t-74.5 -31q-38 0 -62.5 24zM359 153q-56 -22 -117 -22
q-92 0 -140.5 37.5t-48.5 110.5q0 16 1 25l20 193h199l-17 -163l-1 -14q0 -58 58 -58q20 0 33 3.5t26 13.5l23 218h196l-52 -497h-196z" />
    <glyph glyph-name="uni04F6" unicode="&#x4f6;" horiz-adv-x="501" 
d="M325 521l-37 -354h55l-31 -288h-190l13 121h-73l74 700h434l-19 -179h-226z" />
    <glyph glyph-name="uni04F7" unicode="&#x4f7;" horiz-adv-x="433" 
d="M287 320l-16 -153h55l-31 -288h-190l13 121h-61l52 497h356l-18 -177h-160z" />
    <glyph glyph-name="uni04F8" unicode="&#x4f8;" horiz-adv-x="956" 
d="M382.5 751q-22.5 22 -22.5 54q0 37 28.5 64.5t67.5 27.5q35 0 56.5 -21.5t21.5 -54.5q0 -37 -28 -64.5t-67 -27.5q-34 0 -56.5 22zM616.5 751q-21.5 22 -21.5 53q0 38 27.5 65.5t66.5 27.5q35 0 57 -21.5t22 -54.5q0 -37 -28.5 -64.5t-67.5 -27.5q-34 0 -55.5 22z
M136 700h208l-28 -265h149q57 0 102 -26t70 -70t25 -98q0 -63 -33 -119t-89 -89t-121 -33h-357zM760 700h208l-74 -700h-208zM363 141q39 0 63 24.5t24 62.5q0 29 -19 47t-52 18h-78l-16 -152h78z" />
    <glyph glyph-name="uni04F9" unicode="&#x4f9;" horiz-adv-x="851" 
d="M286 565q-25 24 -25 59q0 43 32 74.5t75 31.5q38 0 62.5 -24.5t24.5 -61.5q0 -41 -32 -72t-75 -31q-37 0 -62 24zM521.5 565q-24.5 24 -24.5 59q0 43 31.5 74.5t75.5 31.5q38 0 62 -24.5t24 -60.5q0 -42 -31.5 -73t-74.5 -31q-38 0 -62.5 24zM305 497l-16 -152h92
q104 0 152 -43t48 -109q0 -13 -1 -20q-4 -41 -30.5 -81t-78 -66t-126.5 -26h-288l52 497h196zM651 497h196l-52 -497h-196zM265 113h51q29 0 47 18t18 46q0 23 -13.5 36.5t-39.5 13.5h-51z" />
    <glyph glyph-name="uni04FC" unicode="&#x4fc;" horiz-adv-x="687" 
d="M342 -181l14 130q30 -4 39 -4q28 0 40 11t12 33q0 17 -7 38.5t-25 63.5l-51 111l-128 -202h-228l252 350l-178 350h228l85 -202l130 202h227l-251 -350l107 -215q26 -51 36.5 -83.5t10.5 -61.5q0 -15 -1 -23q-9 -83 -63.5 -122.5t-159.5 -39.5q-51 0 -89 14z" />
    <glyph glyph-name="uni04FD" unicode="&#x4fd;" horiz-adv-x="620" 
d="M287 -183l12 119q23 -4 30 -4q25 0 37.5 11.5t15.5 36.5q2 21 -7 48t-28 63l-22 42l-86 -133h-231l205 251l-150 246h231l56 -127l84 127h230l-202 -246l39 -62q43 -69 60.5 -117t17.5 -90q0 -9 -2 -31q-17 -147 -194 -147q-66 0 -96 13z" />
    <glyph glyph-name="uni0510" unicode="&#x510;" horiz-adv-x="639" 
d="M643 233q-12 -115 -90.5 -183.5t-242.5 -68.5q-73 0 -133.5 21.5t-96.5 63.5t-36 103q0 50 20.5 90.5t54 66.5t72.5 35q-44 9 -76.5 48.5t-32.5 92.5q0 11 1 16q11 105 98 153t214 48q146 0 207.5 -57t61.5 -144q0 -19 -1 -28h-219l1 14q0 68 -68 68q-35 0 -56 -20.5
t-21 -56.5q0 -29 18.5 -45t62.5 -16h79l-15 -142h-80q-45 0 -68 -19t-27 -58q-3 -31 12.5 -51.5t52.5 -20.5q81 0 90 90h218z" />
    <glyph glyph-name="uni0511" unicode="&#x511;" horiz-adv-x="565" 
d="M567 162q-8 -80 -75.5 -129.5t-208.5 -49.5q-97 0 -166.5 36.5t-69.5 103.5l1 13q6 57 43 86.5t92 33.5q-46 5 -76 28.5t-30 69.5q0 78 72.5 117.5t185.5 39.5q131 0 188 -42t57 -106q0 -10 -1 -15h-196q5 49 -54 49q-25 0 -40.5 -13t-15.5 -35q0 -20 16 -32t44 -12h61
l-10 -100h-64q-72 0 -72 -56q0 -20 12.5 -30.5t37.5 -10.5q67 0 73 54h196z" />
    <glyph glyph-name="uni0512" unicode="&#x512;" horiz-adv-x="741" 
d="M753 700l-77 -725q-9 -89 -66 -130t-159 -41q-49 0 -87 13l13 130q24 -3 44 -3q22 0 34 9.5t15 33.5l56 540h-149l-23 -226q-17 -157 -85.5 -233.5t-174.5 -76.5h-78l18 172h24q37 0 59 35t28 97l43 405h565z" />
    <glyph glyph-name="uni0513" unicode="&#x513;" horiz-adv-x="646" 
d="M641 497l-55 -529q-9 -82 -64 -123t-151 -41q-43 0 -73 13l13 123q6 -1 13.5 -2.5t16.5 -1.5q46 0 50 42l38 362h-106l-11 -104q-12 -116 -71.5 -180t-165.5 -64h-53l17 159h19q48 0 56 81l28 265h499z" />
    <glyph glyph-name="uni051C" unicode="&#x51c;" horiz-adv-x="1087" 
d="M67 700h221l81 -422l166 422h165l76 -422l171 422h221l-326 -700h-182l-76 381l-157 -381h-182z" />
    <glyph glyph-name="uni051D" unicode="&#x51d;" horiz-adv-x="861" 
d="M54 497h199l48 -275l92 275h179l34 -275l106 275h200l-228 -497h-181l-45 255l-100 -255h-181z" />
    <glyph glyph-name="uni0524" unicode="&#x524;" horiz-adv-x="735" 
d="M746 167l-31 -288h-190l13 121h-73l55 526h-195l-55 -526h-208l74 700h611l-56 -533h55z" />
    <glyph glyph-name="uni0525" unicode="&#x525;" horiz-adv-x="672" 
d="M665 167l-31 -288h-190l13 121h-61l36 343h-143l-36 -343h-196l52 497h535l-34 -330h55z" />
    <glyph glyph-name="uni0526" unicode="&#x526;" horiz-adv-x="714" 
d="M709 167l-31 -288h-190l13 121h-73l25 239q1 9 1 25q0 92 -80 92q-20 0 -36 -3.5t-32 -14.5l-36 -338h-208l74 700h208l-24 -220q57 26 145 26q61 0 107 -24.5t70.5 -69t24.5 -101.5q0 -18 -1 -27l-12 -117h55z" />
    <glyph glyph-name="uni0527" unicode="&#x527;" horiz-adv-x="676" 
d="M669 167l-31 -288h-190l13 121h-65l27 253q1 8 1 22q0 37 -15 54.5t-46 17.5q-74 0 -84 -98l-26 -249h-196l74 700h196l-29 -276q24 43 67.5 65t102.5 22q162 0 162 -166q0 -12 -2 -42l-14 -136h55z" />
    <glyph glyph-name="uni0E3F" unicode="&#xe3f;" horiz-adv-x="661" 
d="M623.5 302q35.5 -37 35.5 -96q0 -12 -1 -19q-9 -86 -76 -136.5t-170 -50.5h-25l-11 -100h-95l11 100h-230l71 679h230l11 101h95l-11 -101h17q96 0 151 -42t55 -114q0 -71 -42 -119t-111 -59q60 -6 95.5 -43zM327 547l-14 -140h66q41 0 66 22t25 58q0 28 -20.5 44
t-56.5 16h-66zM423.5 166.5q25.5 21.5 25.5 57.5q0 29 -20.5 46t-56.5 17h-72l-15 -142h71q42 0 67.5 21.5z" />
    <glyph glyph-name="Wgrave" unicode="&#x1e80;" horiz-adv-x="1087" 
d="M494 813l48 86l217 -86l-48 -86zM67 700h221l81 -422l166 422h165l76 -422l171 422h221l-326 -700h-182l-76 381l-157 -381h-182z" />
    <glyph glyph-name="wgrave" unicode="&#x1e81;" horiz-adv-x="861" 
d="M355 678l86 84l159 -145l-85 -85zM54 497h199l48 -275l92 275h179l34 -275l106 275h200l-228 -497h-181l-45 255l-100 -255h-181z" />
    <glyph glyph-name="Wacute" unicode="&#x1e82;" horiz-adv-x="1087" 
d="M498 813l235 86l30 -86l-235 -86zM67 700h221l81 -422l166 422h165l76 -422l171 422h221l-326 -700h-182l-76 381l-157 -381h-182z" />
    <glyph glyph-name="wacute" unicode="&#x1e83;" horiz-adv-x="861" 
d="M381 620l189 145l69 -84l-191 -146zM54 497h199l48 -275l92 275h179l34 -275l106 275h200l-228 -497h-181l-45 255l-100 -255h-181z" />
    <glyph glyph-name="Wdieresis" unicode="&#x1e84;" horiz-adv-x="1087" 
d="M446.5 751q-22.5 22 -22.5 54q0 37 28.5 64.5t67.5 27.5q35 0 56.5 -21.5t21.5 -54.5q0 -37 -28 -64.5t-67 -27.5q-34 0 -56.5 22zM680.5 751q-21.5 22 -21.5 53q0 38 27.5 65.5t66.5 27.5q35 0 57 -21.5t22 -54.5q0 -37 -28.5 -64.5t-67.5 -27.5q-34 0 -55.5 22zM67 700
h221l81 -422l166 422h165l76 -422l171 422h221l-326 -700h-182l-76 381l-157 -381h-182z" />
    <glyph glyph-name="wdieresis" unicode="&#x1e85;" horiz-adv-x="861" 
d="M307 565q-25 24 -25 59q0 43 32 74.5t75 31.5q38 0 62.5 -24.5t24.5 -61.5q0 -41 -32 -72t-75 -31q-37 0 -62 24zM542.5 565q-24.5 24 -24.5 59q0 43 31.5 74.5t75.5 31.5q38 0 62 -24.5t24 -60.5q0 -42 -31.5 -73t-74.5 -31q-38 0 -62.5 24zM54 497h199l48 -275l92 275
h179l34 -275l106 275h200l-228 -497h-181l-45 255l-100 -255h-181z" />
    <glyph glyph-name="Ygrave" unicode="&#x1ef2;" horiz-adv-x="663" 
d="M508 727l-217 86l48 86l217 -86zM757 700l-421 -700h-233l146 246l-187 454h245l84 -250l134 250h232z" />
    <glyph glyph-name="ygrave" unicode="&#x1ef3;" horiz-adv-x="644" 
d="M240 678l86 84l159 -145l-85 -85zM639 497l-49 -464q-6 -61 -31.5 -108t-62.5 -76q-40 -30 -86.5 -43t-115.5 -13q-71 0 -116.5 12t-75.5 39q-24 22 -39 53.5t-15 64.5l1 14h196q-1 -24 14.5 -37.5t48.5 -13.5q75 0 84 80l9 91q-24 -40 -66 -62.5t-98 -22.5
q-164 0 -164 170q0 14 2 42l29 274h196l-26 -251q-1 -8 -1 -21q0 -66 60 -66q74 0 86 103l24 235h196z" />
    <glyph glyph-name="uni2002" unicode="&#x2002;" horiz-adv-x="500" 
 />
    <glyph glyph-name="uni2003" unicode="&#x2003;" horiz-adv-x="1000" 
 />
    <glyph glyph-name="uni2004" unicode="&#x2004;" horiz-adv-x="0" 
 />
    <glyph glyph-name="uni2005" unicode="&#x2005;" horiz-adv-x="250" 
 />
    <glyph glyph-name="uni2009" unicode="&#x2009;" horiz-adv-x="135" 
 />
    <glyph glyph-name="uni200A" unicode="&#x200a;" horiz-adv-x="75" 
 />
    <glyph glyph-name="endash" unicode="&#x2013;" horiz-adv-x="628" 
d="M77 352h548l-12 -118h-548z" />
    <glyph glyph-name="emdash" unicode="&#x2014;" horiz-adv-x="810" 
d="M77 352h730l-12 -118h-730z" />
    <glyph glyph-name="quoteleft" unicode="&#x2018;" horiz-adv-x="306" 
d="M131.5 430.5q-28.5 32.5 -28.5 90.5q0 16 1 25q10 95 63.5 144t141.5 49q8 0 17.5 -1.5t14.5 -1.5l-6 -63q-14 2 -38 2q-46 0 -78 -27q-26 -23 -34 -61q7 7 20.5 11.5t27.5 4.5q41 0 65 -25.5t24 -64.5q0 -47 -33.5 -81t-82.5 -34q-46 0 -74.5 32.5z" />
    <glyph glyph-name="quoteright" unicode="&#x2019;" horiz-adv-x="306" 
d="M292.5 691.5q28.5 -31.5 28.5 -89.5q0 -9 -2 -27q-10 -95 -63 -144t-141 -49q-3 0 -33 3l7 63q14 -2 38 -2q46 0 78 27q26 23 34 61q-7 -7 -20.5 -11.5t-28.5 -4.5q-41 0 -64.5 25.5t-23.5 64.5q0 47 33.5 81t82.5 34q46 0 74.5 -31.5z" />
    <glyph glyph-name="quotesinglbase" unicode="&#x201a;" horiz-adv-x="306" 
d="M233.5 130.5q28.5 -32.5 28.5 -90.5q0 -16 -1 -25q-10 -95 -63.5 -144t-141.5 -49q-8 0 -17.5 1.5t-14.5 1.5l6 63q14 -2 38 -2q46 0 78 27q26 23 34 61q-7 -7 -20.5 -11.5t-27.5 -4.5q-41 0 -65 25.5t-24 64.5q0 47 33.5 81t82.5 34q46 0 74.5 -32.5z" />
    <glyph glyph-name="quotedblleft" unicode="&#x201c;" horiz-adv-x="550" 
d="M131.5 430.5q-28.5 32.5 -28.5 90.5q0 16 1 25q10 95 63.5 144t141.5 49q8 0 17.5 -1.5t14.5 -1.5l-6 -63q-14 2 -38 2q-46 0 -78 -27q-26 -23 -34 -61q7 7 20.5 11.5t27.5 4.5q41 0 65 -25.5t24 -64.5q0 -47 -33.5 -81t-82.5 -34q-46 0 -74.5 32.5zM375.5 430.5
q-28.5 32.5 -28.5 90.5q0 16 1 25q10 95 63.5 144t141.5 49q8 0 17.5 -1.5t14.5 -1.5l-6 -63q-14 2 -38 2q-46 0 -78 -27q-26 -23 -34 -61q7 7 20.5 11.5t27.5 4.5q41 0 65 -25.5t24 -64.5q0 -47 -33.5 -81t-82.5 -34q-46 0 -74.5 32.5z" />
    <glyph glyph-name="quotedblright" unicode="&#x201d;" horiz-adv-x="550" 
d="M292.5 691.5q28.5 -31.5 28.5 -89.5q0 -9 -2 -27q-10 -95 -63 -144t-141 -49q-3 0 -33 3l7 63q14 -2 38 -2q46 0 78 27q26 23 34 61q-7 -7 -20.5 -11.5t-28.5 -4.5q-41 0 -64.5 25.5t-23.5 64.5q0 47 33.5 81t82.5 34q46 0 74.5 -31.5zM536.5 691.5
q28.5 -31.5 28.5 -89.5q0 -9 -2 -27q-10 -95 -63 -144t-141 -49q-3 0 -33 3l7 63q14 -2 38 -2q46 0 78 27q26 23 34 61q-7 -7 -20.5 -11.5t-28.5 -4.5q-41 0 -64.5 25.5t-23.5 64.5q0 47 33.5 81t82.5 34q46 0 74.5 -31.5z" />
    <glyph glyph-name="quotedblbase" unicode="&#x201e;" horiz-adv-x="550" 
d="M233.5 130.5q28.5 -32.5 28.5 -90.5q0 -16 -1 -25q-10 -95 -63.5 -144t-141.5 -49q-8 0 -17.5 1.5t-14.5 1.5l6 63q14 -2 38 -2q46 0 78 27q26 23 34 61q-7 -7 -20.5 -11.5t-27.5 -4.5q-41 0 -65 25.5t-24 64.5q0 47 33.5 81t82.5 34q46 0 74.5 -32.5zM477.5 130.5
q28.5 -32.5 28.5 -90.5q0 -16 -1 -25q-10 -95 -63.5 -144t-141.5 -49q-8 0 -17.5 1.5t-14.5 1.5l6 63q14 -2 38 -2q46 0 78 27q26 23 34 61q-7 -7 -20.5 -11.5t-27.5 -4.5q-41 0 -65 25.5t-24 64.5q0 47 33.5 81t82.5 34q46 0 74.5 -32.5z" />
    <glyph glyph-name="dagger" unicode="&#x2020;" horiz-adv-x="470" 
d="M200 330h-115l13 125h115l27 262h140l-27 -262h115l-13 -125h-115l-54 -511h-140z" />
    <glyph glyph-name="daggerdbl" unicode="&#x2021;" horiz-adv-x="470" 
d="M165 0h-115l13 125h115l26 248h-115l13 124h115l23 220h140l-23 -220h115l-13 -124h-115l-26 -248h115l-13 -125h-115l-19 -181h-140z" />
    <glyph glyph-name="bullet" unicode="&#x2022;" horiz-adv-x="380" 
d="M108 199.5q-39 38.5 -39 95.5q0 45 23 83.5t62 61t84 22.5q61 0 100 -38t39 -95q0 -45 -23 -83.5t-62.5 -61.5t-85.5 -23q-59 0 -98 38.5z" />
    <glyph glyph-name="ellipsis" unicode="&#x2026;" horiz-adv-x="929" 
d="M91 12.5q-29 29.5 -29 72.5q0 32 17.5 60t47 45.5t63.5 17.5q44 0 73.5 -29.5t29.5 -71.5q0 -32 -17.5 -61t-47 -46t-62.5 -17q-46 0 -75 29.5zM386 12.5q-29 29.5 -29 72.5q0 32 17.5 60t47 45.5t63.5 17.5q44 0 73.5 -29.5t29.5 -71.5q0 -32 -17.5 -61t-47 -46
t-62.5 -17q-46 0 -75 29.5zM685 12.5q-29 29.5 -29 72.5q0 32 17.5 60t47 45.5t63.5 17.5q44 0 73.5 -29.5t29.5 -71.5q0 -32 -17.5 -61t-47 -46t-62.5 -17q-46 0 -75 29.5z" />
    <glyph glyph-name="perthousand" unicode="&#x2030;" horiz-adv-x="1224" 
d="M141 24l549 686l71 -49l-548 -686zM152.5 369.5q-38.5 20.5 -58.5 54.5t-20 76q0 49 25.5 92.5t72 70t106.5 26.5q54 0 93 -20.5t59.5 -55.5t20.5 -77q0 -49 -26 -92t-73.5 -69t-108.5 -26q-52 0 -90.5 20.5zM309.5 470.5q20.5 23.5 20.5 58.5q0 28 -16 45t-46 17
q-35 0 -55.5 -24t-20.5 -59q0 -27 16 -44t45 -17q36 0 56.5 23.5zM527.5 12.5q-38.5 20.5 -58.5 55.5t-20 77q0 49 26 92t72.5 69t106.5 26q54 0 93 -20.5t59 -55t20 -76.5q0 -49 -26 -92.5t-73.5 -69.5t-108.5 -26q-52 0 -90.5 20.5zM923.5 12.5q-38.5 20.5 -58.5 55.5
t-20 77q0 49 26 92t72.5 69t106.5 26q54 0 93 -20.5t59 -55t20 -76.5q0 -49 -26 -92.5t-73.5 -69.5t-108.5 -26q-52 0 -90.5 20.5zM685 113.5q21 23.5 21 58.5q0 28 -16 45t-46 17q-35 0 -55.5 -24t-20.5 -60q0 -26 16 -43t44 -17q36 0 57 23.5zM1081 113.5q21 23.5 21 58.5
q0 28 -16 45t-46 17q-35 0 -55.5 -24t-20.5 -60q0 -26 16 -43t44 -17q36 0 57 23.5z" />
    <glyph glyph-name="guilsinglleft" unicode="&#x2039;" horiz-adv-x="325" 
d="M31 278l250 218l76 -95l-145 -123l119 -124l-96 -94z" />
    <glyph glyph-name="guilsinglright" unicode="&#x203a;" horiz-adv-x="325" 
d="M26 154l145 124l-119 123l96 95l204 -218l-250 -218z" />
    <glyph glyph-name="fraction" unicode="&#x2044;" horiz-adv-x="186" 
d="M-187 31l544 682l88 -59l-544 -682z" />
    <glyph glyph-name="uni2070" unicode="&#x2070;" horiz-adv-x="453" 
d="M144 432.5q-42 43.5 -42 126.5q0 12 2 38q10 101 63.5 154.5t143.5 53.5q81 0 123.5 -43.5t42.5 -126.5q0 -12 -2 -38q-10 -101 -64 -154.5t-144 -53.5q-81 0 -123 43.5zM325 515q16 25 22 82q2 28 2 37q0 37 -12 54t-37 17q-31 0 -47 -25.5t-22 -82.5q-2 -28 -2 -36
q0 -37 11.5 -54t37.5 -17q31 0 47 25z" />
    <glyph glyph-name="uni2074" unicode="&#x2074;" horiz-adv-x="437" 
d="M446 499h-38l-10 -99h-130l10 99h-173l31 295h129l-19 -189h44l9 92h130l-9 -92h38z" />
    <glyph glyph-name="uni2075" unicode="&#x2075;" horiz-adv-x="432" 
d="M99 518h127q1 -14 12 -22t29 -8q24 0 38.5 13.5t17.5 38.5q2 21 -9.5 34.5t-32.5 13.5q-36 0 -50 -28h-113l24 234h316l-9 -91h-198l-6 -58q29 25 84 25q56 0 89.5 -31t33.5 -82q0 -11 -1 -16q-8 -69 -59.5 -110.5t-132.5 -41.5q-163 0 -160 129z" />
    <glyph glyph-name="uni2076" unicode="&#x2076;" horiz-adv-x="423" 
d="M411.5 655.5q31.5 -35.5 31.5 -89.5q0 -51 -24 -91.5t-67 -63t-100 -22.5q-73 0 -116 38t-43 101q0 60 36 106l129 160h148l-83 -94q57 -9 88.5 -44.5zM303.5 508.5q15.5 18.5 15.5 46.5q0 21 -12 34t-33 13q-24 0 -39.5 -17.5t-15.5 -45.5q0 -22 11.5 -35.5t32.5 -13.5
q25 0 40.5 18.5z" />
    <glyph glyph-name="uni2077" unicode="&#x2077;" horiz-adv-x="403" 
d="M271 688h-165l11 106h352l-227 -394h-149z" />
    <glyph glyph-name="uni2078" unicode="&#x2078;" horiz-adv-x="434" 
d="M138.5 416q-43.5 27 -43.5 78q0 41 23.5 70.5t68.5 38.5q-29 8 -45.5 29t-16.5 50q0 59 48.5 91t128.5 32q71 0 112 -26t41 -73q0 -37 -22 -65t-60 -38q36 -8 54 -29.5t18 -53.5q0 -64 -50.5 -97.5t-136.5 -33.5q-76 0 -119.5 27zM320.5 658.5q13.5 12.5 13.5 34.5
q0 16 -11 26t-29 10q-21 0 -35.5 -13t-14.5 -33q0 -17 11 -27t30 -10q22 0 35.5 12.5zM304.5 485.5q14.5 14.5 14.5 36.5q0 17 -11.5 27.5t-31.5 10.5q-23 0 -38 -13.5t-15 -34.5q0 -18 12 -29.5t32 -11.5q23 0 37.5 14.5z" />
    <glyph glyph-name="uni2079" unicode="&#x2079;" horiz-adv-x="423" 
d="M420 560l-130 -160h-148l84 94q-57 9 -89 45.5t-32 90.5q0 51 24 91t68 62t100 22q73 0 115.5 -37.5t42.5 -100.5q0 -60 -35 -107zM246 685.5q-16 -18.5 -16 -45.5q0 -22 11.5 -35t32.5 -13q24 0 39.5 17.5t15.5 45.5q0 22 -11 35.5t-32 13.5q-24 0 -40 -18.5z" />
    <glyph glyph-name="uni207A" unicode="&#x207a;" horiz-adv-x="430" 
d="M222 539h-97l10 96h97l9 92h100l-9 -92h97l-10 -96h-97l-10 -92h-100z" />
    <glyph glyph-name="uni207B" unicode="&#x207b;" horiz-adv-x="430" 
d="M135 637h294l-11 -101h-294z" />
    <glyph glyph-name="uni207C" unicode="&#x207c;" horiz-adv-x="431" 
d="M142 706h295l-9 -87h-295zM127 559h295l-9 -87h-295z" />
    <glyph glyph-name="uni207D" unicode="&#x207d;" horiz-adv-x="284" 
d="M135 434q-29 58 -29 133q0 27 2 41q10 90 53 157t114 126l76 -71q-59 -53 -86.5 -99t-34.5 -113q-2 -26 -2 -36q0 -52 19 -91.5t60 -84.5l-92 -71q-51 51 -80 109z" />
    <glyph glyph-name="uni207E" unicode="&#x207e;" horiz-adv-x="284" 
d="M61 396q58 52 86 98.5t35 113.5q2 26 2 36q0 51 -19 90.5t-60 85.5l92 71q51 -53 80 -110.5t29 -132.5q0 -26 -2 -40q-10 -90 -53 -157t-114 -126z" />
    <glyph glyph-name="uni2080" unicode="&#x2080;" horiz-adv-x="453" 
d="M93 -47.5q-42 43.5 -42 126.5q0 12 2 38q10 101 63.5 154.5t143.5 53.5q81 0 123.5 -43.5t42.5 -126.5q0 -12 -2 -38q-10 -101 -64 -154.5t-144 -53.5q-81 0 -123 43.5zM274 35q16 25 22 82q2 28 2 38q0 37 -11.5 53.5t-36.5 16.5q-31 0 -47.5 -25.5t-22.5 -82.5
q-2 -28 -2 -36q0 -37 11.5 -54t37.5 -17q31 0 47 25z" />
    <glyph glyph-name="uni2081" unicode="&#x2081;" horiz-adv-x="328" 
d="M139 139h-86l10 99q62 0 87 18.5t29 57.5h110l-41 -394h-132z" />
    <glyph glyph-name="uni2082" unicode="&#x2082;" horiz-adv-x="427" 
d="M62.5 46q30.5 46 91.5 74l75 35q41 18 41 50q0 13 -8 20t-22 7q-41 0 -47 -47h-133q7 63 58.5 101.5t130.5 38.5t119.5 -31.5t35.5 -88.5q-4 -42 -27.5 -71t-67.5 -49l-63 -29q-17 -9 -27 -16.5t-17 -19.5h175l-10 -100h-343q8 80 38.5 126z" />
    <glyph glyph-name="uni2083" unicode="&#x2083;" horiz-adv-x="427" 
d="M79 -61q-39 30 -39 88q0 14 1 21h133q-5 -41 39 -41q19 0 30 10.5t11 29.5q0 30 -42 30h-56l10 92h57q49 0 49 38q0 13 -8.5 20t-24.5 7q-18 0 -30.5 -9.5t-13.5 -26.5h-132q6 58 56.5 92.5t133.5 34.5q71 0 112.5 -26t41.5 -73q0 -39 -24 -66t-70 -37q39 -7 59 -28
t20 -53q0 -60 -53.5 -96.5t-142.5 -36.5q-78 0 -117 30z" />
    <glyph glyph-name="uni2084" unicode="&#x2084;" horiz-adv-x="437" 
d="M396 19h-38l-10 -99h-130l10 99h-173l31 295h129l-20 -189h44l10 92h130l-10 -92h38z" />
    <glyph glyph-name="uni2085" unicode="&#x2085;" horiz-adv-x="432" 
d="M86.5 -58.5q-39.5 32.5 -37.5 96.5h127q1 -14 12 -22t29 -8q26 0 40.5 15t14.5 43q0 19 -11 30.5t-31 11.5q-36 0 -50 -28h-113l25 234h316l-10 -91h-198l-6 -58q29 25 85 25t89 -31t33 -82q0 -75 -53.5 -121.5t-139.5 -46.5q-82 0 -121.5 32.5z" />
    <glyph glyph-name="uni2086" unicode="&#x2086;" horiz-adv-x="423" 
d="M361 174.5q32 -36.5 32 -90.5q0 -51 -24 -91t-68 -62t-100 -22q-73 0 -115.5 37.5t-42.5 100.5q0 60 35 107l130 160h148l-84 -94q57 -9 89 -45.5zM252 28.5q16 18.5 16 45.5q0 22 -11.5 35t-32.5 13q-24 0 -39.5 -17.5t-15.5 -45.5q0 -22 11 -35.5t32 -13.5
q24 0 40 18.5z" />
    <glyph glyph-name="uni2087" unicode="&#x2087;" horiz-adv-x="403" 
d="M221 208h-165l11 106h352l-227 -394h-149z" />
    </font>
</defs>
</svg>
