<svg xmlns="http://www.w3.org/2000/svg">
<defs>
<font id="GTWalsheimPro-UltraBoldOblique" horiz-adv-x="640" >
  <font-face 
    font-family="GT Walsheim Pro Ultra Bold"
    font-weight="900"
    font-style="oblique"
    font-stretch="normal"
    units-per-em="1000"
    panose-1="0 0 10 0 0 0 0 0 0 0"
    ascent="765"
    descent="-235"
    x-height="513"
    cap-height="700"
    bbox="-475 -222 1312 900"
    underline-thickness="50"
    underline-position="-150"
    slope="-6"
    unicode-range="U+000D-FB02"
  />
<missing-glyph horiz-adv-x="800" 
d="M223 27.5q-74 44.5 -113 119t-39 162.5q0 13 2 41q10 96 63.5 180.5t141.5 135.5t197 51q101 0 175.5 -44.5t113.5 -119t39 -162.5q0 -13 -2 -41q-10 -96 -64 -180.5t-142 -135.5t-197 -51q-101 0 -175 44.5zM575.5 52q82.5 46 136.5 125t64 173q2 24 2 35q0 83 -39 154
t-108.5 113.5t-157.5 42.5q-95 0 -178 -48t-136 -127.5t-62 -169.5q-2 -26 -2 -37q0 -86 39.5 -156t109.5 -110.5t157 -40.5q92 0 174.5 46zM264.5 468q-10.5 11 -10.5 27q0 20 13.5 34t32.5 14q17 0 28 -11t11 -28q0 -19 -14.5 -33t-33.5 -14q-16 0 -26.5 11zM561.5 468
q-10.5 11 -10.5 27q0 20 13.5 34t32.5 14q17 0 28 -11t11 -28q0 -19 -14.5 -33t-33.5 -14q-16 0 -26.5 11zM453 527l-135 -243h178l-3 -25h-247zM162.5 236q7.5 15 22.5 23l25 13q11 6 14.5 17.5t6.5 39.5h17q-4 -35 -10.5 -48.5t-17.5 -20.5l-23 -13q-24 -13 -27 -40h-16
q1 14 8.5 29zM617 161q5 17 5 23q0 11 -14 18l-39 20q-33 17 -33 50q0 20 13 48l14 -5q-11 -24 -11 -41q0 -27 29 -41l38 -19q20 -10 20 -29q0 -10 -6 -28zM278.5 104.5q-44.5 38.5 -86.5 123.5q6 -4 42.5 -27.5t70 -33.5t68.5 -10q57 0 118.5 8t104.5 29l4 2
q-18 -32 -57 -62.5t-85.5 -49t-84.5 -18.5q-50 0 -94.5 38.5zM472.5 117q52.5 25 76.5 43l-36 -8q-47 -10 -76 -15t-65 -5q-30 0 -69 11.5t-60 30.5q22 -42 63 -62t70 -20q44 0 96.5 25z" />
    <glyph glyph-name="fi" unicode="fi" horiz-adv-x="762" 
d="M568 560q-32 31 -32 76q0 35 19 65.5t50.5 49t67.5 18.5q48 0 79.5 -31t31.5 -76q0 -35 -18.5 -65.5t-50 -49t-67.5 -18.5q-48 0 -80 31zM209.5 668q63.5 47 160.5 47q71 0 116 -15l-16 -144q-24 3 -39 3q-24 0 -40 -10t-17 -28l-1 -8h93l-19 -180h-93l-35 -333h-239
l35 333h-70l19 180h70l1 6q11 102 74.5 149zM526 513h240l-54 -513h-240z" />
    <glyph glyph-name="fl" unicode="fl" horiz-adv-x="762" 
d="M209.5 668q63.5 47 160.5 47q71 0 116 -15l-16 -144q-24 3 -39 3q-24 0 -40 -10t-17 -28l-1 -8h93l-19 -180h-93l-35 -333h-239l35 333h-70l19 180h70l1 6q11 102 74.5 149zM786 700l-74 -700h-240l74 700h240z" />
    <glyph glyph-name="f_f" unicode="ff" horiz-adv-x="869" 
d="M209.5 668q63.5 47 160.5 47q71 0 116 -15l-16 -144q-24 3 -39 3q-24 0 -40 -10t-17 -28l-1 -8h93l-19 -180h-93l-35 -333h-239l35 333h-70l19 180h70l1 6q11 102 74.5 149zM838 549q-16 -10 -17 -28l-1 -8h93l-19 -180h-93l-35 -333h-239l35 333h-70l19 180h70l1 6
q11 102 74.5 149t160.5 47q71 0 116 -15l-16 -144q-24 3 -39 3q-24 0 -40 -10z" />
    <glyph glyph-name="f_f_i" unicode="ffi" horiz-adv-x="1209" 
d="M1015 560q-32 31 -32 76q0 35 19 65.5t50.5 49t67.5 18.5q48 0 79.5 -31t31.5 -76q0 -35 -18.5 -65.5t-50 -49t-67.5 -18.5q-48 0 -80 31zM209.5 668q63.5 47 160.5 47q71 0 116 -15l-16 -144q-24 3 -39 3q-24 0 -40 -10t-17 -28l-1 -8h93l-19 -180h-93l-35 -333h-239
l35 333h-70l19 180h70l1 6q11 102 74.5 149zM656.5 668q63.5 47 160.5 47q71 0 116 -15l-16 -144q-24 3 -39 3q-24 0 -40 -10t-17 -28l-1 -8h93l-19 -180h-93l-35 -333h-239l35 333h-70l19 180h70l1 6q11 102 74.5 149zM973 513h240l-54 -513h-240z" />
    <glyph glyph-name="f_f_l" unicode="ffl" horiz-adv-x="1209" 
d="M209.5 668q63.5 47 160.5 47q71 0 116 -15l-16 -144q-24 3 -39 3q-24 0 -40 -10t-17 -28l-1 -8h93l-19 -180h-93l-35 -333h-239l35 333h-70l19 180h70l1 6q11 102 74.5 149zM656.5 668q63.5 47 160.5 47q71 0 116 -15l-16 -144q-24 3 -39 3q-24 0 -40 -10t-17 -28l-1 -8
h93l-19 -180h-93l-35 -333h-239l35 333h-70l19 180h70l1 6q11 102 74.5 149zM1233 700l-74 -700h-240l74 700h240z" />
    <glyph glyph-name=".notdef" horiz-adv-x="800" 
d="M223 27.5q-74 44.5 -113 119t-39 162.5q0 13 2 41q10 96 63.5 180.5t141.5 135.5t197 51q101 0 175.5 -44.5t113.5 -119t39 -162.5q0 -13 -2 -41q-10 -96 -64 -180.5t-142 -135.5t-197 -51q-101 0 -175 44.5zM575.5 52q82.5 46 136.5 125t64 173q2 24 2 35q0 83 -39 154
t-108.5 113.5t-157.5 42.5q-95 0 -178 -48t-136 -127.5t-62 -169.5q-2 -26 -2 -37q0 -86 39.5 -156t109.5 -110.5t157 -40.5q92 0 174.5 46zM264.5 468q-10.5 11 -10.5 27q0 20 13.5 34t32.5 14q17 0 28 -11t11 -28q0 -19 -14.5 -33t-33.5 -14q-16 0 -26.5 11zM561.5 468
q-10.5 11 -10.5 27q0 20 13.5 34t32.5 14q17 0 28 -11t11 -28q0 -19 -14.5 -33t-33.5 -14q-16 0 -26.5 11zM453 527l-135 -243h178l-3 -25h-247zM162.5 236q7.5 15 22.5 23l25 13q11 6 14.5 17.5t6.5 39.5h17q-4 -35 -10.5 -48.5t-17.5 -20.5l-23 -13q-24 -13 -27 -40h-16
q1 14 8.5 29zM617 161q5 17 5 23q0 11 -14 18l-39 20q-33 17 -33 50q0 20 13 48l14 -5q-11 -24 -11 -41q0 -27 29 -41l38 -19q20 -10 20 -29q0 -10 -6 -28zM278.5 104.5q-44.5 38.5 -86.5 123.5q6 -4 42.5 -27.5t70 -33.5t68.5 -10q57 0 118.5 8t104.5 29l4 2
q-18 -32 -57 -62.5t-85.5 -49t-84.5 -18.5q-50 0 -94.5 38.5zM472.5 117q52.5 25 76.5 43l-36 -8q-47 -10 -76 -15t-65 -5q-30 0 -69 11.5t-60 30.5q22 -42 63 -62t70 -20q44 0 96.5 25z" />
    <glyph glyph-name=".null" horiz-adv-x="0" 
 />
    <glyph glyph-name="nonmarkingreturn" unicode="&#xd;" horiz-adv-x="250" 
 />
    <glyph glyph-name="space" unicode=" " horiz-adv-x="230" 
 />
    <glyph glyph-name="exclam" unicode="!" horiz-adv-x="365" 
d="M129 700h255l-44 -414h-255zM88.5 24q-36.5 36 -36.5 89q0 41 21.5 76.5t58 56.5t78.5 21q57 0 93 -35.5t36 -88.5q0 -41 -21.5 -77t-57.5 -57t-79 -21q-56 0 -92.5 36z" />
    <glyph glyph-name="quotedbl" unicode="&#x22;" horiz-adv-x="560" 
d="M324 542.5q-7 -22.5 -20 -48.5l-87 -199h-72l-45 199q-11 39 -11 65q0 38 18 70.5t49 51.5t68 19q47 0 77 -31.5t30 -77.5q0 -26 -7 -48.5zM584 542.5q-7 -22.5 -20 -48.5l-87 -199h-72l-45 199q-11 39 -11 65q0 38 18 70.5t49 51.5t68 19q47 0 77 -31.5t30 -77.5
q0 -26 -7 -48.5z" />
    <glyph glyph-name="numbersign" unicode="#" horiz-adv-x="644" 
d="M100 133h-81l16 155h103l30 124h-90l17 155h111l33 133h157l-33 -133h104l33 133h157l-33 -133h75l-17 -155h-96l-30 -124h83l-16 -155h-105l-32 -133h-157l32 133h-104l-32 -133h-157zM399 288l30 124h-104l-30 -124h104z" />
    <glyph glyph-name="dollar" unicode="$" 
d="M620.5 117.5q-33.5 -56.5 -97.5 -92.5t-154 -43l-9 -82h-102l9 83q-114 12 -174.5 69t-60.5 146q0 9 2 29h255l-1 -12q0 -28 15.5 -43t42.5 -15q24 0 36.5 11t12.5 30q0 26 -42 38l-148 43q-65 19 -101.5 60t-36.5 107q0 76 38 130.5t100.5 84t136.5 36.5l9 83h102
l-9 -84q124 -11 177.5 -65.5t53.5 -128.5q0 -16 -1 -24h-255q1 4 1 13q0 24 -12.5 36t-33.5 12q-19 0 -33 -9.5t-14 -27.5q0 -14 11.5 -23.5t40.5 -18.5l137 -42q138 -41 138 -174q0 -70 -33.5 -126.5z" />
    <glyph glyph-name="percent" unicode="%" horiz-adv-x="845" 
d="M148 25l551 688l75 -53l-551 -688zM154 370.5q-39 20.5 -59.5 55t-20.5 76.5q0 49 26 92t74 69.5t109 26.5q56 0 96 -20.5t60.5 -55.5t20.5 -77q0 -49 -26.5 -92t-75 -69t-111.5 -26q-54 0 -93 20.5zM309 476.5q18 20.5 18 51.5q0 25 -14 41t-42 16q-31 0 -49.5 -21.5
t-18.5 -53.5q0 -24 14.5 -39t40.5 -15q33 0 51 20.5zM537 10.5q-39 20.5 -59.5 55t-20.5 76.5q0 49 26 92t74 69.5t109 26.5q56 0 96 -20.5t60.5 -55.5t20.5 -77q0 -49 -26.5 -92t-75 -69t-111.5 -26q-54 0 -93 20.5zM692.5 117q18.5 21 18.5 53q0 24 -14.5 39.5t-41.5 15.5
q-31 0 -50 -21.5t-19 -53.5q0 -24 14.5 -39t40.5 -15q33 0 51.5 21z" />
    <glyph glyph-name="ampersand" unicode="&#x26;" horiz-adv-x="668" 
d="M692 233h-26q-9 -65 -47 -122.5t-109.5 -94t-173.5 -36.5q-135 0 -219 45.5t-84 137.5q0 50 22.5 91.5t59.5 68.5t78 36q-46 8 -80.5 45t-34.5 95q0 12 1 18q7 65 53 111t115.5 69t147.5 23q285 0 285 -198q0 -12 -2 -34h-255q1 8 1 22q0 25 -9.5 38t-33.5 13
q-23 0 -38 -17.5t-15 -43.5q0 -22 13.5 -37.5t37.5 -15.5h17l-17 -163h-13q-23 0 -38 -21.5t-15 -48.5q0 -23 11.5 -37.5t35.5 -14.5q51 0 61 71h-28l18 168h299z" />
    <glyph glyph-name="quotesingle" unicode="'" horiz-adv-x="300" 
d="M324 542.5q-7 -22.5 -20 -48.5l-87 -199h-72l-45 199q-11 39 -11 65q0 38 18 70.5t49 51.5t68 19q47 0 77 -31.5t30 -77.5q0 -26 -7 -48.5z" />
    <glyph glyph-name="parenleft" unicode="(" horiz-adv-x="405" 
d="M102.5 -27q-48.5 99 -48.5 228q0 22 4 70q17 156 90 270.5t195 219.5l139 -127q-70 -62 -111.5 -113t-65.5 -110.5t-33 -139.5q-4 -44 -4 -63q0 -88 32 -154t105 -146l-165 -127q-89 93 -137.5 192z" />
    <glyph glyph-name="parenright" unicode=")" horiz-adv-x="405" 
d="M-20 -92q70 62 111.5 113t65.5 110.5t32 139.5q4 31 4 65q0 87 -32 153t-104 145l165 127q88 -92 136.5 -191t48.5 -227q0 -39 -4 -72q-16 -156 -89 -270.5t-195 -219.5z" />
    <glyph glyph-name="asterisk" unicode="*" horiz-adv-x="474" 
d="M94 367l87 105l-118 36l54 118l124 -48l9 139h125l-19 -139l133 48l28 -118l-124 -36l65 -105l-109 -73l-68 123l-94 -123z" />
    <glyph glyph-name="plus" unicode="+" horiz-adv-x="596" 
d="M230 232h-171l19 174h171l17 165h184l-17 -165h171l-19 -174h-171l-17 -165h-184z" />
    <glyph glyph-name="comma" unicode="," horiz-adv-x="362" 
d="M28 -175l8 79q34 -4 43 -4q60 0 98 33q35 30 41 70q-7 -8 -22 -12.5t-33 -4.5q-54 0 -83 32t-29 80q0 37 19 69.5t52.5 52t73.5 19.5q60 0 94.5 -39.5t34.5 -108.5q0 -10 -2 -32q-12 -121 -80 -179.5t-180 -58.5q-13 0 -35 4z" />
    <glyph glyph-name="hyphen" unicode="-" horiz-adv-x="404" 
d="M76 389h334l-18 -173h-334z" />
    <glyph glyph-name="period" unicode="." horiz-adv-x="358" 
d="M94 18q-33 33 -33 80q0 37 19.5 69t52.5 51t72 19q50 0 83 -33t33 -80q0 -36 -19.5 -68.5t-52.5 -51.5t-71 -19q-51 0 -84 33z" />
    <glyph glyph-name="slash" unicode="/" horiz-adv-x="516" 
d="M9 -5l405 756l163 -73l-404 -756z" />
    <glyph glyph-name="zero" unicode="0" horiz-adv-x="709" 
d="M132.5 55.5q-75.5 75.5 -75.5 218.5q0 19 4 65q18 175 112.5 268t254.5 93q145 0 220 -76t75 -221q0 -31 -3 -64q-19 -175 -113.5 -267t-254.5 -92q-144 0 -219.5 75.5zM442 209.5q24 39.5 34 129.5q3 35 3 61q0 58 -16.5 84t-54.5 26q-46 0 -69.5 -39.5t-33.5 -131.5
q-4 -32 -4 -64q0 -56 17 -80.5t54 -24.5q46 0 70 39.5z" />
    <glyph glyph-name="one" unicode="1" horiz-adv-x="499" 
d="M206 354h-144l20 190q108 0 152 34t51 102h210l-71 -680h-255z" />
    <glyph glyph-name="two" unicode="2" horiz-adv-x="684" 
d="M93 225q53 82 161 130l135 60q33 14 47.5 31t14.5 41q0 17 -11.5 27.5t-30.5 10.5q-56 0 -64 -67h-255q7 72 52 127t118.5 85t165.5 30q135 0 207.5 -49t72.5 -138q0 -16 -1 -24q-8 -74 -47 -124.5t-114 -82.5l-111 -48q-38 -16 -61 -44h287l-20 -190h-614q15 143 68 225
z" />
    <glyph glyph-name="three" unicode="3" horiz-adv-x="663" 
d="M36 183q0 12 2 36h255q-3 -25 10.5 -39t40.5 -14q28 0 42.5 14t14.5 40q0 42 -59 42h-108l18 172h108q75 0 75 57q0 19 -11.5 29t-33.5 10q-25 0 -41 -13.5t-19 -37.5h-255q7 66 50 116t118 77.5t176 27.5q126 0 199.5 -44.5t73.5 -125.5q0 -68 -41.5 -116.5
t-121.5 -64.5q63 -13 96.5 -49t33.5 -91q0 -68 -41 -120t-119 -80.5t-185 -28.5q-278 0 -278 203z" />
    <glyph glyph-name="four" unicode="4" horiz-adv-x="685" 
d="M672 160h-50l-17 -160h-250l17 160h-310l54 520h250l-33 -317h60l16 150h250l-16 -150h50z" />
    <glyph glyph-name="five" unicode="5" horiz-adv-x="671" 
d="M117.5 37.5q-70.5 57.5 -65.5 171.5h240q1 -21 17 -32.5t43 -11.5q33 0 54.5 21.5t25.5 58.5q3 29 -14 49t-48 20q-24 0 -43 -11t-28 -31h-217l42 408h569l-18 -172h-340l-8 -81q50 41 141 41q64 0 111.5 -24.5t73.5 -68.5t26 -102q0 -8 -2 -28q-8 -81 -52.5 -141
t-118 -92t-168.5 -32q-150 0 -220.5 57.5z" />
    <glyph glyph-name="six" unicode="6" horiz-adv-x="652" 
d="M615 440.5q51 -61.5 51 -151.5q0 -11 -2 -33q-9 -82 -54 -144.5t-119 -97t-167 -34.5q-86 0 -150.5 30t-99 84.5t-34.5 127.5q0 10 2 34q10 96 67 163l207 261h281l-124 -157q91 -21 142 -82.5zM401.5 200q23.5 27 23.5 68q0 32 -17 51.5t-46 19.5q-34 0 -57.5 -27
t-23.5 -68q0 -32 17 -51.5t46 -19.5q34 0 57.5 27z" />
    <glyph glyph-name="seven" unicode="7" horiz-adv-x="642" 
d="M332 477h-272l21 203h632l-384 -680h-286z" />
    <glyph glyph-name="eight" unicode="8" horiz-adv-x="672" 
d="M120.5 27q-77.5 47 -77.5 137q0 70 38 119t106 66q-40 14 -65.5 50.5t-25.5 85.5q0 13 1 19q10 95 94 145.5t219 50.5q127 0 199.5 -44.5t72.5 -129.5q0 -63 -35.5 -111.5t-87.5 -65.5q53 -13 80.5 -49.5t27.5 -90.5q0 -111 -90 -170t-243 -59q-136 0 -213.5 47z
M432.5 446q20.5 17 20.5 43q0 22 -16.5 36t-43.5 14q-30 0 -51 -17t-21 -43q0 -23 16 -36.5t44 -13.5q31 0 51.5 17zM406 163q22 18 22 46q0 23 -18 36.5t-47 13.5q-33 0 -55 -17.5t-22 -44.5q0 -23 18 -37.5t47 -14.5q33 0 55 18z" />
    <glyph glyph-name="nine" unicode="9" horiz-adv-x="652" 
d="M614 261l-207 -261h-281l125 157q-91 20 -142 81.5t-51 150.5q0 11 2 35q8 82 53.5 144.5t119.5 97t167 34.5q87 0 151 -30t98.5 -85t34.5 -128q0 -11 -2 -33q-10 -94 -68 -163zM321.5 479.5q-22.5 -27.5 -22.5 -69.5q0 -31 17.5 -50t45.5 -19q34 0 57.5 27t23.5 68
q0 32 -17.5 51.5t-46.5 19.5q-35 0 -57.5 -27.5z" />
    <glyph glyph-name="colon" unicode=":" horiz-adv-x="358" 
d="M125 317q-33 33 -33 80q0 37 19.5 69t52.5 51t72 19q50 0 83 -33t33 -80q0 -36 -19 -68.5t-52 -51.5t-71 -19q-52 0 -85 33zM94 18q-33 33 -33 80q0 37 19.5 69t52.5 51t72 19q50 0 83 -33t33 -80q0 -36 -19.5 -68.5t-52.5 -51.5t-71 -19q-51 0 -84 33z" />
    <glyph glyph-name="semicolon" unicode=";" horiz-adv-x="362" 
d="M125 317q-33 33 -33 80q0 37 19.5 69t52.5 51t72 19q50 0 83 -33t33 -80q0 -36 -19 -68.5t-52 -51.5t-71 -19q-52 0 -85 33zM28 -175l8 79q34 -4 43 -4q60 0 98 33q35 30 41 70q-7 -8 -22 -12.5t-33 -4.5q-54 0 -83 32t-29 80q0 37 19 69.5t52.5 52t73.5 19.5
q60 0 94.5 -39.5t34.5 -108.5q0 -10 -2 -32q-12 -121 -80 -179.5t-180 -58.5q-13 0 -35 4z" />
    <glyph glyph-name="less" unicode="&#x3c;" horiz-adv-x="575" 
d="M57 211l22 206l524 181l-22 -210l-253 -74l237 -74l-22 -210z" />
    <glyph glyph-name="equal" unicode="=" horiz-adv-x="596" 
d="M91 536h526l-18 -174h-526zM65 286h526l-18 -174h-526z" />
    <glyph glyph-name="greater" unicode="&#x3e;" horiz-adv-x="575" 
d="M60 240l253 74l-237 74l22 210l486 -181l-22 -206l-524 -181z" />
    <glyph glyph-name="question" unicode="?" horiz-adv-x="577" 
d="M191 297q5 51 28.5 81.5t74.5 55.5l51 25q25 12 36 25t11 34q0 17 -12 27t-32 10q-27 0 -45 -16t-22 -51h-250q6 55 41.5 107.5t109.5 88.5t188 36q119 0 196 -40.5t77 -131.5q0 -69 -33 -113t-76 -70l-52 -32q-19 -12 -27 -19.5t-9 -17.5l-1 -8h-255zM193.5 24
q-36.5 36 -36.5 89q0 41 21.5 76.5t58 56.5t78.5 21q57 0 93 -35.5t36 -88.5q0 -41 -21.5 -77t-57.5 -57t-79 -21q-56 0 -92.5 36z" />
    <glyph glyph-name="at" unicode="@" horiz-adv-x="942" 
d="M234.5 -135.5q-98.5 50.5 -149.5 139.5t-51 203q0 26 3 53q14 131 85.5 231t186 154.5t252.5 54.5q119 0 211 -41.5t143.5 -120t51.5 -185.5q0 -24 -3 -48q-15 -139 -89.5 -208.5t-180.5 -69.5q-66 0 -110.5 28t-53.5 83q-13 -27 -51 -50.5t-86 -23.5q-44 0 -80 21
t-57 60t-21 90q0 65 29 116t75 79t95 28q46 0 77.5 -23t37.5 -48l6 62h167l-25 -235l-1 -14q0 -51 42 -51q36 0 57.5 37t28.5 103q2 15 2 42q0 120 -75 183t-208 63q-155 0 -250.5 -82t-111.5 -231q-2 -16 -2 -46q0 -126 76 -200t232 -74q61 0 131.5 13t127.5 44l47 -111
q-71 -39 -158 -57.5t-165 -18.5q-137 0 -235.5 50.5zM518.5 219q19.5 21 19.5 50q0 23 -15 39t-39 16q-28 0 -47.5 -20.5t-19.5 -48.5q0 -24 15 -40.5t39 -16.5q28 0 47.5 21z" />
    <glyph glyph-name="A" unicode="A" horiz-adv-x="767" 
d="M494 77h-205l-27 -77h-262l314 700h287l166 -700h-262zM467 252l-33 232l-83 -232h116z" />
    <glyph glyph-name="B" unicode="B" horiz-adv-x="699" 
d="M670.5 310q34.5 -37 34.5 -95q0 -64 -31 -113t-87.5 -75.5t-129.5 -26.5h-402l74 700h396q96 0 150.5 -43t54.5 -118q0 -70 -43.5 -122t-111.5 -63q61 -7 95.5 -44zM368 550l-13 -126h42q33 0 53 20t20 53q0 25 -15.5 39t-44.5 14h-42zM426.5 186.5q21.5 19.5 21.5 51.5
q0 25 -17 39.5t-48 14.5h-42l-13 -125h42q35 0 56.5 19.5z" />
    <glyph glyph-name="C" unicode="C" horiz-adv-x="815" 
d="M218 17q-82 42 -127.5 117.5t-45.5 172.5q0 28 2 43q11 108 71.5 193.5t156.5 133.5t211 48q175 0 271 -79.5t92 -228.5h-266q-4 37 -36 59t-84 22q-69 0 -110.5 -46.5t-41.5 -125.5q0 -59 31.5 -91.5t89.5 -32.5q52 0 89 22t48 59h266q-27 -149 -140 -228.5t-288 -79.5
q-107 0 -189 42z" />
    <glyph glyph-name="D" unicode="D" horiz-adv-x="748" 
d="M129 700h316q98 0 173.5 -39.5t117 -110t41.5 -160.5q0 -12 -2 -40q-11 -101 -66.5 -180.5t-143.5 -124.5t-194 -45h-316zM369 203q39 0 71.5 22t51.5 60.5t19 84.5q0 56 -31 91.5t-80 35.5h-38l-31 -294h38z" />
    <glyph glyph-name="E" unicode="E" horiz-adv-x="579" 
d="M129 700h474l-20 -183h-219l-8 -83h219l-19 -173h-219l-8 -78h219l-19 -183h-474z" />
    <glyph glyph-name="F" unicode="F" horiz-adv-x="564" 
d="M129 700h474l-22 -203h-219l-13 -122h219l-20 -194h-219l-19 -181h-255z" />
    <glyph glyph-name="G" unicode="G" horiz-adv-x="831" 
d="M851 242h-44q-43 -131 -147.5 -199t-262.5 -68q-106 0 -185.5 41t-123 116t-43.5 172q0 30 2 46q11 111 70 196t154.5 132t213.5 47q110 0 192 -31.5t124.5 -89t39.5 -134.5h-277q-4 25 -30.5 40t-67.5 15q-65 0 -105 -43t-48 -122q-2 -20 -2 -28q0 -65 33 -103.5
t89 -38.5q84 0 112 52h-103l17 160h409z" />
    <glyph glyph-name="H" unicode="H" horiz-adv-x="768" 
d="M129 700h255l-26 -248h148l26 248h255l-74 -700h-255l26 243h-148l-26 -243h-255z" />
    <glyph glyph-name="I" unicode="I" horiz-adv-x="365" 
d="M129 700h255l-74 -700h-255z" />
    <glyph glyph-name="J" unicode="J" horiz-adv-x="662" 
d="M101.5 48q-70.5 68 -70.5 180q0 12 2 40h255q-1 -6 -1 -18q0 -60 49 -60q56 0 63 68l47 442h255l-44 -412q-31 -308 -343 -308q-142 0 -212.5 68z" />
    <glyph glyph-name="K" unicode="K" horiz-adv-x="771" 
d="M580 350l186 -350h-286l-139 296l-31 -296h-255l74 700h255l-32 -296l202 296h286z" />
    <glyph glyph-name="L" unicode="L" horiz-adv-x="562" 
d="M129 700h255l-51 -485h217l-23 -215h-472z" />
    <glyph glyph-name="M" unicode="M" horiz-adv-x="1006" 
d="M129 700h342l67 -418l155 418h332l-74 -700h-245l46 435l-149 -435h-187l-70 435l-46 -435h-245z" />
    <glyph glyph-name="N" unicode="N" horiz-adv-x="784" 
d="M129 700h255l138 -343l36 343h245l-74 -700h-255l-138 343l-36 -343h-245z" />
    <glyph glyph-name="O" unicode="O" horiz-adv-x="816" 
d="M210.5 20q-81.5 45 -123.5 120.5t-42 167.5q0 14 2 42q11 101 68 186.5t152.5 137t216.5 51.5q113 0 194.5 -45t124 -121t42.5 -168q0 -13 -2 -41q-11 -100 -68 -186t-153 -137.5t-217 -51.5q-113 0 -194.5 45zM510 227q34 24 51.5 62.5t17.5 81.5q0 55 -30 90.5
t-89 35.5q-47 0 -81 -24t-51 -62t-17 -82q0 -55 30 -90.5t88 -35.5q47 0 81 24z" />
    <glyph glyph-name="P" unicode="P" horiz-adv-x="709" 
d="M633.5 669.5q55.5 -30.5 86.5 -85t31 -122.5q0 -9 -2 -31q-8 -76 -49.5 -137t-107.5 -96t-142 -35h-123l-17 -163h-255l74 700h378q71 0 126.5 -30.5zM466 378.5q24 25.5 24 62.5q0 30 -18 49t-47 19h-62l-16 -156h61q34 0 58 25.5z" />
    <glyph glyph-name="Q" unicode="Q" horiz-adv-x="816" 
d="M787 183q-46 -78 -121 -130l57 -84l-237 -114l-77 120h-4q-113 0 -194.5 45t-123.5 120.5t-42 167.5q0 14 2 42q11 101 68 186.5t152.5 137t216.5 51.5q113 0 194.5 -45t124 -121t42.5 -168q0 -13 -2 -41q-10 -89 -56 -167zM341 238.5q30 -35.5 88 -35.5q47 0 81 24
t51.5 62.5t17.5 81.5q0 55 -30 90.5t-89 35.5q-47 0 -81 -24t-51 -62t-17 -82q0 -55 30 -90.5z" />
    <glyph glyph-name="R" unicode="R" horiz-adv-x="734" 
d="M710 311.5q-32 -54.5 -83 -91.5l77 -220h-292l-54 163h-31l-17 -163h-255l74 700h378q71 0 126.5 -30.5t86.5 -85t31 -122.5q0 -9 -2 -31q-7 -65 -39 -119.5zM347 353h61q34 0 58 25.5t24 62.5q0 30 -18 49t-47 19h-62z" />
    <glyph glyph-name="S" unicode="S" 
d="M108.5 35q-76.5 60 -76.5 165q0 9 2 29h255l-1 -12q0 -28 15.5 -44t42.5 -16q23 0 36 11t13 31q0 14 -10.5 23t-31.5 17l-145 54q-138 52 -138 178q0 16 1 25q11 106 96.5 167.5t226.5 61.5q131 0 207 -53.5t76 -148.5q0 -17 -1 -25h-255q1 5 1 13q0 24 -12 36.5
t-34 12.5q-21 0 -34 -10.5t-13 -28.5q0 -12 11 -21t41 -21l136 -53q72 -29 105 -73t33 -105q0 -8 -2 -28q-8 -76 -51 -131t-115 -84.5t-166 -29.5q-136 0 -212.5 60z" />
    <glyph glyph-name="T" unicode="T" horiz-adv-x="603" 
d="M225 485h-169l23 215h593l-23 -215h-169l-51 -485h-255z" />
    <glyph glyph-name="U" unicode="U" horiz-adv-x="726" 
d="M199 8.5q-68 28.5 -104 82t-36 126.5q0 9 2 31l48 452h255l-46 -436q-3 -31 15 -51t50 -20q33 0 55.5 20.5t25.5 50.5l46 436h255l-48 -452q-8 -81 -54.5 -141.5t-124 -93.5t-177.5 -33q-94 0 -162 28.5z" />
    <glyph glyph-name="V" unicode="V" horiz-adv-x="748" 
d="M64 700h272l65 -444l159 444h272l-315 -700h-286z" />
    <glyph glyph-name="W" unicode="W" horiz-adv-x="1144" 
d="M64 700h270l66 -378l143 378h206l63 -378l146 378h270l-331 -700h-231l-60 322l-128 -322h-231z" />
    <glyph glyph-name="X" unicode="X" horiz-adv-x="742" 
d="M260 350l-181 350h276l71 -175l109 175h276l-255 -350l181 -350h-276l-72 175l-108 -175h-276z" />
    <glyph glyph-name="Y" unicode="Y" horiz-adv-x="714" 
d="M808 700l-421 -700h-287l135 230l-171 470h300l50 -223l109 223h285z" />
    <glyph glyph-name="Z" unicode="Z" horiz-adv-x="698" 
d="M354 497h-259l22 203h650l-355 -497h274l-21 -203h-665z" />
    <glyph glyph-name="bracketleft" unicode="[" horiz-adv-x="385" 
d="M132 733h320l-20 -191h-120l-57 -544h120l-20 -191h-320z" />
    <glyph glyph-name="backslash" unicode="\" horiz-adv-x="516" 
d="M81 678l179 73l245 -756l-178 -73z" />
    <glyph glyph-name="bracketright" unicode="]" horiz-adv-x="385" 
d="M-10 -193l20 191h120l57 544h-120l20 191h320l-97 -926h-320z" />
    <glyph glyph-name="asciicircum" unicode="^" horiz-adv-x="661" 
d="M352 700h109l177 -446h-196l-61 212l-107 -212h-197z" />
    <glyph glyph-name="underscore" unicode="_" horiz-adv-x="540" 
d="M-6 -55h540l-13 -125h-540z" />
    <glyph glyph-name="grave" unicode="`" horiz-adv-x="600" 
d="M103 689l94 95l160 -144l-94 -95z" />
    <glyph glyph-name="a" unicode="a" horiz-adv-x="687" 
d="M93 47.5q-53 62.5 -53 165.5q0 28 2 43q8 79 43 141t89 96.5t119 34.5q61 0 99 -26.5t51 -68.5l8 80h240l-54 -513h-240l8 79q-20 -41 -64 -67.5t-105 -26.5q-90 0 -143 62.5zM411.5 200q23.5 27 23.5 68q0 32 -17 51.5t-46 19.5q-34 0 -57.5 -27t-23.5 -68
q0 -32 17 -51.5t46 -19.5q34 0 57.5 27z" />
    <glyph glyph-name="b" unicode="b" horiz-adv-x="687" 
d="M608 499.5q44 -28.5 68.5 -80.5t24.5 -121q0 -14 -2 -42q-8 -80 -43 -141.5t-89 -95.5t-119 -34q-61 0 -100 28t-50 66l-8 -79h-240l74 700h240l-28 -267q20 40 64.5 67.5t104.5 27.5q59 0 103 -28.5zM426 199q24 28 24 69q0 32 -17 51.5t-46 19.5q-34 0 -57.5 -27
t-23.5 -68q0 -33 17.5 -53t45.5 -20q33 0 57 28z" />
    <glyph glyph-name="c" unicode="c" horiz-adv-x="627" 
d="M163.5 14q-64.5 29 -99 82.5t-34.5 126.5q0 10 2 34q9 83 54 144t118.5 94t166.5 33q130 0 206 -61.5t76 -168.5h-240q-4 20 -18.5 28t-42.5 8q-37 0 -59 -23t-22 -66q0 -32 17 -48.5t48 -16.5q28 0 44.5 8t24.5 28h240q-22 -107 -111.5 -169t-219.5 -62q-86 0 -150.5 29
z" />
    <glyph glyph-name="d" unicode="d" horiz-adv-x="687" 
d="M711 700l-74 -700h-240l8 79q-20 -41 -64 -67.5t-105 -26.5q-90 0 -143 62.5t-53 165.5q0 28 2 43q8 79 43 141t89 96.5t119 34.5q61 0 99 -26.5t51 -68.5l28 267h240zM411.5 200q23.5 27 23.5 68q0 32 -17 51.5t-46 19.5q-34 0 -57.5 -27t-23.5 -68q0 -32 17 -51.5
t46 -19.5q34 0 57.5 27z" />
    <glyph glyph-name="e" unicode="e" horiz-adv-x="632" 
d="M642 203h-376q-1 -30 18.5 -46.5t53.5 -16.5q28 0 44.5 5.5t21.5 18.5h230q-23 -84 -107 -131.5t-206 -47.5q-139 0 -215 59t-76 174q0 12 2 38q13 130 105 201t236 71q85 0 149.5 -27t100 -77t35.5 -116q0 -17 -1 -25q-5 -44 -15 -80zM421 323q3 34 -13 52t-50 18
q-32 0 -53 -18.5t-26 -51.5h142z" />
    <glyph glyph-name="f" unicode="f" horiz-adv-x="422" 
d="M391 549q-16 -10 -17 -28l-1 -8h93l-19 -180h-93l-35 -333h-239l35 333h-70l19 180h70l1 6q11 102 74.5 149t160.5 47q71 0 116 -15l-16 -144q-24 3 -39 3q-24 0 -40 -10z" />
    <glyph glyph-name="g" unicode="g" horiz-adv-x="688" 
d="M692 513l-48 -460q-9 -70 -43.5 -122.5t-89.5 -85.5q-74 -45 -200 -45q-66 0 -109 7t-81 26q-43 23 -70.5 65.5t-23.5 82.5h240q1 -26 56 -26q30 0 52 14.5t25 48.5l9 91q-17 -38 -63 -62t-101 -24q-95 0 -149.5 57.5t-54.5 155.5q0 11 2 35q8 76 42.5 134.5t89.5 90.5
t123 32q56 0 96.5 -26.5t49.5 -68.5l8 80h240zM413.5 210q23.5 27 23.5 68q0 32 -17 51.5t-46 19.5q-34 0 -57.5 -27t-23.5 -68q0 -32 17 -51.5t46 -19.5q34 0 57.5 27z" />
    <glyph glyph-name="h" unicode="h" horiz-adv-x="688" 
d="M678 356q0 -22 -3 -48l-32 -308h-245l27 258q1 6 1 16q0 26 -12 40t-34 14q-29 0 -44 -19.5t-20 -63.5l-26 -245h-240l74 700h240l-28 -265q23 46 67.5 69.5t106.5 23.5q168 0 168 -172z" />
    <glyph glyph-name="i" unicode="i" horiz-adv-x="340" 
d="M146 560q-32 31 -32 76q0 35 19 65.5t50.5 49t67.5 18.5q48 0 79.5 -31t31.5 -76q0 -35 -18.5 -65.5t-50 -49t-67.5 -18.5q-48 0 -80 31zM104 513h240l-54 -513h-240z" />
    <glyph glyph-name="j" unicode="j" horiz-adv-x="340" 
d="M146 560q-32 31 -32 76q0 35 19 65.5t50.5 49t67.5 18.5q48 0 79.5 -31t31.5 -76q0 -35 -18.5 -65.5t-50 -49t-67.5 -18.5q-48 0 -80 31zM16 -183.5q-18 2.5 -47 8.5l16 158q17 -3 28 -3q17 0 27 10t12 33l52 490h240l-51 -483q-12 -109 -71 -162.5t-161 -53.5
q-27 0 -45 2.5z" />
    <glyph glyph-name="k" unicode="k" horiz-adv-x="687" 
d="M407 0l-96 199l-21 -199h-240l74 700h240l-40 -376l139 189h264l-196 -238l151 -275h-275z" />
    <glyph glyph-name="l" unicode="l" horiz-adv-x="340" 
d="M124 700h240l-74 -700h-240z" />
    <glyph glyph-name="m" unicode="m" horiz-adv-x="1001" 
d="M104 513h240l-8 -78q22 45 63.5 69t100.5 24q122 0 149 -100q30 48 77.5 74t106.5 26q158 0 158 -169q0 -24 -3 -51l-32 -308h-245l28 265q1 6 1 18q0 24 -9.5 34.5t-27.5 10.5q-24 0 -36.5 -19t-17.5 -59l-26 -250h-245l28 265q1 6 1 18q0 24 -9.5 34.5t-27.5 10.5
q-26 0 -37.5 -18.5t-16.5 -59.5l-26 -250h-240z" />
    <glyph glyph-name="n" unicode="n" horiz-adv-x="688" 
d="M104 513h240l-8 -78q23 46 67.5 69.5t106.5 23.5q168 0 168 -172q0 -22 -3 -48l-32 -308h-245l27 258q1 6 1 16q0 26 -12 40t-34 14q-29 0 -44 -19.5t-20 -63.5l-26 -245h-240z" />
    <glyph glyph-name="o" unicode="o" horiz-adv-x="632" 
d="M163 14q-64 29 -98.5 82.5t-34.5 126.5q0 10 2 34q9 83 53.5 144t118.5 94t167 33q87 0 151.5 -28.5t99 -82t34.5 -126.5q0 -10 -2 -34q-9 -83 -54 -144.5t-119 -94.5t-167 -33q-87 0 -151 29zM392.5 203.5q22.5 24.5 22.5 65.5q0 31 -17 48.5t-47 17.5
q-35 0 -57.5 -24.5t-22.5 -65.5q0 -31 17 -48.5t47 -17.5q35 0 57.5 24.5z" />
    <glyph glyph-name="p" unicode="p" horiz-adv-x="687" 
d="M608 499.5q44 -28.5 68.5 -80.5t24.5 -121q0 -14 -2 -42q-8 -80 -43 -141.5t-89 -95.5t-119 -34q-61 0 -100 28t-50 66l-27 -259h-240l73 693h240l-8 -80q20 40 64.5 67.5t104.5 27.5q59 0 103 -28.5zM426 199q24 28 24 69q0 32 -17 51.5t-46 19.5q-34 0 -57.5 -27
t-23.5 -68q0 -33 17.5 -53t45.5 -20q33 0 57 28z" />
    <glyph glyph-name="q" unicode="q" horiz-adv-x="687" 
d="M691 513l-73 -693h-240l27 259q-20 -41 -64 -67.5t-105 -26.5q-90 0 -143 62.5t-53 165.5q0 28 2 43q8 79 43 141t89 96.5t119 34.5q61 0 99 -26.5t51 -68.5l8 80h240zM411.5 200q23.5 27 23.5 68q0 32 -17 51.5t-46 19.5q-34 0 -57.5 -27t-23.5 -68q0 -32 17 -51.5
t46 -19.5q34 0 57.5 27z" />
    <glyph glyph-name="r" unicode="r" horiz-adv-x="491" 
d="M104 513h240l-13 -122q20 62 64.5 98t101.5 36q16 0 34 -3l-24 -227q-33 5 -52 5q-70 0 -105.5 -36t-44.5 -117l-15 -147h-240z" />
    <glyph glyph-name="s" unicode="s" horiz-adv-x="583" 
d="M99.5 24q-69.5 39 -69.5 110q0 11 1 16h238q-2 -16 9 -24.5t33 -8.5q37 0 37 24q0 9 -7.5 14t-24.5 9l-113 24q-70 14 -107.5 51t-37.5 93q0 12 1 18q9 86 82 132t196 46q262 0 262 -139q0 -11 -1 -17h-237q4 31 -35 31q-33 0 -33 -22q0 -10 9 -16.5t31 -11.5l117 -29
q69 -17 103 -48t34 -84q0 -65 -36.5 -111.5t-102 -71t-149.5 -24.5q-130 0 -199.5 39z" />
    <glyph glyph-name="t" unicode="t" horiz-adv-x="450" 
d="M355 333l-10 -95l-1 -11q0 -30 18 -42.5t43 -12.5q19 0 48 3l-18 -175q-68 -12 -144 -12q-88 0 -140.5 35.5t-52.5 128.5q0 12 2 38l15 143h-70l19 180h70l15 147h240l-15 -147h115l-19 -180h-115z" />
    <glyph glyph-name="u" unicode="u" horiz-adv-x="683" 
d="M64 156q0 24 3 49l32 308h245l-27 -258q-1 -6 -1 -16q0 -54 45 -54q24 0 39.5 17.5t20.5 60.5l26 250h240l-54 -513h-240l8 78q-23 -43 -66.5 -68t-103.5 -25q-167 0 -167 171z" />
    <glyph glyph-name="v" unicode="v" horiz-adv-x="662" 
d="M44 513h275l38 -267l94 267h275l-276 -513h-238z" />
    <glyph glyph-name="w" unicode="w" horiz-adv-x="910" 
d="M54 513h239l40 -259l71 259h210l17 -259l94 259h239l-231 -513h-226l-29 216l-75 -216h-226z" />
    <glyph glyph-name="x" unicode="x" horiz-adv-x="685" 
d="M214 259l-152 254h278l44 -116l69 116h278l-206 -254l155 -259h-278l-47 121l-72 -121h-278z" />
    <glyph glyph-name="y" unicode="y" horiz-adv-x="683" 
d="M687 513l-49 -463q-6 -64 -34.5 -114t-68.5 -78q-44 -32 -92.5 -45t-128.5 -13q-81 0 -129 12.5t-81 40.5q-29 25 -46.5 63t-13.5 75h240q-2 -16 11 -26.5t37 -10.5q29 0 44 13.5t17 36.5l12 107q-23 -41 -66.5 -64.5t-101.5 -23.5q-89 0 -129 43.5t-40 126.5q0 25 3 50
l28 270h240l-26 -247q-1 -6 -1 -17q0 -53 46 -53q28 0 44 19.5t20 64.5l25 233h240z" />
    <glyph glyph-name="z" unicode="z" horiz-adv-x="552" 
d="M244 318h-180l21 195h516l-228 -318h174l-20 -195h-522z" />
    <glyph glyph-name="braceleft" unicode="{" horiz-adv-x="437" 
d="M135.5 -137.5q-48.5 44.5 -48.5 124.5q0 9 2 31l7 67q4 37 -14 53t-56 16l24 226q38 0 59 16t25 53l9 84q10 95 69 147.5t164 52.5h128l-20 -186h-44q-46 0 -73.5 -27t-31.5 -67l-8 -72q-6 -57 -37.5 -84t-63.5 -30q29 -3 53.5 -25.5t24.5 -70.5q0 -12 -1 -18l-6 -55
q-4 -40 18 -67t68 -27h44l-19 -186h-128q-96 0 -144.5 44.5z" />
    <glyph glyph-name="bar" unicode="|" horiz-adv-x="272" 
d="M132 733h162l-97 -926h-162z" />
    <glyph glyph-name="braceright" unicode="}" horiz-adv-x="437" 
d="M-9 -182l19 186h44q46 0 74 27.5t32 66.5l6 55q6 57 37.5 84t63.5 30q-29 3 -53.5 25.5t-24.5 70.5q0 12 1 18l8 72q4 39 -18.5 66.5t-68.5 27.5h-44l20 186h128q96 0 144.5 -44.5t48.5 -124.5q0 -9 -2 -31l-9 -84q-4 -37 14 -53t56 -16l-24 -226q-38 0 -59 -16t-25 -53
l-7 -67q-10 -95 -69 -147.5t-164 -52.5h-128z" />
    <glyph glyph-name="asciitilde" unicode="~" horiz-adv-x="679" 
d="M438 188.5q-32 8.5 -71 24.5q-82 35 -154 35q-63 0 -143 -55l18 173q33 31 73.5 45t77.5 14q53 0 149 -32l26 -9q39 -13 65 -20t46 -7q69 0 147 55l-18 -173q-33 -31 -73 -45t-77 -14q-34 0 -66 8.5z" />
    <glyph glyph-name="uni00A0" unicode="&#xa0;" horiz-adv-x="240" 
 />
    <glyph glyph-name="exclamdown" unicode="&#xa1;" horiz-adv-x="365" 
d="M331 496q36 -36 36 -89q0 -41 -21 -76t-57.5 -56.5t-79.5 -21.5q-56 0 -92.5 36t-36.5 88q0 41 21.5 77t58 57t78.5 21q57 0 93 -36zM335 234l-44 -414h-255l44 414h255z" />
    <glyph glyph-name="cent" unicode="&#xa2;" horiz-adv-x="627" 
d="M389.5 272q16.5 8 24.5 28h240q-21 -97 -96 -157.5t-187 -71.5l-7 -71h-102l8 72q-108 14 -169.5 76t-61.5 160q0 11 2 33q12 112 89 183t196 85l7 71h102l-7 -70q110 -11 172 -71t62 -157h-240q-4 20 -18.5 28t-42.5 8q-37 0 -59 -23.5t-22 -67.5q0 -31 17 -47t48 -16
q28 0 44.5 8z" />
    <glyph glyph-name="sterling" unicode="&#xa3;" horiz-adv-x="687" 
d="M347.5 219.5q-11.5 -19.5 -31.5 -31.5h347l-20 -188h-617l17 160q26 13 43 40t21 62l2 22h-54l12 112h54l6 61q13 117 99 180t222 63q135 0 204 -57t69 -149q0 -18 -1 -27h-255q3 29 -7.5 41.5t-27.5 12.5q-41 0 -47 -55l-7 -70h139l-12 -112h-139l-2 -22
q-3 -23 -14.5 -42.5z" />
    <glyph glyph-name="currency" unicode="&#xa4;" horiz-adv-x="642" 
d="M62 156l52 47q-42 61 -42 137q0 11 2 31q11 96 76 168l-42 47l79 72l47 -52q73 41 155 41q81 0 147 -41l57 52l65 -72l-52 -47q42 -61 42 -137q0 -11 -2 -31q-11 -96 -76 -168l42 -47l-79 -72l-47 52q-73 -41 -155 -41q-81 0 -147 41l-57 -52zM409.5 321.5
q22.5 23.5 22.5 60.5q0 28 -17.5 45t-46.5 17q-35 0 -57.5 -23.5t-22.5 -60.5q0 -28 17.5 -45t46.5 -17q35 0 57.5 23.5z" />
    <glyph glyph-name="yen" unicode="&#xa5;" horiz-adv-x="678" 
d="M483 158h123l-10 -90h-123l-7 -68h-254l7 68h-123l10 90h123l5 49h-122l9 90h116l-176 383h245l81 -223l127 223h245l-256 -383h116l-9 -90h-122z" />
    <glyph glyph-name="brokenbar" unicode="&#xa6;" horiz-adv-x="272" 
d="M132 736h162l-43 -413h-162zM78 220h162l-43 -413h-162z" />
    <glyph glyph-name="section" unicode="&#xa7;" horiz-adv-x="680" 
d="M625.5 194q-30.5 -36 -98.5 -65q76 -47 76 -124q0 -12 -1 -18q-10 -88 -89.5 -138.5t-204.5 -50.5q-127 0 -193 47t-66 131q0 16 1 24h182q-1 -5 -1 -13q0 -68 88 -68q46 0 71.5 17.5t25.5 47.5q0 29 -32 46t-98 37q-65 20 -106.5 38t-71 51.5t-29.5 84.5q0 54 31.5 90.5
t100.5 62.5q-78 48 -78 125q0 63 37 109.5t103 71t153 24.5q128 0 194 -46t66 -131q0 -16 -1 -24h-181q1 4 1 13q0 67 -90 67q-47 0 -71.5 -16t-24.5 -46t31 -46.5t99 -36.5q66 -21 107 -39t70.5 -51t29.5 -84q0 -54 -30.5 -90zM274 235.5q20 -16.5 46.5 -26.5t87.5 -30
q74 29 74 72q0 24 -20.5 40.5t-47 26.5t-89.5 30q-33 -13 -52 -32t-19 -41q0 -23 20 -39.5z" />
    <glyph glyph-name="dieresis" unicode="&#xa8;" horiz-adv-x="600" 
d="M146 572.5q-27 26.5 -27 65.5q0 30 16 56t43 42t59 16q42 0 69 -26.5t27 -65.5q0 -30 -16 -56t-43 -42t-59 -16q-42 0 -69 26.5zM398 572.5q-27 26.5 -27 65.5q0 30 16 56t43 42t59 16q42 0 69 -26.5t27 -65.5q0 -30 -16 -56t-43 -42t-59 -16q-42 0 -69 26.5z" />
    <glyph glyph-name="copyright" unicode="&#xa9;" horiz-adv-x="796" 
d="M206 18q-79 43 -120 117.5t-41 168.5q0 31 2 46q11 105 67 190.5t149 135t211 49.5q110 0 189 -43t120.5 -118t41.5 -169q0 -30 -2 -45q-11 -105 -67 -190.5t-149.5 -135t-211.5 -49.5q-110 0 -189 43zM552.5 113.5q64.5 33.5 103.5 94.5t47 142q2 26 2 38
q0 107 -64 169.5t-178 62.5q-82 0 -146 -33.5t-103 -94.5t-47 -142q-2 -26 -2 -38q0 -107 63.5 -169.5t177.5 -62.5q82 0 146.5 33.5zM318.5 185q-40.5 22 -61.5 59.5t-21 83.5q0 55 27 103t76.5 77t114.5 29q57 0 97.5 -22t60.5 -59t16 -82h-131q-2 20 -15.5 33t-39.5 13
q-34 0 -54 -23t-20 -57q0 -27 15.5 -43.5t43.5 -16.5q26 0 42.5 13t22.5 33h131q-6 -45 -33.5 -82t-72.5 -59t-102 -22q-56 0 -96.5 22z" />
    <glyph glyph-name="ordfeminine" unicode="&#xaa;" horiz-adv-x="439" 
d="M112 429q-33 36 -33 96q0 50 20.5 90t56 62.5t78.5 22.5q36 0 59.5 -15t32.5 -39l5 46h136l-31 -291h-136l5 44q-13 -22 -40.5 -37t-63.5 -15q-56 0 -89 36zM305.5 514.5q14.5 14.5 14.5 37.5q0 18 -11.5 28.5t-32.5 10.5q-23 0 -38 -13.5t-15 -35.5q0 -19 12 -30.5
t32 -11.5q24 0 38.5 14.5z" />
    <glyph glyph-name="guillemotleft" unicode="&#xab;" horiz-adv-x="623" 
d="M30 286l261 229l88 -110l-141 -119l116 -119l-111 -110zM307 286l261 229l88 -110l-141 -119l116 -119l-111 -110z" />
    <glyph glyph-name="logicalnot" unicode="&#xac;" horiz-adv-x="595" 
d="M423 343h-352l18 173h525l-40 -385h-173z" />
    <glyph glyph-name="uni00AD" unicode="&#xad;" horiz-adv-x="404" 
d="M76 389h334l-18 -173h-334z" />
    <glyph glyph-name="registered" unicode="&#xae;" horiz-adv-x="612" 
d="M177.5 188.5q-60.5 32.5 -92 90t-31.5 129.5q0 12 2 34q9 80 51.5 145.5t114 103.5t161.5 38q84 0 144 -32.5t91.5 -89.5t31.5 -129q0 -12 -2 -36q-8 -80 -50.5 -145t-113.5 -103t-162 -38q-84 0 -144.5 32.5zM486.5 292q60.5 56 70.5 150q2 22 2 31q0 81 -49.5 128.5
t-135.5 47.5q-95 0 -155.5 -56.5t-71.5 -150.5q-2 -20 -2 -29q0 -81 49.5 -129t136.5 -48q95 0 155.5 56zM267 566h126q37 0 60 -23t23 -57q0 -27 -14.5 -49.5t-41.5 -34.5l46 -70l-96 1l-37 61l-5 -62h-85zM361 450q10 0 17.5 8t8.5 18v4q0 9 -5.5 15.5t-14.5 6.5h-21
l-6 -52h21z" />
    <glyph glyph-name="macron" unicode="&#xaf;" horiz-adv-x="600" 
d="M113 690h388l-12 -112h-388z" />
    <glyph glyph-name="degree" unicode="&#xb0;" horiz-adv-x="421" 
d="M149 323q-41 23 -64.5 63.5t-23.5 90.5q0 58 30.5 108t81.5 79.5t110 29.5q52 0 93 -23t64.5 -63t23.5 -89q0 -59 -30 -109.5t-81 -80t-111 -29.5q-52 0 -93 23zM308.5 447q21.5 21 21.5 61q0 30 -16.5 45t-43.5 15q-32 0 -54 -21t-22 -60q0 -29 17.5 -45t43.5 -16
q32 0 53.5 21z" />
    <glyph glyph-name="plusminus" unicode="&#xb1;" horiz-adv-x="596" 
d="M245 371h-171l18 174h171l9 85h184l-9 -85h171l-18 -174h-171l-9 -85h-184zM61 248h526l-18 -174h-526z" />
    <glyph glyph-name="uni00B2" unicode="&#xb2;" horiz-adv-x="447" 
d="M115 531.5q31 47.5 93 75.5l78 35q18 7 26 16t9 22v4q0 19 -22 19q-30 0 -35 -37h-152q7 63 61 101.5t136 38.5q79 0 122 -28.5t43 -79.5l-1 -14q-4 -43 -27 -71.5t-68 -48.5l-63 -28q-21 -10 -34 -24h165l-12 -112h-359q9 84 40 131.5z" />
    <glyph glyph-name="uni00B3" unicode="&#xb3;" horiz-adv-x="445" 
d="M92 507q0 13 1 20h151q-3 -29 28 -29q14 0 22.5 7.5t8.5 21.5q0 24 -33 24h-65l11 102h65q41 0 41 31q0 21 -24 21q-14 0 -22.5 -7t-10.5 -20h-151q6 58 59.5 93t141.5 35q74 0 117.5 -26t43.5 -73q0 -40 -24.5 -68t-72.5 -37q40 -7 61 -28t21 -53q0 -60 -55.5 -96.5
t-151.5 -36.5q-162 0 -162 119z" />
    <glyph glyph-name="acute" unicode="&#xb4;" horiz-adv-x="600" 
d="M171 645l190 144l74 -95l-190 -144z" />
    <glyph glyph-name="uni00B5" unicode="&#xb5;" horiz-adv-x="688" 
d="M692 513l-54 -513h-240l8 78q-18 -35 -48 -56.5t-68 -21.5l-19 -180h-240l73 693h245l-27 -258q-1 -6 -1 -16q0 -54 45 -54q24 0 39.5 17.5t20.5 60.5l26 250h240z" />
    <glyph glyph-name="paragraph" unicode="&#xb6;" horiz-adv-x="765" 
d="M315 236q-61 0 -110.5 28.5t-77.5 77.5t-28 108q0 71 37 132.5t98.5 98t130.5 36.5h425l-14 -140h-60l-80 -759h-155l80 759h-55l-80 -759h-155z" />
    <glyph glyph-name="periodcentered" unicode="&#xb7;" horiz-adv-x="389" 
d="M118.5 206.5q-36.5 36.5 -36.5 90.5q0 41 22 77t58.5 57.5t79.5 21.5q58 0 94.5 -36.5t36.5 -89.5q0 -42 -22 -78t-59 -57.5t-80 -21.5q-57 0 -93.5 36.5z" />
    <glyph glyph-name="cedilla" unicode="&#xb8;" horiz-adv-x="600" 
d="M56.5 -182.5q-28.5 20.5 -27.5 49.5h80q1 -6 7.5 -10.5t15.5 -4.5q14 0 22.5 9t8.5 24q0 11 -6 17t-17 6q-17 0 -24 -12h-74l12 113h79l-7 -68q14 12 45 12q35 0 53.5 -19.5t18.5 -47.5q0 -35 -30.5 -62t-82.5 -27q-45 0 -73.5 20.5z" />
    <glyph glyph-name="uni00B9" unicode="&#xb9;" horiz-adv-x="349" 
d="M189 602h-82l12 114q62 0 87.5 19.5t29.5 58.5h125l-41 -394h-152z" />
    <glyph glyph-name="ordmasculine" unicode="&#xba;" horiz-adv-x="409" 
d="M121.5 428q-45.5 38 -45.5 102q0 51 26 90.5t72 62t104 22.5q78 0 124.5 -39t46.5 -102q0 -51 -26.5 -90.5t-72.5 -61.5t-105 -22q-78 0 -123.5 38zM296 515q15 14 15 37q0 18 -12 29t-33 11q-23 0 -37.5 -14t-14.5 -36q0 -19 11.5 -30t31.5 -11q24 0 39 14z" />
    <glyph glyph-name="guillemotright" unicode="&#xbb;" horiz-adv-x="623" 
d="M28 167l140 119l-115 119l110 110l213 -229l-261 -229zM305 167l140 119l-115 119l110 110l213 -229l-261 -229z" />
    <glyph glyph-name="onequarter" unicode="&#xbc;" horiz-adv-x="1003" 
d="M805 652l-544 -682l-98 66l543 682zM156 286l21 202h-82l12 114q62 0 87.5 19.5t29.5 58.5h125l-41 -394h-152zM967 92h-32l-10 -92h-149l10 92h-175l31 302h148l-19 -182h27l9 86h149l-9 -86h32z" />
    <glyph glyph-name="onehalf" unicode="&#xbd;" horiz-adv-x="963" 
d="M163 36l543 682l99 -66l-544 -682zM177 488h-82l12 114q62 0 87.5 19.5t29.5 58.5h125l-41 -394h-152zM589 131.5q31 47.5 93 75.5l78 35q18 8 26 16.5t9 21.5v4q0 19 -22 19q-15 0 -24.5 -9.5t-10.5 -27.5h-152q7 63 61 101.5t136 38.5q79 0 122 -28.5t43 -79.5l-1 -14
q-4 -43 -27 -71.5t-68 -48.5l-63 -28q-21 -10 -34 -24h165l-12 -112h-359q9 84 40 131.5z" />
    <glyph glyph-name="threequarters" unicode="&#xbe;" horiz-adv-x="1079" 
d="M881 652l-544 -682l-98 66l543 682zM393.5 310.5q-55.5 -36.5 -151.5 -36.5q-162 0 -162 119q0 13 1 20h151q-3 -29 28 -29q14 0 22.5 7.5t8.5 21.5q0 24 -33 24h-65l11 102h65q41 0 41 31q0 21 -24 21q-14 0 -22.5 -7t-10.5 -20h-151q6 58 59.5 93t141.5 35
q74 0 117.5 -26t43.5 -73q0 -40 -24.5 -68t-72.5 -37q40 -7 61 -28t21 -53q0 -60 -55.5 -96.5zM1043 92h-32l-10 -92h-149l10 92h-175l31 302h148l-19 -182h27l9 86h149l-9 -86h32z" />
    <glyph glyph-name="questiondown" unicode="&#xbf;" horiz-adv-x="577" 
d="M442.5 539q36.5 -36 36.5 -89q0 -41 -21.5 -76.5t-58 -56.5t-78.5 -21q-57 0 -93 35.5t-36 88.5q0 41 21.5 77t57.5 57t79 21q56 0 92.5 -36zM445 266q-5 -50 -28 -81t-74 -56l-52 -25q-25 -12 -36 -24t-11 -33q0 -18 12 -28.5t32 -10.5q27 0 45 16t22 51h250
q-6 -55 -41.5 -107.5t-109.5 -88.5t-188 -36q-119 0 -196 40.5t-77 131.5q0 69 33 113t76 70l52 32q18 11 26.5 19t9.5 18l1 8h255z" />
    <glyph glyph-name="Agrave" unicode="&#xc0;" horiz-adv-x="767" 
d="M558 725l-227 83l50 92l227 -83zM494 77h-205l-27 -77h-262l314 700h287l166 -700h-262zM467 252l-33 232l-83 -232h116z" />
    <glyph glyph-name="Aacute" unicode="&#xc1;" horiz-adv-x="767" 
d="M362 725l-30 92l245 83l30 -92zM494 77h-205l-27 -77h-262l314 700h287l166 -700h-262zM467 252l-33 232l-83 -232h116z" />
    <glyph glyph-name="Acircumflex" unicode="&#xc2;" horiz-adv-x="767" 
d="M387 727l-62 68l153 97l133 -97l-78 -68l-67 52zM494 77h-205l-27 -77h-262l314 700h287l166 -700h-262zM467 252l-33 232l-83 -232h116z" />
    <glyph glyph-name="Atilde" unicode="&#xc3;" horiz-adv-x="767" 
d="M344 773.5q-20 -11.5 -46 -35.5l-49 79q45 48 76 62.5t56 14.5q19 0 40.5 -7.5t51.5 -21.5q26 -12 42 -17.5t29 -5.5q22 0 40.5 7t60.5 35l43 -82q-37 -41 -74 -54.5t-64 -13.5q-18 0 -36.5 6t-35 13t-21.5 9q-24 11 -40.5 17t-29.5 6q-23 0 -43 -11.5zM494 77h-205
l-27 -77h-262l314 700h287l166 -700h-262zM467 252l-33 232l-83 -232h116z" />
    <glyph glyph-name="Adieresis" unicode="&#xc4;" horiz-adv-x="767" 
d="M284 747q-24 23 -24 56q0 39 31 68t72 29q37 0 59.5 -22.5t22.5 -56.5q0 -38 -29 -67.5t-72 -29.5q-36 0 -60 23zM515.5 747q-22.5 23 -22.5 55q0 40 29 69t71 29q37 0 60.5 -23t23.5 -57q0 -38 -30.5 -67t-72.5 -29q-36 0 -58.5 23zM494 77h-205l-27 -77h-262l314 700
h287l166 -700h-262zM467 252l-33 232l-83 -232h116z" />
    <glyph glyph-name="Aring" unicode="&#xc5;" horiz-adv-x="767" 
d="M494 77h-205l-27 -77h-262l314 700q-8 21 -8 42q0 42 24 78.5t64 58t85 21.5q40 0 72 -17.5t50 -47t18 -64.5q0 -37 -18 -71l166 -700h-262zM420 714q15 -14 38 -14q28 0 45 18t17 46q0 22 -14 35.5t-37 13.5q-27 0 -45.5 -17t-18.5 -46q0 -22 15 -36zM467 252l-33 232
l-83 -232h116z" />
    <glyph glyph-name="AE" unicode="&#xc6;" horiz-adv-x="973" 
d="M768 517l-8 -83h209l-19 -173h-209l-8 -78h209l-19 -183h-459l8 77h-172l-38 -77h-262l420 700h577l-20 -183h-209zM490 252l29 267l-133 -267h104z" />
    <glyph glyph-name="Ccedilla" unicode="&#xc7;" horiz-adv-x="815" 
d="M521 224q37 22 48 59h266q-25 -140 -127 -219t-261 -88l-3 -35q14 12 45 12q35 0 53.5 -19.5t18.5 -47.5q0 -35 -30.5 -62t-82.5 -27q-45 0 -73.5 20.5t-27.5 49.5h80q1 -6 7.5 -10.5t15.5 -4.5q14 0 22.5 9t8.5 24q0 11 -6 17t-17 6q-17 0 -24 -12h-74l9 81
q-97 7 -170.5 50.5t-113.5 115.5t-40 163q0 29 2 44q11 108 71.5 193.5t156.5 133.5t211 48q175 0 271 -79.5t92 -228.5h-266q-4 37 -36 59t-84 22q-69 0 -110.5 -46.5t-41.5 -125.5q0 -59 31.5 -91.5t89.5 -32.5q52 0 89 22z" />
    <glyph glyph-name="Egrave" unicode="&#xc8;" horiz-adv-x="579" 
d="M250 808l50 92l227 -83l-50 -92zM129 700h474l-20 -183h-219l-8 -83h219l-19 -173h-219l-8 -78h219l-19 -183h-474z" />
    <glyph glyph-name="Eacute" unicode="&#xc9;" horiz-adv-x="579" 
d="M251 817l245 83l30 -92l-245 -83zM129 700h474l-20 -183h-219l-8 -83h219l-19 -173h-219l-8 -78h219l-19 -183h-474z" />
    <glyph glyph-name="Ecircumflex" unicode="&#xca;" horiz-adv-x="579" 
d="M530 795l-78 -68l-67 52l-79 -52l-62 68l153 97zM129 700h474l-20 -183h-219l-8 -83h219l-19 -173h-219l-8 -78h219l-19 -183h-474z" />
    <glyph glyph-name="Edieresis" unicode="&#xcb;" horiz-adv-x="579" 
d="M203 747q-24 23 -24 56q0 39 31 68t72 29q37 0 59.5 -22.5t22.5 -56.5q0 -38 -29 -67.5t-72 -29.5q-36 0 -60 23zM434.5 747q-22.5 23 -22.5 55q0 40 29 69t71 29q37 0 60.5 -23t23.5 -57q0 -38 -30.5 -67t-72.5 -29q-36 0 -58.5 23zM129 700h474l-20 -183h-219l-8 -83
h219l-19 -173h-219l-8 -78h219l-19 -183h-474z" />
    <glyph glyph-name="Igrave" unicode="&#xcc;" horiz-adv-x="365" 
d="M130 808l50 92l227 -83l-50 -92zM129 700h255l-74 -700h-255z" />
    <glyph glyph-name="Iacute" unicode="&#xcd;" horiz-adv-x="365" 
d="M131 817l245 83l30 -92l-245 -83zM129 700h255l-74 -700h-255z" />
    <glyph glyph-name="Icircumflex" unicode="&#xce;" horiz-adv-x="365" 
d="M270 787l-101 -74l-52 62l165 125l137 -125l-73 -62zM129 700h255l-74 -700h-255z" />
    <glyph glyph-name="Idieresis" unicode="&#xcf;" horiz-adv-x="365" 
d="M110.5 746.5q-21.5 20.5 -21.5 50.5q0 36 27.5 62.5t65.5 26.5q35 0 55.5 -20.5t20.5 -52.5q0 -35 -27 -61t-66 -26q-33 0 -54.5 20.5zM299.5 746.5q-20.5 20.5 -20.5 49.5q0 37 26 63.5t65 26.5q34 0 56 -21t22 -53q0 -34 -28.5 -60t-66.5 -26q-33 0 -53.5 20.5z
M129 700h255l-74 -700h-255z" />
    <glyph glyph-name="Eth" unicode="&#xd0;" horiz-adv-x="748" 
d="M618.5 660.5q75.5 -39.5 117 -110t41.5 -160.5q0 -12 -2 -40q-11 -101 -66.5 -180.5t-143.5 -124.5t-194 -45h-316l31 298h-40l11 102h40l32 300h316q98 0 173.5 -39.5zM440.5 225q32.5 22 51.5 60.5t19 84.5q0 56 -31 91.5t-80 35.5h-38l-10 -97h68l-11 -102h-68
l-10 -95h38q39 0 71.5 22z" />
    <glyph glyph-name="Ntilde" unicode="&#xd1;" horiz-adv-x="784" 
d="M541.5 740q-18.5 6 -35 13t-21.5 9q-24 11 -40.5 17t-29.5 6q-23 0 -43 -11.5t-46 -35.5l-49 79q45 48 76 62.5t56 14.5q19 0 40.5 -7.5t51.5 -21.5q26 -12 42 -17.5t29 -5.5q22 0 40.5 7t60.5 35l43 -82q-37 -41 -74 -54.5t-64 -13.5q-18 0 -36.5 6zM129 700h255
l138 -343l36 343h245l-74 -700h-255l-138 343l-36 -343h-245z" />
    <glyph glyph-name="Ograve" unicode="&#xd2;" horiz-adv-x="816" 
d="M355 808l50 92l227 -83l-50 -92zM210.5 20q-81.5 45 -123.5 120.5t-42 167.5q0 14 2 42q11 101 68 186.5t152.5 137t216.5 51.5q113 0 194.5 -45t124 -121t42.5 -168q0 -13 -2 -41q-11 -100 -68 -186t-153 -137.5t-217 -51.5q-113 0 -194.5 45zM510 227q34 24 51.5 62.5
t17.5 81.5q0 55 -30 90.5t-89 35.5q-47 0 -81 -24t-51 -62t-17 -82q0 -55 30 -90.5t88 -35.5q47 0 81 24z" />
    <glyph glyph-name="Oacute" unicode="&#xd3;" horiz-adv-x="816" 
d="M356 817l245 83l30 -92l-245 -83zM210.5 20q-81.5 45 -123.5 120.5t-42 167.5q0 14 2 42q11 101 68 186.5t152.5 137t216.5 51.5q113 0 194.5 -45t124 -121t42.5 -168q0 -13 -2 -41q-11 -100 -68 -186t-153 -137.5t-217 -51.5q-113 0 -194.5 45zM510 227q34 24 51.5 62.5
t17.5 81.5q0 55 -30 90.5t-89 35.5q-47 0 -81 -24t-51 -62t-17 -82q0 -55 30 -90.5t88 -35.5q47 0 81 24z" />
    <glyph glyph-name="Ocircumflex" unicode="&#xd4;" horiz-adv-x="816" 
d="M635 795l-78 -68l-67 52l-79 -52l-62 68l153 97zM210.5 20q-81.5 45 -123.5 120.5t-42 167.5q0 14 2 42q11 101 68 186.5t152.5 137t216.5 51.5q113 0 194.5 -45t124 -121t42.5 -168q0 -13 -2 -41q-11 -100 -68 -186t-153 -137.5t-217 -51.5q-113 0 -194.5 45zM510 227
q34 24 51.5 62.5t17.5 81.5q0 55 -30 90.5t-89 35.5q-47 0 -81 -24t-51 -62t-17 -82q0 -55 30 -90.5t88 -35.5q47 0 81 24z" />
    <glyph glyph-name="Otilde" unicode="&#xd5;" horiz-adv-x="816" 
d="M537.5 740q-18.5 6 -35 13t-21.5 9q-24 11 -40.5 17t-29.5 6q-23 0 -43 -11.5t-46 -35.5l-49 79q45 48 76 62.5t56 14.5q19 0 40.5 -7.5t51.5 -21.5q26 -12 42 -17.5t29 -5.5q22 0 40.5 7t60.5 35l43 -82q-37 -41 -74 -54.5t-64 -13.5q-18 0 -36.5 6zM210.5 20
q-81.5 45 -123.5 120.5t-42 167.5q0 14 2 42q11 101 68 186.5t152.5 137t216.5 51.5q113 0 194.5 -45t124 -121t42.5 -168q0 -13 -2 -41q-11 -100 -68 -186t-153 -137.5t-217 -51.5q-113 0 -194.5 45zM510 227q34 24 51.5 62.5t17.5 81.5q0 55 -30 90.5t-89 35.5
q-47 0 -81 -24t-51 -62t-17 -82q0 -55 30 -90.5t88 -35.5q47 0 81 24z" />
    <glyph glyph-name="Odieresis" unicode="&#xd6;" horiz-adv-x="816" 
d="M308 747q-24 23 -24 56q0 39 31 68t72 29q37 0 59.5 -22.5t22.5 -56.5q0 -38 -29 -67.5t-72 -29.5q-36 0 -60 23zM539.5 747q-22.5 23 -22.5 55q0 40 29 69t71 29q37 0 60.5 -23t23.5 -57q0 -38 -30.5 -67t-72.5 -29q-36 0 -58.5 23zM210.5 20q-81.5 45 -123.5 120.5
t-42 167.5q0 14 2 42q11 101 68 186.5t152.5 137t216.5 51.5q113 0 194.5 -45t124 -121t42.5 -168q0 -13 -2 -41q-11 -100 -68 -186t-153 -137.5t-217 -51.5q-113 0 -194.5 45zM510 227q34 24 51.5 62.5t17.5 81.5q0 55 -30 90.5t-89 35.5q-47 0 -81 -24t-51 -62t-17 -82
q0 -55 30 -90.5t88 -35.5q47 0 81 24z" />
    <glyph glyph-name="multiply" unicode="&#xd7;" horiz-adv-x="604" 
d="M459 319l128 -144l-136 -123l-128 144l-160 -144l-110 123l160 144l-129 144l136 123l128 -144l160 144l110 -123z" />
    <glyph glyph-name="Oslash" unicode="&#xd8;" horiz-adv-x="816" 
d="M801 563q44 -77 44 -171q0 -28 -2 -42q-11 -100 -68 -186t-153 -137.5t-217 -51.5q-61 0 -114 14l-42 -75l-69 32l39 70q-84 42 -129 119.5t-45 172.5q0 28 2 42q11 101 68 186.5t152.5 137t216.5 51.5q64 0 122 -16l44 79l65 -31l-41 -74q83 -43 127 -120zM342 237
l144 258q-16 2 -26 2q-47 0 -81 -24t-51 -62.5t-17 -82.5q0 -59 31 -91zM510 226.5q34 23.5 51.5 61.5t17.5 81q0 54 -29 91l-141 -256q6 -1 20 -1q47 0 81 23.5z" />
    <glyph glyph-name="Ugrave" unicode="&#xd9;" horiz-adv-x="726" 
d="M310 808l50 92l227 -83l-50 -92zM199 8.5q-68 28.5 -104 82t-36 126.5q0 9 2 31l48 452h255l-46 -436q-3 -31 15 -51t50 -20q33 0 55.5 20.5t25.5 50.5l46 436h255l-48 -452q-8 -81 -54.5 -141.5t-124 -93.5t-177.5 -33q-94 0 -162 28.5z" />
    <glyph glyph-name="Uacute" unicode="&#xda;" horiz-adv-x="726" 
d="M311 817l245 83l30 -92l-245 -83zM199 8.5q-68 28.5 -104 82t-36 126.5q0 9 2 31l48 452h255l-46 -436q-3 -31 15 -51t50 -20q33 0 55.5 20.5t25.5 50.5l46 436h255l-48 -452q-8 -81 -54.5 -141.5t-124 -93.5t-177.5 -33q-94 0 -162 28.5z" />
    <glyph glyph-name="Ucircumflex" unicode="&#xdb;" horiz-adv-x="726" 
d="M590 795l-78 -68l-67 52l-79 -52l-62 68l153 97zM199 8.5q-68 28.5 -104 82t-36 126.5q0 9 2 31l48 452h255l-46 -436q-3 -31 15 -51t50 -20q33 0 55.5 20.5t25.5 50.5l46 436h255l-48 -452q-8 -81 -54.5 -141.5t-124 -93.5t-177.5 -33q-94 0 -162 28.5z" />
    <glyph glyph-name="Udieresis" unicode="&#xdc;" horiz-adv-x="726" 
d="M263 747q-24 23 -24 56q0 39 31 68t72 29q37 0 59.5 -22.5t22.5 -56.5q0 -38 -29 -67.5t-72 -29.5q-36 0 -60 23zM494.5 747q-22.5 23 -22.5 55q0 40 29 69t71 29q37 0 60.5 -23t23.5 -57q0 -38 -30.5 -67t-72.5 -29q-36 0 -58.5 23zM199 8.5q-68 28.5 -104 82t-36 126.5
q0 9 2 31l48 452h255l-46 -436q-3 -31 15 -51t50 -20q33 0 55.5 20.5t25.5 50.5l46 436h255l-48 -452q-8 -81 -54.5 -141.5t-124 -93.5t-177.5 -33q-94 0 -162 28.5z" />
    <glyph glyph-name="Yacute" unicode="&#xdd;" horiz-adv-x="714" 
d="M343 725l-30 92l245 83l30 -92zM808 700l-421 -700h-287l135 230l-171 470h300l50 -223l109 223h285z" />
    <glyph glyph-name="Thorn" unicode="&#xde;" horiz-adv-x="709" 
d="M628 587q56 -32 85.5 -86.5t29.5 -120.5q0 -10 -2 -30q-8 -72 -48 -133.5t-105.5 -98t-145.5 -36.5h-123l-9 -82h-255l74 700h255l-9 -81h123q74 0 130 -32zM458 298q23 26 23 61q0 30 -17 49.5t-47 19.5h-62l-16 -156h61q35 0 58 26z" />
    <glyph glyph-name="germandbls" unicode="&#xdf;" horiz-adv-x="677" 
d="M365 -12q-21 3 -56 12l17 163q18 -4 34 -4q32 0 51.5 20.5t19.5 51.5q0 27 -19 42.5t-45 15.5h-30l16 148h30q36 0 59 23.5t23 53.5q0 25 -15 38.5t-42 13.5q-31 0 -49 -18t-22 -50l-52 -498h-240l47 443q27 277 341 277q128 0 199 -45t71 -128q0 -44 -20 -83.5
t-57.5 -65.5t-87.5 -32q40 -3 73 -26.5t52 -60t19 -79.5q0 -62 -34 -111t-94.5 -76.5t-137.5 -27.5q-30 0 -51 3z" />
    <glyph glyph-name="agrave" unicode="&#xe0;" horiz-adv-x="687" 
d="M243 689l94 95l160 -144l-94 -95zM93 47.5q-53 62.5 -53 165.5q0 28 2 43q8 79 43 141t89 96.5t119 34.5q61 0 99 -26.5t51 -68.5l8 80h240l-54 -513h-240l8 79q-20 -41 -64 -67.5t-105 -26.5q-90 0 -143 62.5zM411.5 200q23.5 27 23.5 68q0 32 -17 51.5t-46 19.5
q-34 0 -57.5 -27t-23.5 -68q0 -32 17 -51.5t46 -19.5q34 0 57.5 27z" />
    <glyph glyph-name="aacute" unicode="&#xe1;" horiz-adv-x="687" 
d="M252 645l190 144l74 -95l-190 -144zM93 47.5q-53 62.5 -53 165.5q0 28 2 43q8 79 43 141t89 96.5t119 34.5q61 0 99 -26.5t51 -68.5l8 80h240l-54 -513h-240l8 79q-20 -41 -64 -67.5t-105 -26.5q-90 0 -143 62.5zM411.5 200q23.5 27 23.5 68q0 32 -17 51.5t-46 19.5
q-34 0 -57.5 -27t-23.5 -68q0 -32 17 -51.5t46 -19.5q34 0 57.5 27z" />
    <glyph glyph-name="acircumflex" unicode="&#xe2;" horiz-adv-x="687" 
d="M532 610l-86 -66l-63 68l-77 -68l-72 66l164 137zM93 47.5q-53 62.5 -53 165.5q0 28 2 43q8 79 43 141t89 96.5t119 34.5q61 0 99 -26.5t51 -68.5l8 80h240l-54 -513h-240l8 79q-20 -41 -64 -67.5t-105 -26.5q-90 0 -143 62.5zM411.5 200q23.5 27 23.5 68q0 32 -17 51.5
t-46 19.5q-34 0 -57.5 -27t-23.5 -68q0 -32 17 -51.5t46 -19.5q34 0 57.5 27z" />
    <glyph glyph-name="atilde" unicode="&#xe3;" horiz-adv-x="687" 
d="M414.5 552q-17.5 7 -37.5 20q-16 10 -28.5 15.5t-28.5 5.5q-47 0 -89 -33l-26 92q58 57 115 57q25 0 42.5 -7t37.5 -20q16 -11 28.5 -16t27.5 -5q48 0 90 33l26 -92q-58 -57 -115 -57q-25 0 -42.5 7zM93 47.5q-53 62.5 -53 165.5q0 28 2 43q8 79 43 141t89 96.5t119 34.5
q61 0 99 -26.5t51 -68.5l8 80h240l-54 -513h-240l8 79q-20 -41 -64 -67.5t-105 -26.5q-90 0 -143 62.5zM411.5 200q23.5 27 23.5 68q0 32 -17 51.5t-46 19.5q-34 0 -57.5 -27t-23.5 -68q0 -32 17 -51.5t46 -19.5q34 0 57.5 27z" />
    <glyph glyph-name="adieresis" unicode="&#xe4;" horiz-adv-x="687" 
d="M181 572.5q-27 26.5 -27 65.5q0 30 16 56t43 42t59 16q42 0 69 -26.5t27 -65.5q0 -30 -16 -56t-43 -42t-59 -16q-42 0 -69 26.5zM433 572.5q-27 26.5 -27 65.5q0 30 16 56t43 42t59 16q42 0 69 -26.5t27 -65.5q0 -30 -16 -56t-43 -42t-59 -16q-42 0 -69 26.5zM93 47.5
q-53 62.5 -53 165.5q0 28 2 43q8 79 43 141t89 96.5t119 34.5q61 0 99 -26.5t51 -68.5l8 80h240l-54 -513h-240l8 79q-20 -41 -64 -67.5t-105 -26.5q-90 0 -143 62.5zM411.5 200q23.5 27 23.5 68q0 32 -17 51.5t-46 19.5q-34 0 -57.5 -27t-23.5 -68q0 -32 17 -51.5t46 -19.5
q34 0 57.5 27z" />
    <glyph glyph-name="aring" unicode="&#xe5;" horiz-adv-x="687" 
d="M299.5 565q-29.5 26 -29.5 68q0 53 36.5 86.5t91.5 33.5q47 0 76.5 -26t29.5 -68q0 -53 -36.5 -86.5t-91.5 -33.5q-47 0 -76.5 26zM415.5 614q13.5 15 13.5 39q0 18 -10 29t-27 11q-20 0 -33.5 -15t-13.5 -39q0 -18 10 -29t27 -11q20 0 33.5 15zM93 47.5
q-53 62.5 -53 165.5q0 28 2 43q8 79 43 141t89 96.5t119 34.5q61 0 99 -26.5t51 -68.5l8 80h240l-54 -513h-240l8 79q-20 -41 -64 -67.5t-105 -26.5q-90 0 -143 62.5zM411.5 200q23.5 27 23.5 68q0 32 -17 51.5t-46 19.5q-34 0 -57.5 -27t-23.5 -68q0 -32 17 -51.5t46 -19.5
q34 0 57.5 27z" />
    <glyph glyph-name="ae" unicode="&#xe6;" horiz-adv-x="1022" 
d="M1042 244q-3 -17 -9 -36h-376q-4 -33 14 -53t52 -20q27 0 47 12t26 31h230q-24 -91 -109 -144.5t-206 -53.5q-66 0 -117.5 19t-85.5 54q-47 -40 -107.5 -56.5t-143.5 -16.5q-67 0 -119 18t-80.5 50.5t-28.5 75.5l1 14q4 46 24 78.5t57 55.5q40 25 100 35.5t143 10.5h74
l4 32q2 20 -8.5 34t-39.5 14q-30 0 -46.5 -15t-18.5 -41h-245q17 89 99.5 140t225.5 51q120 0 179 -54q79 54 186 54q84 0 148.5 -28t100 -79.5t35.5 -117.5q0 -16 -1 -25q-2 -22 -5 -39zM811 334q0 30 -16.5 47t-45.5 17q-32 0 -54.5 -22.5t-26.5 -57.5h142q1 6 1 16z
M420 210h-56q-31 0 -48 -13t-17 -35q0 -19 13 -29t36 -10q28 0 47 16t22 45z" />
    <glyph glyph-name="ccedilla" unicode="&#xe7;" horiz-adv-x="627" 
d="M380.5 188q16.5 8 24.5 28h240q-22 -101 -103.5 -162.5t-199.5 -67.5l-5 -45q14 12 45 12q35 0 53.5 -19.5t18.5 -47.5q0 -35 -30.5 -62t-82.5 -27q-45 0 -73.5 20.5t-27.5 49.5h80q1 -6 7.5 -10.5t15.5 -4.5q14 0 22.5 9t8.5 24q0 11 -6 17t-17 6q-17 0 -24 -12h-74
l10 92q-109 13 -171 75t-62 161q0 11 2 33q9 83 54 144t118.5 94t166.5 33q130 0 206 -61.5t76 -168.5h-240q-4 20 -18.5 28t-42.5 8q-37 0 -59 -23t-22 -66q0 -32 17 -48.5t48 -16.5q28 0 44.5 8z" />
    <glyph glyph-name="egrave" unicode="&#xe8;" horiz-adv-x="632" 
d="M400 545l-160 144l94 95l160 -144zM642 203h-376q-1 -30 18.5 -46.5t53.5 -16.5q28 0 44.5 5.5t21.5 18.5h230q-23 -84 -107 -131.5t-206 -47.5q-139 0 -215 59t-76 174q0 12 2 38q13 130 105 201t236 71q85 0 149.5 -27t100 -77t35.5 -116q0 -17 -1 -25q-5 -44 -15 -80z
M421 323q3 34 -13 52t-50 18q-32 0 -53 -18.5t-26 -51.5h142z" />
    <glyph glyph-name="eacute" unicode="&#xe9;" horiz-adv-x="632" 
d="M323 550l-74 95l190 144l74 -95zM642 203h-376q-1 -30 18.5 -46.5t53.5 -16.5q28 0 44.5 5.5t21.5 18.5h230q-23 -84 -107 -131.5t-206 -47.5q-139 0 -215 59t-76 174q0 12 2 38q13 130 105 201t236 71q85 0 149.5 -27t100 -77t35.5 -116q0 -17 -1 -25q-5 -44 -15 -80z
M421 323q3 34 -13 52t-50 18q-32 0 -53 -18.5t-26 -51.5h142z" />
    <glyph glyph-name="ecircumflex" unicode="&#xea;" horiz-adv-x="632" 
d="M303 544l-72 66l164 137l134 -137l-86 -66l-63 68zM642 203h-376q-1 -30 18.5 -46.5t53.5 -16.5q28 0 44.5 5.5t21.5 18.5h230q-23 -84 -107 -131.5t-206 -47.5q-139 0 -215 59t-76 174q0 12 2 38q13 130 105 201t236 71q85 0 149.5 -27t100 -77t35.5 -116q0 -17 -1 -25
q-5 -44 -15 -80zM421 323q3 34 -13 52t-50 18q-32 0 -53 -18.5t-26 -51.5h142z" />
    <glyph glyph-name="edieresis" unicode="&#xeb;" horiz-adv-x="632" 
d="M178 572.5q-27 26.5 -27 65.5q0 30 16 56t43 42t59 16q42 0 69 -26.5t27 -65.5q0 -30 -16 -56t-43 -42t-59 -16q-42 0 -69 26.5zM430 572.5q-27 26.5 -27 65.5q0 30 16 56t43 42t59 16q42 0 69 -26.5t27 -65.5q0 -30 -16 -56t-43 -42t-59 -16q-42 0 -69 26.5zM642 203
h-376q-1 -30 18.5 -46.5t53.5 -16.5q28 0 44.5 5.5t21.5 18.5h230q-23 -84 -107 -131.5t-206 -47.5q-139 0 -215 59t-76 174q0 12 2 38q13 130 105 201t236 71q85 0 149.5 -27t100 -77t35.5 -116q0 -17 -1 -25q-5 -44 -15 -80zM421 323q3 34 -13 52t-50 18q-32 0 -53 -18.5
t-26 -51.5h142z" />
    <glyph glyph-name="igrave" unicode="&#xec;" horiz-adv-x="340" 
d="M94 689l94 95l160 -144l-94 -95zM104 513h240l-54 -513h-240z" />
    <glyph glyph-name="iacute" unicode="&#xed;" horiz-adv-x="340" 
d="M103 645l190 144l74 -95l-190 -144zM104 513h240l-54 -513h-240z" />
    <glyph glyph-name="icircumflex" unicode="&#xee;" horiz-adv-x="340" 
d="M383 610l-86 -66l-63 68l-77 -68l-72 66l164 137zM104 513h240l-54 -513h-240z" />
    <glyph glyph-name="idieresis" unicode="&#xef;" horiz-adv-x="340" 
d="M75 580q-23 23 -23 56q0 40 29.5 69.5t69.5 29.5q36 0 59 -23.5t23 -57.5q0 -39 -29 -68t-71 -29q-35 0 -58 23zM265 579.5q-23 22.5 -23 56.5q0 40 29.5 69.5t70.5 29.5q36 0 59 -23.5t23 -57.5q0 -39 -30 -68t-70 -29q-36 0 -59 22.5zM104 513h240l-54 -513h-240z" />
    <glyph glyph-name="eth" unicode="&#xf0;" horiz-adv-x="632" 
d="M656 291q0 -10 -2 -34q-9 -83 -54 -145.5t-119 -97t-167 -34.5q-87 0 -151 30t-98.5 84.5t-34.5 128.5q0 10 2 34q11 106 77.5 177t168.5 91l-16 27l-89 -23l-12 67l65 17l-52 87h281l15 -26l97 25l12 -67l-73 -19l119 -199q31 -54 31 -123zM391.5 201q23.5 27 23.5 68
q0 32 -17 51.5t-46 19.5q-34 0 -57.5 -27t-23.5 -68q0 -32 17 -51.5t46 -19.5q34 0 57.5 27z" />
    <glyph glyph-name="ntilde" unicode="&#xf1;" horiz-adv-x="688" 
d="M437.5 552q-17.5 7 -37.5 20q-16 10 -28.5 15.5t-28.5 5.5q-47 0 -89 -33l-26 92q58 57 115 57q25 0 42.5 -7t37.5 -20q16 -11 28.5 -16t27.5 -5q48 0 90 33l26 -92q-58 -57 -115 -57q-25 0 -42.5 7zM104 513h240l-8 -78q23 46 67.5 69.5t106.5 23.5q168 0 168 -172
q0 -22 -3 -48l-32 -308h-245l27 258q1 6 1 16q0 26 -12 40t-34 14q-29 0 -44 -19.5t-20 -63.5l-26 -245h-240z" />
    <glyph glyph-name="ograve" unicode="&#xf2;" horiz-adv-x="632" 
d="M240 689l94 95l160 -144l-94 -95zM163 14q-64 29 -98.5 82.5t-34.5 126.5q0 10 2 34q9 83 53.5 144t118.5 94t167 33q87 0 151.5 -28.5t99 -82t34.5 -126.5q0 -10 -2 -34q-9 -83 -54 -144.5t-119 -94.5t-167 -33q-87 0 -151 29zM392.5 203.5q22.5 24.5 22.5 65.5
q0 31 -17 48.5t-47 17.5q-35 0 -57.5 -24.5t-22.5 -65.5q0 -31 17 -48.5t47 -17.5q35 0 57.5 24.5z" />
    <glyph glyph-name="oacute" unicode="&#xf3;" horiz-adv-x="632" 
d="M249 645l190 144l74 -95l-190 -144zM163 14q-64 29 -98.5 82.5t-34.5 126.5q0 10 2 34q9 83 53.5 144t118.5 94t167 33q87 0 151.5 -28.5t99 -82t34.5 -126.5q0 -10 -2 -34q-9 -83 -54 -144.5t-119 -94.5t-167 -33q-87 0 -151 29zM392.5 203.5q22.5 24.5 22.5 65.5
q0 31 -17 48.5t-47 17.5q-35 0 -57.5 -24.5t-22.5 -65.5q0 -31 17 -48.5t47 -17.5q35 0 57.5 24.5z" />
    <glyph glyph-name="ocircumflex" unicode="&#xf4;" horiz-adv-x="632" 
d="M529 610l-86 -66l-63 68l-77 -68l-72 66l164 137zM163 14q-64 29 -98.5 82.5t-34.5 126.5q0 10 2 34q9 83 53.5 144t118.5 94t167 33q87 0 151.5 -28.5t99 -82t34.5 -126.5q0 -10 -2 -34q-9 -83 -54 -144.5t-119 -94.5t-167 -33q-87 0 -151 29zM392.5 203.5
q22.5 24.5 22.5 65.5q0 31 -17 48.5t-47 17.5q-35 0 -57.5 -24.5t-22.5 -65.5q0 -31 17 -48.5t47 -17.5q35 0 57.5 24.5z" />
    <glyph glyph-name="otilde" unicode="&#xf5;" horiz-adv-x="632" 
d="M411.5 552q-17.5 7 -37.5 20q-16 10 -28.5 15.5t-28.5 5.5q-47 0 -89 -33l-26 92q58 57 115 57q25 0 42.5 -7t37.5 -20q16 -11 28.5 -16t27.5 -5q48 0 90 33l26 -92q-58 -57 -115 -57q-25 0 -42.5 7zM163 14q-64 29 -98.5 82.5t-34.5 126.5q0 10 2 34q9 83 53.5 144
t118.5 94t167 33q87 0 151.5 -28.5t99 -82t34.5 -126.5q0 -10 -2 -34q-9 -83 -54 -144.5t-119 -94.5t-167 -33q-87 0 -151 29zM392.5 203.5q22.5 24.5 22.5 65.5q0 31 -17 48.5t-47 17.5q-35 0 -57.5 -24.5t-22.5 -65.5q0 -31 17 -48.5t47 -17.5q35 0 57.5 24.5z" />
    <glyph glyph-name="odieresis" unicode="&#xf6;" horiz-adv-x="632" 
d="M178 572.5q-27 26.5 -27 65.5q0 30 16 56t43 42t59 16q42 0 69 -26.5t27 -65.5q0 -30 -16 -56t-43 -42t-59 -16q-42 0 -69 26.5zM430 572.5q-27 26.5 -27 65.5q0 30 16 56t43 42t59 16q42 0 69 -26.5t27 -65.5q0 -30 -16 -56t-43 -42t-59 -16q-42 0 -69 26.5zM163 14
q-64 29 -98.5 82.5t-34.5 126.5q0 10 2 34q9 83 53.5 144t118.5 94t167 33q87 0 151.5 -28.5t99 -82t34.5 -126.5q0 -10 -2 -34q-9 -83 -54 -144.5t-119 -94.5t-167 -33q-87 0 -151 29zM392.5 203.5q22.5 24.5 22.5 65.5q0 31 -17 48.5t-47 17.5q-35 0 -57.5 -24.5
t-22.5 -65.5q0 -31 17 -48.5t47 -17.5q35 0 57.5 24.5z" />
    <glyph glyph-name="divide" unicode="&#xf7;" horiz-adv-x="596" 
d="M270 444q-28 28 -28 70q0 31 17 58.5t45 44t61 16.5q44 0 71.5 -28t27.5 -69q0 -32 -16.5 -59.5t-44.5 -44t-61 -16.5q-44 0 -72 28zM77 401h526l-18 -173h-526zM226 24q-28 28 -28 70q0 32 16.5 59t44.5 43t61 16q44 0 72 -27.5t28 -68.5q0 -32 -16.5 -59.5t-44.5 -44
t-61 -16.5q-44 0 -72 28z" />
    <glyph glyph-name="oslash" unicode="&#xf8;" horiz-adv-x="632" 
d="M618.5 422q37.5 -55 37.5 -131q0 -10 -2 -34q-9 -83 -54 -144.5t-119 -94.5t-167 -33q-46 0 -88 9l-33 -61l-47 22l30 54q-70 26 -108 81.5t-38 132.5q0 10 2 34q9 83 53.5 144t118.5 94t167 33q49 0 91 -9l35 64l47 -22l-32 -57q69 -27 106.5 -82zM284 202l74 133h-7
q-35 0 -57 -24t-22 -64q0 -28 12 -45zM392.5 203q22.5 24 22.5 65q0 25 -11 42l-73 -131h4q35 0 57.5 24z" />
    <glyph glyph-name="ugrave" unicode="&#xf9;" horiz-adv-x="683" 
d="M268 689l94 95l160 -144l-94 -95zM64 156q0 24 3 49l32 308h245l-27 -258q-1 -6 -1 -16q0 -54 45 -54q24 0 39.5 17.5t20.5 60.5l26 250h240l-54 -513h-240l8 78q-23 -43 -66.5 -68t-103.5 -25q-167 0 -167 171z" />
    <glyph glyph-name="uacute" unicode="&#xfa;" horiz-adv-x="683" 
d="M277 645l190 144l74 -95l-190 -144zM64 156q0 24 3 49l32 308h245l-27 -258q-1 -6 -1 -16q0 -54 45 -54q24 0 39.5 17.5t20.5 60.5l26 250h240l-54 -513h-240l8 78q-23 -43 -66.5 -68t-103.5 -25q-167 0 -167 171z" />
    <glyph glyph-name="ucircumflex" unicode="&#xfb;" horiz-adv-x="683" 
d="M557 610l-86 -66l-63 68l-77 -68l-72 66l164 137zM64 156q0 24 3 49l32 308h245l-27 -258q-1 -6 -1 -16q0 -54 45 -54q24 0 39.5 17.5t20.5 60.5l26 250h240l-54 -513h-240l8 78q-23 -43 -66.5 -68t-103.5 -25q-167 0 -167 171z" />
    <glyph glyph-name="udieresis" unicode="&#xfc;" horiz-adv-x="683" 
d="M206 572.5q-27 26.5 -27 65.5q0 30 16 56t43 42t59 16q42 0 69 -26.5t27 -65.5q0 -30 -16 -56t-43 -42t-59 -16q-42 0 -69 26.5zM458 572.5q-27 26.5 -27 65.5q0 30 16 56t43 42t59 16q42 0 69 -26.5t27 -65.5q0 -30 -16 -56t-43 -42t-59 -16q-42 0 -69 26.5zM64 156
q0 24 3 49l32 308h245l-27 -258q-1 -6 -1 -16q0 -54 45 -54q24 0 39.5 17.5t20.5 60.5l26 250h240l-54 -513h-240l8 78q-23 -43 -66.5 -68t-103.5 -25q-167 0 -167 171z" />
    <glyph glyph-name="yacute" unicode="&#xfd;" horiz-adv-x="683" 
d="M269 645l190 144l74 -95l-190 -144zM687 513l-49 -463q-6 -64 -34.5 -114t-68.5 -78q-44 -32 -92.5 -45t-128.5 -13q-81 0 -129 12.5t-81 40.5q-29 25 -46.5 63t-13.5 75h240q-2 -16 11 -26.5t37 -10.5q29 0 44 13.5t17 36.5l12 107q-23 -41 -66.5 -64.5t-101.5 -23.5
q-89 0 -129 43.5t-40 126.5q0 25 3 50l28 270h240l-26 -247q-1 -6 -1 -17q0 -53 46 -53q28 0 44 19.5t20 64.5l25 233h240z" />
    <glyph glyph-name="thorn" unicode="&#xfe;" horiz-adv-x="687" 
d="M124 700h240l-28 -267q20 40 64.5 67.5t104.5 27.5q59 0 103 -28.5t68.5 -80.5t24.5 -121q0 -14 -2 -42q-8 -80 -43 -141.5t-89 -95.5t-119 -34q-61 0 -100 28t-50 66l-27 -259h-240zM426 199q24 28 24 69q0 32 -17 51.5t-46 19.5q-34 0 -57.5 -27t-23.5 -68
q0 -33 17.5 -53t45.5 -20q33 0 57 28z" />
    <glyph glyph-name="ydieresis" unicode="&#xff;" horiz-adv-x="683" 
d="M198 572.5q-27 26.5 -27 65.5q0 30 16 56t43 42t59 16q42 0 69 -26.5t27 -65.5q0 -30 -16 -56t-43 -42t-59 -16q-42 0 -69 26.5zM450 572.5q-27 26.5 -27 65.5q0 30 16 56t43 42t59 16q42 0 69 -26.5t27 -65.5q0 -30 -16 -56t-43 -42t-59 -16q-42 0 -69 26.5zM687 513
l-49 -463q-6 -64 -34.5 -114t-68.5 -78q-44 -32 -92.5 -45t-128.5 -13q-81 0 -129 12.5t-81 40.5q-29 25 -46.5 63t-13.5 75h240q-2 -16 11 -26.5t37 -10.5q29 0 44 13.5t17 36.5l12 107q-23 -41 -66.5 -64.5t-101.5 -23.5q-89 0 -129 43.5t-40 126.5q0 25 3 50l28 270h240
l-26 -247q-1 -6 -1 -17q0 -53 46 -53q28 0 44 19.5t20 64.5l25 233h240z" />
    <glyph glyph-name="Amacron" unicode="&#x100;" horiz-adv-x="767" 
d="M668 754h-410l11 106h410zM494 77h-205l-27 -77h-262l314 700h287l166 -700h-262zM467 252l-33 232l-83 -232h116z" />
    <glyph glyph-name="amacron" unicode="&#x101;" horiz-adv-x="687" 
d="M198 690h388l-12 -112h-388zM93 47.5q-53 62.5 -53 165.5q0 28 2 43q8 79 43 141t89 96.5t119 34.5q61 0 99 -26.5t51 -68.5l8 80h240l-54 -513h-240l8 79q-20 -41 -64 -67.5t-105 -26.5q-90 0 -143 62.5zM411.5 200q23.5 27 23.5 68q0 32 -17 51.5t-46 19.5
q-34 0 -57.5 -27t-23.5 -68q0 -32 17 -51.5t46 -19.5q34 0 57.5 27z" />
    <glyph glyph-name="Abreve" unicode="&#x102;" horiz-adv-x="767" 
d="M332 780q-50 40 -47 104h107q1 -29 23 -44.5t56 -15.5t59 15.5t32 44.5h107q-10 -64 -68.5 -104t-138.5 -40t-130 40zM494 77h-205l-27 -77h-262l314 700h287l166 -700h-262zM467 252l-33 232l-83 -232h116z" />
    <glyph glyph-name="abreve" unicode="&#x103;" horiz-adv-x="687" 
d="M238.5 591q-45.5 39 -40.5 111h153q-3 -44 36 -44t46 44h153q-10 -70 -67 -110t-143 -40q-92 0 -137.5 39zM93 47.5q-53 62.5 -53 165.5q0 28 2 43q8 79 43 141t89 96.5t119 34.5q61 0 99 -26.5t51 -68.5l8 80h240l-54 -513h-240l8 79q-20 -41 -64 -67.5t-105 -26.5
q-90 0 -143 62.5zM411.5 200q23.5 27 23.5 68q0 32 -17 51.5t-46 19.5q-34 0 -57.5 -27t-23.5 -68q0 -32 17 -51.5t46 -19.5q34 0 57.5 27z" />
    <glyph glyph-name="Aogonek" unicode="&#x104;" horiz-adv-x="767" 
d="M666 -84q11 -10 31 -10q23 0 47 12l-9 -93q-33 -12 -59.5 -16t-66.5 -4q-75 0 -111 27.5t-31 69.5q3 33 19 56.5t50 41.5h-31l-11 77h-205l-27 -77h-262l314 700h287l166 -700q-62 0 -87 -18t-25 -40q0 -16 11 -26zM467 252l-33 232l-83 -232h116z" />
    <glyph glyph-name="aogonek" unicode="&#x105;" horiz-adv-x="687" 
d="M550 -18q-25 -18 -25 -40q0 -16 11 -26t31 -10q23 0 47 12l-9 -93q-33 -12 -59.5 -16t-66.5 -4q-75 0 -111 27.5t-31 69.5q3 33 19 56.5t50 41.5h-9l8 79q-20 -41 -64 -67.5t-105 -26.5q-90 0 -143 62.5t-53 165.5q0 28 2 43q8 79 43 141t89 96.5t119 34.5q61 0 99 -26.5
t51 -68.5l8 80h240l-54 -513q-62 0 -87 -18zM411.5 200q23.5 27 23.5 68q0 32 -17 51.5t-46 19.5q-34 0 -57.5 -27t-23.5 -68q0 -32 17 -51.5t46 -19.5q34 0 57.5 27z" />
    <glyph glyph-name="Cacute" unicode="&#x106;" horiz-adv-x="815" 
d="M359 817l245 83l30 -92l-245 -83zM218 17q-82 42 -127.5 117.5t-45.5 172.5q0 28 2 43q11 108 71.5 193.5t156.5 133.5t211 48q175 0 271 -79.5t92 -228.5h-266q-4 37 -36 59t-84 22q-69 0 -110.5 -46.5t-41.5 -125.5q0 -59 31.5 -91.5t89.5 -32.5q52 0 89 22t48 59h266
q-27 -149 -140 -228.5t-288 -79.5q-107 0 -189 42z" />
    <glyph glyph-name="cacute" unicode="&#x107;" horiz-adv-x="627" 
d="M247 645l190 144l74 -95l-190 -144zM163.5 14q-64.5 29 -99 82.5t-34.5 126.5q0 10 2 34q9 83 54 144t118.5 94t166.5 33q130 0 206 -61.5t76 -168.5h-240q-4 20 -18.5 28t-42.5 8q-37 0 -59 -23t-22 -66q0 -32 17 -48.5t48 -16.5q28 0 44.5 8t24.5 28h240
q-22 -107 -111.5 -169t-219.5 -62q-86 0 -150.5 29z" />
    <glyph glyph-name="Ccircumflex" unicode="&#x108;" horiz-adv-x="815" 
d="M638 795l-78 -68l-67 52l-79 -52l-62 68l153 97zM218 17q-82 42 -127.5 117.5t-45.5 172.5q0 28 2 43q11 108 71.5 193.5t156.5 133.5t211 48q175 0 271 -79.5t92 -228.5h-266q-4 37 -36 59t-84 22q-69 0 -110.5 -46.5t-41.5 -125.5q0 -59 31.5 -91.5t89.5 -32.5
q52 0 89 22t48 59h266q-27 -149 -140 -228.5t-288 -79.5q-107 0 -189 42z" />
    <glyph glyph-name="ccircumflex" unicode="&#x109;" horiz-adv-x="627" 
d="M527 610l-86 -66l-63 68l-77 -68l-72 66l164 137zM163.5 14q-64.5 29 -99 82.5t-34.5 126.5q0 10 2 34q9 83 54 144t118.5 94t166.5 33q130 0 206 -61.5t76 -168.5h-240q-4 20 -18.5 28t-42.5 8q-37 0 -59 -23t-22 -66q0 -32 17 -48.5t48 -16.5q28 0 44.5 8t24.5 28h240
q-22 -107 -111.5 -169t-219.5 -62q-86 0 -150.5 29z" />
    <glyph glyph-name="Cdotaccent" unicode="&#x10a;" horiz-adv-x="815" 
d="M436.5 759.5q-20.5 20.5 -20.5 50.5q0 37 26.5 63.5t63.5 26.5q33 0 53 -20t20 -51q0 -37 -26 -63.5t-64 -26.5q-32 0 -52.5 20.5zM218 17q-82 42 -127.5 117.5t-45.5 172.5q0 28 2 43q11 108 71.5 193.5t156.5 133.5t211 48q175 0 271 -79.5t92 -228.5h-266
q-4 37 -36 59t-84 22q-69 0 -110.5 -46.5t-41.5 -125.5q0 -59 31.5 -91.5t89.5 -32.5q52 0 89 22t48 59h266q-27 -149 -140 -228.5t-288 -79.5q-107 0 -189 42z" />
    <glyph glyph-name="cdotaccent" unicode="&#x10b;" horiz-adv-x="627" 
d="M291.5 577q-31.5 31 -31.5 76q0 35 19 65.5t50.5 49t67.5 18.5q48 0 79.5 -31t31.5 -76q0 -35 -19 -65.5t-50.5 -49t-67.5 -18.5q-48 0 -79.5 31zM163.5 14q-64.5 29 -99 82.5t-34.5 126.5q0 10 2 34q9 83 54 144t118.5 94t166.5 33q130 0 206 -61.5t76 -168.5h-240
q-4 20 -18.5 28t-42.5 8q-37 0 -59 -23t-22 -66q0 -32 17 -48.5t48 -16.5q28 0 44.5 8t24.5 28h240q-22 -107 -111.5 -169t-219.5 -62q-86 0 -150.5 29z" />
    <glyph glyph-name="Ccaron" unicode="&#x10c;" horiz-adv-x="815" 
d="M355 831l77 68l68 -52l78 52l63 -68l-153 -97zM218 17q-82 42 -127.5 117.5t-45.5 172.5q0 28 2 43q11 108 71.5 193.5t156.5 133.5t211 48q175 0 271 -79.5t92 -228.5h-266q-4 37 -36 59t-84 22q-69 0 -110.5 -46.5t-41.5 -125.5q0 -59 31.5 -91.5t89.5 -32.5
q52 0 89 22t48 59h266q-27 -149 -140 -228.5t-288 -79.5q-107 0 -189 42z" />
    <glyph glyph-name="ccaron" unicode="&#x10d;" horiz-adv-x="627" 
d="M235 681l86 66l62 -68l78 68l72 -66l-164 -137zM163.5 14q-64.5 29 -99 82.5t-34.5 126.5q0 10 2 34q9 83 54 144t118.5 94t166.5 33q130 0 206 -61.5t76 -168.5h-240q-4 20 -18.5 28t-42.5 8q-37 0 -59 -23t-22 -66q0 -32 17 -48.5t48 -16.5q28 0 44.5 8t24.5 28h240
q-22 -107 -111.5 -169t-219.5 -62q-86 0 -150.5 29z" />
    <glyph glyph-name="Dcaron" unicode="&#x10e;" horiz-adv-x="748" 
d="M285 831l77 68l68 -52l78 52l63 -68l-153 -97zM129 700h316q98 0 173.5 -39.5t117 -110t41.5 -160.5q0 -12 -2 -40q-11 -101 -66.5 -180.5t-143.5 -124.5t-194 -45h-316zM369 203q39 0 71.5 22t51.5 60.5t19 84.5q0 56 -31 91.5t-80 35.5h-38l-31 -294h38z" />
    <glyph glyph-name="dcaron" unicode="&#x10f;" horiz-adv-x="808" 
d="M759 518l5 40q6 -1 16 -1q32 0 48 19q11 14 14 38q-5 -6 -16 -10t-24 -4q-22 0 -34.5 14t-12.5 37q0 29 19.5 47.5t50.5 18.5q32 0 51 -19t19 -55q0 -9 -1 -14q-5 -52 -36 -82t-80 -30q-13 0 -19 1zM711 700l-74 -700h-240l8 79q-20 -41 -64 -67.5t-105 -26.5
q-90 0 -143 62.5t-53 165.5q0 28 2 43q8 79 43 141t89 96.5t119 34.5q61 0 99 -26.5t51 -68.5l28 267h240zM411.5 200q23.5 27 23.5 68q0 32 -17 51.5t-46 19.5q-34 0 -57.5 -27t-23.5 -68q0 -32 17 -51.5t46 -19.5q34 0 57.5 27z" />
    <glyph glyph-name="Dcroat" unicode="&#x110;" horiz-adv-x="748" 
d="M618.5 660.5q75.5 -39.5 117 -110t41.5 -160.5q0 -12 -2 -40q-11 -101 -66.5 -180.5t-143.5 -124.5t-194 -45h-316l31 298h-40l11 102h40l32 300h316q98 0 173.5 -39.5zM440.5 225q32.5 22 51.5 60.5t19 84.5q0 56 -31 91.5t-80 35.5h-38l-10 -97h68l-11 -102h-68
l-10 -95h38q39 0 71.5 22z" />
    <glyph glyph-name="dcroat" unicode="&#x111;" horiz-adv-x="700" 
d="M747 540h-53l-57 -540h-240l8 79q-20 -41 -64 -67.5t-105 -26.5q-90 0 -143 62.5t-53 165.5q0 28 2 43q8 79 43 141t89 96.5t119 34.5q61 0 99 -26.5t51 -68.5l11 107h-94l10 102h94l7 58h240l-7 -58h53zM411.5 200q23.5 27 23.5 68q0 32 -17 51.5t-46 19.5
q-34 0 -57.5 -27t-23.5 -68q0 -32 17 -51.5t46 -19.5q34 0 57.5 27z" />
    <glyph glyph-name="Emacron" unicode="&#x112;" horiz-adv-x="579" 
d="M188 860h410l-11 -106h-410zM129 700h474l-20 -183h-219l-8 -83h219l-19 -173h-219l-8 -78h219l-19 -183h-474z" />
    <glyph glyph-name="emacron" unicode="&#x113;" horiz-adv-x="632" 
d="M571 578h-388l12 112h388zM642 203h-376q-1 -30 18.5 -46.5t53.5 -16.5q28 0 44.5 5.5t21.5 18.5h230q-23 -84 -107 -131.5t-206 -47.5q-139 0 -215 59t-76 174q0 12 2 38q13 130 105 201t236 71q85 0 149.5 -27t100 -77t35.5 -116q0 -17 -1 -25q-5 -44 -15 -80zM421 323
q3 34 -13 52t-50 18q-32 0 -53 -18.5t-26 -51.5h142z" />
    <glyph glyph-name="Ebreve" unicode="&#x114;" horiz-adv-x="579" 
d="M251 780q-50 40 -47 104h107q1 -29 23 -44.5t56 -15.5t59 15.5t32 44.5h107q-10 -64 -68.5 -104t-138.5 -40t-130 40zM129 700h474l-20 -183h-219l-8 -83h219l-19 -173h-219l-8 -78h219l-19 -183h-474z" />
    <glyph glyph-name="ebreve" unicode="&#x115;" horiz-adv-x="632" 
d="M235.5 591q-45.5 39 -40.5 111h153q-3 -44 36 -44t46 44h153q-10 -70 -67 -110t-143 -40q-92 0 -137.5 39zM642 203h-376q-1 -30 18.5 -46.5t53.5 -16.5q28 0 44.5 5.5t21.5 18.5h230q-23 -84 -107 -131.5t-206 -47.5q-139 0 -215 59t-76 174q0 12 2 38q13 130 105 201
t236 71q85 0 149.5 -27t100 -77t35.5 -116q0 -17 -1 -25q-5 -44 -15 -80zM421 323q3 34 -13 52t-50 18q-32 0 -53 -18.5t-26 -51.5h142z" />
    <glyph glyph-name="Edotaccent" unicode="&#x116;" horiz-adv-x="579" 
d="M328.5 759.5q-20.5 20.5 -20.5 50.5q0 37 26.5 63.5t63.5 26.5q33 0 53 -20t20 -51q0 -37 -26 -63.5t-64 -26.5q-32 0 -52.5 20.5zM129 700h474l-20 -183h-219l-8 -83h219l-19 -173h-219l-8 -78h219l-19 -183h-474z" />
    <glyph glyph-name="edotaccent" unicode="&#x117;" horiz-adv-x="632" 
d="M293.5 577q-31.5 31 -31.5 76q0 35 19 65.5t50.5 49t67.5 18.5q48 0 79.5 -31t31.5 -76q0 -35 -19 -65.5t-50.5 -49t-67.5 -18.5q-48 0 -79.5 31zM642 203h-376q-1 -30 18.5 -46.5t53.5 -16.5q28 0 44.5 5.5t21.5 18.5h230q-23 -84 -107 -131.5t-206 -47.5
q-139 0 -215 59t-76 174q0 12 2 38q13 130 105 201t236 71q85 0 149.5 -27t100 -77t35.5 -116q0 -17 -1 -25q-5 -44 -15 -80zM421 323q3 34 -13 52t-50 18q-32 0 -53 -18.5t-26 -51.5h142z" />
    <glyph glyph-name="Eogonek" unicode="&#x118;" horiz-adv-x="579" 
d="M364 517l-8 -83h219l-19 -173h-219l-8 -78h219l-19 -183q-62 0 -87 -18t-25 -40q0 -16 11 -26t31 -10q23 0 47 12l-9 -93q-33 -12 -59.5 -16t-66.5 -4q-75 0 -111 27.5t-31 69.5q3 33 19 56.5t50 41.5h-243l74 700h474l-20 -183h-219z" />
    <glyph glyph-name="eogonek" unicode="&#x119;" horiz-adv-x="632" 
d="M642 203h-376q-1 -30 18.5 -46.5t53.5 -16.5q28 0 44.5 5.5t21.5 18.5h230q-16 -60 -65.5 -102.5t-122.5 -61.5h13h-14q-34 -9 -59 -11q-39 -16 -39 -47q0 -16 11 -26t31 -10q23 0 47 12l-9 -93q-33 -12 -59.5 -16t-66.5 -4q-75 0 -111 27.5t-31 69.5q3 31 17 53.5
t42 39.5q-91 19 -139.5 75.5t-48.5 147.5q0 12 2 38q13 130 105 201t236 71q85 0 149.5 -27t100 -77t35.5 -116q0 -17 -1 -25q-5 -44 -15 -80zM421 323q3 34 -13 52t-50 18q-32 0 -53 -18.5t-26 -51.5h142z" />
    <glyph glyph-name="Ecaron" unicode="&#x11a;" horiz-adv-x="579" 
d="M247 831l77 68l68 -52l78 52l63 -68l-153 -97zM129 700h474l-20 -183h-219l-8 -83h219l-19 -173h-219l-8 -78h219l-19 -183h-474z" />
    <glyph glyph-name="ecaron" unicode="&#x11b;" horiz-adv-x="632" 
d="M371 544l-134 137l86 66l62 -68l78 68l72 -66zM642 203h-376q-1 -30 18.5 -46.5t53.5 -16.5q28 0 44.5 5.5t21.5 18.5h230q-23 -84 -107 -131.5t-206 -47.5q-139 0 -215 59t-76 174q0 12 2 38q13 130 105 201t236 71q85 0 149.5 -27t100 -77t35.5 -116q0 -17 -1 -25
q-5 -44 -15 -80zM421 323q3 34 -13 52t-50 18q-32 0 -53 -18.5t-26 -51.5h142z" />
    <glyph glyph-name="Gcircumflex" unicode="&#x11c;" horiz-adv-x="831" 
d="M409 727l-62 68l153 97l133 -97l-78 -68l-67 52zM851 242h-44q-43 -131 -147.5 -199t-262.5 -68q-106 0 -185.5 41t-123 116t-43.5 172q0 30 2 46q11 111 70 196t154.5 132t213.5 47q110 0 192 -31.5t124.5 -89t39.5 -134.5h-277q-4 25 -30.5 40t-67.5 15q-65 0 -105 -43
t-48 -122q-2 -20 -2 -28q0 -65 33 -103.5t89 -38.5q84 0 112 52h-103l17 160h409z" />
    <glyph glyph-name="gcircumflex" unicode="&#x11d;" horiz-adv-x="688" 
d="M540 610l-86 -66l-63 68l-77 -68l-72 66l164 137zM692 513l-48 -460q-9 -70 -43.5 -122.5t-89.5 -85.5q-74 -45 -200 -45q-66 0 -109 7t-81 26q-43 23 -70.5 65.5t-23.5 82.5h240q1 -26 56 -26q30 0 52 14.5t25 48.5l9 91q-17 -38 -63 -62t-101 -24q-95 0 -149.5 57.5
t-54.5 155.5q0 11 2 35q8 76 42.5 134.5t89.5 90.5t123 32q56 0 96.5 -26.5t49.5 -68.5l8 80h240zM413.5 210q23.5 27 23.5 68q0 32 -17 51.5t-46 19.5q-34 0 -57.5 -27t-23.5 -68q0 -32 17 -51.5t46 -19.5q34 0 57.5 27z" />
    <glyph glyph-name="Gbreve" unicode="&#x11e;" horiz-adv-x="831" 
d="M354 780q-50 40 -47 104h107q1 -29 23 -44.5t56 -15.5t59 15.5t32 44.5h107q-10 -64 -68.5 -104t-138.5 -40t-130 40zM851 242h-44q-43 -131 -147.5 -199t-262.5 -68q-106 0 -185.5 41t-123 116t-43.5 172q0 30 2 46q11 111 70 196t154.5 132t213.5 47q110 0 192 -31.5
t124.5 -89t39.5 -134.5h-277q-4 25 -30.5 40t-67.5 15q-65 0 -105 -43t-48 -122q-2 -20 -2 -28q0 -65 33 -103.5t89 -38.5q84 0 112 52h-103l17 160h409z" />
    <glyph glyph-name="gbreve" unicode="&#x11f;" horiz-adv-x="688" 
d="M246.5 591q-45.5 39 -40.5 111h153q-3 -44 36 -44t46 44h153q-10 -70 -67 -110t-143 -40q-92 0 -137.5 39zM692 513l-48 -460q-9 -70 -43.5 -122.5t-89.5 -85.5q-74 -45 -200 -45q-66 0 -109 7t-81 26q-43 23 -70.5 65.5t-23.5 82.5h240q1 -26 56 -26q30 0 52 14.5
t25 48.5l9 91q-17 -38 -63 -62t-101 -24q-95 0 -149.5 57.5t-54.5 155.5q0 11 2 35q8 76 42.5 134.5t89.5 90.5t123 32q56 0 96.5 -26.5t49.5 -68.5l8 80h240zM413.5 210q23.5 27 23.5 68q0 32 -17 51.5t-46 19.5q-34 0 -57.5 -27t-23.5 -68q0 -32 17 -51.5t46 -19.5
q34 0 57.5 27z" />
    <glyph glyph-name="Gdotaccent" unicode="&#x120;" horiz-adv-x="831" 
d="M431.5 759.5q-20.5 20.5 -20.5 50.5q0 37 26.5 63.5t63.5 26.5q33 0 53 -20t20 -51q0 -37 -26 -63.5t-64 -26.5q-32 0 -52.5 20.5zM851 242h-44q-43 -131 -147.5 -199t-262.5 -68q-106 0 -185.5 41t-123 116t-43.5 172q0 30 2 46q11 111 70 196t154.5 132t213.5 47
q110 0 192 -31.5t124.5 -89t39.5 -134.5h-277q-4 25 -30.5 40t-67.5 15q-65 0 -105 -43t-48 -122q-2 -20 -2 -28q0 -65 33 -103.5t89 -38.5q84 0 112 52h-103l17 160h409z" />
    <glyph glyph-name="gdotaccent" unicode="&#x121;" horiz-adv-x="688" 
d="M304.5 577q-31.5 31 -31.5 76q0 35 19 65.5t50.5 49t67.5 18.5q48 0 79.5 -31t31.5 -76q0 -35 -19 -65.5t-50.5 -49t-67.5 -18.5q-48 0 -79.5 31zM692 513l-48 -460q-9 -70 -43.5 -122.5t-89.5 -85.5q-74 -45 -200 -45q-66 0 -109 7t-81 26q-43 23 -70.5 65.5t-23.5 82.5
h240q1 -26 56 -26q30 0 52 14.5t25 48.5l9 91q-17 -38 -63 -62t-101 -24q-95 0 -149.5 57.5t-54.5 155.5q0 11 2 35q8 76 42.5 134.5t89.5 90.5t123 32q56 0 96.5 -26.5t49.5 -68.5l8 80h240zM413.5 210q23.5 27 23.5 68q0 32 -17 51.5t-46 19.5q-34 0 -57.5 -27t-23.5 -68
q0 -32 17 -51.5t46 -19.5q34 0 57.5 27z" />
    <glyph glyph-name="Gcommaaccent" unicode="&#x122;" horiz-adv-x="831" 
d="M851 242h-44q-43 -131 -147.5 -199t-262.5 -68q-106 0 -185.5 41t-123 116t-43.5 172q0 30 2 46q11 111 70 196t154.5 132t213.5 47q110 0 192 -31.5t124.5 -89t39.5 -134.5h-277q-4 25 -30.5 40t-67.5 15q-65 0 -105 -43t-48 -122q-2 -20 -2 -28q0 -65 33 -103.5
t89 -38.5q84 0 112 52h-103l17 160h409zM459.5 -49.5q21.5 -18.5 21.5 -52.5l-1 -12q-5 -52 -40.5 -80t-99.5 -28l4 45q40 0 56 10q11 6 16.5 14.5t8.5 22.5q-14 -20 -44 -20q-25 0 -39 14t-14 37q0 31 21.5 49.5t54.5 18.5q34 0 55.5 -18.5z" />
    <glyph glyph-name="gcommaaccent" unicode="&#x123;" horiz-adv-x="688" 
d="M405 683q-20 0 -31.5 -1.5t-19.5 -7.5q-9 -7 -14.5 -14.5t-8.5 -19.5q2 8 13 13.5t26 5.5q25 0 37.5 -13t12.5 -34l-1 -10q-2 -22 -20 -39t-48 -17q-33 0 -51.5 19.5t-18.5 50.5l1 11q10 97 127 97zM692 513l-48 -460q-9 -70 -43.5 -122.5t-89.5 -85.5q-74 -45 -200 -45
q-66 0 -109 7t-81 26q-43 23 -70.5 65.5t-23.5 82.5h240q1 -26 56 -26q30 0 52 14.5t25 48.5l9 91q-17 -38 -63 -62t-101 -24q-95 0 -149.5 57.5t-54.5 155.5q0 11 2 35q8 76 42.5 134.5t89.5 90.5t123 32q56 0 96.5 -26.5t49.5 -68.5l8 80h240zM413.5 210q23.5 27 23.5 68
q0 32 -17 51.5t-46 19.5q-34 0 -57.5 -27t-23.5 -68q0 -32 17 -51.5t46 -19.5q34 0 57.5 27z" />
    <glyph glyph-name="Hcircumflex" unicode="&#x124;" horiz-adv-x="768" 
d="M611 795l-78 -68l-67 52l-79 -52l-62 68l153 97zM129 700h255l-26 -248h148l26 248h255l-74 -700h-255l26 243h-148l-26 -243h-255z" />
    <glyph glyph-name="hcircumflex" unicode="&#x125;" horiz-adv-x="688" 
d="M257 787l-101 -74l-52 62l165 125l137 -125l-73 -62zM678 356q0 -22 -3 -48l-32 -308h-245l27 258q1 6 1 16q0 26 -12 40t-34 14q-29 0 -44 -19.5t-20 -63.5l-26 -245h-240l74 700h240l-28 -265q23 46 67.5 69.5t106.5 23.5q168 0 168 -172z" />
    <glyph glyph-name="Hbar" unicode="&#x126;" horiz-adv-x="768" 
d="M803 528h-35l-55 -528h-255l26 243h-148l-26 -243h-255l55 528h-34l9 82h34l10 90h255l-10 -90h148l10 90h255l-10 -90h35zM513 528h-148l-7 -76h148z" />
    <glyph glyph-name="hbar" unicode="&#x127;" horiz-adv-x="688" 
d="M678 356q0 -22 -3 -48l-32 -308h-245l27 258q1 6 1 16q0 26 -12 40t-34 14q-29 0 -44 -19.5t-20 -63.5l-26 -245h-240l57 540h-40l10 102h40l7 58h240l-7 -58h107l-10 -102h-107l-11 -105q23 46 67.5 69.5t106.5 23.5q168 0 168 -172z" />
    <glyph glyph-name="Itilde" unicode="&#x128;" horiz-adv-x="365" 
d="M292.5 743q-14.5 7 -32.5 20q-16 12 -27.5 17.5t-23.5 5.5q-16 0 -31.5 -11.5t-34.5 -34.5l-32 78q33 47 56 61.5t41 14.5q17 0 31 -7t32 -20q20 -13 30 -18.5t23 -5.5q16 0 29 6.5t44 34.5l28 -81q-28 -41 -55 -54t-46 -13q-17 0 -31.5 7zM129 700h255l-74 -700h-255z
" />
    <glyph glyph-name="itilde" unicode="&#x129;" horiz-adv-x="340" 
d="M258 545q-13 7 -32 20q-15 11 -26.5 17t-22.5 6q-15 0 -29 -11.5t-31 -34.5l-24 88q23 59 46 77.5t42 18.5q16 0 29 -7t32 -20q16 -12 27 -18t23 -6q14 0 26 7t40 34l20 -96q-24 -50 -48 -66t-42 -16q-17 0 -30 7zM104 513h240l-54 -513h-240z" />
    <glyph glyph-name="Imacron" unicode="&#x12a;" horiz-adv-x="365" 
d="M140 880h270l-12 -116h-270zM129 700h255l-74 -700h-255z" />
    <glyph glyph-name="imacron" unicode="&#x12b;" horiz-adv-x="340" 
d="M106 672h270l-14 -126h-270zM104 513h240l-54 -513h-240z" />
    <glyph glyph-name="Ibreve" unicode="&#x12c;" horiz-adv-x="365" 
d="M160 764q-40 32 -40 101q0 15 1 24h101q-1 -6 -1 -16q0 -29 12.5 -44t35.5 -15q25 0 41 19t20 56h101q-8 -82 -56.5 -119.5t-114.5 -37.5q-60 0 -100 32zM129 700h255l-74 -700h-255z" />
    <glyph glyph-name="ibreve" unicode="&#x12d;" horiz-adv-x="340" 
d="M126.5 569.5q-39.5 33.5 -39.5 106.5q0 8 2 28h111q-1 -5 -1 -15q0 -50 38 -50q22 0 35 17.5t16 47.5h111q-9 -87 -58 -127.5t-115 -40.5q-60 0 -99.5 33.5zM104 513h240l-54 -513h-240z" />
    <glyph glyph-name="Iogonek" unicode="&#x12e;" horiz-adv-x="365" 
d="M223 -18q-25 -18 -25 -40q0 -16 11 -26t31 -10q23 0 47 12l-9 -93q-33 -12 -59.5 -16t-66.5 -4q-75 0 -111 27.5t-31 69.5q3 33 19 56.5t50 41.5h-24l74 700h255l-74 -700q-62 0 -87 -18z" />
    <glyph glyph-name="iogonek" unicode="&#x12f;" horiz-adv-x="340" 
d="M146 560q-32 31 -32 76q0 35 19 65.5t50.5 49t67.5 18.5q48 0 79.5 -31t31.5 -76q0 -35 -18.5 -65.5t-50 -49t-67.5 -18.5q-48 0 -80 31zM104 513h240l-54 -513q-62 0 -87 -18t-25 -40q0 -16 11 -26t31 -10q23 0 47 12l-9 -93q-33 -12 -59.5 -16t-66.5 -4
q-75 0 -111 27.5t-31 69.5q3 33 19 56.5t50 41.5h-9z" />
    <glyph glyph-name="Idotaccent" unicode="&#x130;" horiz-adv-x="365" 
d="M208.5 759.5q-20.5 20.5 -20.5 50.5q0 37 26.5 63.5t63.5 26.5q33 0 53 -20t20 -51q0 -37 -26 -63.5t-64 -26.5q-32 0 -52.5 20.5zM129 700h255l-74 -700h-255z" />
    <glyph glyph-name="dotlessi" unicode="&#x131;" horiz-adv-x="340" 
d="M104 513h240l-54 -513h-240z" />
    <glyph glyph-name="IJ" unicode="&#x132;" horiz-adv-x="1027" 
d="M129 700h255l-74 -700h-255zM466.5 48q-70.5 68 -70.5 180q0 12 2 40h255q-1 -6 -1 -18q0 -60 49 -60q56 0 63 68l47 442h255l-44 -412q-31 -308 -343 -308q-142 0 -212.5 68z" />
    <glyph glyph-name="ij" unicode="&#x133;" horiz-adv-x="680" 
d="M146 560q-32 31 -32 76q0 35 19 65.5t50.5 49t67.5 18.5q48 0 79.5 -31t31.5 -76q0 -35 -18.5 -65.5t-50 -49t-67.5 -18.5q-48 0 -80 31zM486 560q-32 31 -32 76q0 35 19 65.5t50.5 49t67.5 18.5q48 0 79.5 -31t31.5 -76q0 -35 -18.5 -65.5t-50 -49t-67.5 -18.5
q-48 0 -80 31zM104 513h240l-54 -513h-240zM356 -183.5q-18 2.5 -47 8.5l16 158q17 -3 28 -3q17 0 27 10t12 33l52 490h240l-51 -483q-12 -109 -71 -162.5t-161 -53.5q-27 0 -45 2.5z" />
    <glyph glyph-name="Jcircumflex" unicode="&#x134;" horiz-adv-x="662" 
d="M587 787l-101 -74l-52 62l165 125l137 -125l-73 -62zM101.5 48q-70.5 68 -70.5 180q0 12 2 40h255q-1 -6 -1 -18q0 -60 49 -60q56 0 63 68l47 442h255l-44 -412q-31 -308 -343 -308q-142 0 -212.5 68z" />
    <glyph glyph-name="jcircumflex" unicode="&#x135;" horiz-adv-x="340" 
d="M383 610l-86 -66l-63 68l-77 -68l-72 66l164 137zM16 -183.5q-18 2.5 -47 8.5l16 158q17 -3 28 -3q17 0 27 10t12 33l52 490h240l-51 -483q-12 -109 -71 -162.5t-161 -53.5q-27 0 -45 2.5z" />
    <glyph glyph-name="Kcommaaccent" unicode="&#x136;" horiz-adv-x="771" 
d="M580 350l186 -350h-286l-139 296l-31 -296h-255l74 700h255l-32 -296l202 296h286zM434.5 -49.5q21.5 -18.5 21.5 -52.5l-1 -12q-5 -52 -40.5 -80t-99.5 -28l4 45q40 0 56 10q11 6 16.5 14.5t8.5 22.5q-14 -20 -44 -20q-25 0 -39 14t-14 37q0 31 21.5 49.5t54.5 18.5
q34 0 55.5 -18.5z" />
    <glyph glyph-name="kcommaaccent" unicode="&#x137;" horiz-adv-x="687" 
d="M290 0h-240l74 700h240l-40 -376l139 189h264l-196 -238l151 -275h-275l-96 199zM397.5 -49.5q21.5 -18.5 21.5 -52.5l-1 -12q-5 -52 -40.5 -80t-99.5 -28l4 45q40 0 56 10q11 6 16.5 14.5t8.5 22.5q-14 -20 -44 -20q-25 0 -39 14t-14 37q0 31 21.5 49.5t54.5 18.5
q34 0 55.5 -18.5z" />
    <glyph glyph-name="kgreenlandic" unicode="&#x138;" horiz-adv-x="687" 
d="M407 0l-96 199l-21 -199h-240l54 513h240l-20 -189l139 189h264l-196 -238l151 -275h-275z" />
    <glyph glyph-name="Lacute" unicode="&#x139;" horiz-adv-x="562" 
d="M131 817l245 83l30 -92l-245 -83zM129 700h255l-51 -485h217l-23 -215h-472z" />
    <glyph glyph-name="lacute" unicode="&#x13a;" horiz-adv-x="340" 
d="M118 817l245 83l30 -92l-245 -83zM124 700h240l-74 -700h-240z" />
    <glyph glyph-name="Lcommaaccent" unicode="&#x13b;" horiz-adv-x="562" 
d="M129 700h255l-51 -485h217l-23 -215h-472zM230 -177q40 0 56 10q11 6 16.5 14.5t8.5 22.5q-14 -20 -44 -20q-25 0 -39 14t-14 37q0 31 21.5 49.5t54.5 18.5q34 0 55.5 -18.5t21.5 -52.5l-1 -12q-5 -52 -40.5 -80t-99.5 -28z" />
    <glyph glyph-name="lcommaaccent" unicode="&#x13c;" horiz-adv-x="340" 
d="M124 700h240l-74 -700h-240zM108 -177q40 0 56 10q11 6 16.5 14.5t8.5 22.5q-14 -20 -44 -20q-25 0 -39 14t-14 37q0 31 21.5 49.5t54.5 18.5q34 0 55.5 -18.5t21.5 -52.5l-1 -12q-5 -52 -40.5 -80t-99.5 -28z" />
    <glyph glyph-name="Lcaron" unicode="&#x13d;" horiz-adv-x="562" 
d="M414 518l5 40q6 -1 16 -1q32 0 48 19q11 14 14 38q-5 -6 -16 -10t-24 -4q-22 0 -34.5 14t-12.5 37q0 29 19.5 47.5t50.5 18.5q32 0 51 -19t19 -55q0 -9 -1 -14q-5 -52 -36 -82t-80 -30q-13 0 -19 1zM129 700h255l-51 -485h217l-23 -215h-472z" />
    <glyph glyph-name="lcaron" unicode="&#x13e;" horiz-adv-x="468" 
d="M409 518l5 40q6 -1 16 -1q32 0 48 19q11 14 14 38q-5 -6 -16 -10t-24 -4q-22 0 -34.5 14t-12.5 37q0 29 19.5 47.5t50.5 18.5q32 0 51 -19t19 -55q0 -9 -1 -14q-5 -52 -36 -82t-80 -30q-13 0 -19 1zM124 700h240l-74 -700h-240z" />
    <glyph glyph-name="Ldot" unicode="&#x13f;" horiz-adv-x="562" 
d="M129 700h255l-51 -485h217l-23 -215h-472zM406.5 314.5q-36.5 36.5 -36.5 90.5q0 41 22 77t58.5 57.5t79.5 21.5q58 0 94.5 -36.5t36.5 -89.5q0 -42 -22 -78t-59 -57.5t-80 -21.5q-57 0 -93.5 36.5z" />
    <glyph glyph-name="ldot" unicode="&#x140;" horiz-adv-x="567" 
d="M124 700h240l-74 -700h-240zM377 278.5q-32 31.5 -32 78.5q0 35 19 66t51 49.5t69 18.5q49 0 81 -31t32 -77q0 -36 -19 -67.5t-51 -50t-69 -18.5q-49 0 -81 31.5z" />
    <glyph glyph-name="Lslash" unicode="&#x141;" horiz-adv-x="544" 
d="M550 215l-23 -215h-472l26 249l-42 -21l11 108l43 21l36 343h255l-22 -206l98 50l-11 -108l-98 -50l-18 -171h217z" />
    <glyph glyph-name="lslash" unicode="&#x142;" horiz-adv-x="340" 
d="M384 410l-54 -29l-40 -381h-240l26 246l-53 -28l11 108l53 28l37 346h240l-23 -211l54 29z" />
    <glyph glyph-name="Nacute" unicode="&#x143;" horiz-adv-x="784" 
d="M360 817l245 83l30 -92l-245 -83zM129 700h255l138 -343l36 343h245l-74 -700h-255l-138 343l-36 -343h-245z" />
    <glyph glyph-name="nacute" unicode="&#x144;" horiz-adv-x="688" 
d="M275 645l190 144l74 -95l-190 -144zM104 513h240l-8 -78q23 46 67.5 69.5t106.5 23.5q168 0 168 -172q0 -22 -3 -48l-32 -308h-245l27 258q1 6 1 16q0 26 -12 40t-34 14q-29 0 -44 -19.5t-20 -63.5l-26 -245h-240z" />
    <glyph glyph-name="Ncommaaccent" unicode="&#x145;" horiz-adv-x="784" 
d="M129 700h255l138 -343l36 343h245l-74 -700h-255l-138 343l-36 -343h-245zM350 -177q40 0 56 10q11 6 16.5 14.5t8.5 22.5q-14 -20 -44 -20q-25 0 -39 14t-14 37q0 31 21.5 49.5t54.5 18.5q34 0 55.5 -18.5t21.5 -52.5l-1 -12q-5 -52 -40.5 -80t-99.5 -28z" />
    <glyph glyph-name="ncommaaccent" unicode="&#x146;" horiz-adv-x="688" 
d="M104 513h240l-8 -78q23 46 67.5 69.5t106.5 23.5q168 0 168 -172q0 -22 -3 -48l-32 -308h-245l27 258q1 6 1 16q0 26 -12 40t-34 14q-29 0 -44 -19.5t-20 -63.5l-26 -245h-240zM280 -177q40 0 56 10q11 6 16.5 14.5t8.5 22.5q-14 -20 -44 -20q-25 0 -39 14t-14 37
q0 31 21.5 49.5t54.5 18.5q34 0 55.5 -18.5t21.5 -52.5l-1 -12q-5 -52 -40.5 -80t-99.5 -28z" />
    <glyph glyph-name="Ncaron" unicode="&#x147;" horiz-adv-x="784" 
d="M356 831l77 68l68 -52l78 52l63 -68l-153 -97zM129 700h255l138 -343l36 343h245l-74 -700h-255l-138 343l-36 -343h-245z" />
    <glyph glyph-name="ncaron" unicode="&#x148;" horiz-adv-x="688" 
d="M263 681l86 66l62 -68l78 68l72 -66l-164 -137zM104 513h240l-8 -78q23 46 67.5 69.5t106.5 23.5q168 0 168 -172q0 -22 -3 -48l-32 -308h-245l27 258q1 6 1 16q0 26 -12 40t-34 14q-29 0 -44 -19.5t-20 -63.5l-26 -245h-240z" />
    <glyph glyph-name="napostrophe" unicode="&#x149;" horiz-adv-x="711" 
d="M83 518l5 40q6 -1 16 -1q32 0 48 19q11 14 14 38q-5 -6 -16 -10t-24 -4q-22 0 -34.5 14t-12.5 37q0 29 19.5 47.5t50.5 18.5q32 0 51 -19t19 -55q0 -9 -1 -14q-5 -52 -36 -82t-80 -30q-13 0 -19 1zM127 513h240l-8 -78q23 46 67.5 69.5t106.5 23.5q168 0 168 -172
q0 -22 -3 -48l-32 -308h-245l27 258q1 6 1 16q0 26 -12 40t-34 14q-29 0 -44 -19.5t-20 -63.5l-26 -245h-240z" />
    <glyph glyph-name="Eng" unicode="&#x14a;" horiz-adv-x="784" 
d="M425 -182.5q-22 3.5 -47 11.5l15 144q29 -3 42 -3q36 0 39 30l-138 343l-36 -343h-245l74 700h255l138 -343l36 343h245l-74 -700q-10 -99 -73 -142.5t-179 -43.5q-30 0 -52 3.5z" />
    <glyph glyph-name="eng" unicode="&#x14b;" horiz-adv-x="688" 
d="M678 356q0 -22 -3 -48l-32 -308q-10 -94 -75.5 -140t-181.5 -46q-24 0 -41.5 3.5t-37.5 11.5l14 135l15 -3t11 -1q47 0 51 40l27 258q1 6 1 16q0 26 -12 40t-34 14q-29 0 -44 -19.5t-20 -63.5l-26 -245h-240l54 513h240l-8 -78q23 46 67.5 69.5t106.5 23.5
q168 0 168 -172z" />
    <glyph glyph-name="Omacron" unicode="&#x14c;" horiz-adv-x="816" 
d="M293 860h410l-11 -106h-410zM210.5 20q-81.5 45 -123.5 120.5t-42 167.5q0 14 2 42q11 101 68 186.5t152.5 137t216.5 51.5q113 0 194.5 -45t124 -121t42.5 -168q0 -13 -2 -41q-11 -100 -68 -186t-153 -137.5t-217 -51.5q-113 0 -194.5 45zM510 227q34 24 51.5 62.5
t17.5 81.5q0 55 -30 90.5t-89 35.5q-47 0 -81 -24t-51 -62t-17 -82q0 -55 30 -90.5t88 -35.5q47 0 81 24z" />
    <glyph glyph-name="omacron" unicode="&#x14d;" horiz-adv-x="632" 
d="M195 690h388l-12 -112h-388zM163 14q-64 29 -98.5 82.5t-34.5 126.5q0 10 2 34q9 83 53.5 144t118.5 94t167 33q87 0 151.5 -28.5t99 -82t34.5 -126.5q0 -10 -2 -34q-9 -83 -54 -144.5t-119 -94.5t-167 -33q-87 0 -151 29zM392.5 203.5q22.5 24.5 22.5 65.5
q0 31 -17 48.5t-47 17.5q-35 0 -57.5 -24.5t-22.5 -65.5q0 -31 17 -48.5t47 -17.5q35 0 57.5 24.5z" />
    <glyph glyph-name="Obreve" unicode="&#x14e;" horiz-adv-x="816" 
d="M356 780q-50 40 -47 104h107q1 -29 23 -44.5t56 -15.5t59 15.5t32 44.5h107q-10 -64 -68.5 -104t-138.5 -40t-130 40zM210.5 20q-81.5 45 -123.5 120.5t-42 167.5q0 14 2 42q11 101 68 186.5t152.5 137t216.5 51.5q113 0 194.5 -45t124 -121t42.5 -168q0 -13 -2 -41
q-11 -100 -68 -186t-153 -137.5t-217 -51.5q-113 0 -194.5 45zM510 227q34 24 51.5 62.5t17.5 81.5q0 55 -30 90.5t-89 35.5q-47 0 -81 -24t-51 -62t-17 -82q0 -55 30 -90.5t88 -35.5q47 0 81 24z" />
    <glyph glyph-name="obreve" unicode="&#x14f;" horiz-adv-x="632" 
d="M235.5 591q-45.5 39 -40.5 111h153q-3 -44 36 -44t46 44h153q-10 -70 -67 -110t-143 -40q-92 0 -137.5 39zM163 14q-64 29 -98.5 82.5t-34.5 126.5q0 10 2 34q9 83 53.5 144t118.5 94t167 33q87 0 151.5 -28.5t99 -82t34.5 -126.5q0 -10 -2 -34q-9 -83 -54 -144.5
t-119 -94.5t-167 -33q-87 0 -151 29zM392.5 203.5q22.5 24.5 22.5 65.5q0 31 -17 48.5t-47 17.5q-35 0 -57.5 -24.5t-22.5 -65.5q0 -31 17 -48.5t47 -17.5q35 0 57.5 24.5z" />
    <glyph glyph-name="Ohungarumlaut" unicode="&#x150;" horiz-adv-x="816" 
d="M335 769l165 131l109 -42l-206 -117zM537 769l164 131l108 -45l-205 -115zM210.5 20q-81.5 45 -123.5 120.5t-42 167.5q0 14 2 42q11 101 68 186.5t152.5 137t216.5 51.5q113 0 194.5 -45t124 -121t42.5 -168q0 -13 -2 -41q-11 -100 -68 -186t-153 -137.5t-217 -51.5
q-113 0 -194.5 45zM510 227q34 24 51.5 62.5t17.5 81.5q0 55 -30 90.5t-89 35.5q-47 0 -81 -24t-51 -62t-17 -82q0 -55 30 -90.5t88 -35.5q47 0 81 24z" />
    <glyph glyph-name="ohungarumlaut" unicode="&#x151;" horiz-adv-x="632" 
d="M221 581l144 148l88 -67l-162 -118zM416 581l144 148l88 -67l-162 -118zM163 14q-64 29 -98.5 82.5t-34.5 126.5q0 10 2 34q9 83 53.5 144t118.5 94t167 33q87 0 151.5 -28.5t99 -82t34.5 -126.5q0 -10 -2 -34q-9 -83 -54 -144.5t-119 -94.5t-167 -33q-87 0 -151 29z
M392.5 203.5q22.5 24.5 22.5 65.5q0 31 -17 48.5t-47 17.5q-35 0 -57.5 -24.5t-22.5 -65.5q0 -31 17 -48.5t47 -17.5q35 0 57.5 24.5z" />
    <glyph glyph-name="OE" unicode="&#x152;" horiz-adv-x="923" 
d="M761 517l-8 -83h166l-19 -173h-166l-8 -78h166l-19 -183h-495q-104 0 -179.5 41.5t-114.5 112.5t-39 156q0 14 2 40q10 94 62.5 174t141.5 128t201 48h495l-20 -183h-166zM474 207l30 286h-44q-47 0 -80.5 -23t-51 -60.5t-17.5 -79.5q0 -54 30 -88.5t89 -34.5h44z" />
    <glyph glyph-name="oe" unicode="&#x153;" horiz-adv-x="1014" 
d="M1024 203h-376q-1 -30 18.5 -46.5t53.5 -16.5q28 0 44.5 5.5t21.5 18.5h230q-23 -84 -107 -131.5t-206 -47.5q-123 0 -196 46q-81 -46 -193 -46q-87 0 -151 29t-98.5 82.5t-34.5 126.5q0 10 2 34q9 83 53.5 144t118.5 94t167 33q113 0 186 -47q82 47 198 47
q85 0 149.5 -27t100 -77t35.5 -116q0 -17 -1 -25q-5 -44 -15 -80zM803 323q3 34 -13 52t-50 18q-32 0 -53 -18.5t-26 -51.5h142zM392.5 203.5q22.5 24.5 22.5 65.5q0 31 -17 48.5t-47 17.5q-35 0 -57.5 -24.5t-22.5 -65.5q0 -31 17 -48.5t47 -17.5q35 0 57.5 24.5z" />
    <glyph glyph-name="Racute" unicode="&#x154;" horiz-adv-x="734" 
d="M344 725l-30 92l245 83l30 -92zM710 311.5q-32 -54.5 -83 -91.5l77 -220h-292l-54 163h-31l-17 -163h-255l74 700h378q71 0 126.5 -30.5t86.5 -85t31 -122.5q0 -9 -2 -31q-7 -65 -39 -119.5zM347 353h61q34 0 58 25.5t24 62.5q0 30 -18 49t-47 19h-62z" />
    <glyph glyph-name="racute" unicode="&#x155;" horiz-adv-x="491" 
d="M191 645l190 144l74 -95l-190 -144zM104 513h240l-13 -122q20 62 64.5 98t101.5 36q16 0 34 -3l-24 -227q-33 5 -52 5q-70 0 -105.5 -36t-44.5 -117l-15 -147h-240z" />
    <glyph glyph-name="Rcommaaccent" unicode="&#x156;" horiz-adv-x="734" 
d="M710 311.5q-32 -54.5 -83 -91.5l77 -220h-292l-54 163h-31l-17 -163h-255l74 700h378q71 0 126.5 -30.5t86.5 -85t31 -122.5q0 -9 -2 -31q-7 -65 -39 -119.5zM347 353h61q34 0 58 25.5t24 62.5q0 30 -18 49t-47 19h-62zM419.5 -49.5q21.5 -18.5 21.5 -52.5l-1 -12
q-5 -52 -40.5 -80t-99.5 -28l4 45q40 0 56 10q11 6 16.5 14.5t8.5 22.5q-14 -20 -44 -20q-25 0 -39 14t-14 37q0 31 21.5 49.5t54.5 18.5q34 0 55.5 -18.5z" />
    <glyph glyph-name="rcommaaccent" unicode="&#x157;" horiz-adv-x="491" 
d="M104 513h240l-13 -122q20 62 64.5 98t101.5 36q16 0 34 -3l-24 -227q-33 5 -52 5q-70 0 -105.5 -36t-44.5 -117l-15 -147h-240zM105 -177q40 0 56 10q11 6 16.5 14.5t8.5 22.5q-14 -20 -44 -20q-25 0 -39 14t-14 37q0 31 21.5 49.5t54.5 18.5q34 0 55.5 -18.5t21.5 -52.5
l-1 -12q-5 -52 -40.5 -80t-99.5 -28z" />
    <glyph glyph-name="Rcaron" unicode="&#x158;" horiz-adv-x="734" 
d="M443 734l-133 97l77 68l68 -52l78 52l63 -68zM710 311.5q-32 -54.5 -83 -91.5l77 -220h-292l-54 163h-31l-17 -163h-255l74 700h378q71 0 126.5 -30.5t86.5 -85t31 -122.5q0 -9 -2 -31q-7 -65 -39 -119.5zM347 353h61q34 0 58 25.5t24 62.5q0 30 -18 49t-47 19h-62z" />
    <glyph glyph-name="rcaron" unicode="&#x159;" horiz-adv-x="491" 
d="M179 681l86 66l62 -68l78 68l72 -66l-164 -137zM104 513h240l-13 -122q20 62 64.5 98t101.5 36q16 0 34 -3l-24 -227q-33 5 -52 5q-70 0 -105.5 -36t-44.5 -117l-15 -147h-240z" />
    <glyph glyph-name="Sacute" unicode="&#x15a;" 
d="M258 817l245 83l30 -92l-245 -83zM108.5 35q-76.5 60 -76.5 165q0 9 2 29h255l-1 -12q0 -28 15.5 -44t42.5 -16q23 0 36 11t13 31q0 14 -10.5 23t-31.5 17l-145 54q-138 52 -138 178q0 16 1 25q11 106 96.5 167.5t226.5 61.5q131 0 207 -53.5t76 -148.5q0 -17 -1 -25
h-255q1 5 1 13q0 24 -12 36.5t-34 12.5q-21 0 -34 -10.5t-13 -28.5q0 -12 11 -21t41 -21l136 -53q72 -29 105 -73t33 -105q0 -8 -2 -28q-8 -76 -51 -131t-115 -84.5t-166 -29.5q-136 0 -212.5 60z" />
    <glyph glyph-name="sacute" unicode="&#x15b;" horiz-adv-x="583" 
d="M223 645l190 144l74 -95l-190 -144zM99.5 24q-69.5 39 -69.5 110q0 11 1 16h238q-2 -16 9 -24.5t33 -8.5q37 0 37 24q0 9 -7.5 14t-24.5 9l-113 24q-70 14 -107.5 51t-37.5 93q0 12 1 18q9 86 82 132t196 46q262 0 262 -139q0 -11 -1 -17h-237q4 31 -35 31q-33 0 -33 -22
q0 -10 9 -16.5t31 -11.5l117 -29q69 -17 103 -48t34 -84q0 -65 -36.5 -111.5t-102 -71t-149.5 -24.5q-130 0 -199.5 39z" />
    <glyph glyph-name="Scircumflex" unicode="&#x15c;" 
d="M537 795l-78 -68l-67 52l-79 -52l-62 68l153 97zM108.5 35q-76.5 60 -76.5 165q0 9 2 29h255l-1 -12q0 -28 15.5 -44t42.5 -16q23 0 36 11t13 31q0 14 -10.5 23t-31.5 17l-145 54q-138 52 -138 178q0 16 1 25q11 106 96.5 167.5t226.5 61.5q131 0 207 -53.5t76 -148.5
q0 -17 -1 -25h-255q1 5 1 13q0 24 -12 36.5t-34 12.5q-21 0 -34 -10.5t-13 -28.5q0 -12 11 -21t41 -21l136 -53q72 -29 105 -73t33 -105q0 -8 -2 -28q-8 -76 -51 -131t-115 -84.5t-166 -29.5q-136 0 -212.5 60z" />
    <glyph glyph-name="scircumflex" unicode="&#x15d;" horiz-adv-x="583" 
d="M503 610l-86 -66l-63 68l-77 -68l-72 66l164 137zM99.5 24q-69.5 39 -69.5 110q0 11 1 16h238q-2 -16 9 -24.5t33 -8.5q37 0 37 24q0 9 -7.5 14t-24.5 9l-113 24q-70 14 -107.5 51t-37.5 93q0 12 1 18q9 86 82 132t196 46q262 0 262 -139q0 -11 -1 -17h-237q4 31 -35 31
q-33 0 -33 -22q0 -10 9 -16.5t31 -11.5l117 -29q69 -17 103 -48t34 -84q0 -65 -36.5 -111.5t-102 -71t-149.5 -24.5q-130 0 -199.5 39z" />
    <glyph glyph-name="Scedilla" unicode="&#x15e;" 
d="M616.5 108q-38.5 -60 -108.5 -94.5t-162 -37.5l-3 -35q14 12 45 12q35 0 53.5 -19.5t18.5 -47.5q0 -35 -30.5 -62t-82.5 -27q-45 0 -73.5 20.5t-27.5 49.5h80q1 -6 7.5 -10.5t15.5 -4.5q14 0 22.5 9t8.5 24q0 11 -6 17t-17 6q-17 0 -24 -12h-74l9 82q-111 11 -173.5 69.5
t-62.5 151.5q0 10 2 30h255l-1 -12q0 -28 15.5 -44t42.5 -16q23 0 36 11t13 31q0 14 -10.5 23t-31.5 17l-145 54q-138 52 -138 178q0 16 1 25q11 106 96.5 167.5t226.5 61.5q131 0 207 -53.5t76 -148.5q0 -17 -1 -25h-255q1 5 1 13q0 24 -12 36.5t-34 12.5q-21 0 -34 -10.5
t-13 -28.5q0 -12 11 -21t41 -21l136 -53q72 -29 105 -73t33 -105q0 -80 -38.5 -140z" />
    <glyph glyph-name="scedilla" unicode="&#x15f;" horiz-adv-x="583" 
d="M519 48.5q-68 -54.5 -181 -62.5l-5 -45q14 12 45 12q35 0 53.5 -19.5t18.5 -47.5q0 -35 -30.5 -62t-82.5 -27q-45 0 -73.5 20.5t-27.5 49.5h80q1 -6 7.5 -10.5t15.5 -4.5q14 0 22.5 9t8.5 24q0 11 -6 17t-17 6q-17 0 -24 -12h-74l10 90q-111 7 -170 45t-59 103q0 11 1 16
h238q-2 -16 9 -24.5t33 -8.5q37 0 37 24q0 9 -7.5 14t-24.5 9l-113 24q-70 14 -107.5 51t-37.5 93q0 12 1 18q9 86 82 132t196 46q262 0 262 -139q0 -11 -1 -17h-237q4 31 -35 31q-33 0 -33 -22q0 -10 9 -16.5t31 -11.5l117 -29q69 -17 103 -48t34 -84q0 -89 -68 -143.5z
" />
    <glyph glyph-name="Scaron" unicode="&#x160;" 
d="M254 831l77 68l68 -52l78 52l63 -68l-153 -97zM108.5 35q-76.5 60 -76.5 165q0 9 2 29h255l-1 -12q0 -28 15.5 -44t42.5 -16q23 0 36 11t13 31q0 14 -10.5 23t-31.5 17l-145 54q-138 52 -138 178q0 16 1 25q11 106 96.5 167.5t226.5 61.5q131 0 207 -53.5t76 -148.5
q0 -17 -1 -25h-255q1 5 1 13q0 24 -12 36.5t-34 12.5q-21 0 -34 -10.5t-13 -28.5q0 -12 11 -21t41 -21l136 -53q72 -29 105 -73t33 -105q0 -8 -2 -28q-8 -76 -51 -131t-115 -84.5t-166 -29.5q-136 0 -212.5 60z" />
    <glyph glyph-name="scaron" unicode="&#x161;" horiz-adv-x="583" 
d="M211 681l86 66l62 -68l78 68l72 -66l-164 -137zM99.5 24q-69.5 39 -69.5 110q0 11 1 16h238q-2 -16 9 -24.5t33 -8.5q37 0 37 24q0 9 -7.5 14t-24.5 9l-113 24q-70 14 -107.5 51t-37.5 93q0 12 1 18q9 86 82 132t196 46q262 0 262 -139q0 -11 -1 -17h-237q4 31 -35 31
q-33 0 -33 -22q0 -10 9 -16.5t31 -11.5l117 -29q69 -17 103 -48t34 -84q0 -65 -36.5 -111.5t-102 -71t-149.5 -24.5q-130 0 -199.5 39z" />
    <glyph glyph-name="uni0162" unicode="&#x162;" horiz-adv-x="603" 
d="M341 0l-6 -59q14 12 45 12q35 0 53.5 -19.5t18.5 -47.5q0 -35 -30.5 -62t-82.5 -27q-45 0 -73.5 20.5t-27.5 49.5h80q1 -6 7.5 -10.5t15.5 -4.5q14 0 22.5 9t8.5 24q0 11 -6 17t-17 6q-17 0 -24 -12h-74l11 104h-88l51 485h-169l23 215h593l-23 -215h-169l-51 -485h-88z
" />
    <glyph glyph-name="uni0163" unicode="&#x163;" horiz-adv-x="450" 
d="M405.5 -66.5q18.5 -19.5 18.5 -47.5q0 -35 -30.5 -62t-82.5 -27q-45 0 -73.5 20.5t-27.5 49.5h80q1 -6 7.5 -10.5t15.5 -4.5q14 0 22.5 9t8.5 24q0 11 -6 17t-17 6q-17 0 -24 -12h-74l10 96q-63 10 -99 47t-36 113q0 12 2 38l15 143h-70l19 180h70l15 147h240l-15 -147
h115l-19 -180h-115l-10 -95l-1 -11q0 -30 18 -42.5t43 -12.5q19 0 48 3l-18 -175q-66 -11 -123 -12l-5 -47q14 12 45 12q35 0 53.5 -19.5z" />
    <glyph glyph-name="Tcaron" unicode="&#x164;" horiz-adv-x="603" 
d="M246 831l77 68l68 -52l78 52l63 -68l-153 -97zM225 485h-169l23 215h593l-23 -215h-169l-51 -485h-255z" />
    <glyph glyph-name="tcaron" unicode="&#x165;" horiz-adv-x="470" 
d="M539 706q19 -19 19 -55q0 -9 -1 -14q-5 -52 -36 -82t-80 -30q-13 0 -19 1l4 40q6 -1 16 -1q33 0 48 19q13 16 14 38q-5 -6 -15.5 -10t-23.5 -4q-21 0 -34.5 14t-13.5 36q0 30 19.5 48.5t51.5 18.5t51 -19zM374 513h115l-19 -180h-115l-10 -95l-1 -11q0 -30 18 -42.5
t43 -12.5q19 0 48 3l-18 -175q-68 -12 -144 -12q-88 0 -140.5 35.5t-52.5 128.5q0 12 2 38l15 143h-70l19 180h70l15 147h240z" />
    <glyph glyph-name="Tbar" unicode="&#x166;" horiz-adv-x="603" 
d="M480 485l-10 -95h100l-11 -102h-100l-30 -288h-255l30 288h-100l11 102h100l10 95h-169l23 215h593l-23 -215h-169z" />
    <glyph glyph-name="tbar" unicode="&#x167;" horiz-adv-x="465" 
d="M370 333l-5 -45h100l-6 -55h-100q-2 -33 16 -47t45 -14q20 0 48 3l-18 -175q-68 -12 -144 -12q-88 0 -140.5 35.5t-52.5 128.5q0 12 2 38l4 43h-85l6 55h85l5 45h-70l19 180h70l15 147h240l-15 -147h115l-19 -180h-115z" />
    <glyph glyph-name="Utilde" unicode="&#x168;" horiz-adv-x="726" 
d="M492.5 740q-18.5 6 -35 13t-21.5 9q-24 11 -40.5 17t-29.5 6q-23 0 -43 -11.5t-46 -35.5l-49 79q45 48 76 62.5t56 14.5q19 0 40.5 -7.5t51.5 -21.5q26 -12 42 -17.5t29 -5.5q22 0 40.5 7t60.5 35l43 -82q-37 -41 -74 -54.5t-64 -13.5q-18 0 -36.5 6zM199 8.5
q-68 28.5 -104 82t-36 126.5q0 9 2 31l48 452h255l-46 -436q-3 -31 15 -51t50 -20q33 0 55.5 20.5t25.5 50.5l46 436h255l-48 -452q-8 -81 -54.5 -141.5t-124 -93.5t-177.5 -33q-94 0 -162 28.5z" />
    <glyph glyph-name="utilde" unicode="&#x169;" horiz-adv-x="683" 
d="M439.5 552q-17.5 7 -37.5 20q-16 10 -28.5 15.5t-28.5 5.5q-47 0 -89 -33l-26 92q58 57 115 57q25 0 42.5 -7t37.5 -20q16 -11 28.5 -16t27.5 -5q48 0 90 33l26 -92q-58 -57 -115 -57q-25 0 -42.5 7zM64 156q0 24 3 49l32 308h245l-27 -258q-1 -6 -1 -16q0 -54 45 -54
q24 0 39.5 17.5t20.5 60.5l26 250h240l-54 -513h-240l8 78q-23 -43 -66.5 -68t-103.5 -25q-167 0 -167 171z" />
    <glyph glyph-name="Umacron" unicode="&#x16a;" horiz-adv-x="726" 
d="M248 860h410l-11 -106h-410zM199 8.5q-68 28.5 -104 82t-36 126.5q0 9 2 31l48 452h255l-46 -436q-3 -31 15 -51t50 -20q33 0 55.5 20.5t25.5 50.5l46 436h255l-48 -452q-8 -81 -54.5 -141.5t-124 -93.5t-177.5 -33q-94 0 -162 28.5z" />
    <glyph glyph-name="umacron" unicode="&#x16b;" horiz-adv-x="683" 
d="M223 690h388l-12 -112h-388zM64 156q0 24 3 49l32 308h245l-27 -258q-1 -6 -1 -16q0 -54 45 -54q24 0 39.5 17.5t20.5 60.5l26 250h240l-54 -513h-240l8 78q-23 -43 -66.5 -68t-103.5 -25q-167 0 -167 171z" />
    <glyph glyph-name="Ubreve" unicode="&#x16c;" horiz-adv-x="726" 
d="M311 780q-50 40 -47 104h107q1 -29 23 -44.5t56 -15.5t59 15.5t32 44.5h107q-10 -64 -68.5 -104t-138.5 -40t-130 40zM199 8.5q-68 28.5 -104 82t-36 126.5q0 9 2 31l48 452h255l-46 -436q-3 -31 15 -51t50 -20q33 0 55.5 20.5t25.5 50.5l46 436h255l-48 -452
q-8 -81 -54.5 -141.5t-124 -93.5t-177.5 -33q-94 0 -162 28.5z" />
    <glyph glyph-name="ubreve" unicode="&#x16d;" horiz-adv-x="683" 
d="M263.5 591q-45.5 39 -40.5 111h153q-3 -44 36 -44t46 44h153q-10 -70 -67 -110t-143 -40q-92 0 -137.5 39zM64 156q0 24 3 49l32 308h245l-27 -258q-1 -6 -1 -16q0 -54 45 -54q24 0 39.5 17.5t20.5 60.5l26 250h240l-54 -513h-240l8 78q-23 -43 -66.5 -68t-103.5 -25
q-167 0 -167 171z" />
    <glyph glyph-name="Uring" unicode="&#x16e;" horiz-adv-x="726" 
d="M363.5 722q-28.5 27 -28.5 66q0 30 17 55.5t45 41t61 15.5q44 0 72.5 -26.5t28.5 -65.5q0 -30 -17 -56t-45 -41.5t-61 -15.5q-44 0 -72.5 27zM475.5 770q13.5 13 13.5 32q0 17 -10.5 27t-27.5 10q-19 0 -32.5 -13t-13.5 -33q0 -16 10.5 -26t27.5 -10q19 0 32.5 13z
M199 8.5q-68 28.5 -104 82t-36 126.5q0 9 2 31l48 452h255l-46 -436q-3 -31 15 -51t50 -20q33 0 55.5 20.5t25.5 50.5l46 436h255l-48 -452q-8 -81 -54.5 -141.5t-124 -93.5t-177.5 -33q-94 0 -162 28.5z" />
    <glyph glyph-name="uring" unicode="&#x16f;" horiz-adv-x="683" 
d="M324.5 565q-29.5 26 -29.5 68q0 53 36.5 86.5t91.5 33.5q47 0 76.5 -26t29.5 -68q0 -53 -36.5 -86.5t-91.5 -33.5q-47 0 -76.5 26zM440.5 614q13.5 15 13.5 39q0 18 -10 29t-27 11q-20 0 -33.5 -15t-13.5 -39q0 -18 10 -29t27 -11q20 0 33.5 15zM64 156q0 24 3 49l32 308
h245l-27 -258q-1 -6 -1 -16q0 -54 45 -54q24 0 39.5 17.5t20.5 60.5l26 250h240l-54 -513h-240l8 78q-23 -43 -66.5 -68t-103.5 -25q-167 0 -167 171z" />
    <glyph glyph-name="Uhungarumlaut" unicode="&#x170;" horiz-adv-x="726" 
d="M290 769l165 131l109 -42l-206 -117zM492 769l164 131l108 -45l-205 -115zM199 8.5q-68 28.5 -104 82t-36 126.5q0 9 2 31l48 452h255l-46 -436q-3 -31 15 -51t50 -20q33 0 55.5 20.5t25.5 50.5l46 436h255l-48 -452q-8 -81 -54.5 -141.5t-124 -93.5t-177.5 -33
q-94 0 -162 28.5z" />
    <glyph glyph-name="uhungarumlaut" unicode="&#x171;" horiz-adv-x="683" 
d="M249 581l144 148l88 -67l-162 -118zM444 581l144 148l88 -67l-162 -118zM64 156q0 24 3 49l32 308h245l-27 -258q-1 -6 -1 -16q0 -54 45 -54q24 0 39.5 17.5t20.5 60.5l26 250h240l-54 -513h-240l8 78q-23 -43 -66.5 -68t-103.5 -25q-167 0 -167 171z" />
    <glyph glyph-name="Uogonek" unicode="&#x172;" horiz-adv-x="726" 
d="M765 700l-48 -452q-10 -91 -66 -155t-148 -93h4h-4q-32 -10 -81 -17q-27 -15 -27 -41q0 -16 11 -26t31 -10q23 0 47 12l-9 -93q-33 -12 -59.5 -16t-66.5 -4q-75 0 -111 27.5t-31 69.5q6 57 52 88q-96 21 -148 80t-52 146q0 10 2 32l48 452h255l-46 -436q-3 -31 15 -51
t50 -20q33 0 55.5 20.5t25.5 50.5l46 436h255z" />
    <glyph glyph-name="uogonek" unicode="&#x173;" horiz-adv-x="683" 
d="M546 -18q-25 -18 -25 -40q0 -16 11 -26t31 -10q23 0 47 12l-9 -93q-33 -12 -59.5 -16t-66.5 -4q-75 0 -111 27.5t-31 69.5q3 33 19 56.5t50 41.5h-9l8 78q-23 -43 -66.5 -68t-103.5 -25q-167 0 -167 171q0 24 3 49l32 308h245l-27 -258q-1 -6 -1 -16q0 -54 45 -54
q24 0 39.5 17.5t20.5 60.5l26 250h240l-54 -513q-62 0 -87 -18z" />
    <glyph glyph-name="Wcircumflex" unicode="&#x174;" horiz-adv-x="1144" 
d="M799 795l-78 -68l-67 52l-79 -52l-62 68l153 97zM64 700h270l66 -378l143 378h206l63 -378l146 378h270l-331 -700h-231l-60 322l-128 -322h-231z" />
    <glyph glyph-name="wcircumflex" unicode="&#x175;" horiz-adv-x="910" 
d="M668 610l-86 -66l-63 68l-77 -68l-72 66l164 137zM54 513h239l40 -259l71 259h210l17 -259l94 259h239l-231 -513h-226l-29 216l-75 -216h-226z" />
    <glyph glyph-name="Ycircumflex" unicode="&#x176;" horiz-adv-x="714" 
d="M368 727l-62 68l153 97l133 -97l-78 -68l-67 52zM808 700l-421 -700h-287l135 230l-171 470h300l50 -223l109 223h285z" />
    <glyph glyph-name="ycircumflex" unicode="&#x177;" horiz-adv-x="683" 
d="M549 610l-86 -66l-63 68l-77 -68l-72 66l164 137zM687 513l-49 -463q-6 -64 -34.5 -114t-68.5 -78q-44 -32 -92.5 -45t-128.5 -13q-81 0 -129 12.5t-81 40.5q-29 25 -46.5 63t-13.5 75h240q-2 -16 11 -26.5t37 -10.5q29 0 44 13.5t17 36.5l12 107q-23 -41 -66.5 -64.5
t-101.5 -23.5q-89 0 -129 43.5t-40 126.5q0 25 3 50l28 270h240l-26 -247q-1 -6 -1 -17q0 -53 46 -53q28 0 44 19.5t20 64.5l25 233h240z" />
    <glyph glyph-name="Ydieresis" unicode="&#x178;" horiz-adv-x="714" 
d="M265 747q-24 23 -24 56q0 39 31 68t72 29q37 0 59.5 -22.5t22.5 -56.5q0 -38 -29 -67.5t-72 -29.5q-36 0 -60 23zM496.5 747q-22.5 23 -22.5 55q0 40 29 69t71 29q37 0 60.5 -23t23.5 -57q0 -38 -30.5 -67t-72.5 -29q-36 0 -58.5 23zM808 700l-421 -700h-287l135 230
l-171 470h300l50 -223l109 223h285z" />
    <glyph glyph-name="Zacute" unicode="&#x179;" horiz-adv-x="698" 
d="M300 817l245 83l30 -92l-245 -83zM354 497h-259l22 203h650l-355 -497h274l-21 -203h-665z" />
    <glyph glyph-name="zacute" unicode="&#x17a;" horiz-adv-x="552" 
d="M211 645l190 144l74 -95l-190 -144zM244 318h-180l21 195h516l-228 -318h174l-20 -195h-522z" />
    <glyph glyph-name="Zdotaccent" unicode="&#x17b;" horiz-adv-x="698" 
d="M377.5 759.5q-20.5 20.5 -20.5 50.5q0 37 26.5 63.5t63.5 26.5q33 0 53 -20t20 -51q0 -37 -26 -63.5t-64 -26.5q-32 0 -52.5 20.5zM354 497h-259l22 203h650l-355 -497h274l-21 -203h-665z" />
    <glyph glyph-name="zdotaccent" unicode="&#x17c;" horiz-adv-x="552" 
d="M255.5 577q-31.5 31 -31.5 76q0 35 19 65.5t50.5 49t67.5 18.5q48 0 79.5 -31t31.5 -76q0 -35 -19 -65.5t-50.5 -49t-67.5 -18.5q-48 0 -79.5 31zM244 318h-180l21 195h516l-228 -318h174l-20 -195h-522z" />
    <glyph glyph-name="Zcaron" unicode="&#x17d;" horiz-adv-x="698" 
d="M296 831l77 68l68 -52l78 52l63 -68l-153 -97zM354 497h-259l22 203h650l-355 -497h274l-21 -203h-665z" />
    <glyph glyph-name="zcaron" unicode="&#x17e;" horiz-adv-x="552" 
d="M199 681l86 66l62 -68l78 68l72 -66l-164 -137zM244 318h-180l21 195h516l-228 -318h174l-20 -195h-522z" />
    <glyph glyph-name="florin" unicode="&#x192;" horiz-adv-x="469" 
d="M447 543q-17 -13 -19 -30h93l-45 -160h-93l-99 -350q-22 -80 -60.5 -123t-88 -58t-116.5 -15q-76 0 -118 15l42 146q19 -5 43 -5t38.5 11t21.5 36l97 343h-69l45 160h70q21 96 94 141.5t171 45.5q75 0 117 -15l-40 -136q-11 4 -20 5.5t-24 1.5q-23 0 -40 -13z" />
    <glyph glyph-name="AEacute" unicode="&#x1fc;" horiz-adv-x="973" 
d="M628 725l-30 92l245 83l30 -92zM768 517l-8 -83h209l-19 -173h-209l-8 -78h209l-19 -183h-459l8 77h-172l-38 -77h-262l420 700h577l-20 -183h-209zM490 252l29 267l-133 -267h104z" />
    <glyph glyph-name="aeacute" unicode="&#x1fd;" horiz-adv-x="1022" 
d="M569 550l-74 95l190 144l74 -95zM1042 244q-3 -17 -9 -36h-376q-4 -33 14 -53t52 -20q27 0 47 12t26 31h230q-24 -91 -109 -144.5t-206 -53.5q-66 0 -117.5 19t-85.5 54q-47 -40 -107.5 -56.5t-143.5 -16.5q-67 0 -119 18t-80.5 50.5t-28.5 75.5l1 14q4 46 24 78.5
t57 55.5q40 25 100 35.5t143 10.5h74l4 32q2 20 -8.5 34t-39.5 14q-30 0 -46.5 -15t-18.5 -41h-245q17 89 99.5 140t225.5 51q120 0 179 -54q79 54 186 54q84 0 148.5 -28t100 -79.5t35.5 -117.5q0 -16 -1 -25q-2 -22 -5 -39zM811 334q0 30 -16.5 47t-45.5 17
q-32 0 -54.5 -22.5t-26.5 -57.5h142q1 6 1 16zM420 210h-56q-31 0 -48 -13t-17 -35q0 -19 13 -29t36 -10q28 0 47 16t22 45z" />
    <glyph glyph-name="Oslashacute" unicode="&#x1fe;" horiz-adv-x="816" 
d="M386 725l-30 92l245 83l30 -92zM801 563q44 -77 44 -171q0 -28 -2 -42q-11 -100 -68 -186t-153 -137.5t-217 -51.5q-61 0 -114 14l-42 -75l-69 32l39 70q-84 42 -129 119.5t-45 172.5q0 28 2 42q11 101 68 186.5t152.5 137t216.5 51.5q64 0 122 -16l44 79l65 -31l-41 -74
q83 -43 127 -120zM342 237l144 258q-16 2 -26 2q-47 0 -81 -24t-51 -62.5t-17 -82.5q0 -59 31 -91zM510 226.5q34 23.5 51.5 61.5t17.5 81q0 54 -29 91l-141 -256q6 -1 20 -1q47 0 81 23.5z" />
    <glyph glyph-name="oslashacute" unicode="&#x1ff;" horiz-adv-x="632" 
d="M323 550l-74 95l190 144l74 -95zM618.5 422q37.5 -55 37.5 -131q0 -10 -2 -34q-9 -83 -54 -144.5t-119 -94.5t-167 -33q-46 0 -88 9l-33 -61l-47 22l30 54q-70 26 -108 81.5t-38 132.5q0 10 2 34q9 83 53.5 144t118.5 94t167 33q49 0 91 -9l35 64l47 -22l-32 -57
q69 -27 106.5 -82zM284 202l74 133h-7q-35 0 -57 -24t-22 -64q0 -28 12 -45zM392.5 203q22.5 24 22.5 65q0 25 -11 42l-73 -131h4q35 0 57.5 24z" />
    <glyph glyph-name="Scommaaccent" unicode="&#x218;" 
d="M108.5 35q-76.5 60 -76.5 165q0 9 2 29h255l-1 -12q0 -28 15.5 -44t42.5 -16q23 0 36 11t13 31q0 14 -10.5 23t-31.5 17l-145 54q-138 52 -138 178q0 16 1 25q11 106 96.5 167.5t226.5 61.5q131 0 207 -53.5t76 -148.5q0 -17 -1 -25h-255q1 5 1 13q0 24 -12 36.5
t-34 12.5q-21 0 -34 -10.5t-13 -28.5q0 -12 11 -21t41 -21l136 -53q72 -29 105 -73t33 -105q0 -8 -2 -28q-8 -76 -51 -131t-115 -84.5t-166 -29.5q-136 0 -212.5 60zM248 -177q40 0 56 10q11 6 16.5 14.5t8.5 22.5q-14 -20 -44 -20q-25 0 -39 14t-14 37q0 31 21.5 49.5
t54.5 18.5q34 0 55.5 -18.5t21.5 -52.5l-1 -12q-5 -52 -40.5 -80t-99.5 -28z" />
    <glyph glyph-name="scommaaccent" unicode="&#x219;" horiz-adv-x="583" 
d="M99.5 24q-69.5 39 -69.5 110q0 11 1 16h238q-2 -16 9 -24.5t33 -8.5q37 0 37 24q0 9 -7.5 14t-24.5 9l-113 24q-70 14 -107.5 51t-37.5 93q0 12 1 18q9 86 82 132t196 46q262 0 262 -139q0 -11 -1 -17h-237q4 31 -35 31q-33 0 -33 -22q0 -10 9 -16.5t31 -11.5l117 -29
q69 -17 103 -48t34 -84q0 -65 -36.5 -111.5t-102 -71t-149.5 -24.5q-130 0 -199.5 39zM238 -177q40 0 56 10q11 6 16.5 14.5t8.5 22.5q-14 -20 -44 -20q-25 0 -39 14t-14 37q0 31 21.5 49.5t54.5 18.5q34 0 55.5 -18.5t21.5 -52.5l-1 -12q-5 -52 -40.5 -80t-99.5 -28z" />
    <glyph glyph-name="uni021A" unicode="&#x21a;" horiz-adv-x="603" 
d="M225 485h-169l23 215h593l-23 -215h-169l-51 -485h-255zM240 -177q40 0 56 10q11 6 16.5 14.5t8.5 22.5q-14 -20 -44 -20q-25 0 -39 14t-14 37q0 31 21.5 49.5t54.5 18.5q34 0 55.5 -18.5t21.5 -52.5l-1 -12q-5 -52 -40.5 -80t-99.5 -28z" />
    <glyph glyph-name="uni021B" unicode="&#x21b;" horiz-adv-x="450" 
d="M355 333l-10 -95l-1 -11q0 -30 18 -42.5t43 -12.5q19 0 48 3l-18 -175q-68 -12 -144 -12q-88 0 -140.5 35.5t-52.5 128.5q0 12 2 38l15 143h-70l19 180h70l15 147h240l-15 -147h115l-19 -180h-115zM327.5 -49.5q21.5 -18.5 21.5 -52.5l-1 -12q-5 -52 -40.5 -80t-99.5 -28
l4 45q40 0 56 10q11 6 16.5 14.5t8.5 22.5q-14 -20 -44 -20q-25 0 -39 14t-14 37q0 31 21.5 49.5t54.5 18.5q34 0 55.5 -18.5z" />
    <glyph glyph-name="uni0237" unicode="&#x237;" horiz-adv-x="340" 
d="M16 -183.5q-18 2.5 -47 8.5l16 158q17 -3 28 -3q17 0 27 10t12 33l52 490h240l-51 -483q-12 -109 -71 -162.5t-161 -53.5q-27 0 -45 2.5z" />
    <glyph glyph-name="uni0243" unicode="&#x243;" horiz-adv-x="699" 
d="M630.5 53.5q-64.5 -50.5 -163.5 -53.5l-11 -100h-102l11 100h-68l-11 -100h-102l11 100h-140l71 679h140l11 101h102l-11 -101h68l11 101h102l-11 -101q89 -4 139.5 -45.5t50.5 -109.5q0 -69 -43 -119.5t-111 -61.5q62 -7 96.5 -43.5t34.5 -93.5q0 -13 -1 -20
q-9 -82 -73.5 -132.5zM366 531l-13 -118h42q33 0 53.5 18t20.5 48q0 24 -16 38t-45 14h-42zM370 167q35 0 56.5 17.5t21.5 46.5q0 24 -17.5 37.5t-48.5 13.5h-42l-12 -115h42z" />
    <glyph glyph-name="uni02BC" unicode="&#x2bc;" horiz-adv-x="317" 
d="M312 643q31 -36 31 -100q0 -9 -2 -29q-12 -110 -72 -163.5t-161 -53.5q-11 0 -18.5 1t-12.5 2l7 72q22 -3 39 -3q55 0 88 30q28 25 38 65q-8 -8 -21.5 -12.5t-29.5 -4.5q-47 0 -73.5 30t-26.5 74q0 33 17 62.5t47 47.5t66 18q53 0 84 -36z" />
    <glyph glyph-name="circumflex" unicode="&#x2c6;" horiz-adv-x="600" 
d="M453 610l-86 -66l-63 68l-77 -68l-72 66l164 137z" />
    <glyph glyph-name="caron" unicode="&#x2c7;" horiz-adv-x="600" 
d="M163 681l86 66l62 -68l78 68l72 -66l-164 -137z" />
    <glyph glyph-name="breve" unicode="&#x2d8;" horiz-adv-x="600" 
d="M183.5 591q-45.5 39 -40.5 111h153q-3 -44 36 -44t46 44h153q-10 -70 -67 -110t-143 -40q-92 0 -137.5 39z" />
    <glyph glyph-name="dotaccent" unicode="&#x2d9;" horiz-adv-x="600" 
d="M277.5 576q-31.5 31 -31.5 76q0 35 19 65.5t50.5 49t67.5 18.5q48 0 79.5 -31t31.5 -76q0 -35 -19 -65.5t-50.5 -49t-67.5 -18.5q-48 0 -79.5 31z" />
    <glyph glyph-name="ring" unicode="&#x2da;" horiz-adv-x="600" 
d="M135.5 565q-29.5 26 -29.5 68q0 53 36.5 86.5t91.5 33.5q47 0 76.5 -26t29.5 -68q0 -53 -36.5 -86.5t-91.5 -33.5q-47 0 -76.5 26zM251.5 614q13.5 15 13.5 39q0 18 -10 29t-27 11q-20 0 -33.5 -15t-13.5 -39q0 -18 10 -29t27 -11q20 0 33.5 15z" />
    <glyph glyph-name="ogonek" unicode="&#x2db;" horiz-adv-x="600" 
d="M61 -167.5q-36 27.5 -31 69.5q3 33 19 56.5t50 41.5h231q-62 0 -87 -18t-25 -40q0 -16 11 -26t31 -10q23 0 47 12l-9 -93q-33 -12 -59.5 -16t-66.5 -4q-75 0 -111 27.5z" />
    <glyph glyph-name="tilde" unicode="&#x2dc;" horiz-adv-x="600" 
d="M338.5 552q-17.5 7 -37.5 20q-16 10 -28.5 15.5t-28.5 5.5q-47 0 -89 -33l-26 92q58 57 115 57q25 0 42.5 -7t37.5 -20q16 -11 28.5 -16t27.5 -5q48 0 90 33l26 -92q-58 -57 -115 -57q-25 0 -42.5 7z" />
    <glyph glyph-name="hungarumlaut" unicode="&#x2dd;" horiz-adv-x="600" 
d="M105 581l144 148l88 -67l-162 -118zM300 581l144 148l88 -67l-162 -118z" />
    <glyph glyph-name="gravecomb" unicode="&#x300;" horiz-adv-x="0" 
d="M-290 689l94 95l160 -144l-94 -95z" />
    <glyph glyph-name="acutecomb" unicode="&#x301;" horiz-adv-x="0" 
d="M-222 645l190 144l74 -95l-190 -144z" />
    <glyph glyph-name="uni0302" unicode="&#x302;" horiz-adv-x="0" 
d="M-27 610l-86 -66l-63 68l-77 -68l-72 66l164 137z" />
    <glyph glyph-name="tildecomb" unicode="&#x303;" horiz-adv-x="0" 
d="M-147.5 552q-17.5 7 -37.5 20q-16 10 -28.5 15.5t-28.5 5.5q-47 0 -89 -33l-26 92q58 57 115 57q25 0 42.5 -7t37.5 -20q16 -11 28.5 -16t27.5 -5q48 0 90 33l26 -92q-58 -57 -115 -57q-25 0 -42.5 7z" />
    <glyph glyph-name="uni0304" unicode="&#x304;" horiz-adv-x="0" 
d="M-355 690h388l-12 -112h-388z" />
    <glyph glyph-name="uni0306" unicode="&#x306;" horiz-adv-x="0" 
d="M-344.5 591q-45.5 39 -40.5 111h153q-3 -44 36 -44t46 44h153q-10 -70 -67 -110t-143 -40q-92 0 -137.5 39z" />
    <glyph glyph-name="uni0307" unicode="&#x307;" horiz-adv-x="0" 
d="M-178.5 576q-31.5 31 -31.5 76q0 35 19 65.5t50.5 49t67.5 18.5q48 0 79.5 -31t31.5 -76q0 -35 -19 -65.5t-50.5 -49t-67.5 -18.5q-48 0 -79.5 31z" />
    <glyph glyph-name="uni0308" unicode="&#x308;" horiz-adv-x="0" 
d="M-411 572.5q-27 26.5 -27 65.5q0 30 16 56t43 42t59 16q42 0 69 -26.5t27 -65.5q0 -30 -16 -56t-43 -42t-59 -16q-42 0 -69 26.5zM-159 572.5q-27 26.5 -27 65.5q0 30 16 56t43 42t59 16q42 0 69 -26.5t27 -65.5q0 -30 -16 -56t-43 -42t-59 -16q-42 0 -69 26.5z" />
    <glyph glyph-name="uni030A" unicode="&#x30a;" horiz-adv-x="0" 
d="M-173.5 565q-29.5 26 -29.5 68q0 53 36.5 86.5t91.5 33.5q47 0 76.5 -26t29.5 -68q0 -53 -36.5 -86.5t-91.5 -33.5q-47 0 -76.5 26zM-57.5 614q13.5 15 13.5 39q0 18 -10 29t-27 11q-20 0 -33.5 -15t-13.5 -39q0 -18 10 -29t27 -11q20 0 33.5 15z" />
    <glyph glyph-name="uni030B" unicode="&#x30b;" horiz-adv-x="0" 
d="M-372 581l144 148l88 -67l-162 -118zM-177 581l144 148l88 -67l-162 -118z" />
    <glyph glyph-name="uni030C" unicode="&#x30c;" horiz-adv-x="0" 
d="M-317 681l86 66l62 -68l78 68l72 -66l-164 -137z" />
    <glyph glyph-name="uni0312" unicode="&#x312;" horiz-adv-x="0" 
d="M-351 683q-20 0 -31.5 -1.5t-19.5 -7.5q-9 -7 -14.5 -14.5t-8.5 -19.5q2 8 13 13.5t26 5.5q25 0 37.5 -13t12.5 -34l-1 -10q-2 -22 -20 -39t-48 -17q-33 0 -51.5 19.5t-18.5 50.5l1 11q10 97 127 97z" />
    <glyph glyph-name="uni0326" unicode="&#x326;" horiz-adv-x="0" 
d="M-189 -177q40 0 56 10q11 6 16.5 14.5t8.5 22.5q-14 -20 -44 -20q-25 0 -39 14t-14 37q0 31 21.5 49.5t54.5 18.5q34 0 55.5 -18.5t21.5 -52.5l-1 -12q-5 -52 -40.5 -80t-99.5 -28z" />
    <glyph glyph-name="uni0327" unicode="&#x327;" horiz-adv-x="0" 
d="M-252.5 -182.5q-28.5 20.5 -27.5 49.5h80q1 -6 7.5 -10.5t15.5 -4.5q14 0 22.5 9t8.5 24q0 11 -6 17t-17 6q-17 0 -24 -12h-74l12 113h79l-7 -68q14 12 45 12q35 0 53.5 -19.5t18.5 -47.5q0 -35 -30.5 -62t-82.5 -27q-45 0 -73.5 20.5z" />
    <glyph glyph-name="uni0328" unicode="&#x328;" horiz-adv-x="0" 
d="M-233 -167.5q-36 27.5 -31 69.5q3 33 19 56.5t50 41.5h231q-63 0 -87.5 -18t-24.5 -40q0 -16 11 -26t31 -10q23 0 47 12l-9 -93q-33 -12 -59.5 -16t-66.5 -4q-75 0 -111 27.5z" />
    <glyph glyph-name="uni0394" unicode="&#x394;" horiz-adv-x="827" 
d="M340 700h286l201 -700h-827zM510 175l-50 306l-117 -306h167z" />
    <glyph glyph-name="uni03A9" unicode="&#x3a9;" horiz-adv-x="702" 
d="M39 175h120l1 10q-52 35 -80 87.5t-28 114.5q0 84 47.5 159t133 120.5t193.5 45.5q96 0 166.5 -36t107.5 -97t37 -135q0 -11 -2 -31q-7 -70 -48 -130t-108 -98l-1 -10h121l-18 -175h-315l31 292q36 8 59 37.5t23 69.5q0 37 -20 60t-57 23q-43 0 -70 -31t-27 -77
q0 -31 17 -52.5t45 -28.5l-31 -293h-315z" />
    <glyph glyph-name="uni03BC" unicode="&#x3bc;" horiz-adv-x="688" 
d="M692 513l-54 -513h-240l8 78q-18 -35 -48 -56.5t-68 -21.5l-19 -180h-240l73 693h245l-27 -258q-1 -6 -1 -16q0 -54 45 -54q24 0 39.5 17.5t20.5 60.5l26 250h240z" />
    <glyph glyph-name="pi" unicode="&#x3c0;" horiz-adv-x="720" 
d="M138 363h-50l16 150h620l-16 -150h-50l-38 -363h-240l38 363h-40l-38 -363h-240z" />
    <glyph glyph-name="uni0401" unicode="&#x401;" horiz-adv-x="579" 
d="M203 747q-24 23 -24 56q0 39 31 68t72 29q37 0 59.5 -22.5t22.5 -56.5q0 -38 -29 -67.5t-72 -29.5q-36 0 -60 23zM434.5 747q-22.5 23 -22.5 55q0 40 29 69t71 29q37 0 60.5 -23t23.5 -57q0 -38 -30.5 -67t-72.5 -29q-36 0 -58.5 23zM129 700h474l-20 -183h-219l-8 -83
h219l-19 -173h-219l-8 -78h219l-19 -183h-474z" />
    <glyph glyph-name="uni0402" unicode="&#x402;" horiz-adv-x="803" 
d="M822 248q0 -14 -2 -42q-11 -107 -79.5 -163t-185.5 -56q-28 0 -49 2.5t-43 9.5l18 170q10 -5 27 -5q21 0 37 14.5t16 42.5q0 20 -13 32t-37 12q-16 0 -28 -3t-28 -11l-26 -251h-255l51 485h-169l23 215h593l-23 -215h-169l-7 -62q57 20 139 20q210 0 210 -195z" />
    <glyph glyph-name="uni0403" unicode="&#x403;" horiz-adv-x="509" 
d="M232 817l245 83l30 -92l-245 -83zM578 700l-23 -215h-194l-51 -485h-255l74 700h449z" />
    <glyph glyph-name="uni0404" unicode="&#x404;" horiz-adv-x="815" 
d="M563 293h273q-15 -93 -73 -165.5t-148 -112.5t-198 -40q-113 0 -197.5 40.5t-130 114.5t-45.5 173q0 23 3 47q11 111 71 196t158 132t220 47q108 0 189.5 -40t124.5 -112.5t38 -165.5h-273q-4 43 -36 67t-85 24q-44 0 -78.5 -24t-52.5 -66h157l-12 -116h-157
q9 -42 38.5 -66t73.5 -24q113 0 140 91z" />
    <glyph glyph-name="uni0405" unicode="&#x405;" 
d="M108.5 35q-76.5 60 -76.5 165q0 9 2 29h255l-1 -12q0 -28 15.5 -44t42.5 -16q23 0 36 11t13 31q0 14 -10.5 23t-31.5 17l-145 54q-138 52 -138 178q0 16 1 25q11 106 96.5 167.5t226.5 61.5q131 0 207 -53.5t76 -148.5q0 -17 -1 -25h-255q1 5 1 13q0 24 -12 36.5
t-34 12.5q-21 0 -34 -10.5t-13 -28.5q0 -12 11 -21t41 -21l136 -53q72 -29 105 -73t33 -105q0 -8 -2 -28q-8 -76 -51 -131t-115 -84.5t-166 -29.5q-136 0 -212.5 60z" />
    <glyph glyph-name="uni0406" unicode="&#x406;" horiz-adv-x="365" 
d="M129 700h255l-74 -700h-255z" />
    <glyph glyph-name="uni0407" unicode="&#x407;" horiz-adv-x="365" 
d="M110.5 746.5q-21.5 20.5 -21.5 50.5q0 36 27.5 62.5t65.5 26.5q35 0 55.5 -20.5t20.5 -52.5q0 -35 -27 -61t-66 -26q-33 0 -54.5 20.5zM299.5 746.5q-20.5 20.5 -20.5 49.5q0 37 26 63.5t65 26.5q34 0 56 -21t22 -53q0 -34 -28.5 -60t-66.5 -26q-33 0 -53.5 20.5z
M129 700h255l-74 -700h-255z" />
    <glyph glyph-name="uni0408" unicode="&#x408;" horiz-adv-x="662" 
d="M101.5 48q-70.5 68 -70.5 180q0 12 2 40h255q-1 -6 -1 -18q0 -60 49 -60q56 0 63 68l47 442h255l-44 -412q-31 -308 -343 -308q-142 0 -212.5 68z" />
    <glyph glyph-name="uni0409" unicode="&#x409;" horiz-adv-x="1100" 
d="M1015.5 422.5q46.5 -26.5 73 -72.5t26.5 -101q0 -66 -35 -123t-93 -91.5t-122 -34.5h-404l52 491h-107l-19 -176q-17 -163 -90 -244t-187 -81h-96l21 205h25q30 0 48 32t23 78l42 395h621l-27 -251h145q57 0 103.5 -26.5zM829.5 178q20.5 17 24.5 48q3 28 -14.5 44.5
t-51.5 16.5h-38l-13 -126h38q34 0 54.5 17z" />
    <glyph glyph-name="uni040A" unicode="&#x40a;" horiz-adv-x="1097" 
d="M1012.5 422.5q46.5 -26.5 73 -72.5t26.5 -101q0 -66 -35 -123t-93 -91.5t-122 -34.5h-404l26 243h-148l-26 -243h-255l74 700h255l-26 -248h148l26 248h255l-27 -251h149q57 0 103.5 -26.5zM826.5 178q20.5 17 24.5 48q3 28 -14.5 44.5t-51.5 16.5h-42l-13 -126h42
q34 0 54.5 17z" />
    <glyph glyph-name="uni040B" unicode="&#x40b;" horiz-adv-x="847" 
d="M724.5 399.5q47.5 -24.5 73.5 -69.5t26 -104q0 -18 -1 -27l-21 -199h-255l15 146q1 9 1 26q0 78 -63 78q-26 0 -46 -11l-25 -239h-255l51 485h-169l23 215h593l-23 -215h-169l-9 -84q54 23 144 23q62 0 109.5 -24.5z" />
    <glyph glyph-name="uni040C" unicode="&#x40c;" horiz-adv-x="773" 
d="M406 725l-30 92l245 83l30 -92zM480 0l-139 296l-31 -296h-255l74 700h255l-31 -288h14q14 0 24.5 7.5t25.5 29.5l118 169q37 53 79.5 70t105.5 17h83l-23 -218h-35q-35 0 -65 -52l-26 -41q-11 -19 -35 -33t-43 -14h-8l200 -347h-288z" />
    <glyph glyph-name="uni040E" unicode="&#x40e;" horiz-adv-x="714" 
d="M313 780q-50 40 -47 104h107q1 -29 23 -44.5t56 -15.5t59 15.5t32 44.5h107q-10 -64 -68.5 -104t-138.5 -40t-130 40zM808 700l-421 -700h-287l135 230l-171 470h300l50 -223l109 223h285z" />
    <glyph glyph-name="uni040F" unicode="&#x40f;" horiz-adv-x="763" 
d="M708 0h-214l-13 -120h-230l13 120h-209l74 700h255l-52 -491h143l52 491h255z" />
    <glyph glyph-name="uni0410" unicode="&#x410;" horiz-adv-x="767" 
d="M494 77h-205l-27 -77h-262l314 700h287l166 -700h-262zM467 252l-33 232l-83 -232h116z" />
    <glyph glyph-name="uni0411" unicode="&#x411;" horiz-adv-x="694" 
d="M129 700h568l-20 -183h-313l-8 -83h169q83 0 133.5 -51t50.5 -133q0 -17 -1 -25q-7 -64 -39 -115t-82 -80.5t-108 -29.5h-424zM369 162q36 0 57.5 19t21.5 53q0 26 -17 39.5t-49 13.5h-42l-13 -125h42z" />
    <glyph glyph-name="uni0412" unicode="&#x412;" horiz-adv-x="699" 
d="M670.5 310q34.5 -37 34.5 -95q0 -64 -31 -113t-87.5 -75.5t-129.5 -26.5h-402l74 700h396q96 0 150.5 -43t54.5 -118q0 -70 -43.5 -122t-111.5 -63q61 -7 95.5 -44zM368 550l-13 -126h42q33 0 53 20t20 53q0 25 -15.5 39t-44.5 14h-42zM426.5 186.5q21.5 19.5 21.5 51.5
q0 25 -17 39.5t-48 14.5h-42l-13 -125h42q35 0 56.5 19.5z" />
    <glyph glyph-name="uni0413" unicode="&#x413;" horiz-adv-x="509" 
d="M578 700l-23 -215h-194l-51 -485h-255l74 700h449z" />
    <glyph glyph-name="uni0414" unicode="&#x414;" horiz-adv-x="762" 
d="M763 199l-34 -320h-230l13 121h-272l-13 -120h-230l34 319h43q31 0 48 28t21 72l43 401h575l-53 -501h55zM376 319q-8 -70 -35 -120h137l31 300h-115z" />
    <glyph glyph-name="uni0415" unicode="&#x415;" horiz-adv-x="579" 
d="M129 700h474l-20 -183h-219l-8 -83h219l-19 -173h-219l-8 -78h219l-19 -183h-474z" />
    <glyph glyph-name="uni0416" unicode="&#x416;" horiz-adv-x="1181" 
d="M888 0l-139 296l-31 -296h-255l31 296l-201 -296h-288l272 347h-8q-19 0 -39.5 14t-28.5 33l-16 41q-22 52 -55 52h-35l23 218h83q63 0 102 -17t65 -70l82 -169q11 -22 19.5 -29.5t22.5 -7.5h14l31 288h255l-31 -288h14q14 0 24.5 7.5t25.5 29.5l118 169q37 53 79.5 70
t105.5 17h83l-23 -218h-35q-35 0 -65 -52l-26 -41q-11 -19 -35 -33t-43 -14h-8l200 -347h-288z" />
    <glyph glyph-name="uni0417" unicode="&#x417;" horiz-adv-x="672" 
d="M304 220q0 -24 10.5 -36t36.5 -12q30 0 42.5 18.5t12.5 43.5q0 26 -15 38t-46 12h-95l17 163h93q42 0 59.5 14t20.5 44q6 46 -42 46q-31 0 -42.5 -15.5t-14.5 -47.5h-270q10 96 84 164t259 68q133 0 215.5 -41t82.5 -138q0 -16 -1 -24q-4 -39 -27 -73.5t-55.5 -56.5
t-63.5 -28q49 -13 80.5 -53.5t31.5 -99.5q0 -76 -48.5 -127t-125 -75t-161.5 -24q-172 0 -240.5 59t-68.5 158q0 13 2 41h270q-1 -6 -1 -18z" />
    <glyph glyph-name="uni0418" unicode="&#x418;" horiz-adv-x="770" 
d="M315 48l-5 -48h-255l74 700h255l-36 -340l181 292l5 48h255l-74 -700h-255l36 340z" />
    <glyph glyph-name="uni0419" unicode="&#x419;" horiz-adv-x="770" 
d="M338 768.5q-50 38.5 -48 101.5h107q2 -27 24 -41.5t56 -14.5t58.5 14.5t31.5 41.5h107q-10 -63 -68 -101.5t-138 -38.5t-130 38.5zM315 48l-5 -48h-255l74 700h255l-36 -340l181 292l5 48h255l-74 -700h-255l36 340z" />
    <glyph glyph-name="uni041A" unicode="&#x41a;" horiz-adv-x="773" 
d="M480 0l-139 296l-31 -296h-255l74 700h255l-31 -288h14q14 0 24.5 7.5t25.5 29.5l118 169q37 53 79.5 70t105.5 17h83l-23 -218h-35q-35 0 -65 -52l-26 -41q-11 -19 -35 -33t-43 -14h-8l200 -347h-288z" />
    <glyph glyph-name="uni041B" unicode="&#x41b;" horiz-adv-x="775" 
d="M60 195q30 0 48 32t23 78l42 395h621l-74 -700h-255l52 491h-111l-19 -176q-17 -163 -90 -244t-187 -81h-96l21 205h25z" />
    <glyph glyph-name="uni041C" unicode="&#x41c;" horiz-adv-x="1006" 
d="M129 700h342l67 -418l155 418h332l-74 -700h-245l46 435l-149 -435h-187l-70 435l-46 -435h-245z" />
    <glyph glyph-name="uni041D" unicode="&#x41d;" horiz-adv-x="768" 
d="M129 700h255l-26 -248h148l26 248h255l-74 -700h-255l26 243h-148l-26 -243h-255z" />
    <glyph glyph-name="uni041E" unicode="&#x41e;" horiz-adv-x="816" 
d="M210.5 20q-81.5 45 -123.5 120.5t-42 167.5q0 14 2 42q11 101 68 186.5t152.5 137t216.5 51.5q113 0 194.5 -45t124 -121t42.5 -168q0 -13 -2 -41q-11 -100 -68 -186t-153 -137.5t-217 -51.5q-113 0 -194.5 45zM510 227q34 24 51.5 62.5t17.5 81.5q0 55 -30 90.5
t-89 35.5q-47 0 -81 -24t-51 -62t-17 -82q0 -55 30 -90.5t88 -35.5q47 0 81 24z" />
    <glyph glyph-name="uni041F" unicode="&#x41f;" horiz-adv-x="768" 
d="M310 0h-255l74 700h658l-74 -700h-255l52 491h-148z" />
    <glyph glyph-name="uni0420" unicode="&#x420;" horiz-adv-x="709" 
d="M633.5 669.5q55.5 -30.5 86.5 -85t31 -122.5q0 -9 -2 -31q-8 -76 -49.5 -137t-107.5 -96t-142 -35h-123l-17 -163h-255l74 700h378q71 0 126.5 -30.5zM466 378.5q24 25.5 24 62.5q0 30 -18 49t-47 19h-62l-16 -156h61q34 0 58 25.5z" />
    <glyph glyph-name="uni0421" unicode="&#x421;" horiz-adv-x="815" 
d="M218 17q-82 42 -127.5 117.5t-45.5 172.5q0 28 2 43q11 108 71.5 193.5t156.5 133.5t211 48q175 0 271 -79.5t92 -228.5h-266q-4 37 -36 59t-84 22q-69 0 -110.5 -46.5t-41.5 -125.5q0 -59 31.5 -91.5t89.5 -32.5q52 0 89 22t48 59h266q-27 -149 -140 -228.5t-288 -79.5
q-107 0 -189 42z" />
    <glyph glyph-name="uni0422" unicode="&#x422;" horiz-adv-x="603" 
d="M225 485h-169l23 215h593l-23 -215h-169l-51 -485h-255z" />
    <glyph glyph-name="uni0423" unicode="&#x423;" horiz-adv-x="714" 
d="M808 700l-421 -700h-287l135 230l-171 470h300l50 -223l109 223h285z" />
    <glyph glyph-name="uni0424" unicode="&#x424;" horiz-adv-x="891" 
d="M862.5 208q-42.5 -68 -115.5 -111.5t-169 -48.5l-5 -48h-255l5 48q-88 4 -149.5 42.5t-92.5 98.5t-31 130q0 12 2 34q8 76 50 142.5t115.5 109.5t169.5 47l5 48h255l-5 -48q88 -4 149.5 -41.5t92.5 -97t31 -129.5q0 -9 -2 -31q-8 -77 -50.5 -145zM311.5 267.5
q18.5 -23.5 53.5 -23.5h10l22 212h-10q-44 0 -69 -34t-25 -90q0 -41 18.5 -64.5zM641.5 273.5q24.5 29.5 29.5 79.5q1 7 1 19q0 39 -19 61.5t-53 22.5h-10l-22 -212h10q39 0 63.5 29.5z" />
    <glyph glyph-name="uni0425" unicode="&#x425;" horiz-adv-x="742" 
d="M260 350l-181 350h276l71 -175l109 175h276l-255 -350l181 -350h-276l-72 175l-108 -175h-276z" />
    <glyph glyph-name="uni0426" unicode="&#x426;" horiz-adv-x="783" 
d="M784 199l-34 -320h-230l13 121h-478l74 700h255l-52 -491h143l52 491h255l-53 -501h55z" />
    <glyph glyph-name="uni0427" unicode="&#x427;" horiz-adv-x="708" 
d="M420 209q-54 -23 -143 -23q-62 0 -109.5 24.5t-74 69.5t-26.5 104q0 18 1 27l31 289h255l-25 -236q-1 -9 -1 -26q0 -78 63 -78q26 0 46 11l35 329h255l-74 -700h-255z" />
    <glyph glyph-name="uni0428" unicode="&#x428;" horiz-adv-x="1093" 
d="M129 700h255l-52 -491h108l52 491h257l-52 -491h108l52 491h255l-74 -700h-983z" />
    <glyph glyph-name="uni0429" unicode="&#x429;" horiz-adv-x="1113" 
d="M1114 199l-34 -320h-230l13 121h-808l74 700h255l-52 -491h108l52 491h257l-52 -491h108l52 491h255l-53 -501h55z" />
    <glyph glyph-name="uni042A" unicode="&#x42a;" horiz-adv-x="779" 
d="M694.5 422.5q46.5 -26.5 73 -72.5t26.5 -101q0 -66 -35 -123t-93 -91.5t-122 -34.5h-404l50 480h-135l24 220h390l-27 -251h149q57 0 103.5 -26.5zM508.5 178q20.5 17 24.5 48q3 28 -14.5 44.5t-51.5 16.5h-42l-13 -126h42q34 0 54.5 17z" />
    <glyph glyph-name="uni042B" unicode="&#x42b;" horiz-adv-x="1039" 
d="M129 700h255l-27 -251h149q57 0 103.5 -26.5t73 -72.5t26.5 -101q0 -66 -35 -123t-93 -91.5t-122 -34.5h-404zM803 700h255l-74 -700h-255zM369 161q34 0 54.5 17t24.5 48q3 28 -14.5 44.5t-51.5 16.5h-42l-13 -126h42z" />
    <glyph glyph-name="uni042C" unicode="&#x42c;" horiz-adv-x="694" 
d="M129 700h255l-27 -251h149q57 0 103.5 -26.5t73 -72.5t26.5 -101q0 -66 -35 -123t-93 -91.5t-122 -34.5h-404zM369 161q34 0 54.5 17t24.5 48q3 28 -14.5 44.5t-51.5 16.5h-42l-13 -126h42z" />
    <glyph glyph-name="uni042D" unicode="&#x42d;" horiz-adv-x="815" 
d="M668.5 684.5q84.5 -40.5 130 -115.5t45.5 -174q0 -30 -2 -45q-12 -111 -72 -196t-158 -132t-220 -47q-108 0 -189.5 40t-124 112.5t-37.5 165.5h273q3 -45 33.5 -68t86.5 -23q44 0 79 24t53 66h-157l12 116h157q-9 42 -39 66t-74 24q-53 0 -89 -23.5t-50 -67.5h-273
q15 93 73 165.5t147.5 112.5t197.5 40q113 0 197.5 -40.5z" />
    <glyph glyph-name="uni042E" unicode="&#x42e;" horiz-adv-x="1146" 
d="M1008.5 680q81.5 -45 124 -121t42.5 -168q0 -13 -2 -41q-11 -100 -68 -186t-153 -137.5t-217 -51.5q-98 0 -172.5 34t-120 93t-60.5 134h-47l-25 -236h-255l74 700h255l-25 -231h49q49 114 155.5 185t250.5 71q113 0 194.5 -45zM840 227q34 24 51.5 62.5t17.5 81.5
q0 55 -30 90.5t-89 35.5q-47 0 -81 -24t-51 -62t-17 -82q0 -55 30 -90.5t88 -35.5q47 0 81 24z" />
    <glyph glyph-name="uni042F" unicode="&#x42f;" horiz-adv-x="734" 
d="M753 700l-74 -700h-255l17 163h-31l-88 -163h-292l123 220q-38 32 -59 78.5t-21 102.5q0 10 2 30q8 76 50 137.5t107.5 96.5t142.5 35h378zM461 353l16 156h-62q-33 0 -56.5 -25t-23.5 -62q0 -30 18 -49.5t47 -19.5h61z" />
    <glyph glyph-name="uni0430" unicode="&#x430;" horiz-adv-x="687" 
d="M93 47.5q-53 62.5 -53 165.5q0 28 2 43q8 79 43 141t89 96.5t119 34.5q61 0 99 -26.5t51 -68.5l8 80h240l-54 -513h-240l8 79q-20 -41 -64 -67.5t-105 -26.5q-90 0 -143 62.5zM411.5 200q23.5 27 23.5 68q0 32 -17 51.5t-46 19.5q-34 0 -57.5 -27t-23.5 -68
q0 -32 17 -51.5t46 -19.5q34 0 57.5 27z" />
    <glyph glyph-name="uni0431" unicode="&#x431;" horiz-adv-x="666" 
d="M189.5 18.5q-66.5 38.5 -101.5 108t-35 160.5q0 24 3 51q12 117 68.5 198t148.5 122.5t210 41.5h170l-19 -177h-159q-100 0 -152 -36t-60 -112q68 114 208 114q109 0 163.5 -55t54.5 -150q0 -12 -2 -38q-7 -70 -49.5 -131t-117 -98t-172.5 -37q-92 0 -158.5 38.5z
M425.5 191q23.5 27 23.5 68q0 32 -17 51.5t-46 19.5q-34 0 -57.5 -27t-23.5 -68q0 -32 17 -51.5t46 -19.5q34 0 57.5 27z" />
    <glyph glyph-name="uni0432" unicode="&#x432;" horiz-adv-x="652" 
d="M507 513q60 0 95 -21t47.5 -51t9.5 -59q-6 -54 -49.5 -84.5t-112.5 -34.5q75 -4 110 -30t35 -77q0 -12 -1 -19q-3 -30 -24.5 -61.5t-68 -53.5t-118.5 -22h-380l54 513h403zM392 318.5q16 13.5 16 37.5q0 18 -13 28.5t-38 10.5h-25l-10 -90h24q30 0 46 13.5zM303 119h24
q29 0 45 13.5t16 36.5q0 18 -13 28.5t-38 10.5h-25z" />
    <glyph glyph-name="uni0433" unicode="&#x433;" horiz-adv-x="466" 
d="M472 297h-151l-31 -297h-240l54 513h391z" />
    <glyph glyph-name="uni0434" unicode="&#x434;" horiz-adv-x="774" 
d="M775 199l-34 -320h-230l13 121h-284l-13 -120h-230l34 319h46v2q38 0 60 25t25 59l24 228h566l-33 -314h56zM389 287q-7 -66 -48 -111h135l19 180h-99z" />
    <glyph glyph-name="uni0435" unicode="&#x435;" horiz-adv-x="632" 
d="M642 203h-376q-1 -30 18.5 -46.5t53.5 -16.5q28 0 44.5 5.5t21.5 18.5h230q-23 -84 -107 -131.5t-206 -47.5q-139 0 -215 59t-76 174q0 12 2 38q13 130 105 201t236 71q85 0 149.5 -27t100 -77t35.5 -116q0 -17 -1 -25q-5 -44 -15 -80zM421 323q3 34 -13 52t-50 18
q-32 0 -53 -18.5t-26 -51.5h142z" />
    <glyph glyph-name="uni0436" unicode="&#x436;" horiz-adv-x="1066" 
d="M1046 0h-271l-100 206l-22 -206h-240l22 206l-144 -206h-271l197 258h-9q-33 0 -45 21l-17 32q-8 15 -17.5 21t-23.5 6h-10l18 180h55q54 0 84 -6t47.5 -21.5t32.5 -45.5l51 -106q9 -20 18 -28t27 -8h17l22 210h240l-22 -210h17q18 0 28.5 8t24.5 28l73 106
q21 30 41.5 45.5t51.5 21.5t85 6h55l-18 -180h-10q-14 0 -25 -6t-22 -21l-25 -32q-16 -21 -49 -21h-9z" />
    <glyph glyph-name="uni0437" unicode="&#x437;" horiz-adv-x="610" 
d="M271.5 135q10.5 -12 37.5 -12q21 0 32.5 13.5t11.5 36.5q0 20 -14 28.5t-43 8.5h-61l12 110h59q32 0 49.5 14t17.5 37q0 15 -8.5 22t-23.5 7q-47 0 -50 -41h-239q7 69 77 119t234 50q114 0 185 -32.5t71 -102.5q0 -64 -41 -94t-97 -35q52 -3 83.5 -28.5t31.5 -76.5
q0 -12 -1 -18q-6 -52 -49.5 -88.5t-109 -54.5t-135.5 -18q-279 0 -279 168q0 15 1 23h240q-2 -24 8.5 -36z" />
    <glyph glyph-name="uni0438" unicode="&#x438;" horiz-adv-x="693" 
d="M293 32l-3 -32h-240l54 513h240l-27 -259l135 216l5 43h240l-54 -513h-240l26 248z" />
    <glyph glyph-name="uni0439" unicode="&#x439;" horiz-adv-x="693" 
d="M260.5 574.5q-45.5 37.5 -40.5 106.5h153q-3 -44 36 -44t46 44h153q-10 -67 -67 -105.5t-143 -38.5q-92 0 -137.5 37.5zM293 32l-3 -32h-240l54 513h240l-27 -259l135 216l5 43h240l-54 -513h-240l26 248z" />
    <glyph glyph-name="uni043A" unicode="&#x43a;" horiz-adv-x="703" 
d="M683 0h-271l-100 206l-22 -206h-240l54 513h240l-22 -210h17q18 0 28.5 8t24.5 28l73 106q21 30 41.5 45.5t51.5 21.5t85 6h55l-18 -180h-10q-14 0 -25 -6t-22 -21l-25 -32q-16 -21 -49 -21h-9z" />
    <glyph glyph-name="uni043B" unicode="&#x43b;" horiz-adv-x="691" 
d="M58 177q20 0 30 18t13 53l28 265h566l-54 -513h-240l34 327h-86l-8 -75q-13 -126 -77.5 -193.5t-185.5 -67.5h-59l20 186h19z" />
    <glyph glyph-name="uni043C" unicode="&#x43c;" horiz-adv-x="980" 
d="M104 513h359l54 -286l115 286h352l-54 -513h-230l36 345l-144 -345h-195l-81 345l-36 -345h-230z" />
    <glyph glyph-name="uni043D" unicode="&#x43d;" horiz-adv-x="693" 
d="M104 513h240l-17 -163h113l17 163h240l-54 -513h-240l17 164h-113l-17 -164h-240z" />
    <glyph glyph-name="uni043E" unicode="&#x43e;" horiz-adv-x="632" 
d="M163 14q-64 29 -98.5 82.5t-34.5 126.5q0 10 2 34q9 83 53.5 144t118.5 94t167 33q87 0 151.5 -28.5t99 -82t34.5 -126.5q0 -10 -2 -34q-9 -83 -54 -144.5t-119 -94.5t-167 -33q-87 0 -151 29zM392.5 203.5q22.5 24.5 22.5 65.5q0 31 -17 48.5t-47 17.5
q-35 0 -57.5 -24.5t-22.5 -65.5q0 -31 17 -48.5t47 -17.5q35 0 57.5 24.5z" />
    <glyph glyph-name="uni043F" unicode="&#x43f;" horiz-adv-x="693" 
d="M403 0l34 327h-113l-34 -327h-240l54 513h593l-54 -513h-240z" />
    <glyph glyph-name="uni0440" unicode="&#x440;" horiz-adv-x="687" 
d="M608 499.5q44 -28.5 68.5 -80.5t24.5 -121q0 -14 -2 -42q-8 -80 -43 -141.5t-89 -95.5t-119 -34q-61 0 -100 28t-50 66l-27 -259h-240l73 693h240l-8 -80q20 40 64.5 67.5t104.5 27.5q59 0 103 -28.5zM426 199q24 28 24 69q0 32 -17 51.5t-46 19.5q-34 0 -57.5 -27
t-23.5 -68q0 -33 17.5 -53t45.5 -20q33 0 57 28z" />
    <glyph glyph-name="uni0441" unicode="&#x441;" horiz-adv-x="627" 
d="M163.5 14q-64.5 29 -99 82.5t-34.5 126.5q0 10 2 34q9 83 54 144t118.5 94t166.5 33q130 0 206 -61.5t76 -168.5h-240q-4 20 -18.5 28t-42.5 8q-37 0 -59 -23t-22 -66q0 -32 17 -48.5t48 -16.5q28 0 44.5 8t24.5 28h240q-22 -107 -111.5 -169t-219.5 -62q-86 0 -150.5 29
z" />
    <glyph glyph-name="uni0442" unicode="&#x442;" horiz-adv-x="560" 
d="M568 317h-135l-33 -317h-240l33 317h-135l21 196h510z" />
    <glyph glyph-name="uni0443" unicode="&#x443;" horiz-adv-x="683" 
d="M687 513l-49 -463q-6 -64 -34.5 -114t-68.5 -78q-44 -32 -92.5 -45t-128.5 -13q-81 0 -129 12.5t-81 40.5q-29 25 -46.5 63t-13.5 75h240q-2 -16 11 -26.5t37 -10.5q29 0 44 13.5t17 36.5l12 107q-23 -41 -66.5 -64.5t-101.5 -23.5q-89 0 -129 43.5t-40 126.5q0 25 3 50
l28 270h240l-26 -247q-1 -6 -1 -17q0 -53 46 -53q28 0 44 19.5t20 64.5l25 233h240z" />
    <glyph glyph-name="uni0444" unicode="&#x444;" horiz-adv-x="774" 
d="M753.5 130q-35.5 -58 -98.5 -95.5t-149 -45.5l-18 -169h-240l18 169q-76 8 -129 41t-80 84t-27 112q0 74 34.5 139t100.5 107.5t157 51.5l19 176h240l-19 -176q76 -8 129 -41t80 -84.5t27 -112.5q0 -10 -2 -30q-7 -68 -42.5 -126zM279.5 196.5q17.5 -18.5 46.5 -18.5h2
l16 156h-2q-35 0 -57.5 -25t-22.5 -64q0 -30 17.5 -48.5zM543.5 203.5q22.5 25.5 22.5 63.5q0 30 -17.5 48.5t-46.5 18.5h-2l-16 -156h2q35 0 57.5 25.5z" />
    <glyph glyph-name="uni0445" unicode="&#x445;" horiz-adv-x="685" 
d="M214 259l-152 254h278l44 -116l69 116h278l-206 -254l155 -259h-278l-47 121l-72 -121h-278z" />
    <glyph glyph-name="uni0446" unicode="&#x446;" horiz-adv-x="718" 
d="M719 199l-34 -320h-230l13 121h-418l54 513h240l-34 -327h113l34 327h240l-33 -314h55z" />
    <glyph glyph-name="uni0447" unicode="&#x447;" horiz-adv-x="642" 
d="M368 149q-60 -20 -116 -20q-99 0 -152 40t-53 117q0 16 1 25l21 202h245l-17 -164q-1 -5 -1 -15q0 -53 44 -53q27 0 43 10l23 222h240l-54 -513h-240z" />
    <glyph glyph-name="uni0448" unicode="&#x448;" horiz-adv-x="986" 
d="M716 186l34 327h240l-54 -513h-886l54 513h240l-34 -327h83l34 327h240l-34 -327h83z" />
    <glyph glyph-name="uni0449" unicode="&#x449;" horiz-adv-x="1011" 
d="M1012 199l-34 -320h-230l13 121h-711l54 513h240l-34 -327h83l34 327h240l-34 -327h83l34 327h240l-33 -314h55z" />
    <glyph glyph-name="uni044A" unicode="&#x44a;" horiz-adv-x="702" 
d="M662 315.5q50 -44.5 50 -113.5q0 -15 -1 -22q-4 -40 -30.5 -81.5t-82.5 -70t-143 -28.5h-325l35 333h-105l19 180h345l-16 -153h85q119 0 169 -44.5zM453 142.5q16 16.5 16 39.5q0 19 -12 31.5t-33 12.5h-30l-11 -100h29q25 0 41 16.5z" />
    <glyph glyph-name="uni044B" unicode="&#x44b;" horiz-adv-x="930" 
d="M344 513l-16 -153h85q119 0 169 -44.5t50 -113.5q0 -15 -1 -22q-4 -40 -30.5 -81.5t-82.5 -70t-143 -28.5h-325l54 513h240zM694 513h240l-54 -513h-240zM303 126h29q25 0 41 16.5t16 39.5q0 19 -12 31.5t-33 12.5h-30z" />
    <glyph glyph-name="uni044C" unicode="&#x44c;" horiz-adv-x="622" 
d="M344 513l-16 -153h85q119 0 169 -44.5t50 -113.5q0 -15 -1 -22q-4 -40 -30.5 -81.5t-82.5 -70t-143 -28.5h-325l54 513h240zM303 126h29q25 0 41 16.5t16 39.5q0 19 -12 31.5t-33 12.5h-30z" />
    <glyph glyph-name="uni044D" unicode="&#x44d;" horiz-adv-x="632" 
d="M36 297q24 107 112.5 171.5t223.5 64.5q94 0 158 -31.5t95 -86t31 -124.5q0 -11 -2 -35q-8 -77 -49.5 -139.5t-115 -99.5t-175.5 -37q-136 0 -210.5 62.5t-76.5 169.5h241q3 -33 19.5 -47.5t51.5 -14.5q32 0 52.5 16t25.5 48h-111l9 80h111q1 33 -15 51t-49 18
q-36 0 -56 -16t-30 -50h-240z" />
    <glyph glyph-name="uni044E" unicode="&#x44e;" horiz-adv-x="933" 
d="M823.5 499.5q64.5 -28.5 99 -82t34.5 -126.5q0 -10 -2 -34q-9 -83 -54 -144.5t-119 -94.5t-167 -33q-117 0 -191 51.5t-89 141.5h-26l-19 -178h-240l54 513h240l-18 -174h27q35 89 119 139t200 50q87 0 151.5 -28.5zM693.5 203.5q22.5 24.5 22.5 65.5q0 31 -17 48.5
t-47 17.5q-35 0 -57.5 -24.5t-22.5 -65.5q0 -31 17 -48.5t47 -17.5q35 0 57.5 24.5z" />
    <glyph glyph-name="uni044F" unicode="&#x44f;" horiz-adv-x="663" 
d="M149 156q-85 44 -85 144q0 17 1 25q5 51 37.5 94t83.5 68.5t110 25.5h371l-54 -513h-240l13 120h-3l-93 -120h-275zM400 258l12 114h-45q-24 0 -41 -19t-17 -45q0 -22 12.5 -36t33.5 -14h45z" />
    <glyph glyph-name="uni0451" unicode="&#x451;" horiz-adv-x="632" 
d="M178 572.5q-27 26.5 -27 65.5q0 30 16 56t43 42t59 16q42 0 69 -26.5t27 -65.5q0 -30 -16 -56t-43 -42t-59 -16q-42 0 -69 26.5zM430 572.5q-27 26.5 -27 65.5q0 30 16 56t43 42t59 16q42 0 69 -26.5t27 -65.5q0 -30 -16 -56t-43 -42t-59 -16q-42 0 -69 26.5zM642 203
h-376q-1 -30 18.5 -46.5t53.5 -16.5q28 0 44.5 5.5t21.5 18.5h230q-23 -84 -107 -131.5t-206 -47.5q-139 0 -215 59t-76 174q0 12 2 38q13 130 105 201t236 71q85 0 149.5 -27t100 -77t35.5 -116q0 -17 -1 -25q-5 -44 -15 -80zM421 323q3 34 -13 52t-50 18q-32 0 -53 -18.5
t-26 -51.5h142z" />
    <glyph glyph-name="uni0452" unicode="&#x452;" horiz-adv-x="688" 
d="M678 356q0 -22 -3 -48l-32 -308q-10 -94 -75.5 -140t-181.5 -46q-24 0 -41.5 3.5t-37.5 11.5l14 135l15 -3t11 -1q47 0 51 40l27 258q1 6 1 16q0 26 -12 40t-34 14q-29 0 -44 -19.5t-20 -63.5l-26 -245h-240l59 561h-40l9 87h40l6 52h240l-6 -52h128l-9 -87h-128
l-13 -126q23 46 67.5 69.5t106.5 23.5q168 0 168 -172z" />
    <glyph glyph-name="uni0453" unicode="&#x453;" horiz-adv-x="466" 
d="M187 645l190 144l74 -95l-190 -144zM472 297h-151l-31 -297h-240l54 513h391z" />
    <glyph glyph-name="uni0454" unicode="&#x454;" horiz-adv-x="632" 
d="M399 347q-17 16 -53 16q-34 0 -53.5 -18t-24.5 -51h111l-9 -80h-111q-1 -32 16.5 -48t49.5 -16q35 0 54.5 14.5t28.5 47.5h241q-23 -107 -111 -169.5t-224 -62.5q-94 0 -158 31.5t-95 86t-31 124.5q0 10 2 34q8 78 49.5 141t115 99.5t175.5 36.5q90 0 154 -29.5t97.5 -83
t34.5 -123.5h-240q-2 34 -19 50z" />
    <glyph glyph-name="uni0455" unicode="&#x455;" horiz-adv-x="583" 
d="M99.5 24q-69.5 39 -69.5 110q0 11 1 16h238q-2 -16 9 -24.5t33 -8.5q37 0 37 24q0 9 -7.5 14t-24.5 9l-113 24q-70 14 -107.5 51t-37.5 93q0 12 1 18q9 86 82 132t196 46q262 0 262 -139q0 -11 -1 -17h-237q4 31 -35 31q-33 0 -33 -22q0 -10 9 -16.5t31 -11.5l117 -29
q69 -17 103 -48t34 -84q0 -65 -36.5 -111.5t-102 -71t-149.5 -24.5q-130 0 -199.5 39z" />
    <glyph glyph-name="uni0456" unicode="&#x456;" horiz-adv-x="340" 
d="M146 560q-32 31 -32 76q0 35 19 65.5t50.5 49t67.5 18.5q48 0 79.5 -31t31.5 -76q0 -35 -18.5 -65.5t-50 -49t-67.5 -18.5q-48 0 -80 31zM104 513h240l-54 -513h-240z" />
    <glyph glyph-name="uni0457" unicode="&#x457;" horiz-adv-x="340" 
d="M75 580q-23 23 -23 56q0 40 29.5 69.5t69.5 29.5q36 0 59 -23.5t23 -57.5q0 -39 -29 -68t-71 -29q-35 0 -58 23zM265 579.5q-23 22.5 -23 56.5q0 40 29.5 69.5t70.5 29.5q36 0 59 -23.5t23 -57.5q0 -39 -30 -68t-70 -29q-36 0 -59 22.5zM104 513h240l-54 -513h-240z" />
    <glyph glyph-name="uni0458" unicode="&#x458;" horiz-adv-x="340" 
d="M146 560q-32 31 -32 76q0 35 19 65.5t50.5 49t67.5 18.5q48 0 79.5 -31t31.5 -76q0 -35 -18.5 -65.5t-50 -49t-67.5 -18.5q-48 0 -80 31zM16 -183.5q-18 2.5 -47 8.5l16 158q17 -3 28 -3q17 0 27 10t12 33l52 490h240l-51 -483q-12 -109 -71 -162.5t-161 -53.5
q-27 0 -45 2.5z" />
    <glyph glyph-name="uni0459" unicode="&#x459;" horiz-adv-x="973" 
d="M933 315.5q50 -44.5 50 -113.5q0 -15 -1 -22q-4 -40 -30.5 -81.5t-82.5 -70t-143 -28.5h-325l34 327h-86l-8 -75q-13 -126 -77.5 -193.5t-185.5 -67.5h-59l20 186h19q20 0 30 18t13 53l28 265h566l-16 -153h85q119 0 169 -44.5zM724 142.5q16 16.5 16 39.5q0 19 -12 31.5
t-33 12.5h-30l-11 -100h29q25 0 41 16.5z" />
    <glyph glyph-name="uni045A" unicode="&#x45a;" horiz-adv-x="974" 
d="M934 315.5q50 -44.5 50 -113.5q0 -15 -1 -22q-4 -40 -30.5 -81.5t-82.5 -70t-143 -28.5h-325l17 164h-112l-17 -164h-240l54 513h240l-17 -163h112l17 163h241l-16 -153h84q119 0 169 -44.5zM725 142.5q16 16.5 16 39.5q0 19 -12 31.5t-33 12.5h-29l-11 -100h28
q25 0 41 16.5z" />
    <glyph glyph-name="uni045B" unicode="&#x45b;" horiz-adv-x="688" 
d="M678 356q0 -22 -3 -48l-32 -308h-245l27 258q1 6 1 16q0 26 -12 40t-34 14q-29 0 -44 -19.5t-20 -63.5l-26 -245h-240l59 561h-40l9 87h40l6 52h240l-6 -52h128l-9 -87h-128l-13 -126q23 46 67.5 69.5t106.5 23.5q168 0 168 -172z" />
    <glyph glyph-name="uni045C" unicode="&#x45c;" horiz-adv-x="703" 
d="M403 550l-74 95l190 144l74 -95zM683 0h-271l-100 206l-22 -206h-240l54 513h240l-22 -210h17q18 0 28.5 8t24.5 28l73 106q21 30 41.5 45.5t51.5 21.5t85 6h55l-18 -180h-10q-14 0 -25 -6t-22 -21l-25 -32q-16 -21 -49 -21h-9z" />
    <glyph glyph-name="uni045E" unicode="&#x45e;" horiz-adv-x="683" 
d="M255.5 584.5q-45.5 37.5 -40.5 106.5h153q-3 -44 36 -44t46 44h153q-10 -67 -67 -105.5t-143 -38.5q-92 0 -137.5 37.5zM687 513l-49 -463q-6 -64 -34.5 -114t-68.5 -78q-44 -32 -92.5 -45t-128.5 -13q-81 0 -129 12.5t-81 40.5q-29 25 -46.5 63t-13.5 75h240
q-2 -16 11 -26.5t37 -10.5q29 0 44 13.5t17 36.5l12 107q-23 -41 -66.5 -64.5t-101.5 -23.5q-89 0 -129 43.5t-40 126.5q0 25 3 50l28 270h240l-26 -247q-1 -6 -1 -17q0 -53 46 -53q28 0 44 19.5t20 64.5l25 233h240z" />
    <glyph glyph-name="uni045F" unicode="&#x45f;" horiz-adv-x="693" 
d="M643 0h-181l-10 -91h-230l10 91h-182l54 513h240l-34 -327h113l34 327h240z" />
    <glyph glyph-name="uni0462" unicode="&#x462;" horiz-adv-x="814" 
d="M729.5 422.5q46.5 -26.5 73 -72.5t26.5 -101q0 -66 -35 -123t-93 -91.5t-122 -34.5h-405l51 485h-169l23 215h593l-23 -215h-168l-4 -36h149q57 0 103.5 -26.5zM543.5 178q20.5 17 24.5 48q3 28 -14.5 44.5t-51.5 16.5h-42l-13 -126h42q34 0 54.5 17z" />
    <glyph glyph-name="uni0463" unicode="&#x463;" horiz-adv-x="622" 
d="M582 315.5q50 -44.5 50 -113.5q0 -15 -1 -22q-4 -40 -30.5 -81.5t-82.5 -70t-143 -28.5h-325l50 478h-41l9 87h41l15 135h240l-15 -135h67l-9 -87h-67l-12 -118h85q119 0 169 -44.5zM373 142.5q16 16.5 16 39.5q0 19 -12 31.5t-33 12.5h-30l-11 -100h29q25 0 41 16.5z
" />
    <glyph glyph-name="uni0472" unicode="&#x472;" horiz-adv-x="816" 
d="M678.5 680q81.5 -45 124 -121t42.5 -168q0 -13 -2 -41q-11 -100 -68 -186t-153 -137.5t-217 -51.5q-113 0 -194.5 45t-123.5 120.5t-42 167.5q0 14 2 42q11 101 68 186.5t152.5 137t216.5 51.5q113 0 194.5 -45zM369.5 466.5q-36.5 -30.5 -50.5 -79.5h260q-5 49 -35 79.5
t-84 30.5t-90.5 -30.5zM520.5 234.5q36.5 31.5 50.5 80.5h-260q4 -50 33.5 -81t84.5 -31t91.5 31.5z" />
    <glyph glyph-name="uni0473" unicode="&#x473;" horiz-adv-x="632" 
d="M522.5 499.5q64.5 -28.5 99 -82t34.5 -126.5q0 -10 -2 -34q-9 -83 -54 -144.5t-119 -94.5t-167 -33q-87 0 -151 29t-98.5 82.5t-34.5 126.5q0 10 2 34q9 83 53.5 144t118.5 94t167 33q87 0 151.5 -28.5zM304 320q-20 -15 -28 -42h138q-2 27 -19 42t-44 15t-47 -15z
M382 194q20 15 28 42h-138q2 -27 19 -42t44 -15t47 15z" />
    <glyph glyph-name="uni0474" unicode="&#x474;" horiz-adv-x="754" 
d="M231 0l-167 700h272l64 -454l118 327q19 54 43.5 82t61.5 39t99 11h106l-21 -205h-22q-26 0 -41.5 -14t-33.5 -56l-190 -430h-289z" />
    <glyph glyph-name="uni0475" unicode="&#x475;" horiz-adv-x="644" 
d="M219 0l-175 513h247l63 -289l85 197q18 42 44.5 64t60 29t82.5 7h83l-19 -180h-14q-23 0 -39.5 -9t-33.5 -40l-163 -292h-221z" />
    <glyph glyph-name="uni048A" unicode="&#x48a;" horiz-adv-x="790" 
d="M338 768.5q-50 38.5 -48 101.5h107q2 -27 24 -41.5t56 -14.5t58.5 14.5t31.5 41.5h107q-10 -63 -68 -101.5t-138 -38.5t-130 38.5zM791 199l-34 -320h-230l13 121h-80l36 340l-181 -292l-5 -48h-255l74 700h255l-36 -340l181 292l5 48h255l-53 -501h55z" />
    <glyph glyph-name="uni048B" unicode="&#x48b;" horiz-adv-x="718" 
d="M260.5 574.5q-45.5 37.5 -40.5 106.5h153q-3 -44 36 -44t46 44h153q-10 -67 -67 -105.5t-143 -38.5q-92 0 -137.5 37.5zM719 199l-34 -320h-230l13 121h-65l26 248l-136 -216l-3 -32h-240l54 513h240l-27 -259l135 216l5 43h240l-33 -314h55z" />
    <glyph glyph-name="uni048C" unicode="&#x48c;" horiz-adv-x="694" 
d="M609.5 422.5q46.5 -26.5 73 -72.5t26.5 -101q0 -66 -35 -123t-93 -91.5t-122 -34.5h-404l56 529h-41l9 87h41l9 84h255l-9 -84h112l-9 -87h-112l-9 -80h149q57 0 103.5 -26.5zM423.5 178q20.5 17 24.5 48q3 28 -14.5 44.5t-51.5 16.5h-42l-13 -126h42q34 0 54.5 17z" />
    <glyph glyph-name="uni048D" unicode="&#x48d;" horiz-adv-x="622" 
d="M582 315.5q50 -44.5 50 -113.5q0 -15 -1 -22q-4 -40 -30.5 -81.5t-82.5 -70t-143 -28.5h-325l50 478h-41l9 87h41l15 135h240l-15 -135h67l-9 -87h-67l-12 -118h85q119 0 169 -44.5zM373 142.5q16 16.5 16 39.5q0 19 -12 31.5t-33 12.5h-30l-11 -100h29q25 0 41 16.5z
" />
    <glyph glyph-name="uni048E" unicode="&#x48e;" horiz-adv-x="709" 
d="M709.5 311q-32.5 -55 -83.5 -92l26 -29l-46 -41l-35 39q-58 -25 -121 -25h-123l-17 -163h-255l74 700h378q71 0 126.5 -30.5t86.5 -85t31 -122.5q0 -9 -2 -31q-7 -65 -39.5 -120zM421 354l-42 47l46 41l49 -54q16 24 16 53q0 30 -18 49t-47 19h-62l-16 -156h61q9 0 13 1z
" />
    <glyph glyph-name="uni048F" unicode="&#x48f;" horiz-adv-x="687" 
d="M668.5 139.5q-23.5 -52.5 -61.5 -89.5l31 -34l-47 -41l-34 38q-51 -28 -109 -28q-61 0 -100 28t-50 66l-27 -259h-240l73 693h240l-8 -80q20 40 64.5 67.5t104.5 27.5q59 0 103 -28.5t68.5 -80.5t24.5 -121q0 -14 -2 -42q-7 -64 -30.5 -116.5zM406 181l-41 46l46 41
l32 -36q5 11 6 24q4 37 -13.5 60t-48.5 23q-34 0 -57.5 -27t-23.5 -68q0 -33 17.5 -53t45.5 -20q17 0 37 10z" />
    <glyph glyph-name="uni0490" unicode="&#x490;" horiz-adv-x="509" 
d="M587 791l-32 -306h-194l-51 -485h-255l74 700h219l9 91h230z" />
    <glyph glyph-name="uni0491" unicode="&#x491;" horiz-adv-x="466" 
d="M504 603l-32 -306h-151l-31 -297h-240l54 513h161l9 90h230z" />
    <glyph glyph-name="uni0492" unicode="&#x492;" horiz-adv-x="509" 
d="M361 485l-10 -99h113l-10 -87h-113l-31 -299h-255l31 299h-40l10 87h40l33 314h449l-23 -215h-194z" />
    <glyph glyph-name="uni0493" unicode="&#x493;" horiz-adv-x="466" 
d="M321 297l-4 -43h78l-9 -87h-78l-18 -167h-240l18 167h-30l9 87h30l27 259h391l-23 -216h-151z" />
    <glyph glyph-name="uni0494" unicode="&#x494;" horiz-adv-x="728" 
d="M647.5 343.5q55.5 -50.5 55.5 -141.5q0 -11 -2 -33l-18 -169q-10 -99 -73 -142.5t-179 -43.5q-30 0 -52 3.5t-47 11.5l15 144q29 -3 42 -3q36 0 39 30l12 116q1 9 1 26q0 43 -17.5 60.5t-47.5 17.5q-20 0 -44 -9l-22 -211h-255l74 700h449l-23 -215h-194l-12 -112
q32 10 72.5 15.5t72.5 5.5q98 0 153.5 -50.5z" />
    <glyph glyph-name="uni0495" unicode="&#x495;" horiz-adv-x="672" 
d="M671 65q0 -27 -2 -42q-11 -107 -78 -163t-182 -56q-34 0 -56.5 2t-46.5 10l17 168q4 -1 10.5 -2t15.5 -1q17 0 32 12.5t15 36.5q0 38 -44 38q-15 0 -26.5 -3t-29.5 -12l-6 -53h-240l54 513h391l-23 -216h-151l-5 -51q56 20 129 20q226 0 226 -201z" />
    <glyph glyph-name="uni0496" unicode="&#x496;" horiz-adv-x="1204" 
d="M1220 199l-34 -320h-230l13 121h-81l-139 296l-31 -296h-255l31 296l-201 -296h-288l272 347h-8q-19 0 -39.5 14t-28.5 33l-16 41q-22 52 -55 52h-35l23 218h83q63 0 102 -17t65 -70l82 -169q11 -22 19.5 -29.5t22.5 -7.5h14l31 288h255l-31 -288h14q14 0 24.5 7.5
t25.5 29.5l118 169q37 53 79.5 70t105.5 17h83l-23 -218h-35q-35 0 -65 -52l-26 -41q-11 -19 -35 -33t-43 -14h-8l86 -148h158z" />
    <glyph glyph-name="uni0497" unicode="&#x497;" horiz-adv-x="1101" 
d="M1102 199l-34 -320h-230l13 121h-76l-100 206l-22 -206h-240l22 206l-144 -206h-271l197 258h-9q-33 0 -45 21l-17 32q-8 15 -17.5 21t-23.5 6h-10l18 180h55q54 0 84 -6t47.5 -21.5t32.5 -45.5l51 -106q9 -20 18 -28t27 -8h17l22 210h240l-22 -210h17q18 0 28.5 8
t24.5 28l73 106q21 30 41.5 45.5t51.5 21.5t85 6h55l-18 -180h-10q-14 0 -25 -6t-22 -21l-25 -32q-16 -21 -49 -21h-9l33 -59h166z" />
    <glyph glyph-name="uni0498" unicode="&#x498;" horiz-adv-x="672" 
d="M645.5 305.5q31.5 -40.5 31.5 -99.5q0 -104 -85.5 -160t-210.5 -65l-4 -40q14 12 45 12q35 0 53.5 -19.5t18.5 -47.5q0 -35 -30.5 -62t-82.5 -27q-45 0 -73.5 20.5t-27.5 49.5h80q1 -6 7.5 -10.5t15.5 -4.5q14 0 22.5 9t8.5 24q0 11 -6 17t-17 6q-17 0 -24 -12h-74l9 85
q-150 8 -209.5 65.5t-59.5 150.5q0 13 2 41h270q-1 -6 -1 -18q0 -24 10.5 -36t36.5 -12q30 0 42.5 18.5t12.5 43.5q0 26 -15 38t-46 12h-95l17 163h93q42 0 59.5 14t20.5 44q6 46 -42 46q-31 0 -42.5 -15.5t-14.5 -47.5h-270q10 96 84 164t259 68q133 0 215.5 -41t82.5 -138
q0 -16 -1 -24q-4 -39 -27 -73.5t-55.5 -56.5t-63.5 -28q49 -13 80.5 -53.5z" />
    <glyph glyph-name="uni0499" unicode="&#x499;" horiz-adv-x="610" 
d="M521.5 35q-74.5 -46 -181.5 -54l-4 -40q14 12 45 12q35 0 53.5 -19.5t18.5 -47.5q0 -35 -30.5 -62t-82.5 -27q-45 0 -73.5 20.5t-27.5 49.5h80q1 -6 7.5 -10.5t15.5 -4.5q14 0 22.5 9t8.5 24q0 11 -6 17t-17 6q-17 0 -24 -12h-74l9 85q-239 12 -239 166q0 16 1 24h240
q-2 -24 8.5 -36t37.5 -12q21 0 32.5 13.5t11.5 36.5q0 20 -14 28.5t-43 8.5h-61l12 110h59q32 0 49.5 14t17.5 37q0 15 -8.5 22t-23.5 7q-47 0 -50 -41h-239q7 69 77 119t234 50q114 0 185 -32.5t71 -102.5q0 -64 -41 -94t-97 -35q52 -3 83.5 -28.5t31.5 -76.5
q0 -78 -74.5 -124z" />
    <glyph glyph-name="uni049A" unicode="&#x49a;" horiz-adv-x="828" 
d="M844 199l-34 -320h-230l13 121h-113l-139 296l-31 -296h-255l74 700h255l-31 -288h14q14 0 24.5 7.5t25.5 29.5l118 169q37 53 79.5 70t105.5 17h83l-23 -218h-35q-35 0 -65 -52l-26 -41q-11 -19 -35 -33t-43 -14h-8l86 -148h190z" />
    <glyph glyph-name="uni049B" unicode="&#x49b;" horiz-adv-x="758" 
d="M759 199l-34 -320h-230l13 121h-96l-100 206l-22 -206h-240l54 513h240l-22 -210h17q18 0 28.5 8t24.5 28l73 106q21 30 41.5 45.5t51.5 21.5t85 6h55l-18 -180h-10q-14 0 -25 -6t-22 -21l-25 -32q-16 -21 -49 -21h-9l33 -59h186z" />
    <glyph glyph-name="uni049C" unicode="&#x49c;" horiz-adv-x="843" 
d="M550 0l-128 274l-15 -138h-50l17 161h-33l-31 -297h-255l74 700h255l-31 -288h33l17 161h50l-17 -161h1q14 0 24.5 7.5t25.5 29.5l118 169q37 53 79.5 70t105.5 17h93l-21 -205h-35q-18 0 -27.5 -2t-21.5 -13t-27 -37l-32 -54q-10 -19 -32 -33t-41 -14h-8l200 -347h-288z
" />
    <glyph glyph-name="uni049D" unicode="&#x49d;" horiz-adv-x="733" 
d="M442 0l-79 187l-9 -78h-33l11 97h-20l-22 -206h-240l54 513h240l-22 -210h20l10 97h33l-10 -97q15 1 24.5 9t22.5 27l73 106q21 30 41.5 45.5t51.5 21.5t85 6h64l-18 -180h-15q-16 0 -27.5 -6t-23.5 -21l-25 -32q-16 -21 -49 -21h-9l143 -258h-271z" />
    <glyph glyph-name="uni049E" unicode="&#x49e;" horiz-adv-x="813" 
d="M520 0l-139 296l-31 -296h-255l56 529h-40l11 107h40l7 64h255l-7 -64h83l-11 -107h-83l-13 -117h14q14 0 24.5 7.5t25.5 29.5l118 169q37 53 79.5 70t105.5 17h83l-23 -218h-35q-35 0 -65 -52l-26 -41q-11 -19 -35 -33t-43 -14h-8l200 -347h-288z" />
    <glyph glyph-name="uni049F" unicode="&#x49f;" horiz-adv-x="703" 
d="M683 0h-271l-100 206l-22 -206h-240l40 380h-40l9 82h40l5 51h240l-5 -51h68l-9 -82h-68l-8 -77h17q18 0 28.5 8t24.5 28l73 106q21 30 41.5 45.5t51.5 21.5t85 6h55l-18 -180h-10q-14 0 -25 -6t-22 -21l-25 -32q-16 -21 -49 -21h-9z" />
    <glyph glyph-name="uni04A0" unicode="&#x4a0;" horiz-adv-x="858" 
d="M565 0l-139 296l-31 -296h-255l50 480h-135l24 220h390l-31 -288h14q14 0 24.5 7.5t25.5 29.5l118 169q37 53 79.5 70t105.5 17h83l-23 -218h-35q-35 0 -65 -52l-26 -41q-11 -19 -35 -33t-43 -14h-8l200 -347h-288z" />
    <glyph glyph-name="uni04A1" unicode="&#x4a1;" horiz-adv-x="783" 
d="M763 0h-271l-100 206l-22 -206h-240l35 333h-105l19 180h345l-22 -210h17q18 0 28.5 8t24.5 28l73 106q21 30 41.5 45.5t51.5 21.5t85 6h55l-18 -180h-10q-14 0 -25 -6t-22 -21l-25 -32q-16 -21 -49 -21h-9z" />
    <glyph glyph-name="uni04A2" unicode="&#x4a2;" horiz-adv-x="788" 
d="M789 199l-34 -320h-230l13 121h-80l26 243h-148l-26 -243h-255l74 700h255l-26 -248h148l26 248h255l-53 -501h55z" />
    <glyph glyph-name="uni04A3" unicode="&#x4a3;" horiz-adv-x="718" 
d="M719 199l-34 -320h-230l13 121h-65l17 164h-113l-17 -164h-240l54 513h240l-17 -163h113l17 163h240l-33 -314h55z" />
    <glyph glyph-name="uni04A4" unicode="&#x4a4;" horiz-adv-x="912" 
d="M958 485h-194l-51 -485h-255l26 243h-148l-26 -243h-255l74 700h255l-26 -248h148l26 248h449z" />
    <glyph glyph-name="uni04A5" unicode="&#x4a5;" horiz-adv-x="819" 
d="M825 297h-151l-31 -297h-240l17 164h-113l-17 -164h-240l54 513h240l-17 -163h113l17 163h391z" />
    <glyph glyph-name="uni04A6" unicode="&#x4a6;" horiz-adv-x="1131" 
d="M1057 403.5q55 -50.5 55 -141.5q0 -11 -2 -33l-24 -229q-10 -99 -73 -142.5t-179 -43.5q-30 0 -52 3.5t-47 11.5l15 144q29 -3 42 -3q36 0 39 30l18 176q2 18 2 26q0 78 -67 78q-22 0 -43 -9l-28 -271h-255l52 491h-148l-52 -491h-255l74 700h658l-28 -267q28 10 70 15.5
t75 5.5q98 0 153 -50.5z" />
    <glyph glyph-name="uni04A7" unicode="&#x4a7;" horiz-adv-x="1025" 
d="M975 287q55 -59 55 -170q0 -25 -3 -54q-14 -129 -85 -194t-192 -65q-27 0 -48 2.5t-43 9.5l17 168q4 -1 10.5 -2t15.5 -1q11 0 23.5 11t21 34.5t8.5 59.5q0 62 -41 62q-15 0 -27.5 -3t-29.5 -12l-14 -133h-240l34 327h-113l-34 -327h-240l54 513h593l-20 -188
q58 21 129 21q114 0 169 -59z" />
    <glyph glyph-name="uni04A8" unicode="&#x4a8;" horiz-adv-x="796" 
d="M767.5 152.5q18.5 5.5 46.5 16.5l-18 -166q-38 -13 -68 -19.5t-68 -6.5q-76 0 -145 30q-67 -32 -145 -32q-101 0 -175 38.5t-113 109t-39 164.5q0 31 2 47q13 124 71 211.5t154 133.5t221 46q61 0 110 -8l-19 -191q-21 6 -74 6q-89 0 -145 -52t-66 -144q-1 -9 -1 -27
q0 -43 13.5 -77t37.5 -56q-10 42 -10 79q0 13 2 37q11 102 78.5 155.5t170.5 53.5q99 0 154 -45t55 -129q0 -100 -68 -182q20 2 38.5 7.5zM534.5 309q-12.5 -19 -12.5 -53q0 -47 37 -76q42 44 42 103q0 45 -32 45q-22 0 -34.5 -19z" />
    <glyph glyph-name="uni04A9" unicode="&#x4a9;" horiz-adv-x="652" 
d="M647 1q-25 -11 -44.5 -16t-42.5 -5q-33 0 -60.5 8.5t-52.5 29.5q-29 -22 -71.5 -32.5t-87.5 -10.5q-122 0 -190.5 59t-68.5 169q0 26 2 40q10 97 60 162t127 96.5t171 31.5q51 0 106 -10l-16 -150q-29 5 -70 5q-74 0 -122.5 -40t-48.5 -108q0 -64 45 -96q-5 23 -5 43
q0 85 57.5 130t147.5 45q84 0 134.5 -32t50.5 -94q0 -85 -72 -143q26 4 60 16zM442 202.5q-14 -14.5 -17 -43.5q-3 -25 12 -43q69 20 69 69q0 14 -7.5 23t-21.5 9q-21 0 -35 -14.5z" />
    <glyph glyph-name="uni04AA" unicode="&#x4aa;" horiz-adv-x="815" 
d="M521 224q37 22 48 59h266q-25 -140 -127 -219t-261 -88l-3 -35q14 12 45 12q35 0 53.5 -19.5t18.5 -47.5q0 -35 -30.5 -62t-82.5 -27q-45 0 -73.5 20.5t-27.5 49.5h80q1 -6 7.5 -10.5t15.5 -4.5q14 0 22.5 9t8.5 24q0 11 -6 17t-17 6q-17 0 -24 -12h-74l9 81
q-97 7 -170.5 50.5t-113.5 115.5t-40 163q0 29 2 44q11 108 71.5 193.5t156.5 133.5t211 48q175 0 271 -79.5t92 -228.5h-266q-4 37 -36 59t-84 22q-69 0 -110.5 -46.5t-41.5 -125.5q0 -59 31.5 -91.5t89.5 -32.5q52 0 89 22z" />
    <glyph glyph-name="uni04AB" unicode="&#x4ab;" horiz-adv-x="627" 
d="M380.5 188q16.5 8 24.5 28h240q-22 -101 -103.5 -162.5t-199.5 -67.5l-5 -45q14 12 45 12q35 0 53.5 -19.5t18.5 -47.5q0 -35 -30.5 -62t-82.5 -27q-45 0 -73.5 20.5t-27.5 49.5h80q1 -6 7.5 -10.5t15.5 -4.5q14 0 22.5 9t8.5 24q0 11 -6 17t-17 6q-17 0 -24 -12h-74
l10 92q-109 13 -171 75t-62 161q0 11 2 33q9 83 54 144t118.5 94t166.5 33q130 0 206 -61.5t76 -168.5h-240q-4 20 -18.5 28t-42.5 8q-37 0 -59 -23t-22 -66q0 -32 17 -48.5t48 -16.5q28 0 44.5 8z" />
    <glyph glyph-name="uni04AC" unicode="&#x4ac;" horiz-adv-x="603" 
d="M480 485l-30 -286h55l-34 -320h-230l13 121h-80l51 485h-169l23 215h593l-23 -215h-169z" />
    <glyph glyph-name="uni04AD" unicode="&#x4ad;" horiz-adv-x="560" 
d="M433 317l-12 -118h55l-34 -320h-230l13 121h-65l33 317h-135l21 196h510l-21 -196h-135z" />
    <glyph glyph-name="uni04AE" unicode="&#x4ae;" horiz-adv-x="724" 
d="M259 225l-195 475h285l62 -236l112 236h285l-295 -475l-24 -225h-254z" />
    <glyph glyph-name="uni04AF" unicode="&#x4af;" horiz-adv-x="662" 
d="M451 2l-19 -182h-240l19 182l-167 511h275l38 -267l94 267h275z" />
    <glyph glyph-name="uni04B0" unicode="&#x4b0;" horiz-adv-x="724" 
d="M519 234h104l-12 -112h-109l-13 -122h-254l13 122h-109l12 112h104l-191 466h285l62 -236l112 236h285z" />
    <glyph glyph-name="uni04B1" unicode="&#x4b1;" horiz-adv-x="662" 
d="M451 0h52l-12 -112h-52l-7 -68h-240l7 68h-52l12 112h52v2l-167 511h275l38 -267l94 267h275l-275 -511v-2z" />
    <glyph glyph-name="uni04B2" unicode="&#x4b2;" horiz-adv-x="812" 
d="M813 199l-34 -320h-230l13 121h-101l-72 175l-108 -175h-276l255 350l-181 350h276l71 -175l109 175h276l-255 -350l78 -151h179z" />
    <glyph glyph-name="uni04B3" unicode="&#x4b3;" horiz-adv-x="745" 
d="M746 199l-34 -320h-230l13 121h-93l-47 121l-72 -121h-278l209 259l-152 254h278l44 -116l69 116h278l-206 -254l36 -60h185z" />
    <glyph glyph-name="uni04B4" unicode="&#x4b4;" horiz-adv-x="827" 
d="M829 210l-35 -331h-230l13 121h-478l51 485h-94l23 215h438l-23 -215h-89l-29 -276h143l52 491h255l-52 -490h55z" />
    <glyph glyph-name="uni04B5" unicode="&#x4b5;" horiz-adv-x="757" 
d="M759 210l-35 -331h-230l13 121h-418l33 317h-64l21 196h368l-21 -196h-64l-13 -131h113l34 327h240l-32 -303h55z" />
    <glyph glyph-name="uni04B6" unicode="&#x4b6;" horiz-adv-x="728" 
d="M729 199l-34 -320h-230l13 121h-80l22 209q-54 -23 -143 -23q-62 0 -109.5 24.5t-74 69.5t-26.5 104q0 18 1 27l31 289h255l-25 -236q-1 -9 -1 -26q0 -78 63 -78q26 0 46 11l35 329h255l-53 -501h55z" />
    <glyph glyph-name="uni04B7" unicode="&#x4b7;" horiz-adv-x="672" 
d="M673 199l-34 -320h-230l13 121h-70l16 149q-60 -20 -116 -20q-99 0 -152 40t-53 117q0 16 1 25l21 202h245l-17 -164q-1 -5 -1 -15q0 -53 44 -53q27 0 43 10l23 222h240l-33 -314h60z" />
    <glyph glyph-name="uni04B8" unicode="&#x4b8;" horiz-adv-x="708" 
d="M727 700l-74 -700h-255l22 209l-15 -6l-8 -79h-72l7 65q-28 -3 -55 -3q-62 0 -109.5 24.5t-74 69.5t-26.5 104q0 18 1 27l31 289h255l-25 -236q-2 -20 -2 -26q0 -47 24 -66l5 51h72l-6 -59q10 4 15 7l35 329h255z" />
    <glyph glyph-name="uni04B9" unicode="&#x4b9;" horiz-adv-x="642" 
d="M646 513l-54 -513h-240l16 149l-24 -7l-8 -73h-37l7 65q-30 -5 -54 -5q-99 0 -152 40t-53 117q0 16 1 25l21 202h245l-17 -164q-1 -5 -1 -15q0 -40 26 -50l9 84h37l-9 -86q16 3 24 9l23 222h240z" />
    <glyph glyph-name="uni04BA" unicode="&#x4ba;" horiz-adv-x="708" 
d="M362 491q53 23 143 23q62 0 109.5 -24.5t73.5 -69.5t26 -104q0 -18 -1 -27l-30 -289h-255l25 236q1 9 1 26q0 78 -63 78q-26 0 -46 -11l-35 -329h-255l74 700h255z" />
    <glyph glyph-name="uni04BB" unicode="&#x4bb;" horiz-adv-x="688" 
d="M678 356q0 -22 -3 -48l-32 -308h-245l27 258q1 6 1 16q0 26 -12 40t-34 14q-29 0 -44 -19.5t-20 -63.5l-26 -245h-240l74 700h240l-28 -265q23 46 67.5 69.5t106.5 23.5q168 0 168 -172z" />
    <glyph glyph-name="uni04BC" unicode="&#x4bc;" horiz-adv-x="933" 
d="M954 297h-516q4 -52 34.5 -78t80.5 -26q45 0 75.5 17.5t46.5 46.5h264q-19 -71 -74.5 -135.5t-141 -105.5t-189.5 -41q-107 0 -185 41.5t-119.5 113t-45.5 158.5h-31q-56 0 -87 31t-31 89q0 16 1 25l5 50h134l-5 -48q-2 -12 4 -19.5t17 -7.5h5q22 88 78.5 160
t143.5 114.5t195 42.5q111 0 189.5 -44.5t119 -120t40.5 -166.5q0 -29 -2 -44zM703 412q-8 46 -37.5 70.5t-80.5 24.5q-46 0 -81 -24.5t-52 -70.5h251z" />
    <glyph glyph-name="uni04BD" unicode="&#x4bd;" horiz-adv-x="780" 
d="M790 203h-376q-1 -30 18.5 -46.5t53.5 -16.5q28 0 44.5 5.5t21.5 18.5h230q-23 -84 -107 -131.5t-206 -47.5q-134 0 -210 55.5t-81 163.5q-63 5 -100 39t-37 88q0 11 1 17l5 49h133l-3 -28q-3 -29 20 -37q33 94 118 145t206 51q85 0 149.5 -27t100 -77t35.5 -116
q0 -17 -1 -25q-5 -44 -15 -80zM569 323q3 34 -13 52t-50 18q-32 0 -53 -18.5t-26 -51.5h142z" />
    <glyph glyph-name="uni04BE" unicode="&#x4be;" horiz-adv-x="933" 
d="M434 747q-24 23 -24 56q0 39 31 68t72 29q37 0 59.5 -22.5t22.5 -56.5q0 -38 -29 -67.5t-72 -29.5q-36 0 -60 23zM665.5 747q-22.5 23 -22.5 55q0 40 29 69t71 29q37 0 60.5 -23t23.5 -57q0 -38 -30.5 -67t-72.5 -29q-36 0 -58.5 23zM954 297h-516q4 -52 34.5 -78
t80.5 -26q45 0 75.5 17.5t46.5 46.5h264q-19 -71 -74.5 -135.5t-141 -105.5t-189.5 -41q-107 0 -185 41.5t-119.5 113t-45.5 158.5h-31q-56 0 -87 31t-31 89q0 16 1 25l5 50h134l-5 -48q-2 -12 4 -19.5t17 -7.5h5q22 88 78.5 160t143.5 114.5t195 42.5q111 0 189.5 -44.5
t119 -120t40.5 -166.5q0 -29 -2 -44zM703 412q-8 46 -37.5 70.5t-80.5 24.5q-46 0 -81 -24.5t-52 -70.5h251z" />
    <glyph glyph-name="uni04BF" unicode="&#x4bf;" horiz-adv-x="780" 
d="M790 203h-376q-1 -30 18.5 -46.5t53.5 -16.5q28 0 44.5 5.5t21.5 18.5h230q-16 -60 -65.5 -102.5t-122.5 -61.5h18q-14 0 -21 -1q-24 -6 -50 -9q-41 -16 -41 -48q0 -16 11 -26t31 -10q23 0 47 12l-9 -93q-33 -12 -59.5 -16t-66.5 -4q-75 0 -111 27.5t-31 69.5
q3 30 17 52.5t41 39.5q-89 18 -138.5 71t-53.5 139q-63 5 -100 39t-37 88q0 11 1 17l5 49h133l-3 -28q-3 -29 20 -37q33 94 118 145t206 51q85 0 149.5 -27t100 -77t35.5 -116q0 -17 -1 -25q-5 -44 -15 -80zM569 323q3 34 -13 52t-50 18q-32 0 -53 -18.5t-26 -51.5h142z" />
    <glyph glyph-name="uni04C0" unicode="&#x4c0;" horiz-adv-x="365" 
d="M129 700h255l-74 -700h-255z" />
    <glyph glyph-name="uni04C1" unicode="&#x4c1;" horiz-adv-x="1181" 
d="M543 778.5q-50 38.5 -48 101.5h107q2 -27 24 -41.5t56 -14.5t58.5 14.5t31.5 41.5h107q-10 -63 -68 -101.5t-138 -38.5t-130 38.5zM888 0l-139 296l-31 -296h-255l31 296l-201 -296h-288l272 347h-8q-19 0 -39.5 14t-28.5 33l-16 41q-22 52 -55 52h-35l23 218h83
q63 0 102 -17t65 -70l82 -169q11 -22 19.5 -29.5t22.5 -7.5h14l31 288h255l-31 -288h14q14 0 24.5 7.5t25.5 29.5l118 169q37 53 79.5 70t105.5 17h83l-23 -218h-35q-35 0 -65 -52l-26 -41q-11 -19 -35 -33t-43 -14h-8l200 -347h-288z" />
    <glyph glyph-name="uni04C2" unicode="&#x4c2;" horiz-adv-x="1066" 
d="M454.5 584.5q-45.5 37.5 -40.5 106.5h153q-3 -44 36 -44t46 44h153q-10 -67 -67 -105.5t-143 -38.5q-92 0 -137.5 37.5zM1046 0h-271l-100 206l-22 -206h-240l22 206l-144 -206h-271l197 258h-9q-33 0 -45 21l-17 32q-8 15 -17.5 21t-23.5 6h-10l18 180h55q54 0 84 -6
t47.5 -21.5t32.5 -45.5l51 -106q9 -20 18 -28t27 -8h17l22 210h240l-22 -210h17q18 0 28.5 8t24.5 28l73 106q21 30 41.5 45.5t51.5 21.5t85 6h55l-18 -180h-10q-14 0 -25 -6t-22 -21l-25 -32q-16 -21 -49 -21h-9z" />
    <glyph glyph-name="uni04C3" unicode="&#x4c3;" horiz-adv-x="755" 
d="M774 246q0 -12 -2 -40q-11 -107 -81.5 -163t-190.5 -56q-75 0 -122 12l19 180q18 -5 57 -5q21 0 36.5 11.5t15.5 35.5q0 20 -13 32t-37 12h-118l-28 -265h-255l74 700h255l-31 -288h14q14 0 24.5 7.5t25.5 29.5l118 169q37 53 79.5 70t105.5 17h93l-21 -205h-35
q-18 0 -27.5 -2t-21.5 -13t-27 -37l-13 -23q106 -42 106 -179z" />
    <glyph glyph-name="uni04C4" unicode="&#x4c4;" horiz-adv-x="672" 
d="M679 128q0 -19 -1 -28q-13 -116 -84 -177.5t-191 -61.5q-28 0 -49 2.5t-42 9.5l17 168q4 -1 10.5 -2t15.5 -1q22 0 42.5 22t20.5 65q0 54 -54 54h-55l-19 -179h-240l54 513h240l-22 -210h17q18 0 28.5 8t24.5 28l73 106q21 30 41.5 45.5t51.5 21.5t85 6h64l-18 -180h-15
q-16 0 -27.5 -6t-23.5 -21l-25 -32l-3 -4q84 -43 84 -147z" />
    <glyph glyph-name="uni04C5" unicode="&#x4c5;" horiz-adv-x="803" 
d="M835 210l-134 -331h-207l49 121h-78l52 491h-111l-19 -176q-17 -163 -90 -244t-187 -81h-96l21 205h25q30 0 48 32t23 78l42 395h621l-52 -490h93z" />
    <glyph glyph-name="uni04C6" unicode="&#x4c6;" horiz-adv-x="744" 
d="M761 210l-134 -331h-207l49 121h-68l34 327h-86l-8 -75q-13 -126 -77.5 -193.5t-185.5 -67.5h-59l20 186h19q20 0 30 18t13 53l28 265h566l-32 -303h98z" />
    <glyph glyph-name="uni04C7" unicode="&#x4c7;" horiz-adv-x="768" 
d="M787 700l-74 -700q-10 -99 -73 -142.5t-179 -43.5q-30 0 -52 3.5t-47 11.5l15 144q29 -3 42 -3q36 0 39 30l26 243h-148l-26 -243h-255l74 700h255l-26 -248h148l26 248h255z" />
    <glyph glyph-name="uni04C8" unicode="&#x4c8;" horiz-adv-x="693" 
d="M697 513l-54 -513q-19 -186 -252 -186q-24 0 -41.5 3.5t-37.5 11.5l14 135l15 -3t11 -1q47 0 51 40l17 164h-113l-17 -164h-240l54 513h240l-17 -163h113l17 163h240z" />
    <glyph glyph-name="uni04C9" unicode="&#x4c9;" horiz-adv-x="801" 
d="M833 210l-134 -331h-207l49 121h-83l26 243h-148l-26 -243h-255l74 700h255l-26 -248h148l26 248h255l-52 -490h98z" />
    <glyph glyph-name="uni04CA" unicode="&#x4ca;" horiz-adv-x="746" 
d="M763 210l-134 -331h-207l49 121h-68l17 164h-113l-17 -164h-240l54 513h240l-17 -163h113l17 163h240l-32 -303h98z" />
    <glyph glyph-name="uni04CB" unicode="&#x4cb;" horiz-adv-x="708" 
d="M653 0h-140l-13 -120h-230l24 220h115l11 109q-54 -23 -143 -23q-62 0 -109.5 24.5t-74 69.5t-26.5 104q0 18 1 27l31 289h255l-25 -236q-1 -9 -1 -26q0 -78 63 -78q26 0 46 11l35 329h255z" />
    <glyph glyph-name="uni04CC" unicode="&#x4cc;" horiz-adv-x="642" 
d="M592 0h-125l-13 -120h-230l24 220h115l5 49q-60 -20 -116 -20q-99 0 -152 40t-53 117q0 16 1 25l21 202h245l-17 -164q-1 -5 -1 -15q0 -53 44 -53q27 0 43 10l23 222h240z" />
    <glyph glyph-name="uni04CD" unicode="&#x4cd;" horiz-adv-x="1039" 
d="M1071 210l-134 -331h-207l49 121h-73l46 435l-149 -435h-187l-70 435l-46 -435h-245l74 700h342l67 -418l155 418h332l-52 -490h98z" />
    <glyph glyph-name="uni04CE" unicode="&#x4ce;" horiz-adv-x="1033" 
d="M1050 210l-134 -331h-207l49 121h-58l36 345l-144 -345h-195l-81 345l-36 -345h-230l54 513h359l54 -286l115 286h352l-32 -303h98z" />
    <glyph glyph-name="uni04CF" unicode="&#x4cf;" horiz-adv-x="340" 
d="M104 513h240l-54 -513h-240z" />
    <glyph glyph-name="uni04D0" unicode="&#x4d0;" horiz-adv-x="767" 
d="M332 778.5q-50 38.5 -48 101.5h107q2 -27 24 -41.5t56 -14.5t58.5 14.5t31.5 41.5h107q-10 -63 -68 -101.5t-138 -38.5t-130 38.5zM494 77h-205l-27 -77h-262l314 700h287l166 -700h-262zM467 252l-33 232l-83 -232h116z" />
    <glyph glyph-name="uni04D1" unicode="&#x4d1;" horiz-adv-x="687" 
d="M238.5 584.5q-45.5 37.5 -40.5 106.5h153q-3 -44 36 -44t46 44h153q-10 -67 -67 -105.5t-143 -38.5q-92 0 -137.5 37.5zM93 47.5q-53 62.5 -53 165.5q0 28 2 43q8 79 43 141t89 96.5t119 34.5q61 0 99 -26.5t51 -68.5l8 80h240l-54 -513h-240l8 79q-20 -41 -64 -67.5
t-105 -26.5q-90 0 -143 62.5zM411.5 200q23.5 27 23.5 68q0 32 -17 51.5t-46 19.5q-34 0 -57.5 -27t-23.5 -68q0 -32 17 -51.5t46 -19.5q34 0 57.5 27z" />
    <glyph glyph-name="uni04D2" unicode="&#x4d2;" horiz-adv-x="767" 
d="M284 747q-24 23 -24 56q0 39 31 68t72 29q37 0 59.5 -22.5t22.5 -56.5q0 -38 -29 -67.5t-72 -29.5q-36 0 -60 23zM515.5 747q-22.5 23 -22.5 55q0 40 29 69t71 29q37 0 60.5 -23t23.5 -57q0 -38 -30.5 -67t-72.5 -29q-36 0 -58.5 23zM494 77h-205l-27 -77h-262l314 700
h287l166 -700h-262zM467 252l-33 232l-83 -232h116z" />
    <glyph glyph-name="uni04D3" unicode="&#x4d3;" horiz-adv-x="687" 
d="M181 572.5q-27 26.5 -27 65.5q0 30 16 56t43 42t59 16q42 0 69 -26.5t27 -65.5q0 -30 -16 -56t-43 -42t-59 -16q-42 0 -69 26.5zM433 572.5q-27 26.5 -27 65.5q0 30 16 56t43 42t59 16q42 0 69 -26.5t27 -65.5q0 -30 -16 -56t-43 -42t-59 -16q-42 0 -69 26.5zM93 47.5
q-53 62.5 -53 165.5q0 28 2 43q8 79 43 141t89 96.5t119 34.5q61 0 99 -26.5t51 -68.5l8 80h240l-54 -513h-240l8 79q-20 -41 -64 -67.5t-105 -26.5q-90 0 -143 62.5zM411.5 200q23.5 27 23.5 68q0 32 -17 51.5t-46 19.5q-34 0 -57.5 -27t-23.5 -68q0 -32 17 -51.5t46 -19.5
q34 0 57.5 27z" />
    <glyph glyph-name="uni04D4" unicode="&#x4d4;" horiz-adv-x="973" 
d="M768 517l-8 -83h209l-19 -173h-209l-8 -78h209l-19 -183h-459l8 77h-172l-38 -77h-262l420 700h577l-20 -183h-209zM490 252l29 267l-133 -267h104z" />
    <glyph glyph-name="uni04D5" unicode="&#x4d5;" horiz-adv-x="1022" 
d="M1042 244q-3 -17 -9 -36h-376q-4 -33 14 -53t52 -20q27 0 47 12t26 31h230q-24 -91 -109 -144.5t-206 -53.5q-66 0 -117.5 19t-85.5 54q-47 -40 -107.5 -56.5t-143.5 -16.5q-67 0 -119 18t-80.5 50.5t-28.5 75.5l1 14q4 46 24 78.5t57 55.5q40 25 100 35.5t143 10.5h74
l4 32q2 20 -8.5 34t-39.5 14q-30 0 -46.5 -15t-18.5 -41h-245q17 89 99.5 140t225.5 51q120 0 179 -54q79 54 186 54q84 0 148.5 -28t100 -79.5t35.5 -117.5q0 -16 -1 -25q-2 -22 -5 -39zM811 334q0 30 -16.5 47t-45.5 17q-32 0 -54.5 -22.5t-26.5 -57.5h142q1 6 1 16z
M420 210h-56q-31 0 -48 -13t-17 -35q0 -19 13 -29t36 -10q28 0 47 16t22 45z" />
    <glyph glyph-name="uni04D6" unicode="&#x4d6;" horiz-adv-x="579" 
d="M251 778.5q-50 38.5 -48 101.5h107q2 -27 24 -41.5t56 -14.5t58.5 14.5t31.5 41.5h107q-10 -63 -68 -101.5t-138 -38.5t-130 38.5zM129 700h474l-20 -183h-219l-8 -83h219l-19 -173h-219l-8 -78h219l-19 -183h-474z" />
    <glyph glyph-name="uni04D7" unicode="&#x4d7;" horiz-adv-x="632" 
d="M235.5 584.5q-45.5 37.5 -40.5 106.5h153q-3 -44 36 -44t46 44h153q-10 -67 -67 -105.5t-143 -38.5q-92 0 -137.5 37.5zM642 203h-376q-1 -30 18.5 -46.5t53.5 -16.5q28 0 44.5 5.5t21.5 18.5h230q-23 -84 -107 -131.5t-206 -47.5q-139 0 -215 59t-76 174q0 12 2 38
q13 130 105 201t236 71q85 0 149.5 -27t100 -77t35.5 -116q0 -17 -1 -25q-5 -44 -15 -80zM421 323q3 34 -13 52t-50 18q-32 0 -53 -18.5t-26 -51.5h142z" />
    <glyph glyph-name="uni04D8" unicode="&#x4d8;" horiz-adv-x="794" 
d="M203.5 19.5q-78.5 44.5 -118.5 119.5t-40 167q0 29 2 44l5 53h516q-3 51 -34 77.5t-81 26.5q-45 0 -75 -17.5t-46 -46.5h-264q19 71 74 135.5t140.5 105.5t189.5 41q111 0 190.5 -44.5t120 -120t40.5 -167.5q0 -28 -2 -43q-11 -101 -66 -186.5t-148.5 -137t-213.5 -51.5
q-111 0 -189.5 44.5zM502.5 218q35.5 25 51.5 70h-251q17 -95 118 -95q46 0 81.5 25z" />
    <glyph glyph-name="uni04D9" unicode="&#x4d9;" horiz-adv-x="632" 
d="M579.5 468.5q76.5 -59.5 76.5 -173.5q0 -12 -2 -38q-13 -130 -105.5 -201t-236.5 -71q-85 0 -149 27t-99.5 77t-35.5 116q0 16 1 25q5 44 15 80h376q1 30 -18.5 46.5t-53.5 16.5q-28 0 -44.5 -5.5t-21.5 -18.5h-230q23 84 106.5 131.5t205.5 47.5q139 0 215.5 -59.5z
M381 138.5q21 18.5 26 51.5h-142q-3 -34 13 -52t50 -18q32 0 53 18.5z" />
    <glyph glyph-name="uni04DA" unicode="&#x4da;" horiz-adv-x="794" 
d="M299 747q-24 23 -24 56q0 39 31 68t72 29q37 0 59.5 -22.5t22.5 -56.5q0 -38 -29 -67.5t-72 -29.5q-36 0 -60 23zM530.5 747q-22.5 23 -22.5 55q0 40 29 69t71 29q37 0 60.5 -23t23.5 -57q0 -38 -30.5 -67t-72.5 -29q-36 0 -58.5 23zM203.5 19.5q-78.5 44.5 -118.5 119.5
t-40 167q0 29 2 44l5 53h516q-3 51 -34 77.5t-81 26.5q-45 0 -75 -17.5t-46 -46.5h-264q19 71 74 135.5t140.5 105.5t189.5 41q111 0 190.5 -44.5t120 -120t40.5 -167.5q0 -28 -2 -43q-11 -101 -66 -186.5t-148.5 -137t-213.5 -51.5q-111 0 -189.5 44.5zM502.5 218
q35.5 25 51.5 70h-251q17 -95 118 -95q46 0 81.5 25z" />
    <glyph glyph-name="uni04DB" unicode="&#x4db;" horiz-adv-x="632" 
d="M171 572.5q-27 26.5 -27 65.5q0 30 16 56t43 42t59 16q42 0 69 -26.5t27 -65.5q0 -30 -16 -56t-43 -42t-59 -16q-42 0 -69 26.5zM423 572.5q-27 26.5 -27 65.5q0 30 16 56t43 42t59 16q42 0 69 -26.5t27 -65.5q0 -30 -16 -56t-43 -42t-59 -16q-42 0 -69 26.5z
M579.5 468.5q76.5 -59.5 76.5 -173.5q0 -12 -2 -38q-13 -130 -105.5 -201t-236.5 -71q-85 0 -149 27t-99.5 77t-35.5 116q0 16 1 25q5 44 15 80h376q1 30 -18.5 46.5t-53.5 16.5q-28 0 -44.5 -5.5t-21.5 -18.5h-230q23 84 106.5 131.5t205.5 47.5q139 0 215.5 -59.5z
M381 138.5q21 18.5 26 51.5h-142q-3 -34 13 -52t50 -18q32 0 53 18.5z" />
    <glyph glyph-name="uni04DC" unicode="&#x4dc;" horiz-adv-x="1181" 
d="M495 747q-24 23 -24 56q0 39 31 68t72 29q37 0 59.5 -22.5t22.5 -56.5q0 -38 -29 -67.5t-72 -29.5q-36 0 -60 23zM726.5 747q-22.5 23 -22.5 55q0 40 29 69t71 29q37 0 60.5 -23t23.5 -57q0 -38 -30.5 -67t-72.5 -29q-36 0 -58.5 23zM888 0l-139 296l-31 -296h-255
l31 296l-201 -296h-288l272 347h-8q-19 0 -39.5 14t-28.5 33l-16 41q-22 52 -55 52h-35l23 218h83q63 0 102 -17t65 -70l82 -169q11 -22 19.5 -29.5t22.5 -7.5h14l31 288h255l-31 -288h14q14 0 24.5 7.5t25.5 29.5l118 169q37 53 79.5 70t105.5 17h83l-23 -218h-35
q-35 0 -65 -52l-26 -41q-11 -19 -35 -33t-43 -14h-8l200 -347h-288z" />
    <glyph glyph-name="uni04DD" unicode="&#x4dd;" horiz-adv-x="1066" 
d="M397 572.5q-27 26.5 -27 65.5q0 30 16 56t43 42t59 16q42 0 69 -26.5t27 -65.5q0 -30 -16 -56t-43 -42t-59 -16q-42 0 -69 26.5zM649 572.5q-27 26.5 -27 65.5q0 30 16 56t43 42t59 16q42 0 69 -26.5t27 -65.5q0 -30 -16 -56t-43 -42t-59 -16q-42 0 -69 26.5zM1046 0
h-271l-100 206l-22 -206h-240l22 206l-144 -206h-271l197 258h-9q-33 0 -45 21l-17 32q-8 15 -17.5 21t-23.5 6h-10l18 180h55q54 0 84 -6t47.5 -21.5t32.5 -45.5l51 -106q9 -20 18 -28t27 -8h17l22 210h240l-22 -210h17q18 0 28.5 8t24.5 28l73 106q21 30 41.5 45.5
t51.5 21.5t85 6h55l-18 -180h-10q-14 0 -25 -6t-22 -21l-25 -32q-16 -21 -49 -21h-9z" />
    <glyph glyph-name="uni04DE" unicode="&#x4de;" horiz-adv-x="672" 
d="M235 747q-24 23 -24 56q0 39 31 68t72 29q37 0 59.5 -22.5t22.5 -56.5q0 -38 -29 -67.5t-72 -29.5q-36 0 -60 23zM466.5 747q-22.5 23 -22.5 55q0 40 29 69t71 29q37 0 60.5 -23t23.5 -57q0 -38 -30.5 -67t-72.5 -29q-36 0 -58.5 23zM304 220q0 -24 10.5 -36t36.5 -12
q30 0 42.5 18.5t12.5 43.5q0 26 -15 38t-46 12h-95l17 163h93q42 0 59.5 14t20.5 44q6 46 -42 46q-31 0 -42.5 -15.5t-14.5 -47.5h-270q10 96 84 164t259 68q133 0 215.5 -41t82.5 -138q0 -16 -1 -24q-4 -39 -27 -73.5t-55.5 -56.5t-63.5 -28q49 -13 80.5 -53.5t31.5 -99.5
q0 -76 -48.5 -127t-125 -75t-161.5 -24q-172 0 -240.5 59t-68.5 158q0 13 2 41h270q-1 -6 -1 -18z" />
    <glyph glyph-name="uni04DF" unicode="&#x4df;" horiz-adv-x="610" 
d="M161 572.5q-27 26.5 -27 65.5q0 30 16 56t43 42t59 16q42 0 69 -26.5t27 -65.5q0 -30 -16 -56t-43 -42t-59 -16q-42 0 -69 26.5zM413 572.5q-27 26.5 -27 65.5q0 30 16 56t43 42t59 16q42 0 69 -26.5t27 -65.5q0 -30 -16 -56t-43 -42t-59 -16q-42 0 -69 26.5zM271.5 135
q10.5 -12 37.5 -12q21 0 32.5 13.5t11.5 36.5q0 20 -14 28.5t-43 8.5h-61l12 110h59q32 0 49.5 14t17.5 37q0 15 -8.5 22t-23.5 7q-47 0 -50 -41h-239q7 69 77 119t234 50q114 0 185 -32.5t71 -102.5q0 -64 -41 -94t-97 -35q52 -3 83.5 -28.5t31.5 -76.5q0 -12 -1 -18
q-6 -52 -49.5 -88.5t-109 -54.5t-135.5 -18q-279 0 -279 168q0 15 1 23h240q-2 -24 8.5 -36z" />
    <glyph glyph-name="uni04E0" unicode="&#x4e0;" horiz-adv-x="672" 
d="M102 36.5q-70 56.5 -70 154.5q0 13 2 37h270q-6 -56 52 -56q31 0 46.5 25t15.5 51q0 29 -18 42.5t-53 13.5h-107l130 193h-252l22 203h580l-178 -271q62 -14 101 -61t39 -118q0 -17 -1 -26q-9 -82 -59.5 -137t-124.5 -81t-155 -26q-170 0 -240 56.5z" />
    <glyph glyph-name="uni04E1" unicode="&#x4e1;" horiz-adv-x="656" 
d="M74.5 -146.5q-76.5 53.5 -76.5 162.5q0 11 2 35h265q-3 -31 10 -47.5t42 -16.5q26 0 41.5 17.5t19.5 50.5q4 38 -22 55t-101 17h-61l130 183h-240l21 203h580l-185 -291q62 -10 97 -51.5t35 -107.5q0 -17 -1 -26q-12 -114 -98.5 -175.5t-224.5 -61.5q-157 0 -233.5 53.5z
" />
    <glyph glyph-name="uni04E2" unicode="&#x4e2;" horiz-adv-x="770" 
d="M275 850h410l-11 -106h-410zM315 48l-5 -48h-255l74 700h255l-36 -340l181 292l5 48h255l-74 -700h-255l36 340z" />
    <glyph glyph-name="uni04E3" unicode="&#x4e3;" horiz-adv-x="693" 
d="M219 680h388l-11 -112h-388zM293 32l-3 -32h-240l54 513h240l-27 -259l135 216l5 43h240l-54 -513h-240l26 248z" />
    <glyph glyph-name="uni04E4" unicode="&#x4e4;" horiz-adv-x="770" 
d="M290 737q-24 23 -24 56q0 39 31 68t72 29q37 0 59.5 -22.5t22.5 -56.5q0 -38 -29 -67.5t-72 -29.5q-36 0 -60 23zM521.5 737q-22.5 23 -22.5 55q0 40 29 69t71 29q37 0 60.5 -23t23.5 -57q0 -38 -30.5 -67t-72.5 -29q-36 0 -58.5 23zM315 48l-5 -48h-255l74 700h255
l-36 -340l181 292l5 48h255l-74 -700h-255l36 340z" />
    <glyph glyph-name="uni04E5" unicode="&#x4e5;" horiz-adv-x="693" 
d="M203 562.5q-27 26.5 -27 65.5q0 30 16 56t43 42t59 16q42 0 69 -26.5t27 -65.5q0 -30 -16 -56t-43 -42t-59 -16q-42 0 -69 26.5zM455 562.5q-27 26.5 -27 65.5q0 30 16 56t43 42t59 16q42 0 69 -26.5t27 -65.5q0 -30 -16 -56t-43 -42t-59 -16q-42 0 -69 26.5zM293 32
l-3 -32h-240l54 513h240l-27 -259l135 216l5 43h240l-54 -513h-240l26 248z" />
    <glyph glyph-name="uni04E6" unicode="&#x4e6;" horiz-adv-x="816" 
d="M308 747q-24 23 -24 56q0 39 31 68t72 29q37 0 59.5 -22.5t22.5 -56.5q0 -38 -29 -67.5t-72 -29.5q-36 0 -60 23zM539.5 747q-22.5 23 -22.5 55q0 40 29 69t71 29q37 0 60.5 -23t23.5 -57q0 -38 -30.5 -67t-72.5 -29q-36 0 -58.5 23zM210.5 20q-81.5 45 -123.5 120.5
t-42 167.5q0 14 2 42q11 101 68 186.5t152.5 137t216.5 51.5q113 0 194.5 -45t124 -121t42.5 -168q0 -13 -2 -41q-11 -100 -68 -186t-153 -137.5t-217 -51.5q-113 0 -194.5 45zM510 227q34 24 51.5 62.5t17.5 81.5q0 55 -30 90.5t-89 35.5q-47 0 -81 -24t-51 -62t-17 -82
q0 -55 30 -90.5t88 -35.5q47 0 81 24z" />
    <glyph glyph-name="uni04E7" unicode="&#x4e7;" horiz-adv-x="632" 
d="M178 572.5q-27 26.5 -27 65.5q0 30 16 56t43 42t59 16q42 0 69 -26.5t27 -65.5q0 -30 -16 -56t-43 -42t-59 -16q-42 0 -69 26.5zM430 572.5q-27 26.5 -27 65.5q0 30 16 56t43 42t59 16q42 0 69 -26.5t27 -65.5q0 -30 -16 -56t-43 -42t-59 -16q-42 0 -69 26.5zM163 14
q-64 29 -98.5 82.5t-34.5 126.5q0 10 2 34q9 83 53.5 144t118.5 94t167 33q87 0 151.5 -28.5t99 -82t34.5 -126.5q0 -10 -2 -34q-9 -83 -54 -144.5t-119 -94.5t-167 -33q-87 0 -151 29zM392.5 203.5q22.5 24.5 22.5 65.5q0 31 -17 48.5t-47 17.5q-35 0 -57.5 -24.5
t-22.5 -65.5q0 -31 17 -48.5t47 -17.5q35 0 57.5 24.5z" />
    <glyph glyph-name="uni04E8" unicode="&#x4e8;" horiz-adv-x="816" 
d="M678.5 680q81.5 -45 124 -121t42.5 -168q0 -13 -2 -41q-11 -100 -68 -186t-153 -137.5t-217 -51.5q-113 0 -194.5 45t-123.5 120.5t-42 167.5q0 14 2 42q11 101 68 186.5t152.5 137t216.5 51.5q113 0 194.5 -45zM369.5 466.5q-36.5 -30.5 -50.5 -79.5h260q-5 49 -35 79.5
t-84 30.5t-90.5 -30.5zM520.5 234.5q36.5 31.5 50.5 80.5h-260q4 -50 33.5 -81t84.5 -31t91.5 31.5z" />
    <glyph glyph-name="uni04E9" unicode="&#x4e9;" horiz-adv-x="632" 
d="M522.5 499.5q64.5 -28.5 99 -82t34.5 -126.5q0 -10 -2 -34q-9 -83 -54 -144.5t-119 -94.5t-167 -33q-87 0 -151 29t-98.5 82.5t-34.5 126.5q0 10 2 34q9 83 53.5 144t118.5 94t167 33q87 0 151.5 -28.5zM304 320q-20 -15 -28 -43h138q-2 28 -19 43t-44 15t-47 -15z
M381 193.5q20 14.5 29 41.5h-138q3 -27 19.5 -41.5t43.5 -14.5q26 0 46 14.5z" />
    <glyph glyph-name="uni04EA" unicode="&#x4ea;" horiz-adv-x="816" 
d="M308 747q-24 23 -24 56q0 39 31 68t72 29q37 0 59.5 -22.5t22.5 -56.5q0 -38 -29 -67.5t-72 -29.5q-36 0 -60 23zM539.5 747q-22.5 23 -22.5 55q0 40 29 69t71 29q37 0 60.5 -23t23.5 -57q0 -38 -30.5 -67t-72.5 -29q-36 0 -58.5 23zM678.5 680q81.5 -45 124 -121
t42.5 -168q0 -13 -2 -41q-11 -100 -68 -186t-153 -137.5t-217 -51.5q-113 0 -194.5 45t-123.5 120.5t-42 167.5q0 14 2 42q11 101 68 186.5t152.5 137t216.5 51.5q113 0 194.5 -45zM369.5 466.5q-36.5 -30.5 -50.5 -79.5h260q-5 49 -35 79.5t-84 30.5t-90.5 -30.5z
M520.5 234.5q36.5 31.5 50.5 80.5h-260q4 -50 33.5 -81t84.5 -31t91.5 31.5z" />
    <glyph glyph-name="uni04EB" unicode="&#x4eb;" horiz-adv-x="632" 
d="M178 572.5q-27 26.5 -27 65.5q0 30 16 56t43 42t59 16q42 0 69 -26.5t27 -65.5q0 -30 -16 -56t-43 -42t-59 -16q-42 0 -69 26.5zM430 572.5q-27 26.5 -27 65.5q0 30 16 56t43 42t59 16q42 0 69 -26.5t27 -65.5q0 -30 -16 -56t-43 -42t-59 -16q-42 0 -69 26.5z
M522.5 499.5q64.5 -28.5 99 -82t34.5 -126.5q0 -10 -2 -34q-9 -83 -54 -144.5t-119 -94.5t-167 -33q-87 0 -151 29t-98.5 82.5t-34.5 126.5q0 10 2 34q9 83 53.5 144t118.5 94t167 33q87 0 151.5 -28.5zM304 320q-20 -15 -28 -43h138q-2 28 -19 43t-44 15t-47 -15z
M381 193.5q20 14.5 29 41.5h-138q3 -27 19.5 -41.5t43.5 -14.5q26 0 46 14.5z" />
    <glyph glyph-name="uni04EC" unicode="&#x4ec;" horiz-adv-x="815" 
d="M298 747q-24 23 -24 56q0 39 31 68t72 29q37 0 59.5 -22.5t22.5 -56.5q0 -38 -29 -67.5t-72 -29.5q-36 0 -60 23zM529.5 747q-22.5 23 -22.5 55q0 40 29 69t71 29q37 0 60.5 -23t23.5 -57q0 -38 -30.5 -67t-72.5 -29q-36 0 -58.5 23zM668.5 684.5q84.5 -40.5 130 -115.5
t45.5 -174q0 -30 -2 -45q-12 -111 -72 -196t-158 -132t-220 -47q-108 0 -189.5 40t-124 112.5t-37.5 165.5h273q3 -45 33.5 -68t86.5 -23q44 0 79 24t53 66h-157l12 116h157q-9 42 -39 66t-74 24q-53 0 -89 -23.5t-50 -67.5h-273q15 93 73 165.5t147.5 112.5t197.5 40
q113 0 197.5 -40.5z" />
    <glyph glyph-name="uni04ED" unicode="&#x4ed;" horiz-adv-x="632" 
d="M177 572.5q-27 26.5 -27 65.5q0 30 16 56t43 42t59 16q42 0 69 -26.5t27 -65.5q0 -30 -16 -56t-43 -42t-59 -16q-42 0 -69 26.5zM429 572.5q-27 26.5 -27 65.5q0 30 16 56t43 42t59 16q42 0 69 -26.5t27 -65.5q0 -30 -16 -56t-43 -42t-59 -16q-42 0 -69 26.5zM36 297
q24 107 112.5 171.5t223.5 64.5q94 0 158 -31.5t95 -86t31 -124.5q0 -11 -2 -35q-8 -77 -49.5 -139.5t-115 -99.5t-175.5 -37q-136 0 -210.5 62.5t-76.5 169.5h241q3 -33 19.5 -47.5t51.5 -14.5q32 0 52.5 16t25.5 48h-111l9 80h111q1 33 -15 51t-49 18q-36 0 -56 -16
t-30 -50h-240z" />
    <glyph glyph-name="uni04EE" unicode="&#x4ee;" horiz-adv-x="714" 
d="M649 754h-410l11 106h410zM808 700l-421 -700h-287l135 230l-171 470h300l50 -223l109 223h285z" />
    <glyph glyph-name="uni04EF" unicode="&#x4ef;" horiz-adv-x="683" 
d="M215 690h388l-12 -112h-388zM687 513l-49 -463q-6 -64 -34.5 -114t-68.5 -78q-44 -32 -92.5 -45t-128.5 -13q-81 0 -129 12.5t-81 40.5q-29 25 -46.5 63t-13.5 75h240q-2 -16 11 -26.5t37 -10.5q29 0 44 13.5t17 36.5l12 107q-23 -41 -66.5 -64.5t-101.5 -23.5
q-89 0 -129 43.5t-40 126.5q0 25 3 50l28 270h240l-26 -247q-1 -6 -1 -17q0 -53 46 -53q28 0 44 19.5t20 64.5l25 233h240z" />
    <glyph glyph-name="uni04F0" unicode="&#x4f0;" horiz-adv-x="714" 
d="M265 747q-24 23 -24 56q0 39 31 68t72 29q37 0 59.5 -22.5t22.5 -56.5q0 -38 -29 -67.5t-72 -29.5q-36 0 -60 23zM496.5 747q-22.5 23 -22.5 55q0 40 29 69t71 29q37 0 60.5 -23t23.5 -57q0 -38 -30.5 -67t-72.5 -29q-36 0 -58.5 23zM808 700l-421 -700h-287l135 230
l-171 470h300l50 -223l109 223h285z" />
    <glyph glyph-name="uni04F1" unicode="&#x4f1;" horiz-adv-x="683" 
d="M198 572.5q-27 26.5 -27 65.5q0 30 16 56t43 42t59 16q42 0 69 -26.5t27 -65.5q0 -30 -16 -56t-43 -42t-59 -16q-42 0 -69 26.5zM450 572.5q-27 26.5 -27 65.5q0 30 16 56t43 42t59 16q42 0 69 -26.5t27 -65.5q0 -30 -16 -56t-43 -42t-59 -16q-42 0 -69 26.5zM687 513
l-49 -463q-6 -64 -34.5 -114t-68.5 -78q-44 -32 -92.5 -45t-128.5 -13q-81 0 -129 12.5t-81 40.5q-29 25 -46.5 63t-13.5 75h240q-2 -16 11 -26.5t37 -10.5q29 0 44 13.5t17 36.5l12 107q-23 -41 -66.5 -64.5t-101.5 -23.5q-89 0 -129 43.5t-40 126.5q0 25 3 50l28 270h240
l-26 -247q-1 -6 -1 -17q0 -53 46 -53q28 0 44 19.5t20 64.5l25 233h240z" />
    <glyph glyph-name="uni04F2" unicode="&#x4f2;" horiz-adv-x="714" 
d="M360 741l-68 28l165 131l109 -42zM494 769l164 131l108 -45l-205 -115zM808 700l-421 -700h-287l135 230l-171 470h300l50 -223l109 223h285z" />
    <glyph glyph-name="uni04F3" unicode="&#x4f3;" horiz-adv-x="683" 
d="M241 581l144 148l88 -67l-162 -118zM436 581l144 148l88 -67l-162 -118zM687 513l-49 -463q-6 -64 -34.5 -114t-68.5 -78q-44 -32 -92.5 -45t-128.5 -13q-81 0 -129 12.5t-81 40.5q-29 25 -46.5 63t-13.5 75h240q-2 -16 11 -26.5t37 -10.5q29 0 44 13.5t17 36.5l12 107
q-23 -41 -66.5 -64.5t-101.5 -23.5q-89 0 -129 43.5t-40 126.5q0 25 3 50l28 270h240l-26 -247q-1 -6 -1 -17q0 -53 46 -53q28 0 44 19.5t20 64.5l25 233h240z" />
    <glyph glyph-name="uni04F4" unicode="&#x4f4;" horiz-adv-x="708" 
d="M236 747q-24 23 -24 56q0 39 31 68t72 29q37 0 59.5 -22.5t22.5 -56.5q0 -38 -29 -67.5t-72 -29.5q-36 0 -60 23zM467.5 747q-22.5 23 -22.5 55q0 40 29 69t71 29q37 0 60.5 -23t23.5 -57q0 -38 -30.5 -67t-72.5 -29q-36 0 -58.5 23zM420 209q-54 -23 -143 -23
q-62 0 -109.5 24.5t-74 69.5t-26.5 104q0 18 1 27l31 289h255l-25 -236q-1 -9 -1 -26q0 -78 63 -78q26 0 46 11l35 329h255l-74 -700h-255z" />
    <glyph glyph-name="uni04F5" unicode="&#x4f5;" horiz-adv-x="642" 
d="M168 572.5q-27 26.5 -27 65.5q0 30 16 56t43 42t59 16q42 0 69 -26.5t27 -65.5q0 -30 -16 -56t-43 -42t-59 -16q-42 0 -69 26.5zM420 572.5q-27 26.5 -27 65.5q0 30 16 56t43 42t59 16q42 0 69 -26.5t27 -65.5q0 -30 -16 -56t-43 -42t-59 -16q-42 0 -69 26.5zM368 149
q-60 -20 -116 -20q-99 0 -152 40t-53 117q0 16 1 25l21 202h245l-17 -164q-1 -5 -1 -15q0 -53 44 -53q27 0 43 10l23 222h240l-54 -513h-240z" />
    <glyph glyph-name="uni04F6" unicode="&#x4f6;" horiz-adv-x="509" 
d="M361 485l-30 -286h55l-34 -320h-230l13 121h-80l74 700h449l-23 -215h-194z" />
    <glyph glyph-name="uni04F7" unicode="&#x4f7;" horiz-adv-x="461" 
d="M321 297l-10 -98h55l-34 -320h-230l13 121h-65l54 513h391l-23 -216h-151z" />
    <glyph glyph-name="uni04F8" unicode="&#x4f8;" horiz-adv-x="1039" 
d="M416 747q-24 23 -24 56q0 39 31 68t72 29q37 0 59.5 -22.5t22.5 -56.5q0 -38 -29 -67.5t-72 -29.5q-36 0 -60 23zM647.5 747q-22.5 23 -22.5 55q0 40 29 69t71 29q37 0 60.5 -23t23.5 -57q0 -38 -30.5 -67t-72.5 -29q-36 0 -58.5 23zM129 700h255l-27 -251h149
q57 0 103.5 -26.5t73 -72.5t26.5 -101q0 -66 -35 -123t-93 -91.5t-122 -34.5h-404zM803 700h255l-74 -700h-255zM369 161q34 0 54.5 17t24.5 48q3 28 -14.5 44.5t-51.5 16.5h-42l-13 -126h42z" />
    <glyph glyph-name="uni04F9" unicode="&#x4f9;" horiz-adv-x="930" 
d="M308 572.5q-27 26.5 -27 65.5q0 30 16 56t43 42t59 16q42 0 69 -26.5t27 -65.5q0 -30 -16 -56t-43 -42t-59 -16q-42 0 -69 26.5zM560 572.5q-27 26.5 -27 65.5q0 30 16 56t43 42t59 16q42 0 69 -26.5t27 -65.5q0 -30 -16 -56t-43 -42t-59 -16q-42 0 -69 26.5zM344 513
l-16 -153h85q119 0 169 -44.5t50 -113.5q0 -15 -1 -22q-4 -40 -30.5 -81.5t-82.5 -70t-143 -28.5h-325l54 513h240zM694 513h240l-54 -513h-240zM303 126h29q25 0 41 16.5t16 39.5q0 19 -12 31.5t-33 12.5h-30z" />
    <glyph glyph-name="uni04FC" unicode="&#x4fc;" horiz-adv-x="722" 
d="M387 -182.5q-22 3.5 -49 11.5l15 144q29 -3 36 -3q24 0 34.5 8.5t10.5 26.5q0 24 -24 89l-31 81l-98 -175h-276l245 350l-171 350h276l61 -175l99 175h276l-245 -350l105 -219q20 -43 28.5 -71t8.5 -55q0 -16 -1 -24q-9 -85 -69.5 -126t-178.5 -41q-30 0 -52 3.5z" />
    <glyph glyph-name="uni04FD" unicode="&#x4fd;" horiz-adv-x="682" 
d="M348 -182.5q-32 3.5 -50 11.5l14 135l15 -3t10 -1q26 0 38 11t15 35q2 18 -2.5 38t-18.5 48l-14 29l-72 -121h-278l209 259l-152 254h278l44 -116l69 116h278l-206 -254l24 -38q46 -73 65 -122.5t19 -94.5q0 -9 -2 -31q-8 -77 -59 -118t-160 -41q-32 0 -64 3.5z" />
    <glyph glyph-name="uni0510" unicode="&#x510;" horiz-adv-x="672" 
d="M687 238q-12 -117 -91.5 -187.5t-269.5 -70.5q-77 0 -143.5 19.5t-108 61.5t-41.5 104q0 50 21 91t55.5 67.5t73.5 35.5q-29 5 -55.5 25t-43 51.5t-16.5 67.5l1 14q12 111 105.5 157t235.5 46q295 0 295 -200q0 -12 -2 -32h-270q1 7 1 21q0 21 -9.5 31.5t-34.5 10.5
q-53 0 -53 -57q0 -24 15.5 -35.5t53.5 -11.5h93l-17 -163h-95q-34 0 -52 -14.5t-22 -47.5q-4 -50 44 -50q31 0 44 16t16 50h270z" />
    <glyph glyph-name="uni0511" unicode="&#x511;" horiz-adv-x="610" 
d="M623 171q-19 -191 -318 -191q-67 0 -127 16.5t-97 50t-37 81.5l1 13q6 60 44 90t96 33q-48 4 -81 27.5t-33 71.5q0 87 79.5 126t206.5 39q155 0 216.5 -45t61.5 -109l-1 -15h-239q2 20 -7.5 30.5t-34.5 10.5q-18 0 -29 -10t-11 -29t15 -30t44 -11h59l-12 -110h-61
q-31 0 -47 -10.5t-19 -34.5q-2 -20 7 -31t28 -11q27 0 40.5 12t15.5 36h240z" />
    <glyph glyph-name="uni0512" unicode="&#x512;" horiz-adv-x="775" 
d="M794 700l-74 -700q-10 -99 -73 -142.5t-179 -43.5q-30 0 -52 3.5t-47 11.5l15 144q29 -3 42 -3q36 0 39 30l52 491h-111l-19 -176q-17 -163 -90 -244t-187 -81h-96l21 205h25q30 0 48 32t23 78l42 395h621z" />
    <glyph glyph-name="uni0513" unicode="&#x513;" horiz-adv-x="691" 
d="M695 513l-54 -513q-10 -94 -74 -140t-178 -46q-24 0 -41.5 3.5t-37.5 11.5l14 135l15 -3t11 -1q47 0 51 40l34 327h-86l-8 -75q-13 -126 -77.5 -193.5t-185.5 -67.5h-59l20 186h19q20 0 30 18t13 53l28 265h566z" />
    <glyph glyph-name="uni051C" unicode="&#x51c;" horiz-adv-x="1144" 
d="M64 700h270l66 -378l143 378h206l63 -378l146 378h270l-331 -700h-231l-60 322l-128 -322h-231z" />
    <glyph glyph-name="uni051D" unicode="&#x51d;" horiz-adv-x="910" 
d="M54 513h239l40 -259l71 259h210l17 -259l94 259h239l-231 -513h-226l-29 216l-75 -216h-226z" />
    <glyph glyph-name="uni0524" unicode="&#x524;" horiz-adv-x="768" 
d="M789 199l-34 -320h-230l13 121h-80l52 491h-148l-52 -491h-255l74 700h658l-53 -501h55z" />
    <glyph glyph-name="uni0525" unicode="&#x525;" horiz-adv-x="718" 
d="M719 199l-34 -320h-230l13 121h-65l34 327h-113l-34 -327h-240l54 513h593l-33 -314h55z" />
    <glyph glyph-name="uni0526" unicode="&#x526;" horiz-adv-x="758" 
d="M759 199l-34 -320h-230l13 121h-80l25 236q1 9 1 26q0 78 -63 78q-26 0 -46 -11l-35 -329h-255l74 700h255l-22 -209q53 23 143 23q62 0 109.5 -24.5t73.5 -69.5t26 -104q0 -18 -1 -27l-9 -90h55z" />
    <glyph glyph-name="uni0527" unicode="&#x527;" horiz-adv-x="718" 
d="M719 199l-34 -320h-230l13 121h-70l27 258q1 6 1 16q0 26 -12 40t-34 14q-29 0 -44 -19.5t-20 -63.5l-26 -245h-240l74 700h240l-28 -265q23 46 67.5 69.5t106.5 23.5q168 0 168 -172q0 -22 -3 -48l-11 -109h55z" />
    <glyph glyph-name="uni0E3F" unicode="&#xe3f;" horiz-adv-x="699" 
d="M670.5 299.5q34.5 -36.5 34.5 -93.5q0 -61 -31.5 -108t-88 -72.5t-128.5 -25.5h-42l-11 -100h-102l11 100h-258l71 679h258l11 101h102l-11 -101h36q96 0 151 -42t55 -114q0 -68 -43 -118.5t-111 -61.5q62 -7 96.5 -43.5zM366 531l-13 -118h42q33 0 53.5 18t20.5 48
q0 24 -16 38t-45 14h-42zM426.5 184.5q21.5 17.5 21.5 46.5q0 24 -17.5 37.5t-48.5 13.5h-42l-12 -115h42q35 0 56.5 17.5z" />
    <glyph glyph-name="Wgrave" unicode="&#x1e80;" horiz-adv-x="1144" 
d="M519 808l50 92l227 -83l-50 -92zM64 700h270l66 -378l143 378h206l63 -378l146 378h270l-331 -700h-231l-60 322l-128 -322h-231z" />
    <glyph glyph-name="wgrave" unicode="&#x1e81;" horiz-adv-x="910" 
d="M379 689l94 95l160 -144l-94 -95zM54 513h239l40 -259l71 259h210l17 -259l94 259h239l-231 -513h-226l-29 216l-75 -216h-226z" />
    <glyph glyph-name="Wacute" unicode="&#x1e82;" horiz-adv-x="1144" 
d="M520 817l245 83l30 -92l-245 -83zM64 700h270l66 -378l143 378h206l63 -378l146 378h270l-331 -700h-231l-60 322l-128 -322h-231z" />
    <glyph glyph-name="wacute" unicode="&#x1e83;" horiz-adv-x="910" 
d="M388 645l190 144l74 -95l-190 -144zM54 513h239l40 -259l71 259h210l17 -259l94 259h239l-231 -513h-226l-29 216l-75 -216h-226z" />
    <glyph glyph-name="Wdieresis" unicode="&#x1e84;" horiz-adv-x="1144" 
d="M472 747q-24 23 -24 56q0 39 31 68t72 29q37 0 59.5 -22.5t22.5 -56.5q0 -38 -29 -67.5t-72 -29.5q-36 0 -60 23zM703.5 747q-22.5 23 -22.5 55q0 40 29 69t71 29q37 0 60.5 -23t23.5 -57q0 -38 -30.5 -67t-72.5 -29q-36 0 -58.5 23zM64 700h270l66 -378l143 378h206
l63 -378l146 378h270l-331 -700h-231l-60 322l-128 -322h-231z" />
    <glyph glyph-name="wdieresis" unicode="&#x1e85;" horiz-adv-x="910" 
d="M317 572.5q-27 26.5 -27 65.5q0 30 16 56t43 42t59 16q42 0 69 -26.5t27 -65.5q0 -30 -16 -56t-43 -42t-59 -16q-42 0 -69 26.5zM569 572.5q-27 26.5 -27 65.5q0 30 16 56t43 42t59 16q42 0 69 -26.5t27 -65.5q0 -30 -16 -56t-43 -42t-59 -16q-42 0 -69 26.5zM54 513h239
l40 -259l71 259h210l17 -259l94 259h239l-231 -513h-226l-29 216l-75 -216h-226z" />
    <glyph glyph-name="Ygrave" unicode="&#x1ef2;" horiz-adv-x="714" 
d="M539 725l-227 83l50 92l227 -83zM808 700l-421 -700h-287l135 230l-171 470h300l50 -223l109 223h285z" />
    <glyph glyph-name="ygrave" unicode="&#x1ef3;" horiz-adv-x="683" 
d="M260 689l94 95l160 -144l-94 -95zM687 513l-49 -463q-6 -64 -34.5 -114t-68.5 -78q-44 -32 -92.5 -45t-128.5 -13q-81 0 -129 12.5t-81 40.5q-29 25 -46.5 63t-13.5 75h240q-2 -16 11 -26.5t37 -10.5q29 0 44 13.5t17 36.5l12 107q-23 -41 -66.5 -64.5t-101.5 -23.5
q-89 0 -129 43.5t-40 126.5q0 25 3 50l28 270h240l-26 -247q-1 -6 -1 -17q0 -53 46 -53q28 0 44 19.5t20 64.5l25 233h240z" />
    <glyph glyph-name="uni2002" unicode="&#x2002;" horiz-adv-x="500" 
 />
    <glyph glyph-name="uni2003" unicode="&#x2003;" horiz-adv-x="1000" 
 />
    <glyph glyph-name="uni2004" unicode="&#x2004;" horiz-adv-x="0" 
 />
    <glyph glyph-name="uni2005" unicode="&#x2005;" horiz-adv-x="250" 
 />
    <glyph glyph-name="uni2009" unicode="&#x2009;" horiz-adv-x="135" 
 />
    <glyph glyph-name="uni200A" unicode="&#x200a;" horiz-adv-x="75" 
 />
    <glyph glyph-name="endash" unicode="&#x2013;" horiz-adv-x="628" 
d="M74 369h558l-14 -133h-558z" />
    <glyph glyph-name="emdash" unicode="&#x2014;" horiz-adv-x="807" 
d="M74 369h737l-14 -133h-737z" />
    <glyph glyph-name="quoteleft" unicode="&#x2018;" horiz-adv-x="317" 
d="M124 393q-31 36 -31 100q0 9 2 29q12 110 72 163.5t161 53.5q10 0 17.5 -1t13.5 -2l-7 -72q-23 3 -39 3q-55 0 -88 -30q-28 -25 -38 -65q8 8 21.5 12.5t29.5 4.5q47 0 73.5 -30t26.5 -74q0 -33 -17 -62.5t-47 -47.5t-66 -18q-53 0 -84 36z" />
    <glyph glyph-name="quoteright" unicode="&#x2019;" horiz-adv-x="317" 
d="M307 689q31 -36 31 -100q0 -9 -2 -29q-12 -110 -72 -163.5t-161 -53.5q-10 0 -18 1t-14 2l8 72q23 -3 39 -3q55 0 88 30q28 25 38 65q-8 -8 -21.5 -12.5t-29.5 -4.5q-47 0 -73.5 30t-26.5 74q0 33 17 62.5t47 47.5t66 18q53 0 84 -36z" />
    <glyph glyph-name="quotesinglbase" unicode="&#x201a;" horiz-adv-x="317" 
d="M249 138q31 -36 31 -100q0 -9 -2 -29q-12 -110 -72 -163.5t-161 -53.5q-10 0 -18 1t-14 2l8 72q23 -3 39 -3q55 0 88 30q28 25 38 65q-8 -8 -21.5 -12.5t-29.5 -4.5q-47 0 -73.5 30t-26.5 74q0 33 17 62.5t47 47.5t66 18q53 0 84 -36z" />
    <glyph glyph-name="quotedblleft" unicode="&#x201c;" horiz-adv-x="584" 
d="M124 393q-31 36 -31 100q0 9 2 29q12 110 72 163.5t161 53.5q10 0 17.5 -1t13.5 -2l-7 -72q-23 3 -39 3q-55 0 -88 -30q-28 -25 -38 -65q8 8 21.5 12.5t29.5 4.5q47 0 73.5 -30t26.5 -74q0 -33 -17 -62.5t-47 -47.5t-66 -18q-53 0 -84 36zM391 393q-31 36 -31 100
q0 9 2 29q12 110 72 163.5t161 53.5q10 0 17.5 -1t13.5 -2l-7 -72q-23 3 -39 3q-55 0 -88 -30q-28 -25 -38 -65q8 8 21.5 12.5t29.5 4.5q47 0 73.5 -30t26.5 -74q0 -33 -17 -62.5t-47 -47.5t-66 -18q-53 0 -84 36z" />
    <glyph glyph-name="quotedblright" unicode="&#x201d;" horiz-adv-x="584" 
d="M307 689q31 -36 31 -100q0 -9 -2 -29q-12 -110 -72 -163.5t-161 -53.5q-10 0 -18 1t-14 2l8 72q23 -3 39 -3q55 0 88 30q28 25 38 65q-8 -8 -21.5 -12.5t-29.5 -4.5q-47 0 -73.5 30t-26.5 74q0 33 17 62.5t47 47.5t66 18q53 0 84 -36zM574 689q31 -36 31 -100
q0 -9 -2 -29q-12 -110 -72 -163.5t-161 -53.5q-10 0 -18 1t-14 2l8 72q22 -3 39 -3q55 0 88 30q28 25 38 65q-8 -8 -21.5 -12.5t-29.5 -4.5q-47 0 -73.5 30t-26.5 74q0 33 17 62.5t47 47.5t66 18q53 0 84 -36z" />
    <glyph glyph-name="quotedblbase" unicode="&#x201e;" horiz-adv-x="584" 
d="M249 138q31 -36 31 -100q0 -9 -2 -29q-12 -110 -72 -163.5t-161 -53.5q-10 0 -18 1t-14 2l8 72q23 -3 39 -3q55 0 88 30q28 25 38 65q-8 -8 -21.5 -12.5t-29.5 -4.5q-47 0 -73.5 30t-26.5 74q0 33 17 62.5t47 47.5t66 18q53 0 84 -36zM516 138q31 -36 31 -100
q0 -9 -2 -29q-12 -110 -72 -163.5t-161 -53.5q-10 0 -18 1t-14 2l8 72q23 -3 39 -3q55 0 88 30q28 25 38 65q-8 -8 -21.5 -12.5t-29.5 -4.5q-47 0 -73.5 30t-26.5 74q0 33 17 62.5t47 47.5t66 18q53 0 84 -36z" />
    <glyph glyph-name="dagger" unicode="&#x2020;" horiz-adv-x="485" 
d="M198 310h-115l14 140h115l28 267h155l-28 -267h115l-14 -140h-115l-52 -491h-155z" />
    <glyph glyph-name="daggerdbl" unicode="&#x2021;" horiz-adv-x="485" 
d="M165 0h-115l15 140h115l24 233h-115l15 140h115l21 204h155l-21 -204h115l-15 -140h-115l-24 -233h115l-15 -140h-115l-19 -181h-155z" />
    <glyph glyph-name="bullet" unicode="&#x2022;" horiz-adv-x="393" 
d="M132 164q-35 20 -55 54t-20 76q0 49 25.5 91.5t69 68t94.5 25.5q46 0 81.5 -20t55 -54t19.5 -76q0 -49 -26 -91.5t-70 -68t-95 -25.5q-44 0 -79 20z" />
    <glyph glyph-name="ellipsis" unicode="&#x2026;" horiz-adv-x="998" 
d="M93 14q-33 33 -33 80q0 37 19.5 69t52.5 51t72 19q50 0 83 -33t33 -80q0 -36 -19 -68.5t-52 -51.5t-71 -19q-52 0 -85 33zM411 14q-33 33 -33 80q0 37 19.5 69t52.5 51t72 19q50 0 83 -33t33 -80q0 -36 -19 -68.5t-52 -51.5t-71 -19q-52 0 -85 33zM733 14q-33 33 -33 80
q0 37 19.5 69t52.5 51t72 19q50 0 83 -33t33 -80q0 -36 -19 -68.5t-52 -51.5t-71 -19q-52 0 -85 33z" />
    <glyph glyph-name="perthousand" unicode="&#x2030;" horiz-adv-x="1249" 
d="M148 25l551 688l75 -53l-551 -688zM154 370.5q-39 20.5 -59.5 55t-20.5 76.5q0 49 26 92t74 69.5t109 26.5q56 0 96 -20.5t60.5 -55.5t20.5 -77q0 -49 -26.5 -92t-75 -69t-111.5 -26q-54 0 -93 20.5zM309 476.5q18 20.5 18 51.5q0 25 -14 41t-42 16q-31 0 -49.5 -21.5
t-18.5 -53.5q0 -24 14.5 -39t40.5 -15q33 0 51 20.5zM537 10.5q-39 20.5 -59.5 55t-20.5 76.5q0 49 26 92t74 69.5t109 26.5q56 0 96 -20.5t60.5 -55.5t20.5 -77q0 -49 -26.5 -92t-75 -69t-111.5 -26q-54 0 -93 20.5zM941 10.5q-39 20.5 -59.5 55t-20.5 76.5q0 49 26 92
t74 69.5t109 26.5q56 0 96 -20.5t60.5 -55.5t20.5 -77q0 -49 -26.5 -92t-75 -69t-111.5 -26q-54 0 -93 20.5zM692.5 117q18.5 21 18.5 53q0 24 -14.5 39.5t-41.5 15.5q-31 0 -50 -21.5t-19 -53.5q0 -24 14.5 -39t40.5 -15q33 0 51.5 21zM1096.5 117q18.5 21 18.5 53
q0 24 -14.5 39.5t-41.5 15.5q-31 0 -50 -21.5t-19 -53.5q0 -24 14.5 -39t40.5 -15q33 0 51.5 21z" />
    <glyph glyph-name="guilsinglleft" unicode="&#x2039;" horiz-adv-x="346" 
d="M30 286l261 229l88 -110l-141 -119l116 -119l-111 -110z" />
    <glyph glyph-name="guilsinglright" unicode="&#x203a;" horiz-adv-x="346" 
d="M28 167l140 119l-115 119l110 110l213 -229l-261 -229z" />
    <glyph glyph-name="fraction" unicode="&#x2044;" horiz-adv-x="197" 
d="M-186 36l543 682l99 -66l-544 -682z" />
    <glyph glyph-name="uni2070" unicode="&#x2070;" horiz-adv-x="472" 
d="M148.5 432q-43.5 44 -43.5 128q0 11 2 37q11 101 65.5 155t147.5 54q85 0 129 -44t44 -128q0 -11 -2 -37q-11 -102 -66 -155.5t-149 -53.5q-84 0 -127.5 44zM327 523q13 22 19 74q2 28 2 36q0 32 -9.5 46.5t-30.5 14.5q-26 0 -39 -22.5t-18 -74.5q-2 -14 -2 -38
q0 -31 9.5 -44.5t29.5 -13.5q26 0 39 22z" />
    <glyph glyph-name="uni2074" unicode="&#x2074;" horiz-adv-x="457" 
d="M463 492h-32l-10 -92h-149l10 92h-175l31 302h148l-19 -182h27l9 86h149l-9 -86h32z" />
    <glyph glyph-name="uni2075" unicode="&#x2075;" horiz-adv-x="449" 
d="M138.5 421.5q-40.5 33.5 -38.5 100.5h144q2 -24 32 -24q20 0 32 13t12 35q0 15 -9 25t-25 10q-13 0 -23.5 -6.5t-14.5 -16.5h-129l24 236h333l-10 -101h-197l-5 -44q28 22 81 22q56 0 89 -31t33 -82q0 -10 -1 -16q-8 -71 -61 -112.5t-137 -41.5q-89 0 -129.5 33.5z" />
    <glyph glyph-name="uni2076" unicode="&#x2076;" horiz-adv-x="438" 
d="M428.5 657q30.5 -36 30.5 -89t-25.5 -94t-70.5 -63.5t-103 -22.5q-76 0 -120.5 38.5t-44.5 103.5q0 60 35 108l-2 -1l124 157h167l-76 -89q55 -12 85.5 -48zM303.5 517.5q12.5 15.5 12.5 38.5q0 18 -9 29t-25 11q-19 0 -31.5 -15t-12.5 -39q0 -18 9.5 -29t24.5 -11
q19 0 31.5 15.5z" />
    <glyph glyph-name="uni2077" unicode="&#x2077;" horiz-adv-x="424" 
d="M261 674h-156l12 120h369l-220 -394h-171z" />
    <glyph glyph-name="uni2078" unicode="&#x2078;" horiz-adv-x="450" 
d="M141 415.5q-45 27.5 -45 79.5q0 42 23.5 70t69.5 37q-29 8 -45.5 29t-16.5 50q0 61 49.5 93t133.5 32q74 0 116.5 -26t42.5 -75q0 -38 -22 -65.5t-60 -37.5q73 -14 73 -82q0 -64 -52 -98t-142 -34q-80 0 -125 27.5zM322 661.5q11 11.5 11 29.5q0 14 -8.5 23t-23.5 9
q-17 0 -28.5 -11.5t-11.5 -29.5q0 -15 8.5 -23.5t23.5 -8.5q18 0 29 11.5zM306 490q12 13 12 32q0 15 -9.5 24t-25.5 9q-18 0 -30.5 -12t-12.5 -31q0 -15 9.5 -25t25.5 -10q19 0 31 13z" />
    <glyph glyph-name="uni2079" unicode="&#x2079;" horiz-adv-x="438" 
d="M433 556l3 1l-125 -157h-167l76 89q-54 12 -84.5 47.5t-30.5 88.5t25.5 94.5t70.5 64t103 22.5q76 0 120.5 -38.5t44.5 -103.5q0 -59 -36 -108zM260.5 676.5q-12.5 -15.5 -12.5 -38.5q0 -18 9 -29t25 -11q19 0 31.5 15t12.5 39q0 18 -9.5 29t-24.5 11q-19 0 -31.5 -15.5z
" />
    <glyph glyph-name="uni207A" unicode="&#x207a;" horiz-adv-x="443" 
d="M220 532h-90l11 109h90l9 85h115l-9 -85h90l-11 -109h-90l-9 -85h-115z" />
    <glyph glyph-name="uni207B" unicode="&#x207b;" horiz-adv-x="443" 
d="M142 645h295l-13 -117h-295z" />
    <glyph glyph-name="uni207C" unicode="&#x207c;" horiz-adv-x="444" 
d="M151 711h292l-10 -97h-292zM135 563h292l-10 -97h-292z" />
    <glyph glyph-name="uni207D" unicode="&#x207d;" horiz-adv-x="296" 
d="M133.5 435q-30.5 59 -30.5 135q0 11 2 39q10 90 55 158t118 126l85 -79q-58 -53 -85 -97.5t-33 -107.5q-2 -24 -2 -33q0 -49 18 -88t58 -84l-101 -79q-54 51 -84.5 110z" />
    <glyph glyph-name="uni207E" unicode="&#x207e;" horiz-adv-x="296" 
d="M61 404q57 52 84.5 97t33.5 108q2 24 2 33q0 49 -18 88t-58 84l101 79q54 -51 84.5 -110t30.5 -135q0 -11 -2 -39q-10 -90 -55 -158t-118 -126z" />
    <glyph glyph-name="uni2080" unicode="&#x2080;" horiz-adv-x="472" 
d="M97.5 -48q-43.5 44 -43.5 128q0 11 2 37q11 101 65.5 155t147.5 54q85 0 129 -44t44 -128q0 -11 -2 -37q-10 -102 -65.5 -155.5t-149.5 -53.5q-84 0 -127.5 44zM276.5 43q13.5 22 18.5 74q2 14 2 37q0 32 -9.5 46t-30.5 14q-25 0 -38 -22t-19 -75q-2 -28 -2 -37
q0 -31 9.5 -45t29.5 -14q26 0 39.5 22z" />
    <glyph glyph-name="uni2081" unicode="&#x2081;" horiz-adv-x="349" 
d="M139 122h-82l12 114q62 0 87.5 19.5t29.5 58.5h125l-41 -394h-152z" />
    <glyph glyph-name="uni2082" unicode="&#x2082;" horiz-adv-x="447" 
d="M63.5 51.5q30.5 47.5 93.5 75.5l79 35q18 8 26.5 17.5t8.5 22.5q0 21 -23 21q-31 0 -34 -37h-152q6 63 60 101.5t136 38.5q79 0 122 -28t43 -79q0 -10 -1 -15q-4 -43 -27 -71.5t-67 -48.5l-63 -28q-22 -9 -35 -24h165l-11 -112h-359q8 84 38.5 131.5z" />
    <glyph glyph-name="uni2083" unicode="&#x2083;" horiz-adv-x="445" 
d="M42 26q0 14 1 21h151q-3 -29 28 -29q14 0 22.5 7.5t8.5 20.5q0 25 -34 25h-65l11 102h65q42 0 42 31q0 21 -24 21q-14 0 -22.5 -7t-10.5 -20h-151q6 58 59 93t141 35q75 0 118.5 -26t43.5 -75q0 -38 -25 -66t-72 -37q40 -7 60.5 -28t20.5 -53q0 -60 -55.5 -96.5
t-151.5 -36.5q-161 0 -161 118z" />
    <glyph glyph-name="uni2084" unicode="&#x2084;" horiz-adv-x="457" 
d="M412 12h-32l-9 -92h-149l9 92h-175l32 302h148l-19 -182h27l9 86h149l-9 -86h32z" />
    <glyph glyph-name="uni2085" unicode="&#x2085;" horiz-adv-x="449" 
d="M87.5 -58.5q-40.5 33.5 -38.5 100.5h144q3 -24 33 -24q20 0 32 13t12 35q0 15 -9 25t-25 10q-13 0 -24 -6.5t-15 -16.5h-129l25 236h333l-11 -101h-197l-4 -44q27 22 80 22q56 0 89.5 -31t33.5 -82q0 -11 -1 -16q-8 -71 -61.5 -112.5t-137.5 -41.5q-89 0 -129.5 33.5z
" />
    <glyph glyph-name="uni2086" unicode="&#x2086;" horiz-adv-x="438" 
d="M377.5 177.5q30.5 -35.5 30.5 -88.5t-25.5 -94.5t-70.5 -64t-103 -22.5q-76 0 -120.5 38.5t-44.5 103.5q0 59 36 108l-2 -1l124 157h167l-76 -89q54 -12 84.5 -47.5zM252.5 37.5q12.5 15.5 12.5 38.5q0 18 -9 29t-25 11q-19 0 -31.5 -15t-12.5 -39q0 -18 9.5 -29
t24.5 -11q19 0 31.5 15.5z" />
    <glyph glyph-name="uni2087" unicode="&#x2087;" horiz-adv-x="424" 
d="M210 194h-156l13 120h369l-220 -394h-171z" />
    </font>
</defs>
</svg>
