<?xml version="1.0" standalone="no"?>
<!DOCTYPE svg PUBLIC "-//W3C//DTD SVG 1.1//EN" "http://www.w3.org/Graphics/SVG/1.1/DTD/svg11.dtd" >
<svg xmlns="http://www.w3.org/2000/svg" xmlns:xlink="http://www.w3.org/1999/xlink" version="1.1">
<metadata>
Created by FontForge 20170731 at Wed Feb  7 17:01:42 2018
 By Aleksey,,,
Copyright (c) 2015 by Noel Leu. All rights reserved.
</metadata>
<defs>
<font id="GTWalsheimPro-LightOblique" horiz-adv-x="640" >
  <font-face 
    font-family="GT Walsheim Pro Light"
    font-weight="300"
    font-style="oblique"
    font-stretch="normal"
    units-per-em="1000"
    panose-1="0 0 4 0 0 0 0 0 0 0"
    ascent="765"
    descent="-235"
    x-height="455"
    cap-height="700"
    bbox="-440.842 -231 1140.28 900"
    underline-thickness="50"
    underline-position="-200"
    slope="-6"
    unicode-range="U+000D-FB02"
  />
<missing-glyph horiz-adv-x="800" 
d="M398 -17q-109 0 -187.5 52.5t-113 135.5t-24.5 179q16 149 127.5 258t274.5 109q109 0 188 -52.5t113.5 -135.5t24.5 -179q-16 -149 -128 -258t-275 -109zM401 6q140 0 250 100.5t125 243.5q9 90 -26 169t-109 127.5t-168 48.5q-143 0 -252 -103t-124 -242
q-15 -143 73.5 -243.5t230.5 -100.5zM291 457q-17 0 -28 13t-9 30q1 18 15 30.5t31 12.5q18 0 29.5 -12.5t9.5 -30.5q-2 -17 -16 -30t-32 -13zM588 457q-17 0 -28 13t-9 30q1 18 15 30.5t31 12.5q18 0 29.5 -12.5t9.5 -30.5q-2 -17 -16 -30t-32 -13zM246 259l207 268
l-135 -243h178l-3 -25h-247zM154 207q2 37 31 52l25 13q11 6 14.5 17.5t6.5 39.5h17q-7 -57 -28 -69l-23 -13q-24 -13 -27 -40h-16zM633 157l-16 4q7 17 5.5 26t-14.5 15l-39 20q-52 27 -20 98l14 -5q-26 -61 18 -82l38 -19q19 -9 20 -26.5t-6 -30.5zM373 66
q-101 0 -181 162q76 -49 108 -59q35 -12 73 -12q148 0 223 37l4 2q-28 -49 -98 -89.5t-129 -40.5zM376 92q31 0 73.5 16.5t65 30t34.5 21.5q-11 -2 -42 -9.5t-45.5 -10t-40 -5.5t-49.5 -3q-30 0 -69 11.5t-60 30.5q22 -42 63 -62t70 -20z" />
    <glyph glyph-name="fi" unicode="fi" horiz-adv-x="565" 
d="M180 547q5 49 22 82.5t41 49t45.5 21.5t44.5 6q42 0 66 -12l-6 -56q-30 10 -51 10q-18 0 -31 -3t-28 -12.5t-25 -30t-13 -52.5l-10 -95h139l-6 -55h-139l-42 -400h-64l42 400h-100l6 55h100zM523 666q26 0 41 -17t13 -43q-3 -25 -22 -42t-45 -17t-40.5 17t-11.5 42
q2 26 20.5 43t44.5 17zM421 0l48 455h64l-48 -455h-64z" />
    <glyph glyph-name="fl" unicode="fl" horiz-adv-x="565" 
d="M180 547q5 49 22 82.5t41 49t45.5 21.5t44.5 6q42 0 66 -12l-6 -56q-30 10 -51 10q-18 0 -31 -3t-28 -12.5t-25 -30t-13 -52.5l-10 -95h139l-6 -55h-139l-42 -400h-64l42 400h-100l6 55h100zM495 700h64l-74 -700h-64z" />
    <glyph glyph-name="f_f" unicode="ff" horiz-adv-x="707" 
d="M180 547q5 49 22 82.5t41 49t45.5 21.5t44.5 6q42 0 66 -12l-6 -56q-30 10 -51 10q-18 0 -31 -3t-28 -12.5t-25 -30t-13 -52.5l-10 -95h139l-6 -55h-139l-42 -400h-64l42 400h-100l6 55h100zM708 648q-18 0 -31 -3t-28 -12.5t-25 -30t-13 -52.5l-10 -95h139l-6 -55h-139
l-42 -400h-64l42 400h-100l6 55h100l9 92q5 49 22 82.5t41 49t45.5 21.5t44.5 6q42 0 66 -12l-6 -56q-30 10 -51 10z" />
    <glyph glyph-name="f_f_i" unicode="ffi" horiz-adv-x="931" 
d="M180 547q5 49 22 82.5t41 49t45.5 21.5t44.5 6q42 0 66 -12l-6 -56q-30 10 -51 10q-18 0 -31 -3t-28 -12.5t-25 -30t-13 -52.5l-10 -95h139l-6 -55h-139l-42 -400h-64l42 400h-100l6 55h100zM546 547q5 49 22 82.5t41 49t45.5 21.5t44.5 6q42 0 66 -12l-6 -56
q-30 10 -51 10q-18 0 -31 -3t-28 -12.5t-25 -30t-13 -52.5l-10 -95h139l-6 -55h-139l-42 -400h-64l42 400h-100l6 55h100zM889 666q26 0 41 -17t13 -43q-3 -25 -22 -42t-45 -17t-40.5 17t-11.5 42q2 26 20.5 43t44.5 17zM787 0l48 455h64l-48 -455h-64z" />
    <glyph glyph-name="f_f_l" unicode="ffl" horiz-adv-x="931" 
d="M180 547q5 49 22 82.5t41 49t45.5 21.5t44.5 6q42 0 66 -12l-6 -56q-30 10 -51 10q-18 0 -31 -3t-28 -12.5t-25 -30t-13 -52.5l-10 -95h139l-6 -55h-139l-42 -400h-64l42 400h-100l6 55h100zM546 547q5 49 22 82.5t41 49t45.5 21.5t44.5 6q42 0 66 -12l-6 -56
q-30 10 -51 10q-18 0 -31 -3t-28 -12.5t-25 -30t-13 -52.5l-10 -95h139l-6 -55h-139l-42 -400h-64l42 400h-100l6 55h100zM861 700h64l-74 -700h-64z" />
    <glyph glyph-name=".notdef" horiz-adv-x="800" 
d="M398 -17q-109 0 -187.5 52.5t-113 135.5t-24.5 179q16 149 127.5 258t274.5 109q109 0 188 -52.5t113.5 -135.5t24.5 -179q-16 -149 -128 -258t-275 -109zM401 6q140 0 250 100.5t125 243.5q9 90 -26 169t-109 127.5t-168 48.5q-143 0 -252 -103t-124 -242
q-15 -143 73.5 -243.5t230.5 -100.5zM291 457q-17 0 -28 13t-9 30q1 18 15 30.5t31 12.5q18 0 29.5 -12.5t9.5 -30.5q-2 -17 -16 -30t-32 -13zM588 457q-17 0 -28 13t-9 30q1 18 15 30.5t31 12.5q18 0 29.5 -12.5t9.5 -30.5q-2 -17 -16 -30t-32 -13zM246 259l207 268
l-135 -243h178l-3 -25h-247zM154 207q2 37 31 52l25 13q11 6 14.5 17.5t6.5 39.5h17q-7 -57 -28 -69l-23 -13q-24 -13 -27 -40h-16zM633 157l-16 4q7 17 5.5 26t-14.5 15l-39 20q-52 27 -20 98l14 -5q-26 -61 18 -82l38 -19q19 -9 20 -26.5t-6 -30.5zM373 66
q-101 0 -181 162q76 -49 108 -59q35 -12 73 -12q148 0 223 37l4 2q-28 -49 -98 -89.5t-129 -40.5zM376 92q31 0 73.5 16.5t65 30t34.5 21.5q-11 -2 -42 -9.5t-45.5 -10t-40 -5.5t-49.5 -3q-30 0 -69 11.5t-60 30.5q22 -42 63 -62t70 -20z" />
    <glyph glyph-name=".null" horiz-adv-x="0" 
 />
    <glyph glyph-name="nonmarkingreturn" horiz-adv-x="333" 
 />
    <glyph glyph-name="CR" unicode="&#xd;" horiz-adv-x="250" 
 />
    <glyph glyph-name="space" unicode=" " horiz-adv-x="255" 
 />
    <glyph glyph-name="exclam" unicode="!" horiz-adv-x="254" 
d="M116 198l53 502h64l-53 -502h-64zM125 -6q-25 0 -40.5 17.5t-12.5 43.5q2 26 21.5 44t44.5 18q26 0 42 -18t14 -44q-3 -26 -23 -43.5t-46 -17.5z" />
    <glyph glyph-name="quotedbl" unicode="&#x22;" horiz-adv-x="388" 
d="M242 635q-2 -12 -4 -20l-56 -178h-36l-19 178q-1 11 0 20q2 24 20.5 40.5t42.5 16.5q25 0 39.5 -16.5t12.5 -40.5zM395 635q-2 -12 -4 -20l-56 -178h-36l-19 178q-1 11 0 20q2 24 20.5 40.5t42.5 16.5q25 0 39.5 -16.5t12.5 -40.5z" />
    <glyph glyph-name="numbersign" unicode="#" horiz-adv-x="542" 
d="M97 0l52 214h-102l6 52h109l41 168h-102l5 52h110l52 214h54l-52 -214h151l52 214h54l-52 -214h93l-5 -52h-101l-41 -168h94l-6 -52h-101l-52 -214h-54l52 214h-151l-52 -214h-54zM216 266h151l41 168h-151z" />
    <glyph glyph-name="dollar" unicode="$" horiz-adv-x="556" 
d="M529 174q-8 -81 -66.5 -131.5t-151.5 -56.5l-10 -86h-50l10 86q-105 7 -157 67.5t-42 159.5h67q-8 -76 35.5 -122t127.5 -46q74 0 119 33.5t51 94.5q10 95 -100 125l-116 28q-145 38 -131 180q8 73 67.5 126.5t152.5 57.5l9 90h50l-10 -92q84 -9 127.5 -62.5t36.5 -139.5
h-68q6 69 -30.5 107.5t-108.5 38.5q-70 0 -111 -34.5t-47 -88.5q-10 -99 110 -129l119 -31q62 -16 93.5 -60t23.5 -115z" />
    <glyph glyph-name="percent" unicode="%" horiz-adv-x="764" 
d="M165 -11l-43 25l544 682l42 -25zM231 349q-79 0 -121 49.5t-34 120.5q7 71 59 120.5t131 49.5t121 -49.5t35 -120.5q-8 -71 -60 -120.5t-131 -49.5zM236 400q54 0 89 34.5t40 84.5t-23 84.5t-81 34.5q-54 0 -88.5 -34.5t-39.5 -84.5t22 -84.5t81 -34.5zM569 -5
q-79 0 -120.5 49.5t-34.5 120.5q8 71 60 120.5t131 49.5t121 -49.5t34 -120.5q-7 -71 -59.5 -120.5t-131.5 -49.5zM575 46q54 0 88.5 34.5t39.5 84.5t-22 84.5t-81 34.5t-89 -34.5t-40 -84.5t23 -84.5t81 -34.5z" />
    <glyph glyph-name="ampersand" unicode="&#x26;" horiz-adv-x="592" 
d="M615 291l-7 -60h-65q-14 -113 -83 -178.5t-178 -65.5q-104 0 -163 56.5t-49 146.5q7 66 53 114.5t111 59.5q-61 14 -91 56.5t-24 104.5q9 85 75 136.5t167 51.5q97 0 152.5 -52.5t45.5 -144.5h-69q7 61 -29 99.5t-106 38.5q-69 0 -114.5 -35t-52.5 -94q-6 -60 27.5 -95.5
t105.5 -35.5h27l-6 -62h-27q-79 0 -124 -39t-52 -104q-7 -62 33 -102t116 -40q79 0 127 49.5t59 134.5h-87l7 60h221z" />
    <glyph glyph-name="quotesingle" unicode="'" horiz-adv-x="235" 
d="M242 635q-2 -12 -4 -20l-56 -178h-36l-19 178q-1 11 0 20q2 24 20.5 40.5t42.5 16.5q25 0 39.5 -16.5t12.5 -40.5z" />
    <glyph glyph-name="parenleft" unicode="(" horiz-adv-x="310" 
d="M261 -191q-196 189 -168 462q29 274 265 463l35 -37q-104 -91 -163 -193.5t-73 -232.5q-13 -130 24.5 -232t122.5 -193z" />
    <glyph glyph-name="parenright" unicode=")" horiz-adv-x="310" 
d="M9 -191l-35 37q104 91 163 193.5t72 231.5q14 130 -23.5 232.5t-122.5 193.5l43 37q196 -189 167 -463q-28 -273 -264 -462z" />
    <glyph glyph-name="asterisk" unicode="*" horiz-adv-x="429" 
d="M161 358l-40 30l117 132l-149 44l21 48l144 -57l10 162h52l-24 -162l155 57l11 -48l-157 -44l89 -132l-46 -30l-77 139z" />
    <glyph glyph-name="plus" unicode="+" horiz-adv-x="504" 
d="M233 118l18 167h-166l6 58h166l18 169h62l-18 -169h166l-6 -58h-166l-18 -167h-62z" />
    <glyph glyph-name="comma" unicode="," horiz-adv-x="292" 
d="M100 -118q-15 0 -29 3l3 34q20 -2 30 -2q47 0 62 44q9 18 9 49q-14 -14 -37 -14q-25 0 -40 16t-12 42q2 26 21 43t46 17q34 0 55.5 -28.5t16.5 -78.5q-6 -57 -39.5 -91t-85.5 -34z" />
    <glyph glyph-name="hyphen" unicode="-" horiz-adv-x="412" 
d="M79 231l6 58h301l-6 -58h-301z" />
    <glyph glyph-name="period" unicode="." horiz-adv-x="283" 
d="M140 -6q-26 0 -41.5 18t-12.5 43q2 26 22 44t45 18t41.5 -18t14.5 -44q-3 -25 -23 -43t-46 -18z" />
    <glyph glyph-name="slash" unicode="/" horiz-adv-x="426" 
d="M62 -60l-51 22l427 795l50 -22z" />
    <glyph glyph-name="zero" unicode="0" horiz-adv-x="607" 
d="M302 -10q-124 0 -179 89.5t-37 261.5t92 261.5t198 89.5t179.5 -89.5t37.5 -261.5t-92.5 -261.5t-198.5 -89.5zM308 49q189 0 221 292q30 291 -160 291q-189 0 -219 -291q-32 -292 158 -292z" />
    <glyph glyph-name="one" unicode="1" horiz-adv-x="361" 
d="M176 0l53 506h-138l6 58q85 0 116.5 24.5t38.5 91.5h62l-71 -680h-67z" />
    <glyph glyph-name="two" unicode="2" horiz-adv-x="558" 
d="M55 0q12 114 57.5 181t144.5 113l115 54q105 50 117 155q6 57 -28.5 92.5t-95.5 35.5q-74 0 -121.5 -46t-55.5 -125h-69q11 105 80 167.5t173 62.5q95 0 146 -50t42 -134q-14 -136 -153 -203l-115 -55q-73 -35 -107 -76.5t-46 -110.5h377l-6 -61h-455z" />
    <glyph glyph-name="three" unicode="3" horiz-adv-x="553" 
d="M276 -10q-108 0 -165 56.5t-47 154.5h68q-7 -71 33 -112t117 -41q72 0 119.5 37.5t53.5 99.5q7 65 -31.5 101.5t-113.5 36.5h-53l6 59h53q69 0 111 33.5t48 93.5q6 56 -30 90t-101 34q-70 0 -116 -37t-53 -100h-66q10 88 75.5 141t164.5 53q97 0 150 -49.5t45 -130.5
q-7 -62 -45.5 -102.5t-104.5 -54.5q62 -5 98.5 -53t29.5 -115q-9 -88 -77 -141.5t-169 -53.5z" />
    <glyph glyph-name="four" unicode="4" horiz-adv-x="567" 
d="M561 291l-7 -61h-115l-24 -231h-67l24 231h-278l47 450h67l-40 -389h211l22 211h67l-22 -211h115z" />
    <glyph glyph-name="five" unicode="5" horiz-adv-x="569" 
d="M290 -10q-97 0 -153 50t-53 131h68q-3 -55 36.5 -88t108.5 -33q77 0 127 48t59 131q9 81 -28 127t-110 46q-63 0 -102.5 -22.5t-66.5 -71.5h-64l39 372h401l-6 -61h-340l-25 -242q59 81 178 81q99 0 149.5 -61t39.5 -166q-11 -108 -82 -174.5t-176 -66.5z" />
    <glyph glyph-name="six" unicode="6" horiz-adv-x="563" 
d="M329 468q106 0 163.5 -69t46.5 -171q-11 -103 -82.5 -171.5t-177.5 -68.5t-163 69t-46 171q9 91 68 156l230 296h81l-173 -217q28 5 53 5zM285 47q78 0 129.5 51.5t60.5 129.5q8 78 -33 129.5t-119 51.5q-77 0 -129 -51.5t-60 -129.5t32.5 -129.5t118.5 -51.5z" />
    <glyph glyph-name="seven" unicode="7" horiz-adv-x="499" 
d="M63 0l399 618h-352l6 62h454l-433 -680h-74z" />
    <glyph glyph-name="eight" unicode="8" horiz-adv-x="567" 
d="M282 -10q-106 0 -164 52.5t-49 140.5q7 65 47.5 109.5t103.5 58.5q-55 14 -84 57.5t-22 102.5q8 81 75 130t167 49t156.5 -49t48.5 -130q-7 -59 -45 -102.5t-96 -57.5q60 -14 91.5 -58.5t24.5 -109.5q-9 -88 -78.5 -140.5t-175.5 -52.5zM323 379q71 0 116.5 34.5
t51.5 92.5q6 59 -32.5 94t-108.5 35t-116 -35.5t-52 -93.5t33 -92.5t108 -34.5zM288 48q75 0 124.5 38t56.5 100q6 64 -35 101.5t-117 37.5q-74 0 -123.5 -38t-55.5 -101q-7 -62 34.5 -100t115.5 -38z" />
    <glyph glyph-name="nine" unicode="9" horiz-adv-x="543" 
d="M545 452q-11 -94 -69 -156l-230 -296h-81l174 217q-30 -5 -54 -5q-106 0 -163 69t-46 171q10 102 82 171t178 69q105 0 162 -68.5t47 -171.5zM140 452q-8 -78 32.5 -129.5t118.5 -51.5t130 51.5t60 129.5t-33 129.5t-118 51.5q-78 0 -130 -51.5t-60 -129.5z" />
    <glyph glyph-name="colon" unicode=":" horiz-adv-x="283" 
d="M177 342q-25 0 -41 17.5t-14 43.5q3 26 23 44t45 18q26 0 42 -18.5t13 -43.5q-2 -25 -22 -43t-46 -18zM140 -6q-26 0 -41.5 18t-12.5 43q2 26 22 44t45 18t41.5 -18t14.5 -44q-3 -25 -23 -43t-46 -18z" />
    <glyph glyph-name="semicolon" unicode=";" horiz-adv-x="292" 
d="M177 342q-25 0 -41 17.5t-14 43.5q3 26 23 44t45 18q26 0 42 -18.5t13 -43.5q-2 -25 -22 -43t-46 -18zM100 -118q-15 0 -29 3l3 34q20 -2 30 -2q47 0 62 44q9 18 9 49q-14 -14 -37 -14q-25 0 -40 16t-12 42q2 26 21 43t46 17q34 0 55.5 -28.5t16.5 -78.5
q-6 -57 -39.5 -91t-85.5 -34z" />
    <glyph glyph-name="less" unicode="&#x3c;" horiz-adv-x="501" 
d="M459 124l-373 171l5 48l409 171l-6 -62l-315 -133l287 -133z" />
    <glyph glyph-name="equal" unicode="=" horiz-adv-x="534" 
d="M94 373l6 58h424l-6 -58h-424zM76 196l6 58h424l-6 -58h-424z" />
    <glyph glyph-name="greater" unicode="&#x3e;" horiz-adv-x="501" 
d="M68 124l7 62l315 133l-287 133l6 62l373 -171l-5 -48z" />
    <glyph glyph-name="question" unicode="?" horiz-adv-x="475" 
d="M203 198l2 20q5 51 23 81.5t59 57.5l57 37q79 51 88 135q5 57 -28.5 92.5t-100.5 35.5q-70 0 -116.5 -43.5t-54.5 -119.5h-67q11 103 77.5 163t169.5 60q99 0 148.5 -52t40.5 -134q-11 -103 -117 -176l-52 -35q-32 -21 -45.5 -42.5t-17.5 -60.5l-2 -19h-64zM213 -6
q-26 0 -41.5 17.5t-12.5 43.5q2 26 21.5 44t45.5 18q25 0 41 -18t14 -44q-3 -26 -23 -43.5t-45 -17.5z" />
    <glyph glyph-name="at" unicode="@" horiz-adv-x="894" 
d="M435 -196q-193 0 -292.5 112.5t-80.5 295.5q19 186 144.5 296.5t315.5 110.5q181 0 278 -105t76 -309q-12 -112 -56.5 -178t-120.5 -66q-61 0 -86.5 33.5t-24.5 106.5q-24 -42 -67.5 -68.5t-100.5 -26.5q-88 0 -138 60t-41 144q9 86 72 146.5t151 60.5q55 0 93.5 -26
t53.5 -69l9 86h55l-30 -282q-7 -68 10.5 -93.5t52.5 -25.5q43 0 73.5 51t40.5 144q20 186 -63 277.5t-243 91.5q-167 0 -275.5 -97.5t-125.5 -262.5q-17 -162 69.5 -260t257.5 -98q124 0 224 61l17 -44q-112 -66 -248 -66zM431 56q67 0 114 45t54 110t-30.5 110.5
t-104.5 45.5t-114 -45.5t-54 -110.5t30.5 -110t104.5 -45z" />
    <glyph glyph-name="A" unicode="A" horiz-adv-x="577" 
d="M484 0l-28 126h-310l-53 -126h-73l312 700h61l164 -700h-73zM173 187h271l-92 422z" />
    <glyph glyph-name="B" unicode="B" horiz-adv-x="579" 
d="M428 355q59 -9 93.5 -54t27.5 -114q-10 -87 -72 -137t-159 -50h-233l74 700h227q97 0 148.5 -48t42.5 -133q-7 -68 -47 -110t-102 -54zM376 640h-157l-27 -257h170q59 0 99.5 35t47.5 94q6 60 -29.5 94t-103.5 34zM323 60q67 0 109.5 35t49.5 98q7 58 -26.5 94t-90.5 36
h-179l-28 -263h165z" />
    <glyph glyph-name="C" unicode="C" horiz-adv-x="774" 
d="M399 -15q-165 0 -252 104t-70 261q16 157 125 261t274 104q135 0 214 -65t91 -170h-73q-15 80 -75 127t-163 47q-134 0 -221.5 -86t-101.5 -218t55.5 -218t203.5 -86q103 0 173 46.5t102 127.5h73q-34 -105 -127 -170t-228 -65z" />
    <glyph glyph-name="D" unicode="D" horiz-adv-x="687" 
d="M85 0l74 700h209q84 0 150 -29.5t105 -78.5t56 -111.5t10 -130.5t-37.5 -130.5t-79.5 -111.5t-121.5 -78.5t-156.5 -29.5h-209zM158 61h137q139 0 226 85.5t100 203.5q12 118 -57 203.5t-208 85.5h-137z" />
    <glyph glyph-name="E" unicode="E" horiz-adv-x="547" 
d="M85 0l74 700h391l-7 -61h-324l-27 -261h324l-7 -61h-324l-27 -256h324l-6 -61h-391z" />
    <glyph glyph-name="F" unicode="F" horiz-adv-x="534" 
d="M85 0l74 700h391l-7 -61h-324l-30 -284h324l-6 -61h-324l-31 -294h-67z" />
    <glyph glyph-name="G" unicode="G" horiz-adv-x="824" 
d="M835 328l-6 -61h-77q-34 -131 -125.5 -206.5t-230.5 -75.5q-165 0 -250.5 103.5t-68.5 259.5q17 157 123.5 262t272.5 105q116 0 192 -57.5t85 -148.5h-73q-12 66 -68 105.5t-142 39.5q-136 0 -221 -86t-99 -220q-14 -130 54.5 -216t201.5 -86q110 0 180.5 58t98.5 163
h-204l6 61h351z" />
    <glyph glyph-name="H" unicode="H" horiz-adv-x="666" 
d="M85 0l74 700h67l-34 -322h362l34 322h67l-74 -700h-67l33 317h-362l-33 -317h-67z" />
    <glyph glyph-name="I" unicode="I" horiz-adv-x="237" 
d="M85 0l74 700h67l-74 -700h-67z" />
    <glyph glyph-name="J" unicode="J" horiz-adv-x="537" 
d="M250 -15q-101 0 -157.5 61.5t-44.5 169.5h67q-9 -80 31 -125t111 -45q70 0 116 47t54 128l51 479h67l-51 -479q-11 -109 -77.5 -172.5t-166.5 -63.5z" />
    <glyph glyph-name="K" unicode="K" horiz-adv-x="584" 
d="M641 700l-386 -348l312 -352h-89l-291 336l-35 -336h-67l74 700h67l-36 -336l363 336h88z" />
    <glyph glyph-name="L" unicode="L" horiz-adv-x="510" 
d="M85 0l74 700h67l-67 -636h315l-7 -64h-382z" />
    <glyph glyph-name="M" unicode="M" horiz-adv-x="814" 
d="M85 0l74 700h65l193 -606l321 606h65l-74 -700h-65l59 558l-289 -558h-54l-171 561l-59 -561h-65z" />
    <glyph glyph-name="N" unicode="N" horiz-adv-x="661" 
d="M85 0l74 700h72l292 -589l62 589h64l-74 -700h-72l-291 589l-62 -589h-65z" />
    <glyph glyph-name="O" unicode="O" horiz-adv-x="800" 
d="M398 -15q-163 0 -250 106.5t-71 258.5t125.5 258.5t272.5 106.5q109 0 187 -51t111.5 -133.5t23.5 -180.5q-16 -152 -126 -258.5t-273 -106.5zM405 46q132 0 220.5 88.5t101.5 215.5t-56.5 215.5t-201.5 88.5t-220.5 -88.5t-101.5 -215.5t56.5 -215.5t201.5 -88.5z" />
    <glyph glyph-name="P" unicode="P" horiz-adv-x="577" 
d="M403 700q100 0 158 -67t47 -171t-83.5 -171.5t-172.5 -67.5h-177l-23 -223h-67l74 700h244zM355 284q73 0 125.5 50.5t60.5 127.5t-34 127t-115 50h-173l-37 -355h173z" />
    <glyph glyph-name="Q" unicode="Q" horiz-adv-x="800" 
d="M797 350q-14 -131 -100.5 -231t-218.5 -126l72 -108l-62 -29l-86 129h-4q-163 0 -250 106.5t-71 258.5t125.5 258.5t272.5 106.5q109 0 187 -51t111.5 -133.5t23.5 -180.5zM405 46q132 0 220.5 88.5t101.5 215.5t-56.5 215.5t-201.5 88.5t-220.5 -88.5t-101.5 -215.5
t56.5 -215.5t201.5 -88.5z" />
    <glyph glyph-name="R" unicode="R" horiz-adv-x="604" 
d="M608 462q-9 -83 -58 -144t-123 -84l123 -234h-77l-117 223h-4h-177l-23 -223h-67l74 700h244q100 0 158 -67t47 -171zM219 639l-37 -355h173q73 0 125.5 50.5t60.5 127.5t-34 127t-115 50h-173z" />
    <glyph glyph-name="S" unicode="S" horiz-adv-x="561" 
d="M288 -15q-116 0 -176 62t-49 170h67q-8 -79 36.5 -125.5t128.5 -46.5q76 0 121 35t52 98q10 100 -107 134l-114 36q-145 40 -130 182q8 83 74 134t163 51q102 0 156 -56.5t44 -153.5h-67q7 72 -30 111.5t-111 39.5q-68 0 -111.5 -33.5t-49.5 -88.5q-5 -52 22.5 -84.5
t93.5 -51.5l110 -34q139 -42 124 -185q-10 -89 -76.5 -141.5t-170.5 -52.5z" />
    <glyph glyph-name="T" unicode="T" horiz-adv-x="510" 
d="M221 0l67 636h-213l7 64h495l-7 -64h-215l-67 -636h-67z" />
    <glyph glyph-name="U" unicode="U" horiz-adv-x="630" 
d="M313 -15q-115 0 -176 63.5t-48 179.5l50 472h67l-50 -469q-9 -89 35 -137t129 -48t139 48t63 137l50 469h67l-50 -472q-13 -116 -87 -179.5t-189 -63.5z" />
    <glyph glyph-name="V" unicode="V" horiz-adv-x="556" 
d="M246 0l-169 700h72l140 -597l266 597h72l-316 -700h-65z" />
    <glyph glyph-name="W" unicode="W" horiz-adv-x="943" 
d="M242 0l-163 700h71l130 -591l239 591h53l112 -591l257 591h71l-311 -700h-52l-117 585l-238 -585h-52z" />
    <glyph glyph-name="X" unicode="X" horiz-adv-x="592" 
d="M25 0l270 350l-196 350h76l164 -295l226 295h76l-270 -350l196 -350h-76l-164 294l-226 -294h-76z" />
    <glyph glyph-name="Y" unicode="Y" horiz-adv-x="542" 
d="M552 700h74l-431 -700h-74l170 277l-222 423h78l186 -354z" />
    <glyph glyph-name="Z" unicode="Z" horiz-adv-x="565" 
d="M25 0l454 639h-355l7 61h468l-452 -639h388l-6 -61h-504z" />
    <glyph glyph-name="bracketleft" unicode="[" horiz-adv-x="284" 
d="M65 -193l97 926h192l-6 -54h-133l-86 -819h133l-5 -53h-192z" />
    <glyph glyph-name="backslash" unicode="\" horiz-adv-x="426" 
d="M352 -60l-260 795l56 22l259 -795z" />
    <glyph glyph-name="bracketright" unicode="]" horiz-adv-x="284" 
d="M179 -193h-192l5 53h133l86 819h-133l6 54h192z" />
    <glyph glyph-name="asciicircum" unicode="^" horiz-adv-x="538" 
d="M82 303l235 402h48l155 -402h-73l-113 322l-181 -322h-71z" />
    <glyph glyph-name="underscore" unicode="_" horiz-adv-x="510" 
d="M-23 -215l5 47h510l-5 -47h-510z" />
    <glyph glyph-name="grave" unicode="`" horiz-adv-x="600" 
d="M252 511l-148 142l41 39l148 -143z" />
    <glyph glyph-name="a" unicode="a" horiz-adv-x="590" 
d="M267 -12q-105 0 -159.5 67.5t-43.5 171.5t80.5 172t173.5 68q62 0 105.5 -30t60.5 -81l11 99h63l-48 -455h-63l10 98q-27 -49 -78.5 -79.5t-111.5 -30.5zM280 46q80 0 133 52.5t61 128.5q8 77 -34 129.5t-122 52.5q-77 0 -129.5 -51.5t-60.5 -130.5t33.5 -130t118.5 -51z
" />
    <glyph glyph-name="b" unicode="b" horiz-adv-x="590" 
d="M376 467q98 0 153.5 -67t44.5 -173q-11 -104 -82 -171.5t-170 -67.5q-60 0 -105.5 30t-62.5 80l-10 -98h-64l74 700h64l-37 -344q28 52 80.5 81.5t114.5 29.5zM321 46q74 0 127.5 51t61.5 130q8 80 -34.5 131t-116.5 51q-77 0 -131.5 -51t-62.5 -131q-8 -79 36 -130
t120 -51z" />
    <glyph glyph-name="c" unicode="c" horiz-adv-x="516" 
d="M265 -12q-103 0 -157.5 66t-43.5 173t79.5 173t171.5 66q89 0 140 -44.5t53 -120.5h-65q-4 52 -39 79.5t-95 27.5q-75 0 -123.5 -49t-57.5 -132t29.5 -132t113.5 -49q60 0 101 27.5t55 77.5h65q-17 -74 -77.5 -118.5t-149.5 -44.5z" />
    <glyph glyph-name="d" unicode="d" horiz-adv-x="590" 
d="M521 700h63l-74 -700h-63l10 98q-27 -49 -78.5 -79.5t-111.5 -30.5q-105 0 -159.5 67.5t-43.5 171.5t80.5 172t173.5 68q62 0 105.5 -30t60.5 -81zM280 46q80 0 133 52.5t61 128.5q8 77 -34 129.5t-122 52.5q-77 0 -129.5 -51.5t-60.5 -130.5t33.5 -130t118.5 -51z" />
    <glyph glyph-name="e" unicode="e" horiz-adv-x="515" 
d="M502 256q-2 -17 -7 -43h-368q-8 -77 31 -122.5t112 -45.5q51 0 89.5 22t57.5 61h65q-20 -62 -80 -101t-138 -39q-103 0 -157 65.5t-43 174.5q11 108 79 173.5t167 65.5q95 0 148.5 -59t43.5 -152zM133 264h307q6 69 -29.5 110t-105.5 41q-67 0 -114 -41.5t-58 -109.5z
" />
    <glyph glyph-name="f" unicode="f" horiz-adv-x="341" 
d="M342 648q-18 0 -31 -3t-28 -12.5t-25 -30t-13 -52.5l-10 -95h139l-6 -55h-139l-42 -400h-64l42 400h-100l6 55h100l9 92q5 49 22 82.5t41 49t45.5 21.5t44.5 6q42 0 66 -12l-6 -56q-30 10 -51 10z" />
    <glyph glyph-name="g" unicode="g" horiz-adv-x="590" 
d="M494 455h64l-48 -452q-12 -124 -96 -185q-60 -45 -162 -45q-103 0 -158 46q-56 47 -50 117h66q-1 -47 37.5 -77.5t110.5 -30.5q170 0 188 171l10 99q-28 -51 -79 -80.5t-110 -29.5q-101 0 -157.5 68t-45.5 171t82.5 171.5t171.5 68.5q61 0 105 -29.5t60 -81.5zM280 46
q77 0 131.5 52t62.5 129q8 78 -35 130t-121 52q-75 0 -128.5 -51.5t-61.5 -130.5q-8 -78 34.5 -129.5t117.5 -51.5z" />
    <glyph glyph-name="h" unicode="h" horiz-adv-x="565" 
d="M366 467q86 0 124.5 -49.5t28.5 -143.5l-29 -274h-64l26 249q18 162 -113 162q-73 0 -116 -48.5t-52 -130.5l-24 -232h-64l74 700h64l-37 -349q22 53 69 84.5t113 31.5z" />
    <glyph glyph-name="i" unicode="i" horiz-adv-x="224" 
d="M169 547q-26 0 -40.5 17t-11.5 42q2 26 20.5 43t44.5 17t41 -17t13 -43q-3 -25 -22 -42t-45 -17zM80 0l48 455h64l-48 -455h-64z" />
    <glyph glyph-name="j" unicode="j" horiz-adv-x="227" 
d="M172 547q-26 0 -40.5 17t-11.5 42q2 26 20.5 43t44.5 17t41 -17t13 -43q-3 -25 -22 -42t-45 -17zM11 -221q-40 0 -62 11l6 60q23 -10 51 -10q60 0 68 77l57 538h64l-58 -554q-6 -58 -39 -90t-87 -32z" />
    <glyph glyph-name="k" unicode="k" horiz-adv-x="492" 
d="M510 455l-270 -222l222 -233h-87l-208 220l-23 -220h-64l74 700h64l-49 -461l257 216h84z" />
    <glyph glyph-name="l" unicode="l" horiz-adv-x="224" 
d="M80 0l74 700h64l-74 -700h-64z" />
    <glyph glyph-name="m" unicode="m" horiz-adv-x="831" 
d="M80 0l48 455h64l-11 -102q18 48 58.5 81t99.5 33t95 -29t42 -85q20 49 64.5 81.5t101.5 32.5q80 0 116.5 -46t27.5 -133l-30 -288h-63l29 275q7 70 -20 103t-80 33q-61 0 -100 -47t-48 -131l-24 -233h-64l28 262q15 149 -99 149q-62 0 -100 -48.5t-47 -129.5l-24 -233
h-64z" />
    <glyph glyph-name="n" unicode="n" horiz-adv-x="563" 
d="M80 0l48 455h64l-11 -104q23 53 69.5 84.5t113.5 31.5q86 0 124.5 -49.5t28.5 -143.5l-29 -274h-64l26 249q18 162 -113 162q-73 0 -116.5 -48.5t-52.5 -130.5l-24 -232h-64z" />
    <glyph glyph-name="o" unicode="o" horiz-adv-x="549" 
d="M273 -12q-106 0 -163 69t-46 171t82.5 170.5t176.5 68.5q106 0 163.5 -68.5t46.5 -170.5q-11 -103 -82.5 -171.5t-177.5 -68.5zM279 47q78 0 129.5 51.5t60.5 129.5q8 78 -33 129.5t-119 51.5t-129.5 -51.5t-59.5 -130.5q-8 -77 32.5 -128.5t118.5 -51.5z" />
    <glyph glyph-name="p" unicode="p" horiz-adv-x="590" 
d="M376 467q98 0 153.5 -67t44.5 -173q-11 -104 -82 -171.5t-170 -67.5q-60 0 -105.5 30t-62.5 80l-33 -313h-64l71 670h64l-11 -99q28 52 80.5 81.5t114.5 29.5zM321 46q74 0 127.5 51t61.5 130q8 80 -34.5 131t-116.5 51q-77 0 -131.5 -51t-62.5 -131q-8 -79 36 -130
t120 -51z" />
    <glyph glyph-name="q" unicode="q" horiz-adv-x="590" 
d="M495 455h63l-71 -670h-63l33 313q-27 -49 -78.5 -79.5t-111.5 -30.5q-105 0 -159.5 67.5t-43.5 171.5t80.5 172t173.5 68q62 0 105.5 -30t60.5 -81zM280 46q80 0 133 52.5t61 128.5q8 77 -34 129.5t-122 52.5q-77 0 -129.5 -51.5t-60.5 -130.5t33.5 -130t118.5 -51z" />
    <glyph glyph-name="r" unicode="r" horiz-adv-x="355" 
d="M80 0l48 455h64l-13 -120q22 64 66 96.5t95 32.5q28 0 40 -4l-6 -59q-21 3 -43 3q-73 0 -115 -61.5t-51 -145.5l-21 -197h-64z" />
    <glyph glyph-name="s" unicode="s" horiz-adv-x="442" 
d="M225 -12q-83 0 -130 41.5t-41 103.5h64q-4 -39 26.5 -65.5t88.5 -26.5q47 0 77.5 20.5t34.5 57.5q2 29 -13 47t-57 29l-92 24q-104 27 -93 122q6 57 56 91.5t123 34.5q79 0 121 -35.5t35 -96.5h-63q3 38 -24 59.5t-78 21.5q-43 0 -73 -19t-34 -54q-5 -54 69 -73l94 -26
q103 -27 94 -122q-7 -64 -56.5 -99t-128.5 -35z" />
    <glyph glyph-name="t" unicode="t" horiz-adv-x="346" 
d="M261 53q39 0 61 6l-6 -57q-27 -8 -75 -8q-26 0 -44.5 4.5t-38.5 19t-28 47.5t-3 83l26 252h-89l6 55h89l16 152h63l-16 -152h126l-6 -55h-126l-25 -239q-7 -65 11.5 -86.5t58.5 -21.5z" />
    <glyph glyph-name="u" unicode="u" horiz-adv-x="563" 
d="M252 -12q-81 0 -124.5 49.5t-33.5 143.5l29 274h64l-28 -260q-15 -150 116 -150q73 0 115.5 51t49.5 118l26 241h64l-48 -455h-64l11 103q-23 -51 -70 -83t-107 -32z" />
    <glyph glyph-name="v" unicode="v" horiz-adv-x="473" 
d="M210 0l-157 455h69l123 -369l202 369h69l-253 -455h-53z" />
    <glyph glyph-name="w" unicode="w" horiz-adv-x="726" 
d="M179 0l-121 455h70l87 -364l161 364h69l85 -364l164 364h70l-217 -455h-56l-89 376l-168 -376h-55z" />
    <glyph glyph-name="x" unicode="x" horiz-adv-x="470" 
d="M23 0l198 228l-149 227h79l112 -179l152 179h79l-198 -227l151 -228h-79l-115 182l-152 -182h-78z" />
    <glyph glyph-name="y" unicode="y" horiz-adv-x="567" 
d="M471 455h64l-50 -470q-10 -111 -81 -166q-58 -46 -149 -46q-97 0 -148 46q-45 43 -39 117h65q-7 -108 127 -108q145 0 162 161l12 112q-26 -50 -73 -81t-109 -31q-178 0 -157 202l28 264h64l-27 -252q-8 -76 18 -116t100 -40q72 0 116.5 52.5t51.5 122.5z" />
    <glyph glyph-name="z" unicode="z" horiz-adv-x="436" 
d="M20 0l330 400h-270l6 55h381l-331 -400h282l-6 -55h-392z" />
    <glyph glyph-name="braceleft" unicode="{" horiz-adv-x="309" 
d="M229 -194q-52 0 -88.5 36.5t-29.5 102.5l22 204q5 44 -23.5 69t-58.5 25l5 54q30 0 63.5 25t38.5 69l22 204q6 66 50 102.5t96 36.5h53l-5 -53h-45q-38 0 -62.5 -27t-29.5 -70l-21 -201q-5 -50 -35 -77t-65 -36q33 -9 57.5 -36t19.5 -77l-22 -201q-5 -43 14 -70t57 -27
h45l-5 -53h-53z" />
    <glyph glyph-name="bar" unicode="|" horiz-adv-x="222" 
d="M65 -193l97 926h52l-97 -926h-52z" />
    <glyph glyph-name="braceright" unicode="}" horiz-adv-x="309" 
d="M40 -194h-53l5 53h45q38 0 62 27t29 70l22 201q5 50 34.5 77t64.5 36q-33 9 -57 36t-19 77l21 201q5 43 -13.5 70t-56.5 27h-45l5 53h53q52 0 88 -36.5t30 -102.5l-22 -204q-5 -44 23.5 -69t58.5 -25l-5 -54q-30 0 -63.5 -25t-38.5 -69l-22 -204q-7 -66 -50.5 -102.5
t-95.5 -36.5z" />
    <glyph glyph-name="asciitilde" unicode="~" horiz-adv-x="539" 
d="M401 219q-33 0 -108 35q-66 33 -113 33q-51 0 -105 -52l6 60q47 50 108 50q42 0 115 -32q83 -36 104 -36q54 0 116 54l-6 -59q-55 -53 -117 -53z" />
    <glyph glyph-name="uni00A0" unicode="&#xa0;" horiz-adv-x="270" 
 />
    <glyph glyph-name="exclamdown" unicode="&#xa1;" horiz-adv-x="254" 
d="M178 491q26 0 42 -17.5t13 -43.5q-2 -26 -22 -44t-46 -18q-25 0 -40.5 18t-13.5 44q3 26 22.5 43.5t44.5 17.5zM125 287h64l-53 -502h-64z" />
    <glyph glyph-name="cent" unicode="&#xa2;" horiz-adv-x="516" 
d="M283 158q60 0 101 27.5t55 77.5h65q-16 -69 -69 -112t-132 -50l-11 -101h-51l11 101q-92 8 -139.5 73t-36.5 165t71.5 165t154.5 73l10 103h51l-10 -103q78 -7 121.5 -50.5t44.5 -113.5h-65q-3 52 -37.5 79.5t-95.5 27.5q-75 0 -124 -49t-57 -132q-9 -83 29.5 -132
t113.5 -49z" />
    <glyph glyph-name="sterling" unicode="&#xa3;" horiz-adv-x="514" 
d="M197 242q-12 -125 -76 -181h358l-6 -61h-433l5 47q71 61 84 183l12 115h-67l6 50h67l8 81q11 107 71 161.5t154 54.5q92 0 139 -51t38 -139h-68q6 63 -23.5 98.5t-92.5 35.5q-69 0 -106 -41t-46 -125l-7 -75h186l-6 -50h-186z" />
    <glyph glyph-name="currency" unicode="&#xa4;" horiz-adv-x="582" 
d="M88 116l-36 41l78 71q-40 60 -31 142q8 81 61 142l-63 71l45 41l63 -71q65 49 149 49t140 -48l78 70l36 -41l-77 -70q42 -61 33 -143q-9 -83 -63 -143l62 -70l-45 -41l-62 70q-66 -47 -150 -47q-83 0 -139 48zM312 197q76 0 128 50t60 123t-34 123.5t-118 50.5
q-74 0 -125.5 -50.5t-59.5 -123.5q-8 -72 33.5 -122.5t115.5 -50.5z" />
    <glyph glyph-name="yen" unicode="&#xa5;" horiz-adv-x="538" 
d="M594 680l-260 -407h155l-5 -46h-157l-9 -87h157l-5 -47h-157l-10 -93h-68l10 93h-158l5 47h158l9 87h-158l5 46h156l-176 407h76l141 -352l215 352h76z" />
    <glyph glyph-name="brokenbar" unicode="&#xa6;" horiz-adv-x="222" 
d="M119 322l43 411h52l-43 -411h-52zM65 -193l45 429h52l-45 -429h-52z" />
    <glyph glyph-name="section" unicode="&#xa7;" horiz-adv-x="541" 
d="M512 234q-10 -95 -118 -140q87 -52 77 -153q-9 -80 -70.5 -123t-157.5 -43q-105 0 -155 49.5t-41 130.5h69q-6 -57 27 -90t107 -33q64 0 104 27.5t46 79.5q3 34 -9.5 59.5t-35.5 41t-53.5 29.5t-62.5 23.5t-62 24.5t-53 32t-35.5 45.5t-8.5 65.5q10 96 119 138
q-87 52 -77 151q8 78 70 123t155 45q106 0 156.5 -50t41.5 -132h-71q6 57 -27 91t-105 34q-64 0 -104 -28t-45 -81q-4 -38 12.5 -65.5t46 -44t65.5 -29.5t72 -27t65.5 -31.5t45.5 -48t12 -71.5zM335 122q103 34 110 108q2 21 -5 38t-18 28t-33.5 22.5t-39 18t-46.5 17
t-46 16.5q-101 -32 -109 -106q-3 -25 5.5 -43.5t32 -33.5t40 -23t55.5 -22t54 -20z" />
    <glyph glyph-name="dieresis" unicode="&#xa8;" horiz-adv-x="600" 
d="M183 547q-23 0 -37.5 16.5t-12.5 39.5q3 25 21 41.5t41 16.5q25 0 40 -16.5t12 -41.5q-2 -23 -20.5 -39.5t-43.5 -16.5zM380 547q-23 0 -37.5 16.5t-12.5 39.5q3 25 21 41.5t41 16.5q25 0 40 -16.5t12 -41.5q-2 -23 -20.5 -39.5t-43.5 -16.5z" />
    <glyph glyph-name="copyright" unicode="&#xa9;" horiz-adv-x="799" 
d="M398 -17q-163 0 -250.5 105t-70.5 262q16 157 125.5 262t272.5 105t250 -105t71 -262q-17 -157 -126 -262t-272 -105zM403 30q138 0 231 92t108 228q14 136 -60 228t-212 92q-139 0 -232 -92t-107 -228q-15 -136 59 -228t213 -92zM418 139q-96 0 -146 61.5t-41 149.5
t72 149.5t159 61.5q76 0 120 -37.5t48 -98.5h-48q-5 42 -37.5 68t-86.5 26q-75 0 -124.5 -49t-56.5 -120q-8 -71 31 -120t114 -49q54 0 92 26t52 67h48q-16 -60 -68 -97.5t-128 -37.5z" />
    <glyph glyph-name="ordfeminine" unicode="&#xaa;" horiz-adv-x="366" 
d="M202 394q-61 0 -94 39.5t-27 98.5q6 60 48.5 100t103.5 40q38 0 64 -17.5t36 -46.5l6 56h53l-28 -263h-53l6 55q-35 -62 -115 -62zM220 438q44 0 73.5 27.5t33.5 66.5q4 40 -19.5 67.5t-67.5 27.5q-43 0 -72.5 -27.5t-33.5 -67.5q-4 -39 20 -66.5t66 -27.5z" />
    <glyph glyph-name="guillemotleft" unicode="&#xab;" horiz-adv-x="481" 
d="M220 73l-185 188l224 188l34 -38l-179 -150l148 -150zM433 73l-185 188l224 188l34 -38l-179 -150l148 -150z" />
    <glyph glyph-name="logicalnot" unicode="&#xac;" horiz-adv-x="504" 
d="M407 208l15 146h-330l6 58h394l-21 -204h-64z" />
    <glyph glyph-name="uni00AD" unicode="&#xad;" horiz-adv-x="412" 
d="M79 231l6 58h301l-6 -58h-301z" />
    <glyph glyph-name="registered" unicode="&#xae;" horiz-adv-x="590" 
d="M317 197q-116 0 -178.5 74t-50.5 186q12 111 89.5 185.5t193.5 74.5t177.5 -74.5t49.5 -185.5q-12 -112 -88.5 -186t-192.5 -74zM320 230q98 0 164 65t76 162q10 96 -42 161.5t-150 65.5t-164.5 -65.5t-76.5 -161.5q-10 -97 42 -162t151 -65zM240 320l29 282h104
q41 0 64.5 -27.5t18.5 -66.5q-3 -31 -23.5 -55.5t-51.5 -32.5l54 -100h-38l-51 96h-63l-10 -96h-33zM287 446h68q27 0 46 18t21 44q3 27 -12 45.5t-42 18.5h-68z" />
    <glyph glyph-name="macron" unicode="&#xaf;" horiz-adv-x="600" 
d="M135 554l6 53h317l-6 -53h-317z" />
    <glyph glyph-name="degree" unicode="&#xb0;" horiz-adv-x="361" 
d="M222 392q-65 0 -103.5 43.5t-31.5 106.5t54.5 106.5t112.5 43.5q64 0 102 -43.5t31 -106.5t-54 -106.5t-111 -43.5zM227 442q43 0 73 29t35 71t-19.5 70.5t-67.5 28.5q-45 0 -74.5 -28.5t-34.5 -70.5t19 -71t69 -29z" />
    <glyph glyph-name="plusminus" unicode="&#xb1;" horiz-adv-x="504" 
d="M248 271l13 117h-165l6 59h165l12 118h64l-12 -118h165l-6 -59h-165l-13 -117h-64zM71 154l6 57h394l-6 -57h-394z" />
    <glyph glyph-name="uni00B2" unicode="&#xb2;" horiz-adv-x="373" 
d="M81 400q8 69 35.5 108.5t88.5 67.5l70 32q61 26 67 82q3 30 -16 48t-53 18q-41 0 -67 -23.5t-30 -65.5h-57q7 61 50 97.5t108 36.5q62 0 95 -29.5t28 -79.5q-9 -80 -93 -117l-69 -32q-39 -18 -58 -39.5t-26 -56.5h220l-5 -47h-288z" />
    <glyph glyph-name="uni00B3" unicode="&#xb3;" horiz-adv-x="381" 
d="M230 393q-69 0 -104 33t-29 92h57q-4 -37 18 -58.5t64 -21.5q40 0 65.5 19.5t29.5 52.5q3 34 -18 53t-63 19h-37l5 44h37q39 0 62 17.5t27 49.5q3 29 -17 47t-56 18q-38 0 -63 -19.5t-29 -51.5h-57q5 51 47 82.5t107 31.5q62 0 96 -28.5t29 -76.5q-8 -76 -93 -92
q39 -3 61.5 -30.5t17.5 -66.5q-5 -51 -48 -82.5t-109 -31.5z" />
    <glyph glyph-name="acute" unicode="&#xb4;" horiz-adv-x="600" 
d="M190 511l-33 38l178 143l33 -39z" />
    <glyph glyph-name="uni00B5" unicode="&#xb5;" horiz-adv-x="568" 
d="M471 455h64l-48 -455h-64l11 103q-23 -51 -70 -83t-107 -32q-77 0 -109 53l-27 -256h-64l71 670h64l-28 -260q-15 -150 116 -150q73 0 115.5 51t49.5 118z" />
    <glyph glyph-name="paragraph" unicode="&#xb6;" horiz-adv-x="655" 
d="M250 -148l51 477q-97 0 -151.5 48.5t-44.5 142.5q5 50 27 87.5t50 58t65.5 32.5t66.5 15.5t60 3.5h306l-5 -55h-53l-86 -810h-61l85 809h-164l-85 -809h-61z" />
    <glyph glyph-name="periodcentered" unicode="&#xb7;" horiz-adv-x="283" 
d="M167 251q-25 0 -41 18t-13 43q2 26 22 44t45 18t41.5 -18t14.5 -44q-3 -25 -23.5 -43t-45.5 -18z" />
    <glyph glyph-name="cedilla" unicode="&#xb8;" horiz-adv-x="600" 
d="M116 -215q-35 0 -55 19.5t-19 50.5h38q-1 -16 10 -26.5t31 -10.5q22 0 36.5 14t16.5 39q3 24 -7.5 38t-33.5 14q-29 0 -47 -24h-33l11 101h38l-7 -67q16 20 52 20q32 0 51.5 -22.5t15.5 -59.5q-4 -38 -30 -62t-68 -24z" />
    <glyph glyph-name="uni00B9" unicode="&#xb9;" horiz-adv-x="266" 
d="M167 400l30 282h-90l4 43q56 0 77.5 15t25.5 54h48l-41 -394h-54z" />
    <glyph glyph-name="ordmasculine" unicode="&#xba;" horiz-adv-x="347" 
d="M214 394q-67 0 -102.5 39.5t-29.5 99.5t50.5 99.5t111.5 39.5t103.5 -39.5t30.5 -99.5t-51 -99.5t-113 -39.5zM219 439q44 0 73 27t33 67t-19 67t-67 27q-43 0 -72.5 -27t-33.5 -67t19.5 -67t66.5 -27z" />
    <glyph glyph-name="guillemotright" unicode="&#xbb;" horiz-adv-x="481" 
d="M64 73l-34 38l178 150l-147 150l42 38l184 -188zM277 73l-34 38l178 150l-147 150l42 38l184 -188z" />
    <glyph glyph-name="onequarter" unicode="&#xbc;" horiz-adv-x="787" 
d="M621 696l41 -28l-543 -682l-42 28zM155 286l30 282h-90l4 43q56 0 77.5 15t25.5 54h48l-41 -394h-54zM770 176l-5 -49h-64l-13 -128h-55l13 128h-171l28 267h55l-23 -218h116l13 116h55l-13 -116h64z" />
    <glyph glyph-name="onehalf" unicode="&#xbd;" horiz-adv-x="766" 
d="M119 -14l-42 28l544 682l41 -28zM155 286l30 282h-90l4 43q56 0 77.5 15t25.5 54h48l-41 -394h-54zM432 0q7 69 35 108.5t88 67.5l71 32q61 26 66 82q4 30 -15 48t-53 18q-41 0 -67 -23.5t-30 -65.5h-57q7 61 50 97.5t108 36.5q62 0 95 -29.5t28 -79.5q-9 -80 -93 -117
l-69 -32q-39 -18 -58 -39.5t-26 -56.5h220l-5 -47h-288z" />
    <glyph glyph-name="threequarters" unicode="&#xbe;" horiz-adv-x="884" 
d="M718 696l41 -28l-543 -682l-42 28zM375 393q-5 -51 -48 -82.5t-109 -31.5q-69 0 -104 33t-29 92h57q-4 -37 18 -58.5t64 -21.5q40 0 65.5 19.5t29.5 52.5q3 34 -18 53t-63 19h-37l5 44h37q39 0 62 17.5t27 49.5q3 29 -17 47t-56 18q-38 0 -63 -19.5t-29 -51.5h-57
q5 51 47 82.5t107 31.5q62 0 96 -28.5t29 -76.5q-8 -75 -92 -92q38 -3 60 -30.5t18 -66.5zM867 176l-5 -49h-64l-13 -128h-55l13 128h-171l28 267h55l-23 -218h116l13 116h55l-13 -116h64z" />
    <glyph glyph-name="questiondown" unicode="&#xbf;" horiz-adv-x="475" 
d="M314 503q26 0 41.5 -17.5t12.5 -43.5q-2 -26 -21.5 -44t-45.5 -18q-25 0 -41 18t-14 44q3 26 23 43.5t45 17.5zM324 299l-2 -20q-5 -51 -23 -81.5t-58 -57.5l-58 -37q-79 -52 -87 -135q-6 -57 27.5 -92.5t100.5 -35.5q70 0 116.5 43.5t54.5 119.5h67q-11 -103 -77.5 -163
t-169.5 -60q-99 0 -148.5 52t-40.5 134q12 104 117 176l53 35q31 21 44.5 42.5t17.5 60.5l2 19h64z" />
    <glyph glyph-name="Agrave" unicode="&#xc0;" horiz-adv-x="577" 
d="M494 776l-29 -46l-216 116l29 45zM484 0l-28 126h-310l-53 -126h-73l312 700h61l164 -700h-73zM173 187h271l-92 422z" />
    <glyph glyph-name="Aacute" unicode="&#xc1;" horiz-adv-x="577" 
d="M506 846l-240 -116l-19 46l240 115zM484 0l-28 126h-310l-53 -126h-73l312 700h61l164 -700h-73zM173 187h271l-92 422z" />
    <glyph glyph-name="Acircumflex" unicode="&#xc2;" horiz-adv-x="577" 
d="M373 823l-103 -85l-32 32l141 113l118 -113l-38 -32zM484 0l-28 126h-310l-53 -126h-73l312 700h61l164 -700h-73zM173 187h271l-92 422z" />
    <glyph glyph-name="Atilde" unicode="&#xc3;" horiz-adv-x="577" 
d="M296 811q-43 0 -81 -49l-26 27q51 73 111 73q30 0 78 -30.5t70 -30.5q46 0 83 49l27 -28q-47 -70 -111 -72q-34 -2 -81.5 29.5t-69.5 31.5zM484 0l-28 126h-310l-53 -126h-73l312 700h61l164 -700h-73zM173 187h271l-92 422z" />
    <glyph glyph-name="Adieresis" unicode="&#xc4;" horiz-adv-x="577" 
d="M251 757q-24 0 -39 16.5t-13 39.5q3 25 21.5 41.5t42.5 16.5t39 -16.5t12 -41.5q-2 -23 -20.5 -39.5t-42.5 -16.5zM485 757q-24 0 -39 16.5t-13 39.5q3 25 21.5 41.5t42.5 16.5t39 -16.5t12 -41.5q-2 -23 -20.5 -39.5t-42.5 -16.5zM484 0l-28 126h-310l-53 -126h-73
l312 700h61l164 -700h-73zM173 187h271l-92 422z" />
    <glyph glyph-name="Aring" unicode="&#xc5;" horiz-adv-x="577" 
d="M484 0l-28 126h-310l-53 -126h-73l299 671q-34 13 -52.5 43t-14.5 67q5 49 43 83t88 34t82 -34.5t27 -82.5q-4 -38 -29.5 -68t-62.5 -42l157 -671h-73zM296 781q-3 -32 16.5 -53.5t50.5 -21.5q32 0 56.5 22t27.5 53q4 32 -15.5 54t-52.5 22q-31 0 -55 -22t-28 -54z
M173 187h271l-92 422z" />
    <glyph glyph-name="AE" unicode="&#xc6;" horiz-adv-x="818" 
d="M815 639h-284l-27 -261h284l-7 -61h-284l-27 -256h284l-6 -61h-351l13 128h-246l-76 -128h-73l427 700h380zM200 187h217l46 443z" />
    <glyph glyph-name="Ccedilla" unicode="&#xc7;" horiz-adv-x="774" 
d="M406 46q103 0 173 46.5t102 127.5h73q-33 -102 -121 -166t-216 -69l-5 -52q16 20 52 20q32 0 51.5 -22.5t15.5 -59.5q-4 -38 -30 -62t-68 -24q-35 0 -55 19.5t-19 50.5h38q-1 -16 10 -26.5t31 -10.5q22 0 36.5 14t16.5 39q3 24 -7.5 38t-33.5 14q-29 0 -47 -24h-33l9 86
q-155 7 -236.5 110t-65.5 255q16 157 125 261t274 104q135 0 214 -65t91 -170h-73q-15 80 -75 127t-163 47q-134 0 -221.5 -86t-101.5 -218t55.5 -218t203.5 -86z" />
    <glyph glyph-name="Egrave" unicode="&#xc8;" horiz-adv-x="547" 
d="M464 730l-216 116l29 45l216 -115zM85 0l74 700h391l-7 -61h-324l-27 -261h324l-7 -61h-324l-27 -256h324l-6 -61h-391z" />
    <glyph glyph-name="Eacute" unicode="&#xc9;" horiz-adv-x="547" 
d="M264 730l-19 46l240 115l19 -45zM85 0l74 700h391l-7 -61h-324l-27 -261h324l-7 -61h-324l-27 -256h324l-6 -61h-391z" />
    <glyph glyph-name="Ecircumflex" unicode="&#xca;" horiz-adv-x="547" 
d="M378 883l118 -113l-38 -32l-86 85l-103 -85l-32 32zM85 0l74 700h391l-7 -61h-324l-27 -261h324l-7 -61h-324l-27 -256h324l-6 -61h-391z" />
    <glyph glyph-name="Edieresis" unicode="&#xcb;" horiz-adv-x="547" 
d="M250 757q-24 0 -39 16.5t-13 39.5q3 25 21.5 41.5t42.5 16.5t39 -16.5t12 -41.5q-2 -23 -20.5 -39.5t-42.5 -16.5zM484 757q-24 0 -39 16.5t-13 39.5q3 25 21.5 41.5t42.5 16.5t39 -16.5t12 -41.5q-2 -23 -20.5 -39.5t-42.5 -16.5zM85 0l74 700h391l-7 -61h-324l-27 -261
h324l-7 -61h-324l-27 -256h324l-6 -61h-391z" />
    <glyph glyph-name="Igrave" unicode="&#xcc;" horiz-adv-x="237" 
d="M253 745l-134 85l35 45l133 -85zM85 0l74 700h67l-74 -700h-67z" />
    <glyph glyph-name="Iacute" unicode="&#xcd;" horiz-adv-x="237" 
d="M136 744l-24 44l159 92l26 -44zM85 0l74 700h67l-74 -700h-67z" />
    <glyph glyph-name="Icircumflex" unicode="&#xce;" horiz-adv-x="237" 
d="M271 748l-67 66l-80 -66l-29 35l115 91l96 -91zM85 0l74 700h67l-74 -700h-67z" />
    <glyph glyph-name="Idieresis" unicode="&#xcf;" horiz-adv-x="237" 
d="M135 759q-23 0 -37 15t-12 39q3 24 20 39t40 15q24 0 37.5 -15t10.5 -39q-2 -24 -19 -39t-40 -15zM261 759q-23 0 -37 15t-12 39q3 24 20 39t40 15q24 0 38 -15t11 -39q-2 -24 -19 -39t-41 -15zM85 0l74 700h67l-74 -700h-67z" />
    <glyph glyph-name="Eth" unicode="&#xd0;" horiz-adv-x="687" 
d="M368 700q84 0 150 -29.5t105 -78.5t56 -111.5t10 -130.5t-37.5 -130.5t-79.5 -111.5t-121.5 -78.5t-156.5 -29.5h-209l34 324h-80l6 58h80l34 318h209zM295 61q139 0 226 85.5t100 203.5q12 118 -57 203.5t-208 85.5h-137l-27 -257h144l-6 -58h-144l-28 -263h137z" />
    <glyph glyph-name="Ntilde" unicode="&#xd1;" horiz-adv-x="661" 
d="M489 750q-34 -2 -81.5 29.5t-69.5 31.5q-43 0 -81 -49l-26 27q51 73 111 73q30 0 78 -30.5t70 -30.5q46 0 83 49l27 -28q-47 -70 -111 -72zM85 0l74 700h72l292 -589l62 589h64l-74 -700h-72l-291 589l-62 -589h-65z" />
    <glyph glyph-name="Ograve" unicode="&#xd2;" horiz-adv-x="800" 
d="M576 730l-216 116l29 45l216 -115zM398 -15q-163 0 -250 106.5t-71 258.5t125.5 258.5t272.5 106.5q109 0 187 -51t111.5 -133.5t23.5 -180.5q-16 -152 -126 -258.5t-273 -106.5zM405 46q132 0 220.5 88.5t101.5 215.5t-56.5 215.5t-201.5 88.5t-220.5 -88.5
t-101.5 -215.5t56.5 -215.5t201.5 -88.5z" />
    <glyph glyph-name="Oacute" unicode="&#xd3;" horiz-adv-x="800" 
d="M377 730l-19 46l240 115l19 -45zM398 -15q-163 0 -250 106.5t-71 258.5t125.5 258.5t272.5 106.5q109 0 187 -51t111.5 -133.5t23.5 -180.5q-16 -152 -126 -258.5t-273 -106.5zM405 46q132 0 220.5 88.5t101.5 215.5t-56.5 215.5t-201.5 88.5t-220.5 -88.5t-101.5 -215.5
t56.5 -215.5t201.5 -88.5z" />
    <glyph glyph-name="Ocircumflex" unicode="&#xd4;" horiz-adv-x="800" 
d="M491 883l118 -113l-38 -32l-86 85l-103 -85l-32 32zM398 -15q-163 0 -250 106.5t-71 258.5t125.5 258.5t272.5 106.5q109 0 187 -51t111.5 -133.5t23.5 -180.5q-16 -152 -126 -258.5t-273 -106.5zM405 46q132 0 220.5 88.5t101.5 215.5t-56.5 215.5t-201.5 88.5
t-220.5 -88.5t-101.5 -215.5t56.5 -215.5t201.5 -88.5z" />
    <glyph glyph-name="Otilde" unicode="&#xd5;" horiz-adv-x="800" 
d="M558 750q-34 -2 -81.5 29.5t-69.5 31.5q-43 0 -81 -49l-26 27q51 73 111 73q30 0 78 -30.5t70 -30.5q46 0 83 49l27 -28q-47 -70 -111 -72zM398 -15q-163 0 -250 106.5t-71 258.5t125.5 258.5t272.5 106.5q109 0 187 -51t111.5 -133.5t23.5 -180.5q-16 -152 -126 -258.5
t-273 -106.5zM405 46q132 0 220.5 88.5t101.5 215.5t-56.5 215.5t-201.5 88.5t-220.5 -88.5t-101.5 -215.5t56.5 -215.5t201.5 -88.5z" />
    <glyph glyph-name="Odieresis" unicode="&#xd6;" horiz-adv-x="800" 
d="M363 757q-24 0 -39 16.5t-13 39.5q3 25 21.5 41.5t42.5 16.5t39 -16.5t12 -41.5q-2 -23 -20.5 -39.5t-42.5 -16.5zM597 757q-24 0 -39 16.5t-13 39.5q3 25 21.5 41.5t42.5 16.5t39 -16.5t12 -41.5q-2 -23 -20.5 -39.5t-42.5 -16.5zM398 -15q-163 0 -250 106.5t-71 258.5
t125.5 258.5t272.5 106.5q109 0 187 -51t111.5 -133.5t23.5 -180.5q-16 -152 -126 -258.5t-273 -106.5zM405 46q132 0 220.5 88.5t101.5 215.5t-56.5 215.5t-201.5 88.5t-220.5 -88.5t-101.5 -215.5t56.5 -215.5t201.5 -88.5z" />
    <glyph glyph-name="multiply" unicode="&#xd7;" horiz-adv-x="477" 
d="M470 458l-157 -144l127 -142l-45 -41l-128 142l-156 -141l-38 40l158 142l-128 143l45 41l127 -142l158 142z" />
    <glyph glyph-name="Oslash" unicode="&#xd8;" horiz-adv-x="800" 
d="M637 678q87 -44 129 -132.5t31 -195.5q-16 -152 -126 -258.5t-273 -106.5q-63 0 -120 19l-42 -79l-45 21l41 77q-85 46 -125.5 134t-29.5 193q16 152 125.5 258.5t272.5 106.5q65 0 118 -18l40 75l44 -20zM147 350q-9 -86 21.5 -158t95.5 -110l298 558q-44 14 -93 14
q-132 0 -220.5 -88.5t-101.5 -215.5zM405 46q132 0 220.5 88.5t101.5 215.5q9 87 -22.5 159.5t-98.5 110.5l-298 -559q43 -15 97 -15z" />
    <glyph glyph-name="Ugrave" unicode="&#xd9;" horiz-adv-x="630" 
d="M491 730l-216 116l29 45l216 -115zM313 -15q-115 0 -176 63.5t-48 179.5l50 472h67l-50 -469q-9 -89 35 -137t129 -48t139 48t63 137l50 469h67l-50 -472q-13 -116 -87 -179.5t-189 -63.5z" />
    <glyph glyph-name="Uacute" unicode="&#xda;" horiz-adv-x="630" 
d="M292 730l-19 46l240 115l19 -45zM313 -15q-115 0 -176 63.5t-48 179.5l50 472h67l-50 -469q-9 -89 35 -137t129 -48t139 48t63 137l50 469h67l-50 -472q-13 -116 -87 -179.5t-189 -63.5z" />
    <glyph glyph-name="Ucircumflex" unicode="&#xdb;" horiz-adv-x="630" 
d="M405 883l118 -113l-38 -32l-86 85l-103 -85l-32 32zM313 -15q-115 0 -176 63.5t-48 179.5l50 472h67l-50 -469q-9 -89 35 -137t129 -48t139 48t63 137l50 469h67l-50 -472q-13 -116 -87 -179.5t-189 -63.5z" />
    <glyph glyph-name="Udieresis" unicode="&#xdc;" horiz-adv-x="630" 
d="M277 757q-24 0 -39 16.5t-13 39.5q3 25 21.5 41.5t42.5 16.5t39 -16.5t12 -41.5q-2 -23 -20.5 -39.5t-42.5 -16.5zM511 757q-24 0 -39 16.5t-13 39.5q3 25 21.5 41.5t42.5 16.5t39 -16.5t12 -41.5q-2 -23 -20.5 -39.5t-42.5 -16.5zM313 -15q-115 0 -176 63.5t-48 179.5
l50 472h67l-50 -469q-9 -89 35 -137t129 -48t139 48t63 137l50 469h67l-50 -472q-13 -116 -87 -179.5t-189 -63.5z" />
    <glyph glyph-name="Yacute" unicode="&#xdd;" horiz-adv-x="542" 
d="M501 846l-240 -116l-19 46l240 115zM552 700h74l-431 -700h-74l170 277l-222 423h78l186 -354z" />
    <glyph glyph-name="Thorn" unicode="&#xde;" horiz-adv-x="577" 
d="M390 582q104 0 160.5 -67.5t46.5 -164.5t-80.5 -164t-174.5 -67h-177l-13 -119h-67l74 700h67l-13 -118h177zM345 180q74 0 125.5 49.5t59.5 120.5q8 72 -33 121.5t-116 49.5h-174l-36 -341h174z" />
    <glyph glyph-name="germandbls" unicode="&#xdf;" horiz-adv-x="564" 
d="M294 -13q-52 0 -89 13l6 58q35 -12 84 -12q72 0 120 37.5t55 104.5q6 59 -32 102.5t-116 43.5h-58l6 58h51q74 0 117.5 37t49.5 96t-28.5 95.5t-102.5 36.5q-69 0 -112 -44t-50 -111l-53 -502h-64l53 502q9 93 72 153t160 60q99 0 148.5 -50.5t41.5 -134.5
q-7 -66 -51 -111.5t-110 -53.5q71 -7 109.5 -60.5t31.5 -124.5q-9 -90 -76 -141.5t-163 -51.5z" />
    <glyph glyph-name="agrave" unicode="&#xe0;" horiz-adv-x="590" 
d="M367 511l-148 142l41 39l148 -143zM267 -12q-105 0 -159.5 67.5t-43.5 171.5t80.5 172t173.5 68q62 0 105.5 -30t60.5 -81l11 99h63l-48 -455h-63l10 98q-27 -49 -78.5 -79.5t-111.5 -30.5zM280 46q80 0 133 52.5t61 128.5q8 77 -34 129.5t-122 52.5q-77 0 -129.5 -51.5
t-60.5 -130.5t33.5 -130t118.5 -51z" />
    <glyph glyph-name="aacute" unicode="&#xe1;" horiz-adv-x="590" 
d="M299 511l-33 38l178 143l33 -39zM267 -12q-105 0 -159.5 67.5t-43.5 171.5t80.5 172t173.5 68q62 0 105.5 -30t60.5 -81l11 99h63l-48 -455h-63l10 98q-27 -49 -78.5 -79.5t-111.5 -30.5zM280 46q80 0 133 52.5t61 128.5q8 77 -34 129.5t-122 52.5q-77 0 -129.5 -51.5
t-60.5 -130.5t33.5 -130t118.5 -51z" />
    <glyph glyph-name="acircumflex" unicode="&#xe2;" horiz-adv-x="590" 
d="M351 693l138 -147l-43 -38l-103 113l-126 -113l-36 38zM267 -12q-105 0 -159.5 67.5t-43.5 171.5t80.5 172t173.5 68q62 0 105.5 -30t60.5 -81l11 99h63l-48 -455h-63l10 98q-27 -49 -78.5 -79.5t-111.5 -30.5zM280 46q80 0 133 52.5t61 128.5q8 77 -34 129.5t-122 52.5
q-77 0 -129.5 -51.5t-60.5 -130.5t33.5 -130t118.5 -51z" />
    <glyph glyph-name="atilde" unicode="&#xe3;" horiz-adv-x="590" 
d="M408 541q-27 0 -72 29t-67 29q-40 0 -77 -46l-23 34q44 66 104 66q27 0 72 -29t67 -29q40 0 76 46l24 -34q-46 -66 -104 -66zM267 -12q-105 0 -159.5 67.5t-43.5 171.5t80.5 172t173.5 68q62 0 105.5 -30t60.5 -81l11 99h63l-48 -455h-63l10 98q-27 -49 -78.5 -79.5
t-111.5 -30.5zM280 46q80 0 133 52.5t61 128.5q8 77 -34 129.5t-122 52.5q-77 0 -129.5 -51.5t-60.5 -130.5t33.5 -130t118.5 -51z" />
    <glyph glyph-name="adieresis" unicode="&#xe4;" horiz-adv-x="590" 
d="M236 547q-23 0 -37.5 16.5t-12.5 39.5q3 25 21 41.5t41 16.5q25 0 40 -16.5t12 -41.5q-2 -23 -20.5 -39.5t-43.5 -16.5zM433 547q-23 0 -37.5 16.5t-12.5 39.5q3 25 21 41.5t41 16.5q25 0 40 -16.5t12 -41.5q-2 -23 -20.5 -39.5t-43.5 -16.5zM267 -12q-105 0 -159.5 67.5
t-43.5 171.5t80.5 172t173.5 68q62 0 105.5 -30t60.5 -81l11 99h63l-48 -455h-63l10 98q-27 -49 -78.5 -79.5t-111.5 -30.5zM280 46q80 0 133 52.5t61 128.5q8 77 -34 129.5t-122 52.5q-77 0 -129.5 -51.5t-60.5 -130.5t33.5 -130t118.5 -51z" />
    <glyph glyph-name="aring" unicode="&#xe5;" horiz-adv-x="590" 
d="M330 495q-46 0 -74 30.5t-24 77.5q5 47 40 77.5t81 30.5t74 -30.5t23 -77.5q-4 -47 -39 -77.5t-81 -30.5zM334 531q30 0 51.5 20t24.5 52q4 31 -13.5 51.5t-47.5 20.5q-29 0 -51 -20.5t-26 -51.5q-3 -32 14.5 -52t47.5 -20zM267 -12q-105 0 -159.5 67.5t-43.5 171.5
t80.5 172t173.5 68q62 0 105.5 -30t60.5 -81l11 99h63l-48 -455h-63l10 98q-27 -49 -78.5 -79.5t-111.5 -30.5zM280 46q80 0 133 52.5t61 128.5q8 77 -34 129.5t-122 52.5q-77 0 -129.5 -51.5t-60.5 -130.5t33.5 -130t118.5 -51z" />
    <glyph glyph-name="ae" unicode="&#xe6;" horiz-adv-x="879" 
d="M866 255q-1 -10 -7 -43h-370q-7 -77 33 -122.5t114 -45.5q50 0 88 23t58 64h65q-20 -65 -80 -104.5t-137 -39.5q-66 0 -114.5 30.5t-70.5 85.5q-68 -115 -223 -115q-79 0 -125 35.5t-40 94.5q8 73 65 109q57 35 189 35h125l4 38q5 52 -27 83t-102 31q-64 0 -104.5 -28.5
t-48.5 -80.5h-64q11 74 72 118t151 44q139 0 173 -90q70 89 186 89q93 0 146.5 -59.5t43.5 -151.5zM496 262h307q7 69 -29.5 111t-102.5 42q-70 0 -118 -41.5t-57 -111.5zM428 188l1 12v12h-152q-143 0 -153 -89q-4 -41 27.5 -62t92.5 -21q71 0 124 39.5t60 108.5z" />
    <glyph glyph-name="ccedilla" unicode="&#xe7;" horiz-adv-x="516" 
d="M271 46q60 0 101 27.5t55 77.5h65q-16 -70 -72 -114.5t-138 -48.5l-6 -55q16 20 52 20q32 0 51.5 -22.5t15.5 -59.5q-4 -38 -30 -62t-68 -24q-35 0 -55 19.5t-19 50.5h38q-1 -16 10 -26.5t31 -10.5q22 0 36.5 14t16.5 39q3 24 -7.5 38t-33.5 14q-29 0 -47 -24h-33l10 90
q-93 7 -142 72t-38 166q11 107 79.5 173t171.5 66q89 0 140 -44.5t53 -120.5h-65q-4 52 -39 79.5t-95 27.5q-75 0 -123.5 -49t-57.5 -132t29.5 -132t113.5 -49z" />
    <glyph glyph-name="egrave" unicode="&#xe8;" horiz-adv-x="515" 
d="M390 549l-41 -38l-148 142l41 39zM502 256q-2 -17 -7 -43h-368q-8 -77 31 -122.5t112 -45.5q51 0 89.5 22t57.5 61h65q-20 -62 -80 -101t-138 -39q-103 0 -157 65.5t-43 174.5q11 108 79 173.5t167 65.5q95 0 148.5 -59t43.5 -152zM133 264h307q6 69 -29.5 110t-105.5 41
q-67 0 -114 -41.5t-58 -109.5z" />
    <glyph glyph-name="eacute" unicode="&#xe9;" horiz-adv-x="515" 
d="M459 653l-178 -142l-33 38l178 143zM502 256q-2 -17 -7 -43h-368q-8 -77 31 -122.5t112 -45.5q51 0 89.5 22t57.5 61h65q-20 -62 -80 -101t-138 -39q-103 0 -157 65.5t-43 174.5q11 108 79 173.5t167 65.5q95 0 148.5 -59t43.5 -152zM133 264h307q6 69 -29.5 110
t-105.5 41q-67 0 -114 -41.5t-58 -109.5z" />
    <glyph glyph-name="ecircumflex" unicode="&#xea;" horiz-adv-x="515" 
d="M326 621l-126 -113l-36 38l170 147l138 -147l-43 -38zM502 256q-2 -17 -7 -43h-368q-8 -77 31 -122.5t112 -45.5q51 0 89.5 22t57.5 61h65q-20 -62 -80 -101t-138 -39q-103 0 -157 65.5t-43 174.5q11 108 79 173.5t167 65.5q95 0 148.5 -59t43.5 -152zM133 264h307
q6 69 -29.5 110t-105.5 41q-67 0 -114 -41.5t-58 -109.5z" />
    <glyph glyph-name="edieresis" unicode="&#xeb;" horiz-adv-x="515" 
d="M218 547q-23 0 -37.5 16.5t-12.5 39.5q3 25 21 41.5t41 16.5q25 0 40 -16.5t12 -41.5q-2 -23 -20.5 -39.5t-43.5 -16.5zM415 547q-23 0 -37.5 16.5t-12.5 39.5q3 25 21 41.5t41 16.5q25 0 40 -16.5t12 -41.5q-2 -23 -20.5 -39.5t-43.5 -16.5zM502 256q-2 -17 -7 -43h-368
q-8 -77 31 -122.5t112 -45.5q51 0 89.5 22t57.5 61h65q-20 -62 -80 -101t-138 -39q-103 0 -157 65.5t-43 174.5q11 108 79 173.5t167 65.5q95 0 148.5 -59t43.5 -152zM133 264h307q6 69 -29.5 110t-105.5 41q-67 0 -114 -41.5t-58 -109.5z" />
    <glyph glyph-name="igrave" unicode="&#xec;" horiz-adv-x="224" 
d="M201 511l-148 142l41 39l148 -143zM80 0l48 455h64l-48 -455h-64z" />
    <glyph glyph-name="iacute" unicode="&#xed;" horiz-adv-x="224" 
d="M133 511l-33 38l178 143l33 -39zM80 0l48 455h64l-48 -455h-64z" />
    <glyph glyph-name="icircumflex" unicode="&#xee;" horiz-adv-x="224" 
d="M185 693l138 -147l-43 -38l-103 113l-126 -113l-36 38zM80 0l48 455h64l-48 -455h-64z" />
    <glyph glyph-name="idieresis" unicode="&#xef;" horiz-adv-x="224" 
d="M107 552q-21 0 -34 14.5t-11 35.5q2 22 18.5 36.5t37.5 14.5q22 0 34.5 -14.5t10.5 -36.5q-2 -21 -18 -35.5t-38 -14.5zM232 552q-21 0 -34 14.5t-11 35.5q2 22 18.5 36.5t37.5 14.5q22 0 34.5 -14.5t10.5 -36.5q-2 -21 -18 -35.5t-38 -14.5zM80 0l48 455h64l-48 -455
h-64z" />
    <glyph glyph-name="eth" unicode="&#xf0;" horiz-adv-x="549" 
d="M504 374q38 -63 29 -146q-11 -103 -82.5 -171.5t-177.5 -68.5t-163 69t-46 171q11 105 84 172t179 67q29 0 50 -7l-55 96l-98 -51l-16 37l95 49l-61 109h80l42 -77l95 48l17 -36l-91 -47zM279 47q78 0 129.5 51.5t60.5 129.5q8 78 -33 129.5t-119 51.5t-129.5 -51.5
t-59.5 -130.5q-8 -77 32.5 -128.5t118.5 -51.5z" />
    <glyph glyph-name="ntilde" unicode="&#xf1;" horiz-adv-x="563" 
d="M411 540q-27 0 -72 29t-67 29q-40 0 -77 -46l-23 34q44 66 104 66q27 0 71.5 -29t66.5 -29q40 0 77 46l24 -34q-46 -66 -104 -66zM80 0l48 455h64l-11 -104q23 53 69.5 84.5t113.5 31.5q86 0 124.5 -49.5t28.5 -143.5l-29 -274h-64l26 249q18 162 -113 162
q-73 0 -116.5 -48.5t-52.5 -130.5l-24 -232h-64z" />
    <glyph glyph-name="ograve" unicode="&#xf2;" horiz-adv-x="549" 
d="M363 510l-148 142l41 39l148 -143zM273 -12q-106 0 -163 69t-46 171t82.5 170.5t176.5 68.5q106 0 163.5 -68.5t46.5 -170.5q-11 -103 -82.5 -171.5t-177.5 -68.5zM279 47q78 0 129.5 51.5t60.5 129.5q8 78 -33 129.5t-119 51.5t-129.5 -51.5t-59.5 -130.5
q-8 -77 32.5 -128.5t118.5 -51.5z" />
    <glyph glyph-name="oacute" unicode="&#xf3;" horiz-adv-x="549" 
d="M285 510l-33 38l178 143l33 -39zM273 -12q-106 0 -163 69t-46 171t82.5 170.5t176.5 68.5q106 0 163.5 -68.5t46.5 -170.5q-11 -103 -82.5 -171.5t-177.5 -68.5zM279 47q78 0 129.5 51.5t60.5 129.5q8 78 -33 129.5t-119 51.5t-129.5 -51.5t-59.5 -130.5
q-8 -77 32.5 -128.5t118.5 -51.5z" />
    <glyph glyph-name="ocircumflex" unicode="&#xf4;" horiz-adv-x="549" 
d="M348 692l138 -147l-43 -38l-103 113l-126 -113l-36 38zM273 -12q-106 0 -163 69t-46 171t82.5 170.5t176.5 68.5q106 0 163.5 -68.5t46.5 -170.5q-11 -103 -82.5 -171.5t-177.5 -68.5zM279 47q78 0 129.5 51.5t60.5 129.5q8 78 -33 129.5t-119 51.5t-129.5 -51.5
t-59.5 -130.5q-8 -77 32.5 -128.5t118.5 -51.5z" />
    <glyph glyph-name="otilde" unicode="&#xf5;" horiz-adv-x="549" 
d="M405 540q-27 0 -72 29t-67 29q-40 0 -77 -46l-23 34q44 66 104 66q27 0 71.5 -29t66.5 -29q40 0 77 46l24 -34q-46 -66 -104 -66zM273 -12q-106 0 -163 69t-46 171t82.5 170.5t176.5 68.5q106 0 163.5 -68.5t46.5 -170.5q-11 -103 -82.5 -171.5t-177.5 -68.5zM279 47
q78 0 129.5 51.5t60.5 129.5q8 78 -33 129.5t-119 51.5t-129.5 -51.5t-59.5 -130.5q-8 -77 32.5 -128.5t118.5 -51.5z" />
    <glyph glyph-name="odieresis" unicode="&#xf6;" horiz-adv-x="549" 
d="M232 546q-23 0 -37.5 16.5t-12.5 39.5q3 25 21 41.5t41 16.5q25 0 40 -16.5t12 -41.5q-2 -23 -20.5 -39.5t-43.5 -16.5zM429 546q-23 0 -37.5 16.5t-12.5 39.5q3 25 21 41.5t41 16.5q25 0 40 -16.5t12 -41.5q-2 -23 -20.5 -39.5t-43.5 -16.5zM273 -12q-106 0 -163 69
t-46 171t82.5 170.5t176.5 68.5q106 0 163.5 -68.5t46.5 -170.5q-11 -103 -82.5 -171.5t-177.5 -68.5zM279 47q78 0 129.5 51.5t60.5 129.5q8 78 -33 129.5t-119 51.5t-129.5 -51.5t-59.5 -130.5q-8 -77 32.5 -128.5t118.5 -51.5z" />
    <glyph glyph-name="divide" unicode="&#xf7;" horiz-adv-x="504" 
d="M294 402q-25 0 -40 16.5t-13 41.5q3 25 22 42.5t44 17.5t40.5 -17.5t12.5 -42.5q-2 -24 -21.5 -41t-44.5 -17zM85 283l6 58h394l-6 -58h-394zM263 109q-25 0 -40 17t-12 42q2 25 21 42t44 17t40.5 -17t13.5 -42q-3 -25 -22.5 -42t-44.5 -17z" />
    <glyph glyph-name="oslash" unicode="&#xf8;" horiz-adv-x="549" 
d="M441 437q51 -31 75 -86t17 -123q-11 -103 -82.5 -171.5t-177.5 -68.5q-38 0 -68 9l-35 -64l-37 17l33 62q-56 29 -83 86.5t-19 129.5q11 102 82.5 170.5t176.5 68.5q46 0 81 -13l28 54l38 -17zM128 227q-11 -112 68 -159l178 332q-24 9 -57 9q-78 0 -129.5 -51.5
t-59.5 -130.5zM279 47q78 0 129.5 51.5t60.5 129.5q11 104 -58 153l-177 -329q23 -5 45 -5z" />
    <glyph glyph-name="ugrave" unicode="&#xf9;" horiz-adv-x="563" 
d="M372 510l-148 142l41 39l148 -143zM252 -12q-81 0 -124.5 49.5t-33.5 143.5l29 274h64l-28 -260q-15 -150 116 -150q73 0 115.5 51t49.5 118l26 241h64l-48 -455h-64l11 103q-23 -51 -70 -83t-107 -32z" />
    <glyph glyph-name="uacute" unicode="&#xfa;" horiz-adv-x="563" 
d="M294 510l-33 38l178 143l33 -39zM252 -12q-81 0 -124.5 49.5t-33.5 143.5l29 274h64l-28 -260q-15 -150 116 -150q73 0 115.5 51t49.5 118l26 241h64l-48 -455h-64l11 103q-23 -51 -70 -83t-107 -32z" />
    <glyph glyph-name="ucircumflex" unicode="&#xfb;" horiz-adv-x="563" 
d="M356 692l138 -147l-43 -38l-103 113l-126 -113l-36 38zM252 -12q-81 0 -124.5 49.5t-33.5 143.5l29 274h64l-28 -260q-15 -150 116 -150q73 0 115.5 51t49.5 118l26 241h64l-48 -455h-64l11 103q-23 -51 -70 -83t-107 -32z" />
    <glyph glyph-name="udieresis" unicode="&#xfc;" horiz-adv-x="563" 
d="M241 546q-23 0 -37.5 16.5t-12.5 39.5q3 25 21 41.5t41 16.5q25 0 40 -16.5t12 -41.5q-2 -23 -20.5 -39.5t-43.5 -16.5zM438 546q-23 0 -37.5 16.5t-12.5 39.5q3 25 21 41.5t41 16.5q25 0 40 -16.5t12 -41.5q-2 -23 -20.5 -39.5t-43.5 -16.5zM252 -12q-81 0 -124.5 49.5
t-33.5 143.5l29 274h64l-28 -260q-15 -150 116 -150q73 0 115.5 51t49.5 118l26 241h64l-48 -455h-64l11 103q-23 -51 -70 -83t-107 -32z" />
    <glyph glyph-name="yacute" unicode="&#xfd;" horiz-adv-x="567" 
d="M290 510l-33 38l178 143l33 -39zM471 455h64l-50 -470q-10 -111 -81 -166q-58 -46 -149 -46q-97 0 -148 46q-45 43 -39 117h65q-7 -108 127 -108q145 0 162 161l12 112q-26 -50 -73 -81t-109 -31q-178 0 -157 202l28 264h64l-27 -252q-8 -76 18 -116t100 -40
q72 0 116.5 52.5t51.5 122.5z" />
    <glyph glyph-name="thorn" unicode="&#xfe;" horiz-adv-x="590" 
d="M57 -215l97 915h64l-37 -344q28 52 80.5 81.5t114.5 29.5q98 0 153.5 -67t44.5 -173q-11 -104 -82 -171.5t-170 -67.5q-60 0 -105.5 30t-62.5 80l-33 -313h-64zM321 46q74 0 127.5 51t61.5 130q8 80 -34.5 131t-116.5 51q-77 0 -131.5 -51t-62.5 -131q-8 -79 36 -130
t120 -51z" />
    <glyph glyph-name="ydieresis" unicode="&#xff;" horiz-adv-x="567" 
d="M237 546q-23 0 -37.5 16.5t-12.5 39.5q3 25 21 41.5t41 16.5q25 0 40 -16.5t12 -41.5q-2 -23 -20.5 -39.5t-43.5 -16.5zM434 546q-23 0 -37.5 16.5t-12.5 39.5q3 25 21 41.5t41 16.5q25 0 40 -16.5t12 -41.5q-2 -23 -20.5 -39.5t-43.5 -16.5zM471 455h64l-50 -470
q-10 -111 -81 -166q-58 -46 -149 -46q-97 0 -148 46q-45 43 -39 117h65q-7 -108 127 -108q145 0 162 161l12 112q-26 -50 -73 -81t-109 -31q-178 0 -157 202l28 264h64l-27 -252q-8 -76 18 -116t100 -40q72 0 116.5 52.5t51.5 122.5z" />
    <glyph glyph-name="Amacron" unicode="&#x100;" horiz-adv-x="577" 
d="M553 824l-6 -52h-354l6 52h354zM484 0l-28 126h-310l-53 -126h-73l312 700h61l164 -700h-73zM173 187h271l-92 422z" />
    <glyph glyph-name="amacron" unicode="&#x101;" horiz-adv-x="590" 
d="M177 554l6 53h317l-6 -53h-317zM267 -12q-105 0 -159.5 67.5t-43.5 171.5t80.5 172t173.5 68q62 0 105.5 -30t60.5 -81l11 99h63l-48 -455h-63l10 98q-27 -49 -78.5 -79.5t-111.5 -30.5zM280 46q80 0 133 52.5t61 128.5q8 77 -34 129.5t-122 52.5q-77 0 -129.5 -51.5
t-60.5 -130.5t33.5 -130t118.5 -51z" />
    <glyph glyph-name="Abreve" unicode="&#x102;" horiz-adv-x="577" 
d="M366 736q-65 0 -107 35.5t-41 92.5h55q1 -39 28.5 -59.5t69.5 -20.5q43 0 75.5 20.5t41.5 59.5h54q-11 -57 -61 -92.5t-115 -35.5zM484 0l-28 126h-310l-53 -126h-73l312 700h61l164 -700h-73zM173 187h271l-92 422z" />
    <glyph glyph-name="abreve" unicode="&#x103;" horiz-adv-x="590" 
d="M331 509q-70 0 -111.5 38.5t-39.5 106.5h56q-1 -46 27 -71t74 -25t79 25t42 71h55q-12 -68 -62 -106.5t-120 -38.5zM267 -12q-105 0 -159.5 67.5t-43.5 171.5t80.5 172t173.5 68q62 0 105.5 -30t60.5 -81l11 99h63l-48 -455h-63l10 98q-27 -49 -78.5 -79.5t-111.5 -30.5z
M280 46q80 0 133 52.5t61 128.5q8 77 -34 129.5t-122 52.5q-77 0 -129.5 -51.5t-60.5 -130.5t33.5 -130t118.5 -51z" />
    <glyph glyph-name="Aogonek" unicode="&#x104;" horiz-adv-x="577" 
d="M510 -162q28 0 63 14l-6 -49q-41 -15 -79 -15q-51 0 -77 26.5t-21 67.5q7 72 103 118h-9l-28 126h-310l-53 -126h-73l312 700h61l164 -700q-49 -14 -75.5 -41t-29.5 -58q-3 -28 12.5 -45.5t45.5 -17.5zM173 187h271l-92 422z" />
    <glyph glyph-name="aogonek" unicode="&#x105;" horiz-adv-x="590" 
d="M464 -162q28 0 63 14l-6 -49q-41 -15 -79 -15q-51 0 -77 26.5t-21 67.5q7 72 103 118l10 98q-27 -49 -78.5 -79.5t-111.5 -30.5q-105 0 -159.5 67.5t-43.5 171.5t80.5 172t173.5 68q62 0 105.5 -30t60.5 -81l11 99h63l-48 -455h1q-49 -14 -75.5 -41t-29.5 -58
q-3 -28 12.5 -45.5t45.5 -17.5zM280 46q80 0 133 52.5t61 128.5q8 77 -34 129.5t-122 52.5q-77 0 -129.5 -51.5t-60.5 -130.5t33.5 -130t118.5 -51z" />
    <glyph glyph-name="Cacute" unicode="&#x106;" horiz-adv-x="774" 
d="M377 730l-19 46l240 115l19 -45zM399 -15q-165 0 -252 104t-70 261q16 157 125 261t274 104q135 0 214 -65t91 -170h-73q-15 80 -75 127t-163 47q-134 0 -221.5 -86t-101.5 -218t55.5 -218t203.5 -86q103 0 173 46.5t102 127.5h73q-34 -105 -127 -170t-228 -65z" />
    <glyph glyph-name="cacute" unicode="&#x107;" horiz-adv-x="516" 
d="M285 511l-33 38l178 143l33 -39zM265 -12q-103 0 -157.5 66t-43.5 173t79.5 173t171.5 66q89 0 140 -44.5t53 -120.5h-65q-4 52 -39 79.5t-95 27.5q-75 0 -123.5 -49t-57.5 -132t29.5 -132t113.5 -49q60 0 101 27.5t55 77.5h65q-17 -74 -77.5 -118.5t-149.5 -44.5z" />
    <glyph glyph-name="Ccircumflex" unicode="&#x108;" horiz-adv-x="774" 
d="M491 883l118 -113l-38 -32l-86 85l-103 -85l-32 32zM399 -15q-165 0 -252 104t-70 261q16 157 125 261t274 104q135 0 214 -65t91 -170h-73q-15 80 -75 127t-163 47q-134 0 -221.5 -86t-101.5 -218t55.5 -218t203.5 -86q103 0 173 46.5t102 127.5h73q-34 -105 -127 -170
t-228 -65z" />
    <glyph glyph-name="ccircumflex" unicode="&#x109;" horiz-adv-x="516" 
d="M338 693l138 -147l-43 -38l-103 113l-126 -113l-36 38zM265 -12q-103 0 -157.5 66t-43.5 173t79.5 173t171.5 66q89 0 140 -44.5t53 -120.5h-65q-4 52 -39 79.5t-95 27.5q-75 0 -123.5 -49t-57.5 -132t29.5 -132t113.5 -49q60 0 101 27.5t55 77.5h65
q-17 -74 -77.5 -118.5t-149.5 -44.5z" />
    <glyph glyph-name="Cdotaccent" unicode="&#x10a;" horiz-adv-x="774" 
d="M479 755q-25 0 -39 16.5t-12 40.5q3 24 21 41t42 17q25 0 40 -17t12 -41q-2 -24 -20.5 -40.5t-43.5 -16.5zM399 -15q-165 0 -252 104t-70 261q16 157 125 261t274 104q135 0 214 -65t91 -170h-73q-15 80 -75 127t-163 47q-134 0 -221.5 -86t-101.5 -218t55.5 -218
t203.5 -86q103 0 173 46.5t102 127.5h73q-34 -105 -127 -170t-228 -65z" />
    <glyph glyph-name="cdotaccent" unicode="&#x10b;" horiz-adv-x="516" 
d="M321 547q-26 0 -40.5 17t-11.5 42q2 26 20.5 43t44.5 17t41 -17t13 -43q-3 -25 -22 -42t-45 -17zM265 -12q-103 0 -157.5 66t-43.5 173t79.5 173t171.5 66q89 0 140 -44.5t53 -120.5h-65q-4 52 -39 79.5t-95 27.5q-75 0 -123.5 -49t-57.5 -132t29.5 -132t113.5 -49
q60 0 101 27.5t55 77.5h65q-17 -74 -77.5 -118.5t-149.5 -44.5z" />
    <glyph glyph-name="Ccaron" unicode="&#x10c;" horiz-adv-x="774" 
d="M477 737l-118 113l39 32l86 -85l103 85l31 -32zM399 -15q-165 0 -252 104t-70 261q16 157 125 261t274 104q135 0 214 -65t91 -170h-73q-15 80 -75 127t-163 47q-134 0 -221.5 -86t-101.5 -218t55.5 -218t203.5 -86q103 0 173 46.5t102 127.5h73q-34 -105 -127 -170
t-228 -65z" />
    <glyph glyph-name="ccaron" unicode="&#x10d;" horiz-adv-x="516" 
d="M317 508l-138 147l44 38l102 -113l127 113l35 -38zM265 -12q-103 0 -157.5 66t-43.5 173t79.5 173t171.5 66q89 0 140 -44.5t53 -120.5h-65q-4 52 -39 79.5t-95 27.5q-75 0 -123.5 -49t-57.5 -132t29.5 -132t113.5 -49q60 0 101 27.5t55 77.5h65q-17 -74 -77.5 -118.5
t-149.5 -44.5z" />
    <glyph glyph-name="Dcaron" unicode="&#x10e;" horiz-adv-x="687" 
d="M400 737l-118 113l39 32l86 -85l103 85l31 -32zM85 0l74 700h209q84 0 150 -29.5t105 -78.5t56 -111.5t10 -130.5t-37.5 -130.5t-79.5 -111.5t-121.5 -78.5t-156.5 -29.5h-209zM158 61h137q139 0 226 85.5t100 203.5q12 118 -57 203.5t-208 85.5h-137z" />
    <glyph glyph-name="dcaron" unicode="&#x10f;" horiz-adv-x="707" 
d="M656 504q-12 0 -17 1l4 33q5 -1 15 -1q45 0 58 41q7 21 2 44q-13 -16 -38 -16q-21 0 -33.5 15t-10.5 37q2 23 19.5 38.5t42.5 15.5q33 0 51.5 -27.5t13.5 -72.5q-5 -51 -34 -79.5t-73 -28.5zM521 700h63l-74 -700h-63l10 98q-27 -49 -78.5 -79.5t-111.5 -30.5
q-105 0 -159.5 67.5t-43.5 171.5t80.5 172t173.5 68q62 0 105.5 -30t60.5 -81zM280 46q80 0 133 52.5t61 128.5q8 77 -34 129.5t-122 52.5q-77 0 -129.5 -51.5t-60.5 -130.5t33.5 -130t118.5 -51z" />
    <glyph glyph-name="Dcroat" unicode="&#x110;" horiz-adv-x="687" 
d="M368 700q84 0 150 -29.5t105 -78.5t56 -111.5t10 -130.5t-37.5 -130.5t-79.5 -111.5t-121.5 -78.5t-156.5 -29.5h-209l34 324h-80l6 58h80l34 318h209zM295 61q139 0 226 85.5t100 203.5q12 118 -57 203.5t-208 85.5h-137l-27 -257h144l-6 -58h-144l-28 -263h137z" />
    <glyph glyph-name="dcroat" unicode="&#x111;" horiz-adv-x="585" 
d="M630 588l-5 -46h-58l-57 -542h-63l10 98q-27 -49 -78.5 -79.5t-111.5 -30.5q-105 0 -159.5 67.5t-43.5 171.5t80.5 172t173.5 68q62 0 105.5 -30t60.5 -81l20 186h-177l5 46h177l12 112h63l-12 -112h58zM280 46q80 0 133 52.5t61 128.5q8 77 -34 129.5t-122 52.5
q-77 0 -129.5 -51.5t-60.5 -130.5t33.5 -130t118.5 -51z" />
    <glyph glyph-name="Emacron" unicode="&#x112;" horiz-adv-x="547" 
d="M192 772l6 52h354l-6 -52h-354zM85 0l74 700h391l-7 -61h-324l-27 -261h324l-7 -61h-324l-27 -256h324l-6 -61h-391z" />
    <glyph glyph-name="emacron" unicode="&#x113;" horiz-adv-x="515" 
d="M483 607l-6 -53h-317l6 53h317zM502 256q-2 -17 -7 -43h-368q-8 -77 31 -122.5t112 -45.5q51 0 89.5 22t57.5 61h65q-20 -62 -80 -101t-138 -39q-103 0 -157 65.5t-43 174.5q11 108 79 173.5t167 65.5q95 0 148.5 -59t43.5 -152zM133 264h307q6 69 -29.5 110t-105.5 41
q-67 0 -114 -41.5t-58 -109.5z" />
    <glyph glyph-name="Ebreve" unicode="&#x114;" horiz-adv-x="547" 
d="M365 736q-65 0 -107 35.5t-41 92.5h55q1 -39 28.5 -59.5t69.5 -20.5t75 20.5t42 59.5h54q-11 -57 -61 -92.5t-115 -35.5zM85 0l74 700h391l-7 -61h-324l-27 -261h324l-7 -61h-324l-27 -256h324l-6 -61h-391z" />
    <glyph glyph-name="ebreve" unicode="&#x115;" horiz-adv-x="515" 
d="M314 509q-70 0 -111.5 38.5t-39.5 106.5h56q-1 -46 27 -71t74 -25t79 25t42 71h55q-12 -68 -62 -106.5t-120 -38.5zM502 256q-2 -17 -7 -43h-368q-8 -77 31 -122.5t112 -45.5q51 0 89.5 22t57.5 61h65q-20 -62 -80 -101t-138 -39q-103 0 -157 65.5t-43 174.5
q11 108 79 173.5t167 65.5q95 0 148.5 -59t43.5 -152zM133 264h307q6 69 -29.5 110t-105.5 41q-67 0 -114 -41.5t-58 -109.5z" />
    <glyph glyph-name="Edotaccent" unicode="&#x116;" horiz-adv-x="547" 
d="M366 755q-25 0 -39 16.5t-12 40.5q3 24 21 41t42 17q25 0 40 -17t12 -41q-2 -24 -20.5 -40.5t-43.5 -16.5zM85 0l74 700h391l-7 -61h-324l-27 -261h324l-7 -61h-324l-27 -256h324l-6 -61h-391z" />
    <glyph glyph-name="edotaccent" unicode="&#x117;" horiz-adv-x="515" 
d="M317 547q-26 0 -40.5 17t-11.5 42q2 26 20.5 43t44.5 17t41 -17t13 -43q-3 -25 -22 -42t-45 -17zM502 256q-2 -17 -7 -43h-368q-8 -77 31 -122.5t112 -45.5q51 0 89.5 22t57.5 61h65q-20 -62 -80 -101t-138 -39q-103 0 -157 65.5t-43 174.5q11 108 79 173.5t167 65.5
q95 0 148.5 -59t43.5 -152zM133 264h307q6 69 -29.5 110t-105.5 41q-67 0 -114 -41.5t-58 -109.5z" />
    <glyph glyph-name="Eogonek" unicode="&#x118;" horiz-adv-x="547" 
d="M430 -162q28 0 63 14l-6 -49q-41 -15 -79 -15q-51 0 -77 26.5t-21 67.5q7 72 103 118h-328l74 700h391l-7 -61h-324l-27 -261h324l-7 -61h-324l-27 -256h324l-6 -61h1q-49 -14 -75.5 -41t-29.5 -58q-3 -28 12.5 -45.5t45.5 -17.5z" />
    <glyph glyph-name="eogonek" unicode="&#x119;" horiz-adv-x="515" 
d="M502 256q-2 -17 -7 -43h-368q-8 -77 31 -122.5t112 -45.5q51 0 89.5 22t57.5 61h65q-15 -48 -55 -83t-95 -49q-89 -30 -94 -95q-3 -28 12.5 -45.5t45.5 -17.5q28 0 63 14l-6 -49q-41 -15 -79 -15q-51 0 -77 26.5t-21 67.5q6 62 81 106q-99 2 -151.5 67.5t-41.5 172.5
q11 108 79 173.5t167 65.5q95 0 148.5 -59t43.5 -152zM133 264h307q6 69 -29.5 110t-105.5 41q-67 0 -114 -41.5t-58 -109.5z" />
    <glyph glyph-name="Ecaron" unicode="&#x11a;" horiz-adv-x="547" 
d="M365 737l-118 113l39 32l86 -85l103 85l31 -32zM85 0l74 700h391l-7 -61h-324l-27 -261h324l-7 -61h-324l-27 -256h324l-6 -61h-391z" />
    <glyph glyph-name="ecaron" unicode="&#x11b;" horiz-adv-x="515" 
d="M483 655l-170 -147l-138 147l44 38l102 -113l127 113zM502 256q-2 -17 -7 -43h-368q-8 -77 31 -122.5t112 -45.5q51 0 89.5 22t57.5 61h65q-20 -62 -80 -101t-138 -39q-103 0 -157 65.5t-43 174.5q11 108 79 173.5t167 65.5q95 0 148.5 -59t43.5 -152zM133 264h307
q6 69 -29.5 110t-105.5 41q-67 0 -114 -41.5t-58 -109.5z" />
    <glyph glyph-name="Gcircumflex" unicode="&#x11c;" horiz-adv-x="824" 
d="M484 823l-103 -85l-32 32l141 113l118 -113l-38 -32zM835 328l-6 -61h-77q-34 -131 -125.5 -206.5t-230.5 -75.5q-165 0 -250.5 103.5t-68.5 259.5q17 157 123.5 262t272.5 105q116 0 192 -57.5t85 -148.5h-73q-12 66 -68 105.5t-142 39.5q-136 0 -221 -86t-99 -220
q-14 -130 54.5 -216t201.5 -86q110 0 180.5 58t98.5 163h-204l6 61h351z" />
    <glyph glyph-name="gcircumflex" unicode="&#x11d;" horiz-adv-x="590" 
d="M352 693l138 -147l-43 -38l-103 113l-126 -113l-36 38zM494 455h64l-48 -452q-12 -124 -96 -185q-60 -45 -162 -45q-103 0 -158 46q-56 47 -50 117h66q-1 -47 37.5 -77.5t110.5 -30.5q170 0 188 171l10 99q-28 -51 -79 -80.5t-110 -29.5q-101 0 -157.5 68t-45.5 171
t82.5 171.5t171.5 68.5q61 0 105 -29.5t60 -81.5zM280 46q77 0 131.5 52t62.5 129q8 78 -35 130t-121 52q-75 0 -128.5 -51.5t-61.5 -130.5q-8 -78 34.5 -129.5t117.5 -51.5z" />
    <glyph glyph-name="Gbreve" unicode="&#x11e;" horiz-adv-x="824" 
d="M477 736q-65 0 -107 35.5t-41 92.5h55q1 -39 28.5 -59.5t69.5 -20.5t75 20.5t42 59.5h54q-11 -57 -61 -92.5t-115 -35.5zM835 328l-6 -61h-77q-34 -131 -125.5 -206.5t-230.5 -75.5q-165 0 -250.5 103.5t-68.5 259.5q17 157 123.5 262t272.5 105q116 0 192 -57.5
t85 -148.5h-73q-12 66 -68 105.5t-142 39.5q-136 0 -221 -86t-99 -220q-14 -130 54.5 -216t201.5 -86q110 0 180.5 58t98.5 163h-204l6 61h351z" />
    <glyph glyph-name="gbreve" unicode="&#x11f;" horiz-adv-x="590" 
d="M332 509q-70 0 -111.5 38.5t-39.5 106.5h56q-1 -46 27 -71t74 -25t79 25t42 71h55q-12 -68 -62 -106.5t-120 -38.5zM494 455h64l-48 -452q-12 -124 -96 -185q-60 -45 -162 -45q-103 0 -158 46q-56 47 -50 117h66q-1 -47 37.5 -77.5t110.5 -30.5q170 0 188 171l10 99
q-28 -51 -79 -80.5t-110 -29.5q-101 0 -157.5 68t-45.5 171t82.5 171.5t171.5 68.5q61 0 105 -29.5t60 -81.5zM280 46q77 0 131.5 52t62.5 129q8 78 -35 130t-121 52q-75 0 -128.5 -51.5t-61.5 -130.5q-8 -78 34.5 -129.5t117.5 -51.5z" />
    <glyph glyph-name="Gdotaccent" unicode="&#x120;" horiz-adv-x="824" 
d="M478 755q-25 0 -39 16.5t-12 40.5q3 24 21 41t42 17q25 0 40 -17t12 -41q-2 -24 -20.5 -40.5t-43.5 -16.5zM835 328l-6 -61h-77q-34 -131 -125.5 -206.5t-230.5 -75.5q-165 0 -250.5 103.5t-68.5 259.5q17 157 123.5 262t272.5 105q116 0 192 -57.5t85 -148.5h-73
q-12 66 -68 105.5t-142 39.5q-136 0 -221 -86t-99 -220q-14 -130 54.5 -216t201.5 -86q110 0 180.5 58t98.5 163h-204l6 61h351z" />
    <glyph glyph-name="gdotaccent" unicode="&#x121;" horiz-adv-x="590" 
d="M336 547q-26 0 -40.5 17t-11.5 42q2 26 20.5 43t44.5 17t41 -17t13 -43q-3 -25 -22 -42t-45 -17zM494 455h64l-48 -452q-12 -124 -96 -185q-60 -45 -162 -45q-103 0 -158 46q-56 47 -50 117h66q-1 -47 37.5 -77.5t110.5 -30.5q170 0 188 171l10 99q-28 -51 -79 -80.5
t-110 -29.5q-101 0 -157.5 68t-45.5 171t82.5 171.5t171.5 68.5q61 0 105 -29.5t60 -81.5zM280 46q77 0 131.5 52t62.5 129q8 78 -35 130t-121 52q-75 0 -128.5 -51.5t-61.5 -130.5q-8 -78 34.5 -129.5t117.5 -51.5z" />
    <glyph glyph-name="Gcommaaccent" unicode="&#x122;" horiz-adv-x="824" 
d="M835 328l-6 -61h-77q-34 -131 -125.5 -206.5t-230.5 -75.5q-165 0 -250.5 103.5t-68.5 259.5q17 157 123.5 262t272.5 105q116 0 192 -57.5t85 -148.5h-73q-12 66 -68 105.5t-142 39.5q-136 0 -221 -86t-99 -220q-14 -130 54.5 -216t201.5 -86q110 0 180.5 58t98.5 163
h-204l6 61h351zM394 -30q28 0 43 -20t11 -53q-10 -100 -110 -100l2 26q51 0 65 40q8 14 6 29q-8 -13 -27 -13q-21 0 -33 12.5t-10 32.5t17.5 33t35.5 13z" />
    <glyph glyph-name="gcommaaccent" unicode="&#x123;" horiz-adv-x="590" 
d="M387 691l-3 -27q-52 0 -64 -34q-9 -17 -9 -32q9 15 29 15q19 0 31 -13.5t10 -32.5q-2 -20 -17.5 -34t-36.5 -14q-27 0 -42 22.5t-11 56.5q5 44 34.5 68.5t78.5 24.5zM494 455h64l-48 -452q-12 -124 -96 -185q-60 -45 -162 -45q-103 0 -158 46q-56 47 -50 117h66
q-1 -47 37.5 -77.5t110.5 -30.5q170 0 188 171l10 99q-28 -51 -79 -80.5t-110 -29.5q-101 0 -157.5 68t-45.5 171t82.5 171.5t171.5 68.5q61 0 105 -29.5t60 -81.5zM280 46q77 0 131.5 52t62.5 129q8 78 -35 130t-121 52q-75 0 -128.5 -51.5t-61.5 -130.5
q-8 -78 34.5 -129.5t117.5 -51.5z" />
    <glyph glyph-name="Hcircumflex" unicode="&#x124;" horiz-adv-x="666" 
d="M424 883l118 -113l-38 -32l-86 85l-103 -85l-32 32zM85 0l74 700h67l-34 -322h362l34 322h67l-74 -700h-67l33 317h-362l-33 -317h-67z" />
    <glyph glyph-name="hcircumflex" unicode="&#x125;" horiz-adv-x="565" 
d="M267 748l-67 66l-80 -66l-29 35l115 91l96 -91zM366 467q86 0 124.5 -49.5t28.5 -143.5l-29 -274h-64l26 249q18 162 -113 162q-73 0 -116 -48.5t-52 -130.5l-24 -232h-64l74 700h64l-37 -349q22 53 69 84.5t113 31.5z" />
    <glyph glyph-name="Hbar" unicode="&#x126;" horiz-adv-x="666" 
d="M675 557l-5 -46h-35l-54 -511h-67l33 317h-362l-33 -317h-67l54 511h-35l5 46h35l15 143h67l-15 -143h362l15 143h67l-15 -143h35zM554 378l14 133h-362l-14 -133h362z" />
    <glyph glyph-name="hbar" unicode="&#x127;" horiz-adv-x="565" 
d="M366 467q86 0 124.5 -49.5t28.5 -143.5l-29 -274h-64l26 249q18 162 -113 162q-73 0 -116 -48.5t-52 -130.5l-24 -232h-64l57 542h-60l5 46h60l12 112h64l-12 -112h174l-5 -46h-174l-20 -191q22 53 69 84.5t113 31.5z" />
    <glyph glyph-name="Itilde" unicode="&#x128;" horiz-adv-x="237" 
d="M238 764q-21 0 -41 19.5t-31 19.5q-21 0 -41 -33l-18 28q24 51 65 51q22 0 41 -19.5t32 -19.5q22 0 38 30l18 -27q-23 -49 -63 -49zM85 0l74 700h67l-74 -700h-67z" />
    <glyph glyph-name="itilde" unicode="&#x129;" horiz-adv-x="224" 
d="M204 532q-21 0 -40 23t-32 23q-23 0 -42 -35l-17 32q27 59 68 59q22 0 43.5 -23.5t33.5 -23.5q21 0 36 30l17 -31q-21 -54 -67 -54zM80 0l48 455h64l-48 -455h-64z" />
    <glyph glyph-name="Imacron" unicode="&#x12a;" horiz-adv-x="237" 
d="M113 772l5 47h173l-5 -47h-173zM85 0l74 700h67l-74 -700h-67z" />
    <glyph glyph-name="imacron" unicode="&#x12b;" horiz-adv-x="224" 
d="M76 554l6 53h188l-6 -53h-188zM80 0l48 455h64l-48 -455h-64z" />
    <glyph glyph-name="Ibreve" unicode="&#x12c;" horiz-adv-x="237" 
d="M196 741q-45 0 -73 28t-22 90h51q-2 -34 12 -52t37 -18t40.5 18t22.5 52h52q-8 -62 -41.5 -90t-78.5 -28zM85 0l74 700h67l-74 -700h-67z" />
    <glyph glyph-name="ibreve" unicode="&#x12d;" horiz-adv-x="224" 
d="M166 518q-46 0 -71 29t-19 92h47q-5 -77 48 -77q52 0 64 77h46q-7 -63 -38.5 -92t-76.5 -29zM80 0l48 455h64l-48 -455h-64z" />
    <glyph glyph-name="Iogonek" unicode="&#x12e;" horiz-adv-x="237" 
d="M106 -162q28 0 63 14l-6 -49q-41 -15 -79 -15q-51 0 -77 26.5t-21 67.5q7 72 103 118h-4l74 700h67l-74 -700h1q-49 -14 -75.5 -41t-29.5 -58q-3 -28 12.5 -45.5t45.5 -17.5z" />
    <glyph glyph-name="iogonek" unicode="&#x12f;" horiz-adv-x="224" 
d="M169 547q-26 0 -40.5 17t-11.5 42q2 26 20.5 43t44.5 17t41 -17t13 -43q-3 -25 -22 -42t-45 -17zM97 -162q28 0 63 14l-6 -49q-41 -15 -79 -15q-51 0 -77 26.5t-21 67.5q7 72 103 118l48 455h64l-48 -455q-49 -14 -75.5 -41t-29.5 -58q-3 -28 12.5 -45.5t45.5 -17.5z" />
    <glyph glyph-name="Idotaccent" unicode="&#x130;" horiz-adv-x="237" 
d="M197 755q-25 0 -39 16.5t-12 40.5q3 24 21 41t42 17q25 0 40 -17t12 -41q-2 -24 -20.5 -40.5t-43.5 -16.5zM85 0l74 700h67l-74 -700h-67z" />
    <glyph glyph-name="dotlessi" unicode="&#x131;" horiz-adv-x="224" 
d="M80 0l48 455h64l-48 -455h-64z" />
    <glyph glyph-name="IJ" unicode="&#x132;" horiz-adv-x="774" 
d="M85 0l74 700h67l-74 -700h-67zM487 -15q-101 0 -157.5 61.5t-44.5 169.5h67q-9 -80 31 -125t111 -45q70 0 116 47t54 128l51 479h67l-51 -479q-11 -109 -77.5 -172.5t-166.5 -63.5z" />
    <glyph glyph-name="ij" unicode="&#x133;" horiz-adv-x="451" 
d="M169 547q-26 0 -40.5 17t-11.5 42q2 26 20.5 43t44.5 17t41 -17t13 -43q-3 -25 -22 -42t-45 -17zM396 547q-26 0 -40.5 17t-11.5 42q2 26 20.5 43t44.5 17t41 -17t13 -43q-3 -25 -22 -42t-45 -17zM80 0l48 455h64l-48 -455h-64zM235 -221q-40 0 -62 11l6 60
q23 -10 51 -10q60 0 68 77l57 538h64l-58 -554q-6 -58 -39 -90t-87 -32z" />
    <glyph glyph-name="Jcircumflex" unicode="&#x134;" horiz-adv-x="537" 
d="M590 748l-67 66l-80 -66l-29 35l115 91l96 -91zM250 -15q-101 0 -157.5 61.5t-44.5 169.5h67q-9 -80 31 -125t111 -45q70 0 116 47t54 128l51 479h67l-51 -479q-11 -109 -77.5 -172.5t-166.5 -63.5z" />
    <glyph glyph-name="jcircumflex" unicode="&#x135;" horiz-adv-x="227" 
d="M224 693l138 -147l-43 -38l-103 113l-126 -113l-36 38zM11 -221q-40 0 -62 11l6 60q23 -10 51 -10q60 0 68 77l57 538h64l-58 -554q-6 -58 -39 -90t-87 -32z" />
    <glyph glyph-name="Kcommaaccent" unicode="&#x136;" horiz-adv-x="584" 
d="M641 700l-386 -348l312 -352h-89l-291 336l-35 -336h-67l74 700h67l-36 -336l363 336h88zM281 -30q28 0 43 -20t11 -53q-10 -100 -110 -100l2 26q51 0 65 40q8 14 6 29q-8 -13 -27 -13q-21 0 -33 12.5t-10 32.5t17.5 33t35.5 13z" />
    <glyph glyph-name="kcommaaccent" unicode="&#x137;" horiz-adv-x="492" 
d="M510 455l-270 -222l222 -233h-87l-208 220l-23 -220h-64l74 700h64l-49 -461l257 216h84zM250 -30q28 0 43 -20t11 -53q-10 -100 -110 -100l2 26q51 0 65 40q8 14 6 29q-8 -13 -27 -13q-21 0 -33 12.5t-10 32.5t17.5 33t35.5 13z" />
    <glyph glyph-name="kgreenlandic" unicode="&#x138;" horiz-adv-x="492" 
d="M510 455l-270 -222l222 -233h-87l-208 220l-23 -220h-64l48 455h64l-23 -216l257 216h84z" />
    <glyph glyph-name="Lacute" unicode="&#x139;" horiz-adv-x="510" 
d="M161 744l-24 44l159 92l26 -44zM85 0l74 700h67l-67 -636h315l-7 -64h-382z" />
    <glyph glyph-name="lacute" unicode="&#x13a;" horiz-adv-x="224" 
d="M129 744l-24 44l159 92l26 -44zM80 0l74 700h64l-74 -700h-64z" />
    <glyph glyph-name="Lcommaaccent" unicode="&#x13b;" horiz-adv-x="510" 
d="M85 0l74 700h67l-67 -636h315l-7 -64h-382zM225 -203l2 26q51 0 65 40q8 14 6 29q-8 -13 -27 -13q-21 0 -33 12.5t-10 32.5t17.5 33t35.5 13q28 0 43 -20t11 -53q-10 -100 -110 -100z" />
    <glyph glyph-name="lcommaaccent" unicode="&#x13c;" horiz-adv-x="224" 
d="M80 0l74 700h64l-74 -700h-64zM50 -203l2 26q51 0 65 40q8 14 6 29q-8 -13 -27 -13q-21 0 -33 12.5t-10 32.5t17.5 33t35.5 13q28 0 43 -20t11 -53q-10 -100 -110 -100z" />
    <glyph glyph-name="Lcaron" unicode="&#x13d;" horiz-adv-x="510" 
d="M315 504q-12 0 -17 1l4 33q5 -1 15 -1q45 0 58 41q7 21 2 44q-13 -16 -38 -16q-21 0 -33.5 15t-10.5 37q2 23 19.5 38.5t42.5 15.5q33 0 51.5 -27.5t13.5 -72.5q-5 -51 -34 -79.5t-73 -28.5zM85 0l74 700h67l-67 -636h315l-7 -64h-382z" />
    <glyph glyph-name="lcaron" unicode="&#x13e;" horiz-adv-x="354" 
d="M303 504q-12 0 -17 1l4 33q5 -1 15 -1q45 0 58 41q7 21 2 44q-13 -16 -38 -16q-21 0 -33.5 15t-10.5 37q2 23 19.5 38.5t42.5 15.5q33 0 51.5 -27.5t13.5 -72.5q-5 -51 -34 -79.5t-73 -28.5zM80 0l74 700h64l-74 -700h-64z" />
    <glyph glyph-name="Ldot" unicode="&#x13f;" horiz-adv-x="510" 
d="M85 0l74 700h67l-67 -636h315l-7 -64h-382zM367 324q-25 0 -41 18t-14 43q3 26 23 44t45 18q26 0 42 -18.5t13 -43.5q-2 -25 -22.5 -43t-45.5 -18z" />
    <glyph glyph-name="ldot" unicode="&#x140;" horiz-adv-x="338" 
d="M80 0l74 700h64l-74 -700h-64zM298 289q-25 0 -41 18t-13 43q2 26 22 44t45 18t41.5 -18t14.5 -44q-3 -25 -23.5 -43t-45.5 -18z" />
    <glyph glyph-name="Lslash" unicode="&#x141;" horiz-adv-x="496" 
d="M159 64h315l-7 -64h-382l30 282l-69 -31l6 57l69 31l38 361h67l-35 -329l167 75l-6 -56l-167 -76z" />
    <glyph glyph-name="lslash" unicode="&#x142;" horiz-adv-x="224" 
d="M265 448l-5 -52l-82 -42l-37 -354h-64l34 319l-74 -38l5 53l74 38l35 328h64l-31 -294z" />
    <glyph glyph-name="Nacute" unicode="&#x143;" horiz-adv-x="661" 
d="M307 730l-19 46l240 115l19 -45zM85 0l74 700h72l292 -589l62 589h64l-74 -700h-72l-291 589l-62 -589h-65z" />
    <glyph glyph-name="nacute" unicode="&#x144;" horiz-adv-x="563" 
d="M291 510l-33 38l178 143l33 -39zM80 0l48 455h64l-11 -104q23 53 69.5 84.5t113.5 31.5q86 0 124.5 -49.5t28.5 -143.5l-29 -274h-64l26 249q18 162 -113 162q-73 0 -116.5 -48.5t-52.5 -130.5l-24 -232h-64z" />
    <glyph glyph-name="Ncommaaccent" unicode="&#x145;" horiz-adv-x="661" 
d="M85 0l74 700h72l292 -589l62 589h64l-74 -700h-72l-291 589l-62 -589h-65zM269 -203l2 26q51 0 65 40q8 14 6 29q-8 -13 -27 -13q-21 0 -33 12.5t-10 32.5t17.5 33t35.5 13q28 0 43 -20t11 -53q-10 -100 -110 -100z" />
    <glyph glyph-name="ncommaaccent" unicode="&#x146;" horiz-adv-x="563" 
d="M80 0l48 455h64l-11 -104q23 53 69.5 84.5t113.5 31.5q86 0 124.5 -49.5t28.5 -143.5l-29 -274h-64l26 249q18 162 -113 162q-73 0 -116.5 -48.5t-52.5 -130.5l-24 -232h-64zM218 -203l2 26q51 0 65 40q8 14 6 29q-8 -13 -27 -13q-21 0 -33 12.5t-10 32.5t17.5 33
t35.5 13q28 0 43 -20t11 -53q-10 -100 -110 -100z" />
    <glyph glyph-name="Ncaron" unicode="&#x147;" horiz-adv-x="661" 
d="M408 737l-118 113l39 32l86 -85l103 85l31 -32zM85 0l74 700h72l292 -589l62 589h64l-74 -700h-72l-291 589l-62 -589h-65z" />
    <glyph glyph-name="ncaron" unicode="&#x148;" horiz-adv-x="563" 
d="M333 507l-138 147l44 38l102 -113l127 113l35 -38zM80 0l48 455h64l-11 -104q23 53 69.5 84.5t113.5 31.5q86 0 124.5 -49.5t28.5 -143.5l-29 -274h-64l26 249q18 162 -113 162q-73 0 -116.5 -48.5t-52.5 -130.5l-24 -232h-64z" />
    <glyph glyph-name="napostrophe" unicode="&#x149;" horiz-adv-x="580" 
d="M106 504q-12 0 -17 1l4 33q5 -1 15 -1q45 0 58 41q7 21 2 44q-13 -16 -38 -16q-21 0 -33.5 15t-10.5 37q2 23 19.5 38.5t42.5 15.5q33 0 51.5 -27.5t13.5 -72.5q-5 -51 -34 -79.5t-73 -28.5zM97 0l48 455h64l-11 -104q23 53 69.5 84.5t113.5 31.5q86 0 124.5 -49.5
t28.5 -143.5l-29 -274h-64l26 249q18 162 -113 162q-73 0 -116.5 -48.5t-52.5 -130.5l-24 -232h-64z" />
    <glyph glyph-name="Eng" unicode="&#x14a;" horiz-adv-x="661" 
d="M426 -221q-42 0 -64 11l7 63q20 -10 54 -10q68 0 78 87l7 70l-296 589l-62 -589h-65l74 700h72l292 -587l62 587h64l-83 -789q-7 -63 -43.5 -97.5t-96.5 -34.5z" />
    <glyph glyph-name="eng" unicode="&#x14b;" horiz-adv-x="563" 
d="M364 467q86 0 124.5 -49.5t28.5 -143.5l-39 -373q-6 -58 -39.5 -90t-86.5 -32q-40 0 -62 11l6 60q23 -10 51 -10q29 0 46.5 20t21.5 57l35 332q18 162 -113 162q-73 0 -116.5 -48.5t-52.5 -130.5l-24 -232h-64l48 455h64l-11 -104q23 53 69.5 84.5t113.5 31.5z" />
    <glyph glyph-name="Omacron" unicode="&#x14c;" horiz-adv-x="800" 
d="M304 772l6 52h354l-6 -52h-354zM398 -15q-163 0 -250 106.5t-71 258.5t125.5 258.5t272.5 106.5q109 0 187 -51t111.5 -133.5t23.5 -180.5q-16 -152 -126 -258.5t-273 -106.5zM405 46q132 0 220.5 88.5t101.5 215.5t-56.5 215.5t-201.5 88.5t-220.5 -88.5t-101.5 -215.5
t56.5 -215.5t201.5 -88.5z" />
    <glyph glyph-name="omacron" unicode="&#x14d;" horiz-adv-x="549" 
d="M174 553l6 53h317l-6 -53h-317zM273 -12q-106 0 -163 69t-46 171t82.5 170.5t176.5 68.5q106 0 163.5 -68.5t46.5 -170.5q-11 -103 -82.5 -171.5t-177.5 -68.5zM279 47q78 0 129.5 51.5t60.5 129.5q8 78 -33 129.5t-119 51.5t-129.5 -51.5t-59.5 -130.5
q-8 -77 32.5 -128.5t118.5 -51.5z" />
    <glyph glyph-name="Obreve" unicode="&#x14e;" horiz-adv-x="800" 
d="M477 736q-65 0 -107 35.5t-41 92.5h55q1 -39 28.5 -59.5t69.5 -20.5t75 20.5t42 59.5h54q-11 -57 -61 -92.5t-115 -35.5zM398 -15q-163 0 -250 106.5t-71 258.5t125.5 258.5t272.5 106.5q109 0 187 -51t111.5 -133.5t23.5 -180.5q-16 -152 -126 -258.5t-273 -106.5z
M405 46q132 0 220.5 88.5t101.5 215.5t-56.5 215.5t-201.5 88.5t-220.5 -88.5t-101.5 -215.5t56.5 -215.5t201.5 -88.5z" />
    <glyph glyph-name="obreve" unicode="&#x14f;" horiz-adv-x="549" 
d="M328 508q-70 0 -111.5 38.5t-39.5 106.5h56q-1 -46 27 -71t74 -25t79 25t42 71h55q-12 -68 -62 -106.5t-120 -38.5zM273 -12q-106 0 -163 69t-46 171t82.5 170.5t176.5 68.5q106 0 163.5 -68.5t46.5 -170.5q-11 -103 -82.5 -171.5t-177.5 -68.5zM279 47q78 0 129.5 51.5
t60.5 129.5q8 78 -33 129.5t-119 51.5t-129.5 -51.5t-59.5 -130.5q-8 -77 32.5 -128.5t118.5 -51.5z" />
    <glyph glyph-name="Ohungarumlaut" unicode="&#x150;" horiz-adv-x="800" 
d="M383 736l-36 17l143 131l55 -23zM567 735l-36 18l143 131l54 -24zM398 -15q-163 0 -250 106.5t-71 258.5t125.5 258.5t272.5 106.5q109 0 187 -51t111.5 -133.5t23.5 -180.5q-16 -152 -126 -258.5t-273 -106.5zM405 46q132 0 220.5 88.5t101.5 215.5t-56.5 215.5
t-201.5 88.5t-220.5 -88.5t-101.5 -215.5t56.5 -215.5t201.5 -88.5z" />
    <glyph glyph-name="ohungarumlaut" unicode="&#x151;" horiz-adv-x="549" 
d="M225 502l-32 18l142 166l53 -28zM410 501l-32 19l142 166l53 -28zM273 -12q-106 0 -163 69t-46 171t82.5 170.5t176.5 68.5q106 0 163.5 -68.5t46.5 -170.5q-11 -103 -82.5 -171.5t-177.5 -68.5zM279 47q78 0 129.5 51.5t60.5 129.5q8 78 -33 129.5t-119 51.5
t-129.5 -51.5t-59.5 -130.5q-8 -77 32.5 -128.5t118.5 -51.5z" />
    <glyph glyph-name="OE" unicode="&#x152;" horiz-adv-x="864" 
d="M861 639h-289l-27 -261h289l-7 -61h-289l-27 -256h289l-6 -61h-424q-149 0 -229 102.5t-64 247.5q15 145 116.5 247.5t250.5 102.5h424zM376 61h67l61 578h-67q-119 0 -198 -84t-92 -205t48.5 -205t180.5 -84z" />
    <glyph glyph-name="oe" unicode="&#x153;" horiz-adv-x="920" 
d="M907 256q-2 -17 -7 -43h-368q-8 -77 31 -122.5t112 -45.5q51 0 89.5 22t57.5 61h65q-20 -62 -80 -101t-138 -39q-136 0 -184 109q-76 -109 -212 -109q-106 0 -163 69t-46 171t82.5 170.5t176.5 68.5q67 0 116 -29t74 -80q70 109 202 109q95 0 148.5 -59t43.5 -152z
M538 264h307q6 69 -29.5 110t-105.5 41q-67 0 -114 -41.5t-58 -109.5zM279 47q78 0 129.5 51.5t60.5 129.5q8 78 -33 129.5t-119 51.5t-129.5 -51.5t-59.5 -130.5q-8 -77 32.5 -128.5t118.5 -51.5z" />
    <glyph glyph-name="Racute" unicode="&#x154;" horiz-adv-x="604" 
d="M517 846l-240 -116l-19 46l240 115zM608 462q-9 -83 -58 -144t-123 -84l123 -234h-77l-117 223h-4h-177l-23 -223h-67l74 700h244q100 0 158 -67t47 -171zM219 639l-37 -355h173q73 0 125.5 50.5t60.5 127.5t-34 127t-115 50h-173z" />
    <glyph glyph-name="racute" unicode="&#x155;" horiz-adv-x="355" 
d="M190 510l-33 38l178 143l33 -39zM80 0l48 455h64l-13 -120q22 64 66 96.5t95 32.5q28 0 40 -4l-6 -59q-21 3 -43 3q-73 0 -115 -61.5t-51 -145.5l-21 -197h-64z" />
    <glyph glyph-name="Rcommaaccent" unicode="&#x156;" horiz-adv-x="604" 
d="M608 462q-9 -83 -58 -144t-123 -84l123 -234h-77l-117 223h-4h-177l-23 -223h-67l74 700h244q100 0 158 -67t47 -171zM219 639l-37 -355h173q73 0 125.5 50.5t60.5 127.5t-34 127t-115 50h-173zM294 -30q28 0 43 -20t11 -53q-10 -100 -110 -100l2 26q51 0 65 40
q8 14 6 29q-8 -13 -27 -13q-21 0 -33 12.5t-10 32.5t17.5 33t35.5 13z" />
    <glyph glyph-name="rcommaaccent" unicode="&#x157;" horiz-adv-x="355" 
d="M80 0l48 455h64l-13 -120q22 64 66 96.5t95 32.5q28 0 40 -4l-6 -59q-21 3 -43 3q-73 0 -115 -61.5t-51 -145.5l-21 -197h-64zM54 -203l2 26q51 0 65 40q8 14 6 29q-8 -13 -27 -13q-21 0 -33 12.5t-10 32.5t17.5 33t35.5 13q28 0 43 -20t11 -53q-10 -100 -110 -100z" />
    <glyph glyph-name="Rcaron" unicode="&#x158;" horiz-adv-x="604" 
d="M518 850l-141 -113l-118 113l39 32l86 -85l103 85zM608 462q-9 -83 -58 -144t-123 -84l123 -234h-77l-117 223h-4h-177l-23 -223h-67l74 700h244q100 0 158 -67t47 -171zM219 639l-37 -355h173q73 0 125.5 50.5t60.5 127.5t-34 127t-115 50h-173z" />
    <glyph glyph-name="rcaron" unicode="&#x159;" horiz-adv-x="355" 
d="M222 507l-138 147l44 38l102 -113l127 113l35 -38zM80 0l48 455h64l-13 -120q22 64 66 96.5t95 32.5q28 0 40 -4l-6 -59q-21 3 -43 3q-73 0 -115 -61.5t-51 -145.5l-21 -197h-64z" />
    <glyph glyph-name="Sacute" unicode="&#x15a;" horiz-adv-x="561" 
d="M257 730l-19 46l240 115l19 -45zM288 -15q-116 0 -176 62t-49 170h67q-8 -79 36.5 -125.5t128.5 -46.5q76 0 121 35t52 98q10 100 -107 134l-114 36q-145 40 -130 182q8 83 74 134t163 51q102 0 156 -56.5t44 -153.5h-67q7 72 -30 111.5t-111 39.5q-68 0 -111.5 -33.5
t-49.5 -88.5q-5 -52 22.5 -84.5t93.5 -51.5l110 -34q139 -42 124 -185q-10 -89 -76.5 -141.5t-170.5 -52.5z" />
    <glyph glyph-name="sacute" unicode="&#x15b;" horiz-adv-x="442" 
d="M228 510l-33 38l178 143l33 -39zM225 -12q-83 0 -130 41.5t-41 103.5h64q-4 -39 26.5 -65.5t88.5 -26.5q47 0 77.5 20.5t34.5 57.5q2 29 -13 47t-57 29l-92 24q-104 27 -93 122q6 57 56 91.5t123 34.5q79 0 121 -35.5t35 -96.5h-63q3 38 -24 59.5t-78 21.5q-43 0 -73 -19
t-34 -54q-5 -54 69 -73l94 -26q103 -27 94 -122q-7 -64 -56.5 -99t-128.5 -35z" />
    <glyph glyph-name="Scircumflex" unicode="&#x15c;" horiz-adv-x="561" 
d="M371 883l118 -113l-38 -32l-86 85l-103 -85l-32 32zM288 -15q-116 0 -176 62t-49 170h67q-8 -79 36.5 -125.5t128.5 -46.5q76 0 121 35t52 98q10 100 -107 134l-114 36q-145 40 -130 182q8 83 74 134t163 51q102 0 156 -56.5t44 -153.5h-67q7 72 -30 111.5t-111 39.5
q-68 0 -111.5 -33.5t-49.5 -88.5q-5 -52 22.5 -84.5t93.5 -51.5l110 -34q139 -42 124 -185q-10 -89 -76.5 -141.5t-170.5 -52.5z" />
    <glyph glyph-name="scircumflex" unicode="&#x15d;" horiz-adv-x="442" 
d="M291 692l138 -147l-43 -38l-103 113l-126 -113l-36 38zM225 -12q-83 0 -130 41.5t-41 103.5h64q-4 -39 26.5 -65.5t88.5 -26.5q47 0 77.5 20.5t34.5 57.5q2 29 -13 47t-57 29l-92 24q-104 27 -93 122q6 57 56 91.5t123 34.5q79 0 121 -35.5t35 -96.5h-63q3 38 -24 59.5
t-78 21.5q-43 0 -73 -19t-34 -54q-5 -54 69 -73l94 -26q103 -27 94 -122q-7 -64 -56.5 -99t-128.5 -35z" />
    <glyph glyph-name="Scedilla" unicode="&#x15e;" horiz-adv-x="561" 
d="M535 179q-9 -85 -71.5 -137t-160.5 -57l-5 -52q16 20 52 20q32 0 51.5 -22.5t15.5 -59.5q-4 -38 -30 -62t-68 -24q-35 0 -55 19.5t-19 50.5h38q-1 -16 10 -26.5t31 -10.5q22 0 36.5 14t16.5 39q3 24 -7.5 38t-33.5 14q-29 0 -47 -24h-33l10 87q-106 6 -160 67.5
t-43 163.5h67q-8 -79 36.5 -125.5t128.5 -46.5q76 0 121 35t52 98q10 100 -107 134l-114 36q-145 40 -130 182q8 83 74 134t163 51q102 0 156 -56.5t44 -153.5h-67q7 72 -30 111.5t-111 39.5q-68 0 -111.5 -33.5t-49.5 -88.5q-5 -52 22.5 -84.5t93.5 -51.5l110 -34
q139 -42 124 -185z" />
    <glyph glyph-name="scedilla" unicode="&#x15f;" horiz-adv-x="442" 
d="M410 122q-7 -62 -54 -97t-121 -37l-6 -55q16 20 52 20q32 0 51.5 -22.5t15.5 -59.5q-4 -38 -30 -62t-68 -24q-35 0 -55 19.5t-19 50.5h38q-1 -16 10 -26.5t31 -10.5q22 0 36.5 14t16.5 39q3 24 -7.5 38t-33.5 14q-29 0 -47 -24h-33l10 90q-71 7 -110 47.5t-33 96.5h64
q-4 -39 26.5 -65.5t88.5 -26.5q47 0 77.5 20.5t34.5 57.5q2 29 -13 47t-57 29l-92 24q-104 27 -93 122q6 57 56 91.5t123 34.5q79 0 121 -35.5t35 -96.5h-63q3 38 -24 59.5t-78 21.5q-43 0 -73 -19t-34 -54q-5 -54 69 -73l94 -26q103 -27 94 -122z" />
    <glyph glyph-name="Scaron" unicode="&#x160;" horiz-adv-x="561" 
d="M358 737l-118 113l39 32l86 -85l103 85l31 -32zM288 -15q-116 0 -176 62t-49 170h67q-8 -79 36.5 -125.5t128.5 -46.5q76 0 121 35t52 98q10 100 -107 134l-114 36q-145 40 -130 182q8 83 74 134t163 51q102 0 156 -56.5t44 -153.5h-67q7 72 -30 111.5t-111 39.5
q-68 0 -111.5 -33.5t-49.5 -88.5q-5 -52 22.5 -84.5t93.5 -51.5l110 -34q139 -42 124 -185q-10 -89 -76.5 -141.5t-170.5 -52.5z" />
    <glyph glyph-name="scaron" unicode="&#x161;" horiz-adv-x="442" 
d="M270 507l-138 147l44 38l102 -113l127 113l35 -38zM225 -12q-83 0 -130 41.5t-41 103.5h64q-4 -39 26.5 -65.5t88.5 -26.5q47 0 77.5 20.5t34.5 57.5q2 29 -13 47t-57 29l-92 24q-104 27 -93 122q6 57 56 91.5t123 34.5q79 0 121 -35.5t35 -96.5h-63q3 38 -24 59.5
t-78 21.5q-43 0 -73 -19t-34 -54q-5 -54 69 -73l94 -26q103 -27 94 -122q-7 -64 -56.5 -99t-128.5 -35z" />
    <glyph glyph-name="uni0162" unicode="&#x162;" horiz-adv-x="510" 
d="M288 0h-15l-7 -67q16 20 52 20q32 0 51.5 -22.5t15.5 -59.5q-4 -38 -30 -62t-68 -24q-35 0 -55 19.5t-19 50.5h38q-1 -16 10 -26.5t31 -10.5q22 0 36.5 14t16.5 39q3 24 -7.5 38t-33.5 14q-29 0 -47 -24h-33l11 101h-14l67 636h-213l7 64h495l-7 -64h-215z" />
    <glyph glyph-name="uni0163" unicode="&#x163;" horiz-adv-x="346" 
d="M292 -47q32 0 51.5 -22.5t15.5 -59.5q-4 -38 -30 -62t-68 -24q-35 0 -55 19.5t-19 50.5h38q-1 -16 10 -26.5t31 -10.5q22 0 36.5 14t16.5 39q3 24 -7.5 38t-33.5 14q-29 0 -47 -24h-33l11 97q-98 14 -82 152l26 252h-89l6 55h89l16 152h63l-16 -152h126l-6 -55h-126
l-25 -239q-7 -65 11.5 -86.5t58.5 -21.5q39 0 61 6l-6 -57q-26 -8 -70 -8l-6 -61q16 20 52 20z" />
    <glyph glyph-name="Tcaron" unicode="&#x164;" horiz-adv-x="510" 
d="M332 737l-118 113l39 32l86 -85l103 85l31 -32zM221 0l67 636h-213l7 64h495l-7 -64h-215l-67 -636h-67z" />
    <glyph glyph-name="tcaron" unicode="&#x165;" horiz-adv-x="368" 
d="M355 711q32 0 49 -26t13 -69q-5 -48 -32.5 -75.5t-69.5 -27.5q-12 0 -16 1l3 32q5 -1 15 -1q44 0 54 39q7 18 3 42q-11 -16 -37 -16q-20 0 -31.5 14t-9.5 36t18.5 36.5t40.5 14.5zM191 161q-7 -65 11.5 -86.5t58.5 -21.5q39 0 61 6l-6 -57q-27 -8 -75 -8q-26 0 -44.5 4.5
t-38.5 19t-28 47.5t-3 83l26 252h-89l6 55h89l16 152h63l-16 -152h126l-6 -55h-126z" />
    <glyph glyph-name="Tbar" unicode="&#x166;" horiz-adv-x="510" 
d="M570 636h-215l-17 -165h149l-6 -51h-149l-44 -420h-67l44 420h-147l6 51h147l17 165h-213l7 64h495z" />
    <glyph glyph-name="tbar" unicode="&#x167;" horiz-adv-x="348" 
d="M263 53q39 0 61 6l-6 -57q-27 -8 -75 -8q-26 0 -44.5 4.5t-38.5 19t-28 47.5t-3 83l7 73h-91l5 46h91l14 133h-89l6 55h89l16 152h63l-16 -152h126l-6 -55h-126l-14 -133h129l-5 -46h-129l-6 -60q-7 -65 11.5 -86.5t58.5 -21.5z" />
    <glyph glyph-name="Utilde" unicode="&#x168;" horiz-adv-x="630" 
d="M473 750q-34 -2 -81.5 29.5t-69.5 31.5q-43 0 -81 -49l-26 27q51 73 111 73q30 0 78 -30.5t70 -30.5q46 0 83 49l27 -28q-47 -70 -111 -72zM313 -15q-115 0 -176 63.5t-48 179.5l50 472h67l-50 -469q-9 -89 35 -137t129 -48t139 48t63 137l50 469h67l-50 -472
q-13 -116 -87 -179.5t-189 -63.5z" />
    <glyph glyph-name="utilde" unicode="&#x169;" horiz-adv-x="563" 
d="M414 540q-27 0 -72 29t-67 29q-40 0 -77 -46l-23 34q44 66 104 66q27 0 71.5 -29t66.5 -29q40 0 77 46l24 -34q-46 -66 -104 -66zM252 -12q-81 0 -124.5 49.5t-33.5 143.5l29 274h64l-28 -260q-15 -150 116 -150q73 0 115.5 51t49.5 118l26 241h64l-48 -455h-64l11 103
q-23 -51 -70 -83t-107 -32z" />
    <glyph glyph-name="Umacron" unicode="&#x16a;" horiz-adv-x="630" 
d="M219 772l6 52h354l-6 -52h-354zM313 -15q-115 0 -176 63.5t-48 179.5l50 472h67l-50 -469q-9 -89 35 -137t129 -48t139 48t63 137l50 469h67l-50 -472q-13 -116 -87 -179.5t-189 -63.5z" />
    <glyph glyph-name="umacron" unicode="&#x16b;" horiz-adv-x="563" 
d="M182 553l6 53h317l-6 -53h-317zM252 -12q-81 0 -124.5 49.5t-33.5 143.5l29 274h64l-28 -260q-15 -150 116 -150q73 0 115.5 51t49.5 118l26 241h64l-48 -455h-64l11 103q-23 -51 -70 -83t-107 -32z" />
    <glyph glyph-name="Ubreve" unicode="&#x16c;" horiz-adv-x="630" 
d="M392 736q-65 0 -107 35.5t-41 92.5h55q1 -39 28.5 -59.5t69.5 -20.5q43 0 75.5 20.5t41.5 59.5h54q-11 -57 -61 -92.5t-115 -35.5zM313 -15q-115 0 -176 63.5t-48 179.5l50 472h67l-50 -469q-9 -89 35 -137t129 -48t139 48t63 137l50 469h67l-50 -472
q-13 -116 -87 -179.5t-189 -63.5z" />
    <glyph glyph-name="ubreve" unicode="&#x16d;" horiz-adv-x="563" 
d="M336 508q-70 0 -111.5 38.5t-39.5 106.5h56q-1 -46 27 -71t74 -25q45 0 78.5 25t42.5 71h55q-12 -68 -62 -106.5t-120 -38.5zM252 -12q-81 0 -124.5 49.5t-33.5 143.5l29 274h64l-28 -260q-15 -150 116 -150q73 0 115.5 51t49.5 118l26 241h64l-48 -455h-64l11 103
q-23 -51 -70 -83t-107 -32z" />
    <glyph glyph-name="Uring" unicode="&#x16e;" horiz-adv-x="630" 
d="M385 665q-50 0 -81.5 34.5t-26.5 82.5q5 49 44 83.5t89 34.5t81 -34.5t26 -83.5q-5 -48 -43.5 -82.5t-88.5 -34.5zM389 706q32 0 56.5 22t27.5 54q4 32 -16 54t-52 22t-56 -22t-28 -54q-3 -32 16.5 -54t51.5 -22zM313 -15q-115 0 -176 63.5t-48 179.5l50 472h67l-50 -469
q-9 -89 35 -137t129 -48t139 48t63 137l50 469h67l-50 -472q-13 -116 -87 -179.5t-189 -63.5z" />
    <glyph glyph-name="uring" unicode="&#x16f;" horiz-adv-x="563" 
d="M335 494q-46 0 -74 30.5t-24 77.5q5 47 40 77.5t81 30.5t74 -30.5t23 -77.5q-4 -47 -39 -77.5t-81 -30.5zM339 530q30 0 51.5 20t24.5 52q4 31 -13.5 51.5t-47.5 20.5q-29 0 -51 -20.5t-26 -51.5q-3 -32 14.5 -52t47.5 -20zM252 -12q-81 0 -124.5 49.5t-33.5 143.5
l29 274h64l-28 -260q-15 -150 116 -150q73 0 115.5 51t49.5 118l26 241h64l-48 -455h-64l11 103q-23 -51 -70 -83t-107 -32z" />
    <glyph glyph-name="Uhungarumlaut" unicode="&#x170;" horiz-adv-x="630" 
d="M298 736l-36 17l143 131l55 -23zM482 735l-36 18l143 131l54 -24zM313 -15q-115 0 -176 63.5t-48 179.5l50 472h67l-50 -469q-9 -89 35 -137t129 -48t139 48t63 137l50 469h67l-50 -472q-13 -116 -87 -179.5t-189 -63.5z" />
    <glyph glyph-name="uhungarumlaut" unicode="&#x171;" horiz-adv-x="563" 
d="M233 502l-32 18l142 166l53 -28zM418 501l-32 19l142 166l53 -28zM252 -12q-81 0 -124.5 49.5t-33.5 143.5l29 274h64l-28 -260q-15 -150 116 -150q73 0 115.5 51t49.5 118l26 241h64l-48 -455h-64l11 103q-23 -51 -70 -83t-107 -32z" />
    <glyph glyph-name="Uogonek" unicode="&#x172;" horiz-adv-x="630" 
d="M572 700h67l-50 -472q-10 -92 -59.5 -151.5t-128.5 -80.5q-43 -15 -66.5 -41t-25.5 -54q-3 -28 12.5 -45.5t45.5 -17.5q28 0 63 14l-6 -49q-41 -15 -79 -15q-51 0 -77 26.5t-21 67.5q5 60 75 103h-9q-115 0 -176 63.5t-48 179.5l50 472h67l-50 -469q-9 -89 35 -137
t129 -48t139 48t63 137z" />
    <glyph glyph-name="uogonek" unicode="&#x173;" horiz-adv-x="563" 
d="M436 -162q28 0 63 14l-6 -49q-41 -15 -79 -15q-51 0 -77 26.5t-21 67.5q7 72 103 118h-1l11 103q-23 -51 -70 -83t-107 -32q-81 0 -124.5 49.5t-33.5 143.5l29 274h64l-28 -260q-15 -150 116 -150q73 0 115.5 51t49.5 118l26 241h64l-48 -455h1q-49 -14 -75.5 -41
t-29.5 -58q-3 -28 12.5 -45.5t45.5 -17.5z" />
    <glyph glyph-name="Wcircumflex" unicode="&#x174;" horiz-adv-x="943" 
d="M562 883l118 -113l-38 -32l-86 85l-103 -85l-32 32zM242 0l-163 700h71l130 -591l239 591h53l112 -591l257 591h71l-311 -700h-52l-117 585l-238 -585h-52z" />
    <glyph glyph-name="wcircumflex" unicode="&#x175;" horiz-adv-x="726" 
d="M436 693l138 -147l-43 -38l-103 113l-126 -113l-36 38zM179 0l-121 455h70l87 -364l161 364h69l85 -364l164 364h70l-217 -455h-56l-89 376l-168 -376h-55z" />
    <glyph glyph-name="Ycircumflex" unicode="&#x176;" horiz-adv-x="542" 
d="M368 823l-103 -85l-32 32l141 113l118 -113l-38 -32zM552 700h74l-431 -700h-74l170 277l-222 423h78l186 -354z" />
    <glyph glyph-name="ycircumflex" unicode="&#x177;" horiz-adv-x="567" 
d="M352 692l138 -147l-43 -38l-103 113l-126 -113l-36 38zM471 455h64l-50 -470q-10 -111 -81 -166q-58 -46 -149 -46q-97 0 -148 46q-45 43 -39 117h65q-7 -108 127 -108q145 0 162 161l12 112q-26 -50 -73 -81t-109 -31q-178 0 -157 202l28 264h64l-27 -252
q-8 -76 18 -116t100 -40q72 0 116.5 52.5t51.5 122.5z" />
    <glyph glyph-name="Ydieresis" unicode="&#x178;" horiz-adv-x="542" 
d="M246 757q-24 0 -39 16.5t-13 39.5q3 25 21.5 41.5t42.5 16.5t39 -16.5t12 -41.5q-2 -23 -20.5 -39.5t-42.5 -16.5zM480 757q-24 0 -39 16.5t-13 39.5q3 25 21.5 41.5t42.5 16.5t39 -16.5t12 -41.5q-2 -23 -20.5 -39.5t-42.5 -16.5zM552 700h74l-431 -700h-74l170 277
l-222 423h78l186 -354z" />
    <glyph glyph-name="Zacute" unicode="&#x179;" horiz-adv-x="565" 
d="M264 730l-19 46l240 115l19 -45zM25 0l454 639h-355l7 61h468l-452 -639h388l-6 -61h-504z" />
    <glyph glyph-name="zacute" unicode="&#x17a;" horiz-adv-x="436" 
d="M227 511l-33 38l178 143l33 -39zM20 0l330 400h-270l6 55h381l-331 -400h282l-6 -55h-392z" />
    <glyph glyph-name="Zdotaccent" unicode="&#x17b;" horiz-adv-x="565" 
d="M365 755q-25 0 -39 16.5t-12 40.5q3 24 21 41t42 17q25 0 40 -17t12 -41q-2 -24 -20.5 -40.5t-43.5 -16.5zM25 0l454 639h-355l7 61h468l-452 -639h388l-6 -61h-504z" />
    <glyph glyph-name="zdotaccent" unicode="&#x17c;" horiz-adv-x="436" 
d="M273 547q-26 0 -40.5 17t-11.5 42q2 26 20.5 43t44.5 17t41 -17t13 -43q-3 -25 -22 -42t-45 -17zM20 0l330 400h-270l6 55h381l-331 -400h282l-6 -55h-392z" />
    <glyph glyph-name="Zcaron" unicode="&#x17d;" horiz-adv-x="565" 
d="M364 737l-118 113l39 32l86 -85l103 85l31 -32zM25 0l454 639h-355l7 61h468l-452 -639h388l-6 -61h-504z" />
    <glyph glyph-name="zcaron" unicode="&#x17e;" horiz-adv-x="436" 
d="M269 508l-138 147l44 38l102 -113l127 113l35 -38zM20 0l330 400h-270l6 55h381l-331 -400h282l-6 -55h-392z" />
    <glyph glyph-name="florin" unicode="&#x192;" horiz-adv-x="428" 
d="M440 632q-40 0 -68 -22.5t-46 -83.5l-24 -84h138l-15 -55h-138l-128 -450q-44 -160 -175 -160q-41 0 -68 12l15 56q19 -9 52 -9q41 0 69 21.5t43 78.5l128 451h-101l15 55h101l24 85q48 163 183 163q39 0 63 -11l-15 -56q-19 9 -53 9z" />
    <glyph glyph-name="AEacute" unicode="&#x1fc;" horiz-adv-x="818" 
d="M786 846l-240 -116l-19 46l240 115zM815 639h-284l-27 -261h284l-7 -61h-284l-27 -256h284l-6 -61h-351l13 128h-246l-76 -128h-73l427 700h380zM200 187h217l46 443z" />
    <glyph glyph-name="aeacute" unicode="&#x1fd;" horiz-adv-x="879" 
d="M645 653l-178 -142l-33 38l178 143zM866 255q-1 -10 -7 -43h-370q-7 -77 33 -122.5t114 -45.5q50 0 88 23t58 64h65q-20 -65 -80 -104.5t-137 -39.5q-66 0 -114.5 30.5t-70.5 85.5q-68 -115 -223 -115q-79 0 -125 35.5t-40 94.5q8 73 65 109q57 35 189 35h125l4 38
q5 52 -27 83t-102 31q-64 0 -104.5 -28.5t-48.5 -80.5h-64q11 74 72 118t151 44q139 0 173 -90q70 89 186 89q93 0 146.5 -59.5t43.5 -151.5zM496 262h307q7 69 -29.5 111t-102.5 42q-70 0 -118 -41.5t-57 -111.5zM428 188l1 12v12h-152q-143 0 -153 -89q-4 -41 27.5 -62
t92.5 -21q71 0 124 39.5t60 108.5z" />
    <glyph glyph-name="Oslashacute" unicode="&#x1fe;" horiz-adv-x="800" 
d="M619 846l-240 -116l-19 46l240 115zM637 678q87 -44 129 -132.5t31 -195.5q-16 -152 -126 -258.5t-273 -106.5q-63 0 -120 19l-42 -79l-45 21l41 77q-85 46 -125.5 134t-29.5 193q16 152 125.5 258.5t272.5 106.5q65 0 118 -18l40 75l44 -20zM147 350q-9 -86 21.5 -158
t95.5 -110l298 558q-44 14 -93 14q-132 0 -220.5 -88.5t-101.5 -215.5zM405 46q132 0 220.5 88.5t101.5 215.5q9 87 -22.5 159.5t-98.5 110.5l-298 -559q43 -15 97 -15z" />
    <glyph glyph-name="oslashacute" unicode="&#x1ff;" horiz-adv-x="549" 
d="M460 640l-178 -142l-33 38l178 143zM441 437q51 -31 75 -86t17 -123q-11 -103 -82.5 -171.5t-177.5 -68.5q-38 0 -68 9l-35 -64l-37 17l33 62q-56 29 -83 86.5t-19 129.5q11 102 82.5 170.5t176.5 68.5q46 0 81 -13l28 54l38 -17zM128 227q-11 -112 68 -159l178 332
q-24 9 -57 9q-78 0 -129.5 -51.5t-59.5 -130.5zM279 47q78 0 129.5 51.5t60.5 129.5q11 104 -58 153l-177 -329q23 -5 45 -5z" />
    <glyph glyph-name="Scommaaccent" unicode="&#x218;" horiz-adv-x="561" 
d="M288 -15q-116 0 -176 62t-49 170h67q-8 -79 36.5 -125.5t128.5 -46.5q76 0 121 35t52 98q10 100 -107 134l-114 36q-145 40 -130 182q8 83 74 134t163 51q102 0 156 -56.5t44 -153.5h-67q7 72 -30 111.5t-111 39.5q-68 0 -111.5 -33.5t-49.5 -88.5q-5 -52 22.5 -84.5
t93.5 -51.5l110 -34q139 -42 124 -185q-10 -89 -76.5 -141.5t-170.5 -52.5zM224 -203l2 26q51 0 65 40q8 14 6 29q-8 -13 -27 -13q-21 0 -33 12.5t-10 32.5t17.5 33t35.5 13q28 0 43 -20t11 -53q-10 -100 -110 -100z" />
    <glyph glyph-name="scommaaccent" unicode="&#x219;" horiz-adv-x="442" 
d="M225 -12q-83 0 -130 41.5t-41 103.5h64q-4 -39 26.5 -65.5t88.5 -26.5q47 0 77.5 20.5t34.5 57.5q2 29 -13 47t-57 29l-92 24q-104 27 -93 122q6 57 56 91.5t123 34.5q79 0 121 -35.5t35 -96.5h-63q3 38 -24 59.5t-78 21.5q-43 0 -73 -19t-34 -54q-5 -54 69 -73l94 -26
q103 -27 94 -122q-7 -64 -56.5 -99t-128.5 -35zM156 -203l2 26q51 0 65 40q8 14 6 29q-8 -13 -27 -13q-21 0 -33 12.5t-10 32.5t17.5 33t35.5 13q28 0 43 -20t11 -53q-10 -100 -110 -100z" />
    <glyph glyph-name="uni021A" unicode="&#x21a;" horiz-adv-x="510" 
d="M221 0l67 636h-213l7 64h495l-7 -64h-215l-67 -636h-67zM193 -203l2 26q51 0 65 40q8 14 6 29q-8 -13 -27 -13q-21 0 -33 12.5t-10 32.5t17.5 33t35.5 13q28 0 43 -20t11 -53q-10 -100 -110 -100z" />
    <glyph glyph-name="uni021B" unicode="&#x21b;" horiz-adv-x="346" 
d="M261 53q39 0 61 6l-6 -57q-27 -8 -75 -8q-26 0 -44.5 4.5t-38.5 19t-28 47.5t-3 83l26 252h-89l6 55h89l16 152h63l-16 -152h126l-6 -55h-126l-25 -239q-7 -65 11.5 -86.5t58.5 -21.5zM222 -30q28 0 43 -20t11 -53q-10 -100 -110 -100l2 26q51 0 65 40q8 14 6 29
q-8 -13 -27 -13q-21 0 -33 12.5t-10 32.5t17.5 33t35.5 13z" />
    <glyph glyph-name="uni0237" unicode="&#x237;" horiz-adv-x="227" 
d="M11 -221q-40 0 -62 11l6 60q23 -10 51 -10q60 0 68 77l57 538h64l-58 -554q-6 -58 -39 -90t-87 -32z" />
    <glyph glyph-name="uni0243" unicode="&#x243;" horiz-adv-x="579" 
d="M548 182q-8 -76 -60 -123.5t-134 -56.5l-10 -100h-50l10 98h-72l-10 -98h-51l10 98h-96l72 681h96l10 99h51l-10 -99h72l10 99h50l-11 -102q78 -9 117.5 -54.5t32.5 -118.5q-7 -68 -47 -109.5t-101 -50.5q59 -9 93.5 -52.5t27.5 -110.5zM374 622h-157l-26 -249h170
q59 0 99.5 34t46.5 91q7 58 -29 91t-104 33zM323 60q67 0 109.5 34t49.5 94q6 56 -28 91t-90 35h-179l-27 -254h165z" />
    <glyph glyph-name="uni02BC" unicode="&#x2bc;" horiz-adv-x="268" 
d="M207 741q32 0 52.5 -27.5t15.5 -75.5q-6 -54 -38.5 -87t-82.5 -33q-16 0 -26 3l3 33q9 -2 26 -2q46 0 61 43q10 22 8 47q-13 -14 -35 -14q-24 0 -38 15t-11 40q2 25 20 41.5t45 16.5z" />
    <glyph glyph-name="circumflex" unicode="&#x2c6;" horiz-adv-x="600" 
d="M270 693l138 -147l-43 -38l-103 113l-126 -113l-36 38z" />
    <glyph glyph-name="caron" unicode="&#x2c7;" horiz-adv-x="600" 
d="M250 508l-138 147l44 38l102 -113l127 113l35 -38z" />
    <glyph glyph-name="breve" unicode="&#x2d8;" horiz-adv-x="600" 
d="M290 509q-70 0 -111.5 38.5t-39.5 106.5h56q-1 -46 27 -71t74 -25q45 0 78.5 25t42.5 71h55q-12 -68 -62 -106.5t-120 -38.5z" />
    <glyph glyph-name="dotaccent" unicode="&#x2d9;" horiz-adv-x="600" 
d="M357 547q-26 0 -40.5 17t-11.5 42q2 26 20.5 43t44.5 17t41 -17t13 -43q-3 -25 -22 -42t-45 -17z" />
    <glyph glyph-name="ring" unicode="&#x2da;" horiz-adv-x="600" 
d="M213 495q-46 0 -74 30.5t-24 77.5q5 47 40 77.5t81 30.5t74 -30.5t23 -77.5q-4 -47 -39 -77.5t-81 -30.5zM217 531q30 0 51.5 20t24.5 52q4 31 -13.5 51.5t-47.5 20.5q-29 0 -51 -20.5t-26 -51.5q-3 -32 14.5 -52t47.5 -20z" />
    <glyph glyph-name="ogonek" unicode="&#x2db;" horiz-adv-x="600" 
d="M116 -212q-51 0 -77 26.5t-21 67.5q7 72 103 118h64q-49 -14 -75.5 -41t-29.5 -58q-3 -28 12.5 -45.5t45.5 -17.5q28 0 63 14l-6 -49q-41 -15 -79 -15z" />
    <glyph glyph-name="tilde" unicode="&#x2dc;" horiz-adv-x="600" 
d="M345 541q-27 0 -72 29t-67 29q-40 0 -77 -46l-23 34q44 66 104 66q27 0 72 -29t67 -29q40 0 76 46l24 -34q-46 -66 -104 -66z" />
    <glyph glyph-name="hungarumlaut" unicode="&#x2dd;" horiz-adv-x="600" 
d="M141 503l-32 18l142 166l53 -28zM326 502l-32 19l142 166l53 -28z" />
    <glyph glyph-name="gravecomb" unicode="&#x300;" horiz-adv-x="0" 
d="M-81 511l-148 142l41 39l148 -143z" />
    <glyph glyph-name="acutecomb" unicode="&#x301;" horiz-adv-x="0" 
d="M-143 511l-33 38l178 143l33 -39z" />
    <glyph glyph-name="uni0302" unicode="&#x302;" horiz-adv-x="0" 
d="M-125 693l138 -147l-43 -38l-103 113l-126 -113l-36 38z" />
    <glyph glyph-name="tildecomb" unicode="&#x303;" horiz-adv-x="0" 
d="M-77 541q-27 0 -72 29t-67 29q-40 0 -77 -46l-23 34q44 66 104 66q27 0 72 -29t67 -29q40 0 76 46l24 -34q-46 -66 -104 -66z" />
    <glyph glyph-name="uni0304" unicode="&#x304;" horiz-adv-x="0" 
d="M-336 554l6 53h317l-6 -53h-317z" />
    <glyph glyph-name="uni0306" unicode="&#x306;" horiz-adv-x="0" 
d="M-184 509q-70 0 -111.5 38.5t-39.5 106.5h56q-1 -46 27 -71t74 -25t79 25t42 71h55q-12 -68 -62 -106.5t-120 -38.5z" />
    <glyph glyph-name="uni0307" unicode="&#x307;" horiz-adv-x="0" 
d="M-45 547q-26 0 -40.5 17t-11.5 42q2 26 20.5 43t44.5 17t41 -17t13 -43q-3 -25 -22 -42t-45 -17z" />
    <glyph glyph-name="uni0308" unicode="&#x308;" horiz-adv-x="0" 
d="M-267 547q-23 0 -37.5 16.5t-12.5 39.5q3 25 21 41.5t41 16.5q25 0 40 -16.5t12 -41.5q-2 -23 -20.5 -39.5t-43.5 -16.5zM-70 547q-23 0 -37.5 16.5t-12.5 39.5q3 25 21 41.5t41 16.5q25 0 40 -16.5t12 -41.5q-2 -23 -20.5 -39.5t-43.5 -16.5z" />
    <glyph glyph-name="uni030A" unicode="&#x30a;" horiz-adv-x="0" 
d="M-108 495q-46 0 -74 30.5t-24 77.5q5 47 40 77.5t81 30.5t74 -30.5t23 -77.5q-4 -47 -39 -77.5t-81 -30.5zM-104 531q30 0 51.5 20t24.5 52q4 31 -13.5 51.5t-47.5 20.5q-29 0 -51 -20.5t-26 -51.5q-3 -32 14.5 -52t47.5 -20z" />
    <glyph glyph-name="uni030B" unicode="&#x30b;" horiz-adv-x="0" 
d="M-302 503l-32 18l142 166l53 -28zM-117 502l-32 19l142 166l53 -28z" />
    <glyph glyph-name="uni030C" unicode="&#x30c;" horiz-adv-x="0" 
d="M-145 508l-138 147l44 38l102 -113l127 113l35 -38z" />
    <glyph glyph-name="uni0312" unicode="&#x312;" horiz-adv-x="0" 
d="M-327 691l-3 -27q-52 0 -64 -34q-9 -17 -9 -32q9 15 29 15q19 0 31 -13.5t10 -32.5q-2 -20 -17.5 -34t-36.5 -14q-27 0 -42 22.5t-11 56.5q5 44 34.5 68.5t78.5 24.5z" />
    <glyph glyph-name="uni0326" unicode="&#x326;" horiz-adv-x="0" 
d="M-161 -203l2 26q51 0 65 40q8 14 6 29q-8 -13 -27 -13q-21 0 -33 12.5t-10 32.5t17.5 33t35.5 13q28 0 43 -20t11 -53q-10 -100 -110 -100z" />
    <glyph glyph-name="uni0327" unicode="&#x327;" horiz-adv-x="0" 
d="M-149 -215q-35 0 -55 19.5t-19 50.5h38q-1 -16 10 -26.5t31 -10.5q22 0 36.5 14t16.5 39q3 24 -7.5 38t-33.5 14q-29 0 -47 -24h-33l11 101h38l-7 -67q16 20 52 20q32 0 51.5 -22.5t15.5 -59.5q-4 -38 -30 -62t-68 -24z" />
    <glyph glyph-name="uni0328" unicode="&#x328;" horiz-adv-x="0" 
d="M-150 -212q-51 0 -77 26.5t-21 67.5q7 72 103 118h64q-49 -14 -75.5 -41t-29.5 -58q-3 -28 12.5 -45.5t45.5 -17.5q28 0 63 14l-6 -49q-41 -15 -79 -15z" />
    <glyph glyph-name="uni0394" unicode="&#x394;" horiz-adv-x="573" 
d="M20 0l315 700h51l167 -700h-533zM119 61h347l-118 532z" />
    <glyph glyph-name="uni03A9" unicode="&#x3a9;" horiz-adv-x="707" 
d="M63 0l6 61h200l4 38q-97 29 -149.5 112t-41.5 187q14 134 109 224.5t238 90.5q142 0 218 -90.5t62 -224.5q-11 -104 -81 -187t-174 -112l-4 -38h200l-6 -61h-255l15 138q98 18 163 92t75 171q12 108 -46.5 179t-173.5 71t-188 -71t-85 -179q-10 -97 39.5 -171t144.5 -92
l-15 -138h-255z" />
    <glyph glyph-name="uni03BC" unicode="&#x3bc;" horiz-adv-x="568" 
d="M471 455h64l-48 -455h-64l11 103q-23 -51 -70 -83t-107 -32q-77 0 -109 53l-27 -256h-64l71 670h64l-28 -260q-15 -150 116 -150q73 0 115.5 51t49.5 118z" />
    <glyph glyph-name="pi" unicode="&#x3c0;" horiz-adv-x="601" 
d="M135 0l40 384h-55l6 58h441l-6 -58h-55l-40 -384h-64l40 384h-203l-40 -384h-64z" />
    <glyph glyph-name="uni0401" unicode="&#x401;" horiz-adv-x="547" 
d="M250 757q-24 0 -39 16.5t-13 39.5q3 25 21.5 41.5t42.5 16.5t39 -16.5t12 -41.5q-2 -23 -20.5 -39.5t-42.5 -16.5zM484 757q-24 0 -39 16.5t-13 39.5q3 25 21.5 41.5t42.5 16.5t39 -16.5t12 -41.5q-2 -23 -20.5 -39.5t-42.5 -16.5zM85 0l74 700h391l-7 -61h-324l-27 -261
h324l-7 -61h-324l-27 -256h324l-6 -61h-391z" />
    <glyph glyph-name="uni0402" unicode="&#x402;" horiz-adv-x="701" 
d="M492 473q94 0 149.5 -62t44.5 -176q-13 -121 -80 -184t-180 -63q-31 0 -59 7l7 59q23 -6 49 -6q88 0 136.5 49t57.5 134q9 90 -30 135.5t-113 45.5q-86 0 -147 -40l-39 -372h-67l67 636h-213l7 64h495l-7 -64h-215l-21 -203q67 40 158 40z" />
    <glyph glyph-name="uni0403" unicode="&#x403;" horiz-adv-x="474" 
d="M264 730l-19 46l240 115l19 -45zM159 700h381l-7 -64h-314l-67 -636h-67z" />
    <glyph glyph-name="uni0404" unicode="&#x404;" horiz-adv-x="753" 
d="M398 46q93 0 163 45.5t99 121.5h73q-36 -104 -127.5 -166t-214.5 -62q-155 0 -243 102t-71 263q16 161 126 263t265 102q121 0 200.5 -61t93.5 -166h-74q-12 76 -72.5 121t-153.5 45q-118 0 -203.5 -74.5t-107.5 -198.5h377l-6 -62h-377q-4 -124 65.5 -198.5t187.5 -74.5
z" />
    <glyph glyph-name="uni0405" unicode="&#x405;" horiz-adv-x="561" 
d="M288 -15q-116 0 -176 62t-49 170h67q-8 -79 36.5 -125.5t128.5 -46.5q76 0 121 35t52 98q10 100 -107 134l-114 36q-145 40 -130 182q8 83 74 134t163 51q102 0 156 -56.5t44 -153.5h-67q7 72 -30 111.5t-111 39.5q-68 0 -111.5 -33.5t-49.5 -88.5q-5 -52 22.5 -84.5
t93.5 -51.5l110 -34q139 -42 124 -185q-10 -89 -76.5 -141.5t-170.5 -52.5z" />
    <glyph glyph-name="uni0406" unicode="&#x406;" horiz-adv-x="237" 
d="M85 0l74 700h67l-74 -700h-67z" />
    <glyph glyph-name="uni0407" unicode="&#x407;" horiz-adv-x="237" 
d="M135 759q-23 0 -37 15t-12 39q3 24 20 39t40 15q24 0 37.5 -15t10.5 -39q-2 -24 -19 -39t-40 -15zM261 759q-23 0 -37 15t-12 39q3 24 20 39t40 15q24 0 38 -15t11 -39q-2 -24 -19 -39t-41 -15zM85 0l74 700h67l-74 -700h-67z" />
    <glyph glyph-name="uni0408" unicode="&#x408;" horiz-adv-x="537" 
d="M250 -15q-101 0 -157.5 61.5t-44.5 169.5h67q-9 -80 31 -125t111 -45q70 0 116 47t54 128l51 479h67l-51 -479q-11 -109 -77.5 -172.5t-166.5 -63.5z" />
    <glyph glyph-name="uni0409" unicode="&#x409;" horiz-adv-x="1005" 
d="M819 393q81 0 129 -57t40 -140q-9 -81 -70 -138.5t-143 -57.5h-252l67 640h-300l-41 -390q-14 -137 -63 -195.5t-126 -58.5h-37l6 64h26q54 0 85 42.5t42 149.5l48 448h434l-33 -307h188zM781 61q53 0 93.5 39.5t46.5 95.5q5 56 -25.5 96t-82.5 40h-188l-29 -271h185z
" />
    <glyph glyph-name="uni040A" unicode="&#x40a;" horiz-adv-x="996" 
d="M810 393q81 0 129 -57t40 -140q-9 -81 -70 -138.5t-143 -57.5h-252l33 317h-362l-33 -317h-67l74 700h67l-34 -322h362l34 322h67l-33 -307h188zM772 61q53 0 93.5 39.5t46.5 95.5q5 56 -25.5 96t-82.5 40h-188l-29 -271h185z" />
    <glyph glyph-name="uni040B" unicode="&#x40b;" horiz-adv-x="736" 
d="M499 466q105 0 152 -59.5t36 -161.5l-26 -245h-67l24 229q19 176 -142 176q-91 0 -150 -43l-38 -362h-67l67 636h-213l7 64h495l-7 -64h-215l-23 -213q67 43 167 43z" />
    <glyph glyph-name="uni040C" unicode="&#x40c;" horiz-adv-x="586" 
d="M524 846l-240 -116l-19 46l240 115zM269 359l300 -359h-87l-293 356l-37 -356h-67l74 700h67l-33 -307h39q57 0 100 64l109 154q34 49 63 70t68 21h50l-7 -61h-37q-25 0 -43 -14t-47 -54l-109 -153q-42 -61 -94 -61h-16z" />
    <glyph glyph-name="uni040E" unicode="&#x40e;" horiz-adv-x="542" 
d="M361 736q-65 0 -107 35.5t-41 92.5h55q1 -39 28.5 -59.5t69.5 -20.5t75 20.5t42 59.5h54q-11 -57 -61 -92.5t-115 -35.5zM552 700h74l-431 -700h-74l170 277l-222 423h78l186 -354z" />
    <glyph glyph-name="uni040F" unicode="&#x40f;" horiz-adv-x="637" 
d="M626 700l-74 -700h-200l-13 -120h-67l13 120h-200l74 700h67l-68 -639h333l68 639h67z" />
    <glyph glyph-name="uni0410" unicode="&#x410;" horiz-adv-x="577" 
d="M484 0l-28 126h-310l-53 -126h-73l312 700h61l164 -700h-73zM173 187h271l-92 422z" />
    <glyph glyph-name="uni0411" unicode="&#x411;" horiz-adv-x="567" 
d="M85 0l74 700h387l-7 -61h-320l-26 -246h188q81 0 129 -57t40 -140q-9 -81 -70 -138.5t-143 -57.5h-252zM158 61h185q53 0 93.5 39.5t46.5 95.5q5 56 -25.5 96t-82.5 40h-188z" />
    <glyph glyph-name="uni0412" unicode="&#x412;" horiz-adv-x="579" 
d="M428 355q59 -9 93.5 -54t27.5 -114q-10 -87 -72 -137t-159 -50h-233l74 700h227q97 0 148.5 -48t42.5 -133q-7 -68 -47 -110t-102 -54zM376 640h-157l-27 -257h170q59 0 99.5 35t47.5 94q6 60 -29.5 94t-103.5 34zM323 60q67 0 109.5 35t49.5 98q7 58 -26.5 94t-90.5 36
h-179l-28 -263h165z" />
    <glyph glyph-name="uni0413" unicode="&#x413;" horiz-adv-x="474" 
d="M159 700h381l-7 -64h-314l-67 -636h-67z" />
    <glyph glyph-name="uni0414" unicode="&#x414;" horiz-adv-x="634" 
d="M551 61h37l-19 -181h-64l13 120h-426l-13 -120h-67l19 181h30q41 0 66 42.5t36 148.5l48 448h408zM168 61h315l61 578h-272l-40 -386q-14 -127 -64 -192z" />
    <glyph glyph-name="uni0415" unicode="&#x415;" horiz-adv-x="547" 
d="M85 0l74 700h391l-7 -61h-324l-27 -261h324l-7 -61h-324l-27 -256h324l-6 -61h-391z" />
    <glyph glyph-name="uni0416" unicode="&#x416;" horiz-adv-x="935" 
d="M618 359l300 -359h-87l-293 356l-37 -356h-67l37 356l-367 -356h-87l376 359h-16q-51 0 -82 61l-77 153q-20 40 -35.5 54t-40.5 14h-37l7 61h50q39 0 63.5 -21t47.5 -70l77 -154q29 -64 86 -64h39l33 307h67l-33 -307h39q57 0 100 64l109 154q34 49 63 70t68 21h50
l-7 -61h-37q-25 0 -43 -14t-47 -54l-109 -153q-42 -61 -94 -61h-16z" />
    <glyph glyph-name="uni0417" unicode="&#x417;" horiz-adv-x="555" 
d="M133 203q-7 -72 34.5 -114.5t116.5 -42.5t122.5 41t54.5 104q7 65 -30 102t-115 37h-55l6 61h55q72 0 114.5 36.5t48.5 93.5q6 59 -31 96t-105 37q-73 0 -122 -39t-56 -105h-67q9 91 78 148t171 57q96 0 152.5 -51t46.5 -138q-6 -62 -46 -106.5t-101 -55.5
q63 -11 96.5 -57.5t26.5 -115.5q-10 -93 -78 -149.5t-172 -56.5q-105 0 -163.5 59t-48.5 159h67z" />
    <glyph glyph-name="uni0418" unicode="&#x418;" horiz-adv-x="665" 
d="M571 555l-414 -510l-5 -45h-67l74 700h67l-59 -554l415 509l5 45h67l-74 -700h-67z" />
    <glyph glyph-name="uni0419" unicode="&#x419;" horiz-adv-x="665" 
d="M410 716q-69 0 -112.5 29t-42.5 79h55q1 -31 30.5 -46.5t74.5 -15.5t78 15.5t42 46.5h54q-11 -50 -60.5 -79t-118.5 -29zM571 555l-414 -510l-5 -45h-67l74 700h67l-59 -554l415 509l5 45h67l-74 -700h-67z" />
    <glyph glyph-name="uni041A" unicode="&#x41a;" horiz-adv-x="586" 
d="M269 359l300 -359h-87l-293 356l-37 -356h-67l74 700h67l-33 -307h39q57 0 100 64l109 154q34 49 63 70t68 21h50l-7 -61h-37q-25 0 -43 -14t-47 -54l-109 -153q-42 -61 -94 -61h-16z" />
    <glyph glyph-name="uni041B" unicode="&#x41b;" horiz-adv-x="676" 
d="M29 60h26q54 0 85 42.5t42 149.5l48 448h434l-74 -700h-67l67 640h-300l-41 -390q-14 -137 -63 -195.5t-126 -58.5h-37z" />
    <glyph glyph-name="uni041C" unicode="&#x41c;" horiz-adv-x="814" 
d="M85 0l74 700h65l193 -606l321 606h65l-74 -700h-65l59 558l-289 -558h-54l-171 561l-59 -561h-65z" />
    <glyph glyph-name="uni041D" unicode="&#x41d;" horiz-adv-x="666" 
d="M85 0l74 700h67l-34 -322h362l34 322h67l-74 -700h-67l33 317h-362l-33 -317h-67z" />
    <glyph glyph-name="uni041E" unicode="&#x41e;" horiz-adv-x="800" 
d="M398 -15q-163 0 -250 106.5t-71 258.5t125.5 258.5t272.5 106.5q109 0 187 -51t111.5 -133.5t23.5 -180.5q-16 -152 -126 -258.5t-273 -106.5zM405 46q132 0 220.5 88.5t101.5 215.5t-56.5 215.5t-201.5 88.5t-220.5 -88.5t-101.5 -215.5t56.5 -215.5t201.5 -88.5z" />
    <glyph glyph-name="uni041F" unicode="&#x41f;" horiz-adv-x="662" 
d="M219 639l-67 -639h-67l74 700h492l-74 -700h-67l67 639h-358z" />
    <glyph glyph-name="uni0420" unicode="&#x420;" horiz-adv-x="577" 
d="M403 700q100 0 158 -67t47 -171t-83.5 -171.5t-172.5 -67.5h-177l-23 -223h-67l74 700h244zM355 284q73 0 125.5 50.5t60.5 127.5t-34 127t-115 50h-173l-37 -355h173z" />
    <glyph glyph-name="uni0421" unicode="&#x421;" horiz-adv-x="774" 
d="M399 -15q-165 0 -252 104t-70 261q16 157 125 261t274 104q135 0 214 -65t91 -170h-73q-15 80 -75 127t-163 47q-134 0 -221.5 -86t-101.5 -218t55.5 -218t203.5 -86q103 0 173 46.5t102 127.5h73q-34 -105 -127 -170t-228 -65z" />
    <glyph glyph-name="uni0422" unicode="&#x422;" horiz-adv-x="510" 
d="M221 0l67 636h-213l7 64h495l-7 -64h-215l-67 -636h-67z" />
    <glyph glyph-name="uni0423" unicode="&#x423;" horiz-adv-x="542" 
d="M552 700h74l-431 -700h-74l170 277l-222 423h78l186 -354z" />
    <glyph glyph-name="uni0424" unicode="&#x424;" horiz-adv-x="726" 
d="M519 601q108 0 167.5 -72.5t48.5 -178.5q-12 -106 -86.5 -178.5t-182.5 -72.5h-60l-10 -99h-67l10 99h-60q-108 0 -167 72.5t-47 178.5q11 106 85 178.5t182 72.5h60l11 99h67l-11 -99h60zM132 350q-8 -80 34 -135t120 -55h60l40 380h-60q-78 0 -132 -54.5t-62 -135.5z
M473 160q78 0 132.5 55t62.5 135q8 81 -34.5 135.5t-120.5 54.5h-60l-40 -380h60z" />
    <glyph glyph-name="uni0425" unicode="&#x425;" horiz-adv-x="592" 
d="M25 0l270 350l-196 350h76l164 -295l226 295h76l-270 -350l196 -350h-76l-164 294l-226 -294h-76z" />
    <glyph glyph-name="uni0426" unicode="&#x426;" horiz-adv-x="642" 
d="M558 61h37l-19 -181h-64l13 120h-440l74 700h67l-68 -639h333l68 639h67z" />
    <glyph glyph-name="uni0427" unicode="&#x427;" horiz-adv-x="575" 
d="M423 0l29 277q-67 -43 -166 -43q-105 0 -152 59.5t-36 161.5l26 245h67l-24 -229q-19 -176 142 -176q91 0 150 43l38 362h67l-74 -700h-67z" />
    <glyph glyph-name="uni0428" unicode="&#x428;" horiz-adv-x="918" 
d="M85 0l74 700h67l-68 -639h273l68 639h67l-68 -639h273l68 639h67l-74 -700h-747z" />
    <glyph glyph-name="uni0429" unicode="&#x429;" horiz-adv-x="922" 
d="M838 61h38l-19 -181h-64l13 120h-721l74 700h67l-68 -639h273l68 639h67l-68 -639h273l68 639h67z" />
    <glyph glyph-name="uni042A" unicode="&#x42a;" horiz-adv-x="700" 
d="M514 393q81 0 129 -57t40 -140q-9 -81 -70 -138.5t-143 -57.5h-252l67 639h-210l7 61h277l-33 -307h188zM476 61q53 0 93.5 39.5t46.5 95.5q5 56 -25.5 96t-82.5 40h-188l-29 -271h185z" />
    <glyph glyph-name="uni042B" unicode="&#x42b;" horiz-adv-x="761" 
d="M85 0l74 700h67l-33 -307h188q81 0 129 -57t40 -140q-9 -81 -70 -138.5t-143 -57.5h-252zM608 0l74 700h67l-74 -700h-67zM158 61h185q53 0 93.5 39.5t46.5 95.5q5 56 -25.5 96t-82.5 40h-188z" />
    <glyph glyph-name="uni042C" unicode="&#x42c;" horiz-adv-x="567" 
d="M85 0l74 700h67l-33 -307h188q81 0 129 -57t40 -140q-9 -81 -70 -138.5t-143 -57.5h-252zM158 61h185q53 0 93.5 39.5t46.5 95.5q5 56 -25.5 96t-82.5 40h-188z" />
    <glyph glyph-name="uni042D" unicode="&#x42d;" horiz-adv-x="753" 
d="M435 715q155 0 243 -102t72 -263q-17 -161 -127 -263t-265 -102q-122 0 -201 62t-93 166h73q14 -77 74.5 -122t153.5 -45q118 0 203 74.5t108 198.5h-377l6 62h377q3 124 -66 198.5t-187 74.5q-93 0 -163 -45t-99 -121h-74q37 105 129 166t213 61z" />
    <glyph glyph-name="uni042E" unicode="&#x42e;" horiz-adv-x="1027" 
d="M702 715q109 0 187 -51t111.5 -133.5t23.5 -180.5q-16 -152 -126 -258.5t-273 -106.5q-154 0 -240.5 96t-83.5 237h-116l-33 -318h-67l74 700h67l-34 -321h116q25 143 132 239.5t262 96.5zM632 46q132 0 220.5 88.5t101.5 215.5t-56.5 215.5t-201.5 88.5t-220.5 -88.5
t-101.5 -215.5t56.5 -215.5t201.5 -88.5z" />
    <glyph glyph-name="uni042F" unicode="&#x42f;" horiz-adv-x="604" 
d="M349 700h244l-74 -700h-67l23 223h-177h-4l-163 -223h-77l173 234q-69 23 -105.5 84t-27.5 144q11 104 83 171t172 67zM309 284h173l37 355h-173q-73 0 -125 -50t-60 -127t33.5 -127.5t114.5 -50.5z" />
    <glyph glyph-name="uni0430" unicode="&#x430;" horiz-adv-x="590" 
d="M267 -12q-105 0 -159.5 67.5t-43.5 171.5t80.5 172t173.5 68q62 0 105.5 -30t60.5 -81l11 99h63l-48 -455h-63l10 98q-27 -49 -78.5 -79.5t-111.5 -30.5zM280 46q80 0 133 52.5t61 128.5q8 77 -34 129.5t-122 52.5q-77 0 -129.5 -51.5t-60.5 -130.5t33.5 -130t118.5 -51z
" />
    <glyph glyph-name="uni0431" unicode="&#x431;" horiz-adv-x="566" 
d="M289 -12q-115 0 -167.5 79.5t-38.5 221.5q21 203 110.5 307t270.5 104h92l-7 -62h-100q-256 0 -295 -300q30 64 83.5 96.5t119.5 32.5q98 0 151 -69t42 -168q-11 -103 -82.5 -172.5t-178.5 -69.5zM296 46q78 0 130 52.5t60 128.5q8 77 -33 129.5t-119 52.5
q-77 0 -128.5 -52t-59.5 -130t32.5 -129.5t117.5 -51.5z" />
    <glyph glyph-name="uni0432" unicode="&#x432;" horiz-adv-x="493" 
d="M128 455h220q68 0 97 -34.5t25 -82.5q-5 -39 -35.5 -68.5t-73.5 -35.5q43 -1 70 -33.5t22 -78.5q-5 -48 -45.5 -85t-110.5 -37h-217zM324 256q31 0 54 23t26 54t-15.5 53t-50.5 22h-152l-16 -152h154zM165 209l-17 -161h155q32 0 57 23t28 55q4 33 -15.5 58t-51.5 25
h-156z" />
    <glyph glyph-name="uni0433" unicode="&#x433;" horiz-adv-x="373" 
d="M398 455l-6 -60h-206l-42 -395h-64l48 455h270z" />
    <glyph glyph-name="uni0434" unicode="&#x434;" horiz-adv-x="547" 
d="M463 61h38l-19 -181h-64l13 120h-344l-13 -120h-67l19 181h43q51 21 62 131l28 263h346zM146 55h253l36 346h-218l-22 -206q-8 -87 -49 -140z" />
    <glyph glyph-name="uni0435" unicode="&#x435;" horiz-adv-x="515" 
d="M502 256q-2 -17 -7 -43h-368q-8 -77 31 -122.5t112 -45.5q51 0 89.5 22t57.5 61h65q-20 -62 -80 -101t-138 -39q-103 0 -157 65.5t-43 174.5q11 108 79 173.5t167 65.5q95 0 148.5 -59t43.5 -152zM133 264h307q6 69 -29.5 110t-105.5 41q-67 0 -114 -41.5t-58 -109.5z
" />
    <glyph glyph-name="uni0436" unicode="&#x436;" horiz-adv-x="734" 
d="M495 232l207 -232h-82l-198 222l-23 -222h-64l23 222l-244 -222h-82l255 232h-5q-25 0 -40.5 12.5t-33.5 44.5l-38 69q-15 25 -25.5 34.5t-31.5 9.5h-23l6 58h37q31 0 48 -14t37 -48l57 -99q26 -49 62 -49h24l22 205h64l-22 -205h24q38 0 72 49l79 99q26 34 46 48t51 14
h37l-6 -58h-23q-21 0 -33 -9.5t-32 -34.5l-54 -69q-24 -32 -42.5 -44.5t-43.5 -12.5h-5z" />
    <glyph glyph-name="uni0437" unicode="&#x437;" horiz-adv-x="472" 
d="M127 129q-5 -39 26 -62.5t90 -23.5q56 0 89 22t37 61q4 36 -20 57.5t-70 21.5h-70l5 50h68q41 0 68.5 22t31.5 59q4 34 -23 56t-76 22q-56 0 -88.5 -22.5t-36.5 -59.5h-66q6 60 60 97.5t136 37.5q77 0 121 -35t38 -89q-4 -44 -33.5 -73t-76.5 -37q48 -5 74 -35t22 -78
q-7 -60 -63 -95.5t-136 -35.5q-86 0 -132.5 38.5t-39.5 101.5h65z" />
    <glyph glyph-name="uni0438" unicode="&#x438;" horiz-adv-x="556" 
d="M448 344l-300 -310l-4 -34h-64l48 455h64l-37 -346l301 311l4 35h64l-48 -455h-64z" />
    <glyph glyph-name="uni0439" unicode="&#x439;" horiz-adv-x="556" 
d="M329 498q-70 0 -111.5 36.5t-40.5 100.5h56q-1 -42 27 -65t74 -23t79.5 23t41.5 65h55q-12 -64 -61.5 -100.5t-119.5 -36.5zM448 344l-300 -310l-4 -34h-64l48 455h64l-37 -346l301 311l4 35h64l-48 -455h-64z" />
    <glyph glyph-name="uni043A" unicode="&#x43a;" horiz-adv-x="479" 
d="M240 232l207 -232h-82l-198 222l-23 -222h-64l48 455h64l-22 -205h24q38 0 72 49l79 99q26 34 46 48t51 14h37l-6 -58h-23q-21 0 -33 -9.5t-32 -34.5l-54 -69q-24 -32 -42.5 -44.5t-43.5 -12.5h-5z" />
    <glyph glyph-name="uni043B" unicode="&#x43b;" horiz-adv-x="544" 
d="M36 59h19q76 0 89 129l28 267h340l-48 -455h-64l42 395h-212l-22 -204q-20 -193 -146 -193h-32z" />
    <glyph glyph-name="uni043C" unicode="&#x43c;" horiz-adv-x="693" 
d="M80 0l48 455h98l129 -367l208 367h98l-49 -455h-61l41 393l-224 -393h-43l-142 393l-41 -393h-62z" />
    <glyph glyph-name="uni043D" unicode="&#x43d;" horiz-adv-x="557" 
d="M80 0l48 455h64l-21 -199h269l21 199h64l-48 -455h-64l21 201h-269l-21 -201h-64z" />
    <glyph glyph-name="uni043E" unicode="&#x43e;" horiz-adv-x="549" 
d="M273 -12q-106 0 -163 69t-46 171t82.5 170.5t176.5 68.5q106 0 163.5 -68.5t46.5 -170.5q-11 -103 -82.5 -171.5t-177.5 -68.5zM279 47q78 0 129.5 51.5t60.5 129.5q8 78 -33 129.5t-119 51.5t-129.5 -51.5t-59.5 -130.5q-8 -77 32.5 -128.5t118.5 -51.5z" />
    <glyph glyph-name="uni043F" unicode="&#x43f;" horiz-adv-x="561" 
d="M481 0h-64l42 400h-273l-42 -400h-64l48 455h401z" />
    <glyph glyph-name="uni0440" unicode="&#x440;" horiz-adv-x="590" 
d="M376 467q98 0 153.5 -67t44.5 -173q-11 -104 -82 -171.5t-170 -67.5q-60 0 -105.5 30t-62.5 80l-33 -313h-64l71 670h64l-11 -99q28 52 80.5 81.5t114.5 29.5zM321 46q74 0 127.5 51t61.5 130q8 80 -34.5 131t-116.5 51q-77 0 -131.5 -51t-62.5 -131q-8 -79 36 -130
t120 -51z" />
    <glyph glyph-name="uni0441" unicode="&#x441;" horiz-adv-x="516" 
d="M265 -12q-103 0 -157.5 66t-43.5 173t79.5 173t171.5 66q89 0 140 -44.5t53 -120.5h-65q-4 52 -39 79.5t-95 27.5q-75 0 -123.5 -49t-57.5 -132t29.5 -132t113.5 -49q60 0 101 27.5t55 77.5h65q-17 -74 -77.5 -118.5t-149.5 -44.5z" />
    <glyph glyph-name="uni0442" unicode="&#x442;" horiz-adv-x="426" 
d="M442 455l-6 -60h-149l-42 -395h-64l42 395h-148l6 60h361z" />
    <glyph glyph-name="uni0443" unicode="&#x443;" horiz-adv-x="567" 
d="M471 455h64l-50 -470q-10 -111 -81 -166q-58 -46 -149 -46q-97 0 -148 46q-45 43 -39 117h65q-7 -108 127 -108q145 0 162 161l12 112q-26 -50 -73 -81t-109 -31q-178 0 -157 202l28 264h64l-27 -252q-8 -76 18 -116t100 -40q72 0 116.5 52.5t51.5 122.5z" />
    <glyph glyph-name="uni0444" unicode="&#x444;" horiz-adv-x="587" 
d="M571 228q-10 -96 -80 -167t-167 -73l-22 -203h-64l22 203q-97 2 -151.5 72.5t-44.5 167.5t80 167t166 72l25 233h64l-25 -233q97 -2 152 -72.5t45 -166.5zM327 44q73 1 122 55t57 129q8 76 -30 129.5t-111 54.5zM128 228q-8 -75 30.5 -129t110.5 -55l38 368
q-73 -1 -122 -54.5t-57 -129.5z" />
    <glyph glyph-name="uni0445" unicode="&#x445;" horiz-adv-x="470" 
d="M23 0l198 228l-149 227h79l112 -179l152 179h79l-198 -227l151 -228h-79l-115 182l-152 -182h-78z" />
    <glyph glyph-name="uni0446" unicode="&#x446;" horiz-adv-x="571" 
d="M488 61h37l-19 -181h-64l13 120h-375l48 455h64l-42 -400h274l42 400h64z" />
    <glyph glyph-name="uni0447" unicode="&#x447;" horiz-adv-x="483" 
d="M339 0l19 180q-57 -32 -136 -32q-174 0 -158 158l16 149h65l-15 -141q-12 -111 110 -111q78 0 124 33l23 219h64l-48 -455h-64z" />
    <glyph glyph-name="uni0448" unicode="&#x448;" horiz-adv-x="794" 
d="M435 55h220l42 400h65l-48 -455h-634l48 455h64l-42 -400h221l42 400h64z" />
    <glyph glyph-name="uni0449" unicode="&#x449;" horiz-adv-x="803" 
d="M720 61h37l-19 -181h-64l13 120h-607l48 455h64l-42 -400h221l42 400h64l-42 -400h220l42 400h65z" />
    <glyph glyph-name="uni044A" unicode="&#x44a;" horiz-adv-x="505" 
d="M354 284q65 0 102 -41t31 -101q-6 -59 -53.5 -100.5t-111.5 -41.5h-195l42 396h-104l6 59h168l-18 -171h133zM322 53q40 0 67 25.5t31 63.5t-17.5 63.5t-59.5 25.5h-128l-18 -178h125z" />
    <glyph glyph-name="uni044B" unicode="&#x44b;" horiz-adv-x="641" 
d="M128 455h64l-18 -171h133q65 0 102 -41t31 -101q-6 -59 -53.5 -100.5t-111.5 -41.5h-195zM497 0l48 455h64l-48 -455h-64zM168 231l-18 -178h125q40 0 67 25.5t31 63.5t-17.5 63.5t-59.5 25.5h-128z" />
    <glyph glyph-name="uni044C" unicode="&#x44c;" horiz-adv-x="457" 
d="M128 455h64l-18 -171h133q65 0 102 -41t31 -101q-6 -59 -53.5 -100.5t-111.5 -41.5h-195zM168 231l-18 -178h125q40 0 67 25.5t31 63.5t-17.5 63.5t-59.5 25.5h-128z" />
    <glyph glyph-name="uni044D" unicode="&#x44d;" horiz-adv-x="525" 
d="M137 289h-65q12 75 73.5 126.5t158.5 51.5q111 0 163.5 -69.5t41.5 -169.5q-10 -100 -77.5 -170t-177.5 -70q-95 0 -147 47t-51 121h65q4 -50 39 -80t103 -30q74 0 120 44t56 113h-206l6 50h206q4 69 -32 112.5t-112 43.5q-70 0 -111 -33.5t-53 -86.5z" />
    <glyph glyph-name="uni044E" unicode="&#x44e;" horiz-adv-x="724" 
d="M498 467q106 0 163.5 -68.5t46.5 -170.5q-11 -103 -82.5 -171.5t-177.5 -68.5q-97 0 -154 59t-56 151h-73l-21 -198h-64l48 455h64l-21 -202h72q18 93 87 153.5t168 60.5zM454 47q78 0 129.5 51.5t60.5 129.5q8 78 -33 129.5t-119 51.5t-129.5 -51.5t-59.5 -130.5
q-8 -77 32.5 -128.5t118.5 -51.5z" />
    <glyph glyph-name="uni044F" unicode="&#x44f;" horiz-adv-x="516" 
d="M62 0l130 162q-51 7 -80.5 49.5t-24.5 93.5q7 62 55.5 106t117.5 44h224l-48 -455h-63l16 155h-131l-121 -155h-75zM245 210h150l20 192h-150q-46 0 -77.5 -28.5t-35.5 -68.5t21.5 -67.5t71.5 -27.5z" />
    <glyph glyph-name="uni0451" unicode="&#x451;" horiz-adv-x="515" 
d="M219 546q-23 0 -37.5 16.5t-12.5 39.5q3 25 21 41.5t41 16.5q25 0 40 -16.5t12 -41.5q-2 -23 -20.5 -39.5t-43.5 -16.5zM416 546q-23 0 -37.5 16.5t-12.5 39.5q3 25 21 41.5t41 16.5q25 0 40 -16.5t12 -41.5q-2 -23 -20.5 -39.5t-43.5 -16.5zM502 256q-2 -17 -7 -43h-368
q-8 -77 31 -122.5t112 -45.5q51 0 89.5 22t57.5 61h65q-20 -62 -80 -101t-138 -39q-103 0 -157 65.5t-43 174.5q11 108 79 173.5t167 65.5q95 0 148.5 -59t43.5 -152zM133 264h307q6 69 -29.5 110t-105.5 41q-67 0 -114 -41.5t-58 -109.5z" />
    <glyph glyph-name="uni0452" unicode="&#x452;" horiz-adv-x="565" 
d="M366 467q86 0 124.5 -49.5t28.5 -143.5l-39 -373q-6 -58 -39 -90t-87 -32q-40 0 -62 11l6 60q23 -10 51 -10q29 0 46.5 20t21.5 57l35 332q18 162 -113 162q-73 0 -116 -48.5t-52 -130.5l-24 -232h-64l58 553h-61l6 53h61l10 94h64l-10 -94h203l-6 -53h-203l-21 -202
q22 53 69 84.5t113 31.5z" />
    <glyph glyph-name="uni0453" unicode="&#x453;" horiz-adv-x="373" 
d="M264 511l-33 38l178 143l33 -39zM398 455l-6 -60h-206l-42 -395h-64l48 455h270z" />
    <glyph glyph-name="uni0454" unicode="&#x454;" horiz-adv-x="525" 
d="M448 289q-1 53 -34.5 86.5t-103.5 33.5q-76 0 -121 -43.5t-55 -112.5h206l-6 -50h-206q-4 -69 33 -113t111 -44q68 0 109 30t55 80h65q-13 -73 -74.5 -120.5t-157.5 -47.5q-110 0 -162.5 70t-42.5 170q11 100 77.5 169.5t177.5 69.5q97 0 147.5 -51.5t46.5 -126.5h-65z
" />
    <glyph glyph-name="uni0455" unicode="&#x455;" horiz-adv-x="442" 
d="M225 -12q-83 0 -130 41.5t-41 103.5h64q-4 -39 26.5 -65.5t88.5 -26.5q47 0 77.5 20.5t34.5 57.5q2 29 -13 47t-57 29l-92 24q-104 27 -93 122q6 57 56 91.5t123 34.5q79 0 121 -35.5t35 -96.5h-63q3 38 -24 59.5t-78 21.5q-43 0 -73 -19t-34 -54q-5 -54 69 -73l94 -26
q103 -27 94 -122q-7 -64 -56.5 -99t-128.5 -35z" />
    <glyph glyph-name="uni0456" unicode="&#x456;" horiz-adv-x="224" 
d="M169 547q-26 0 -40.5 17t-11.5 42q2 26 20.5 43t44.5 17t41 -17t13 -43q-3 -25 -22 -42t-45 -17zM80 0l48 455h64l-48 -455h-64z" />
    <glyph glyph-name="uni0457" unicode="&#x457;" horiz-adv-x="224" 
d="M107 552q-21 0 -34 14.5t-11 35.5q2 22 18.5 36.5t37.5 14.5q22 0 34.5 -14.5t10.5 -36.5q-2 -21 -18 -35.5t-38 -14.5zM232 552q-21 0 -34 14.5t-11 35.5q2 22 18.5 36.5t37.5 14.5q22 0 34.5 -14.5t10.5 -36.5q-2 -21 -18 -35.5t-38 -14.5zM80 0l48 455h64l-48 -455
h-64z" />
    <glyph glyph-name="uni0458" unicode="&#x458;" horiz-adv-x="227" 
d="M172 547q-26 0 -40.5 17t-11.5 42q2 26 20.5 43t44.5 17t41 -17t13 -43q-3 -25 -22 -42t-45 -17zM11 -221q-40 0 -62 11l6 60q23 -10 51 -10q60 0 68 77l57 538h64l-58 -554q-6 -58 -39 -90t-87 -32z" />
    <glyph glyph-name="uni0459" unicode="&#x459;" horiz-adv-x="778" 
d="M628 284q65 0 102 -41t31 -101q-6 -59 -53.5 -100.5t-111.5 -41.5h-196l42 395h-212l-22 -204q-20 -193 -146 -193h-32l6 61h19q76 0 89 129l28 267h341l-18 -171h133zM596 53q40 0 67 25.5t31 63.5t-17.5 63.5t-59.5 25.5h-128l-18 -178h125z" />
    <glyph glyph-name="uni045A" unicode="&#x45a;" horiz-adv-x="790" 
d="M640 284q65 0 102 -41t31 -101q-6 -59 -53.5 -100.5t-111.5 -41.5h-195l21 201h-269l-21 -201h-64l48 455h64l-21 -199h269l21 199h64l-18 -171h133zM608 53q40 0 67 25.5t31 63.5t-17.5 63.5t-59.5 25.5h-128l-18 -178h125z" />
    <glyph glyph-name="uni045B" unicode="&#x45b;" horiz-adv-x="565" 
d="M366 467q86 0 124.5 -49.5t28.5 -143.5l-29 -274h-64l26 249q18 162 -113 162q-73 0 -116 -48.5t-52 -130.5l-24 -232h-64l58 553h-61l6 53h61l10 94h64l-10 -94h203l-6 -53h-203l-21 -202q22 53 69 84.5t113 31.5z" />
    <glyph glyph-name="uni045C" unicode="&#x45c;" horiz-adv-x="479" 
d="M458 653l-178 -142l-33 38l178 143zM240 232l207 -232h-82l-198 222l-23 -222h-64l48 455h64l-22 -205h24q38 0 72 49l79 99q26 34 46 48t51 14h37l-6 -58h-23q-21 0 -33 -9.5t-32 -34.5l-54 -69q-24 -32 -42.5 -44.5t-43.5 -12.5h-5z" />
    <glyph glyph-name="uni045E" unicode="&#x45e;" horiz-adv-x="567" 
d="M333 507q-70 0 -111.5 36.5t-40.5 100.5h56q-1 -42 27 -65t74 -23t79.5 23t41.5 65h55q-12 -64 -61.5 -100.5t-119.5 -36.5zM471 455h64l-50 -470q-10 -111 -81 -166q-58 -46 -149 -46q-97 0 -148 46q-45 43 -39 117h65q-7 -108 127 -108q145 0 162 161l12 112
q-26 -50 -73 -81t-109 -31q-178 0 -157 202l28 264h64l-27 -252q-8 -76 18 -116t100 -40q72 0 116.5 52.5t51.5 122.5z" />
    <glyph glyph-name="uni045F" unicode="&#x45f;" horiz-adv-x="562" 
d="M530 455l-48 -455h-167l-10 -91h-64l10 91h-171l48 455h64l-42 -400h274l42 400h64z" />
    <glyph glyph-name="uni0462" unicode="&#x462;" horiz-adv-x="703" 
d="M518 393q81 0 129 -57t40 -140q-9 -81 -70 -138.5t-143 -57.5h-253l67 636h-213l7 64h495l-7 -64h-214l-26 -243h188zM480 61q53 0 93.5 39.5t46.5 95.5q5 56 -25.5 96t-82.5 40h-188l-29 -271h185z" />
    <glyph glyph-name="uni0463" unicode="&#x463;" horiz-adv-x="457" 
d="M307 284q65 0 102 -41t31 -101q-6 -59 -53.5 -100.5t-111.5 -41.5h-195l45 428h-69l6 53h69l23 219h64l-23 -219h125l-6 -53h-125l-15 -144h133zM275 53q40 0 67 25.5t31 63.5t-17.5 63.5t-59.5 25.5h-128l-18 -178h125z" />
    <glyph glyph-name="uni0472" unicode="&#x472;" horiz-adv-x="800" 
d="M475 715q109 0 187 -51t111.5 -133.5t23.5 -180.5q-16 -152 -126 -258.5t-273 -106.5t-250 106.5t-71 258.5t125.5 258.5t272.5 106.5zM469 654q-126 0 -212.5 -81t-106.5 -200h578q5 119 -64 200t-195 81zM405 46q127 0 212.5 81t105.5 201h-578q-5 -120 64 -201
t196 -81z" />
    <glyph glyph-name="uni0473" unicode="&#x473;" horiz-adv-x="549" 
d="M323 467q106 0 163.5 -68.5t46.5 -170.5q-11 -103 -82.5 -171.5t-177.5 -68.5t-163 69t-46 171t82.5 170.5t176.5 68.5zM317 409q-72 0 -121.5 -44t-64.5 -114h339q1 70 -40 114t-113 44zM279 47q72 0 122 44.5t65 114.5h-339q-2 -69 39 -114t113 -45z" />
    <glyph glyph-name="uni0474" unicode="&#x474;" horiz-adv-x="607" 
d="M301 0h-50l-174 700h70l140 -597l217 489q27 61 59 86.5t84 25.5h31l-6 -60h-20q-56 0 -87 -69z" />
    <glyph glyph-name="uni0475" unicode="&#x475;" horiz-adv-x="500" 
d="M258 0h-46l-159 455h69l122 -369l147 269q30 57 56.5 81t69.5 24h26l-6 -61h-14q-24 0 -41 -13.5t-35 -48.5z" />
    <glyph glyph-name="uni048A" unicode="&#x48a;" horiz-adv-x="669" 
d="M410 716q-69 0 -112.5 29t-42.5 79h55q1 -31 30.5 -46.5t74.5 -15.5t78 15.5t42 46.5h54q-11 -50 -60.5 -79t-118.5 -29zM586 61h37l-19 -181h-64l13 120h-40l58 555l-414 -510l-5 -45h-67l74 700h67l-59 -554l415 509l5 45h67z" />
    <glyph glyph-name="uni048B" unicode="&#x48b;" horiz-adv-x="565" 
d="M329 498q-70 0 -111.5 36.5t-40.5 100.5h56q-1 -42 27 -65t74 -23t79.5 23t41.5 65h55q-12 -64 -61.5 -100.5t-119.5 -36.5zM482 61h37l-19 -181h-64l13 120h-37l36 344l-300 -310l-4 -34h-64l48 455h64l-37 -346l301 311l4 35h64z" />
    <glyph glyph-name="uni048C" unicode="&#x48c;" horiz-adv-x="567" 
d="M381 393q81 0 129 -57t40 -140q-9 -81 -70 -138.5t-143 -57.5h-252l57 546h-62l6 53h62l11 101h67l-11 -101h199l-6 -53h-199l-16 -153h188zM343 61q53 0 93.5 39.5t46.5 95.5q5 56 -25.5 96t-82.5 40h-188l-29 -271h185z" />
    <glyph glyph-name="uni048D" unicode="&#x48d;" horiz-adv-x="457" 
d="M307 284q65 0 102 -41t31 -101q-6 -59 -53.5 -100.5t-111.5 -41.5h-195l45 428h-69l6 53h69l23 219h64l-23 -219h125l-6 -53h-125l-15 -144h133zM275 53q40 0 67 25.5t31 63.5t-17.5 63.5t-59.5 25.5h-128l-18 -178h125z" />
    <glyph glyph-name="uni048E" unicode="&#x48e;" horiz-adv-x="577" 
d="M608 462q-7 -65 -39 -117t-81 -83l59 -66l-36 -32l-68 76q-43 -17 -91 -17h-177l-23 -223h-67l74 700h244q100 0 158 -67t47 -171zM355 284q21 0 43 5l-77 87l35 32l89 -100q83 47 96 154q8 77 -34 127t-115 50h-173l-37 -355h173z" />
    <glyph glyph-name="uni048F" unicode="&#x48f;" horiz-adv-x="590" 
d="M574 227q-12 -109 -87 -176l56 -61l-35 -32l-59 65q-59 -35 -127 -35q-60 0 -105.5 30t-62.5 80l-33 -313h-64l71 670h64l-11 -99q28 52 80.5 81.5t114.5 29.5q98 0 153.5 -67t44.5 -173zM321 46q48 0 87 22l-91 102l35 32l95 -106q54 51 63 131q8 80 -34.5 131
t-116.5 51q-77 0 -131.5 -51t-62.5 -131q-8 -79 36 -130t120 -51z" />
    <glyph glyph-name="uni0490" unicode="&#x490;" horiz-adv-x="474" 
d="M483 796h67l-17 -160h-314l-67 -636h-67l74 700h314z" />
    <glyph glyph-name="uni0491" unicode="&#x491;" horiz-adv-x="373" 
d="M341 551h67l-16 -156h-206l-42 -395h-64l48 455h203z" />
    <glyph glyph-name="uni0492" unicode="&#x492;" horiz-adv-x="474" 
d="M533 636h-314l-23 -220h184l-6 -53h-184l-38 -363h-67l38 363h-77l6 53h77l30 284h381z" />
    <glyph glyph-name="uni0493" unicode="&#x493;" horiz-adv-x="390" 
d="M409 395h-206l-14 -124h132l-5 -53h-132l-23 -218h-64l23 218h-62l5 53h62l20 184h270z" />
    <glyph glyph-name="uni0494" unicode="&#x494;" horiz-adv-x="600" 
d="M360 436q105 0 151.5 -59t36.5 -161l-32 -305q-7 -63 -44 -97.5t-97 -34.5q-41 0 -64 11l7 63q21 -10 54 -10q69 0 79 87l28 270q19 175 -143 175q-86 0 -149 -38l-35 -337h-67l74 700h381l-7 -64h-314l-25 -239q72 39 166 39z" />
    <glyph glyph-name="uni0495" unicode="&#x495;" horiz-adv-x="504" 
d="M312 278q84 0 132 -57t36 -164q-12 -112 -74 -173t-167 -61q-25 0 -53 6l6 59q21 -6 45 -6q81 0 125 46t53 127q8 80 -25 122.5t-95 42.5q-68 0 -131 -30l-20 -190h-64l48 455h270l-6 -60h-206l-16 -144q78 27 142 27z" />
    <glyph glyph-name="uni0496" unicode="&#x496;" horiz-adv-x="945" 
d="M869 60h64l-19 -180h-64l13 120h-32l-293 356l-37 -356h-67l37 356l-367 -356h-87l376 359h-16q-51 0 -82 61l-77 153q-20 40 -35.5 54t-40.5 14h-37l7 61h50q39 0 63.5 -21t47.5 -70l77 -154q29 -64 86 -64h39l33 307h67l-33 -307h39q57 0 100 64l109 154q34 49 63 70
t68 21h50l-7 -61h-37q-25 0 -43 -14t-47 -54l-109 -153q-42 -61 -94 -61h-16l251 -301v2z" />
    <glyph glyph-name="uni0497" unicode="&#x497;" horiz-adv-x="767" 
d="M656 59h64l-19 -179h-64l13 120h-30l-198 222l-23 -222h-64l23 222l-244 -222h-82l255 232h-5q-25 0 -40.5 12.5t-33.5 44.5l-38 69q-15 25 -25.5 34.5t-31.5 9.5h-23l6 58h37q31 0 48 -14t37 -48l57 -99q26 -49 62 -49h24l22 205h64l-22 -205h24q38 0 72 49l79 99
q26 34 46 48t51 14h37l-6 -58h-23q-21 0 -33 -9.5t-32 -34.5l-54 -69q-24 -32 -42.5 -44.5t-43.5 -12.5h-5l160 -180z" />
    <glyph glyph-name="uni0498" unicode="&#x498;" horiz-adv-x="555" 
d="M528 191q-9 -87 -70.5 -143t-155.5 -62l-6 -53q16 20 52 20q32 0 51.5 -22.5t15.5 -59.5q-4 -38 -30 -62t-68 -24q-35 0 -55 19.5t-19 50.5h38q-1 -16 10 -26.5t31 -10.5q22 0 36.5 14t16.5 39q3 24 -7.5 38t-33.5 14q-29 0 -47 -24h-33l9 86q-99 5 -153 63.5t-44 154.5
h67q-7 -72 34.5 -114.5t116.5 -42.5t122.5 41t54.5 104q7 65 -30 102t-115 37h-55l6 61h55q72 0 114.5 36.5t48.5 93.5q6 59 -31 96t-105 37q-73 0 -122 -39t-56 -105h-67q9 91 78 148t171 57q96 0 152.5 -51t46.5 -138q-6 -62 -46 -106.5t-101 -55.5q63 -11 96.5 -57.5
t26.5 -115.5z" />
    <glyph glyph-name="uni0499" unicode="&#x499;" horiz-adv-x="472" 
d="M433 120q-6 -56 -57.5 -91.5t-125.5 -39.5l-6 -56q16 20 52 20q32 0 51.5 -22.5t15.5 -59.5q-4 -38 -30 -62t-68 -24q-35 0 -55 19.5t-19 50.5h38q-1 -16 10 -26.5t31 -10.5q22 0 36.5 14t16.5 39q3 24 -7.5 38t-33.5 14q-29 0 -47 -24h-33l10 91q-76 4 -116.5 42
t-33.5 97h65q-5 -39 26 -62.5t90 -23.5q56 0 89 22t37 61q4 36 -20 57.5t-70 21.5h-70l5 50h68q41 0 68.5 22t31.5 59q4 34 -23 56t-76 22q-56 0 -88.5 -22.5t-36.5 -59.5h-66q6 60 60 97.5t136 37.5q77 0 121 -35t38 -89q-4 -44 -33.5 -73t-76.5 -37q48 -5 74 -35t22 -78z
" />
    <glyph glyph-name="uni049A" unicode="&#x49a;" horiz-adv-x="593" 
d="M519 60h62l-19 -180h-64l13 120h-29l-293 356l-37 -356h-67l74 700h67l-33 -307h39q57 0 100 64l109 154q34 49 63 70t68 21h50l-7 -61h-37q-25 0 -43 -14t-47 -54l-109 -153q-42 -61 -94 -61h-16z" />
    <glyph glyph-name="uni049B" unicode="&#x49b;" horiz-adv-x="506" 
d="M395 59h64l-19 -179h-64l13 120h-24l-198 222l-23 -222h-64l48 455h64l-22 -205h24q38 0 72 49l79 99q26 34 46 48t51 14h37l-6 -58h-23q-21 0 -33 -9.5t-32 -34.5l-54 -69q-24 -32 -42.5 -44.5t-43.5 -12.5h-5l155 -174v1z" />
    <glyph glyph-name="uni049C" unicode="&#x49c;" horiz-adv-x="646" 
d="M629 0h-87l-286 338l-16 -147h-30l16 155h-38l-36 -346h-67l74 700h67l-33 -307h38l17 160h30l-17 -160h21q67 0 110 64l109 154q35 49 64 70t67 21h50l-7 -61h-37q-25 0 -43 -14t-47 -54l-109 -153q-42 -61 -104 -61h-16z" />
    <glyph glyph-name="uni049D" unicode="&#x49d;" horiz-adv-x="502" 
d="M469 0h-82l-172 198l-12 -112h-23l13 126h-27l-22 -212h-64l48 455h64l-22 -205h27l14 126h23l-14 -126q32 3 68 49l79 99q26 34 46.5 48t51.5 14h37l-6 -58h-23q-21 0 -33.5 -9.5t-31.5 -34.5l-55 -69q-25 -32 -42.5 -44.5t-42.5 -12.5h-5z" />
    <glyph glyph-name="uni049E" unicode="&#x49e;" horiz-adv-x="654" 
d="M336 359l300 -359h-87l-293 356l-37 -356h-67l57 539h-67l5 53h67l12 108h67l-12 -108h124l-5 -53h-124l-16 -146h39q57 0 100 64l109 154q34 49 63 70t68 21h50l-7 -61h-37q-25 0 -43 -14t-47 -54l-109 -153q-42 -61 -94 -61h-16z" />
    <glyph glyph-name="uni049F" unicode="&#x49f;" horiz-adv-x="479" 
d="M240 232l207 -232h-82l-198 222l-23 -222h-64l36 345h-43l5 41h43l7 69h64l-7 -69h79l-5 -41h-79l-10 -95h24q38 0 72 49l79 99q26 34 46 48t51 14h37l-6 -58h-23q-21 0 -33 -9.5t-32 -34.5l-54 -69q-24 -32 -42.5 -44.5t-43.5 -12.5h-5z" />
    <glyph glyph-name="uni04A0" unicode="&#x4a0;" horiz-adv-x="719" 
d="M402 359l300 -359h-87l-293 356l-37 -356h-67l67 639h-210l7 61h277l-33 -307h39q57 0 100 64l109 154q34 49 63 70t68 21h50l-7 -61h-37q-25 0 -43 -14t-47 -54l-109 -153q-42 -61 -94 -61h-16z" />
    <glyph glyph-name="uni04A1" unicode="&#x4a1;" horiz-adv-x="527" 
d="M287 232l207 -232h-82l-198 222l-23 -222h-64l42 396h-104l6 59h168l-22 -205h24q38 0 72 49l79 99q26 34 46 48t51 14h37l-6 -58h-23q-21 0 -33 -9.5t-32 -34.5l-54 -69q-24 -32 -42.5 -44.5t-43.5 -12.5h-5z" />
    <glyph glyph-name="uni04A2" unicode="&#x4a2;" horiz-adv-x="670" 
d="M587 61h37l-19 -181h-64l13 120h-40l33 317h-362l-33 -317h-67l74 700h67l-34 -322h362l34 322h67z" />
    <glyph glyph-name="uni04A3" unicode="&#x4a3;" horiz-adv-x="566" 
d="M483 61h37l-19 -181h-64l13 120h-37l21 201h-269l-21 -201h-64l48 455h64l-21 -199h269l21 199h64z" />
    <glyph glyph-name="uni04A4" unicode="&#x4a4;" horiz-adv-x="903" 
d="M969 700l-7 -64h-314l-67 -636h-67l33 317h-362l-33 -317h-67l74 700h67l-34 -322h362l34 322h381z" />
    <glyph glyph-name="uni04A5" unicode="&#x4a5;" horiz-adv-x="706" 
d="M731 455l-6 -60h-206l-42 -395h-64l21 201h-269l-21 -201h-64l48 455h64l-21 -199h269l21 199h270z" />
    <glyph glyph-name="uni04A6" unicode="&#x4a6;" horiz-adv-x="1025" 
d="M787 461q105 0 152 -59.5t36 -161.5l-34 -329q-7 -63 -44 -97.5t-97 -34.5q-41 0 -64 11l7 63q21 -10 54 -10q69 0 79 87l31 294q17 176 -143 176q-85 0 -149 -40l-38 -360h-67l67 639h-358l-67 -639h-67l74 700h492l-30 -279q72 40 166 40z" />
    <glyph glyph-name="uni04A7" unicode="&#x4a7;" horiz-adv-x="841" 
d="M649 278q84 0 131.5 -57t35.5 -164q-12 -113 -73.5 -173.5t-166.5 -60.5q-24 0 -53 6l6 59q21 -6 45 -6q81 0 125 46t53 127q8 80 -25 122.5t-95 42.5q-67 0 -131 -29l-20 -191h-64l42 400h-273l-42 -400h-64l48 455h401l-22 -203q80 26 142 26z" />
    <glyph glyph-name="uni04A8" unicode="&#x4a8;" horiz-adv-x="771" 
d="M623 40q57 -1 112 26l-6 -59q-53 -24 -110 -24q-66 0 -114 23q-50 -23 -131 -23q-153 0 -234 100t-63 265q17 165 131 267t293 102q77 0 140 -21l-7 -64q-65 22 -140 22q-141 0 -236.5 -86t-109.5 -220q-14 -136 51 -221.5t189 -85.5q27 0 57 5q-55 40 -78.5 108
t-15.5 152q12 110 73 174t153 64q90 0 136.5 -60.5t35.5 -162.5q-9 -87 -53.5 -162.5t-115.5 -114.5q19 -4 43 -4zM418 303q-9 -81 18.5 -142t80.5 -93q71 31 114.5 95.5t52.5 149.5q8 79 -22 123.5t-91 44.5q-63 0 -104 -48t-49 -130z" />
    <glyph glyph-name="uni04A9" unicode="&#x4a9;" horiz-adv-x="572" 
d="M452 34q50 0 98 20l-5 -48q-50 -19 -93 -19q-49 0 -83 17q-40 -20 -94 -20q-107 0 -165.5 60t-46.5 175q13 116 93 182t202 66q50 0 90 -13l-6 -55q-42 12 -89 12q-93 0 -155 -49.5t-71 -142.5q-9 -87 31.5 -134.5t122.5 -47.5q15 0 22 1q-62 51 -52 147q8 72 52 114
t111 42t101 -40.5t26 -111.5q-5 -47 -32.5 -87t-70.5 -68h14zM311 186q-10 -98 61 -134q100 35 111 135q5 45 -13 73.5t-62 28.5q-40 0 -66 -26t-31 -77z" />
    <glyph glyph-name="uni04AA" unicode="&#x4aa;" horiz-adv-x="774" 
d="M406 46q103 0 173 46.5t102 127.5h73q-33 -102 -121 -166t-216 -69l-5 -52q16 20 52 20q32 0 51.5 -22.5t15.5 -59.5q-4 -38 -30 -62t-68 -24q-35 0 -55 19.5t-19 50.5h38q-1 -16 10 -26.5t31 -10.5q22 0 36.5 14t16.5 39q3 24 -7.5 38t-33.5 14q-29 0 -47 -24h-33l9 86
q-155 7 -236.5 110t-65.5 255q16 157 125 261t274 104q135 0 214 -65t91 -170h-73q-15 80 -75 127t-163 47q-134 0 -221.5 -86t-101.5 -218t55.5 -218t203.5 -86z" />
    <glyph glyph-name="uni04AB" unicode="&#x4ab;" horiz-adv-x="516" 
d="M271 46q60 0 101 27.5t55 77.5h65q-16 -70 -72 -114.5t-138 -48.5l-6 -55q16 20 52 20q32 0 51.5 -22.5t15.5 -59.5q-4 -38 -30 -62t-68 -24q-35 0 -55 19.5t-19 50.5h38q-1 -16 10 -26.5t31 -10.5q22 0 36.5 14t16.5 39q3 24 -7.5 38t-33.5 14q-29 0 -47 -24h-33l10 90
q-93 7 -142 72t-38 166q11 107 79.5 173t171.5 66q89 0 140 -44.5t53 -120.5h-65q-4 52 -39 79.5t-95 27.5q-75 0 -123.5 -49t-57.5 -132t29.5 -132t113.5 -49z" />
    <glyph glyph-name="uni04AC" unicode="&#x4ac;" horiz-adv-x="510" 
d="M570 636h-215l-61 -575h37l-19 -181h-64l13 120h-40l67 636h-213l7 64h495z" />
    <glyph glyph-name="uni04AD" unicode="&#x4ad;" horiz-adv-x="426" 
d="M436 395h-149l-36 -334h37l-19 -181h-64l13 120h-37l42 395h-148l6 60h361z" />
    <glyph glyph-name="uni04AE" unicode="&#x4ae;" horiz-adv-x="573" 
d="M252 0l30 281l-210 419h78l172 -354l249 354h78l-298 -419l-30 -281h-69z" />
    <glyph glyph-name="uni04AF" unicode="&#x4af;" horiz-adv-x="473" 
d="M516 455l-247 -444l-24 -227h-64l24 229l-152 442h69l123 -369l202 369h69z" />
    <glyph glyph-name="uni04B0" unicode="&#x4b0;" horiz-adv-x="573" 
d="M351 281l-7 -58h121l-5 -53h-121l-18 -170h-69l18 170h-121l5 53h121l7 58l-210 419h78l172 -354l249 354h78z" />
    <glyph glyph-name="uni04B1" unicode="&#x4b1;" horiz-adv-x="473" 
d="M269 11l-3 -34h137l-6 -53h-137l-15 -140h-64l15 140h-136l6 53h136l3 36l-152 442h69l123 -369l202 369h69z" />
    <glyph glyph-name="uni04B2" unicode="&#x4b2;" horiz-adv-x="627" 
d="M532 61h49l-19 -181h-64l13 120h-20l-164 294l-226 -294h-76l270 350l-196 350h76l164 -295l226 295h76l-270 -350z" />
    <glyph glyph-name="uni04B3" unicode="&#x4b3;" horiz-adv-x="525" 
d="M423 61h56l-19 -181h-64l13 120h-24l-115 182l-152 -182h-78l198 228l-149 227h79l112 -179l152 179h79l-198 -227z" />
    <glyph glyph-name="uni04B4" unicode="&#x4b4;" horiz-adv-x="752" 
d="M669 61h36l-19 -181h-64l13 120h-439l67 636h-188l7 64h445l-7 -64h-190l-61 -575h333l68 639h67z" />
    <glyph glyph-name="uni04B5" unicode="&#x4b5;" horiz-adv-x="662" 
d="M579 61h36l-19 -181h-64l13 120h-374l42 395h-138l6 60h341l-6 -60h-139l-36 -340h273l42 400h65z" />
    <glyph glyph-name="uni04B6" unicode="&#x4b6;" horiz-adv-x="581" 
d="M496 61h38l-19 -181h-64l13 120h-41l29 277q-67 -43 -166 -43q-105 0 -152 59.5t-36 161.5l26 245h67l-24 -229q-19 -176 142 -176q91 0 150 43l38 362h67z" />
    <glyph glyph-name="uni04B7" unicode="&#x4b7;" horiz-adv-x="502" 
d="M409 61h46l-19 -181h-64l13 120h-46l19 180q-57 -32 -136 -32q-174 0 -158 158l16 149h65l-15 -141q-12 -111 110 -111q78 0 124 33l23 219h64z" />
    <glyph glyph-name="uni04B8" unicode="&#x4b8;" horiz-adv-x="575" 
d="M497 700h67l-74 -700h-67l29 277q-55 -35 -127 -42l-12 -112h-45l12 111q-102 2 -147.5 61.5t-34.5 159.5l26 245h67l-24 -229q-17 -164 119 -175l13 126h45l-13 -127q72 3 128 43z" />
    <glyph glyph-name="uni04B9" unicode="&#x4b9;" horiz-adv-x="483" 
d="M387 455h64l-48 -455h-64l19 180q-36 -20 -92 -29l-11 -102h-33l11 99h-11q-174 0 -158 158l16 149h65l-15 -141q-12 -110 108 -111l12 115h33l-11 -113q57 6 92 31z" />
    <glyph glyph-name="uni04BA" unicode="&#x4ba;" horiz-adv-x="575" 
d="M226 700l-30 -277q67 43 167 43q105 0 152 -59.5t36 -161.5l-26 -245h-67l24 229q19 176 -142 176q-91 0 -150 -43l-38 -362h-67l74 700h67z" />
    <glyph glyph-name="uni04BB" unicode="&#x4bb;" horiz-adv-x="565" 
d="M366 467q86 0 124.5 -49.5t28.5 -143.5l-29 -274h-64l26 249q18 162 -113 162q-73 0 -116 -48.5t-52 -130.5l-24 -232h-64l74 700h64l-37 -349q22 53 69 84.5t113 31.5z" />
    <glyph glyph-name="uni04BC" unicode="&#x4bc;" horiz-adv-x="912" 
d="M906 320h-626q-7 -118 56 -195.5t198 -77.5q188 0 269 163h78q-37 -99 -130 -162t-224 -63q-160 0 -242.5 95t-75.5 240h-27q-51 0 -78.5 32t-22.5 83l3 34h61l-3 -33q-3 -28 11.5 -45t43.5 -17h17q23 146 129 242.5t264 96.5q148 0 233.5 -102t69.5 -254zM285 374h556
q11 119 -56 198.5t-187 79.5q-125 0 -212 -78t-101 -200z" />
    <glyph glyph-name="uni04BD" unicode="&#x4bd;" horiz-adv-x="607" 
d="M587 213h-368q-8 -77 31 -122.5t112 -45.5q51 0 89.5 22t57.5 61h65q-20 -62 -80 -101t-138 -39q-99 0 -153.5 61t-48.5 164h-14q-51 0 -78.5 30.5t-22.5 79.5l4 34h56l-4 -33q-3 -29 11.5 -45t44.5 -16h11q19 94 84 149t156 55q95 0 148.5 -59t43.5 -152q-2 -17 -7 -43z
M397 415q-67 0 -114 -41.5t-58 -109.5h307q6 69 -29.5 110t-105.5 41z" />
    <glyph glyph-name="uni04BE" unicode="&#x4be;" horiz-adv-x="912" 
d="M482 757q-24 0 -39 16.5t-13 39.5q3 25 21.5 41.5t42.5 16.5t39 -16.5t12 -41.5q-2 -23 -20.5 -39.5t-42.5 -16.5zM716 757q-24 0 -39 16.5t-13 39.5q3 25 21.5 41.5t42.5 16.5t39 -16.5t12 -41.5q-2 -23 -20.5 -39.5t-42.5 -16.5zM906 320h-626q-7 -118 56 -195.5
t198 -77.5q188 0 269 163h78q-37 -99 -130 -162t-224 -63q-160 0 -242.5 95t-75.5 240h-27q-51 0 -78.5 32t-22.5 83l3 34h61l-3 -33q-3 -28 11.5 -45t43.5 -17h17q23 146 129 242.5t264 96.5q148 0 233.5 -102t69.5 -254zM285 374h556q11 119 -56 198.5t-187 79.5
q-125 0 -212 -78t-101 -200z" />
    <glyph glyph-name="uni04BF" unicode="&#x4bf;" horiz-adv-x="607" 
d="M587 213h-368q-8 -77 31 -122.5t112 -45.5q51 0 89.5 22t57.5 61h65q-14 -45 -50.5 -78.5t-87.5 -49.5h1q-49 -14 -75.5 -41t-29.5 -58q-3 -28 12.5 -45.5t45.5 -17.5q28 0 63 14l-6 -49q-41 -15 -79 -15q-51 0 -77 26.5t-21 67.5q6 62 81 106q-97 1 -150 62t-47 163h-14
q-51 0 -78.5 30.5t-22.5 79.5l4 34h56l-4 -33q-3 -29 11.5 -45t44.5 -16h11q19 94 84 149t156 55q95 0 148.5 -59t43.5 -152q-2 -17 -7 -43zM397 415q-67 0 -114 -41.5t-58 -109.5h307q6 69 -29.5 110t-105.5 41z" />
    <glyph glyph-name="uni04C0" unicode="&#x4c0;" horiz-adv-x="237" 
d="M85 0l74 700h67l-74 -700h-67z" />
    <glyph glyph-name="uni04C1" unicode="&#x4c1;" horiz-adv-x="935" 
d="M544 736q-69 0 -112.5 29t-42.5 79h55q1 -31 30.5 -46.5t74.5 -15.5t78 15.5t42 46.5h54q-11 -50 -60.5 -79t-118.5 -29zM618 359l300 -359h-87l-293 356l-37 -356h-67l37 356l-367 -356h-87l376 359h-16q-51 0 -82 61l-77 153q-20 40 -35.5 54t-40.5 14h-37l7 61h50
q39 0 63.5 -21t47.5 -70l77 -154q29 -64 86 -64h39l33 307h67l-33 -307h39q57 0 100 64l109 154q34 49 63 70t68 21h50l-7 -61h-37q-25 0 -43 -14t-47 -54l-109 -153q-42 -61 -94 -61h-16z" />
    <glyph glyph-name="uni04C2" unicode="&#x4c2;" horiz-adv-x="734" 
d="M421 508q-70 0 -111.5 36.5t-40.5 100.5h56q-1 -42 27.5 -65t74.5 -23q45 0 78.5 23t41.5 65h55q-12 -64 -61.5 -100.5t-119.5 -36.5zM495 232l207 -232h-82l-198 222l-23 -222h-64l23 222l-244 -222h-82l255 232h-5q-25 0 -40.5 12.5t-33.5 44.5l-38 69
q-15 25 -25.5 34.5t-31.5 9.5h-23l6 58h37q31 0 48 -14t37 -48l57 -99q26 -49 62 -49h24l22 205h64l-22 -205h24q38 0 72 49l79 99q26 34 46 48t51 14h37l-6 -58h-23q-21 0 -33 -9.5t-32 -34.5l-54 -69q-24 -32 -42.5 -44.5t-43.5 -12.5h-5z" />
    <glyph glyph-name="uni04C3" unicode="&#x4c3;" horiz-adv-x="604" 
d="M397 404q90 0 143.5 -54.5t42.5 -155.5q-11 -100 -73.5 -154t-170.5 -54q-37 0 -73 6l6 58q30 -6 64 -6q85 0 130 39.5t52 109.5q8 74 -30.5 113.5t-107.5 39.5h-143l1 2h-32l-13 44h32q13 0 21 2l2 10h29q32 15 58 53l109 154q35 49 64 70t67 21h50l-7 -61h-37
q-25 0 -43 -14t-47 -54l-109 -153q-3 -6 -13 -16h28zM159 700h67l-74 -700h-67z" />
    <glyph glyph-name="uni04C4" unicode="&#x4c4;" horiz-adv-x="482" 
d="M295 250q80 -3 126 -55t36 -145q-11 -104 -73 -161t-167 -57q-28 0 -53 7l6 58q20 -5 50 -5q78 0 121 42t51 115q8 74 -25.5 112.5t-101.5 38.5h-100l-21 -200h-64l48 455h64l-22 -205h24q34 0 72 49l79 99q26 34 46 48t51 14h37l-6 -58h-23q-21 0 -33 -9.5t-32 -34.5
l-54 -69q-19 -25 -36 -39z" />
    <glyph glyph-name="uni04C5" unicode="&#x4c5;" horiz-adv-x="676" 
d="M596 61h40l-88 -181h-65l58 120h-18l67 640h-300l-41 -390q-14 -137 -63 -195.5t-126 -58.5h-37l6 64h26q54 0 85 42.5t42 149.5l48 448h434z" />
    <glyph glyph-name="uni04C6" unicode="&#x4c6;" horiz-adv-x="544" 
d="M470 61h40l-88 -181h-65l58 120h-15l42 395h-212l-22 -204q-20 -193 -146 -193h-32l6 61h19q76 0 89 129l28 267h340z" />
    <glyph glyph-name="uni04C7" unicode="&#x4c7;" horiz-adv-x="666" 
d="M588 700h67l-83 -789q-7 -63 -44 -97.5t-97 -34.5q-41 0 -64 11l7 63q21 -10 54 -10q69 0 79 87l40 387h-362l-33 -317h-67l74 700h67l-34 -322h362z" />
    <glyph glyph-name="uni04C8" unicode="&#x4c8;" horiz-adv-x="557" 
d="M461 455h64l-58 -554q-6 -58 -39 -90t-87 -32q-40 0 -62 11l6 60q23 -10 51 -10q60 0 68 77l30 284h-269l-21 -201h-64l48 455h64l-21 -199h269z" />
    <glyph glyph-name="uni04C9" unicode="&#x4c9;" horiz-adv-x="666" 
d="M587 61h40l-88 -181h-65l58 120h-18l33 317h-362l-33 -317h-67l74 700h67l-34 -322h362l34 322h67z" />
    <glyph glyph-name="uni04CA" unicode="&#x4ca;" horiz-adv-x="557" 
d="M483 61h40l-88 -181h-65l58 120h-15l21 201h-269l-21 -201h-64l48 455h64l-21 -199h269l21 199h64z" />
    <glyph glyph-name="uni04CB" unicode="&#x4cb;" horiz-adv-x="575" 
d="M564 700l-74 -700h-38l-13 -120h-67l19 181h38l23 216q-67 -43 -166 -43q-105 0 -152 59.5t-36 161.5l26 245h67l-24 -229q-19 -176 142 -176q91 0 150 43l38 362h67z" />
    <glyph glyph-name="uni04CC" unicode="&#x4cc;" horiz-adv-x="483" 
d="M451 455l-48 -455h-35l-13 -120h-67l19 181h38l13 119q-57 -32 -136 -32q-174 0 -158 158l16 149h65l-15 -141q-12 -111 110 -111q78 0 124 33l23 219h64z" />
    <glyph glyph-name="uni04CD" unicode="&#x4cd;" horiz-adv-x="814" 
d="M735 61h40l-88 -181h-65l58 120h-16l59 558l-289 -558h-54l-171 561l-59 -561h-65l74 700h65l193 -606l321 606h65z" />
    <glyph glyph-name="uni04CE" unicode="&#x4ce;" horiz-adv-x="692" 
d="M618 61h40l-88 -181h-65l58 120h-12l41 393l-224 -393h-43l-142 393l-41 -393h-62l48 455h98l129 -367l208 367h98z" />
    <glyph glyph-name="uni04CF" unicode="&#x4cf;" horiz-adv-x="224" 
d="M80 0l48 455h64l-48 -455h-64z" />
    <glyph glyph-name="uni04D0" unicode="&#x4d0;" horiz-adv-x="577" 
d="M366 736q-69 0 -112.5 29t-42.5 79h55q1 -31 30.5 -46.5t74.5 -15.5t78 15.5t42 46.5h54q-11 -50 -60.5 -79t-118.5 -29zM484 0l-28 126h-310l-53 -126h-73l312 700h61l164 -700h-73zM173 187h271l-92 422z" />
    <glyph glyph-name="uni04D1" unicode="&#x4d1;" horiz-adv-x="590" 
d="M331 508q-70 0 -111.5 36.5t-40.5 100.5h56q-1 -42 27.5 -65t74.5 -23q45 0 78.5 23t41.5 65h55q-12 -64 -61.5 -100.5t-119.5 -36.5zM267 -12q-105 0 -159.5 67.5t-43.5 171.5t80.5 172t173.5 68q62 0 105.5 -30t60.5 -81l11 99h63l-48 -455h-63l10 98
q-27 -49 -78.5 -79.5t-111.5 -30.5zM280 46q80 0 133 52.5t61 128.5q8 77 -34 129.5t-122 52.5q-77 0 -129.5 -51.5t-60.5 -130.5t33.5 -130t118.5 -51z" />
    <glyph glyph-name="uni04D2" unicode="&#x4d2;" horiz-adv-x="577" 
d="M251 757q-24 0 -39 16.5t-13 39.5q3 25 21.5 41.5t42.5 16.5t39 -16.5t12 -41.5q-2 -23 -20.5 -39.5t-42.5 -16.5zM485 757q-24 0 -39 16.5t-13 39.5q3 25 21.5 41.5t42.5 16.5t39 -16.5t12 -41.5q-2 -23 -20.5 -39.5t-42.5 -16.5zM484 0l-28 126h-310l-53 -126h-73
l312 700h61l164 -700h-73zM173 187h271l-92 422z" />
    <glyph glyph-name="uni04D3" unicode="&#x4d3;" horiz-adv-x="590" 
d="M236 547q-23 0 -37.5 16.5t-12.5 39.5q3 25 21 41.5t41 16.5q25 0 40 -16.5t12 -41.5q-2 -23 -20.5 -39.5t-43.5 -16.5zM433 547q-23 0 -37.5 16.5t-12.5 39.5q3 25 21 41.5t41 16.5q25 0 40 -16.5t12 -41.5q-2 -23 -20.5 -39.5t-43.5 -16.5zM267 -12q-105 0 -159.5 67.5
t-43.5 171.5t80.5 172t173.5 68q62 0 105.5 -30t60.5 -81l11 99h63l-48 -455h-63l10 98q-27 -49 -78.5 -79.5t-111.5 -30.5zM280 46q80 0 133 52.5t61 128.5q8 77 -34 129.5t-122 52.5q-77 0 -129.5 -51.5t-60.5 -130.5t33.5 -130t118.5 -51z" />
    <glyph glyph-name="uni04D4" unicode="&#x4d4;" horiz-adv-x="818" 
d="M815 639h-284l-27 -261h284l-7 -61h-284l-27 -256h284l-6 -61h-351l13 128h-246l-76 -128h-73l427 700h380zM200 187h217l46 443z" />
    <glyph glyph-name="uni04D5" unicode="&#x4d5;" horiz-adv-x="879" 
d="M866 255q-1 -10 -7 -43h-370q-7 -77 33 -122.5t114 -45.5q50 0 88 23t58 64h65q-20 -65 -80 -104.5t-137 -39.5q-66 0 -114.5 30.5t-70.5 85.5q-68 -115 -223 -115q-79 0 -125 35.5t-40 94.5q8 73 65 109q57 35 189 35h125l4 38q5 52 -27 83t-102 31q-64 0 -104.5 -28.5
t-48.5 -80.5h-64q11 74 72 118t151 44q139 0 173 -90q70 89 186 89q93 0 146.5 -59.5t43.5 -151.5zM496 262h307q7 69 -29.5 111t-102.5 42q-70 0 -118 -41.5t-57 -111.5zM428 188l1 12v12h-152q-143 0 -153 -89q-4 -41 27.5 -62t92.5 -21q71 0 124 39.5t60 108.5z" />
    <glyph glyph-name="uni04D6" unicode="&#x4d6;" horiz-adv-x="547" 
d="M365 736q-69 0 -112.5 29t-42.5 79h55q1 -31 30.5 -46.5t74.5 -15.5t78 15.5t42 46.5h54q-11 -50 -60.5 -79t-118.5 -29zM85 0l74 700h391l-7 -61h-324l-27 -261h324l-7 -61h-324l-27 -256h324l-6 -61h-391z" />
    <glyph glyph-name="uni04D7" unicode="&#x4d7;" horiz-adv-x="515" 
d="M315 507q-70 0 -111.5 36.5t-40.5 100.5h56q-1 -42 27 -65t74 -23t79.5 23t41.5 65h55q-12 -64 -61.5 -100.5t-119.5 -36.5zM502 256q-2 -17 -7 -43h-368q-8 -77 31 -122.5t112 -45.5q51 0 89.5 22t57.5 61h65q-20 -62 -80 -101t-138 -39q-103 0 -157 65.5t-43 174.5
q11 108 79 173.5t167 65.5q95 0 148.5 -59t43.5 -152zM133 264h307q6 69 -29.5 110t-105.5 41q-67 0 -114 -41.5t-58 -109.5z" />
    <glyph glyph-name="uni04D8" unicode="&#x4d8;" horiz-adv-x="778" 
d="M379 -13q-148 0 -233.5 102t-69.5 254l4 37h626q7 119 -56 196t-198 77q-188 0 -269 -163h-78q37 99 129.5 162t223.5 63q113 0 190 -51t107 -132t20 -181q-16 -155 -123.5 -259.5t-272.5 -104.5zM388 48q125 0 211.5 78t100.5 200h-556q-10 -119 57 -198.5t187 -79.5z
" />
    <glyph glyph-name="uni04D9" unicode="&#x4d9;" horiz-adv-x="515" 
d="M299 467q103 0 157 -65.5t43 -174.5q-11 -108 -79 -173.5t-167 -65.5q-95 0 -148.5 59t-43.5 152q1 8 3 21.5t3 21.5h368q8 77 -30 122.5t-112 45.5q-51 0 -89.5 -22t-58.5 -61h-65q20 62 80.5 101t138.5 39zM258 40q67 0 114 41.5t58 109.5h-307q-6 -69 29.5 -110
t105.5 -41z" />
    <glyph glyph-name="uni04DA" unicode="&#x4da;" horiz-adv-x="778" 
d="M341 757q-24 0 -39 16.5t-13 39.5q3 25 21.5 41.5t42.5 16.5t39 -16.5t12 -41.5q-2 -23 -20.5 -39.5t-42.5 -16.5zM575 757q-24 0 -39 16.5t-13 39.5q3 25 21.5 41.5t42.5 16.5t39 -16.5t12 -41.5q-2 -23 -20.5 -39.5t-42.5 -16.5zM379 -13q-148 0 -233.5 102t-69.5 254
l4 37h626q7 119 -56 196t-198 77q-188 0 -269 -163h-78q37 99 129.5 162t223.5 63q113 0 190 -51t107 -132t20 -181q-16 -155 -123.5 -259.5t-272.5 -104.5zM388 48q125 0 211.5 78t100.5 200h-556q-10 -119 57 -198.5t187 -79.5z" />
    <glyph glyph-name="uni04DB" unicode="&#x4db;" horiz-adv-x="515" 
d="M213 547q-23 0 -37.5 16.5t-12.5 39.5q3 25 21 41.5t41 16.5q25 0 40 -16.5t12 -41.5q-2 -23 -20.5 -39.5t-43.5 -16.5zM410 547q-23 0 -37.5 16.5t-12.5 39.5q3 25 21 41.5t41 16.5q25 0 40 -16.5t12 -41.5q-2 -23 -20.5 -39.5t-43.5 -16.5zM299 467q103 0 157 -65.5
t43 -174.5q-11 -108 -79 -173.5t-167 -65.5q-95 0 -148.5 59t-43.5 152q1 8 3 21.5t3 21.5h368q8 77 -30 122.5t-112 45.5q-51 0 -89.5 -22t-58.5 -61h-65q20 62 80.5 101t138.5 39zM258 40q67 0 114 41.5t58 109.5h-307q-6 -69 29.5 -110t105.5 -41z" />
    <glyph glyph-name="uni04DC" unicode="&#x4dc;" horiz-adv-x="935" 
d="M430 757q-24 0 -39 16.5t-13 39.5q3 25 21.5 41.5t42.5 16.5t39 -16.5t12 -41.5q-2 -23 -20.5 -39.5t-42.5 -16.5zM664 757q-24 0 -39 16.5t-13 39.5q3 25 21.5 41.5t42.5 16.5t39 -16.5t12 -41.5q-2 -23 -20.5 -39.5t-42.5 -16.5zM618 359l300 -359h-87l-293 356
l-37 -356h-67l37 356l-367 -356h-87l376 359h-16q-51 0 -82 61l-77 153q-20 40 -35.5 54t-40.5 14h-37l7 61h50q39 0 63.5 -21t47.5 -70l77 -154q29 -64 86 -64h39l33 307h67l-33 -307h39q57 0 100 64l109 154q34 49 63 70t68 21h50l-7 -61h-37q-25 0 -43 -14t-47 -54
l-109 -153q-42 -61 -94 -61h-16z" />
    <glyph glyph-name="uni04DD" unicode="&#x4dd;" horiz-adv-x="734" 
d="M325 547q-23 0 -37.5 16.5t-12.5 39.5q3 25 21 41.5t41 16.5q25 0 40 -16.5t12 -41.5q-2 -23 -20.5 -39.5t-43.5 -16.5zM522 547q-23 0 -37.5 16.5t-12.5 39.5q3 25 21 41.5t41 16.5q25 0 40 -16.5t12 -41.5q-2 -23 -20.5 -39.5t-43.5 -16.5zM495 232l207 -232h-82
l-198 222l-23 -222h-64l23 222l-244 -222h-82l255 232h-5q-25 0 -40.5 12.5t-33.5 44.5l-38 69q-15 25 -25.5 34.5t-31.5 9.5h-23l6 58h37q31 0 48 -14t37 -48l57 -99q26 -49 62 -49h24l22 205h64l-22 -205h24q38 0 72 49l79 99q26 34 46 48t51 14h37l-6 -58h-23
q-21 0 -33 -9.5t-32 -34.5l-54 -69q-24 -32 -42.5 -44.5t-43.5 -12.5h-5z" />
    <glyph glyph-name="uni04DE" unicode="&#x4de;" horiz-adv-x="555" 
d="M237 757q-24 0 -39 16.5t-13 39.5q3 25 21.5 41.5t42.5 16.5t39 -16.5t12 -41.5q-2 -23 -20.5 -39.5t-42.5 -16.5zM471 757q-24 0 -39 16.5t-13 39.5q3 25 21.5 41.5t42.5 16.5t39 -16.5t12 -41.5q-2 -23 -20.5 -39.5t-42.5 -16.5zM133 203q-7 -72 34.5 -114.5
t116.5 -42.5t122.5 41t54.5 104q7 65 -30 102t-115 37h-55l6 61h55q72 0 114.5 36.5t48.5 93.5q6 59 -31 96t-105 37q-73 0 -122 -39t-56 -105h-67q9 91 78 148t171 57q96 0 152.5 -51t46.5 -138q-6 -62 -46 -106.5t-101 -55.5q63 -11 96.5 -57.5t26.5 -115.5
q-10 -93 -78 -149.5t-172 -56.5q-105 0 -163.5 59t-48.5 159h67z" />
    <glyph glyph-name="uni04DF" unicode="&#x4df;" horiz-adv-x="472" 
d="M194 547q-23 0 -37.5 16.5t-12.5 39.5q3 25 21 41.5t41 16.5q25 0 40 -16.5t12 -41.5q-2 -23 -20.5 -39.5t-43.5 -16.5zM391 547q-23 0 -37.5 16.5t-12.5 39.5q3 25 21 41.5t41 16.5q25 0 40 -16.5t12 -41.5q-2 -23 -20.5 -39.5t-43.5 -16.5zM127 129q-5 -39 26 -62.5
t90 -23.5q56 0 89 22t37 61q4 36 -20 57.5t-70 21.5h-70l5 50h68q41 0 68.5 22t31.5 59q4 34 -23 56t-76 22q-56 0 -88.5 -22.5t-36.5 -59.5h-66q6 60 60 97.5t136 37.5q77 0 121 -35t38 -89q-4 -44 -33.5 -73t-76.5 -37q48 -5 74 -35t22 -78q-7 -60 -63 -95.5t-136 -35.5
q-86 0 -132.5 38.5t-39.5 101.5h65z" />
    <glyph glyph-name="uni04E0" unicode="&#x4e0;" horiz-adv-x="554" 
d="M279 -13q-106 0 -164.5 59t-47.5 159h67q-8 -71 35 -113.5t117 -42.5q73 0 120.5 43t54.5 109q8 72 -29 113t-117 41h-76l232 284h-318l7 61h430l-245 -295q92 -2 142.5 -56.5t40.5 -144.5q-10 -96 -79.5 -156.5t-169.5 -60.5z" />
    <glyph glyph-name="uni04E1" unicode="&#x4e1;" horiz-adv-x="462" 
d="M175 -227q-94 0 -145 50.5t-41 138.5h63q-5 -62 31 -98t100 -36q71 0 115 45t52 122q9 82 -33.5 125t-139.5 43h-45l224 237h-292l6 55h402l-232 -247q98 -3 141.5 -59t32.5 -154q-10 -104 -74 -163t-165 -59z" />
    <glyph glyph-name="uni04E2" unicode="&#x4e2;" horiz-adv-x="665" 
d="M237 752l6 52h354l-6 -52h-354zM571 555l-414 -510l-5 -45h-67l74 700h67l-59 -554l415 509l5 45h67l-74 -700h-67z" />
    <glyph glyph-name="uni04E3" unicode="&#x4e3;" horiz-adv-x="556" 
d="M175 544l6 53h317l-6 -53h-317zM448 344l-300 -310l-4 -34h-64l48 455h64l-37 -346l301 311l4 35h64l-48 -455h-64z" />
    <glyph glyph-name="uni04E4" unicode="&#x4e4;" horiz-adv-x="665" 
d="M295 737q-24 0 -38.5 16.5t-12.5 39.5q3 25 21 41.5t42 16.5t39.5 -17t12.5 -41q-2 -23 -21 -39.5t-43 -16.5zM529 737q-24 0 -38.5 16.5t-12.5 39.5q3 25 21 41.5t42 16.5t39.5 -17t12.5 -41q-2 -23 -21 -39.5t-43 -16.5zM571 555l-414 -510l-5 -45h-67l74 700h67
l-59 -554l415 509l5 45h67l-74 -700h-67z" />
    <glyph glyph-name="uni04E5" unicode="&#x4e5;" horiz-adv-x="556" 
d="M234 537q-23 0 -37.5 16.5t-12.5 39.5q3 25 21 41.5t41 16.5q25 0 40 -16.5t12 -41.5q-2 -23 -20.5 -39.5t-43.5 -16.5zM431 537q-23 0 -37.5 16.5t-12.5 39.5q3 25 21 41.5t41 16.5q25 0 40 -16.5t12 -41.5q-2 -23 -20.5 -39.5t-43.5 -16.5zM448 344l-300 -310l-4 -34
h-64l48 455h64l-37 -346l301 311l4 35h64l-48 -455h-64z" />
    <glyph glyph-name="uni04E6" unicode="&#x4e6;" horiz-adv-x="800" 
d="M363 757q-24 0 -39 16.5t-13 39.5q3 25 21.5 41.5t42.5 16.5t39 -16.5t12 -41.5q-2 -23 -20.5 -39.5t-42.5 -16.5zM597 757q-24 0 -39 16.5t-13 39.5q3 25 21.5 41.5t42.5 16.5t39 -16.5t12 -41.5q-2 -23 -20.5 -39.5t-42.5 -16.5zM398 -15q-163 0 -250 106.5t-71 258.5
t125.5 258.5t272.5 106.5q109 0 187 -51t111.5 -133.5t23.5 -180.5q-16 -152 -126 -258.5t-273 -106.5zM405 46q132 0 220.5 88.5t101.5 215.5t-56.5 215.5t-201.5 88.5t-220.5 -88.5t-101.5 -215.5t56.5 -215.5t201.5 -88.5z" />
    <glyph glyph-name="uni04E7" unicode="&#x4e7;" horiz-adv-x="549" 
d="M232 546q-23 0 -37.5 16.5t-12.5 39.5q3 25 21 41.5t41 16.5q25 0 40 -16.5t12 -41.5q-2 -23 -20.5 -39.5t-43.5 -16.5zM429 546q-23 0 -37.5 16.5t-12.5 39.5q3 25 21 41.5t41 16.5q25 0 40 -16.5t12 -41.5q-2 -23 -20.5 -39.5t-43.5 -16.5zM273 -12q-106 0 -163 69
t-46 171t82.5 170.5t176.5 68.5q106 0 163.5 -68.5t46.5 -170.5q-11 -103 -82.5 -171.5t-177.5 -68.5zM279 47q78 0 129.5 51.5t60.5 129.5q8 78 -33 129.5t-119 51.5t-129.5 -51.5t-59.5 -130.5q-8 -77 32.5 -128.5t118.5 -51.5z" />
    <glyph glyph-name="uni04E8" unicode="&#x4e8;" horiz-adv-x="800" 
d="M475 715q109 0 187 -51t111.5 -133.5t23.5 -180.5q-16 -152 -126 -258.5t-273 -106.5t-250 106.5t-71 258.5t125.5 258.5t272.5 106.5zM469 654q-126 0 -212.5 -81t-106.5 -200h578q5 119 -64 200t-195 81zM405 46q127 0 212.5 81t105.5 201h-578q-5 -120 64 -201
t196 -81z" />
    <glyph glyph-name="uni04E9" unicode="&#x4e9;" horiz-adv-x="549" 
d="M323 467q106 0 163.5 -68.5t46.5 -170.5q-11 -103 -82.5 -171.5t-177.5 -68.5t-163 69t-46 171t82.5 170.5t176.5 68.5zM317 409q-72 0 -121.5 -44.5t-64.5 -114.5h339q1 70 -40 114.5t-113 44.5zM279 47q72 0 122 44t65 114h-339q-1 -69 39.5 -113.5t112.5 -44.5z" />
    <glyph glyph-name="uni04EA" unicode="&#x4ea;" horiz-adv-x="800" 
d="M363 757q-24 0 -39 16.5t-13 39.5q3 25 21.5 41.5t42.5 16.5t39 -16.5t12 -41.5q-2 -23 -20.5 -39.5t-42.5 -16.5zM597 757q-24 0 -39 16.5t-13 39.5q3 25 21.5 41.5t42.5 16.5t39 -16.5t12 -41.5q-2 -23 -20.5 -39.5t-42.5 -16.5zM475 715q109 0 187 -51t111.5 -133.5
t23.5 -180.5q-16 -152 -126 -258.5t-273 -106.5t-250 106.5t-71 258.5t125.5 258.5t272.5 106.5zM469 654q-126 0 -212.5 -81t-106.5 -200h578q5 119 -64 200t-195 81zM405 46q127 0 212.5 81t105.5 201h-578q-5 -120 64 -201t196 -81z" />
    <glyph glyph-name="uni04EB" unicode="&#x4eb;" horiz-adv-x="549" 
d="M232 547q-23 0 -37.5 16.5t-12.5 39.5q3 25 21 41.5t41 16.5q25 0 40 -16.5t12 -41.5q-2 -23 -20.5 -39.5t-43.5 -16.5zM429 547q-23 0 -37.5 16.5t-12.5 39.5q3 25 21 41.5t41 16.5q25 0 40 -16.5t12 -41.5q-2 -23 -20.5 -39.5t-43.5 -16.5zM323 467q106 0 163.5 -68.5
t46.5 -170.5q-11 -103 -82.5 -171.5t-177.5 -68.5t-163 69t-46 171t82.5 170.5t176.5 68.5zM317 409q-72 0 -121.5 -44.5t-64.5 -114.5h339q1 70 -40 114.5t-113 44.5zM279 47q72 0 122 44t65 114h-339q-1 -69 39.5 -113.5t112.5 -44.5z" />
    <glyph glyph-name="uni04EC" unicode="&#x4ec;" horiz-adv-x="753" 
d="M324 757q-24 0 -39 16.5t-13 39.5q3 25 21.5 41.5t42.5 16.5t39 -16.5t12 -41.5q-2 -23 -20.5 -39.5t-42.5 -16.5zM558 757q-24 0 -39 16.5t-13 39.5q3 25 21.5 41.5t42.5 16.5t39 -16.5t12 -41.5q-2 -23 -20.5 -39.5t-42.5 -16.5zM435 715q155 0 243 -102t72 -263
q-17 -161 -127 -263t-265 -102q-122 0 -201 62t-93 166h73q14 -77 74.5 -122t153.5 -45q118 0 203 74.5t108 198.5h-377l6 62h377q3 124 -66 198.5t-187 74.5q-93 0 -163 -45t-99 -121h-74q37 105 129 166t213 61z" />
    <glyph glyph-name="uni04ED" unicode="&#x4ed;" horiz-adv-x="525" 
d="M214 547q-23 0 -37.5 16.5t-12.5 39.5q3 25 21 41.5t41 16.5q25 0 40 -16.5t12 -41.5q-2 -23 -20.5 -39.5t-43.5 -16.5zM411 547q-23 0 -37.5 16.5t-12.5 39.5q3 25 21 41.5t41 16.5q25 0 40 -16.5t12 -41.5q-2 -23 -20.5 -39.5t-43.5 -16.5zM137 289h-65
q12 75 73.5 126.5t158.5 51.5q111 0 163.5 -69.5t41.5 -169.5q-10 -100 -77.5 -170t-177.5 -70q-95 0 -147 47t-51 121h65q4 -50 39 -80t103 -30q74 0 120 44t56 113h-206l6 50h206q4 69 -32 112.5t-112 43.5q-70 0 -111 -33.5t-53 -86.5z" />
    <glyph glyph-name="uni04EE" unicode="&#x4ee;" horiz-adv-x="542" 
d="M548 824l-6 -52h-354l6 52h354zM552 700h74l-431 -700h-74l170 277l-222 423h78l186 -354z" />
    <glyph glyph-name="uni04EF" unicode="&#x4ef;" horiz-adv-x="567" 
d="M178 553l6 53h317l-6 -53h-317zM471 455h64l-50 -470q-10 -111 -81 -166q-58 -46 -149 -46q-97 0 -148 46q-45 43 -39 117h65q-7 -108 127 -108q145 0 162 161l12 112q-26 -50 -73 -81t-109 -31q-178 0 -157 202l28 264h64l-27 -252q-8 -76 18 -116t100 -40
q72 0 116.5 52.5t51.5 122.5z" />
    <glyph glyph-name="uni04F0" unicode="&#x4f0;" horiz-adv-x="542" 
d="M246 757q-24 0 -39 16.5t-13 39.5q3 25 21.5 41.5t42.5 16.5t39 -16.5t12 -41.5q-2 -23 -20.5 -39.5t-42.5 -16.5zM480 757q-24 0 -39 16.5t-13 39.5q3 25 21.5 41.5t42.5 16.5t39 -16.5t12 -41.5q-2 -23 -20.5 -39.5t-42.5 -16.5zM552 700h74l-431 -700h-74l170 277
l-222 423h78l186 -354z" />
    <glyph glyph-name="uni04F1" unicode="&#x4f1;" horiz-adv-x="567" 
d="M237 546q-23 0 -37.5 16.5t-12.5 39.5q3 25 21 41.5t41 16.5q25 0 40 -16.5t12 -41.5q-2 -23 -20.5 -39.5t-43.5 -16.5zM434 546q-23 0 -37.5 16.5t-12.5 39.5q3 25 21 41.5t41 16.5q25 0 40 -16.5t12 -41.5q-2 -23 -20.5 -39.5t-43.5 -16.5zM471 455h64l-50 -470
q-10 -111 -81 -166q-58 -46 -149 -46q-97 0 -148 46q-45 43 -39 117h65q-7 -108 127 -108q145 0 162 161l12 112q-26 -50 -73 -81t-109 -31q-178 0 -157 202l28 264h64l-27 -252q-8 -76 18 -116t100 -40q72 0 116.5 52.5t51.5 122.5z" />
    <glyph glyph-name="uni04F2" unicode="&#x4f2;" horiz-adv-x="542" 
d="M429 861l-162 -125l-36 17l143 131zM451 735l-36 18l143 131l54 -24zM552 700h74l-431 -700h-74l170 277l-222 423h78l186 -354z" />
    <glyph glyph-name="uni04F3" unicode="&#x4f3;" horiz-adv-x="567" 
d="M229 502l-32 18l142 166l53 -28zM414 501l-32 19l142 166l53 -28zM471 455h64l-50 -470q-10 -111 -81 -166q-58 -46 -149 -46q-97 0 -148 46q-45 43 -39 117h65q-7 -108 127 -108q145 0 162 161l12 112q-26 -50 -73 -81t-109 -31q-178 0 -157 202l28 264h64l-27 -252
q-8 -76 18 -116t100 -40q72 0 116.5 52.5t51.5 122.5z" />
    <glyph glyph-name="uni04F4" unicode="&#x4f4;" horiz-adv-x="575" 
d="M234 757q-24 0 -39 16.5t-13 39.5q3 25 21.5 41.5t42.5 16.5t39 -16.5t12 -41.5q-2 -23 -20.5 -39.5t-42.5 -16.5zM468 757q-24 0 -39 16.5t-13 39.5q3 25 21.5 41.5t42.5 16.5t39 -16.5t12 -41.5q-2 -23 -20.5 -39.5t-42.5 -16.5zM423 0l29 277q-67 -43 -166 -43
q-105 0 -152 59.5t-36 161.5l26 245h67l-24 -229q-19 -176 142 -176q91 0 150 43l38 362h67l-74 -700h-67z" />
    <glyph glyph-name="uni04F5" unicode="&#x4f5;" horiz-adv-x="483" 
d="M176 547q-23 0 -37.5 16.5t-12.5 39.5q3 25 21 41.5t41 16.5q25 0 40 -16.5t12 -41.5q-2 -23 -20.5 -39.5t-43.5 -16.5zM373 547q-23 0 -37.5 16.5t-12.5 39.5q3 25 21 41.5t41 16.5q25 0 40 -16.5t12 -41.5q-2 -23 -20.5 -39.5t-43.5 -16.5zM339 0l19 180
q-57 -32 -136 -32q-174 0 -158 158l16 149h65l-15 -141q-12 -111 110 -111q78 0 124 33l23 219h64l-48 -455h-64z" />
    <glyph glyph-name="uni04F6" unicode="&#x4f6;" horiz-adv-x="474" 
d="M533 636h-314l-61 -575h37l-19 -181h-64l13 120h-40l74 700h381z" />
    <glyph glyph-name="uni04F7" unicode="&#x4f7;" horiz-adv-x="373" 
d="M392 395h-206l-36 -334h37l-19 -181h-64l13 120h-37l48 455h270z" />
    <glyph glyph-name="uni04F8" unicode="&#x4f8;" horiz-adv-x="761" 
d="M351 757q-24 0 -39 16.5t-13 39.5q3 25 21.5 41.5t42.5 16.5t39 -16.5t12 -41.5q-2 -23 -20.5 -39.5t-42.5 -16.5zM585 757q-24 0 -39 16.5t-13 39.5q3 25 21.5 41.5t42.5 16.5t39 -16.5t12 -41.5q-2 -23 -20.5 -39.5t-42.5 -16.5zM85 0l74 700h67l-33 -307h188
q81 0 129 -57t40 -140q-9 -81 -70 -138.5t-143 -57.5h-252zM608 0l74 700h67l-74 -700h-67zM158 61h185q53 0 93.5 39.5t46.5 95.5q5 56 -25.5 96t-82.5 40h-188z" />
    <glyph glyph-name="uni04F9" unicode="&#x4f9;" horiz-adv-x="641" 
d="M273 547q-23 0 -37.5 16.5t-12.5 39.5q3 25 21 41.5t41 16.5q25 0 40 -16.5t12 -41.5q-2 -23 -20.5 -39.5t-43.5 -16.5zM470 547q-23 0 -37.5 16.5t-12.5 39.5q3 25 21 41.5t41 16.5q25 0 40 -16.5t12 -41.5q-2 -23 -20.5 -39.5t-43.5 -16.5zM128 455h64l-18 -171h133
q65 0 102 -41t31 -101q-6 -59 -53.5 -100.5t-111.5 -41.5h-195zM497 0l48 455h64l-48 -455h-64zM168 231l-18 -178h125q40 0 67 25.5t31 63.5t-17.5 63.5t-59.5 25.5h-128z" />
    <glyph glyph-name="uni04FC" unicode="&#x4fc;" horiz-adv-x="592" 
d="M407 -219q-35 0 -60 11l7 63q21 -10 52 -10q38 0 56.5 19.5t23.5 61.5q4 40 -9.5 81t-50.5 107l-99 180l-226 -294h-76l270 350l-196 350h76l164 -295l226 295h76l-270 -350l113 -201q44 -80 59 -129.5t10 -98.5q-15 -140 -146 -140z" />
    <glyph glyph-name="uni04FD" unicode="&#x4fd;" horiz-adv-x="469" 
d="M305 -221q-37 0 -59 11l6 55q20 -10 48 -10q66 0 74 78q7 64 -68 184l-53 85l-152 -182h-78l198 228l-149 227h79l112 -179l152 179h79l-198 -227l68 -107q46 -72 60.5 -120.5t9.5 -97.5q-6 -59 -39.5 -91.5t-89.5 -32.5z" />
    <glyph glyph-name="uni0510" unicode="&#x510;" horiz-adv-x="555" 
d="M464 203h67q-10 -100 -81.5 -159t-176.5 -59q-104 0 -160 56.5t-46 149.5q7 69 51 115.5t108 57.5q-57 11 -88 55.5t-25 106.5q10 87 76.5 138t162.5 51q102 0 159 -56.5t48 -148.5h-67q7 66 -34 105t-114 39q-68 0 -113 -37t-51 -96q-6 -57 28.5 -93.5t106.5 -36.5h55
l-6 -61h-55q-78 0 -123 -37t-52 -102q-7 -63 32.5 -104t114.5 -41t125.5 42.5t57.5 114.5z" />
    <glyph glyph-name="uni0511" unicode="&#x511;" horiz-adv-x="472" 
d="M373 129h65q-7 -63 -61.5 -101.5t-140.5 -38.5q-80 0 -129 36t-42 95q4 47 37 77.5t81 35.5q-44 8 -67 37t-19 73q6 54 57 89t128 35q82 0 128 -37.5t40 -97.5h-66q4 37 -23.5 59.5t-83.5 22.5q-49 0 -81 -22t-36 -56q-4 -37 19.5 -59t64.5 -22h68l-5 -50h-70
q-47 0 -75.5 -21.5t-32.5 -57.5q-4 -39 25 -61t85 -22q59 0 94 23t40 63z" />
    <glyph glyph-name="uni0512" unicode="&#x512;" horiz-adv-x="676" 
d="M230 700h434l-83 -789q-7 -63 -44 -97.5t-97 -34.5q-41 0 -64 11l7 63q21 -10 54 -10q69 0 79 87l74 710h-300l-41 -390q-14 -137 -63 -195.5t-126 -58.5h-37l6 64h26q54 0 85 42.5t42 149.5z" />
    <glyph glyph-name="uni0513" unicode="&#x513;" horiz-adv-x="544" 
d="M172 455h340l-58 -554q-6 -58 -39 -90t-87 -32q-40 0 -62 11l6 60q23 -10 51 -10q29 0 46.5 20t21.5 57l51 478h-212l-22 -204q-20 -193 -146 -193h-32l6 61h19q76 0 89 129z" />
    <glyph glyph-name="uni051C" unicode="&#x51c;" horiz-adv-x="943" 
d="M242 0l-163 700h71l130 -591l239 591h53l112 -591l257 591h71l-311 -700h-52l-117 585l-238 -585h-52z" />
    <glyph glyph-name="uni051D" unicode="&#x51d;" horiz-adv-x="726" 
d="M179 0l-121 455h70l87 -364l161 364h69l85 -364l164 364h70l-217 -455h-56l-89 376l-168 -376h-55z" />
    <glyph glyph-name="uni0524" unicode="&#x524;" horiz-adv-x="662" 
d="M583 61h37l-19 -181h-64l13 120h-40l67 639h-358l-67 -639h-67l74 700h492z" />
    <glyph glyph-name="uni0525" unicode="&#x525;" horiz-adv-x="570" 
d="M487 61h37l-19 -181h-64l13 120h-37l42 400h-273l-42 -400h-64l48 455h401z" />
    <glyph glyph-name="uni0526" unicode="&#x526;" horiz-adv-x="614" 
d="M531 61h37l-19 -181h-64l13 120h-40l24 229q19 176 -142 176q-91 0 -150 -43l-38 -362h-67l74 700h67l-30 -277q67 43 167 43q105 0 152 -59.5t36 -161.5z" />
    <glyph glyph-name="uni0527" unicode="&#x527;" horiz-adv-x="580" 
d="M496 61h37l-19 -181h-64l13 120h-37l26 249q18 162 -113 162q-73 0 -116 -48.5t-52 -130.5l-24 -232h-64l74 700h64l-37 -349q22 53 69 84.5t113 31.5q86 0 124.5 -49.5t28.5 -143.5z" />
    <glyph glyph-name="uni0E3F" unicode="&#xe3f;" horiz-adv-x="579" 
d="M427 345q59 -9 93.5 -52.5t27.5 -110.5q-9 -84 -71 -133t-159 -49h-8l-10 -98h-50l10 98h-175l72 681h175l10 99h50l-10 -99h2q97 0 148.5 -46.5t42.5 -129.5q-7 -68 -47 -109.5t-101 -50.5zM374 622h-157l-26 -249h170q59 0 99.5 34t46.5 91q7 58 -29 91t-104 33z
M323 60q67 0 109.5 34t49.5 94q6 56 -28 91t-90 35h-179l-27 -254h165z" />
    <glyph glyph-name="Wgrave" unicode="&#x1e80;" horiz-adv-x="943" 
d="M648 730l-216 116l29 45l216 -115zM242 0l-163 700h71l130 -591l239 591h53l112 -591l257 591h71l-311 -700h-52l-117 585l-238 -585h-52z" />
    <glyph glyph-name="wgrave" unicode="&#x1e81;" horiz-adv-x="726" 
d="M452 511l-148 142l41 39l148 -143zM179 0l-121 455h70l87 -364l161 364h69l85 -364l164 364h70l-217 -455h-56l-89 376l-168 -376h-55z" />
    <glyph glyph-name="Wacute" unicode="&#x1e82;" horiz-adv-x="943" 
d="M449 730l-19 46l240 115l19 -45zM242 0l-163 700h71l130 -591l239 591h53l112 -591l257 591h71l-311 -700h-52l-117 585l-238 -585h-52z" />
    <glyph glyph-name="wacute" unicode="&#x1e83;" horiz-adv-x="726" 
d="M374 511l-33 38l178 143l33 -39zM179 0l-121 455h70l87 -364l161 364h69l85 -364l164 364h70l-217 -455h-56l-89 376l-168 -376h-55z" />
    <glyph glyph-name="Wdieresis" unicode="&#x1e84;" horiz-adv-x="943" 
d="M434 757q-24 0 -39 16.5t-13 39.5q3 25 21.5 41.5t42.5 16.5t39 -16.5t12 -41.5q-2 -23 -20.5 -39.5t-42.5 -16.5zM668 757q-24 0 -39 16.5t-13 39.5q3 25 21.5 41.5t42.5 16.5t39 -16.5t12 -41.5q-2 -23 -20.5 -39.5t-42.5 -16.5zM242 0l-163 700h71l130 -591l239 591
h53l112 -591l257 591h71l-311 -700h-52l-117 585l-238 -585h-52z" />
    <glyph glyph-name="wdieresis" unicode="&#x1e85;" horiz-adv-x="726" 
d="M320 547q-23 0 -37.5 16.5t-12.5 39.5q3 25 21 41.5t41 16.5q25 0 40 -16.5t12 -41.5q-2 -23 -20.5 -39.5t-43.5 -16.5zM517 547q-23 0 -37.5 16.5t-12.5 39.5q3 25 21 41.5t41 16.5q25 0 40 -16.5t12 -41.5q-2 -23 -20.5 -39.5t-43.5 -16.5zM179 0l-121 455h70l87 -364
l161 364h69l85 -364l164 364h70l-217 -455h-56l-89 376l-168 -376h-55z" />
    <glyph glyph-name="Ygrave" unicode="&#x1ef2;" horiz-adv-x="542" 
d="M489 776l-29 -46l-216 116l29 45zM552 700h74l-431 -700h-74l170 277l-222 423h78l186 -354z" />
    <glyph glyph-name="ygrave" unicode="&#x1ef3;" horiz-adv-x="567" 
d="M368 510l-148 142l41 39l148 -143zM471 455h64l-50 -470q-10 -111 -81 -166q-58 -46 -149 -46q-97 0 -148 46q-45 43 -39 117h65q-7 -108 127 -108q145 0 162 161l12 112q-26 -50 -73 -81t-109 -31q-178 0 -157 202l28 264h64l-27 -252q-8 -76 18 -116t100 -40
q72 0 116.5 52.5t51.5 122.5z" />
    <glyph glyph-name="uni2002" unicode="&#x2002;" horiz-adv-x="500" 
 />
    <glyph glyph-name="uni2003" unicode="&#x2003;" horiz-adv-x="1000" 
 />
    <glyph glyph-name="uni2004" unicode="&#x2004;" horiz-adv-x="0" 
 />
    <glyph glyph-name="uni2005" unicode="&#x2005;" horiz-adv-x="250" 
 />
    <glyph glyph-name="uni2009" unicode="&#x2009;" horiz-adv-x="135" 
 />
    <glyph glyph-name="uni200A" unicode="&#x200a;" horiz-adv-x="75" 
 />
    <glyph glyph-name="endash" unicode="&#x2013;" horiz-adv-x="594" 
d="M80 238l6 53h484l-6 -53h-484z" />
    <glyph glyph-name="emdash" unicode="&#x2014;" horiz-adv-x="778" 
d="M81 243l5 53h668l-5 -53h-668z" />
    <glyph glyph-name="quoteleft" unicode="&#x2018;" horiz-adv-x="268" 
d="M203 515q-32 0 -52.5 27.5t-15.5 75.5q6 54 38.5 87t82.5 33q16 0 26 -3l-3 -33q-9 2 -26 2q-46 0 -61 -43q-10 -22 -8 -47q13 14 35 14q24 0 38 -15t11 -40q-2 -25 -20 -41.5t-45 -16.5z" />
    <glyph glyph-name="quoteright" unicode="&#x2019;" horiz-adv-x="268" 
d="M194 718q32 0 53 -27.5t16 -75.5q-6 -54 -38.5 -87t-82.5 -33q-16 0 -27 3l4 33q9 -2 26 -2q45 0 60 43q11 21 9 47q-13 -14 -35 -14q-24 0 -38 15t-12 40q3 25 21 41.5t44 16.5z" />
    <glyph glyph-name="quotesinglbase" unicode="&#x201a;" horiz-adv-x="268" 
d="M130 107q32 0 52.5 -27.5t15.5 -75.5q-5 -54 -37.5 -87t-82.5 -33q-17 0 -27 3l4 33q8 -2 25 -2q46 0 61 43q11 21 9 47q-13 -14 -36 -14q-24 0 -37.5 15t-11.5 40q3 25 21 41.5t44 16.5z" />
    <glyph glyph-name="quotedblleft" unicode="&#x201c;" horiz-adv-x="436" 
d="M203 515q-32 0 -52.5 27.5t-15.5 75.5q6 54 38.5 87t82.5 33q16 0 26 -3l-3 -33q-9 2 -26 2q-46 0 -61 -43q-10 -22 -8 -47q13 14 35 14q24 0 38 -15t11 -40q-2 -25 -20 -41.5t-45 -16.5zM371 515q-32 0 -52.5 27.5t-15.5 75.5q6 54 38.5 87t82.5 33q15 0 26 -3l-3 -33
q-9 2 -26 2q-46 0 -61 -43q-10 -22 -8 -47q13 14 35 14q24 0 38 -15t11 -40q-2 -25 -20 -41.5t-45 -16.5z" />
    <glyph glyph-name="quotedblright" unicode="&#x201d;" horiz-adv-x="436" 
d="M194 718q32 0 53 -27.5t16 -75.5q-6 -54 -38.5 -87t-82.5 -33q-16 0 -27 3l4 33q9 -2 26 -2q45 0 60 43q11 21 9 47q-13 -14 -35 -14q-24 0 -38 15t-12 40q3 25 21 41.5t44 16.5zM362 718q32 0 53 -27.5t16 -75.5q-6 -54 -38.5 -87t-82.5 -33q-16 0 -27 3l4 33
q9 -2 26 -2q45 0 60 43q11 21 9 47q-13 -14 -35 -14q-24 0 -38 15t-12 40q3 25 21 41.5t44 16.5z" />
    <glyph glyph-name="quotedblbase" unicode="&#x201e;" horiz-adv-x="436" 
d="M130 107q32 0 52.5 -27.5t15.5 -75.5q-5 -54 -37.5 -87t-82.5 -33q-17 0 -27 3l4 33q8 -2 25 -2q46 0 61 43q11 21 9 47q-13 -14 -36 -14q-24 0 -37.5 15t-11.5 40q3 25 21 41.5t44 16.5zM298 107q32 0 52.5 -27.5t15.5 -75.5q-5 -54 -37.5 -87t-82.5 -33q-16 0 -27 3
l4 33q8 -2 25 -2q46 0 61 43q11 21 9 47q-13 -14 -36 -14q-24 0 -37.5 15t-11.5 40q3 25 21 41.5t44 16.5z" />
    <glyph glyph-name="dagger" unicode="&#x2020;" horiz-adv-x="429" 
d="M163 -182l60 570h-132l6 58h132l28 271h64l-28 -271h133l-6 -58h-133l-60 -570h-64z" />
    <glyph glyph-name="daggerdbl" unicode="&#x2021;" horiz-adv-x="429" 
d="M163 -182l21 201h-132l6 56h132l33 315h-132l6 56h132l28 271h64l-28 -271h133l-6 -56h-133l-33 -315h133l-6 -56h-133l-21 -201h-64z" />
    <glyph glyph-name="bullet" unicode="&#x2022;" horiz-adv-x="363" 
d="M202 196q-48 0 -78.5 34t-25.5 82q5 49 42.5 83t85.5 34q49 0 79.5 -34t25.5 -83q-5 -48 -42.5 -82t-86.5 -34z" />
    <glyph glyph-name="ellipsis" unicode="&#x2026;" horiz-adv-x="751" 
d="M140 -10q-25 0 -41 17.5t-14 43.5q3 26 23 44t45 18q26 0 42 -18.5t13 -43.5q-2 -25 -22 -43t-46 -18zM373 -10q-25 0 -41 17.5t-14 43.5q3 26 23 44t45 18q26 0 42 -18.5t13 -43.5q-2 -25 -22 -43t-46 -18zM608 -10q-25 0 -41 17.5t-14 43.5q3 26 23 44t45 18
q26 0 42 -18.5t13 -43.5q-2 -25 -22 -43t-46 -18z" />
    <glyph glyph-name="perthousand" unicode="&#x2030;" horiz-adv-x="1143" 
d="M165 -11l-43 25l544 682l42 -25zM231 349q-79 0 -121 49.5t-34 120.5q7 71 59 120.5t131 49.5t121 -49.5t35 -120.5q-8 -71 -60 -120.5t-131 -49.5zM236 400q54 0 89 34.5t40 84.5t-23 84.5t-81 34.5q-54 0 -88.5 -34.5t-39.5 -84.5t22 -84.5t81 -34.5zM569 -5
q-79 0 -120.5 49.5t-34.5 120.5q8 71 60 120.5t131 49.5t121 -49.5t34 -120.5q-7 -71 -59.5 -120.5t-131.5 -49.5zM948 -5q-79 0 -120.5 49.5t-34.5 120.5q8 71 60 120.5t131 49.5t121 -49.5t34 -120.5q-7 -71 -59.5 -120.5t-131.5 -49.5zM575 46q54 0 88.5 34.5t39.5 84.5
t-22 84.5t-81 34.5t-89 -34.5t-40 -84.5t23 -84.5t81 -34.5zM954 46q54 0 88.5 34.5t39.5 84.5t-22 84.5t-81 34.5t-89 -34.5t-40 -84.5t23 -84.5t81 -34.5z" />
    <glyph glyph-name="guilsinglleft" unicode="&#x2039;" horiz-adv-x="268" 
d="M220 73l-185 188l224 188l34 -38l-179 -150l148 -150z" />
    <glyph glyph-name="guilsinglright" unicode="&#x203a;" horiz-adv-x="268" 
d="M64 73l-34 38l178 150l-147 150l42 38l184 -188z" />
    <glyph glyph-name="fraction" unicode="&#x2044;" horiz-adv-x="146" 
d="M-142 -14l-42 28l544 682l41 -28z" />
    <glyph glyph-name="uni2070" unicode="&#x2070;" horiz-adv-x="412" 
d="M247 393q-78 0 -113.5 52.5t-24.5 152.5q10 100 56.5 152t124.5 52t113.5 -52t25.5 -152t-57 -152.5t-125 -52.5zM252 441q105 0 121 157q16 156 -88 156q-103 0 -119 -156q-16 -157 86 -157z" />
    <glyph glyph-name="uni2074" unicode="&#x2074;" horiz-adv-x="384" 
d="M410 576l-6 -49h-64l-13 -128h-55l13 128h-171l28 267h55l-22 -218h116l12 116h55l-12 -116h64z" />
    <glyph glyph-name="uni2075" unicode="&#x2075;" horiz-adv-x="390" 
d="M239 393q-63 0 -98 29.5t-32 80.5h55q-1 -29 21 -46.5t60 -17.5q43 0 71.5 25.5t32.5 69.5q4 43 -17 66.5t-62 23.5q-65 0 -93 -48h-51l22 218h256l-4 -44h-205l-14 -127q36 44 106 44q60 0 91.5 -35.5t24.5 -96.5q-7 -65 -51.5 -103.5t-112.5 -38.5z" />
    <glyph glyph-name="uni2076" unicode="&#x2076;" horiz-adv-x="387" 
d="M264 677q67 0 103.5 -40.5t29.5 -102.5q-6 -61 -51 -101.5t-112 -40.5q-66 0 -102.5 40.5t-30.5 101.5q6 57 43 95l133 165h65l-99 -118q7 1 21 1zM239 438q43 0 71 27.5t32 68.5q5 42 -17.5 69.5t-65.5 27.5t-71 -27.5t-33 -69.5q-4 -41 18.5 -68.5t65.5 -27.5z" />
    <glyph glyph-name="uni2077" unicode="&#x2077;" horiz-adv-x="343" 
d="M96 400l231 346h-206l5 48h289l-255 -394h-64z" />
    <glyph glyph-name="uni2078" unicode="&#x2078;" horiz-adv-x="389" 
d="M235 393q-67 0 -103.5 30t-31.5 81q4 39 29 65.5t66 33.5q-36 8 -54 33t-14 60q5 48 46.5 76.5t104.5 28.5t99 -28.5t31 -76.5q-4 -35 -27 -60t-61 -33q40 -7 59.5 -33.5t15.5 -65.5q-5 -51 -49 -81t-111 -30zM260 624q40 0 65 18.5t29 49.5q3 31 -19 50.5t-61 19.5
q-38 0 -64 -19.5t-29 -50.5q-4 -31 18 -49.5t61 -18.5zM240 434q42 0 69 21t30 54q4 34 -19 54t-65 20q-41 0 -68 -20t-31 -54q-3 -33 20 -54t64 -21z" />
    <glyph glyph-name="uni2079" unicode="&#x2079;" horiz-adv-x="387" 
d="M411 660q-6 -57 -43 -95l-133 -165h-65l99 118q-7 -1 -21 -1q-67 0 -103 40.5t-30 102.5q7 61 51.5 101.5t111.5 40.5q66 0 103 -41t30 -101zM170 660q-4 -43 18 -70t65 -27t71.5 27.5t32.5 69.5q5 41 -18 68.5t-66 27.5t-70.5 -27.5t-32.5 -68.5z" />
    <glyph glyph-name="uni207A" unicode="&#x207a;" horiz-adv-x="393" 
d="M223 460l11 105h-104l5 42h104l11 106h43l-11 -106h104l-5 -42h-104l-11 -105h-43z" />
    <glyph glyph-name="uni207B" unicode="&#x207b;" horiz-adv-x="393" 
d="M130 565l5 42h251l-5 -42h-251z" />
    <glyph glyph-name="uni207C" unicode="&#x207c;" horiz-adv-x="392" 
d="M129 629l4 41h266l-4 -41h-266zM116 505l4 41h266l-4 -41h-266z" />
    <glyph glyph-name="uni207D" unicode="&#x207d;" horiz-adv-x="227" 
d="M209 329q-108 115 -92 272q10 88 48 152.5t101 120.5l34 -32q-61 -53 -93 -109t-40 -132q-8 -75 12.5 -131t70.5 -109z" />
    <glyph glyph-name="uni207E" unicode="&#x207e;" horiz-adv-x="227" 
d="M88 329l-35 32q61 53 93 109t40 131t-12.5 131.5t-70.5 109.5l42 32q51 -56 76 -120.5t15 -152.5q-16 -154 -148 -272z" />
    <glyph glyph-name="uni2080" unicode="&#x2080;" horiz-adv-x="412" 
d="M197 -82q-78 0 -113.5 52.5t-24.5 152.5q10 100 56.5 152t124.5 52t113.5 -52t25.5 -152t-57 -152.5t-125 -52.5zM202 -34q105 0 121 157q16 156 -88 156q-103 0 -119 -156q-16 -157 86 -157z" />
    <glyph glyph-name="uni2081" unicode="&#x2081;" horiz-adv-x="266" 
d="M117 -75l30 282h-90l4 43q56 0 77.5 15t26.5 54h48l-42 -394h-54z" />
    <glyph glyph-name="uni2082" unicode="&#x2082;" horiz-adv-x="373" 
d="M31 -75q8 69 35.5 108.5t88.5 67.5l70 32q61 26 67 82q3 30 -15.5 48t-52.5 18q-41 0 -67.5 -23.5t-30.5 -65.5h-57q7 61 50 97.5t108 36.5q62 0 95 -29.5t28 -79.5q-9 -79 -92 -117l-70 -32q-39 -18 -58 -39.5t-26 -56.5h220l-5 -47h-288z" />
    <glyph glyph-name="uni2083" unicode="&#x2083;" horiz-adv-x="381" 
d="M180 -82q-69 0 -104 33t-28 92h57q-4 -37 17.5 -58.5t63.5 -21.5q40 0 65.5 19.5t29.5 52.5q3 34 -18 53t-63 19h-37l5 44h37q39 0 62 17.5t27 49.5q3 29 -17 47t-56 18q-38 0 -63 -19.5t-29 -51.5h-57q5 51 47 82.5t107 31.5q62 0 96 -28.5t29 -76.5q-8 -75 -92 -92
q38 -3 60 -30.5t18 -66.5q-5 -51 -48 -82.5t-109 -31.5z" />
    <glyph glyph-name="uni2084" unicode="&#x2084;" horiz-adv-x="384" 
d="M360 101l-6 -49h-64l-13 -128h-55l13 128h-171l29 267h55l-23 -218h116l12 116h55l-12 -116h64z" />
    <glyph glyph-name="uni2085" unicode="&#x2085;" horiz-adv-x="390" 
d="M189 -82q-63 0 -98 29.5t-32 80.5h55q-1 -29 21 -46.5t60 -17.5q43 0 71.5 25.5t32.5 69.5q4 43 -17 66.5t-62 23.5q-65 0 -93 -48h-51l23 218h256l-5 -44h-205l-13 -127q34 44 105 44q60 0 91.5 -35.5t24.5 -96.5q-7 -65 -51.5 -103.5t-112.5 -38.5z" />
    <glyph glyph-name="uni2086" unicode="&#x2086;" horiz-adv-x="387" 
d="M214 202q67 0 103.5 -40.5t29.5 -102.5q-6 -61 -51 -101.5t-112 -40.5q-66 0 -102.5 40.5t-30.5 101.5q6 55 43 95l134 165h65l-100 -118q7 1 21 1zM189 -37q43 0 71 27.5t32 68.5q5 42 -17.5 69.5t-65.5 27.5t-71 -27.5t-33 -69.5q-4 -41 18.5 -68.5t65.5 -27.5z" />
    <glyph glyph-name="uni2087" unicode="&#x2087;" horiz-adv-x="343" 
d="M46 -75l231 346h-206l6 48h289l-256 -394h-64z" />
    <glyph glyph-name="uni2088" unicode="&#x2088;" horiz-adv-x="389" 
d="M185 -82q-67 0 -103.5 30t-31.5 81q4 39 29 65.5t66 33.5q-36 8 -54 33t-14 60q5 48 46.5 76.5t104.5 28.5t99 -28.5t31 -76.5q-4 -35 -27 -60t-61 -33q40 -7 59.5 -33.5t15.5 -65.5q-5 -51 -49 -81t-111 -30zM210 149q40 0 65 18.5t29 49.5q3 31 -19 50.5t-61 19.5
q-38 0 -64 -19.5t-29 -50.5q-4 -31 18 -49.5t61 -18.5zM190 -41q42 0 69 21t31 54q3 34 -20 54t-65 20q-41 0 -68 -20t-30 -54q-4 -33 19 -54t64 -21z" />
    <glyph glyph-name="uni2089" unicode="&#x2089;" horiz-adv-x="387" 
d="M361 185q-4 -55 -43 -95l-133 -165h-65l100 118q-8 -1 -22 -1q-67 0 -103 40.5t-30 102.5q7 61 51.5 101.5t111.5 40.5q66 0 103 -41t30 -101zM120 185q-4 -43 18 -70t65 -27t71.5 27.5t32.5 69.5q5 41 -17.5 68.5t-65.5 27.5t-71 -27.5t-33 -68.5z" />
    <glyph glyph-name="uni208A" unicode="&#x208a;" horiz-adv-x="393" 
d="M173 -22l11 105h-104l4 42h104l11 106h43l-11 -106h104l-4 -42h-104l-11 -105h-43z" />
    <glyph glyph-name="uni208B" unicode="&#x208b;" horiz-adv-x="393" 
d="M80 83l4 42h251l-4 -42h-251z" />
    <glyph glyph-name="uni208C" unicode="&#x208c;" horiz-adv-x="392" 
d="M78 147l5 41h266l-5 -41h-266zM65 23l5 41h266l-5 -41h-266z" />
    <glyph glyph-name="uni208D" unicode="&#x208d;" horiz-adv-x="227" 
d="M158 -153q-108 117 -91 272q9 88 47 152.5t101 120.5l35 -32q-61 -53 -93.5 -109.5t-39.5 -131.5q-8 -76 12 -131.5t70 -108.5z" />
    <glyph glyph-name="uni208E" unicode="&#x208e;" horiz-adv-x="227" 
d="M37 -153l-35 32q61 53 93.5 109t40.5 131q7 76 -13 132t-70 109l41 32q51 -56 76 -120.5t16 -152.5q-17 -156 -149 -272z" />
    <glyph glyph-name="uni20A9" unicode="&#x20a9;" horiz-adv-x="770" 
d="M794 396h-87l-30 -94h107l-6 -51h-118l-79 -251h-65l-70 576l-193 -576h-64l-27 251h-118l6 51h107l-10 94h-87l5 51h76l-25 233h68l51 -579l193 579h55l74 -579l170 579h69l-73 -233h76z" />
    <glyph glyph-name="Euro" unicode="&#x20ac;" horiz-adv-x="588" 
d="M325 49q66 0 108.5 39t59.5 105h65q-23 -91 -84 -147t-155 -56q-200 0 -204 256h-66l17 47h50q0 16 4 48q5 43 6 46h-60l17 47h52q55 258 258 258q94 0 143 -56t53 -147h-65q-4 66 -38 104.5t-100 38.5q-145 0 -186 -198h223l-17 -47h-215q-1 -3 -6 -46q-4 -32 -4 -48
h225l-18 -47h-208q1 -94 34 -145.5t111 -51.5z" />
    <glyph glyph-name="uni20AE" unicode="&#x20ae;" horiz-adv-x="510" 
d="M568 619h-215l-18 -170l138 62l-6 -53l-137 -63l-9 -81l138 62l-6 -54l-138 -62l-27 -260h-67l24 228l-139 -63l6 54l139 63l8 81l-138 -63l5 54l139 63l21 202h-213l6 61h495z" />
    <glyph glyph-name="uni20B4" unicode="&#x20b4;" horiz-adv-x="567" 
d="M393 342l-100 -42h266l-18 -40h-333q-56 -36 -63 -95q-5 -56 29.5 -87t103.5 -31q77 0 125 36.5t54 98.5h62q-9 -88 -75.5 -141.5t-172.5 -53.5q-96 0 -147.5 46.5t-42.5 128.5q6 56 38 98h-52l17 40h81q26 18 55 29l128 52h-268l16 39h327q45 35 53 102q5 51 -27 81
t-94 30q-69 0 -111.5 -32t-48.5 -89h-62q8 83 70.5 131.5t156.5 48.5q90 0 138.5 -44.5t40.5 -122.5q-6 -61 -39 -105h71l-17 -39h-92q-30 -23 -69 -39z" />
    <glyph glyph-name="uni20B8" unicode="&#x20b8;" horiz-adv-x="510" 
d="M73 619l6 61h495l-6 -61h-495zM221 0l49 469h-213l7 62h495l-7 -62h-215l-49 -469h-67z" />
    <glyph glyph-name="uni20B9" unicode="&#x20b9;" horiz-adv-x="513" 
d="M427 633q70 -59 68 -168h79l-18 -47h-66q-14 -74 -61.5 -128.5t-115.5 -75.5l125 -214h-77l-118 203h-5h-151l7 61h148q66 0 116 43t65 111h-314l5 47h314q-1 68 -42 111t-107 43h-149l6 61h460l-17 -47h-152z" />
    <glyph glyph-name="uni20BA" unicode="&#x20ba;" horiz-adv-x="457" 
d="M410 263h65q-29 -263 -332 -263h-65l24 224l-54 -25l5 53l54 25l9 84l-54 -25l6 53l54 25l27 266h67l-24 -233l182 86l-6 -53l-182 -86l-8 -84l182 86l-6 -53l-182 -86l-21 -196q124 0 186 51t73 151z" />
    <glyph glyph-name="uni20BD" unicode="&#x20bd;" horiz-adv-x="579" 
d="M352 203h-166l-7 -69h176l-5 -46h-176l-9 -88h-68l9 88h-100l5 46h100l7 69h-100l7 61h100l43 416h234q101 0 159 -67.5t47 -170.5q-10 -104 -82.5 -171.5t-173.5 -67.5zM230 619l-37 -355h163q72 0 125 50.5t60 127.5q8 76 -34 126.5t-114 50.5h-163z" />
    <glyph glyph-name="uni2113" unicode="&#x2113;" horiz-adv-x="390" 
d="M248 -10q-15 0 -28 1.5t-31.5 6.5t-32 17.5t-25.5 30.5t-16.5 49t-0.5 71l2 12l-70 -55l-25 49l102 75l27 260q11 105 47.5 157.5t110.5 52.5q64 0 94.5 -45t21.5 -126q-8 -79 -68.5 -154.5t-178.5 -170.5l-6 -57q-4 -41 2.5 -66.5t23.5 -36t30.5 -13t33.5 -2.5
q49 0 86 29l4 -50q-43 -35 -103 -35zM185 294q92 78 134 136.5t49 117.5q11 116 -63 116q-80 0 -97 -147z" />
    <glyph glyph-name="uni2116" unicode="&#x2116;" horiz-adv-x="1106" 
d="M85 0l74 700h72l292 -589l62 589h64l-74 -700h-72l-291 589l-62 -589h-65zM838 103q-86 0 -133 54.5t-39 133.5t67 134.5t145 55.5q87 0 134.5 -55t39.5 -135q-9 -79 -68 -133.5t-146 -54.5zM844 160q58 0 98 38t46 93q5 56 -26.5 94.5t-89.5 38.5q-57 0 -97 -39t-45 -94
q-6 -55 25.5 -93t88.5 -38zM635 0l6 58h386l-6 -58h-386z" />
    <glyph glyph-name="trademark" unicode="&#x2122;" horiz-adv-x="827" 
d="M143 293l38 361h-104l5 46h258l-5 -46h-104l-38 -361h-50zM376 293l43 407h77l87 -323l156 323h77l-43 -407h-49l36 341l-163 -341h-45l-91 341l-36 -341h-49z" />
    <glyph glyph-name="uni2126" unicode="&#x2126;" horiz-adv-x="707" 
d="M63 0l6 61h200l4 38q-97 29 -149.5 112t-41.5 187q14 134 109 224.5t238 90.5q142 0 218 -90.5t62 -224.5q-11 -104 -81 -187t-174 -112l-4 -38h200l-6 -61h-255l15 138q98 18 163 92t75 171q12 108 -46.5 179t-173.5 71t-188 -71t-85 -179q-10 -97 39.5 -171t144.5 -92
l-15 -138h-255z" />
    <glyph glyph-name="estimated" unicode="&#x212e;" horiz-adv-x="517" 
d="M267 -12q-109 0 -161 69.5t-42 170.5q11 105 78 172t172 67q89 0 144 -59.5t45 -146.5q0 -12 -4 -28h-343l-18 -175q51 -49 131 -49q67 0 118 32.5t72 80.5h22q-21 -57 -78.5 -95.5t-135.5 -38.5zM159 255h254l15 148q-46 43 -116 43q-80 0 -138 -47z" />
    <glyph glyph-name="uni2153" unicode="&#x2153;" horiz-adv-x="759" 
d="M119 -14l-42 28l544 682l41 -28zM155 286l30 282h-90l4 43q56 0 77.5 15t25.5 54h48l-41 -394h-54zM566 -7q-69 0 -104 33t-29 92h57q-4 -37 18 -58.5t64 -21.5q40 0 65.5 19.5t29.5 52.5q3 34 -18 53t-63 19h-37l5 44h37q39 0 62 17.5t27 49.5q3 29 -17 47t-56 18
q-38 0 -63 -19.5t-29 -51.5h-57q5 51 47 82.5t107 31.5q62 0 96 -28.5t29 -76.5q-8 -76 -93 -92q39 -3 61.5 -30.5t17.5 -66.5q-5 -51 -48 -82.5t-109 -31.5z" />
    <glyph glyph-name="uni2154" unicode="&#x2154;" horiz-adv-x="871" 
d="M231 -14l-42 28l544 682l41 -28zM69 286q8 69 35.5 108.5t88.5 67.5l70 32q61 26 67 82q3 30 -16 48t-53 18q-41 0 -67 -23.5t-30 -65.5h-57q7 61 50 97.5t108 36.5q62 0 95 -29.5t28 -79.5q-9 -80 -93 -117l-69 -32q-39 -18 -58 -39.5t-26 -56.5h220l-5 -47h-288z
M678 -7q-69 0 -104 33t-29 92h57q-4 -37 18 -58.5t64 -21.5q40 0 65.5 19.5t29.5 52.5q3 34 -18 53t-63 19h-37l5 44h37q39 0 62 17.5t27 49.5q3 29 -17 47t-56 18q-38 0 -63 -19.5t-29 -51.5h-57q5 51 47 82.5t107 31.5q62 0 96 -28.5t29 -76.5q-8 -76 -93 -92
q39 -3 61.5 -30.5t17.5 -66.5q-5 -51 -48 -82.5t-109 -31.5z" />
    <glyph glyph-name="arrowleft" unicode="&#x2190;" horiz-adv-x="720" 
d="M263 134l-216 216l261 216l33 -40l-183 -149h592l-6 -54h-591l151 -149z" />
    <glyph glyph-name="arrowup" unicode="&#x2191;" horiz-adv-x="482" 
d="M214 0l62 591l-166 -167l-37 37l242 239l190 -239l-43 -37l-132 168l-62 -592h-54z" />
    <glyph glyph-name="arrowright" unicode="&#x2192;" horiz-adv-x="720" 
d="M485 133l-33 40l184 150h-592l6 54h591l-152 149l41 39l217 -216z" />
    <glyph glyph-name="arrowdown" unicode="&#x2193;" horiz-adv-x="482" 
d="M241 0l-191 239l44 37l131 -168l63 592h54l-63 -591l167 167l36 -37z" />
    <glyph glyph-name="uni2196" unicode="&#x2196;" horiz-adv-x="554" 
d="M504 83l-374 418l-11 -223l-55 -3l19 322l319 -16l-8 -54l-222 13l375 -418z" />
    <glyph glyph-name="uni2197" unicode="&#x2197;" horiz-adv-x="554" 
d="M68 83l-35 39l462 418l-225 -13l3 54l324 16l-50 -322l-54 3l37 224z" />
    <glyph glyph-name="uni2198" unicode="&#x2198;" horiz-adv-x="554" 
d="M545 103l-320 16l8 54l223 -13l-375 418l43 39l374 -418l10 223l55 3z" />
    <glyph glyph-name="uni2199" unicode="&#x2199;" horiz-adv-x="554" 
d="M31 103l49 322l54 -3l-36 -224l462 419l35 -39l-462 -418l224 13l-3 -54z" />
    <glyph glyph-name="partialdiff" unicode="&#x2202;" horiz-adv-x="569" 
d="M348 715q121 0 174 -89t33 -287q-19 -178 -85 -266t-191 -88q-114 0 -166 63.5t-41 158.5q11 100 78.5 165.5t167.5 65.5q120 0 173 -92q17 167 -19.5 238t-128.5 71q-75 0 -119.5 -44t-50.5 -111h-67q9 93 73.5 154t168.5 61zM283 45q89 0 134.5 57.5t64.5 176.5
q-22 51 -66.5 75t-96.5 24q-79 0 -127.5 -48.5t-56.5 -122.5q-7 -71 29 -116.5t119 -45.5z" />
    <glyph glyph-name="emptyset" unicode="&#x2205;" 
d="M604 519l-62 -56q42 -59 33 -146q-10 -99 -79 -160.5t-166 -61.5q-86 0 -141 49l-62 -56l-24 27l62 56q-43 60 -34 146q10 99 79.5 160.5t166.5 61.5q86 0 141 -49l61 56zM175 317q-7 -68 24 -115l285 258q-43 37 -111 37q-79 0 -134 -49t-64 -131zM532 317q7 68 -23 116
l-286 -258q43 -38 112 -38q78 0 133.5 49.5t63.5 130.5z" />
    <glyph glyph-name="uni2206" unicode="&#x2206;" horiz-adv-x="573" 
d="M20 0l315 700h51l167 -700h-533zM119 61h347l-118 532z" />
    <glyph glyph-name="product" unicode="&#x220f;" horiz-adv-x="681" 
d="M82 -215l100 948h-55l6 61h581l-6 -61h-55l-100 -948h-67l100 948h-337l-100 -948h-67z" />
    <glyph glyph-name="summation" unicode="&#x2211;" horiz-adv-x="620" 
d="M27 -215l7 61l404 443l-311 444l6 61h520l-6 -63h-435l310 -442l-403 -441h435l-7 -63h-520z" />
    <glyph glyph-name="minus" unicode="&#x2212;" horiz-adv-x="504" 
d="M85 285l6 58h394l-6 -58h-394z" />
    <glyph glyph-name="radical" unicode="&#x221a;" horiz-adv-x="780" 
d="M293 -215l-102 408h-121l6 58h167l87 -358l412 901h71l-470 -1009h-50z" />
    <glyph glyph-name="infinity" unicode="&#x221e;" horiz-adv-x="879" 
d="M258 88q-94 0 -140.5 59t-37.5 142t68 142t153 59q54 0 101.5 -33.5t74.5 -99.5q40 65 95 99t110 34q93 0 139.5 -58t37.5 -143t-68 -143t-152 -58q-55 0 -103 33.5t-74 99.5q-41 -67 -95 -100t-109 -33zM264 146q46 0 93.5 36t78.5 107q-16 70 -56 106.5t-86 36.5
q-65 0 -106 -41.5t-47 -101.5t26 -101.5t97 -41.5zM645 146q65 0 105.5 41.5t46.5 101.5t-25.5 101.5t-96.5 41.5q-47 0 -94 -36.5t-78 -106.5q16 -71 55.5 -107t86.5 -36z" />
    <glyph glyph-name="integral" unicode="&#x222b;" horiz-adv-x="378" 
d="M100 -220q-46 0 -72 12l6 57q26 -11 50 -11q56 0 64 76l79 750q6 65 37 97.5t74 32.5q46 0 72 -12l-6 -56q-26 11 -49 11q-56 0 -65 -76l-78 -751q-7 -64 -38 -97t-74 -33z" />
    <glyph glyph-name="approxequal" unicode="&#x2248;" horiz-adv-x="536" 
d="M406 333q-38 0 -101 34t-105 34q-52 0 -108 -52l6 60q49 50 110 50q38 0 107 -34t97 -34q50 0 114 54l-6 -59q-54 -53 -114 -53zM390 171q-38 0 -101 34t-105 34q-53 0 -107 -52l6 60q47 50 108 50q38 0 107.5 -34t97.5 -34q52 0 115 54l-6 -59q-54 -53 -115 -53z" />
    <glyph glyph-name="notequal" unicode="&#x2260;" horiz-adv-x="534" 
d="M518 373h-156l-69 -119h213l-6 -58h-240l-66 -114h-55l66 114h-129l6 58h157l68 119h-213l6 58h241l66 114h54l-66 -114h129z" />
    <glyph glyph-name="lessequal" unicode="&#x2264;" horiz-adv-x="504" 
d="M471 224l-378 121l5 48l403 120l-7 -62l-299 -82l282 -83zM459 96h-394l6 58h394z" />
    <glyph glyph-name="greaterequal" unicode="&#x2265;" horiz-adv-x="504" 
d="M81 224l6 62l300 83l-283 82l7 62l377 -120l-5 -48zM65 96l6 58h394l-6 -58h-394z" />
    <glyph glyph-name="uni2460" unicode="&#x2460;" horiz-adv-x="799" 
d="M398 -17q-163 0 -250.5 105t-70.5 262q16 157 125.5 262t272.5 105t250 -105t71 -262q-17 -157 -126 -262t-272 -105zM403 30q138 0 231 92t108 228q14 136 -60 228t-212 92q-139 0 -232 -92t-107 -228q-15 -136 59 -228t213 -92zM405 171l27 256h-82l4 39q51 0 70.5 14
t23.5 49h44l-38 -358h-49z" />
    <glyph glyph-name="uni2461" unicode="&#x2461;" horiz-adv-x="799" 
d="M398 -17q-163 0 -250.5 105t-70.5 262q16 157 125.5 262t272.5 105t250 -105t71 -262q-17 -157 -126 -262t-272 -105zM403 30q138 0 231 92t108 228q14 136 -60 228t-212 92q-139 0 -232 -92t-107 -228q-15 -136 59 -228t213 -92zM277 173q7 63 32 99t80 61l64 30
q55 22 61 74q3 27 -14 43.5t-48 16.5q-38 0 -61 -21.5t-27 -59.5h-52q6 55 45.5 88.5t98.5 33.5q56 0 86 -26.5t25 -72.5q-8 -72 -84 -106l-63 -30q-36 -16 -53.5 -35.5t-22.5 -51.5h200l-5 -43h-262z" />
    <glyph glyph-name="uni2462" unicode="&#x2462;" horiz-adv-x="799" 
d="M398 -17q-163 0 -250.5 105t-70.5 262q16 157 125.5 262t272.5 105t250 -105t71 -262q-17 -157 -126 -262t-272 -105zM403 30q138 0 231 92t108 228q14 136 -60 228t-212 92q-139 0 -232 -92t-107 -228q-15 -136 59 -228t213 -92zM417 165q-63 0 -94.5 30t-26.5 83h52
q-4 -34 16.5 -53t58.5 -19q36 0 59 17.5t26 47.5q4 31 -15.5 48t-57.5 17h-34l5 40h34q35 0 56 16t24 45q3 27 -15.5 43t-50.5 16q-35 0 -57.5 -17.5t-26.5 -46.5h-52q5 47 43.5 75.5t97.5 28.5q56 0 86.5 -26.5t26.5 -69.5q-6 -69 -84 -84q35 -2 55.5 -27t16.5 -61
q-4 -46 -43.5 -74.5t-99.5 -28.5z" />
    <glyph glyph-name="uni2463" unicode="&#x2463;" horiz-adv-x="799" 
d="M475 717q163 0 250 -105t71 -262q-17 -157 -126 -262t-272 -105t-250.5 105t-70.5 262q16 157 125.5 262t272.5 105zM403 30q138 0 231 92t108 228q14 136 -60 228t-212 92q-139 0 -232 -92t-107 -228q-15 -136 59 -228t213 -92zM531 437l-11 -105h58l-5 -45h-58
l-12 -116h-50l12 116h-155l26 243h50l-21 -198h105l11 105h50z" />
    <glyph glyph-name="uni2464" unicode="&#x2464;" horiz-adv-x="799" 
d="M398 -17q-163 0 -250.5 105t-70.5 262q16 157 125.5 262t272.5 105t250 -105t71 -262q-17 -157 -126 -262t-272 -105zM403 30q138 0 231 92t108 228q14 136 -60 228t-212 92q-139 0 -232 -92t-107 -228q-15 -136 59 -228t213 -92zM414 162q-58 0 -90 27t-29 73h50
q-1 -27 18.5 -43t54.5 -16q39 0 65 23.5t30 63.5q4 39 -15 60.5t-57 21.5q-57 0 -85 -44h-46l21 198h232l-4 -40h-186l-12 -115q33 40 96 40q54 0 82.5 -32.5t23.5 -87.5q-7 -59 -47.5 -94t-101.5 -35z" />
    <glyph glyph-name="uni2465" unicode="&#x2465;" horiz-adv-x="799" 
d="M475 717q163 0 250 -105t71 -262q-17 -157 -126 -262t-272 -105t-250.5 105t-70.5 262q16 157 125.5 262t272.5 105zM403 30q138 0 231 92t108 228q14 136 -60 228t-212 92q-139 0 -232 -92t-107 -228q-15 -136 59 -228t213 -92zM440 427q61 0 94 -36.5t27 -93.5
q-5 -55 -46 -92t-102 -37q-60 0 -93 37t-28 92q6 50 39 86l121 151h59l-90 -108q6 1 19 1zM417 210q39 0 64.5 25t29.5 62q4 39 -16 64t-59 25t-65 -25.5t-30 -63.5q-4 -37 16.5 -62t59.5 -25z" />
    <glyph glyph-name="uni2466" unicode="&#x2466;" horiz-adv-x="799" 
d="M398 -17q-163 0 -250.5 105t-70.5 262q16 157 125.5 262t272.5 105t250 -105t71 -262q-17 -157 -126 -262t-272 -105zM403 30q138 0 231 92t108 228q14 136 -60 228t-212 92q-139 0 -232 -92t-107 -228q-15 -136 59 -228t213 -92zM317 170l210 315h-187l4 43h262
l-231 -358h-58z" />
    <glyph glyph-name="uni2467" unicode="&#x2467;" horiz-adv-x="799" 
d="M398 -17q-163 0 -250.5 105t-70.5 262q16 157 125.5 262t272.5 105t250 -105t71 -262q-17 -157 -126 -262t-272 -105zM403 30q138 0 231 92t108 228q14 136 -60 228t-212 92q-139 0 -232 -92t-107 -228q-15 -136 59 -228t213 -92zM416 165q-61 0 -94.5 27t-28.5 74
q4 35 26.5 59t60.5 31q-33 7 -49 29.5t-13 54.5q4 43 42 69.5t95 26.5t89.5 -26.5t28.5 -69.5q-3 -32 -24.5 -54.5t-55.5 -29.5q36 -7 54 -31t14 -59q-5 -47 -44.5 -74t-100.5 -27zM438 375q36 0 59.5 16.5t26.5 44.5q3 29 -17 46.5t-55 17.5t-58.5 -17.5t-26.5 -46.5
q-3 -28 16.5 -44.5t54.5 -16.5zM420 202q38 0 63 19t28 49q4 31 -17.5 49t-59.5 18t-62 -18t-28 -49q-3 -30 18 -49t58 -19z" />
    <glyph glyph-name="uni2468" unicode="&#x2468;" horiz-adv-x="799" 
d="M475 717q163 0 250 -105t71 -262q-17 -157 -126 -262t-272 -105t-250.5 105t-70.5 262q16 157 125.5 262t272.5 105zM403 30q138 0 231 92t108 228q14 136 -60 228t-212 92q-139 0 -232 -92t-107 -228q-15 -136 59 -228t213 -92zM461 532q60 0 93 -37t27 -92
q-5 -53 -41 -88l-118 -148h-59l90 107q-6 -1 -19 -1q-61 0 -94 37t-28 93q6 55 47 92t102 37zM362 403q-4 -39 16.5 -63.5t59.5 -24.5t64.5 25t29.5 63q4 37 -16 62t-59 25t-65 -25t-30 -62z" />
    <glyph glyph-name="uni24EA" unicode="&#x24ea;" horiz-adv-x="799" 
d="M398 -17q-163 0 -250.5 105t-70.5 262q16 157 125.5 262t272.5 105t250 -105t71 -262q-17 -157 -126 -262t-272 -105zM403 30q138 0 231 92t108 228q14 136 -60 228t-212 92q-139 0 -232 -92t-107 -228q-15 -136 59 -228t213 -92zM416 165q-71 0 -103 47.5t-22 138.5
t51.5 138t112.5 47t104 -47t23 -138t-52.5 -138.5t-113.5 -47.5zM421 208q95 0 110 143q15 142 -80 142q-93 0 -108 -142q-15 -143 78 -143z" />
    <glyph glyph-name="uni24FF" unicode="&#x24ff;" horiz-adv-x="799" 
d="M398 -17q-163 0 -250.5 105t-70.5 262q16 157 125.5 262t272.5 105t250 -105t71 -262q-17 -157 -126 -262t-272 -105zM416 165q71 0 113.5 47.5t52.5 138.5t-23 138t-104 47t-113 -47t-52 -138t22.5 -138.5t103.5 -47.5zM421 208q-93 0 -78 143q15 142 108 142
q94 0 79 -142q-15 -143 -109 -143z" />
    <glyph glyph-name="lozenge" unicode="&#x25ca;" horiz-adv-x="555" 
d="M249 0l-157 396l240 398h58l157 -398l-240 -396h-58zM284 69l196 327l-126 328l-195 -328z" />
    <glyph glyph-name="uni2776" unicode="&#x2776;" horiz-adv-x="799" 
d="M398 -17q-163 0 -250.5 105t-70.5 262q16 157 125.5 262t272.5 105t250 -105t71 -262q-17 -157 -126 -262t-272 -105zM408 171h50l38 358h-44q-4 -35 -24 -49t-71 -14l-4 -39h82z" />
    <glyph glyph-name="uni2777" unicode="&#x2777;" horiz-adv-x="799" 
d="M398 -17q-163 0 -250.5 105t-70.5 262q16 157 125.5 262t272.5 105t250 -105t71 -262q-17 -157 -126 -262t-272 -105zM277 173h262l5 44h-200q5 31 22.5 50.5t53.5 36.5l63 28q77 35 84 107q5 46 -25 72.5t-86 26.5q-59 0 -98.5 -33.5t-45.5 -88.5h52q4 38 27 59.5
t61 21.5q30 0 47.5 -16.5t14.5 -43.5q-6 -52 -61 -74l-64 -30q-55 -25 -80 -61t-32 -99z" />
    <glyph glyph-name="uni2778" unicode="&#x2778;" horiz-adv-x="799" 
d="M398 -17q-163 0 -250.5 105t-70.5 262q16 157 125.5 262t272.5 105t250 -105t71 -262q-17 -157 -126 -262t-272 -105zM417 165q60 0 99.5 28.5t43.5 75.5q4 35 -16 59.5t-55 28.5q78 15 84 83q4 43 -27 69.5t-87 26.5q-60 0 -98 -28.5t-43 -76.5h52q4 30 27 48t57 18
q32 0 50.5 -16.5t15.5 -43.5q-3 -29 -24 -45t-56 -16h-34l-5 -40h34q38 0 57 -17t15 -48q-3 -30 -25.5 -48t-58.5 -18q-38 0 -58.5 19.5t-16.5 53.5h-52q-5 -53 26.5 -83t94.5 -30z" />
    <glyph glyph-name="uni2779" unicode="&#x2779;" horiz-adv-x="799" 
d="M398 -17q-163 0 -250.5 105t-70.5 262q16 157 125.5 262t272.5 105t250 -105t71 -262q-17 -157 -126 -262t-272 -105zM441 171h50l12 116h58l5 44h-58l11 106h-50l-11 -106h-106l21 199h-49l-26 -243h155z" />
    </font>
</defs>
</svg>
