<?xml version="1.0" standalone="no"?>
<!DOCTYPE svg PUBLIC "-//W3C//DTD SVG 1.1//EN" "http://www.w3.org/Graphics/SVG/1.1/DTD/svg11.dtd" >
<svg xmlns="http://www.w3.org/2000/svg" xmlns:xlink="http://www.w3.org/1999/xlink" version="1.1">
<metadata>
Created by FontForge 20170731 at Wed Feb  7 15:58:39 2018
 By Aleksey,,,
Copyright (c) 2015 by Noel Leu. All rights reserved.
</metadata>
<defs>
<font id="GTWalsheimPro-Light" horiz-adv-x="640" >
  <font-face 
    font-family="GT Walsheim Pro Light"
    font-weight="300"
    font-stretch="normal"
    units-per-em="1000"
    panose-1="0 0 4 0 0 0 0 0 0 0"
    ascent="765"
    descent="-235"
    x-height="455"
    cap-height="700"
    bbox="-503 -231 1122 900"
    underline-thickness="50"
    underline-position="-150"
    unicode-range="U+000D-FB02"
  />
<missing-glyph horiz-adv-x="800" 
d="M208.5 34q-82.5 51 -127.5 135.5t-45 180.5t45 180.5t127.5 135.5t191.5 51t191.5 -51t127.5 -135.5t45 -180.5t-45 -180.5t-127.5 -135.5t-191.5 -51t-191.5 51zM570 52q78 46 123.5 125t45.5 173q0 90 -44.5 169.5t-122.5 127.5t-172 48q-95 0 -173 -48t-122.5 -127.5
t-44.5 -169.5q0 -94 45.5 -173t123.5 -125t171 -46q92 0 170 46zM213.5 470q-12.5 13 -12.5 30q0 18 12.5 30.5t29.5 12.5q18 0 30.5 -12.5t12.5 -30.5q0 -17 -12.5 -30t-30.5 -13q-17 0 -29.5 13zM510.5 470q-12.5 13 -12.5 30q0 18 12.5 30.5t29.5 12.5q18 0 30.5 -12.5
t12.5 -30.5q0 -17 -12.5 -30t-30.5 -13q-17 0 -29.5 13zM398 527l-110 -243h178v-25h-247zM158 259l23 13q11 6 13 17.5t2 39.5h17q0 -34 -4.5 -48t-15.5 -21l-22 -13q-23 -13 -23 -40h-16q0 38 26 52zM600 161q4 16 4 20q0 13 -17 21l-41 20q-39 20 -39 58q0 18 8 40l15 -5
q-7 -23 -7 -35q0 -31 34 -47l40 -19q23 -10 23 -33q0 -8 -4 -24zM267 104.5q-49 38.5 -99 123.5q7 -4 45.5 -27.5t73 -33.5t69.5 -10q57 0 118 8t102 29q1 0 3 2q-15 -32 -50.5 -62.5t-80 -49t-82.5 -18.5q-50 0 -99 38.5zM460.5 117.5q50.5 25.5 71.5 42.5q-38 -10 -33 -8
q-48 -11 -76.5 -15.5t-64.5 -4.5q-30 0 -69.5 11.5t-63.5 30.5q26 -42 69 -62t72 -20q44 0 94.5 25.5z" />
    <glyph glyph-name="fi" unicode="fi" horiz-adv-x="565" 
d="M211.5 628.5q-24.5 -19.5 -24.5 -78.5v-95h139v-55h-139v-400h-64v400h-100v55h100v92q0 92 41 125.5t95 33.5q41 0 67 -12v-56q-32 10 -52 10q-38 0 -62.5 -19.5zM421 455h64v-455h-64v455zM410.5 564q-16.5 17 -16.5 42q0 26 16.5 43t42.5 17t43 -17t17 -43
q0 -25 -17 -42t-43 -17t-42.5 17z" />
    <glyph glyph-name="fl" unicode="fl" horiz-adv-x="565" 
d="M211.5 628.5q-24.5 -19.5 -24.5 -78.5v-95h139v-55h-139v-400h-64v400h-100v55h100v92q0 92 41 125.5t95 33.5q41 0 67 -12v-56q-32 10 -52 10q-38 0 -62.5 -19.5zM421 700h64v-700h-64v700z" />
    <glyph glyph-name="f_f" unicode="ff" horiz-adv-x="707" 
d="M211.5 628.5q-24.5 -19.5 -24.5 -78.5v-95h139v-55h-139v-400h-64v400h-100v55h100v92q0 92 41 125.5t95 33.5q41 0 67 -12v-56q-32 10 -52 10q-38 0 -62.5 -19.5zM577.5 628.5q-24.5 -19.5 -24.5 -78.5v-95h139v-55h-139v-400h-64v400h-100v55h100v92q0 92 41 125.5
t95 33.5q41 0 67 -12v-56q-32 10 -52 10q-38 0 -62.5 -19.5z" />
    <glyph glyph-name="f_f_i" unicode="ffi" horiz-adv-x="931" 
d="M211.5 628.5q-24.5 -19.5 -24.5 -78.5v-95h139v-55h-139v-400h-64v400h-100v55h100v92q0 92 41 125.5t95 33.5q41 0 67 -12v-56q-32 10 -52 10q-38 0 -62.5 -19.5zM577.5 628.5q-24.5 -19.5 -24.5 -78.5v-95h139v-55h-139v-400h-64v400h-100v55h100v92q0 92 41 125.5
t95 33.5q41 0 67 -12v-56q-32 10 -52 10q-38 0 -62.5 -19.5zM787 455h64v-455h-64v455zM776.5 564q-16.5 17 -16.5 42q0 26 16.5 43t42.5 17t43 -17t17 -43q0 -25 -17 -42t-43 -17t-42.5 17z" />
    <glyph glyph-name="f_f_l" unicode="ffl" horiz-adv-x="931" 
d="M211.5 628.5q-24.5 -19.5 -24.5 -78.5v-95h139v-55h-139v-400h-64v400h-100v55h100v92q0 92 41 125.5t95 33.5q41 0 67 -12v-56q-32 10 -52 10q-38 0 -62.5 -19.5zM577.5 628.5q-24.5 -19.5 -24.5 -78.5v-95h139v-55h-139v-400h-64v400h-100v55h100v92q0 92 41 125.5
t95 33.5q41 0 67 -12v-56q-32 10 -52 10q-38 0 -62.5 -19.5zM787 700h64v-700h-64v700z" />
    <glyph glyph-name=".notdef" horiz-adv-x="800" 
d="M208.5 34q-82.5 51 -127.5 135.5t-45 180.5t45 180.5t127.5 135.5t191.5 51t191.5 -51t127.5 -135.5t45 -180.5t-45 -180.5t-127.5 -135.5t-191.5 -51t-191.5 51zM570 52q78 46 123.5 125t45.5 173q0 90 -44.5 169.5t-122.5 127.5t-172 48q-95 0 -173 -48t-122.5 -127.5
t-44.5 -169.5q0 -94 45.5 -173t123.5 -125t171 -46q92 0 170 46zM213.5 470q-12.5 13 -12.5 30q0 18 12.5 30.5t29.5 12.5q18 0 30.5 -12.5t12.5 -30.5q0 -17 -12.5 -30t-30.5 -13q-17 0 -29.5 13zM510.5 470q-12.5 13 -12.5 30q0 18 12.5 30.5t29.5 12.5q18 0 30.5 -12.5
t12.5 -30.5q0 -17 -12.5 -30t-30.5 -13q-17 0 -29.5 13zM398 527l-110 -243h178v-25h-247zM158 259l23 13q11 6 13 17.5t2 39.5h17q0 -34 -4.5 -48t-15.5 -21l-22 -13q-23 -13 -23 -40h-16q0 38 26 52zM600 161q4 16 4 20q0 13 -17 21l-41 20q-39 20 -39 58q0 18 8 40l15 -5
q-7 -23 -7 -35q0 -31 34 -47l40 -19q23 -10 23 -33q0 -8 -4 -24zM267 104.5q-49 38.5 -99 123.5q7 -4 45.5 -27.5t73 -33.5t69.5 -10q57 0 118 8t102 29q1 0 3 2q-15 -32 -50.5 -62.5t-80 -49t-82.5 -18.5q-50 0 -99 38.5zM460.5 117.5q50.5 25.5 71.5 42.5q-38 -10 -33 -8
q-48 -11 -76.5 -15.5t-64.5 -4.5q-30 0 -69.5 11.5t-63.5 30.5q26 -42 69 -62t72 -20q44 0 94.5 25.5z" />
    <glyph glyph-name=".null" horiz-adv-x="0" 
 />
    <glyph glyph-name="nonmarkingreturn" unicode="&#xd;" horiz-adv-x="250" 
 />
    <glyph glyph-name="space" unicode=" " horiz-adv-x="255" 
 />
    <glyph glyph-name="exclam" unicode="!" horiz-adv-x="254" 
d="M95 700h64v-502h-64v502zM83.5 11.5q-17.5 17.5 -17.5 43.5t17.5 44t42.5 18q26 0 44 -18t18 -44t-18 -43.5t-44 -17.5q-25 0 -42.5 17.5z" />
    <glyph glyph-name="quotedbl" unicode="&#x22;" horiz-adv-x="388" 
d="M173 615l-37 -178h-36l-38 178q-2 16 -2 20q0 24 16.5 40.5t40.5 16.5q25 0 41.5 -16.5t16.5 -40.5q0 -12 -2 -20zM326 615l-37 -178h-36l-38 178q-2 16 -2 20q0 24 16.5 40.5t40.5 16.5q25 0 41.5 -16.5t16.5 -40.5q0 -12 -2 -20z" />
    <glyph glyph-name="numbersign" unicode="#" horiz-adv-x="542" 
d="M127 214h-102v52h109l23 168h-102v52h110l29 214h54l-29 -214h151l29 214h54l-29 -214h93v-52h-101l-23 -168h94v-52h-101l-30 -214h-54l30 214h-151l-30 -214h-54zM339 266l23 168h-151l-23 -168h151z" />
    <glyph glyph-name="dollar" unicode="$" horiz-adv-x="556" 
d="M457.5 42q-53.5 -50 -145.5 -56v-86h-50v86q-105 7 -163.5 67.5t-58.5 159.5h67q0 -76 48 -122t132 -46q74 0 115.5 33.5t41.5 94.5q0 50 -29 80t-84 45l-119 28q-71 18 -110.5 62.5t-39.5 117.5q0 47 24 88t69 67t107 29v90h50v-92q85 -9 134.5 -62.5t50.5 -139.5h-68
q-2 69 -42 107.5t-112 38.5q-70 0 -107.5 -34.5t-37.5 -88.5q0 -52 30.5 -83t92.5 -46l122 -31q64 -16 100 -60t36 -115q0 -82 -53.5 -132z" />
    <glyph glyph-name="percent" unicode="%" horiz-adv-x="764" 
d="M121 14l472 682l44 -25l-471 -682zM102 372.5q-39 23.5 -60 62t-21 84.5t21 84.5t60 62t92 23.5t92 -23.5t60 -62t21 -84.5t-21 -84.5t-60 -62t-92 -23.5t-92 23.5zM279 434.5q31 34.5 31 84.5t-31 84.5t-85 34.5t-85 -34.5t-31 -84.5t31 -84.5t85 -34.5t85 34.5z
M478 18.5q-39 23.5 -60 62t-21 84.5t21 84.5t60 62t92 23.5t92 -23.5t60 -62t21 -84.5t-21 -84.5t-60 -62t-92 -23.5t-92 23.5zM655 80.5q31 34.5 31 84.5t-31 84.5t-85 34.5t-85 -34.5t-31 -84.5t31 -84.5t85 -34.5t85 34.5z" />
    <glyph glyph-name="ampersand" unicode="&#x26;" horiz-adv-x="592" 
d="M584 231h-65q-3 -113 -65 -178.5t-171 -65.5q-69 0 -121.5 25.5t-82 72t-29.5 105.5q0 67 41 115t105 59q-62 14 -97 56.5t-35 104.5q0 56 27 98.5t77.5 66t117.5 23.5q97 0 158 -52.5t61 -144.5h-69q0 62 -40 100t-110 38q-69 0 -111 -35t-42 -94q0 -60 37.5 -95.5
t109.5 -35.5h27v-62h-27q-79 0 -120 -39t-41 -104q0 -62 44.5 -102t119.5 -40q79 0 122 49.5t45 134.5h-87v60h221v-60z" />
    <glyph glyph-name="quotesingle" unicode="'" horiz-adv-x="235" 
d="M173 615l-37 -178h-36l-38 178q-2 16 -2 20q0 24 16.5 40.5t40.5 16.5q25 0 41.5 -16.5t16.5 -40.5q0 -12 -2 -20z" />
    <glyph glyph-name="parenleft" unicode="(" horiz-adv-x="310" 
d="M122.5 9.5q-57.5 112.5 -57.5 261.5q0 150 57.5 262.5t158.5 200.5l39 -37q-95 -91 -143 -193.5t-48 -232.5t48 -232t143 -193l-39 -37q-101 88 -158.5 200.5z" />
    <glyph glyph-name="parenright" unicode=")" horiz-adv-x="310" 
d="M187.5 9.5q57.5 112.5 57.5 261.5q0 150 -57.5 262.5t-158.5 200.5l-39 -37q95 -91 143 -193.5t48 -232.5t-48 -232t-143 -193l39 -37q101 88 158.5 200.5z" />
    <glyph glyph-name="asterisk" unicode="*" horiz-adv-x="429" 
d="M80 388l103 132l-153 44l16 48l150 -57l-7 162h52l-7 -162l149 57l16 -48l-153 -44l103 -132l-43 -30l-91 139l-92 -139z" />
    <glyph glyph-name="plus" unicode="+" horiz-adv-x="504" 
d="M221 285h-166v58h166v169h62v-169h166v-58h-166v-167h-62v167z" />
    <glyph glyph-name="comma" unicode="," horiz-adv-x="292" 
d="M83 -115v34q20 -2 30 -2q22 0 37 12t20 32q5 12 5 30l-1 19q-13 -14 -36 -14q-25 0 -41.5 16t-16.5 42t17 43t44 17q34 0 58.5 -28.5t24.5 -78.5q0 -57 -30 -91t-82 -34q-15 0 -29 3z" />
    <glyph glyph-name="hyphen" unicode="-" horiz-adv-x="412" 
d="M55 289h301v-58h-301v58z" />
    <glyph glyph-name="period" unicode="." horiz-adv-x="283" 
d="M98 12q-18 18 -18 43q0 26 18 44t43 18q26 0 44 -18t18 -44q0 -25 -18 -43t-44 -18q-25 0 -43 18z" />
    <glyph glyph-name="slash" unicode="/" horiz-adv-x="426" 
d="M15 -38l343 795l53 -22l-343 -795z" />
    <glyph glyph-name="zero" unicode="0" horiz-adv-x="607" 
d="M114.5 79.5q-64.5 89.5 -64.5 261.5t64.5 261.5t188.5 89.5t189 -89.5t65 -261.5t-65 -261.5t-189 -89.5t-188.5 89.5zM493 341q0 145 -47.5 218t-142.5 73q-94 0 -141.5 -73t-47.5 -218t47.5 -218.5t141.5 -73.5q190 0 190 292z" />
    <glyph glyph-name="one" unicode="1" horiz-adv-x="361" 
d="M176 506h-138v58q58 0 88.5 11t42.5 35.5t12 69.5h62v-680h-67v506z" />
    <glyph glyph-name="two" unicode="2" horiz-adv-x="558" 
d="M93.5 181q38.5 67 132.5 113l109 54q101 50 101 155q0 57 -38 92.5t-99 35.5q-74 0 -116.5 -46t-42.5 -125h-69q0 69 28 121t80 80.5t120 28.5q95 0 151.5 -50t56.5 -134q0 -135 -132 -203l-109 -55q-70 -35 -99 -76.5t-34 -110.5h377v-61h-455q0 114 38.5 181z" />
    <glyph glyph-name="three" unicode="3" horiz-adv-x="553" 
d="M106 46.5q-63 56.5 -63 154.5h68q0 -71 44.5 -112t121.5 -41q72 0 115.5 37.5t43.5 99.5q0 65 -42.5 101.5t-117.5 36.5h-53v59h53q69 0 107.5 33.5t38.5 93.5q0 56 -40 90t-105 34q-70 0 -112 -37t-42 -100h-66q0 88 60 141t159 53q64 0 112.5 -22.5t75 -63t26.5 -94.5
q0 -62 -34 -102.5t-99 -54.5q41 -3 74.5 -26t52.5 -60.5t19 -81.5q0 -58 -28.5 -102t-80 -68.5t-117.5 -24.5q-108 0 -171 56.5z" />
    <glyph glyph-name="four" unicode="4" horiz-adv-x="567" 
d="M530 230h-115v-231h-67v231h-278v450h67v-389h211v211h67v-211h115v-61z" />
    <glyph glyph-name="five" unicode="5" horiz-adv-x="569" 
d="M177 13q-50 23 -79 64t-32 94h68q3 -55 46 -88t112 -33q77 0 122 48t45 131q0 81 -41.5 127t-114.5 46q-63 0 -100 -22.5t-59 -71.5h-64v372h401v-61h-340v-242q24 39 68 60t102 21q98 0 155.5 -61t57.5 -166q0 -71 -29 -125.5t-82 -85t-122 -30.5q-64 0 -114 23z" />
    <glyph glyph-name="six" unicode="6" horiz-adv-x="563" 
d="M404 436q53 -32 82 -87t29 -121q0 -67 -29 -121.5t-82 -86.5t-124 -32q-70 0 -123 32t-82 86.5t-29 121.5q0 44 13.5 84.5t38.5 71.5l199 296h81l-151 -217q28 5 53 5q71 0 124 -32zM371 71q39 24 59.5 65t20.5 92t-20.5 92t-59.5 65t-91 24t-90.5 -24t-59 -65t-20.5 -92
t20.5 -92t59 -65t90.5 -24t91 24z" />
    <glyph glyph-name="seven" unicode="7" horiz-adv-x="499" 
d="M397 618h-352v62h454l-362 -680h-74z" />
    <glyph glyph-name="eight" unicode="8" horiz-adv-x="567" 
d="M160.5 14q-52.5 24 -81.5 67.5t-29 101.5q0 65 35.5 109.5t97.5 58.5q-56 14 -89.5 57.5t-33.5 102.5q0 53 28 94t78.5 63t116.5 22t117 -22t79 -63t28 -94q0 -59 -34 -102.5t-90 -57.5q62 -14 98 -58.5t36 -109.5q0 -58 -29 -101.5t-82 -67.5t-123 -24t-122.5 24z
M396 413.5q42 34.5 42 92.5q0 59 -42.5 94t-112.5 35t-112 -35.5t-42 -93.5t42.5 -92.5t111.5 -34.5q71 0 113 34.5zM403.5 86q45.5 38 45.5 100q0 64 -45 101.5t-121 37.5q-74 0 -119.5 -38t-45.5 -101q0 -62 45.5 -100t119.5 -38q75 0 120.5 38z" />
    <glyph glyph-name="nine" unicode="9" horiz-adv-x="543" 
d="M139 244q-53 32 -82 87t-29 121q0 67 29 121.5t82 86.5t124 32q70 0 123 -32t82 -86.5t29 -121.5q0 -44 -13.5 -84.5t-38.5 -71.5l-199 -296h-81l151 217q-28 -5 -53 -5q-71 0 -124 32zM172 609q-39 -24 -59.5 -65t-20.5 -92t20.5 -92t59.5 -65t91 -24t90.5 24t59 65
t20.5 92t-20.5 92t-59 65t-90.5 24t-91 -24z" />
    <glyph glyph-name="colon" unicode=":" horiz-adv-x="283" 
d="M98 12q-18 18 -18 43q0 26 18 44t43 18q26 0 44 -18t18 -44q0 -25 -18 -43t-44 -18q-25 0 -43 18zM98 360q-18 18 -18 43q0 26 18 44t43 18q26 0 44 -18t18 -44q0 -25 -18 -43t-44 -18q-25 0 -43 18z" />
    <glyph glyph-name="semicolon" unicode=";" horiz-adv-x="292" 
d="M83 -115v34q20 -2 30 -2q22 0 37 12t20 32q5 12 5 30l-1 19q-13 -14 -36 -14q-25 0 -41.5 16t-16.5 42t17 43t44 17q34 0 58.5 -28.5t24.5 -78.5q0 -57 -30 -91t-82 -34q-15 0 -29 3zM98 360q-18 18 -18 43q0 26 18 44t43 18q26 0 44 -18t18 -44q0 -25 -18 -43t-44 -18
q-25 0 -43 18z" />
    <glyph glyph-name="less" unicode="&#x3c;" horiz-adv-x="501" 
d="M55 295v48l391 171v-62l-301 -133l301 -133v-62z" />
    <glyph glyph-name="equal" unicode="=" horiz-adv-x="534" 
d="M55 431h424v-58h-424v58zM55 254h424v-58h-424v58z" />
    <glyph glyph-name="greater" unicode="&#x3e;" horiz-adv-x="501" 
d="M446 295v48l-391 171v-62l301 -133l-301 -133v-62z" />
    <glyph glyph-name="question" unicode="?" horiz-adv-x="475" 
d="M182 218q0 51 14.5 81.5t52.5 57.5l54 37q73 51 73 135q0 57 -37.5 92.5t-104.5 35.5q-71 0 -112.5 -43.5t-41.5 -119.5h-67q0 103 60.5 163t163.5 60q99 0 153.5 -52t54.5 -134q0 -60 -26.5 -101.5t-71.5 -74.5l-49 -35q-29 -21 -40.5 -42.5t-11.5 -60.5v-19h-64v20z
M170.5 11.5q-17.5 17.5 -17.5 43.5t17.5 44t43.5 18q25 0 43 -18t18 -44q0 -25 -17.5 -43t-43.5 -18t-43.5 17.5z" />
    <glyph glyph-name="at" unicode="@" horiz-adv-x="894" 
d="M233 -144.5q-94 51.5 -143.5 144t-49.5 212.5q0 123 51.5 215t146 142t219.5 50q118 0 207.5 -45.5t139.5 -138.5t50 -230q0 -112 -37.5 -178t-113.5 -66q-61 0 -90 33.5t-36 106.5q-19 -42 -60 -68.5t-98 -26.5q-59 0 -104.5 28t-70.5 74.5t-25 101.5q0 56 25.5 103.5
t71.5 75.5t104 28q55 0 96.5 -26t60.5 -69v86h55v-282q0 -68 20 -93.5t55 -25.5q43 0 68.5 51t25.5 144q0 186 -92 277.5t-253 91.5q-110 0 -192.5 -44t-126.5 -125.5t-44 -190.5q0 -106 43 -187t125.5 -126t195.5 -45q124 0 218 61l22 -44q-105 -66 -241 -66
q-129 0 -223 51.5zM504.5 77q34.5 21 53.5 56.5t19 77.5t-19 78t-54 57t-79 21t-78.5 -21t-53.5 -56.5t-19 -78.5q0 -42 19 -77.5t53 -56.5t79 -21t79.5 21z" />
    <glyph glyph-name="A" unicode="A" horiz-adv-x="577" 
d="M443 126h-310l-40 -126h-73l238 700h61l238 -700h-73zM424 187l-136 422l-135 -422h271z" />
    <glyph glyph-name="B" unicode="B" horiz-adv-x="579" 
d="M489.5 301.5q39.5 -44.5 39.5 -114.5q0 -87 -57 -137t-154 -50h-233v700h227q97 0 153.5 -48t56.5 -133q0 -68 -35 -110t-96 -54q59 -9 98.5 -53.5zM152 640v-257h170q59 0 96 35t37 94q0 60 -39 94t-107 34h-157zM423 95q39 35 39 98q0 58 -37 94t-94 36h-179v-263h165
q67 0 106 35z" />
    <glyph glyph-name="C" unicode="C" horiz-adv-x="774" 
d="M209.5 33.5q-81.5 48.5 -125.5 131.5t-44 185t44 185t125.5 131.5t191.5 48.5q135 0 221 -65t109 -170h-73q-23 80 -88.5 127t-168.5 47q-89 0 -155 -40t-101 -109t-35 -155t35 -155t101 -109t155 -40q103 0 168.5 47t88.5 127h73q-23 -105 -109 -170t-221 -65
q-110 0 -191.5 48.5z" />
    <glyph glyph-name="D" unicode="D" horiz-adv-x="687" 
d="M85 700h209q111 0 192.5 -49t123.5 -129t42 -172t-42 -172t-123.5 -129t-192.5 -49h-209v700zM289 61q94 0 160.5 40.5t100.5 106.5t34 142t-34 142t-100.5 106.5t-160.5 40.5h-137v-578h137z" />
    <glyph glyph-name="E" unicode="E" horiz-adv-x="547" 
d="M85 700h391v-61h-324v-261h324v-61h-324v-256h324v-61h-391v700z" />
    <glyph glyph-name="F" unicode="F" horiz-adv-x="534" 
d="M85 700h391v-61h-324v-284h324v-61h-324v-294h-67v700z" />
    <glyph glyph-name="G" unicode="G" horiz-adv-x="824" 
d="M801 267h-77q-20 -131 -103.5 -206.5t-222.5 -75.5q-110 0 -191 48t-124 130.5t-43 184.5q1 102 43 185.5t123 132.5t192 49q77 0 140.5 -26.5t105 -73t53.5 -106.5h-73q-20 66 -80 105.5t-146 39.5q-91 0 -156 -40t-98.5 -109.5t-33.5 -156.5q0 -84 34.5 -153t99.5 -109
t154 -40q110 0 174 58t82 163h-204v61h351v-61z" />
    <glyph glyph-name="H" unicode="H" horiz-adv-x="666" 
d="M85 700h67v-322h362v322h67v-700h-67v317h-362v-317h-67v700z" />
    <glyph glyph-name="I" unicode="I" horiz-adv-x="237" 
d="M85 700h67v-700h-67v700z" />
    <glyph glyph-name="J" unicode="J" horiz-adv-x="537" 
d="M134.5 12.5q-51.5 27.5 -80.5 79.5t-29 124h67q0 -80 44.5 -125t115.5 -45q70 0 111 47t41 128v479h67v-479q0 -110 -59.5 -173t-159.5 -63q-66 0 -117.5 27.5z" />
    <glyph glyph-name="K" unicode="K" horiz-adv-x="584" 
d="M218 352l349 -352h-89l-326 336v-336h-67v700h67v-336l327 336h88z" />
    <glyph glyph-name="L" unicode="L" horiz-adv-x="510" 
d="M85 700h67v-636h315v-64h-382v700z" />
    <glyph glyph-name="M" unicode="M" horiz-adv-x="814" 
d="M85 700h65l257 -606l257 606h65v-700h-65v558l-230 -558h-54l-230 561v-561h-65v700z" />
    <glyph glyph-name="N" unicode="N" horiz-adv-x="661" 
d="M85 700h72l354 -589v589h64v-700h-72l-353 589v-589h-65v700z" />
    <glyph glyph-name="O" unicode="O" horiz-adv-x="800" 
d="M209.5 35q-81.5 50 -125.5 133.5t-44 181.5t44 181.5t125.5 133.5t190.5 50t190.5 -50t125.5 -133.5t44 -181.5t-44 -181.5t-125.5 -133.5t-190.5 -50t-190.5 50zM554 87.5q66 41.5 101 111t35 151.5t-35 151.5t-101 111t-154 41.5t-154 -41.5t-101 -111t-35 -151.5
t35 -151.5t101 -111t154 -41.5t154 41.5z" />
    <glyph glyph-name="P" unicode="P" horiz-adv-x="577" 
d="M447.5 669.5q52.5 -30.5 82 -85t29.5 -122.5q0 -69 -29.5 -123.5t-82 -85t-118.5 -30.5h-177v-223h-67v700h244q66 0 118.5 -30.5zM411 307q38 23 59.5 63.5t21.5 91.5q0 50 -21.5 90.5t-59.5 63.5t-86 23h-173v-355h173q48 0 86 23z" />
    <glyph glyph-name="Q" unicode="Q" horiz-adv-x="800" 
d="M726.5 189q-33.5 -75 -97.5 -127t-150 -69l83 -108l-59 -29l-99 129h-4q-109 0 -190.5 50t-125.5 133.5t-44 181.5t44 181.5t125.5 133.5t190.5 50t190.5 -50t125.5 -133.5t44 -181.5q0 -86 -33.5 -161zM554 87.5q66 41.5 101 111t35 151.5t-35 151.5t-101 111t-154 41.5
t-154 -41.5t-101 -111t-35 -151.5t35 -151.5t101 -111t154 -41.5t154 41.5z" />
    <glyph glyph-name="R" unicode="R" horiz-adv-x="604" 
d="M516 318q-43 -61 -114 -84l148 -234h-77l-140 223h-4h-177v-223h-67v700h244q66 0 118.5 -30.5t82 -85t29.5 -122.5q0 -83 -43 -144zM152 284h173q48 0 86 23t59.5 63.5t21.5 91.5q0 50 -21.5 90.5t-59.5 63.5t-86 23h-173v-355z" />
    <glyph glyph-name="S" unicode="S" horiz-adv-x="561" 
d="M107 47q-67 62 -67 170h67q0 -79 49.5 -125.5t133.5 -46.5q76 0 117.5 35t41.5 98q0 52 -29.5 84.5t-91.5 49.5l-118 36q-149 41 -149 182q0 54 27.5 96t77 65.5t113.5 23.5q102 0 162 -56.5t60 -153.5h-67q0 72 -41.5 111.5t-115.5 39.5q-68 0 -108 -33.5t-40 -88.5
q0 -52 31.5 -84.5t98.5 -51.5l114 -34q70 -20 106.5 -66.5t36.5 -118.5q0 -89 -61 -141.5t-165 -52.5q-116 0 -183 62z" />
    <glyph glyph-name="T" unicode="T" horiz-adv-x="510" 
d="M221 636h-213v64h495v-64h-215v-636h-67v636z" />
    <glyph glyph-name="U" unicode="U" horiz-adv-x="630" 
d="M132.5 48.5q-67.5 63.5 -67.5 179.5v472h67v-469q0 -89 49 -137t134 -48t134 48t49 137v469h67v-472q0 -116 -67.5 -179.5t-182.5 -63.5t-182.5 63.5z" />
    <glyph glyph-name="V" unicode="V" horiz-adv-x="556" 
d="M3 700h72l203 -597l203 597h72l-242 -700h-65z" />
    <glyph glyph-name="W" unicode="W" horiz-adv-x="943" 
d="M5 700h71l193 -591l176 591h53l175 -591l194 591h71l-237 -700h-52l-178 585l-177 -585h-52z" />
    <glyph glyph-name="X" unicode="X" horiz-adv-x="592" 
d="M258 350l-233 350h76l195 -295l195 295h76l-233 -350l233 -350h-76l-195 294l-195 -294h-76z" />
    <glyph glyph-name="Y" unicode="Y" horiz-adv-x="542" 
d="M552 700l-357 -700h-74l141 277l-267 423h78l224 -354l181 354h74z" />
    <glyph glyph-name="Z" unicode="Z" horiz-adv-x="565" 
d="M412 639h-355v61h468l-384 -639h388v-61h-504z" />
    <glyph glyph-name="bracketleft" unicode="[" horiz-adv-x="284" 
d="M85 733h192v-54h-133v-819h133v-53h-192v926z" />
    <glyph glyph-name="backslash" unicode="\" horiz-adv-x="426" 
d="M411 -38l-343 795l-53 -22l343 -795z" />
    <glyph glyph-name="bracketright" unicode="]" horiz-adv-x="284" 
d="M199 733h-192v-54h133v-819h-133v-53h192v926z" />
    <glyph glyph-name="asciicircum" unicode="^" horiz-adv-x="538" 
d="M243 705h48l197 -402h-73l-147 322l-147 -322h-71z" />
    <glyph glyph-name="underscore" unicode="_" horiz-adv-x="510" 
d="M0 -168h510v-47h-510v47z" />
    <glyph glyph-name="grave" unicode="`" horiz-adv-x="600" 
d="M35 653l37 39l163 -143l-37 -38z" />
    <glyph glyph-name="a" unicode="a" horiz-adv-x="590" 
d="M146.5 19q-51.5 31 -79 85.5t-27.5 122.5t28 122.5t80 86t121 31.5q62 0 109 -30t69 -81v99h63v-455h-63v98q-22 -49 -70.5 -79.5t-108.5 -30.5q-70 0 -121.5 31zM368.5 70.5q39.5 24.5 60.5 66t21 90.5q0 50 -21 91.5t-60.5 66t-93.5 24.5q-77 0 -124 -51.5t-47 -130.5
q0 -52 21 -93t60 -64.5t90 -23.5q54 0 93.5 24.5z" />
    <glyph glyph-name="b" unicode="b" horiz-adv-x="590" 
d="M442.5 436.5q50.5 -30.5 79 -85t28.5 -124.5q0 -69 -29 -123.5t-81 -85t-117 -30.5q-60 0 -108 30t-71 80v-98h-64v700h64v-344q22 52 71.5 81.5t111.5 29.5q65 0 115.5 -30.5zM403.5 69.5q38.5 23.5 60.5 64.5t22 93t-22 93.5t-60.5 65t-87.5 23.5q-51 0 -90.5 -23.5
t-62 -65t-22.5 -93.5t22.5 -93t62.5 -64.5t90 -23.5q49 0 87.5 23.5z" />
    <glyph glyph-name="c" unicode="c" horiz-adv-x="516" 
d="M147 18q-51 30 -79 84.5t-28 124.5t28 124.5t79 84.5t119 30q89 0 145 -44.5t65 -120.5h-65q-9 52 -46.5 79.5t-98.5 27.5q-75 0 -118.5 -49t-43.5 -132t43.5 -132t118.5 -49q60 0 98 27.5t47 77.5h65q-9 -74 -65 -118.5t-145 -44.5q-68 0 -119 30z" />
    <glyph glyph-name="d" unicode="d" horiz-adv-x="590" 
d="M510 700v-700h-63v98q-22 -49 -70.5 -79.5t-108.5 -30.5q-70 0 -121.5 31t-79 85.5t-27.5 122.5t28 122.5t80 86t121 31.5q62 0 109 -30t69 -81v344h63zM368.5 70.5q39.5 24.5 60.5 66t21 90.5q0 50 -21 91.5t-60.5 66t-93.5 24.5q-77 0 -124 -51.5t-47 -130.5
q0 -52 21 -93t60 -64.5t90 -23.5q54 0 93.5 24.5z" />
    <glyph glyph-name="e" unicode="e" horiz-adv-x="515" 
d="M473 213h-368q0 -77 43 -122.5t117 -45.5q51 0 87.5 22t51.5 61h65q-14 -62 -70 -101t-134 -39q-68 0 -119 29.5t-78.5 84t-27.5 126.5t27.5 126t77.5 83.5t116 29.5q63 0 111.5 -27t75.5 -75t27 -109q0 -11 -2 -43zM412 264q-1 68 -41 109.5t-110 41.5q-67 0 -109 -41.5
t-47 -109.5h307z" />
    <glyph glyph-name="f" unicode="f" horiz-adv-x="341" 
d="M211.5 628.5q-24.5 -19.5 -24.5 -78.5v-95h139v-55h-139v-400h-64v400h-100v55h100v92q0 92 41 125.5t95 33.5q41 0 67 -12v-56q-32 10 -52 10q-38 0 -62.5 -19.5z" />
    <glyph glyph-name="g" unicode="g" horiz-adv-x="590" 
d="M510 455v-452q0 -61 -19.5 -108.5t-57.5 -76.5q-55 -45 -157 -45q-49 0 -91.5 11.5t-71.5 34.5q-29 22 -45 52.5t-17 64.5h66q4 -47 45.5 -77.5t113.5 -30.5q84 0 127 43t43 128v99q-22 -51 -70.5 -80.5t-107.5 -29.5q-67 0 -119 31.5t-80.5 86t-28.5 121.5t29.5 122
t81.5 86.5t118 31.5q61 0 108 -29.5t69 -81.5v99h64zM366 70q40 24 62 65.5t22 91.5q0 51 -22 92.5t-61.5 65.5t-91.5 24q-49 0 -88 -23.5t-61 -65t-22 -93.5q0 -51 22 -92.5t61 -65t88 -23.5q51 0 91 24z" />
    <glyph glyph-name="h" unicode="h" horiz-adv-x="565" 
d="M446.5 417.5q43.5 -49.5 43.5 -143.5v-274h-64v249q0 82 -32 122t-98 40q-73 0 -111 -48.5t-38 -130.5v-232h-64v700h64v-349q16 53 60 84.5t110 31.5q86 0 129.5 -49.5z" />
    <glyph glyph-name="i" unicode="i" horiz-adv-x="224" 
d="M80 455h64v-455h-64v455zM69.5 564q-16.5 17 -16.5 42q0 26 16.5 43t42.5 17t43 -17t17 -43q0 -25 -17 -42t-43 -17t-42.5 17z" />
    <glyph glyph-name="j" unicode="j" horiz-adv-x="227" 
d="M-29 -210v60q24 -10 52 -10q29 0 44.5 20t15.5 57v538h64v-554q0 -58 -29.5 -90t-83.5 -32q-40 0 -63 11zM72.5 564q-16.5 17 -16.5 42q0 26 16.5 43t42.5 17t43 -17t17 -43q0 -25 -17 -42t-43 -17t-42.5 17z" />
    <glyph glyph-name="k" unicode="k" horiz-adv-x="492" 
d="M216 233l246 -233h-87l-231 220v-220h-64v700h64v-461l234 216h84z" />
    <glyph glyph-name="l" unicode="l" horiz-adv-x="224" 
d="M80 700h64v-700h-64v700z" />
    <glyph glyph-name="m" unicode="m" horiz-adv-x="831" 
d="M80 455h64v-102q13 48 50 81t96 33t98 -29t51 -85q14 49 55.5 81.5t98.5 32.5q80 0 121.5 -46t41.5 -133v-288h-63v275q0 70 -30.5 103t-83.5 33q-61 0 -95 -47t-34 -131v-233h-64v262q0 149 -114 149q-62 0 -95 -48.5t-33 -129.5v-233h-64v455z" />
    <glyph glyph-name="n" unicode="n" horiz-adv-x="563" 
d="M80 455h64v-104q17 53 60.5 84.5t110.5 31.5q86 0 129.5 -49.5t43.5 -143.5v-274h-64v249q0 82 -32 122t-98 40q-73 0 -111.5 -48.5t-38.5 -130.5v-232h-64v455z" />
    <glyph glyph-name="o" unicode="o" horiz-adv-x="549" 
d="M151 20q-53 32 -82 86.5t-29 121.5q0 66 29 120.5t82 86.5t123 32q71 0 124 -32t82 -86.5t29 -120.5q0 -67 -29 -121.5t-82 -86.5t-124 -32q-70 0 -123 32zM365 71q39 24 59.5 65t20.5 92t-20.5 92t-59.5 65t-91 24t-90.5 -24t-59 -65.5t-20.5 -92.5q0 -50 20.5 -91
t59 -65t90.5 -24t91 24z" />
    <glyph glyph-name="p" unicode="p" horiz-adv-x="590" 
d="M442.5 436.5q50.5 -30.5 79 -85t28.5 -124.5q0 -69 -29 -123.5t-81 -85t-117 -30.5q-60 0 -108 30t-71 80v-313h-64v670h64v-99q22 52 71.5 81.5t111.5 29.5q65 0 115.5 -30.5zM403.5 69.5q38.5 23.5 60.5 64.5t22 93t-22 93.5t-60.5 65t-87.5 23.5q-51 0 -90.5 -23.5
t-62 -65t-22.5 -93.5t22.5 -93t62.5 -64.5t90 -23.5q49 0 87.5 23.5z" />
    <glyph glyph-name="q" unicode="q" horiz-adv-x="590" 
d="M510 455v-670h-63v313q-22 -49 -70.5 -79.5t-108.5 -30.5q-70 0 -121.5 31t-79 85.5t-27.5 122.5t28 122.5t80 86t121 31.5q62 0 109 -30t69 -81v99h63zM368.5 70.5q39.5 24.5 60.5 66t21 90.5q0 50 -21 91.5t-60.5 66t-93.5 24.5q-77 0 -124 -51.5t-47 -130.5
q0 -52 21 -93t60 -64.5t90 -23.5q54 0 93.5 24.5z" />
    <glyph glyph-name="r" unicode="r" horiz-adv-x="355" 
d="M80 455h64v-120q15 64 55.5 96.5t91.5 32.5q28 0 41 -4v-59q-21 3 -43 3q-73 0 -109 -61.5t-36 -145.5v-197h-64v455z" />
    <glyph glyph-name="s" unicode="s" horiz-adv-x="442" 
d="M128 7.5q-42 19.5 -65 52.5t-23 73h64q0 -39 33.5 -65.5t91.5 -26.5q47 0 75 20.5t28 57.5q0 29 -17 47t-60 29l-95 24q-106 27 -106 122q0 57 46.5 91.5t119.5 34.5q79 0 124.5 -35.5t45.5 -96.5h-63q-1 38 -30.5 59.5t-80.5 21.5q-43 0 -71 -19t-28 -54q0 -54 77 -73
l96 -26q53 -13 80 -44.5t27 -77.5q0 -64 -46 -99t-125 -35q-56 0 -98 19.5z" />
    <glyph glyph-name="t" unicode="t" horiz-adv-x="346" 
d="M316 59v-57q-27 -8 -74 -8q-57 0 -94 30t-37 124v252h-89v55h89v152h63v-152h126v-55h-126v-239q0 -65 20.5 -86.5t60.5 -21.5q39 0 61 6z" />
    <glyph glyph-name="u" unicode="u" horiz-adv-x="563" 
d="M123.5 37.5q-48.5 49.5 -48.5 143.5v274h64v-260q0 -70 31.5 -110t99.5 -40q50 0 83.5 24.5t49 63.5t15.5 81v241h64v-455h-64v103q-17 -50 -60.5 -82.5t-104.5 -32.5q-81 0 -129.5 49.5z" />
    <glyph glyph-name="v" unicode="v" horiz-adv-x="473" 
d="M5 455h69l162 -369l163 369h69l-205 -455h-53z" />
    <glyph glyph-name="w" unicode="w" horiz-adv-x="726" 
d="M10 455h70l125 -364l123 364h69l123 -364l126 364h70l-169 -455h-56l-129 376l-128 -376h-55z" />
    <glyph glyph-name="x" unicode="x" horiz-adv-x="470" 
d="M197 228l-173 227h79l131 -179l133 179h79l-174 -227l175 -228h-79l-134 182l-133 -182h-78z" />
    <glyph glyph-name="y" unicode="y" horiz-adv-x="567" 
d="M487 455v-470q0 -111 -64 -166q-54 -46 -144 -46q-98 0 -153 46q-50 43 -51 117h65q2 -49 34.5 -78.5t103.5 -29.5q145 0 145 161v112q-20 -50 -64 -81t-106 -31q-91 0 -134.5 52.5t-43.5 149.5v264h64v-252q0 -77 30 -116.5t104 -39.5q49 0 82.5 25t50.5 65t17 85v233
h64z" />
    <glyph glyph-name="z" unicode="z" horiz-adv-x="436" 
d="M308 400h-270v55h381l-289 -400h282v-55h-392z" />
    <glyph glyph-name="braceleft" unicode="{" horiz-adv-x="309" 
d="M186 -178q-30 16 -49.5 47t-19.5 76v204q0 31 -15.5 52t-37 31.5t-39.5 10.5v54q18 0 39.5 10.5t37 31.5t15.5 52v204q0 45 19.5 76t49.5 47t63 16h53v-53h-45q-38 0 -59.5 -27t-21.5 -70v-201q0 -50 -27 -77t-61 -36q34 -9 61 -36t27 -77v-201q0 -43 21.5 -70t59.5 -27
h45v-53h-53q-33 0 -63 16z" />
    <glyph glyph-name="bar" unicode="|" horiz-adv-x="222" 
d="M85 733h52v-926h-52v926z" />
    <glyph glyph-name="braceright" unicode="}" horiz-adv-x="309" 
d="M123 -178q30 16 49.5 47t19.5 76v204q0 31 15.5 52t37 31.5t39.5 10.5v54q-18 0 -39.5 10.5t-37 31.5t-15.5 52v204q0 45 -19.5 76t-49.5 47t-63 16h-53v-53h45q38 0 59.5 -27t21.5 -70v-201q0 -50 27 -77t61 -36q-34 -9 -61 -36t-27 -77v-201q0 -43 -21.5 -70t-59.5 -27
h-45v-53h53q33 0 63 16z" />
    <glyph glyph-name="asciitilde" unicode="~" horiz-adv-x="539" 
d="M331.5 227.5q-24.5 8.5 -65.5 26.5q-68 33 -116 33q-25 0 -51.5 -14.5t-48.5 -37.5v60q22 26 49 38t54 12q25 0 53 -8.5t65 -23.5l21 -9q62 -27 87 -27q54 0 110 54v-59q-23 -25 -52.5 -39t-58.5 -14q-22 0 -46.5 8.5z" />
    <glyph glyph-name="uni00A0" unicode="&#xa0;" horiz-adv-x="270" 
 />
    <glyph glyph-name="exclamdown" unicode="&#xa1;" horiz-adv-x="254" 
d="M95 -215h64v502h-64v-502zM83.5 473.5q-17.5 -17.5 -17.5 -43.5t17.5 -44t42.5 -18q26 0 44 18t18 44t-18 43.5t-44 17.5q-25 0 -42.5 -17.5z" />
    <glyph glyph-name="cent" unicode="&#xa2;" horiz-adv-x="516" 
d="M364 185.5q38 27.5 47 77.5h65q-8 -69 -57 -112t-127 -50v-101h-51v101q-92 8 -146.5 73t-54.5 165t54.5 165t146.5 73v103h51v-103q78 -7 127 -50.5t57 -113.5h-65q-9 52 -46.5 79.5t-98.5 27.5q-75 0 -118.5 -49t-43.5 -132t43.5 -132t118.5 -49q60 0 98 27.5z" />
    <glyph glyph-name="sterling" unicode="&#xa3;" horiz-adv-x="514" 
d="M156.5 132.5q-15.5 -45.5 -41.5 -71.5h358v-61h-433v47q31 29 48 72t17 111v115h-67v50h67v81q0 107 54 161.5t148 54.5q92 0 144.5 -51.5t52.5 -138.5h-68q0 63 -33.5 98.5t-96.5 35.5q-69 0 -101.5 -41t-32.5 -125v-75h186v-50h-186v-103q0 -64 -15.5 -109.5z" />
    <glyph glyph-name="currency" unicode="&#xa4;" horiz-adv-x="582" 
d="M35 157l71 71q-46 60 -46 142t46 142l-70 71l40 41l71 -71q60 49 144 49t145 -48l70 70l41 -41l-70 -70q48 -60 48 -143t-48 -143l69 -70l-40 -41l-70 70q-60 -47 -145 -47q-83 0 -144 48l-71 -71zM380.5 220.5q38.5 23.5 59.5 63t21 86.5t-21 87t-59.5 63.5t-89.5 23.5
q-49 0 -87 -23.5t-59 -63.5t-21 -87t21 -86.5t59 -63t87 -23.5q51 0 89.5 23.5z" />
    <glyph glyph-name="yen" unicode="&#xa5;" horiz-adv-x="538" 
d="M305 273h155v-46h-157v-87h157v-47h-157v-93h-68v93h-158v47h158v87h-158v46h156l-218 407h76l178 -352l178 352h76z" />
    <glyph glyph-name="brokenbar" unicode="&#xa6;" horiz-adv-x="222" 
d="M85 733h52v-411h-52v411zM85 236h52v-429h-52v429z" />
    <glyph glyph-name="section" unicode="&#xa7;" horiz-adv-x="541" 
d="M384 94q44 -25 68.5 -61.5t24.5 -91.5q0 -80 -57 -123t-153 -43q-105 0 -160 49.5t-55 130.5h69q0 -57 36.5 -90t110.5 -33q64 0 101 27.5t37 79.5q0 43 -23 71t-56.5 44t-90.5 36q-61 22 -97 39.5t-61 49.5t-25 81q0 96 104 138q-44 25 -68.5 61t-24.5 90q0 78 57 123
t151 45q106 0 161.5 -50t55.5 -132h-71q0 57 -36.5 91t-108.5 34q-64 0 -101 -28t-37 -81q0 -42 23 -70t56.5 -44t90.5 -36q60 -21 96 -38.5t61 -49t25 -79.5q0 -95 -103 -140zM394.5 165q26.5 27 26.5 65q0 33 -20 55.5t-51 36.5t-83 31q-22 7 -49 17q-47 -15 -72.5 -42.5
t-25.5 -63.5q0 -33 20 -55.5t50.5 -37t81.5 -31.5l50 -18q46 16 72.5 43z" />
    <glyph glyph-name="dieresis" unicode="&#xa8;" horiz-adv-x="600" 
d="M86.5 563.5q-16.5 16.5 -16.5 39.5q0 25 16.5 41.5t39.5 16.5q25 0 41.5 -16.5t16.5 -41.5q0 -23 -16.5 -39.5t-41.5 -16.5q-23 0 -39.5 16.5zM283.5 563.5q-16.5 16.5 -16.5 39.5q0 25 16.5 41.5t39.5 16.5q25 0 41.5 -16.5t16.5 -41.5q0 -23 -16.5 -39.5t-41.5 -16.5
q-23 0 -39.5 16.5z" />
    <glyph glyph-name="copyright" unicode="&#xa9;" horiz-adv-x="799" 
d="M209.5 31.5q-81.5 48.5 -125.5 132.5t-44 186t44 186t125.5 132.5t190.5 48.5t190.5 -48.5t125 -132t43.5 -186.5t-43.5 -186.5t-125 -132t-190.5 -48.5t-190.5 48.5zM561 72.5q69 42.5 106.5 115.5t37.5 162t-37.5 162t-106.5 115.5t-161 42.5t-161.5 -42.5t-107 -115.5
t-37.5 -162t37.5 -162t107 -115.5t161.5 -42.5t161 42.5zM291.5 168q-47.5 29 -72.5 77t-25 105t25 105t72.5 77t111.5 29q76 0 124 -37.5t58 -98.5h-48q-9 42 -44.5 68t-89.5 26q-50 0 -87 -23t-56.5 -61.5t-19.5 -84.5t19.5 -84.5t56.5 -61.5t87 -23q54 0 89.5 26t44.5 67
h48q-10 -60 -58 -97.5t-124 -37.5q-64 0 -111.5 29z" />
    <glyph glyph-name="ordfeminine" unicode="&#xaa;" horiz-adv-x="366" 
d="M62.5 433.5q-37.5 39.5 -37.5 98.5q0 60 38 100t99 40q38 0 66 -17.5t41 -46.5v56h53v-263h-53v55q-13 -28 -41.5 -45t-66.5 -17q-61 0 -98.5 39.5zM244.5 465.5q26.5 27.5 26.5 66.5q0 40 -26.5 67.5t-70.5 27.5q-43 0 -69.5 -27.5t-26.5 -67.5q0 -39 27 -66.5t69 -27.5
q44 0 70.5 27.5z" />
    <glyph glyph-name="guillemotleft" unicode="&#xab;" horiz-adv-x="481" 
d="M8 261l204 188l38 -38l-163 -150l163 -150l-38 -38zM221 261l204 188l38 -38l-163 -150l163 -150l-38 -38z" />
    <glyph glyph-name="logicalnot" unicode="&#xac;" horiz-adv-x="504" 
d="M385 354h-330v58h394v-204h-64v146z" />
    <glyph glyph-name="uni00AD" unicode="&#xad;" horiz-adv-x="412" 
d="M55 289h301v-58h-301v58z" />
    <glyph glyph-name="registered" unicode="&#xae;" horiz-adv-x="590" 
d="M160.5 231.5q-58.5 34.5 -89.5 93.5t-31 132t31 132t89.5 93.5t135.5 34.5t134.5 -34.5t88.5 -93.5t31 -132t-31 -132t-88.5 -93.5t-134.5 -34.5t-135.5 34.5zM410 260.5q49 30.5 75.5 82t26.5 114.5t-26.5 114.5t-75.5 82t-114 30.5q-66 0 -115 -30t-75.5 -82
t-26.5 -115t26.5 -115t75.5 -82t115 -30q65 0 114 30.5zM206 602h104q41 0 67 -27.5t26 -66.5q0 -31 -18 -55.5t-48 -32.5l64 -100h-38l-61 96h-63v-96h-33v282zM308 446q27 0 44 18t17 44q0 27 -17 45.5t-44 18.5h-68v-126h68z" />
    <glyph glyph-name="macron" unicode="&#xaf;" horiz-adv-x="600" 
d="M77 607h317v-53h-317v53z" />
    <glyph glyph-name="degree" unicode="&#xb0;" horiz-adv-x="361" 
d="M103.5 412q-34.5 20 -54 54t-19.5 76t19.5 76t54 54t77.5 20q42 0 76 -20t53.5 -54t19.5 -76t-19.5 -76t-53.5 -54t-76 -20q-43 0 -77.5 20zM251 471q27 29 27 71t-27 70.5t-70 28.5q-45 0 -72 -28.5t-27 -70.5t27 -71t72 -29q43 0 70 29z" />
    <glyph glyph-name="plusminus" unicode="&#xb1;" horiz-adv-x="504" 
d="M220 388h-165v59h165v118h64v-118h165v-59h-165v-117h-64v117zM55 211h394v-57h-394v57z" />
    <glyph glyph-name="uni00B2" unicode="&#xb2;" horiz-adv-x="373" 
d="M62.5 508.5q23.5 39.5 81.5 67.5l67 32q58 26 58 82q0 30 -20.5 48t-54.5 18q-41 0 -64.5 -23.5t-23.5 -65.5h-57q0 61 39.5 97.5t104.5 36.5q62 0 98 -29.5t36 -79.5q0 -79 -80 -117l-66 -32q-38 -18 -54.5 -39.5t-19.5 -56.5h220v-47h-288q0 69 23.5 108.5z" />
    <glyph glyph-name="uni00B3" unicode="&#xb3;" horiz-adv-x="381" 
d="M81.5 426q-38.5 33 -38.5 92h57q0 -37 24 -58.5t66 -21.5q40 0 63.5 19.5t23.5 52.5q0 34 -23 53t-65 19h-37v44h37q39 0 60.5 17.5t21.5 49.5q0 29 -22 47t-58 18q-38 0 -61 -19.5t-23 -51.5h-57q0 51 38.5 82.5t103.5 31.5q62 0 99 -28.5t37 -76.5q0 -36 -21 -60
t-62 -32q39 -3 64 -30.5t25 -66.5q0 -51 -39.5 -82.5t-105.5 -31.5q-69 0 -107.5 33z" />
    <glyph glyph-name="acute" unicode="&#xb4;" horiz-adv-x="600" 
d="M99 549l163 143l37 -39l-163 -142z" />
    <glyph glyph-name="uni00B5" unicode="&#xb5;" horiz-adv-x="568" 
d="M487 455v-455h-64v103q-17 -50 -60.5 -82.5t-104.5 -32.5q-78 0 -114 53v-256h-64v670h64v-260q0 -70 31.5 -110t99.5 -40q50 0 83.5 24.5t49 63.5t15.5 81v241h64z" />
    <glyph glyph-name="paragraph" unicode="&#xb6;" horiz-adv-x="655" 
d="M266 329q-97 0 -156.5 48.5t-59.5 142.5q0 116 76.5 156.5t172.5 40.5h306v-55h-53v-810h-61v809h-164v-809h-61v477z" />
    <glyph glyph-name="periodcentered" unicode="&#xb7;" horiz-adv-x="283" 
d="M98 269q-18 18 -18 43q0 26 18 44t43 18q26 0 44 -18t18 -44q0 -25 -18.5 -43t-43.5 -18t-43 18z" />
    <glyph glyph-name="cedilla" unicode="&#xb8;" horiz-adv-x="600" 
d="M81.5 -195.5q-22.5 19.5 -24.5 50.5h38q1 -17 13.5 -27t31.5 -10q22 0 35 14t13 39q0 24 -12 38t-35 14q-29 0 -44 -24h-33v101h38v-67q6 9 20 14.5t30 5.5q32 0 54 -22.5t22 -59.5q0 -38 -23.5 -62t-65.5 -24q-35 0 -57.5 19.5z" />
    <glyph glyph-name="uni00B9" unicode="&#xb9;" horiz-adv-x="266" 
d="M125 682h-90v43q56 0 76 15t20 54h48v-394h-54v282z" />
    <glyph glyph-name="ordmasculine" unicode="&#xba;" horiz-adv-x="347" 
d="M66 433.5q-40 39.5 -40 99.5t40 99.5t107 39.5q68 0 108.5 -39.5t40.5 -99.5t-40.5 -99.5t-108.5 -39.5q-67 0 -107 39.5zM243 466q26 27 26 67t-26 67t-70 27q-43 0 -69.5 -27t-26.5 -67t26.5 -67t69.5 -27q44 0 70 27z" />
    <glyph glyph-name="guillemotright" unicode="&#xbb;" horiz-adv-x="481" 
d="M473 261l-204 188l-38 -38l163 -150l-163 -150l38 -38zM260 261l-204 188l-38 -38l163 -150l-163 -150l38 -38z" />
    <glyph glyph-name="onequarter" unicode="&#xbc;" horiz-adv-x="787" 
d="M125 568h-90v43q56 0 76 15t20 54h48v-394h-54v282zM76 14l472 682l44 -28l-472 -682zM751 127h-64v-128h-55v128h-171v267h55v-218h116v116h55v-116h64v-49z" />
    <glyph glyph-name="onehalf" unicode="&#xbd;" horiz-adv-x="766" 
d="M125 568h-90v43q56 0 76 15t20 54h48v-394h-54v282zM76 14l472 682l44 -28l-472 -682zM454.5 108.5q23.5 39.5 81.5 67.5l67 32q58 26 58 82q0 30 -20.5 48t-54.5 18q-41 0 -64.5 -23.5t-23.5 -65.5h-57q0 61 39.5 97.5t104.5 36.5q62 0 98 -29.5t36 -79.5
q0 -79 -80 -117l-66 -32q-38 -18 -54.5 -39.5t-19.5 -56.5h220v-47h-288q0 69 23.5 108.5z" />
    <glyph glyph-name="threequarters" unicode="&#xbe;" horiz-adv-x="883" 
d="M81.5 312q-38.5 33 -38.5 92h57q0 -37 24 -58.5t66 -21.5q40 0 63.5 19.5t23.5 52.5q0 34 -23 53t-65 19h-37v44h37q39 0 60.5 17.5t21.5 49.5q0 29 -22 47t-58 18q-38 0 -61 -19.5t-23 -51.5h-57q0 51 38.5 82.5t103.5 31.5q62 0 99 -28.5t37 -76.5q0 -36 -21 -60
t-62 -32q39 -3 64 -30.5t25 -66.5q0 -51 -39.5 -82.5t-105.5 -31.5q-69 0 -107.5 33zM173 14l472 682l44 -28l-472 -682zM848 127h-64v-128h-55v128h-171v267h55v-218h116v116h55v-116h64v-49z" />
    <glyph glyph-name="questiondown" unicode="&#xbf;" horiz-adv-x="475" 
d="M293 279q0 -51 -14.5 -81.5t-52.5 -57.5l-54 -37q-73 -51 -73 -135q0 -57 37.5 -92.5t104.5 -35.5q71 0 112.5 43.5t41.5 119.5h67q0 -103 -60.5 -163t-163.5 -60q-99 0 -153.5 52t-54.5 134q0 60 26.5 101.5t71.5 74.5l49 35q29 21 40.5 42.5t11.5 60.5v19h64v-20z
M304.5 485.5q17.5 -17.5 17.5 -43.5t-17.5 -44t-43.5 -18q-25 0 -43 18t-18 44q0 25 17.5 43t43.5 18t43.5 -17.5z" />
    <glyph glyph-name="Agrave" unicode="&#xc0;" horiz-adv-x="577" 
d="M388 730l-228 116l24 45l228 -115zM443 126h-310l-40 -126h-73l238 700h61l238 -700h-73zM424 187l-136 422l-135 -422h271z" />
    <glyph glyph-name="Aacute" unicode="&#xc1;" horiz-adv-x="577" 
d="M189 730l-24 46l228 115l24 -45zM443 126h-310l-40 -126h-73l238 700h61l238 -700h-73zM424 187l-136 422l-135 -422h271z" />
    <glyph glyph-name="Acircumflex" unicode="&#xc2;" horiz-adv-x="577" 
d="M192 738l-35 32l129 113l130 -113l-35 -32l-95 85zM443 126h-310l-40 -126h-73l238 700h61l238 -700h-73zM424 187l-136 422l-135 -422h271z" />
    <glyph glyph-name="Atilde" unicode="&#xc3;" horiz-adv-x="577" 
d="M172.5 801.5q-17.5 -9.5 -37.5 -39.5l-29 27q43 73 103 73q20 0 38.5 -8t46.5 -25q24 -14 39.5 -21t30.5 -7q22 0 41 10.5t37 38.5l30 -28q-41 -72 -108 -72q-22 0 -41.5 8.5t-44.5 24.5q-21 14 -36.5 21t-30.5 7q-21 0 -38.5 -9.5zM443 126h-310l-40 -126h-73l238 700
h61l238 -700h-73zM424 187l-136 422l-135 -422h271z" />
    <glyph glyph-name="Adieresis" unicode="&#xc4;" horiz-adv-x="577" 
d="M131.5 773.5q-16.5 16.5 -16.5 39.5q0 25 16.5 41.5t40.5 16.5t41 -16.5t17 -41.5q0 -23 -17 -39.5t-41 -16.5t-40.5 16.5zM365.5 773.5q-16.5 16.5 -16.5 39.5q0 25 16.5 41.5t40.5 16.5t41 -16.5t17 -41.5q0 -23 -17 -39.5t-41 -16.5t-40.5 16.5zM443 126h-310
l-40 -126h-73l238 700h61l238 -700h-73zM424 187l-136 422l-135 -422h271z" />
    <glyph glyph-name="Aring" unicode="&#xc5;" horiz-adv-x="577" 
d="M443 126h-310l-40 -126h-73l228 671q-35 13 -56.5 43t-21.5 67q0 49 34.5 83t84.5 34t85.5 -34.5t35.5 -82.5q0 -38 -22.5 -68t-58.5 -42l228 -671h-73zM236 728q22 -22 53 -22q32 0 54 21.5t22 53.5t-21.5 54t-54.5 22q-31 0 -53 -22t-22 -54q0 -31 22 -53zM424 187
l-136 422l-135 -422h271z" />
    <glyph glyph-name="AE" unicode="&#xc6;" horiz-adv-x="818" 
d="M464 639v-261h284v-61h-284v-256h284v-61h-351v128h-246l-63 -128h-73l353 700h380v-61h-284zM397 187v443l-217 -443h217z" />
    <glyph glyph-name="Ccedilla" unicode="&#xc7;" horiz-adv-x="774" 
d="M209.5 33.5q-81.5 48.5 -125.5 131.5t-44 185t44 185t125.5 131.5t191.5 48.5q135 0 221 -65t109 -170h-73q-23 80 -88.5 127t-168.5 47q-89 0 -155 -40t-101 -109t-35 -155t35 -155t101 -109t155 -40q103 0 168.5 47t88.5 127h73q-23 -105 -109 -170t-221 -65
q-110 0 -191.5 48.5zM399.5 -195.5q-22.5 19.5 -24.5 50.5h38q1 -17 13.5 -27t31.5 -10q22 0 35 14t13 39q0 24 -12 38t-35 14q-29 0 -44 -24h-33v101h38v-67q6 9 20 14.5t30 5.5q32 0 54 -22.5t22 -59.5q0 -38 -23.5 -62t-65.5 -24q-35 0 -57.5 19.5z" />
    <glyph glyph-name="Egrave" unicode="&#xc8;" horiz-adv-x="547" 
d="M159 846l24 45l228 -115l-24 -46zM85 700h391v-61h-324v-261h324v-61h-324v-256h324v-61h-391v700z" />
    <glyph glyph-name="Eacute" unicode="&#xc9;" horiz-adv-x="547" 
d="M164 776l228 115l24 -45l-228 -116zM85 700h391v-61h-324v-261h324v-61h-324v-256h324v-61h-391v700z" />
    <glyph glyph-name="Ecircumflex" unicode="&#xca;" horiz-adv-x="547" 
d="M415 770l-35 -32l-95 85l-94 -85l-35 32l129 113zM85 700h391v-61h-324v-261h324v-61h-324v-256h324v-61h-391v700z" />
    <glyph glyph-name="Edieresis" unicode="&#xcb;" horiz-adv-x="547" 
d="M130.5 773.5q-16.5 16.5 -16.5 39.5q0 25 16.5 41.5t40.5 16.5t41 -16.5t17 -41.5q0 -23 -17 -39.5t-41 -16.5t-40.5 16.5zM364.5 773.5q-16.5 16.5 -16.5 39.5q0 25 16.5 41.5t40.5 16.5t41 -16.5t17 -41.5q0 -23 -17 -39.5t-41 -16.5t-40.5 16.5zM85 700h391v-61h-324
v-261h324v-61h-324v-256h324v-61h-391v700z" />
    <glyph glyph-name="Igrave" unicode="&#xcc;" horiz-adv-x="237" 
d="M32 830l30 45l142 -85l-29 -45zM85 700h67v-700h-67v700z" />
    <glyph glyph-name="Iacute" unicode="&#xcd;" horiz-adv-x="237" 
d="M29 788l150 92l30 -44l-151 -92zM85 700h67v-700h-67v700z" />
    <glyph glyph-name="Icircumflex" unicode="&#xce;" horiz-adv-x="237" 
d="M118 814l-73 -66l-32 35l105 91l106 -91l-32 -35zM85 700h67v-700h-67v700z" />
    <glyph glyph-name="Idieresis" unicode="&#xcf;" horiz-adv-x="237" 
d="M17.5 774q-15.5 15 -15.5 39t15.5 39t38.5 15t38.5 -15t15.5 -39t-15.5 -39t-38.5 -15t-38.5 15zM143.5 774q-15.5 15 -15.5 39t15.5 39t38.5 15q24 0 39.5 -15t15.5 -39t-15.5 -39t-39.5 -15q-23 0 -38.5 15zM85 700h67v-700h-67v700z" />
    <glyph glyph-name="Eth" unicode="&#xd0;" horiz-adv-x="687" 
d="M486.5 651q81.5 -49 123.5 -129t42 -172t-42 -172t-123.5 -129t-192.5 -49h-209v324h-80v58h80v318h209q111 0 192.5 -49zM449.5 101.5q66.5 40.5 100.5 106.5t34 142t-34 142t-100.5 106.5t-160.5 40.5h-137v-257h144v-58h-144v-263h137q94 0 160.5 40.5z" />
    <glyph glyph-name="Ntilde" unicode="&#xd1;" horiz-adv-x="661" 
d="M364.5 758.5q-19.5 8.5 -44.5 24.5q-21 14 -36.5 21t-30.5 7q-21 0 -38.5 -9.5t-37.5 -39.5l-29 27q43 73 103 73q20 0 38.5 -8t46.5 -25q24 -14 39.5 -21t30.5 -7q22 0 41 10.5t37 38.5l30 -28q-41 -72 -108 -72q-22 0 -41.5 8.5zM85 700h72l354 -589v589h64v-700h-72
l-353 589v-589h-65v700z" />
    <glyph glyph-name="Ograve" unicode="&#xd2;" horiz-adv-x="800" 
d="M271 846l24 45l228 -115l-24 -46zM209.5 35q-81.5 50 -125.5 133.5t-44 181.5t44 181.5t125.5 133.5t190.5 50t190.5 -50t125.5 -133.5t44 -181.5t-44 -181.5t-125.5 -133.5t-190.5 -50t-190.5 50zM554 87.5q66 41.5 101 111t35 151.5t-35 151.5t-101 111t-154 41.5
t-154 -41.5t-101 -111t-35 -151.5t35 -151.5t101 -111t154 -41.5t154 41.5z" />
    <glyph glyph-name="Oacute" unicode="&#xd3;" horiz-adv-x="800" 
d="M276 776l228 115l24 -45l-228 -116zM209.5 35q-81.5 50 -125.5 133.5t-44 181.5t44 181.5t125.5 133.5t190.5 50t190.5 -50t125.5 -133.5t44 -181.5t-44 -181.5t-125.5 -133.5t-190.5 -50t-190.5 50zM554 87.5q66 41.5 101 111t35 151.5t-35 151.5t-101 111t-154 41.5
t-154 -41.5t-101 -111t-35 -151.5t35 -151.5t101 -111t154 -41.5t154 41.5z" />
    <glyph glyph-name="Ocircumflex" unicode="&#xd4;" horiz-adv-x="800" 
d="M527 770l-35 -32l-95 85l-94 -85l-35 32l129 113zM209.5 35q-81.5 50 -125.5 133.5t-44 181.5t44 181.5t125.5 133.5t190.5 50t190.5 -50t125.5 -133.5t44 -181.5t-44 -181.5t-125.5 -133.5t-190.5 -50t-190.5 50zM554 87.5q66 41.5 101 111t35 151.5t-35 151.5t-101 111
t-154 41.5t-154 -41.5t-101 -111t-35 -151.5t35 -151.5t101 -111t154 -41.5t154 41.5z" />
    <glyph glyph-name="Otilde" unicode="&#xd5;" horiz-adv-x="800" 
d="M433.5 758.5q-19.5 8.5 -44.5 24.5q-21 14 -36.5 21t-30.5 7q-21 0 -38.5 -9.5t-37.5 -39.5l-29 27q43 73 103 73q20 0 38.5 -8t46.5 -25q24 -14 39.5 -21t30.5 -7q22 0 41 10.5t37 38.5l30 -28q-41 -72 -108 -72q-22 0 -41.5 8.5zM209.5 35q-81.5 50 -125.5 133.5
t-44 181.5t44 181.5t125.5 133.5t190.5 50t190.5 -50t125.5 -133.5t44 -181.5t-44 -181.5t-125.5 -133.5t-190.5 -50t-190.5 50zM554 87.5q66 41.5 101 111t35 151.5t-35 151.5t-101 111t-154 41.5t-154 -41.5t-101 -111t-35 -151.5t35 -151.5t101 -111t154 -41.5t154 41.5z
" />
    <glyph glyph-name="Odieresis" unicode="&#xd6;" horiz-adv-x="800" 
d="M242.5 773.5q-16.5 16.5 -16.5 39.5q0 25 16.5 41.5t40.5 16.5t41 -16.5t17 -41.5q0 -23 -17 -39.5t-41 -16.5t-40.5 16.5zM476.5 773.5q-16.5 16.5 -16.5 39.5q0 25 16.5 41.5t40.5 16.5t41 -16.5t17 -41.5q0 -23 -17 -39.5t-41 -16.5t-40.5 16.5zM209.5 35
q-81.5 50 -125.5 133.5t-44 181.5t44 181.5t125.5 133.5t190.5 50t190.5 -50t125.5 -133.5t44 -181.5t-44 -181.5t-125.5 -133.5t-190.5 -50t-190.5 50zM554 87.5q66 41.5 101 111t35 151.5t-35 151.5t-101 111t-154 41.5t-154 -41.5t-101 -111t-35 -151.5t35 -151.5
t101 -111t154 -41.5t154 41.5z" />
    <glyph glyph-name="multiply" unicode="&#xd7;" horiz-adv-x="477" 
d="M280 314l142 -142l-41 -41l-143 142l-141 -141l-42 40l143 142l-143 143l41 41l142 -142l143 142l41 -40z" />
    <glyph glyph-name="Oslash" unicode="&#xd8;" horiz-adv-x="800" 
d="M709 545.5q51 -88.5 51 -195.5q0 -98 -44 -181.5t-125.5 -133.5t-190.5 -50q-63 0 -122 19l-34 -79l-47 21l33 77q-90 46 -140 133.5t-50 193.5q0 98 44 181.5t125.5 133.5t190.5 50q64 0 120 -18l32 75l46 -20l-32 -74q92 -44 143 -132.5zM148 192q38 -72 107 -110
l240 558q-45 14 -95 14q-88 0 -154 -41.5t-101 -111t-35 -151.5q0 -86 38 -158zM554 87.5q66 41.5 101 111t35 151.5q0 87 -39 159.5t-110 110.5l-239 -559q45 -15 98 -15q88 0 154 41.5z" />
    <glyph glyph-name="Ugrave" unicode="&#xd9;" horiz-adv-x="630" 
d="M186 846l24 45l228 -115l-24 -46zM132.5 48.5q-67.5 63.5 -67.5 179.5v472h67v-469q0 -89 49 -137t134 -48t134 48t49 137v469h67v-472q0 -116 -67.5 -179.5t-182.5 -63.5t-182.5 63.5z" />
    <glyph glyph-name="Uacute" unicode="&#xda;" horiz-adv-x="630" 
d="M191 776l228 115l24 -45l-228 -116zM132.5 48.5q-67.5 63.5 -67.5 179.5v472h67v-469q0 -89 49 -137t134 -48t134 48t49 137v469h67v-472q0 -116 -67.5 -179.5t-182.5 -63.5t-182.5 63.5z" />
    <glyph glyph-name="Ucircumflex" unicode="&#xdb;" horiz-adv-x="630" 
d="M442 770l-35 -32l-95 85l-94 -85l-35 32l129 113zM132.5 48.5q-67.5 63.5 -67.5 179.5v472h67v-469q0 -89 49 -137t134 -48t134 48t49 137v469h67v-472q0 -116 -67.5 -179.5t-182.5 -63.5t-182.5 63.5z" />
    <glyph glyph-name="Udieresis" unicode="&#xdc;" horiz-adv-x="630" 
d="M157.5 773.5q-16.5 16.5 -16.5 39.5q0 25 16.5 41.5t40.5 16.5t41 -16.5t17 -41.5q0 -23 -17 -39.5t-41 -16.5t-40.5 16.5zM391.5 773.5q-16.5 16.5 -16.5 39.5q0 25 16.5 41.5t40.5 16.5t41 -16.5t17 -41.5q0 -23 -17 -39.5t-41 -16.5t-40.5 16.5zM132.5 48.5
q-67.5 63.5 -67.5 179.5v472h67v-469q0 -89 49 -137t134 -48t134 48t49 137v469h67v-472q0 -116 -67.5 -179.5t-182.5 -63.5t-182.5 63.5z" />
    <glyph glyph-name="Yacute" unicode="&#xdd;" horiz-adv-x="542" 
d="M184 730l-24 46l228 115l24 -45zM552 700l-357 -700h-74l141 277l-267 423h78l224 -354l181 354h74z" />
    <glyph glyph-name="Thorn" unicode="&#xde;" horiz-adv-x="577" 
d="M450.5 550.5q52.5 -31.5 81 -84.5t28.5 -116t-28.5 -116t-81 -84t-121.5 -31h-177v-119h-67v700h67v-118h177q69 0 121.5 -31.5zM414 203q38 23 58.5 62t20.5 85q0 47 -20.5 86t-58.5 62t-88 23h-174v-341h174q50 0 88 23z" />
    <glyph glyph-name="germandbls" unicode="&#xdf;" horiz-adv-x="564" 
d="M205 0v58q36 -12 85 -12q72 0 116 38t44 104q0 38 -18 71t-55 54t-90 21h-58v58h51q74 0 113.5 37t39.5 96t-38.5 95.5t-106.5 36.5q-69 0 -107.5 -44t-38.5 -111v-502h-64v502q0 60 25 108.5t72.5 76.5t112.5 28q99 0 154 -50.5t55 -134.5q0 -65 -39.5 -111t-103.5 -54
q48 -5 84.5 -31.5t56 -67t19.5 -86.5q0 -60 -28.5 -104t-78 -66.5t-112.5 -22.5q-51 0 -90 13z" />
    <glyph glyph-name="agrave" unicode="&#xe0;" horiz-adv-x="590" 
d="M146.5 19q-51.5 31 -79 85.5t-27.5 122.5t28 122.5t80 86t121 31.5q62 0 109 -30t69 -81v99h63v-455h-63v98q-22 -49 -70.5 -79.5t-108.5 -30.5q-70 0 -121.5 31zM368.5 70.5q39.5 24.5 60.5 66t21 90.5q0 50 -21 91.5t-60.5 66t-93.5 24.5q-77 0 -124 -51.5t-47 -130.5
q0 -52 21 -93t60 -64.5t90 -23.5q54 0 93.5 24.5zM150 653l37 39l163 -143l-37 -38z" />
    <glyph glyph-name="aacute" unicode="&#xe1;" horiz-adv-x="590" 
d="M146.5 19q-51.5 31 -79 85.5t-27.5 122.5t28 122.5t80 86t121 31.5q62 0 109 -30t69 -81v99h63v-455h-63v98q-22 -49 -70.5 -79.5t-108.5 -30.5q-70 0 -121.5 31zM368.5 70.5q39.5 24.5 60.5 66t21 90.5q0 50 -21 91.5t-60.5 66t-93.5 24.5q-77 0 -124 -51.5t-47 -130.5
q0 -52 21 -93t60 -64.5t90 -23.5q54 0 93.5 24.5zM208 549l163 143l37 -39l-163 -142z" />
    <glyph glyph-name="acircumflex" unicode="&#xe2;" horiz-adv-x="590" 
d="M146.5 19q-51.5 31 -79 85.5t-27.5 122.5t28 122.5t80 86t121 31.5q62 0 109 -30t69 -81v99h63v-455h-63v98q-22 -49 -70.5 -79.5t-108.5 -30.5q-70 0 -121.5 31zM368.5 70.5q39.5 24.5 60.5 66t21 90.5q0 50 -21 91.5t-60.5 66t-93.5 24.5q-77 0 -124 -51.5t-47 -130.5
q0 -52 21 -93t60 -64.5t90 -23.5q54 0 93.5 24.5zM432 546l-39 -38l-115 113l-114 -113l-40 38l154 147z" />
    <glyph glyph-name="atilde" unicode="&#xe3;" horiz-adv-x="590" 
d="M146.5 19q-51.5 31 -79 85.5t-27.5 122.5t28 122.5t80 86t121 31.5q62 0 109 -30t69 -81v99h63v-455h-63v98q-22 -49 -70.5 -79.5t-108.5 -30.5q-70 0 -121.5 31zM368.5 70.5q39.5 24.5 60.5 66t21 90.5q0 50 -21 91.5t-60.5 66t-93.5 24.5q-77 0 -124 -51.5t-47 -130.5
q0 -52 21 -93t60 -64.5t90 -23.5q54 0 93.5 24.5zM317 548.5q-17 7.5 -43 23.5q-22 13 -37 20t-30 7q-20 0 -37 -10.5t-35 -35.5l-27 34q38 66 97 66q18 0 35 -7.5t43 -23.5q22 -13 37 -20t30 -7q40 0 72 46l27 -34q-39 -66 -97 -66q-18 0 -35 7.5z" />
    <glyph glyph-name="adieresis" unicode="&#xe4;" horiz-adv-x="590" 
d="M146.5 19q-51.5 31 -79 85.5t-27.5 122.5t28 122.5t80 86t121 31.5q62 0 109 -30t69 -81v99h63v-455h-63v98q-22 -49 -70.5 -79.5t-108.5 -30.5q-70 0 -121.5 31zM368.5 70.5q39.5 24.5 60.5 66t21 90.5q0 50 -21 91.5t-60.5 66t-93.5 24.5q-77 0 -124 -51.5t-47 -130.5
q0 -52 21 -93t60 -64.5t90 -23.5q54 0 93.5 24.5zM139.5 563.5q-16.5 16.5 -16.5 39.5q0 25 16.5 41.5t39.5 16.5q25 0 41.5 -16.5t16.5 -41.5q0 -23 -16.5 -39.5t-41.5 -16.5q-23 0 -39.5 16.5zM336.5 563.5q-16.5 16.5 -16.5 39.5q0 25 16.5 41.5t39.5 16.5
q25 0 41.5 -16.5t16.5 -41.5q0 -23 -16.5 -39.5t-41.5 -16.5q-23 0 -39.5 16.5z" />
    <glyph glyph-name="aring" unicode="&#xe5;" horiz-adv-x="590" 
d="M146.5 19q-51.5 31 -79 85.5t-27.5 122.5t28 122.5t80 86t121 31.5q62 0 109 -30t69 -81v99h63v-455h-63v98q-22 -49 -70.5 -79.5t-108.5 -30.5q-70 0 -121.5 31zM368.5 70.5q39.5 24.5 60.5 66t21 90.5q0 50 -21 91.5t-60.5 66t-93.5 24.5q-77 0 -124 -51.5t-47 -130.5
q0 -52 21 -93t60 -64.5t90 -23.5q54 0 93.5 24.5zM200.5 525.5q-31.5 30.5 -31.5 77.5t31.5 77.5t77.5 30.5t77.5 -30.5t31.5 -77.5t-31.5 -77.5t-77.5 -30.5t-77.5 30.5zM327.5 551q19.5 20 19.5 52q0 31 -20 51.5t-49 20.5t-49 -20.5t-20 -51.5q0 -32 19.5 -52t49.5 -20
t49.5 20z" />
    <glyph glyph-name="ae" unicode="&#xe6;" horiz-adv-x="879" 
d="M837 212h-370q1 -77 45.5 -122.5t118.5 -45.5q50 0 86 23t51 64h65q-14 -65 -69.5 -104.5t-132.5 -39.5q-66 0 -117.5 30.5t-79.5 85.5q-57 -115 -211 -115q-79 0 -128.5 35.5t-49.5 94.5q0 73 53 109q29 19 71.5 27t113.5 8h125v38q0 52 -35.5 83t-105.5 31
q-64 0 -101 -28.5t-40 -80.5h-64q4 74 60 118t146 44q70 0 116 -23.5t66 -66.5q29 43 74.5 66t102.5 23q61 0 109.5 -27t75.5 -75t27 -109q0 -9 -2 -43zM775 262q0 68 -40.5 110.5t-107.5 42.5q-70 0 -113.5 -41.5t-45.5 -111.5h307zM408 200l-1 12h-152q-73 0 -108.5 -23.5
t-35.5 -65.5q0 -41 34 -62t95 -21q71 0 119.5 39.5t48.5 108.5v12z" />
    <glyph glyph-name="ccedilla" unicode="&#xe7;" horiz-adv-x="516" 
d="M147 18q-51 30 -79 84.5t-28 124.5t28 124.5t79 84.5t119 30q89 0 145 -44.5t65 -120.5h-65q-9 52 -46.5 79.5t-98.5 27.5q-75 0 -118.5 -49t-43.5 -132t43.5 -132t118.5 -49q60 0 98 27.5t47 77.5h65q-9 -74 -65 -118.5t-145 -44.5q-68 0 -119 30zM262.5 -195.5
q-22.5 19.5 -24.5 50.5h38q1 -17 13.5 -27t31.5 -10q22 0 35 14t13 39q0 24 -12 38t-35 14q-29 0 -44 -24h-33v101h38v-67q6 9 20 14.5t30 5.5q32 0 54 -22.5t22 -59.5q0 -38 -23.5 -62t-65.5 -24q-35 0 -57.5 19.5z" />
    <glyph glyph-name="egrave" unicode="&#xe8;" horiz-adv-x="515" 
d="M473 213h-368q0 -77 43 -122.5t117 -45.5q51 0 87.5 22t51.5 61h65q-14 -62 -70 -101t-134 -39q-68 0 -119 29.5t-78.5 84t-27.5 126.5t27.5 126t77.5 83.5t116 29.5q63 0 111.5 -27t75.5 -75t27 -109q0 -11 -2 -43zM412 264q-1 68 -41 109.5t-110 41.5q-67 0 -109 -41.5
t-47 -109.5h307zM132 653l37 39l163 -143l-37 -38z" />
    <glyph glyph-name="eacute" unicode="&#xe9;" horiz-adv-x="515" 
d="M473 213h-368q0 -77 43 -122.5t117 -45.5q51 0 87.5 22t51.5 61h65q-14 -62 -70 -101t-134 -39q-68 0 -119 29.5t-78.5 84t-27.5 126.5t27.5 126t77.5 83.5t116 29.5q63 0 111.5 -27t75.5 -75t27 -109q0 -11 -2 -43zM412 264q-1 68 -41 109.5t-110 41.5q-67 0 -109 -41.5
t-47 -109.5h307zM190 549l163 143l37 -39l-163 -142z" />
    <glyph glyph-name="ecircumflex" unicode="&#xea;" horiz-adv-x="515" 
d="M473 213h-368q0 -77 43 -122.5t117 -45.5q51 0 87.5 22t51.5 61h65q-14 -62 -70 -101t-134 -39q-68 0 -119 29.5t-78.5 84t-27.5 126.5t27.5 126t77.5 83.5t116 29.5q63 0 111.5 -27t75.5 -75t27 -109q0 -11 -2 -43zM412 264q-1 68 -41 109.5t-110 41.5q-67 0 -109 -41.5
t-47 -109.5h307zM414 546l-39 -38l-115 113l-114 -113l-40 38l154 147z" />
    <glyph glyph-name="edieresis" unicode="&#xeb;" horiz-adv-x="515" 
d="M473 213h-368q0 -77 43 -122.5t117 -45.5q51 0 87.5 22t51.5 61h65q-14 -62 -70 -101t-134 -39q-68 0 -119 29.5t-78.5 84t-27.5 126.5t27.5 126t77.5 83.5t116 29.5q63 0 111.5 -27t75.5 -75t27 -109q0 -11 -2 -43zM412 264q-1 68 -41 109.5t-110 41.5q-67 0 -109 -41.5
t-47 -109.5h307zM121.5 563.5q-16.5 16.5 -16.5 39.5q0 25 16.5 41.5t39.5 16.5q25 0 41.5 -16.5t16.5 -41.5q0 -23 -16.5 -39.5t-41.5 -16.5q-23 0 -39.5 16.5zM318.5 563.5q-16.5 16.5 -16.5 39.5q0 25 16.5 41.5t39.5 16.5q25 0 41.5 -16.5t16.5 -41.5q0 -23 -16.5 -39.5
t-41.5 -16.5q-23 0 -39.5 16.5z" />
    <glyph glyph-name="igrave" unicode="&#xec;" horiz-adv-x="224" 
d="M80 455h64v-455h-64v455zM-16 653l37 39l163 -143l-37 -38z" />
    <glyph glyph-name="iacute" unicode="&#xed;" horiz-adv-x="224" 
d="M80 455h64v-455h-64v455zM42 549l163 143l37 -39l-163 -142z" />
    <glyph glyph-name="icircumflex" unicode="&#xee;" horiz-adv-x="224" 
d="M80 455h64v-455h-64v455zM266 546l-39 -38l-115 113l-114 -113l-40 38l154 147z" />
    <glyph glyph-name="idieresis" unicode="&#xef;" horiz-adv-x="224" 
d="M13.5 566.5q-14.5 14.5 -14.5 35.5q0 22 14.5 36.5t35.5 14.5q22 0 36.5 -14.5t14.5 -36.5q0 -21 -14.5 -35.5t-36.5 -14.5q-21 0 -35.5 14.5zM138.5 566.5q-14.5 14.5 -14.5 35.5q0 22 14.5 36.5t35.5 14.5q22 0 36.5 -14.5t14.5 -36.5q0 -21 -14.5 -35.5t-36.5 -14.5
q-21 0 -35.5 14.5zM80 455h64v-455h-64v455z" />
    <glyph glyph-name="eth" unicode="&#xf0;" horiz-adv-x="549" 
d="M509 228q0 -67 -29 -121.5t-82 -86.5t-124 -32q-70 0 -123 32t-82 86.5t-29 121.5q0 69 30 123.5t84 85t124 30.5q29 0 51 -7l-65 96l-93 -51l-20 37l90 49l-73 109h80l51 -77l89 48l21 -36l-86 -47l142 -214q44 -63 44 -146zM365 71q39 24 59.5 65t20.5 92t-20.5 92
t-59.5 65t-91 24t-90.5 -24t-59 -65.5t-20.5 -92.5q0 -50 20.5 -91t59 -65t90.5 -24t91 24z" />
    <glyph glyph-name="ntilde" unicode="&#xf1;" horiz-adv-x="563" 
d="M80 455h64v-104q17 53 60.5 84.5t110.5 31.5q86 0 129.5 -49.5t43.5 -143.5v-274h-64v249q0 82 -32 122t-98 40q-73 0 -111.5 -48.5t-38.5 -130.5v-232h-64v455zM319 548.5q-17 7.5 -43 23.5q-22 13 -37 20t-30 7q-20 0 -37 -10.5t-35 -35.5l-27 34q38 66 97 66
q18 0 35 -7.5t43 -23.5q22 -13 37 -20t30 -7q40 0 72 46l27 -34q-39 -66 -97 -66q-18 0 -35 7.5z" />
    <glyph glyph-name="ograve" unicode="&#xf2;" horiz-adv-x="549" 
d="M151 20q-53 32 -82 86.5t-29 121.5q0 66 29 120.5t82 86.5t123 32q71 0 124 -32t82 -86.5t29 -120.5q0 -67 -29 -121.5t-82 -86.5t-124 -32q-70 0 -123 32zM365 71q39 24 59.5 65t20.5 92t-20.5 92t-59.5 65t-91 24t-90.5 -24t-59 -65.5t-20.5 -92.5q0 -50 20.5 -91
t59 -65t90.5 -24t91 24zM146 653l37 39l163 -143l-37 -38z" />
    <glyph glyph-name="oacute" unicode="&#xf3;" horiz-adv-x="549" 
d="M151 20q-53 32 -82 86.5t-29 121.5q0 66 29 120.5t82 86.5t123 32q71 0 124 -32t82 -86.5t29 -120.5q0 -67 -29 -121.5t-82 -86.5t-124 -32q-70 0 -123 32zM365 71q39 24 59.5 65t20.5 92t-20.5 92t-59.5 65t-91 24t-90.5 -24t-59 -65.5t-20.5 -92.5q0 -50 20.5 -91
t59 -65t90.5 -24t91 24zM204 549l163 143l37 -39l-163 -142z" />
    <glyph glyph-name="ocircumflex" unicode="&#xf4;" horiz-adv-x="549" 
d="M151 20q-53 32 -82 86.5t-29 121.5q0 66 29 120.5t82 86.5t123 32q71 0 124 -32t82 -86.5t29 -120.5q0 -67 -29 -121.5t-82 -86.5t-124 -32q-70 0 -123 32zM365 71q39 24 59.5 65t20.5 92t-20.5 92t-59.5 65t-91 24t-90.5 -24t-59 -65.5t-20.5 -92.5q0 -50 20.5 -91
t59 -65t90.5 -24t91 24zM428 546l-39 -38l-115 113l-114 -113l-40 38l154 147z" />
    <glyph glyph-name="otilde" unicode="&#xf5;" horiz-adv-x="549" 
d="M151 20q-53 32 -82 86.5t-29 121.5q0 66 29 120.5t82 86.5t123 32q71 0 124 -32t82 -86.5t29 -120.5q0 -67 -29 -121.5t-82 -86.5t-124 -32q-70 0 -123 32zM365 71q39 24 59.5 65t20.5 92t-20.5 92t-59.5 65t-91 24t-90.5 -24t-59 -65.5t-20.5 -92.5q0 -50 20.5 -91
t59 -65t90.5 -24t91 24zM313 548.5q-17 7.5 -43 23.5q-22 13 -37 20t-30 7q-20 0 -37 -10.5t-35 -35.5l-27 34q38 66 97 66q18 0 35 -7.5t43 -23.5q22 -13 37 -20t30 -7q40 0 72 46l27 -34q-39 -66 -97 -66q-18 0 -35 7.5z" />
    <glyph glyph-name="odieresis" unicode="&#xf6;" horiz-adv-x="549" 
d="M151 20q-53 32 -82 86.5t-29 121.5q0 66 29 120.5t82 86.5t123 32q71 0 124 -32t82 -86.5t29 -120.5q0 -67 -29 -121.5t-82 -86.5t-124 -32q-70 0 -123 32zM365 71q39 24 59.5 65t20.5 92t-20.5 92t-59.5 65t-91 24t-90.5 -24t-59 -65.5t-20.5 -92.5q0 -50 20.5 -91
t59 -65t90.5 -24t91 24zM135.5 563.5q-16.5 16.5 -16.5 39.5q0 25 16.5 41.5t39.5 16.5q25 0 41.5 -16.5t16.5 -41.5q0 -23 -16.5 -39.5t-41.5 -16.5q-23 0 -39.5 16.5zM332.5 563.5q-16.5 16.5 -16.5 39.5q0 25 16.5 41.5t39.5 16.5q25 0 41.5 -16.5t16.5 -41.5
q0 -23 -16.5 -39.5t-41.5 -16.5q-23 0 -39.5 16.5z" />
    <glyph glyph-name="divide" unicode="&#xf7;" horiz-adv-x="504" 
d="M210 418.5q-17 16.5 -17 41.5t17 42.5t42 17.5t42.5 -17.5t17.5 -42.5t-17.5 -41.5t-42.5 -16.5t-42 16.5zM55 341h394v-58h-394v58zM210 126q-17 17 -17 42t17 42t42 17t42.5 -17t17.5 -42t-17.5 -42t-42.5 -17t-42 17z" />
    <glyph glyph-name="oslash" unicode="&#xf8;" horiz-adv-x="549" 
d="M479 351q30 -55 30 -123q0 -67 -29 -121.5t-82 -86.5t-124 -32q-37 0 -69 9l-28 -64l-39 17l27 62q-59 29 -92 86.5t-33 129.5q0 66 29 120.5t82 86.5t123 32q46 0 82 -13l23 54l39 -17l-23 -54q54 -31 84 -86zM126.5 132.5q22.5 -42.5 62.5 -64.5l143 332q-25 9 -58 9
q-52 0 -90.5 -24t-59 -65.5t-20.5 -92.5q0 -52 22.5 -94.5zM365 71q39 24 59.5 65t20.5 92q0 49 -19.5 89.5t-54.5 63.5l-142 -329q23 -5 45 -5q52 0 91 24z" />
    <glyph glyph-name="ugrave" unicode="&#xf9;" horiz-adv-x="563" 
d="M123.5 37.5q-48.5 49.5 -48.5 143.5v274h64v-260q0 -70 31.5 -110t99.5 -40q50 0 83.5 24.5t49 63.5t15.5 81v241h64v-455h-64v103q-17 -50 -60.5 -82.5t-104.5 -32.5q-81 0 -129.5 49.5zM155 653l37 39l163 -143l-37 -38z" />
    <glyph glyph-name="uacute" unicode="&#xfa;" horiz-adv-x="563" 
d="M123.5 37.5q-48.5 49.5 -48.5 143.5v274h64v-260q0 -70 31.5 -110t99.5 -40q50 0 83.5 24.5t49 63.5t15.5 81v241h64v-455h-64v103q-17 -50 -60.5 -82.5t-104.5 -32.5q-81 0 -129.5 49.5zM213 549l163 143l37 -39l-163 -142z" />
    <glyph glyph-name="ucircumflex" unicode="&#xfb;" horiz-adv-x="563" 
d="M123.5 37.5q-48.5 49.5 -48.5 143.5v274h64v-260q0 -70 31.5 -110t99.5 -40q50 0 83.5 24.5t49 63.5t15.5 81v241h64v-455h-64v103q-17 -50 -60.5 -82.5t-104.5 -32.5q-81 0 -129.5 49.5zM437 546l-39 -38l-115 113l-114 -113l-40 38l154 147z" />
    <glyph glyph-name="udieresis" unicode="&#xfc;" horiz-adv-x="563" 
d="M123.5 37.5q-48.5 49.5 -48.5 143.5v274h64v-260q0 -70 31.5 -110t99.5 -40q50 0 83.5 24.5t49 63.5t15.5 81v241h64v-455h-64v103q-17 -50 -60.5 -82.5t-104.5 -32.5q-81 0 -129.5 49.5zM144.5 563.5q-16.5 16.5 -16.5 39.5q0 25 16.5 41.5t39.5 16.5q25 0 41.5 -16.5
t16.5 -41.5q0 -23 -16.5 -39.5t-41.5 -16.5q-23 0 -39.5 16.5zM341.5 563.5q-16.5 16.5 -16.5 39.5q0 25 16.5 41.5t39.5 16.5q25 0 41.5 -16.5t16.5 -41.5q0 -23 -16.5 -39.5t-41.5 -16.5q-23 0 -39.5 16.5z" />
    <glyph glyph-name="yacute" unicode="&#xfd;" horiz-adv-x="567" 
d="M487 455v-470q0 -111 -64 -166q-54 -46 -144 -46q-98 0 -153 46q-50 43 -51 117h65q2 -49 34.5 -78.5t103.5 -29.5q145 0 145 161v112q-20 -50 -64 -81t-106 -31q-91 0 -134.5 52.5t-43.5 149.5v264h64v-252q0 -77 30 -116.5t104 -39.5q49 0 82.5 25t50.5 65t17 85v233
h64zM209 549l163 143l37 -39l-163 -142z" />
    <glyph glyph-name="thorn" unicode="&#xfe;" horiz-adv-x="590" 
d="M80 700h64v-344q22 52 71.5 81.5t111.5 29.5q65 0 115.5 -30.5t79 -85t28.5 -124.5q0 -69 -29 -123.5t-81 -85t-117 -30.5q-60 0 -108 30t-71 80v-313h-64v915zM403.5 69.5q38.5 23.5 60.5 64.5t22 93t-22 93.5t-60.5 65t-87.5 23.5q-51 0 -90.5 -23.5t-62 -65
t-22.5 -93.5t22.5 -93t62.5 -64.5t90 -23.5q49 0 87.5 23.5z" />
    <glyph glyph-name="ydieresis" unicode="&#xff;" horiz-adv-x="567" 
d="M487 455v-470q0 -111 -64 -166q-54 -46 -144 -46q-98 0 -153 46q-50 43 -51 117h65q2 -49 34.5 -78.5t103.5 -29.5q145 0 145 161v112q-20 -50 -64 -81t-106 -31q-91 0 -134.5 52.5t-43.5 149.5v264h64v-252q0 -77 30 -116.5t104 -39.5q49 0 82.5 25t50.5 65t17 85v233
h64zM140.5 563.5q-16.5 16.5 -16.5 39.5q0 25 16.5 41.5t39.5 16.5q25 0 41.5 -16.5t16.5 -41.5q0 -23 -16.5 -39.5t-41.5 -16.5q-23 0 -39.5 16.5zM337.5 563.5q-16.5 16.5 -16.5 39.5q0 25 16.5 41.5t39.5 16.5q25 0 41.5 -16.5t16.5 -41.5q0 -23 -16.5 -39.5t-41.5 -16.5
q-23 0 -39.5 16.5z" />
    <glyph glyph-name="Amacron" unicode="&#x100;" horiz-adv-x="577" 
d="M466 772h-354v52h354v-52zM443 126h-310l-40 -126h-73l238 700h61l238 -700h-73zM424 187l-136 422l-135 -422h271z" />
    <glyph glyph-name="amacron" unicode="&#x101;" horiz-adv-x="590" 
d="M146.5 19q-51.5 31 -79 85.5t-27.5 122.5t28 122.5t80 86t121 31.5q62 0 109 -30t69 -81v99h63v-455h-63v98q-22 -49 -70.5 -79.5t-108.5 -30.5q-70 0 -121.5 31zM368.5 70.5q39.5 24.5 60.5 66t21 90.5q0 50 -21 91.5t-60.5 66t-93.5 24.5q-77 0 -124 -51.5t-47 -130.5
q0 -52 21 -93t60 -64.5t90 -23.5q54 0 93.5 24.5zM119 607h317v-53h-317v53z" />
    <glyph glyph-name="Abreve" unicode="&#x102;" horiz-adv-x="577" 
d="M178 771.5q-46 35.5 -51 92.5h55q5 -39 35 -59.5t72 -20.5t72.5 20.5t35.5 59.5h54q-5 -57 -51 -92.5t-111 -35.5t-111 35.5zM443 126h-310l-40 -126h-73l238 700h61l238 -700h-73zM424 187l-136 422l-135 -422h271z" />
    <glyph glyph-name="abreve" unicode="&#x103;" horiz-adv-x="590" 
d="M146.5 19q-51.5 31 -79 85.5t-27.5 122.5t28 122.5t80 86t121 31.5q62 0 109 -30t69 -81v99h63v-455h-63v98q-22 -49 -70.5 -79.5t-108.5 -30.5q-70 0 -121.5 31zM368.5 70.5q39.5 24.5 60.5 66t21 90.5q0 50 -21 91.5t-60.5 66t-93.5 24.5q-77 0 -124 -51.5t-47 -130.5
q0 -52 21 -93t60 -64.5t90 -23.5q54 0 93.5 24.5zM162 547.5q-46 38.5 -51 106.5h56q4 -46 34.5 -71t76.5 -25t76.5 25t34.5 71h55q-5 -68 -50.5 -106.5t-115.5 -38.5t-116 38.5z" />
    <glyph glyph-name="Aogonek" unicode="&#x104;" horiz-adv-x="577" 
d="M443 126h-310l-40 -126h-73l238 700h61l238 -700h-73zM424 187l-136 422l-135 -422h271zM430.5 -185.5q-28.5 26.5 -28.5 67.5q0 34 23 64.5t68 53.5h64q-48 -14 -71.5 -41t-23.5 -58q0 -28 17.5 -45.5t47.5 -17.5q27 0 62 14l-1 -49q-39 -15 -78 -15q-51 0 -79.5 26.5z
" />
    <glyph glyph-name="aogonek" unicode="&#x105;" horiz-adv-x="590" 
d="M146.5 19q-51.5 31 -79 85.5t-27.5 122.5t28 122.5t80 86t121 31.5q62 0 109 -30t69 -81v99h63v-455h-63v98q-22 -49 -70.5 -79.5t-108.5 -30.5q-70 0 -121.5 31zM368.5 70.5q39.5 24.5 60.5 66t21 90.5q0 50 -21 91.5t-60.5 66t-93.5 24.5q-77 0 -124 -51.5t-47 -130.5
q0 -52 21 -93t60 -64.5t90 -23.5q54 0 93.5 24.5zM383.5 -185.5q-28.5 26.5 -28.5 67.5q0 34 23 64.5t68 53.5h64q-48 -14 -71.5 -41t-23.5 -58q0 -28 17.5 -45.5t47.5 -17.5q27 0 62 14l-1 -49q-39 -15 -78 -15q-51 0 -79.5 26.5z" />
    <glyph glyph-name="Cacute" unicode="&#x106;" horiz-adv-x="774" 
d="M277 776l228 115l24 -45l-228 -116zM209.5 33.5q-81.5 48.5 -125.5 131.5t-44 185t44 185t125.5 131.5t191.5 48.5q135 0 221 -65t109 -170h-73q-23 80 -88.5 127t-168.5 47q-89 0 -155 -40t-101 -109t-35 -155t35 -155t101 -109t155 -40q103 0 168.5 47t88.5 127h73
q-23 -105 -109 -170t-221 -65q-110 0 -191.5 48.5z" />
    <glyph glyph-name="cacute" unicode="&#x107;" horiz-adv-x="516" 
d="M147 18q-51 30 -79 84.5t-28 124.5t28 124.5t79 84.5t119 30q89 0 145 -44.5t65 -120.5h-65q-9 52 -46.5 79.5t-98.5 27.5q-75 0 -118.5 -49t-43.5 -132t43.5 -132t118.5 -49q60 0 98 27.5t47 77.5h65q-9 -74 -65 -118.5t-145 -44.5q-68 0 -119 30zM194 549l163 143
l37 -39l-163 -142z" />
    <glyph glyph-name="Ccircumflex" unicode="&#x108;" horiz-adv-x="774" 
d="M528 770l-35 -32l-95 85l-94 -85l-35 32l129 113zM209.5 33.5q-81.5 48.5 -125.5 131.5t-44 185t44 185t125.5 131.5t191.5 48.5q135 0 221 -65t109 -170h-73q-23 80 -88.5 127t-168.5 47q-89 0 -155 -40t-101 -109t-35 -155t35 -155t101 -109t155 -40q103 0 168.5 47
t88.5 127h73q-23 -105 -109 -170t-221 -65q-110 0 -191.5 48.5z" />
    <glyph glyph-name="ccircumflex" unicode="&#x109;" horiz-adv-x="516" 
d="M147 18q-51 30 -79 84.5t-28 124.5t28 124.5t79 84.5t119 30q89 0 145 -44.5t65 -120.5h-65q-9 52 -46.5 79.5t-98.5 27.5q-75 0 -118.5 -49t-43.5 -132t43.5 -132t118.5 -49q60 0 98 27.5t47 77.5h65q-9 -74 -65 -118.5t-145 -44.5q-68 0 -119 30zM418 546l-39 -38
l-115 113l-114 -113l-40 38l154 147z" />
    <glyph glyph-name="Cdotaccent" unicode="&#x10a;" horiz-adv-x="774" 
d="M359 771.5q-16 16.5 -16 40.5t16.5 41t40.5 17q25 0 41.5 -17t16.5 -41t-16.5 -40.5t-41.5 -16.5t-41 16.5zM209.5 33.5q-81.5 48.5 -125.5 131.5t-44 185t44 185t125.5 131.5t191.5 48.5q135 0 221 -65t109 -170h-73q-23 80 -88.5 127t-168.5 47q-89 0 -155 -40
t-101 -109t-35 -155t35 -155t101 -109t155 -40q103 0 168.5 47t88.5 127h73q-23 -105 -109 -170t-221 -65q-110 0 -191.5 48.5z" />
    <glyph glyph-name="cdotaccent" unicode="&#x10b;" horiz-adv-x="516" 
d="M147 18q-51 30 -79 84.5t-28 124.5t28 124.5t79 84.5t119 30q89 0 145 -44.5t65 -120.5h-65q-9 52 -46.5 79.5t-98.5 27.5q-75 0 -118.5 -49t-43.5 -132t43.5 -132t118.5 -49q60 0 98 27.5t47 77.5h65q-9 -74 -65 -118.5t-145 -44.5q-68 0 -119 30zM221.5 564
q-16.5 17 -16.5 42q0 26 16.5 43t42.5 17t43 -17t17 -43q0 -25 -17 -42t-43 -17t-42.5 17z" />
    <glyph glyph-name="Ccaron" unicode="&#x10c;" horiz-adv-x="774" 
d="M271 850l35 32l95 -85l94 85l35 -32l-129 -113zM209.5 33.5q-81.5 48.5 -125.5 131.5t-44 185t44 185t125.5 131.5t191.5 48.5q135 0 221 -65t109 -170h-73q-23 80 -88.5 127t-168.5 47q-89 0 -155 -40t-101 -109t-35 -155t35 -155t101 -109t155 -40q103 0 168.5 47
t88.5 127h73q-23 -105 -109 -170t-221 -65q-110 0 -191.5 48.5z" />
    <glyph glyph-name="ccaron" unicode="&#x10d;" horiz-adv-x="516" 
d="M147 18q-51 30 -79 84.5t-28 124.5t28 124.5t79 84.5t119 30q89 0 145 -44.5t65 -120.5h-65q-9 52 -46.5 79.5t-98.5 27.5q-75 0 -118.5 -49t-43.5 -132t43.5 -132t118.5 -49q60 0 98 27.5t47 77.5h65q-9 -74 -65 -118.5t-145 -44.5q-68 0 -119 30zM110 655l40 38
l114 -113l115 113l39 -38l-154 -147z" />
    <glyph glyph-name="Dcaron" unicode="&#x10e;" horiz-adv-x="687" 
d="M193 850l35 32l95 -85l94 85l35 -32l-129 -113zM85 700h209q111 0 192.5 -49t123.5 -129t42 -172t-42 -172t-123.5 -129t-192.5 -49h-209v700zM289 61q94 0 160.5 40.5t100.5 106.5t34 142t-34 142t-100.5 106.5t-160.5 40.5h-137v-578h137z" />
    <glyph glyph-name="dcaron" unicode="&#x10f;" horiz-adv-x="707" 
d="M510 700v-700h-63v98q-22 -49 -70.5 -79.5t-108.5 -30.5q-70 0 -121.5 31t-79 85.5t-27.5 122.5t28 122.5t80 86t121 31.5q62 0 109 -30t69 -81v344h63zM368.5 70.5q39.5 24.5 60.5 66t21 90.5q0 50 -21 91.5t-60.5 66t-93.5 24.5q-77 0 -124 -51.5t-47 -130.5
q0 -52 21 -93t60 -64.5t90 -23.5q54 0 93.5 24.5zM586 505v33q6 -1 16 -1q21 0 35 11t18 30q2 6 2 18q0 10 -4 26q-11 -16 -37 -16q-21 0 -35 15t-14 37q0 23 15.5 38.5t40.5 15.5q33 0 54.5 -27.5t21.5 -72.5q0 -51 -26 -79.5t-70 -28.5q-12 0 -17 1z" />
    <glyph glyph-name="Dcroat" unicode="&#x110;" horiz-adv-x="687" 
d="M486.5 651q81.5 -49 123.5 -129t42 -172t-42 -172t-123.5 -129t-192.5 -49h-209v324h-80v58h80v318h209q111 0 192.5 -49zM449.5 101.5q66.5 40.5 100.5 106.5t34 142t-34 142t-100.5 106.5t-160.5 40.5h-137v-257h144v-58h-144v-263h137q94 0 160.5 40.5z" />
    <glyph glyph-name="dcroat" unicode="&#x111;" horiz-adv-x="585" 
d="M568 542h-58v-542h-63v98q-22 -49 -70.5 -79.5t-108.5 -30.5q-70 0 -121.5 31t-79 85.5t-27.5 122.5t28 122.5t80 86t121 31.5q62 0 109 -30t69 -81v186h-177v46h177v112h63v-112h58v-46zM368.5 70.5q39.5 24.5 60.5 66t21 90.5q0 50 -21 91.5t-60.5 66t-93.5 24.5
q-77 0 -124 -51.5t-47 -130.5q0 -52 21 -93t60 -64.5t90 -23.5q54 0 93.5 24.5z" />
    <glyph glyph-name="Emacron" unicode="&#x112;" horiz-adv-x="547" 
d="M111 824h354v-52h-354v52zM85 700h391v-61h-324v-261h324v-61h-324v-256h324v-61h-391v700z" />
    <glyph glyph-name="emacron" unicode="&#x113;" horiz-adv-x="515" 
d="M473 213h-368q0 -77 43 -122.5t117 -45.5q51 0 87.5 22t51.5 61h65q-14 -62 -70 -101t-134 -39q-68 0 -119 29.5t-78.5 84t-27.5 126.5t27.5 126t77.5 83.5t116 29.5q63 0 111.5 -27t75.5 -75t27 -109q0 -11 -2 -43zM412 264q-1 68 -41 109.5t-110 41.5q-67 0 -109 -41.5
t-47 -109.5h307zM101 607h317v-53h-317v53z" />
    <glyph glyph-name="Ebreve" unicode="&#x114;" horiz-adv-x="547" 
d="M177 771.5q-46 35.5 -51 92.5h55q5 -39 35 -59.5t72 -20.5t72.5 20.5t35.5 59.5h54q-5 -57 -51 -92.5t-111 -35.5t-111 35.5zM85 700h391v-61h-324v-261h324v-61h-324v-256h324v-61h-391v700z" />
    <glyph glyph-name="ebreve" unicode="&#x115;" horiz-adv-x="515" 
d="M473 213h-368q0 -77 43 -122.5t117 -45.5q51 0 87.5 22t51.5 61h65q-14 -62 -70 -101t-134 -39q-68 0 -119 29.5t-78.5 84t-27.5 126.5t27.5 126t77.5 83.5t116 29.5q63 0 111.5 -27t75.5 -75t27 -109q0 -11 -2 -43zM412 264q-1 68 -41 109.5t-110 41.5q-67 0 -109 -41.5
t-47 -109.5h307zM144 547.5q-46 38.5 -51 106.5h56q4 -46 34.5 -71t76.5 -25t76.5 25t34.5 71h55q-5 -68 -50.5 -106.5t-115.5 -38.5t-116 38.5z" />
    <glyph glyph-name="Edotaccent" unicode="&#x116;" horiz-adv-x="547" 
d="M246 771.5q-16 16.5 -16 40.5t16.5 41t40.5 17q25 0 41.5 -17t16.5 -41t-16.5 -40.5t-41.5 -16.5t-41 16.5zM85 700h391v-61h-324v-261h324v-61h-324v-256h324v-61h-391v700z" />
    <glyph glyph-name="edotaccent" unicode="&#x117;" horiz-adv-x="515" 
d="M473 213h-368q0 -77 43 -122.5t117 -45.5q51 0 87.5 22t51.5 61h65q-14 -62 -70 -101t-134 -39q-68 0 -119 29.5t-78.5 84t-27.5 126.5t27.5 126t77.5 83.5t116 29.5q63 0 111.5 -27t75.5 -75t27 -109q0 -11 -2 -43zM412 264q-1 68 -41 109.5t-110 41.5q-67 0 -109 -41.5
t-47 -109.5h307zM217.5 564q-16.5 17 -16.5 42q0 26 16.5 43t42.5 17t43 -17t17 -43q0 -25 -17 -42t-43 -17t-42.5 17z" />
    <glyph glyph-name="Eogonek" unicode="&#x118;" horiz-adv-x="547" 
d="M85 700h391v-61h-324v-261h324v-61h-324v-256h324v-61h-391v700zM349.5 -185.5q-28.5 26.5 -28.5 67.5q0 34 23 64.5t68 53.5h64q-48 -14 -71.5 -41t-23.5 -58q0 -28 17.5 -45.5t47.5 -17.5q27 0 62 14l-1 -49q-39 -15 -78 -15q-51 0 -79.5 26.5z" />
    <glyph glyph-name="eogonek" unicode="&#x119;" horiz-adv-x="515" 
d="M473 213h-368q0 -77 43 -122.5t117 -45.5q51 0 87.5 22t51.5 61h65q-14 -62 -70 -101t-134 -39q-68 0 -119 29.5t-78.5 84t-27.5 126.5t27.5 126t77.5 83.5t116 29.5q63 0 111.5 -27t75.5 -75t27 -109q0 -11 -2 -43zM412 264q-1 68 -41 109.5t-110 41.5q-67 0 -109 -41.5
t-47 -109.5h307zM216.5 -185.5q-28.5 26.5 -28.5 67.5q0 34 23 64.5t68 53.5h64q-48 -14 -71.5 -41t-23.5 -58q0 -28 17.5 -45.5t47.5 -17.5q27 0 62 14l-1 -49q-39 -15 -78 -15q-51 0 -79.5 26.5z" />
    <glyph glyph-name="Ecaron" unicode="&#x11a;" horiz-adv-x="547" 
d="M158 850l35 32l95 -85l94 85l35 -32l-129 -113zM85 700h391v-61h-324v-261h324v-61h-324v-256h324v-61h-391v700z" />
    <glyph glyph-name="ecaron" unicode="&#x11b;" horiz-adv-x="515" 
d="M473 213h-368q0 -77 43 -122.5t117 -45.5q51 0 87.5 22t51.5 61h65q-14 -62 -70 -101t-134 -39q-68 0 -119 29.5t-78.5 84t-27.5 126.5t27.5 126t77.5 83.5t116 29.5q63 0 111.5 -27t75.5 -75t27 -109q0 -11 -2 -43zM412 264q-1 68 -41 109.5t-110 41.5q-67 0 -109 -41.5
t-47 -109.5h307zM106 655l40 38l114 -113l115 113l39 -38l-154 -147z" />
    <glyph glyph-name="Gcircumflex" unicode="&#x11c;" horiz-adv-x="824" 
d="M303 738l-35 32l129 113l130 -113l-35 -32l-95 85zM801 267h-77q-20 -131 -103.5 -206.5t-222.5 -75.5q-110 0 -191 48t-124 130.5t-43 184.5q1 102 43 185.5t123 132.5t192 49q77 0 140.5 -26.5t105 -73t53.5 -106.5h-73q-20 66 -80 105.5t-146 39.5q-91 0 -156 -40
t-98.5 -109.5t-33.5 -156.5q0 -84 34.5 -153t99.5 -109t154 -40q110 0 174 58t82 163h-204v61h351v-61z" />
    <glyph glyph-name="gcircumflex" unicode="&#x11d;" horiz-adv-x="590" 
d="M510 455v-452q0 -61 -19.5 -108.5t-57.5 -76.5q-55 -45 -157 -45q-49 0 -91.5 11.5t-71.5 34.5q-29 22 -45 52.5t-17 64.5h66q4 -47 45.5 -77.5t113.5 -30.5q84 0 127 43t43 128v99q-22 -51 -70.5 -80.5t-107.5 -29.5q-67 0 -119 31.5t-80.5 86t-28.5 121.5t29.5 122
t81.5 86.5t118 31.5q61 0 108 -29.5t69 -81.5v99h64zM366 70q40 24 62 65.5t22 91.5q0 51 -22 92.5t-61.5 65.5t-91.5 24q-49 0 -88 -23.5t-61 -65t-22 -93.5q0 -51 22 -92.5t61 -65t88 -23.5q51 0 91 24zM433 546l-39 -38l-115 113l-114 -113l-40 38l154 147z" />
    <glyph glyph-name="Gbreve" unicode="&#x11e;" horiz-adv-x="824" 
d="M289 771.5q-46 35.5 -51 92.5h55q5 -39 35 -59.5t72 -20.5t72.5 20.5t35.5 59.5h54q-5 -57 -51 -92.5t-111 -35.5t-111 35.5zM801 267h-77q-20 -131 -103.5 -206.5t-222.5 -75.5q-110 0 -191 48t-124 130.5t-43 184.5q1 102 43 185.5t123 132.5t192 49q77 0 140.5 -26.5
t105 -73t53.5 -106.5h-73q-20 66 -80 105.5t-146 39.5q-91 0 -156 -40t-98.5 -109.5t-33.5 -156.5q0 -84 34.5 -153t99.5 -109t154 -40q110 0 174 58t82 163h-204v61h351v-61z" />
    <glyph glyph-name="gbreve" unicode="&#x11f;" horiz-adv-x="590" 
d="M510 455v-452q0 -61 -19.5 -108.5t-57.5 -76.5q-55 -45 -157 -45q-49 0 -91.5 11.5t-71.5 34.5q-29 22 -45 52.5t-17 64.5h66q4 -47 45.5 -77.5t113.5 -30.5q84 0 127 43t43 128v99q-22 -51 -70.5 -80.5t-107.5 -29.5q-67 0 -119 31.5t-80.5 86t-28.5 121.5t29.5 122
t81.5 86.5t118 31.5q61 0 108 -29.5t69 -81.5v99h64zM366 70q40 24 62 65.5t22 91.5q0 51 -22 92.5t-61.5 65.5t-91.5 24q-49 0 -88 -23.5t-61 -65t-22 -93.5q0 -51 22 -92.5t61 -65t88 -23.5q51 0 91 24zM163 547.5q-46 38.5 -51 106.5h56q4 -46 34.5 -71t76.5 -25t76.5 25
t34.5 71h55q-5 -68 -50.5 -106.5t-115.5 -38.5t-116 38.5z" />
    <glyph glyph-name="Gdotaccent" unicode="&#x120;" horiz-adv-x="824" 
d="M358 771.5q-16 16.5 -16 40.5t16.5 41t40.5 17q25 0 41.5 -17t16.5 -41t-16.5 -40.5t-41.5 -16.5t-41 16.5zM801 267h-77q-20 -131 -103.5 -206.5t-222.5 -75.5q-110 0 -191 48t-124 130.5t-43 184.5q1 102 43 185.5t123 132.5t192 49q77 0 140.5 -26.5t105 -73
t53.5 -106.5h-73q-20 66 -80 105.5t-146 39.5q-91 0 -156 -40t-98.5 -109.5t-33.5 -156.5q0 -84 34.5 -153t99.5 -109t154 -40q110 0 174 58t82 163h-204v61h351v-61z" />
    <glyph glyph-name="gdotaccent" unicode="&#x121;" horiz-adv-x="590" 
d="M510 455v-452q0 -61 -19.5 -108.5t-57.5 -76.5q-55 -45 -157 -45q-49 0 -91.5 11.5t-71.5 34.5q-29 22 -45 52.5t-17 64.5h66q4 -47 45.5 -77.5t113.5 -30.5q84 0 127 43t43 128v99q-22 -51 -70.5 -80.5t-107.5 -29.5q-67 0 -119 31.5t-80.5 86t-28.5 121.5t29.5 122
t81.5 86.5t118 31.5q61 0 108 -29.5t69 -81.5v99h64zM366 70q40 24 62 65.5t22 91.5q0 51 -22 92.5t-61.5 65.5t-91.5 24q-49 0 -88 -23.5t-61 -65t-22 -93.5q0 -51 22 -92.5t61 -65t88 -23.5q51 0 91 24zM236.5 564q-16.5 17 -16.5 42q0 26 16.5 43t42.5 17t43 -17t17 -43
q0 -25 -17 -42t-43 -17t-42.5 17z" />
    <glyph glyph-name="Gcommaaccent" unicode="&#x122;" horiz-adv-x="824" 
d="M801 267h-77q-20 -131 -103.5 -206.5t-222.5 -75.5q-110 0 -191 48t-124 130.5t-43 184.5q1 102 43 185.5t123 132.5t192 49q77 0 140.5 -26.5t105 -73t53.5 -106.5h-73q-20 66 -80 105.5t-146 39.5q-91 0 -156 -40t-98.5 -109.5t-33.5 -156.5q0 -84 34.5 -153t99.5 -109
t154 -40q110 0 174 58t82 163h-204v61h351v-61zM359 -177q51 0 60 40q4 8 4 19q0 7 -1 10q-3 -6 -10 -9.5t-15 -3.5q-21 0 -34.5 12.5t-13.5 32.5q0 19 14 32.5t34 13.5q28 0 45 -20t17 -53q0 -50 -26 -75t-74 -25v26z" />
    <glyph glyph-name="gcommaaccent" unicode="&#x123;" horiz-adv-x="590" 
d="M510 455v-452q0 -61 -19.5 -108.5t-57.5 -76.5q-55 -45 -157 -45q-49 0 -91.5 11.5t-71.5 34.5q-29 22 -45 52.5t-17 64.5h66q4 -47 45.5 -77.5t113.5 -30.5q84 0 127 43t43 128v99q-22 -51 -70.5 -80.5t-107.5 -29.5q-67 0 -119 31.5t-80.5 86t-28.5 121.5t29.5 122
t81.5 86.5t118 31.5q61 0 108 -29.5t69 -81.5v99h64zM366 70q40 24 62 65.5t22 91.5q0 51 -22 92.5t-61.5 65.5t-91.5 24q-49 0 -88 -23.5t-61 -65t-22 -93.5q0 -51 22 -92.5t61 -65t88 -23.5q51 0 91 24zM314 664q-25 0 -40.5 -9t-19.5 -25q-8 -17 -6 -32q7 15 28 15
q19 0 32 -13.5t13 -32.5q0 -20 -14 -34t-35 -14q-27 0 -44 22.5t-17 56.5q0 44 27 68.5t76 24.5v-27z" />
    <glyph glyph-name="Hcircumflex" unicode="&#x124;" horiz-adv-x="666" 
d="M460 770l-35 -32l-95 85l-94 -85l-35 32l129 113zM85 700h67v-322h362v322h67v-700h-67v317h-362v-317h-67v700z" />
    <glyph glyph-name="hcircumflex" unicode="&#x125;" horiz-adv-x="565" 
d="M114 814l-73 -66l-32 35l105 91l106 -91l-32 -35zM446.5 417.5q43.5 -49.5 43.5 -143.5v-274h-64v249q0 82 -32 122t-98 40q-73 0 -111 -48.5t-38 -130.5v-232h-64v700h64v-349q16 53 60 84.5t110 31.5q86 0 129.5 -49.5z" />
    <glyph glyph-name="Hbar" unicode="&#x126;" horiz-adv-x="666" 
d="M616 511h-35v-511h-67v317h-362v-317h-67v511h-35v46h35v143h67v-143h362v143h67v-143h35v-46zM514 511h-362v-133h362v133z" />
    <glyph glyph-name="hbar" unicode="&#x127;" horiz-adv-x="565" 
d="M446.5 417.5q43.5 -49.5 43.5 -143.5v-274h-64v249q0 82 -32 122t-98 40q-73 0 -111 -48.5t-38 -130.5v-232h-64v542h-60v46h60v112h64v-112h174v-46h-174v-191q16 53 60 84.5t110 31.5q86 0 129.5 -49.5z" />
    <glyph glyph-name="Itilde" unicode="&#x128;" horiz-adv-x="237" 
d="M134.5 769.5q-9.5 5.5 -22.5 16.5q-10 9 -16 13t-14 4q-11 0 -20 -7t-18 -26l-21 28q19 51 60 51q14 0 23 -5t23 -17q8 -8 15 -12.5t16 -4.5q21 0 35 30l21 -27q-18 -49 -58 -49q-14 0 -23.5 5.5zM85 700h67v-700h-67v700z" />
    <glyph glyph-name="itilde" unicode="&#x129;" horiz-adv-x="224" 
d="M123.5 539q-10.5 7 -20.5 19q-11 11 -17 15.5t-15 4.5q-12 0 -20 -6.5t-18 -28.5l-20 32q11 32 28 45.5t33 13.5q15 0 26 -7t24 -20q18 -20 32 -20q10 0 18 6t15 24l20 -31q-15 -54 -61 -54q-14 0 -24.5 7zM80 455h64v-455h-64v455z" />
    <glyph glyph-name="Imacron" unicode="&#x12a;" horiz-adv-x="237" 
d="M32 819h173v-47h-173v47zM85 700h67v-700h-67v700z" />
    <glyph glyph-name="imacron" unicode="&#x12b;" horiz-adv-x="224" 
d="M18 607h188v-53h-188v53zM80 455h64v-455h-64v455z" />
    <glyph glyph-name="Ibreve" unicode="&#x12c;" horiz-adv-x="237" 
d="M42.5 769q-30.5 28 -31.5 90h51q1 -34 17 -52t39 -18t39 18t17 52h52q-1 -62 -32 -90t-76 -28t-75.5 28zM85 700h67v-700h-67v700z" />
    <glyph glyph-name="ibreve" unicode="&#x12d;" horiz-adv-x="224" 
d="M38 547q-28 29 -29 92h47q3 -77 56 -77q51 0 56 77h46q-1 -63 -29 -92t-73 -29q-46 0 -74 29zM80 455h64v-455h-64v455z" />
    <glyph glyph-name="Iogonek" unicode="&#x12e;" horiz-adv-x="237" 
d="M85 700h67v-700h-67v700zM25.5 -185.5q-28.5 26.5 -28.5 67.5q0 34 23 64.5t68 53.5h64q-48 -14 -71.5 -41t-23.5 -58q0 -28 17.5 -45.5t47.5 -17.5q27 0 62 14l-1 -49q-39 -15 -78 -15q-51 0 -79.5 26.5z" />
    <glyph glyph-name="iogonek" unicode="&#x12f;" horiz-adv-x="224" 
d="M80 455h64v-455h-64v455zM69.5 564q-16.5 17 -16.5 42q0 26 16.5 43t42.5 17t43 -17t17 -43q0 -25 -17 -42t-43 -17t-42.5 17zM17.5 -185.5q-28.5 26.5 -28.5 67.5q0 34 23 64.5t68 53.5h64q-48 -14 -71.5 -41t-23.5 -58q0 -28 17.5 -45.5t47.5 -17.5q27 0 62 14l-1 -49
q-39 -15 -78 -15q-51 0 -79.5 26.5z" />
    <glyph glyph-name="Idotaccent" unicode="&#x130;" horiz-adv-x="237" 
d="M77 771.5q-16 16.5 -16 40.5t16.5 41t40.5 17q25 0 41.5 -17t16.5 -41t-16.5 -40.5t-41.5 -16.5t-41 16.5zM85 700h67v-700h-67v700z" />
    <glyph glyph-name="dotlessi" unicode="&#x131;" horiz-adv-x="224" 
d="M80 455h64v-455h-64v455z" />
    <glyph glyph-name="IJ" unicode="&#x132;" horiz-adv-x="774" 
d="M85 700h67v-700h-67v700zM371.5 12.5q-51.5 27.5 -80.5 79.5t-29 124h67q0 -80 44.5 -125t115.5 -45q70 0 111 47t41 128v479h67v-479q0 -110 -59.5 -173t-159.5 -63q-66 0 -117.5 27.5z" />
    <glyph glyph-name="ij" unicode="&#x133;" horiz-adv-x="451" 
d="M80 455h64v-455h-64v455zM69.5 564q-16.5 17 -16.5 42q0 26 16.5 43t42.5 17t43 -17t17 -43q0 -25 -17 -42t-43 -17t-42.5 17zM195 -210v60q24 -10 52 -10q29 0 44.5 20t15.5 57v538h64v-554q0 -58 -29.5 -90t-83.5 -32q-40 0 -63 11zM296.5 564q-16.5 17 -16.5 42
q0 26 16.5 43t42.5 17t43 -17t17 -43q0 -25 -17 -42t-43 -17t-42.5 17z" />
    <glyph glyph-name="Jcircumflex" unicode="&#x134;" horiz-adv-x="537" 
d="M437 814l-73 -66l-32 35l105 91l106 -91l-32 -35zM134.5 12.5q-51.5 27.5 -80.5 79.5t-29 124h67q0 -80 44.5 -125t115.5 -45q70 0 111 47t41 128v479h67v-479q0 -110 -59.5 -173t-159.5 -63q-66 0 -117.5 27.5z" />
    <glyph glyph-name="jcircumflex" unicode="&#x135;" horiz-adv-x="227" 
d="M-29 -210v60q24 -10 52 -10q29 0 44.5 20t15.5 57v538h64v-554q0 -58 -29.5 -90t-83.5 -32q-40 0 -63 11zM270 546l-39 -38l-115 113l-114 -113l-40 38l154 147z" />
    <glyph glyph-name="Kcommaaccent" unicode="&#x136;" horiz-adv-x="584" 
d="M218 352l349 -352h-89l-326 336v-336h-67v700h67v-336l327 336h88zM246 -177q51 0 60 40q4 8 4 19q0 7 -1 10q-3 -6 -10 -9.5t-15 -3.5q-21 0 -34.5 12.5t-13.5 32.5q0 19 14 32.5t34 13.5q28 0 45 -20t17 -53q0 -50 -26 -75t-74 -25v26z" />
    <glyph glyph-name="kcommaaccent" unicode="&#x137;" horiz-adv-x="492" 
d="M216 233l246 -233h-87l-231 220v-220h-64v700h64v-461l234 216h84zM215 -177q51 0 60 40q4 8 4 19q0 7 -1 10q-3 -6 -10 -9.5t-15 -3.5q-21 0 -34.5 12.5t-13.5 32.5q0 19 14 32.5t34 13.5q28 0 45 -20t17 -53q0 -50 -26 -75t-74 -25v26z" />
    <glyph glyph-name="kgreenlandic" unicode="&#x138;" horiz-adv-x="492" 
d="M216 233l246 -233h-87l-231 220v-220h-64v455h64v-216l234 216h84z" />
    <glyph glyph-name="Lacute" unicode="&#x139;" horiz-adv-x="510" 
d="M54 788l150 92l30 -44l-151 -92zM85 700h67v-636h315v-64h-382v700z" />
    <glyph glyph-name="lacute" unicode="&#x13a;" horiz-adv-x="224" 
d="M22 788l150 92l30 -44l-151 -92zM80 700h64v-700h-64v700z" />
    <glyph glyph-name="Lcommaaccent" unicode="&#x13b;" horiz-adv-x="510" 
d="M85 700h67v-636h315v-64h-382v700zM246 -177q51 0 60 40q4 8 4 19q0 7 -1 10q-3 -6 -10 -9.5t-15 -3.5q-21 0 -34.5 12.5t-13.5 32.5q0 19 14 32.5t34 13.5q28 0 45 -20t17 -53q0 -50 -26 -75t-74 -25v26z" />
    <glyph glyph-name="lcommaaccent" unicode="&#x13c;" horiz-adv-x="224" 
d="M80 700h64v-700h-64v700zM71 -177q51 0 60 40q4 8 4 19q0 7 -1 10q-3 -6 -10 -9.5t-15 -3.5q-21 0 -34.5 12.5t-13.5 32.5q0 19 14 32.5t34 13.5q28 0 45 -20t17 -53q0 -50 -26 -75t-74 -25v26z" />
    <glyph glyph-name="Lcaron" unicode="&#x13d;" horiz-adv-x="510" 
d="M85 700h67v-636h315v-64h-382v700zM245 505v33q6 -1 16 -1q21 0 35 11t18 30q2 6 2 18q0 10 -4 26q-11 -16 -37 -16q-21 0 -35 15t-14 37q0 23 15.5 38.5t40.5 15.5q33 0 54.5 -27.5t21.5 -72.5q0 -51 -26 -79.5t-70 -28.5q-12 0 -17 1z" />
    <glyph glyph-name="lcaron" unicode="&#x13e;" horiz-adv-x="354" 
d="M80 700h64v-700h-64v700zM233 505v33q6 -1 16 -1q21 0 35 11t18 30q2 6 2 18q0 10 -4 26q-11 -16 -37 -16q-21 0 -35 15t-14 37q0 23 15.5 38.5t40.5 15.5q33 0 54.5 -27.5t21.5 -72.5q0 -51 -26 -79.5t-70 -28.5q-12 0 -17 1z" />
    <glyph glyph-name="Ldot" unicode="&#x13f;" horiz-adv-x="510" 
d="M85 700h67v-636h315v-64h-382v700zM290 342q-18 18 -18 43q0 26 18 44t43 18q26 0 44 -18t18 -44q0 -25 -18.5 -43t-43.5 -18t-43 18z" />
    <glyph glyph-name="ldot" unicode="&#x140;" horiz-adv-x="338" 
d="M80 700h64v-700h-64v700zM225 307q-18 18 -18 43q0 26 18 44t43 18q26 0 44 -18t18 -44q0 -25 -18.5 -43t-43.5 -18t-43 18z" />
    <glyph glyph-name="Lslash" unicode="&#x141;" horiz-adv-x="496" 
d="M467 64v-64h-382v282l-65 -31v57l65 31v361h67v-329l159 75v-56l-159 -76v-250h315z" />
    <glyph glyph-name="lslash" unicode="&#x142;" horiz-adv-x="224" 
d="M218 396l-77 -42v-354h-64v319l-70 -38v53l70 38v328h64v-294l77 42v-52z" />
    <glyph glyph-name="Nacute" unicode="&#x143;" horiz-adv-x="661" 
d="M207 776l228 115l24 -45l-228 -116zM85 700h72l354 -589v589h64v-700h-72l-353 589v-589h-65v700z" />
    <glyph glyph-name="nacute" unicode="&#x144;" horiz-adv-x="563" 
d="M80 455h64v-104q17 53 60.5 84.5t110.5 31.5q86 0 129.5 -49.5t43.5 -143.5v-274h-64v249q0 82 -32 122t-98 40q-73 0 -111.5 -48.5t-38.5 -130.5v-232h-64v455zM210 549l163 143l37 -39l-163 -142z" />
    <glyph glyph-name="Ncommaaccent" unicode="&#x145;" horiz-adv-x="661" 
d="M85 700h72l354 -589v589h64v-700h-72l-353 589v-589h-65v700zM290 -177q51 0 60 40q4 8 4 19q0 7 -1 10q-3 -6 -10 -9.5t-15 -3.5q-21 0 -34.5 12.5t-13.5 32.5q0 19 14 32.5t34 13.5q28 0 45 -20t17 -53q0 -50 -26 -75t-74 -25v26z" />
    <glyph glyph-name="ncommaaccent" unicode="&#x146;" horiz-adv-x="563" 
d="M80 455h64v-104q17 53 60.5 84.5t110.5 31.5q86 0 129.5 -49.5t43.5 -143.5v-274h-64v249q0 82 -32 122t-98 40q-73 0 -111.5 -48.5t-38.5 -130.5v-232h-64v455zM239 -177q51 0 60 40q4 8 4 19q0 7 -1 10q-3 -6 -10 -9.5t-15 -3.5q-21 0 -34.5 12.5t-13.5 32.5
q0 19 14 32.5t34 13.5q28 0 45 -20t17 -53q0 -50 -26 -75t-74 -25v26z" />
    <glyph glyph-name="Ncaron" unicode="&#x147;" horiz-adv-x="661" 
d="M201 850l35 32l95 -85l94 85l35 -32l-129 -113zM85 700h72l354 -589v589h64v-700h-72l-353 589v-589h-65v700z" />
    <glyph glyph-name="ncaron" unicode="&#x148;" horiz-adv-x="563" 
d="M80 455h64v-104q17 53 60.5 84.5t110.5 31.5q86 0 129.5 -49.5t43.5 -143.5v-274h-64v249q0 82 -32 122t-98 40q-73 0 -111.5 -48.5t-38.5 -130.5v-232h-64v455zM126 655l40 38l114 -113l115 113l39 -38l-154 -147z" />
    <glyph glyph-name="napostrophe" unicode="&#x149;" horiz-adv-x="580" 
d="M97 455h64v-104q17 53 60.5 84.5t110.5 31.5q86 0 129.5 -49.5t43.5 -143.5v-274h-64v249q0 82 -32 122t-98 40q-73 0 -111.5 -48.5t-38.5 -130.5v-232h-64v455zM36 505v33q6 -1 16 -1q21 0 35 11t18 30q2 6 2 18q0 10 -4 26q-11 -16 -37 -16q-21 0 -35 15t-14 37
q0 23 15.5 38.5t40.5 15.5q33 0 54.5 -27.5t21.5 -72.5q0 -51 -26 -79.5t-70 -28.5q-12 0 -17 1z" />
    <glyph glyph-name="Eng" unicode="&#x14a;" horiz-adv-x="661" 
d="M384 -210v63q21 -10 56 -10q68 0 68 87v70l-358 589v-589h-65v700h72l354 -587v587h64v-789q0 -63 -33 -97.5t-93 -34.5q-42 0 -65 11z" />
    <glyph glyph-name="eng" unicode="&#x14b;" horiz-adv-x="563" 
d="M444.5 417.5q43.5 -49.5 43.5 -143.5v-373q0 -58 -30 -90t-83 -32q-40 0 -63 11v60q24 -10 52 -10q29 0 44.5 20t15.5 57v332q0 82 -32 122t-98 40q-73 0 -111.5 -48.5t-38.5 -130.5v-232h-64v455h64v-104q17 53 60.5 84.5t110.5 31.5q86 0 129.5 -49.5z" />
    <glyph glyph-name="Omacron" unicode="&#x14c;" horiz-adv-x="800" 
d="M223 824h354v-52h-354v52zM209.5 35q-81.5 50 -125.5 133.5t-44 181.5t44 181.5t125.5 133.5t190.5 50t190.5 -50t125.5 -133.5t44 -181.5t-44 -181.5t-125.5 -133.5t-190.5 -50t-190.5 50zM554 87.5q66 41.5 101 111t35 151.5t-35 151.5t-101 111t-154 41.5t-154 -41.5
t-101 -111t-35 -151.5t35 -151.5t101 -111t154 -41.5t154 41.5z" />
    <glyph glyph-name="omacron" unicode="&#x14d;" horiz-adv-x="549" 
d="M151 20q-53 32 -82 86.5t-29 121.5q0 66 29 120.5t82 86.5t123 32q71 0 124 -32t82 -86.5t29 -120.5q0 -67 -29 -121.5t-82 -86.5t-124 -32q-70 0 -123 32zM365 71q39 24 59.5 65t20.5 92t-20.5 92t-59.5 65t-91 24t-90.5 -24t-59 -65.5t-20.5 -92.5q0 -50 20.5 -91
t59 -65t90.5 -24t91 24zM115 607h317v-53h-317v53z" />
    <glyph glyph-name="Obreve" unicode="&#x14e;" horiz-adv-x="800" 
d="M289 771.5q-46 35.5 -51 92.5h55q5 -39 35 -59.5t72 -20.5t72.5 20.5t35.5 59.5h54q-5 -57 -51 -92.5t-111 -35.5t-111 35.5zM209.5 35q-81.5 50 -125.5 133.5t-44 181.5t44 181.5t125.5 133.5t190.5 50t190.5 -50t125.5 -133.5t44 -181.5t-44 -181.5t-125.5 -133.5
t-190.5 -50t-190.5 50zM554 87.5q66 41.5 101 111t35 151.5t-35 151.5t-101 111t-154 41.5t-154 -41.5t-101 -111t-35 -151.5t35 -151.5t101 -111t154 -41.5t154 41.5z" />
    <glyph glyph-name="obreve" unicode="&#x14f;" horiz-adv-x="549" 
d="M151 20q-53 32 -82 86.5t-29 121.5q0 66 29 120.5t82 86.5t123 32q71 0 124 -32t82 -86.5t29 -120.5q0 -67 -29 -121.5t-82 -86.5t-124 -32q-70 0 -123 32zM365 71q39 24 59.5 65t20.5 92t-20.5 92t-59.5 65t-91 24t-90.5 -24t-59 -65.5t-20.5 -92.5q0 -50 20.5 -91
t59 -65t90.5 -24t91 24zM158 547.5q-46 38.5 -51 106.5h56q4 -46 34.5 -71t76.5 -25t76.5 25t34.5 71h55q-5 -68 -50.5 -106.5t-115.5 -38.5t-116 38.5z" />
    <glyph glyph-name="Ohungarumlaut" unicode="&#x150;" horiz-adv-x="800" 
d="M268 753l129 131l58 -23l-149 -125zM452 753l129 131l57 -24l-148 -125zM209.5 35q-81.5 50 -125.5 133.5t-44 181.5t44 181.5t125.5 133.5t190.5 50t190.5 -50t125.5 -133.5t44 -181.5t-44 -181.5t-125.5 -133.5t-190.5 -50t-190.5 50zM554 87.5q66 41.5 101 111
t35 151.5t-35 151.5t-101 111t-154 41.5t-154 -41.5t-101 -111t-35 -151.5t35 -151.5t101 -111t154 -41.5t154 41.5z" />
    <glyph glyph-name="ohungarumlaut" unicode="&#x151;" horiz-adv-x="549" 
d="M151 20q-53 32 -82 86.5t-29 121.5q0 66 29 120.5t82 86.5t123 32q71 0 124 -32t82 -86.5t29 -120.5q0 -67 -29 -121.5t-82 -86.5t-124 -32q-70 0 -123 32zM365 71q39 24 59.5 65t20.5 92t-20.5 92t-59.5 65t-91 24t-90.5 -24t-59 -65.5t-20.5 -92.5q0 -50 20.5 -91
t59 -65t90.5 -24t91 24zM137 521l125 166l56 -28l-147 -156zM322 521l125 166l56 -28l-147 -157z" />
    <glyph glyph-name="OE" unicode="&#x152;" horiz-adv-x="864" 
d="M505 639v-261h289v-61h-289v-256h289v-61h-424q-100 0 -175 48t-115 128t-40 174t40 174t115 128t175 48h424v-61h-289zM437 61v578h-67q-79 0 -138 -39.5t-90.5 -105.5t-31.5 -144t31.5 -144t90.5 -105.5t138 -39.5h67z" />
    <glyph glyph-name="oe" unicode="&#x153;" horiz-adv-x="920" 
d="M151 20q-53 32 -82 86.5t-29 121.5q0 66 29 120.5t82 86.5t123 32q71 0 124 -32t82 -86.5t29 -120.5q0 -67 -29 -121.5t-82 -86.5t-124 -32q-70 0 -123 32zM365 71q39 24 59.5 65t20.5 92t-20.5 92t-59.5 65t-91 24t-90.5 -24t-59 -65.5t-20.5 -92.5q0 -50 20.5 -91
t59 -65t90.5 -24t91 24zM878 213h-368q0 -77 43 -122.5t117 -45.5q51 0 87.5 22t51.5 61h65q-14 -62 -70 -101t-134 -39q-68 0 -119 29.5t-78.5 84t-27.5 126.5t27.5 126t77.5 83.5t116 29.5q63 0 111.5 -27t75.5 -75t27 -109q0 -11 -2 -43zM817 264q-1 68 -41 109.5
t-110 41.5q-67 0 -109 -41.5t-47 -109.5h307z" />
    <glyph glyph-name="Racute" unicode="&#x154;" horiz-adv-x="604" 
d="M200 730l-24 46l228 115l24 -45zM516 318q-43 -61 -114 -84l148 -234h-77l-140 223h-4h-177v-223h-67v700h244q66 0 118.5 -30.5t82 -85t29.5 -122.5q0 -83 -43 -144zM152 284h173q48 0 86 23t59.5 63.5t21.5 91.5q0 50 -21.5 90.5t-59.5 63.5t-86 23h-173v-355z" />
    <glyph glyph-name="racute" unicode="&#x155;" horiz-adv-x="355" 
d="M80 455h64v-120q15 64 55.5 96.5t91.5 32.5q28 0 41 -4v-59q-21 3 -43 3q-73 0 -109 -61.5t-36 -145.5v-197h-64v455zM109 548l163 143l37 -39l-163 -142z" />
    <glyph glyph-name="Rcommaaccent" unicode="&#x156;" horiz-adv-x="604" 
d="M516 318q-43 -61 -114 -84l148 -234h-77l-140 223h-4h-177v-223h-67v700h244q66 0 118.5 -30.5t82 -85t29.5 -122.5q0 -83 -43 -144zM152 284h173q48 0 86 23t59.5 63.5t21.5 91.5q0 50 -21.5 90.5t-59.5 63.5t-86 23h-173v-355zM259 -177q51 0 60 40q4 8 4 19q0 7 -1 10
q-3 -6 -10 -9.5t-15 -3.5q-21 0 -34.5 12.5t-13.5 32.5q0 19 14 32.5t34 13.5q28 0 45 -20t17 -53q0 -50 -26 -75t-74 -25v26z" />
    <glyph glyph-name="rcommaaccent" unicode="&#x157;" horiz-adv-x="355" 
d="M80 455h64v-120q15 64 55.5 96.5t91.5 32.5q28 0 41 -4v-59q-21 3 -43 3q-73 0 -109 -61.5t-36 -145.5v-197h-64v455zM75 -177q51 0 60 40q4 8 4 19q0 7 -1 10q-3 -6 -10 -9.5t-15 -3.5q-21 0 -34.5 12.5t-13.5 32.5q0 19 14 32.5t34 13.5q28 0 45 -20t17 -53
q0 -50 -26 -75t-74 -25v26z" />
    <glyph glyph-name="Rcaron" unicode="&#x158;" horiz-adv-x="604" 
d="M300 737l-130 113l35 32l95 -85l94 85l35 -32zM516 318q-43 -61 -114 -84l148 -234h-77l-140 223h-4h-177v-223h-67v700h244q66 0 118.5 -30.5t82 -85t29.5 -122.5q0 -83 -43 -144zM152 284h173q48 0 86 23t59.5 63.5t21.5 91.5q0 50 -21.5 90.5t-59.5 63.5t-86 23h-173
v-355z" />
    <glyph glyph-name="rcaron" unicode="&#x159;" horiz-adv-x="355" 
d="M80 455h64v-120q15 64 55.5 96.5t91.5 32.5q28 0 41 -4v-59q-21 3 -43 3q-73 0 -109 -61.5t-36 -145.5v-197h-64v455zM25 654l40 38l114 -113l115 113l39 -38l-154 -147z" />
    <glyph glyph-name="Sacute" unicode="&#x15a;" horiz-adv-x="561" 
d="M157 776l228 115l24 -45l-228 -116zM107 47q-67 62 -67 170h67q0 -79 49.5 -125.5t133.5 -46.5q76 0 117.5 35t41.5 98q0 52 -29.5 84.5t-91.5 49.5l-118 36q-149 41 -149 182q0 54 27.5 96t77 65.5t113.5 23.5q102 0 162 -56.5t60 -153.5h-67q0 72 -41.5 111.5
t-115.5 39.5q-68 0 -108 -33.5t-40 -88.5q0 -52 31.5 -84.5t98.5 -51.5l114 -34q70 -20 106.5 -66.5t36.5 -118.5q0 -89 -61 -141.5t-165 -52.5q-116 0 -183 62z" />
    <glyph glyph-name="sacute" unicode="&#x15b;" horiz-adv-x="442" 
d="M128 7.5q-42 19.5 -65 52.5t-23 73h64q0 -39 33.5 -65.5t91.5 -26.5q47 0 75 20.5t28 57.5q0 29 -17 47t-60 29l-95 24q-106 27 -106 122q0 57 46.5 91.5t119.5 34.5q79 0 124.5 -35.5t45.5 -96.5h-63q-1 38 -30.5 59.5t-80.5 21.5q-43 0 -71 -19t-28 -54q0 -54 77 -73
l96 -26q53 -13 80 -44.5t27 -77.5q0 -64 -46 -99t-125 -35q-56 0 -98 19.5zM147 549l163 143l37 -39l-163 -142z" />
    <glyph glyph-name="Scircumflex" unicode="&#x15c;" horiz-adv-x="561" 
d="M408 770l-35 -32l-95 85l-94 -85l-35 32l129 113zM107 47q-67 62 -67 170h67q0 -79 49.5 -125.5t133.5 -46.5q76 0 117.5 35t41.5 98q0 52 -29.5 84.5t-91.5 49.5l-118 36q-149 41 -149 182q0 54 27.5 96t77 65.5t113.5 23.5q102 0 162 -56.5t60 -153.5h-67
q0 72 -41.5 111.5t-115.5 39.5q-68 0 -108 -33.5t-40 -88.5q0 -52 31.5 -84.5t98.5 -51.5l114 -34q70 -20 106.5 -66.5t36.5 -118.5q0 -89 -61 -141.5t-165 -52.5q-116 0 -183 62z" />
    <glyph glyph-name="scircumflex" unicode="&#x15d;" horiz-adv-x="442" 
d="M128 7.5q-42 19.5 -65 52.5t-23 73h64q0 -39 33.5 -65.5t91.5 -26.5q47 0 75 20.5t28 57.5q0 29 -17 47t-60 29l-95 24q-106 27 -106 122q0 57 46.5 91.5t119.5 34.5q79 0 124.5 -35.5t45.5 -96.5h-63q-1 38 -30.5 59.5t-80.5 21.5q-43 0 -71 -19t-28 -54q0 -54 77 -73
l96 -26q53 -13 80 -44.5t27 -77.5q0 -64 -46 -99t-125 -35q-56 0 -98 19.5zM371 546l-39 -38l-115 113l-114 -113l-40 38l154 147z" />
    <glyph glyph-name="Scedilla" unicode="&#x15e;" horiz-adv-x="561" 
d="M107 47q-67 62 -67 170h67q0 -79 49.5 -125.5t133.5 -46.5q76 0 117.5 35t41.5 98q0 52 -29.5 84.5t-91.5 49.5l-118 36q-149 41 -149 182q0 54 27.5 96t77 65.5t113.5 23.5q102 0 162 -56.5t60 -153.5h-67q0 72 -41.5 111.5t-115.5 39.5q-68 0 -108 -33.5t-40 -88.5
q0 -52 31.5 -84.5t98.5 -51.5l114 -34q70 -20 106.5 -66.5t36.5 -118.5q0 -89 -61 -141.5t-165 -52.5q-116 0 -183 62zM284.5 -195.5q-22.5 19.5 -24.5 50.5h38q1 -17 13.5 -27t31.5 -10q22 0 35 14t13 39q0 24 -12 38t-35 14q-29 0 -44 -24h-33v101h38v-67q6 9 20 14.5
t30 5.5q32 0 54 -22.5t22 -59.5q0 -38 -23.5 -62t-65.5 -24q-35 0 -57.5 19.5z" />
    <glyph glyph-name="scedilla" unicode="&#x15f;" horiz-adv-x="442" 
d="M128 7.5q-42 19.5 -65 52.5t-23 73h64q0 -39 33.5 -65.5t91.5 -26.5q47 0 75 20.5t28 57.5q0 29 -17 47t-60 29l-95 24q-106 27 -106 122q0 57 46.5 91.5t119.5 34.5q79 0 124.5 -35.5t45.5 -96.5h-63q-1 38 -30.5 59.5t-80.5 21.5q-43 0 -71 -19t-28 -54q0 -54 77 -73
l96 -26q53 -13 80 -44.5t27 -77.5q0 -64 -46 -99t-125 -35q-56 0 -98 19.5zM215.5 -195.5q-22.5 19.5 -24.5 50.5h38q1 -17 13.5 -27t31.5 -10q22 0 35 14t13 39q0 24 -12 38t-35 14q-29 0 -44 -24h-33v101h38v-67q6 9 20 14.5t30 5.5q32 0 54 -22.5t22 -59.5
q0 -38 -23.5 -62t-65.5 -24q-35 0 -57.5 19.5z" />
    <glyph glyph-name="Scaron" unicode="&#x160;" horiz-adv-x="561" 
d="M151 850l35 32l95 -85l94 85l35 -32l-129 -113zM107 47q-67 62 -67 170h67q0 -79 49.5 -125.5t133.5 -46.5q76 0 117.5 35t41.5 98q0 52 -29.5 84.5t-91.5 49.5l-118 36q-149 41 -149 182q0 54 27.5 96t77 65.5t113.5 23.5q102 0 162 -56.5t60 -153.5h-67
q0 72 -41.5 111.5t-115.5 39.5q-68 0 -108 -33.5t-40 -88.5q0 -52 31.5 -84.5t98.5 -51.5l114 -34q70 -20 106.5 -66.5t36.5 -118.5q0 -89 -61 -141.5t-165 -52.5q-116 0 -183 62z" />
    <glyph glyph-name="scaron" unicode="&#x161;" horiz-adv-x="442" 
d="M128 7.5q-42 19.5 -65 52.5t-23 73h64q0 -39 33.5 -65.5t91.5 -26.5q47 0 75 20.5t28 57.5q0 29 -17 47t-60 29l-95 24q-106 27 -106 122q0 57 46.5 91.5t119.5 34.5q79 0 124.5 -35.5t45.5 -96.5h-63q-1 38 -30.5 59.5t-80.5 21.5q-43 0 -71 -19t-28 -54q0 -54 77 -73
l96 -26q53 -13 80 -44.5t27 -77.5q0 -64 -46 -99t-125 -35q-56 0 -98 19.5zM63 655l40 38l114 -113l115 113l39 -38l-154 -147z" />
    <glyph glyph-name="uni0162" unicode="&#x162;" horiz-adv-x="510" 
d="M221 636h-213v64h495v-64h-215v-636h-67v636zM253.5 -195.5q-22.5 19.5 -24.5 50.5h38q1 -17 13.5 -27t31.5 -10q22 0 35 14t13 39q0 24 -12 38t-35 14q-29 0 -44 -24h-33v101h38v-67q6 9 20 14.5t30 5.5q32 0 54 -22.5t22 -59.5q0 -38 -23.5 -62t-65.5 -24
q-35 0 -57.5 19.5z" />
    <glyph glyph-name="uni0163" unicode="&#x163;" horiz-adv-x="346" 
d="M316 59v-57q-27 -8 -74 -8q-57 0 -94 30t-37 124v252h-89v55h89v152h63v-152h126v-55h-126v-239q0 -65 20.5 -86.5t60.5 -21.5q39 0 61 6zM226.5 -195.5q-22.5 19.5 -24.5 50.5h38q1 -17 13.5 -27t31.5 -10q22 0 35 14t13 39q0 24 -12 38t-35 14q-29 0 -44 -24h-33v101
h38v-67q6 9 20 14.5t30 5.5q32 0 54 -22.5t22 -59.5q0 -38 -23.5 -62t-65.5 -24q-35 0 -57.5 19.5z" />
    <glyph glyph-name="Tcaron" unicode="&#x164;" horiz-adv-x="510" 
d="M125 850l35 32l95 -85l94 85l35 -32l-129 -113zM221 636h-213v64h495v-64h-215v-636h-67v636z" />
    <glyph glyph-name="tcaron" unicode="&#x165;" horiz-adv-x="368" 
d="M316 59v-57q-27 -8 -74 -8q-57 0 -94 30t-37 124v252h-89v55h89v152h63v-152h126v-55h-126v-239q0 -65 20.5 -86.5t60.5 -21.5q39 0 61 6zM244.735 513.804v31.4189q5.71289 -0.952148 15.2334 -0.952148q19.9941 0 33.3232 10.4736q13.3291 10.4727 17.1377 28.5625
q1.9043 5.71289 1.9043 17.1377q0 9.52051 -3.80859 24.7539q-10.4727 -15.2334 -35.2266 -15.2334q-19.9941 0 -33.3232 14.2812t-13.3291 35.2275q0 21.8975 14.7568 36.6553q14.7578 14.7578 38.5596 14.7578q31.4189 0 51.8887 -26.1826t20.4697 -69.0264
q0 -48.5566 -24.7539 -75.6914t-66.6465 -27.1348q-11.4248 0 -16.1855 0.952148z" />
    <glyph glyph-name="Tbar" unicode="&#x166;" horiz-adv-x="510" 
d="M288 636v-165h149v-51h-149v-420h-67v420h-147v51h147v165h-213v64h495v-64h-215z" />
    <glyph glyph-name="tbar" unicode="&#x167;" horiz-adv-x="348" 
d="M318 59v-57q-27 -8 -74 -8q-57 0 -94 30t-37 124v73h-91v46h91v133h-89v55h89v152h63v-152h126v-55h-126v-133h129v-46h-129v-60q0 -65 20.5 -86.5t60.5 -21.5q39 0 61 6z" />
    <glyph glyph-name="Utilde" unicode="&#x168;" horiz-adv-x="630" 
d="M348.5 758.5q-19.5 8.5 -44.5 24.5q-21 14 -36.5 21t-30.5 7q-21 0 -38.5 -9.5t-37.5 -39.5l-29 27q43 73 103 73q20 0 38.5 -8t46.5 -25q24 -14 39.5 -21t30.5 -7q22 0 41 10.5t37 38.5l30 -28q-41 -72 -108 -72q-22 0 -41.5 8.5zM132.5 48.5q-67.5 63.5 -67.5 179.5
v472h67v-469q0 -89 49 -137t134 -48t134 48t49 137v469h67v-472q0 -116 -67.5 -179.5t-182.5 -63.5t-182.5 63.5z" />
    <glyph glyph-name="utilde" unicode="&#x169;" horiz-adv-x="563" 
d="M123.5 37.5q-48.5 49.5 -48.5 143.5v274h64v-260q0 -70 31.5 -110t99.5 -40q50 0 83.5 24.5t49 63.5t15.5 81v241h64v-455h-64v103q-17 -50 -60.5 -82.5t-104.5 -32.5q-81 0 -129.5 49.5zM322 548.5q-17 7.5 -43 23.5q-22 13 -37 20t-30 7q-20 0 -37 -10.5t-35 -35.5
l-27 34q38 66 97 66q18 0 35 -7.5t43 -23.5q22 -13 37 -20t30 -7q40 0 72 46l27 -34q-39 -66 -97 -66q-18 0 -35 7.5z" />
    <glyph glyph-name="Umacron" unicode="&#x16a;" horiz-adv-x="630" 
d="M138 824h354v-52h-354v52zM132.5 48.5q-67.5 63.5 -67.5 179.5v472h67v-469q0 -89 49 -137t134 -48t134 48t49 137v469h67v-472q0 -116 -67.5 -179.5t-182.5 -63.5t-182.5 63.5z" />
    <glyph glyph-name="umacron" unicode="&#x16b;" horiz-adv-x="563" 
d="M123.5 37.5q-48.5 49.5 -48.5 143.5v274h64v-260q0 -70 31.5 -110t99.5 -40q50 0 83.5 24.5t49 63.5t15.5 81v241h64v-455h-64v103q-17 -50 -60.5 -82.5t-104.5 -32.5q-81 0 -129.5 49.5zM124 607h317v-53h-317v53z" />
    <glyph glyph-name="Ubreve" unicode="&#x16c;" horiz-adv-x="630" 
d="M204 771.5q-46 35.5 -51 92.5h55q5 -39 35 -59.5t72 -20.5t72.5 20.5t35.5 59.5h54q-5 -57 -51 -92.5t-111 -35.5t-111 35.5zM132.5 48.5q-67.5 63.5 -67.5 179.5v472h67v-469q0 -89 49 -137t134 -48t134 48t49 137v469h67v-472q0 -116 -67.5 -179.5t-182.5 -63.5
t-182.5 63.5z" />
    <glyph glyph-name="ubreve" unicode="&#x16d;" horiz-adv-x="563" 
d="M123.5 37.5q-48.5 49.5 -48.5 143.5v274h64v-260q0 -70 31.5 -110t99.5 -40q50 0 83.5 24.5t49 63.5t15.5 81v241h64v-455h-64v103q-17 -50 -60.5 -82.5t-104.5 -32.5q-81 0 -129.5 49.5zM167 547.5q-46 38.5 -51 106.5h56q4 -46 34.5 -71t76.5 -25t76.5 25t34.5 71h55
q-5 -68 -50.5 -106.5t-115.5 -38.5t-116 38.5z" />
    <glyph glyph-name="Uring" unicode="&#x16e;" horiz-adv-x="630" 
d="M230 699.5q-35 34.5 -35 82.5q0 49 35 83.5t85 34.5t85 -34.5t35 -83.5q0 -48 -35 -82.5t-85 -34.5t-85 34.5zM369 728q22 22 22 54t-22 54t-54 22t-54 -22t-22 -54t22 -54t54 -22t54 22zM132.5 48.5q-67.5 63.5 -67.5 179.5v472h67v-469q0 -89 49 -137t134 -48t134 48
t49 137v469h67v-472q0 -116 -67.5 -179.5t-182.5 -63.5t-182.5 63.5z" />
    <glyph glyph-name="uring" unicode="&#x16f;" horiz-adv-x="563" 
d="M123.5 37.5q-48.5 49.5 -48.5 143.5v274h64v-260q0 -70 31.5 -110t99.5 -40q50 0 83.5 24.5t49 63.5t15.5 81v241h64v-455h-64v103q-17 -50 -60.5 -82.5t-104.5 -32.5q-81 0 -129.5 49.5zM205.5 525.5q-31.5 30.5 -31.5 77.5t31.5 77.5t77.5 30.5t77.5 -30.5t31.5 -77.5
t-31.5 -77.5t-77.5 -30.5t-77.5 30.5zM332.5 551q19.5 20 19.5 52q0 31 -20 51.5t-49 20.5t-49 -20.5t-20 -51.5q0 -32 19.5 -52t49.5 -20t49.5 20z" />
    <glyph glyph-name="Uhungarumlaut" unicode="&#x170;" horiz-adv-x="630" 
d="M183 753l129 131l58 -23l-149 -125zM367 753l129 131l57 -24l-148 -125zM132.5 48.5q-67.5 63.5 -67.5 179.5v472h67v-469q0 -89 49 -137t134 -48t134 48t49 137v469h67v-472q0 -116 -67.5 -179.5t-182.5 -63.5t-182.5 63.5z" />
    <glyph glyph-name="uhungarumlaut" unicode="&#x171;" horiz-adv-x="563" 
d="M123.5 37.5q-48.5 49.5 -48.5 143.5v274h64v-260q0 -70 31.5 -110t99.5 -40q50 0 83.5 24.5t49 63.5t15.5 81v241h64v-455h-64v103q-17 -50 -60.5 -82.5t-104.5 -32.5q-81 0 -129.5 49.5zM146 521l125 166l56 -28l-147 -156zM331 521l125 166l56 -28l-147 -157z" />
    <glyph glyph-name="Uogonek" unicode="&#x172;" horiz-adv-x="630" 
d="M132.5 48.5q-67.5 63.5 -67.5 179.5v472h67v-469q0 -89 49 -137t134 -48t134 48t49 137v469h67v-472q0 -116 -67.5 -179.5t-182.5 -63.5t-182.5 63.5zM286.5 -185.5q-28.5 26.5 -28.5 67.5q0 34 23 64.5t68 53.5h64q-48 -14 -71.5 -41t-23.5 -58q0 -28 17.5 -45.5
t47.5 -17.5q27 0 62 14l-1 -49q-39 -15 -78 -15q-51 0 -79.5 26.5z" />
    <glyph glyph-name="uogonek" unicode="&#x173;" horiz-adv-x="563" 
d="M123.5 37.5q-48.5 49.5 -48.5 143.5v274h64v-260q0 -70 31.5 -110t99.5 -40q50 0 83.5 24.5t49 63.5t15.5 81v241h64v-455h-64v103q-17 -50 -60.5 -82.5t-104.5 -32.5q-81 0 -129.5 49.5zM355.5 -185.5q-28.5 26.5 -28.5 67.5q0 34 23 64.5t68 53.5h64q-48 -14 -71.5 -41
t-23.5 -58q0 -28 17.5 -45.5t47.5 -17.5q27 0 62 14l-1 -49q-39 -15 -78 -15q-51 0 -79.5 26.5z" />
    <glyph glyph-name="Wcircumflex" unicode="&#x174;" horiz-adv-x="943" 
d="M599 770l-35 -32l-95 85l-94 -85l-35 32l129 113zM5 700h71l193 -591l176 591h53l175 -591l194 591h71l-237 -700h-52l-178 585l-177 -585h-52z" />
    <glyph glyph-name="wcircumflex" unicode="&#x175;" horiz-adv-x="726" 
d="M10 455h70l125 -364l123 364h69l123 -364l126 364h70l-169 -455h-56l-129 376l-128 -376h-55zM517 546l-39 -38l-115 113l-114 -113l-40 38l154 147z" />
    <glyph glyph-name="Ycircumflex" unicode="&#x176;" horiz-adv-x="542" 
d="M187 738l-35 32l129 113l130 -113l-35 -32l-95 85zM552 700l-357 -700h-74l141 277l-267 423h78l224 -354l181 354h74z" />
    <glyph glyph-name="ycircumflex" unicode="&#x177;" horiz-adv-x="567" 
d="M487 455v-470q0 -111 -64 -166q-54 -46 -144 -46q-98 0 -153 46q-50 43 -51 117h65q2 -49 34.5 -78.5t103.5 -29.5q145 0 145 161v112q-20 -50 -64 -81t-106 -31q-91 0 -134.5 52.5t-43.5 149.5v264h64v-252q0 -77 30 -116.5t104 -39.5q49 0 82.5 25t50.5 65t17 85v233
h64zM433 546l-39 -38l-115 113l-114 -113l-40 38l154 147z" />
    <glyph glyph-name="Ydieresis" unicode="&#x178;" horiz-adv-x="542" 
d="M126.5 773.5q-16.5 16.5 -16.5 39.5q0 25 16.5 41.5t40.5 16.5t41 -16.5t17 -41.5q0 -23 -17 -39.5t-41 -16.5t-40.5 16.5zM360.5 773.5q-16.5 16.5 -16.5 39.5q0 25 16.5 41.5t40.5 16.5t41 -16.5t17 -41.5q0 -23 -17 -39.5t-41 -16.5t-40.5 16.5zM552 700l-357 -700
h-74l141 277l-267 423h78l224 -354l181 354h74z" />
    <glyph glyph-name="Zacute" unicode="&#x179;" horiz-adv-x="565" 
d="M163 776l228 115l24 -45l-228 -116zM412 639h-355v61h468l-384 -639h388v-61h-504z" />
    <glyph glyph-name="zacute" unicode="&#x17a;" horiz-adv-x="436" 
d="M308 400h-270v55h381l-289 -400h282v-55h-392zM146 549l163 143l37 -39l-163 -142z" />
    <glyph glyph-name="Zdotaccent" unicode="&#x17b;" horiz-adv-x="565" 
d="M245 771.5q-16 16.5 -16 40.5t16.5 41t40.5 17q25 0 41.5 -17t16.5 -41t-16.5 -40.5t-41.5 -16.5t-41 16.5zM412 639h-355v61h468l-384 -639h388v-61h-504z" />
    <glyph glyph-name="zdotaccent" unicode="&#x17c;" horiz-adv-x="436" 
d="M308 400h-270v55h381l-289 -400h282v-55h-392zM173.5 564q-16.5 17 -16.5 42q0 26 16.5 43t42.5 17t43 -17t17 -43q0 -25 -17 -42t-43 -17t-42.5 17z" />
    <glyph glyph-name="Zcaron" unicode="&#x17d;" horiz-adv-x="565" 
d="M157 850l35 32l95 -85l94 85l35 -32l-129 -113zM412 639h-355v61h468l-384 -639h388v-61h-504z" />
    <glyph glyph-name="zcaron" unicode="&#x17e;" horiz-adv-x="436" 
d="M308 400h-270v55h381l-289 -400h282v-55h-392zM62 655l40 38l114 -113l115 113l39 -38l-154 -147z" />
    <glyph glyph-name="florin" unicode="&#x192;" horiz-adv-x="428" 
d="M307.5 609.5q-25.5 -22.5 -36.5 -83.5l-15 -84h138l-10 -55h-138l-80 -450q-28 -160 -159 -160q-40 0 -69 12l9 56q12 -5 23.5 -7t29.5 -2q41 0 66.5 21.5t35.5 78.5l80 451h-101l10 55h101l15 85q16 89 58.5 126t106.5 37q40 0 65 -11l-9 -56q-21 9 -54 9
q-41 0 -66.5 -22.5z" />
    <glyph glyph-name="AEacute" unicode="&#x1fc;" horiz-adv-x="818" 
d="M469 730l-24 46l228 115l24 -45zM464 639v-261h284v-61h-284v-256h284v-61h-351v128h-246l-63 -128h-73l353 700h380v-61h-284zM397 187v443l-217 -443h217z" />
    <glyph glyph-name="aeacute" unicode="&#x1fd;" horiz-adv-x="879" 
d="M837 212h-370q1 -77 45.5 -122.5t118.5 -45.5q50 0 86 23t51 64h65q-14 -65 -69.5 -104.5t-132.5 -39.5q-66 0 -117.5 30.5t-79.5 85.5q-57 -115 -211 -115q-79 0 -128.5 35.5t-49.5 94.5q0 73 53 109q29 19 71.5 27t113.5 8h125v38q0 52 -35.5 83t-105.5 31
q-64 0 -101 -28.5t-40 -80.5h-64q4 74 60 118t146 44q70 0 116 -23.5t66 -66.5q29 43 74.5 66t102.5 23q61 0 109.5 -27t75.5 -75t27 -109q0 -9 -2 -43zM775 262q0 68 -40.5 110.5t-107.5 42.5q-70 0 -113.5 -41.5t-45.5 -111.5h307zM408 200l-1 12h-152q-73 0 -108.5 -23.5
t-35.5 -65.5q0 -41 34 -62t95 -21q71 0 119.5 39.5t48.5 108.5v12zM376 549l163 143l37 -39l-163 -142z" />
    <glyph glyph-name="Oslashacute" unicode="&#x1fe;" horiz-adv-x="800" 
d="M303 730l-24 46l228 115l24 -45zM709 545.5q51 -88.5 51 -195.5q0 -98 -44 -181.5t-125.5 -133.5t-190.5 -50q-63 0 -122 19l-34 -79l-47 21l33 77q-90 46 -140 133.5t-50 193.5q0 98 44 181.5t125.5 133.5t190.5 50q64 0 120 -18l32 75l46 -20l-32 -74
q92 -44 143 -132.5zM148 192q38 -72 107 -110l240 558q-45 14 -95 14q-88 0 -154 -41.5t-101 -111t-35 -151.5q0 -86 38 -158zM554 87.5q66 41.5 101 111t35 151.5q0 87 -39 159.5t-110 110.5l-239 -559q45 -15 98 -15q88 0 154 41.5z" />
    <glyph glyph-name="oslashacute" unicode="&#x1ff;" horiz-adv-x="549" 
d="M479 351q30 -55 30 -123q0 -67 -29 -121.5t-82 -86.5t-124 -32q-37 0 -69 9l-28 -64l-39 17l27 62q-59 29 -92 86.5t-33 129.5q0 66 29 120.5t82 86.5t123 32q46 0 82 -13l23 54l39 -17l-23 -54q54 -31 84 -86zM126.5 132.5q22.5 -42.5 62.5 -64.5l143 332q-25 9 -58 9
q-52 0 -90.5 -24t-59 -65.5t-20.5 -92.5q0 -52 22.5 -94.5zM365 71q39 24 59.5 65t20.5 92q0 49 -19.5 89.5t-54.5 63.5l-142 -329q23 -5 45 -5q52 0 91 24zM203 536l163 143l37 -39l-163 -142z" />
    <glyph glyph-name="Scommaaccent" unicode="&#x218;" horiz-adv-x="561" 
d="M107 47q-67 62 -67 170h67q0 -79 49.5 -125.5t133.5 -46.5q76 0 117.5 35t41.5 98q0 52 -29.5 84.5t-91.5 49.5l-118 36q-149 41 -149 182q0 54 27.5 96t77 65.5t113.5 23.5q102 0 162 -56.5t60 -153.5h-67q0 72 -41.5 111.5t-115.5 39.5q-68 0 -108 -33.5t-40 -88.5
q0 -52 31.5 -84.5t98.5 -51.5l114 -34q70 -20 106.5 -66.5t36.5 -118.5q0 -89 -61 -141.5t-165 -52.5q-116 0 -183 62zM245 -177q51 0 60 40q4 8 4 19q0 7 -1 10q-3 -6 -10 -9.5t-15 -3.5q-21 0 -34.5 12.5t-13.5 32.5q0 19 14 32.5t34 13.5q28 0 45 -20t17 -53
q0 -50 -26 -75t-74 -25v26z" />
    <glyph glyph-name="scommaaccent" unicode="&#x219;" horiz-adv-x="442" 
d="M128 7.5q-42 19.5 -65 52.5t-23 73h64q0 -39 33.5 -65.5t91.5 -26.5q47 0 75 20.5t28 57.5q0 29 -17 47t-60 29l-95 24q-106 27 -106 122q0 57 46.5 91.5t119.5 34.5q79 0 124.5 -35.5t45.5 -96.5h-63q-1 38 -30.5 59.5t-80.5 21.5q-43 0 -71 -19t-28 -54q0 -54 77 -73
l96 -26q53 -13 80 -44.5t27 -77.5q0 -64 -46 -99t-125 -35q-56 0 -98 19.5zM176 -177q51 0 60 40q4 8 4 19q0 7 -1 10q-3 -6 -10 -9.5t-15 -3.5q-21 0 -34.5 12.5t-13.5 32.5q0 19 14 32.5t34 13.5q28 0 45 -20t17 -53q0 -50 -26 -75t-74 -25v26z" />
    <glyph glyph-name="uni021A" unicode="&#x21a;" horiz-adv-x="510" 
d="M221 636h-213v64h495v-64h-215v-636h-67v636zM214 -177q51 0 60 40q4 8 4 19q0 7 -1 10q-3 -6 -10 -9.5t-15 -3.5q-21 0 -34.5 12.5t-13.5 32.5q0 19 14 32.5t34 13.5q28 0 45 -20t17 -53q0 -50 -26 -75t-74 -25v26z" />
    <glyph glyph-name="uni021B" unicode="&#x21b;" horiz-adv-x="346" 
d="M316 59v-57q-27 -8 -74 -8q-57 0 -94 30t-37 124v252h-89v55h89v152h63v-152h126v-55h-126v-239q0 -65 20.5 -86.5t60.5 -21.5q39 0 61 6zM187 -177q51 0 60 40q4 8 4 19q0 7 -1 10q-3 -6 -10 -9.5t-15 -3.5q-21 0 -34.5 12.5t-13.5 32.5q0 19 14 32.5t34 13.5
q28 0 45 -20t17 -53q0 -50 -26 -75t-74 -25v26z" />
    <glyph glyph-name="uni0237" unicode="&#x237;" horiz-adv-x="227" 
d="M-29 -210v60q24 -10 52 -10q29 0 44.5 20t15.5 57v538h64v-554q0 -58 -29.5 -90t-83.5 -32q-40 0 -63 11z" />
    <glyph glyph-name="uni0243" unicode="&#x243;" horiz-adv-x="579" 
d="M482.5 58.5q-46.5 -47.5 -128.5 -56.5v-100h-50v98h-72v-98h-51v98h-96v681h96v99h51v-99h72v99h50v-102q79 -9 123.5 -54.5t44.5 -118.5q0 -67 -35.5 -109t-95.5 -51q60 -9 99 -52.5t39 -110.5q0 -76 -46.5 -123.5zM152 622v-249h170q59 0 96 34t37 91q0 58 -39 91
t-107 33h-157zM423 94q39 34 39 94q0 56 -37.5 91t-93.5 35h-179v-254h165q67 0 106 34z" />
    <glyph glyph-name="uni02BC" unicode="&#x2bc;" horiz-adv-x="268" 
d="M184.5 713.5q23.5 -27.5 23.5 -75.5q0 -54 -29 -87t-79 -33q-16 0 -27 3v33q9 -2 26 -2q22 0 36.5 11.5t19.5 31.5q5 12 5 30q0 12 -1 17q-11 -14 -34 -14q-24 0 -39.5 15t-15.5 40t16 41.5t43 16.5q32 0 55.5 -27.5z" />
    <glyph glyph-name="circumflex" unicode="&#x2c6;" horiz-adv-x="600" 
d="M351 546l-39 -38l-115 113l-114 -113l-40 38l154 147z" />
    <glyph glyph-name="caron" unicode="&#x2c7;" horiz-adv-x="600" 
d="M43 655l40 38l114 -113l115 113l39 -38l-154 -147z" />
    <glyph glyph-name="breve" unicode="&#x2d8;" horiz-adv-x="600" 
d="M121 547.5q-46 38.5 -51 106.5h56q4 -46 34.5 -71t76.5 -25t76.5 25t34.5 71h55q-5 -68 -50.5 -106.5t-115.5 -38.5t-116 38.5z" />
    <glyph glyph-name="dotaccent" unicode="&#x2d9;" horiz-adv-x="600" 
d="M257.5 564q-16.5 17 -16.5 42q0 26 16.5 43t42.5 17t43 -17t17 -43q0 -25 -17 -42t-43 -17t-42.5 17z" />
    <glyph glyph-name="ring" unicode="&#x2da;" horiz-adv-x="600" 
d="M83.5 525.5q-31.5 30.5 -31.5 77.5t31.5 77.5t77.5 30.5t77.5 -30.5t31.5 -77.5t-31.5 -77.5t-77.5 -30.5t-77.5 30.5zM210.5 551q19.5 20 19.5 52q0 31 -20 51.5t-49 20.5t-49 -20.5t-20 -51.5q0 -32 19.5 -52t49.5 -20t49.5 20z" />
    <glyph glyph-name="ogonek" unicode="&#x2db;" horiz-adv-x="600" 
d="M58.5 -185.5q-28.5 26.5 -28.5 67.5q0 34 23 64.5t68 53.5h64q-48 -14 -71.5 -41t-23.5 -58q0 -28 17.5 -45.5t47.5 -17.5q27 0 62 14l-1 -49q-39 -15 -78 -15q-51 0 -79.5 26.5z" />
    <glyph glyph-name="tilde" unicode="&#x2dc;" horiz-adv-x="600" 
d="M253 548.5q-17 7.5 -43 23.5q-22 13 -37 20t-30 7q-20 0 -37 -10.5t-35 -35.5l-27 34q38 66 97 66q18 0 35 -7.5t43 -23.5q22 -13 37 -20t30 -7q40 0 72 46l27 -34q-39 -66 -97 -66q-18 0 -35 7.5z" />
    <glyph glyph-name="hungarumlaut" unicode="&#x2dd;" horiz-adv-x="600" 
d="M54 521l125 166l56 -28l-147 -156zM239 521l125 166l56 -28l-147 -157z" />
    <glyph glyph-name="gravecomb" unicode="&#x300;" horiz-adv-x="0" 
d="M-298 653l37 39l163 -143l-37 -38z" />
    <glyph glyph-name="acutecomb" unicode="&#x301;" horiz-adv-x="0" 
d="M-234 549l163 143l37 -39l-163 -142z" />
    <glyph glyph-name="uni0302" unicode="&#x302;" horiz-adv-x="0" 
d="M-44 546l-39 -38l-115 113l-114 -113l-40 38l154 147z" />
    <glyph glyph-name="tildecomb" unicode="&#x303;" horiz-adv-x="0" 
d="M-169 548.5q-17 7.5 -43 23.5q-22 13 -37 20t-30 7q-20 0 -37 -10.5t-35 -35.5l-27 34q38 66 97 66q18 0 35 -7.5t43 -23.5q22 -13 37 -20t30 -7q40 0 72 46l27 -34q-39 -66 -97 -66q-18 0 -35 7.5z" />
    <glyph glyph-name="uni0304" unicode="&#x304;" horiz-adv-x="0" 
d="M-394 607h317v-53h-317v53z" />
    <glyph glyph-name="uni0306" unicode="&#x306;" horiz-adv-x="0" 
d="M-353 547.5q-46 38.5 -51 106.5h56q4 -46 34.5 -71t76.5 -25t76.5 25t34.5 71h55q-5 -68 -50.5 -106.5t-115.5 -38.5t-116 38.5z" />
    <glyph glyph-name="uni0307" unicode="&#x307;" horiz-adv-x="0" 
d="M-144.5 564q-16.5 17 -16.5 42q0 26 16.5 43t42.5 17t43 -17t17 -43q0 -25 -17 -42t-43 -17t-42.5 17z" />
    <glyph glyph-name="uni0308" unicode="&#x308;" horiz-adv-x="0" 
d="M-363.5 563.5q-16.5 16.5 -16.5 39.5q0 25 16.5 41.5t39.5 16.5q25 0 41.5 -16.5t16.5 -41.5q0 -23 -16.5 -39.5t-41.5 -16.5q-23 0 -39.5 16.5zM-166.5 563.5q-16.5 16.5 -16.5 39.5q0 25 16.5 41.5t39.5 16.5q25 0 41.5 -16.5t16.5 -41.5q0 -23 -16.5 -39.5
t-41.5 -16.5q-23 0 -39.5 16.5z" />
    <glyph glyph-name="uni030A" unicode="&#x30a;" horiz-adv-x="0" 
d="M-237.5 525.5q-31.5 30.5 -31.5 77.5t31.5 77.5t77.5 30.5t77.5 -30.5t31.5 -77.5t-31.5 -77.5t-77.5 -30.5t-77.5 30.5zM-110.5 551q19.5 20 19.5 52q0 31 -20 51.5t-49 20.5t-49 -20.5t-20 -51.5q0 -32 19.5 -52t49.5 -20t49.5 20z" />
    <glyph glyph-name="uni030B" unicode="&#x30b;" horiz-adv-x="0" 
d="M-389 521l125 166l56 -28l-147 -156zM-204 521l125 166l56 -28l-147 -157z" />
    <glyph glyph-name="uni030C" unicode="&#x30c;" horiz-adv-x="0" 
d="M-352 655l40 38l114 -113l115 113l39 -38l-154 -147z" />
    <glyph glyph-name="uni0312" unicode="&#x312;" horiz-adv-x="0" 
d="M-400 664q-25 0 -40.5 -9t-19.5 -25q-8 -17 -6 -32q7 15 28 15q19 0 32 -13.5t13 -32.5q0 -20 -14 -34t-35 -14q-27 0 -44 22.5t-17 56.5q0 44 27 68.5t76 24.5v-27z" />
    <glyph glyph-name="uni0326" unicode="&#x326;" horiz-adv-x="0" 
d="M-140 -177q51 0 60 40q4 8 4 19q0 7 -1 10q-3 -6 -10 -9.5t-15 -3.5q-21 0 -34.5 12.5t-13.5 32.5q0 19 14 32.5t34 13.5q28 0 45 -20t17 -53q0 -50 -26 -75t-74 -25v26z" />
    <glyph glyph-name="uni0327" unicode="&#x327;" horiz-adv-x="0" 
d="M-183.5 -195.5q-22.5 19.5 -24.5 50.5h38q1 -17 13.5 -27t31.5 -10q22 0 35 14t13 39q0 24 -12 38t-35 14q-29 0 -44 -24h-33v101h38v-67q6 9 20 14.5t30 5.5q32 0 54 -22.5t22 -59.5q0 -38 -23.5 -62t-65.5 -24q-35 0 -57.5 19.5z" />
    <glyph glyph-name="uni0328" unicode="&#x328;" horiz-adv-x="0" 
d="M-207.5 -185.5q-28.5 26.5 -28.5 67.5q0 34 23 64.5t68 53.5h64q-48 -14 -71.5 -41t-23.5 -58q0 -28 17.5 -45.5t47.5 -17.5q27 0 62 14l-1 -49q-39 -15 -78 -15q-51 0 -79.5 26.5z" />
    <glyph glyph-name="uni0394" unicode="&#x394;" horiz-adv-x="573" 
d="M261 700h51l241 -700h-533zM460 61l-174 532l-173 -532h347z" />
    <glyph glyph-name="uni03A9" unicode="&#x3a9;" horiz-adv-x="707" 
d="M63 61h200v38q-66 19 -116.5 63.5t-78.5 106t-28 129.5q0 87 38 159t109.5 114t166.5 42t166 -42t109 -114t38 -159q0 -68 -28 -129.5t-78.5 -106t-116.5 -63.5v-38h200v-61h-255v138q64 12 112 50t73.5 94t25.5 119q0 70 -29 127t-84.5 90t-132.5 33t-133 -33t-85 -90
t-29 -127q0 -63 25.5 -119t73.5 -94t112 -50v-138h-255v61z" />
    <glyph glyph-name="uni03BC" unicode="&#x3bc;" horiz-adv-x="568" 
d="M487 455v-455h-64v103q-17 -50 -60.5 -82.5t-104.5 -32.5q-78 0 -114 53v-256h-64v670h64v-260q0 -70 31.5 -110t99.5 -40q50 0 83.5 24.5t49 63.5t15.5 81v241h64z" />
    <glyph glyph-name="pi" unicode="&#x3c0;" horiz-adv-x="601" 
d="M135 384h-55v58h441v-58h-55v-384h-64v384h-203v-384h-64v384z" />
    <glyph glyph-name="uni0401" unicode="&#x401;" horiz-adv-x="547" 
d="M130.5 773.5q-16.5 16.5 -16.5 39.5q0 25 16.5 41.5t40.5 16.5t41 -16.5t17 -41.5q0 -23 -17 -39.5t-41 -16.5t-40.5 16.5zM364.5 773.5q-16.5 16.5 -16.5 39.5q0 25 16.5 41.5t40.5 16.5t41 -16.5t17 -41.5q0 -23 -17 -39.5t-41 -16.5t-40.5 16.5zM85 700h391v-61h-324
v-261h324v-61h-324v-256h324v-61h-391v700z" />
    <glyph glyph-name="uni0402" unicode="&#x402;" horiz-adv-x="701" 
d="M552.5 446q49.5 -27 79 -80.5t29.5 -130.5q0 -121 -60.5 -184t-173.5 -63q-31 0 -59 7v59q24 -6 50 -6q88 0 131.5 49t43.5 134q0 90 -44 135.5t-118 45.5q-41 0 -76 -9t-67 -31v-372h-67v636h-213v64h495v-64h-215v-203q64 40 154 40q61 0 110.5 -27z" />
    <glyph glyph-name="uni0403" unicode="&#x403;" horiz-adv-x="474" 
d="M163 776l228 115l24 -45l-228 -116zM466 700v-64h-314v-636h-67v700h381z" />
    <glyph glyph-name="uni0404" unicode="&#x404;" horiz-adv-x="753" 
d="M551.5 91.5q65.5 45.5 86.5 121.5h73q-25 -104 -110 -166t-208 -62q-102 0 -182.5 46.5t-125.5 129.5t-45 189t45 189t125.5 129.5t182.5 46.5q121 0 207 -61t111 -166h-74q-20 76 -85.5 121t-158.5 45q-78 0 -139.5 -34t-99 -95.5t-43.5 -143.5h377v-62h-377
q6 -82 43.5 -143.5t99 -95.5t139.5 -34q93 0 158.5 45.5z" />
    <glyph glyph-name="uni0405" unicode="&#x405;" horiz-adv-x="561" 
d="M107 47q-67 62 -67 170h67q0 -79 49.5 -125.5t133.5 -46.5q76 0 117.5 35t41.5 98q0 52 -29.5 84.5t-91.5 49.5l-118 36q-149 41 -149 182q0 54 27.5 96t77 65.5t113.5 23.5q102 0 162 -56.5t60 -153.5h-67q0 72 -41.5 111.5t-115.5 39.5q-68 0 -108 -33.5t-40 -88.5
q0 -52 31.5 -84.5t98.5 -51.5l114 -34q70 -20 106.5 -66.5t36.5 -118.5q0 -89 -61 -141.5t-165 -52.5q-116 0 -183 62z" />
    <glyph glyph-name="uni0406" unicode="&#x406;" horiz-adv-x="237" 
d="M85 700h67v-700h-67v700z" />
    <glyph glyph-name="uni0407" unicode="&#x407;" horiz-adv-x="237" 
d="M17.5 774q-15.5 15 -15.5 39t15.5 39t38.5 15t38.5 -15t15.5 -39t-15.5 -39t-38.5 -15t-38.5 15zM143.5 774q-15.5 15 -15.5 39t15.5 39t38.5 15q24 0 39.5 -15t15.5 -39t-15.5 -39t-39.5 -15q-23 0 -38.5 15zM85 700h67v-700h-67v700z" />
    <glyph glyph-name="uni0408" unicode="&#x408;" horiz-adv-x="537" 
d="M134.5 12.5q-51.5 27.5 -80.5 79.5t-29 124h67q0 -80 44.5 -125t115.5 -45q70 0 111 47t41 128v479h67v-479q0 -110 -59.5 -173t-159.5 -63q-66 0 -117.5 27.5z" />
    <glyph glyph-name="uni0409" unicode="&#x409;" horiz-adv-x="1005" 
d="M49 60q54 0 80.5 42.5t26.5 149.5v448h434v-700h-67v640h-300v-390q0 -137 -43 -195.5t-120 -58.5h-37v64h26zM523 700h67v-307h188q53 0 96.5 -26.5t68 -71.5t24.5 -99q0 -53 -25 -98t-69 -71.5t-98 -26.5h-252v700zM775 61q53 0 89 39.5t36 95.5t-35 96t-87 40h-188
v-271h185z" />
    <glyph glyph-name="uni040A" unicode="&#x40a;" horiz-adv-x="996" 
d="M85 700h67v-322h362v322h67v-700h-67v317h-362v-317h-67v700zM514 700h67v-307h188q53 0 96.5 -26.5t68 -71.5t24.5 -99q0 -53 -25 -98t-69 -71.5t-98 -26.5h-252v700zM766 61q53 0 89 39.5t36 95.5t-35 96t-87 40h-188v-271h185z" />
    <glyph glyph-name="uni040B" unicode="&#x40b;" horiz-adv-x="736" 
d="M608 406.5q53 -59.5 53 -161.5v-245h-67v229q0 86 -39 131t-122 45q-43 0 -78 -9t-67 -34v-362h-67v636h-213v64h495v-64h-215v-213q37 25 76 34t86 9q105 0 158 -59.5z" />
    <glyph glyph-name="uni040C" unicode="&#x40c;" horiz-adv-x="586" 
d="M208 730l-24 46l228 115l24 -45zM569 0h-87l-330 356v-356h-67v700h67v-307h39q57 0 93 64l93 154q29 49 55.5 70t65.5 21h50v-61h-37q-25 0 -41.5 -14t-41.5 -54l-93 -153q-36 -61 -88 -61h-16z" />
    <glyph glyph-name="uni040E" unicode="&#x40e;" horiz-adv-x="542" 
d="M173 771.5q-46 35.5 -51 92.5h55q5 -39 35 -59.5t72 -20.5t72.5 20.5t35.5 59.5h54q-5 -57 -51 -92.5t-111 -35.5t-111 35.5zM552 700l-357 -700h-74l141 277l-267 423h78l224 -354l181 354h74z" />
    <glyph glyph-name="uni040F" unicode="&#x40f;" horiz-adv-x="637" 
d="M552 0h-200v-120h-67v120h-200v700h67v-639h333v639h67v-700z" />
    <glyph glyph-name="uni0410" unicode="&#x410;" horiz-adv-x="577" 
d="M443 126h-310l-40 -126h-73l238 700h61l238 -700h-73zM424 187l-136 422l-135 -422h271z" />
    <glyph glyph-name="uni0411" unicode="&#x411;" horiz-adv-x="567" 
d="M85 700h387v-61h-320v-246h188q53 0 96.5 -26.5t68 -71.5t24.5 -99q0 -53 -25 -98t-69 -71.5t-98 -26.5h-252v700zM337 61q53 0 89 39.5t36 95.5t-35 96t-87 40h-188v-271h185z" />
    <glyph glyph-name="uni0412" unicode="&#x412;" horiz-adv-x="579" 
d="M489.5 301.5q39.5 -44.5 39.5 -114.5q0 -87 -57 -137t-154 -50h-233v700h227q97 0 153.5 -48t56.5 -133q0 -68 -35 -110t-96 -54q59 -9 98.5 -53.5zM152 640v-257h170q59 0 96 35t37 94q0 60 -39 94t-107 34h-157zM423 95q39 35 39 98q0 58 -37 94t-94 36h-179v-263h165
q67 0 106 35z" />
    <glyph glyph-name="uni0413" unicode="&#x413;" horiz-adv-x="474" 
d="M466 700v-64h-314v-636h-67v700h381z" />
    <glyph glyph-name="uni0414" unicode="&#x414;" horiz-adv-x="634" 
d="M582 61v-181h-64v120h-426v-120h-67v181h30q41 0 61.5 42.5t20.5 148.5v448h408v-639h37zM477 61v578h-272v-386q0 -126 -43 -192h315z" />
    <glyph glyph-name="uni0415" unicode="&#x415;" horiz-adv-x="547" 
d="M85 700h391v-61h-324v-261h324v-61h-324v-256h324v-61h-391v700z" />
    <glyph glyph-name="uni0416" unicode="&#x416;" horiz-adv-x="935" 
d="M918 0h-87l-330 356v-356h-67v700h67v-307h39q57 0 93 64l93 154q29 49 55.5 70t65.5 21h50v-61h-37q-25 0 -41.5 -14t-41.5 -54l-93 -153q-36 -61 -88 -61h-16zM17 0h87l330 356v-356h67v700h-67v-307h-39q-57 0 -93 64l-93 154q-29 49 -55.5 70t-65.5 21h-50v-61h37
q25 0 41.5 -14t41.5 -54l93 -153q36 -61 88 -61h16z" />
    <glyph glyph-name="uni0417" unicode="&#x417;" horiz-adv-x="555" 
d="M158 88.5q46 -42.5 121 -42.5t118.5 41t43.5 104q0 65 -41 102t-119 37h-55v61h55q72 0 110.5 36.5t38.5 93.5q0 59 -41 96t-109 37q-73 0 -118 -39t-45 -105h-67q0 60 28.5 106.5t80.5 72.5t119 26q63 0 112.5 -22.5t78 -65.5t28.5 -101q0 -62 -35.5 -106.5t-94.5 -55.5
q64 -11 102.5 -57.5t38.5 -115.5q0 -61 -28 -107.5t-79.5 -72.5t-120.5 -26t-122.5 26.5t-83 76t-29.5 115.5h67q0 -72 46 -114.5z" />
    <glyph glyph-name="uni0418" unicode="&#x418;" horiz-adv-x="665" 
d="M152 45v-45h-67v700h67v-554l361 509v45h67v-700h-67v555z" />
    <glyph glyph-name="uni0419" unicode="&#x419;" horiz-adv-x="665" 
d="M219.5 745q-46.5 29 -51.5 79h55q5 -31 36 -46.5t76 -15.5t76 15.5t37 46.5h54q-5 -50 -51.5 -79t-115.5 -29t-115.5 29zM152 45v-45h-67v700h67v-554l361 509v45h67v-700h-67v555z" />
    <glyph glyph-name="uni041A" unicode="&#x41a;" horiz-adv-x="586" 
d="M569 0h-87l-330 356v-356h-67v700h67v-307h39q57 0 93 64l93 154q29 49 55.5 70t65.5 21h50v-61h-37q-25 0 -41.5 -14t-41.5 -54l-93 -153q-36 -61 -88 -61h-16z" />
    <glyph glyph-name="uni041B" unicode="&#x41b;" horiz-adv-x="676" 
d="M49 60q54 0 80.5 42.5t26.5 149.5v448h434v-700h-67v640h-300v-390q0 -137 -43 -195.5t-120 -58.5h-37v64h26z" />
    <glyph glyph-name="uni041C" unicode="&#x41c;" horiz-adv-x="814" 
d="M85 700h65l257 -606l257 606h65v-700h-65v558l-230 -558h-54l-230 561v-561h-65v700z" />
    <glyph glyph-name="uni041D" unicode="&#x41d;" horiz-adv-x="666" 
d="M85 700h67v-322h362v322h67v-700h-67v317h-362v-317h-67v700z" />
    <glyph glyph-name="uni041E" unicode="&#x41e;" horiz-adv-x="800" 
d="M209.5 35q-81.5 50 -125.5 133.5t-44 181.5t44 181.5t125.5 133.5t190.5 50t190.5 -50t125.5 -133.5t44 -181.5t-44 -181.5t-125.5 -133.5t-190.5 -50t-190.5 50zM554 87.5q66 41.5 101 111t35 151.5t-35 151.5t-101 111t-154 41.5t-154 -41.5t-101 -111t-35 -151.5
t35 -151.5t101 -111t154 -41.5t154 41.5z" />
    <glyph glyph-name="uni041F" unicode="&#x41f;" horiz-adv-x="662" 
d="M152 0h-67v700h492v-700h-67v639h-358v-639z" />
    <glyph glyph-name="uni0420" unicode="&#x420;" horiz-adv-x="577" 
d="M447.5 669.5q52.5 -30.5 82 -85t29.5 -122.5q0 -69 -29.5 -123.5t-82 -85t-118.5 -30.5h-177v-223h-67v700h244q66 0 118.5 -30.5zM411 307q38 23 59.5 63.5t21.5 91.5q0 50 -21.5 90.5t-59.5 63.5t-86 23h-173v-355h173q48 0 86 23z" />
    <glyph glyph-name="uni0421" unicode="&#x421;" horiz-adv-x="774" 
d="M209.5 33.5q-81.5 48.5 -125.5 131.5t-44 185t44 185t125.5 131.5t191.5 48.5q135 0 221 -65t109 -170h-73q-23 80 -88.5 127t-168.5 47q-89 0 -155 -40t-101 -109t-35 -155t35 -155t101 -109t155 -40q103 0 168.5 47t88.5 127h73q-23 -105 -109 -170t-221 -65
q-110 0 -191.5 48.5z" />
    <glyph glyph-name="uni0422" unicode="&#x422;" horiz-adv-x="510" 
d="M221 636h-213v64h495v-64h-215v-636h-67v636z" />
    <glyph glyph-name="uni0423" unicode="&#x423;" horiz-adv-x="542" 
d="M552 700l-357 -700h-74l141 277l-267 423h78l224 -354l181 354h74z" />
    <glyph glyph-name="uni0424" unicode="&#x424;" horiz-adv-x="726" 
d="M583 567.5q55 -33.5 85 -91t30 -126.5t-30 -126.5t-85 -91t-127 -33.5h-60v-99h-67v99h-60q-72 0 -126.5 33.5t-84.5 91t-30 126.5t30 126.5t84.5 91t126.5 33.5h60v99h67v-99h60q72 0 127 -33.5zM116.5 254.5q21.5 -43.5 61 -69t91.5 -25.5h60v380h-60
q-52 0 -91.5 -25.5t-61 -68.5t-21.5 -96q0 -52 21.5 -95.5zM548 185.5q40 25.5 61.5 69t21.5 95.5q0 53 -21.5 96t-61.5 68.5t-92 25.5h-60v-380h60q52 0 92 25.5z" />
    <glyph glyph-name="uni0425" unicode="&#x425;" horiz-adv-x="592" 
d="M258 350l-233 350h76l195 -295l195 295h76l-233 -350l233 -350h-76l-195 294l-195 -294h-76z" />
    <glyph glyph-name="uni0426" unicode="&#x426;" horiz-adv-x="642" 
d="M589 61v-181h-64v120h-440v700h67v-639h333v639h67v-639h37z" />
    <glyph glyph-name="uni0427" unicode="&#x427;" horiz-adv-x="575" 
d="M423 277q-37 -25 -76 -34t-86 -9q-105 0 -158 59.5t-53 161.5v245h67v-229q0 -176 161 -176q43 0 78 9t67 34v362h67v-700h-67v277z" />
    <glyph glyph-name="uni0428" unicode="&#x428;" horiz-adv-x="918" 
d="M85 700h67v-639h273v639h67v-639h273v639h67v-700h-747v700z" />
    <glyph glyph-name="uni0429" unicode="&#x429;" horiz-adv-x="922" 
d="M870 61v-181h-64v120h-721v700h67v-639h273v639h67v-639h273v639h67v-639h38z" />
    <glyph glyph-name="uni042A" unicode="&#x42a;" horiz-adv-x="700" 
d="M569.5 366.5q43.5 -26.5 68 -71.5t24.5 -99q0 -53 -25 -98t-69 -71.5t-98 -26.5h-252v639h-210v61h277v-307h188q53 0 96.5 -26.5zM559 100.5q36 39.5 36 95.5t-35 96t-87 40h-188v-271h185q53 0 89 39.5z" />
    <glyph glyph-name="uni042B" unicode="&#x42b;" horiz-adv-x="761" 
d="M85 700h67v-307h188q53 0 96.5 -26.5t68 -71.5t24.5 -99q0 -53 -25 -98t-69 -71.5t-98 -26.5h-252v700zM337 61q53 0 89 39.5t36 95.5t-35 96t-87 40h-188v-271h185zM608 700h67v-700h-67v700z" />
    <glyph glyph-name="uni042C" unicode="&#x42c;" horiz-adv-x="567" 
d="M85 700h67v-307h188q53 0 96.5 -26.5t68 -71.5t24.5 -99q0 -53 -25 -98t-69 -71.5t-98 -26.5h-252v700zM337 61q53 0 89 39.5t36 95.5t-35 96t-87 40h-188v-271h185z" />
    <glyph glyph-name="uni042D" unicode="&#x42d;" horiz-adv-x="753" 
d="M201.5 91.5q-65.5 45.5 -86.5 121.5h-73q25 -104 110 -166t208 -62q102 0 182.5 46.5t125.5 129.5t45 189t-45 189t-125.5 129.5t-182.5 46.5q-121 0 -207 -61t-111 -166h74q20 76 85.5 121t158.5 45q78 0 139.5 -34t99 -95.5t43.5 -143.5h-377v-62h377
q-6 -82 -43.5 -143.5t-99 -95.5t-139.5 -34q-93 0 -158.5 45.5z" />
    <glyph glyph-name="uni042E" unicode="&#x42e;" horiz-adv-x="1027" 
d="M817.5 665q81.5 -50 125.5 -133.5t44 -181.5t-44 -181.5t-125.5 -133.5t-190.5 -50q-103 0 -182 45t-124.5 121t-52.5 167h-116v-318h-67v700h67v-321h116q7 92 52 169t124 122t183 45q109 0 190.5 -50zM781 87.5q66 41.5 101 111t35 151.5t-35 151.5t-101 111t-154 41.5
t-154 -41.5t-101 -111t-35 -151.5t35 -151.5t101 -111t154 -41.5t154 41.5z" />
    <glyph glyph-name="uni042F" unicode="&#x42f;" horiz-adv-x="604" 
d="M88 318q43 -61 114 -84l-148 -234h77l140 223h4h177v-223h67v700h-244q-66 0 -118.5 -30.5t-82 -85t-29.5 -122.5q0 -83 43 -144zM452 284h-173q-48 0 -86 23t-59.5 63.5t-21.5 91.5q0 50 21.5 90.5t59.5 63.5t86 23h173v-355z" />
    <glyph glyph-name="uni0430" unicode="&#x430;" horiz-adv-x="590" 
d="M146.5 19q-51.5 31 -79 85.5t-27.5 122.5t28 122.5t80 86t121 31.5q62 0 109 -30t69 -81v99h63v-455h-63v98q-22 -49 -70.5 -79.5t-108.5 -30.5q-70 0 -121.5 31zM368.5 70.5q39.5 24.5 60.5 66t21 90.5q0 50 -21 91.5t-60.5 66t-93.5 24.5q-77 0 -124 -51.5t-47 -130.5
q0 -52 21 -93t60 -64.5t90 -23.5q54 0 93.5 24.5z" />
    <glyph glyph-name="uni0431" unicode="&#x431;" horiz-adv-x="566" 
d="M114 67.5q-61 79.5 -61 221.5q0 203 78.5 307t258.5 104h92v-62h-100q-134 0 -197 -78t-67 -222q24 64 74 96.5t116 32.5q65 0 115 -32t76.5 -86.5t26.5 -118.5q0 -67 -28.5 -122t-82.5 -87.5t-125 -32.5q-115 0 -176 79.5zM382 70.5q39 24.5 59.5 65.5t20.5 91
t-20.5 91.5t-59.5 66t-91 24.5q-51 0 -89.5 -24t-59 -65.5t-20.5 -92.5t20.5 -92t59 -65t89.5 -24q52 0 91 24.5z" />
    <glyph glyph-name="uni0432" unicode="&#x432;" horiz-adv-x="493" 
d="M300 455q68 0 101 -34.5t33 -82.5q0 -39 -27.5 -68.5t-70.5 -35.5q44 -1 74 -33.5t30 -78.5q0 -30 -15.5 -58t-47.5 -46t-80 -18h-217v455h220zM348.5 279q20.5 23 20.5 54t-21 53t-53 22h-152v-152h154q31 0 51.5 23zM143 48h155q32 0 54.5 23t22.5 55q0 33 -22 58
t-54 25h-156v-161z" />
    <glyph glyph-name="uni0433" unicode="&#x433;" horiz-adv-x="373" 
d="M350 395h-206v-395h-64v455h270v-60z" />
    <glyph glyph-name="uni0434" unicode="&#x434;" horiz-adv-x="547" 
d="M495 61v-181h-64v120h-344v-120h-67v181h43q48 21 48 131v263h346v-394h38zM393 55v346h-218v-206q0 -88 -35 -140h253z" />
    <glyph glyph-name="uni0435" unicode="&#x435;" horiz-adv-x="515" 
d="M473 213h-368q0 -77 43 -122.5t117 -45.5q51 0 87.5 22t51.5 61h65q-14 -62 -70 -101t-134 -39q-68 0 -119 29.5t-78.5 84t-27.5 126.5t27.5 126t77.5 83.5t116 29.5q63 0 111.5 -27t75.5 -75t27 -109q0 -11 -2 -43zM412 264q-1 68 -41 109.5t-110 41.5q-67 0 -109 -41.5
t-47 -109.5h307z" />
    <glyph glyph-name="uni0436" unicode="&#x436;" horiz-adv-x="734" 
d="M702 0h-82l-221 222v-222h-64v455h64v-205h24q19 0 34.5 11t32.5 38l68 99q23 34 41.5 48t49.5 14h37v-58h-23q-21 0 -32.5 -9.5t-28.5 -34.5l-46 -69q-21 -32 -38 -44.5t-42 -12.5h-5zM32 0h82l221 222v-222h64v455h-64v-205h-24q-19 0 -34.5 11t-32.5 38l-68 99
q-23 34 -41.5 48t-49.5 14h-37v-58h23q21 0 32.5 -9.5t28.5 -34.5l46 -69q21 -32 38 -44.5t42 -12.5h5z" />
    <glyph glyph-name="uni0437" unicode="&#x437;" horiz-adv-x="472" 
d="M146 66.5q33 -23.5 92 -23.5q56 0 87 22t31 61q0 36 -26 57.5t-73 21.5h-70v50h68q41 0 66.5 22t25.5 59q0 34 -29.5 56t-78.5 22q-56 0 -86 -22.5t-30 -59.5h-66q0 60 50 97.5t132 37.5q77 0 124.5 -35t47.5 -89q0 -44 -26.5 -73t-71.5 -37q48 -5 77.5 -35.5t29.5 -77.5
q0 -59 -52.5 -95t-132.5 -36q-86 0 -136.5 38.5t-50.5 101.5h65q0 -39 33 -62.5z" />
    <glyph glyph-name="uni0438" unicode="&#x438;" horiz-adv-x="556" 
d="M144 34v-34h-64v455h64v-346l268 311v35h64v-455h-64v344z" />
    <glyph glyph-name="uni0439" unicode="&#x439;" horiz-adv-x="556" 
d="M161 534.5q-46 36.5 -51 100.5h56q4 -42 34.5 -65t76.5 -23q45 0 76 23t35 65h55q-5 -64 -50.5 -100.5t-115.5 -36.5t-116 36.5zM144 34v-34h-64v455h64v-346l268 311v35h64v-455h-64v344z" />
    <glyph glyph-name="uni043A" unicode="&#x43a;" horiz-adv-x="479" 
d="M447 0h-82l-221 222v-222h-64v455h64v-205h24q19 0 34.5 11t32.5 38l68 99q23 34 41.5 48t49.5 14h37v-58h-23q-21 0 -32.5 -9.5t-28.5 -34.5l-46 -69q-21 -32 -38 -44.5t-42 -12.5h-5z" />
    <glyph glyph-name="uni043B" unicode="&#x43b;" horiz-adv-x="544" 
d="M49 59q37 0 56 29.5t19 99.5v267h340v-455h-64v395h-212v-204q0 -100 -33 -146.5t-93 -46.5h-32v61h19z" />
    <glyph glyph-name="uni043C" unicode="&#x43c;" horiz-adv-x="693" 
d="M80 455h98l168 -367l169 367h98l-1 -455h-61v393l-183 -393h-43l-183 393v-393h-62v455z" />
    <glyph glyph-name="uni043D" unicode="&#x43d;" horiz-adv-x="557" 
d="M80 455h64v-199h269v199h64v-455h-64v201h-269v-201h-64v455z" />
    <glyph glyph-name="uni043E" unicode="&#x43e;" horiz-adv-x="549" 
d="M151 20q-53 32 -82 86.5t-29 121.5q0 66 29 120.5t82 86.5t123 32q71 0 124 -32t82 -86.5t29 -120.5q0 -67 -29 -121.5t-82 -86.5t-124 -32q-70 0 -123 32zM365 71q39 24 59.5 65t20.5 92t-20.5 92t-59.5 65t-91 24t-90.5 -24t-59 -65.5t-20.5 -92.5q0 -50 20.5 -91
t59 -65t90.5 -24t91 24z" />
    <glyph glyph-name="uni043F" unicode="&#x43f;" horiz-adv-x="561" 
d="M417 0v400h-273v-400h-64v455h401v-455h-64z" />
    <glyph glyph-name="uni0440" unicode="&#x440;" horiz-adv-x="590" 
d="M442.5 436.5q50.5 -30.5 79 -85t28.5 -124.5q0 -69 -29 -123.5t-81 -85t-117 -30.5q-60 0 -108 30t-71 80v-313h-64v670h64v-99q22 52 71.5 81.5t111.5 29.5q65 0 115.5 -30.5zM403.5 69.5q38.5 23.5 60.5 64.5t22 93t-22 93.5t-60.5 65t-87.5 23.5q-51 0 -90.5 -23.5
t-62 -65t-22.5 -93.5t22.5 -93t62.5 -64.5t90 -23.5q49 0 87.5 23.5z" />
    <glyph glyph-name="uni0441" unicode="&#x441;" horiz-adv-x="516" 
d="M147 18q-51 30 -79 84.5t-28 124.5t28 124.5t79 84.5t119 30q89 0 145 -44.5t65 -120.5h-65q-9 52 -46.5 79.5t-98.5 27.5q-75 0 -118.5 -49t-43.5 -132t43.5 -132t118.5 -49q60 0 98 27.5t47 77.5h65q-9 -74 -65 -118.5t-145 -44.5q-68 0 -119 30z" />
    <glyph glyph-name="uni0442" unicode="&#x442;" horiz-adv-x="426" 
d="M394 395h-149v-395h-64v395h-148v60h361v-60z" />
    <glyph glyph-name="uni0443" unicode="&#x443;" horiz-adv-x="567" 
d="M487 455v-470q0 -111 -64 -166q-54 -46 -144 -46q-98 0 -153 46q-50 43 -51 117h65q2 -49 34.5 -78.5t103.5 -29.5q145 0 145 161v112q-20 -50 -64 -81t-106 -31q-91 0 -134.5 52.5t-43.5 149.5v264h64v-252q0 -77 30 -116.5t104 -39.5q49 0 82.5 25t50.5 65t17 85v233
h64z" />
    <glyph glyph-name="uni0444" unicode="&#x444;" horiz-adv-x="587" 
d="M519 110.5q-28 -54.5 -79 -88t-115 -34.5v-203h-64v203q-65 1 -115 34.5t-78 88t-28 117.5t28.5 117.5t79 87.5t113.5 34v233h64v-233q65 -1 115.5 -34.5t78.5 -88t28 -116.5q0 -63 -28 -117.5zM407 69.5q36 25.5 55.5 67.5t19.5 91t-19.5 91t-55.5 67.5t-85 25.5v-368
q49 0 85 25.5zM123.5 137.5q19.5 -41.5 56 -67t84.5 -26.5v368q-49 -1 -85 -26t-55.5 -67t-19.5 -91t19.5 -90.5z" />
    <glyph glyph-name="uni0445" unicode="&#x445;" horiz-adv-x="470" 
d="M197 228l-173 227h79l131 -179l133 179h79l-174 -227l175 -228h-79l-134 182l-133 -182h-78z" />
    <glyph glyph-name="uni0446" unicode="&#x446;" horiz-adv-x="571" 
d="M519 61v-181h-64v120h-375v455h64v-400h274v400h64v-394h37z" />
    <glyph glyph-name="uni0447" unicode="&#x447;" horiz-adv-x="483" 
d="M339 180q-26 -16 -63 -24t-70 -8q-87 0 -130.5 38.5t-43.5 119.5v149h65v-141q0 -57 30.5 -84t91.5 -27q33 0 65 7.5t55 25.5v219h64v-455h-64v180z" />
    <glyph glyph-name="uni0448" unicode="&#x448;" horiz-adv-x="794" 
d="M649 55v400h65v-455h-634v455h64v-400h221v400h64v-400h220z" />
    <glyph glyph-name="uni0449" unicode="&#x449;" horiz-adv-x="803" 
d="M751 61v-181h-64v120h-607v455h64v-400h221v400h64v-400h220v400h65v-394h37z" />
    <glyph glyph-name="uni044A" unicode="&#x44a;" horiz-adv-x="505" 
d="M401 265q34 -19 52.5 -51.5t18.5 -71.5t-19.5 -71.5t-54 -51.5t-76.5 -19h-195v396h-104v59h168v-171h133q43 0 77 -19zM380.5 78.5q24.5 25.5 24.5 63.5t-24 63.5t-62 25.5h-128v-178h125q40 0 64.5 25.5z" />
    <glyph glyph-name="uni044B" unicode="&#x44b;" horiz-adv-x="641" 
d="M144 455v-171h133q43 0 77 -19t52.5 -51.5t18.5 -71.5t-19.5 -71.5t-54 -51.5t-76.5 -19h-195v455h64zM144 53h125q40 0 64.5 25.5t24.5 63.5t-24 63.5t-62 25.5h-128v-178zM497 455h64v-455h-64v455z" />
    <glyph glyph-name="uni044C" unicode="&#x44c;" horiz-adv-x="457" 
d="M144 455v-171h133q43 0 77 -19t52.5 -51.5t18.5 -71.5t-19.5 -71.5t-54 -51.5t-76.5 -19h-195v455h64zM144 53h125q40 0 64.5 25.5t24.5 63.5t-24 63.5t-62 25.5h-128v-178z" />
    <glyph glyph-name="uni044D" unicode="&#x44d;" horiz-adv-x="525" 
d="M42 289q3 48 28 88.5t72.5 65t112.5 24.5q75 0 127 -33t77.5 -87.5t25.5 -118.5t-26 -119t-78 -88t-126 -33q-96 0 -152.5 47t-62.5 121h65q9 -50 47 -80t106 -30q74 0 115.5 44t44.5 113h-206v50h206q-3 69 -43.5 112.5t-116.5 43.5q-70 0 -107 -33.5t-44 -86.5h-65z
" />
    <glyph glyph-name="uni044E" unicode="&#x44e;" horiz-adv-x="724" 
d="M573 435q53 -32 82 -86.5t29 -120.5q0 -67 -29 -121.5t-82 -86.5t-124 -32q-65 0 -115.5 27.5t-80.5 75t-36 107.5h-73v-198h-64v455h64v-202h72q6 60 35.5 109t80.5 77t117 28q71 0 124 -32zM540 71q39 24 59.5 65t20.5 92t-20.5 92t-59.5 65t-91 24t-90.5 -24
t-59 -65.5t-20.5 -92.5q0 -50 20.5 -91t59 -65t90.5 -24t91 24z" />
    <glyph glyph-name="uni044F" unicode="&#x44f;" horiz-adv-x="516" 
d="M175 162q-51 7 -85.5 49.5t-34.5 93.5q0 41 20 75t55.5 54.5t81.5 20.5h224v-455h-63v155h-131l-105 -155h-75zM373 210v192h-150q-46 0 -74.5 -28.5t-28.5 -68.5t28.5 -67.5t74.5 -27.5h150z" />
    <glyph glyph-name="uni0451" unicode="&#x451;" horiz-adv-x="515" 
d="M473 213h-368q0 -77 43 -122.5t117 -45.5q51 0 87.5 22t51.5 61h65q-14 -62 -70 -101t-134 -39q-68 0 -119 29.5t-78.5 84t-27.5 126.5t27.5 126t77.5 83.5t116 29.5q63 0 111.5 -27t75.5 -75t27 -109q0 -11 -2 -43zM412 264q-1 68 -41 109.5t-110 41.5q-67 0 -109 -41.5
t-47 -109.5h307zM121.5 563.5q-16.5 16.5 -16.5 39.5q0 25 16.5 41.5t39.5 16.5q25 0 41.5 -16.5t16.5 -41.5q0 -23 -16.5 -39.5t-41.5 -16.5q-23 0 -39.5 16.5zM318.5 563.5q-16.5 16.5 -16.5 39.5q0 25 16.5 41.5t39.5 16.5q25 0 41.5 -16.5t16.5 -41.5q0 -23 -16.5 -39.5
t-41.5 -16.5q-23 0 -39.5 16.5z" />
    <glyph glyph-name="uni0452" unicode="&#x452;" horiz-adv-x="565" 
d="M446.5 417.5q43.5 -49.5 43.5 -143.5v-373q0 -58 -29.5 -90t-83.5 -32q-40 0 -63 11v60q24 -10 52 -10q29 0 44.5 20t15.5 57v332q0 82 -32 122t-98 40q-73 0 -111 -48.5t-38 -130.5v-232h-64v553h-61v53h61v94h64v-94h203v-53h-203v-202q16 53 60 84.5t110 31.5
q86 0 129.5 -49.5z" />
    <glyph glyph-name="uni0453" unicode="&#x453;" horiz-adv-x="373" 
d="M350 395h-206v-395h-64v455h270v-60zM173 549l163 143l37 -39l-163 -142z" />
    <glyph glyph-name="uni0454" unicode="&#x454;" horiz-adv-x="525" 
d="M374 375.5q-37 33.5 -107 33.5q-76 0 -116.5 -43.5t-43.5 -112.5h206v-50h-206q3 -69 44.5 -113t115.5 -44q68 0 106 30t47 80h65q-6 -74 -62.5 -121t-152.5 -47q-74 0 -126 33t-78 88t-26 119t25.5 118.5t77.5 87.5t127 33q65 0 112.5 -24.5t72.5 -65t28 -88.5h-65
q-7 53 -44 86.5z" />
    <glyph glyph-name="uni0455" unicode="&#x455;" horiz-adv-x="442" 
d="M128 7.5q-42 19.5 -65 52.5t-23 73h64q0 -39 33.5 -65.5t91.5 -26.5q47 0 75 20.5t28 57.5q0 29 -17 47t-60 29l-95 24q-106 27 -106 122q0 57 46.5 91.5t119.5 34.5q79 0 124.5 -35.5t45.5 -96.5h-63q-1 38 -30.5 59.5t-80.5 21.5q-43 0 -71 -19t-28 -54q0 -54 77 -73
l96 -26q53 -13 80 -44.5t27 -77.5q0 -64 -46 -99t-125 -35q-56 0 -98 19.5z" />
    <glyph glyph-name="uni0456" unicode="&#x456;" horiz-adv-x="224" 
d="M80 455h64v-455h-64v455zM69.5 564q-16.5 17 -16.5 42q0 26 16.5 43t42.5 17t43 -17t17 -43q0 -25 -17 -42t-43 -17t-42.5 17z" />
    <glyph glyph-name="uni0457" unicode="&#x457;" horiz-adv-x="224" 
d="M13.5 566.5q-14.5 14.5 -14.5 35.5q0 22 14.5 36.5t35.5 14.5q22 0 36.5 -14.5t14.5 -36.5q0 -21 -14.5 -35.5t-36.5 -14.5q-21 0 -35.5 14.5zM138.5 566.5q-14.5 14.5 -14.5 35.5q0 22 14.5 36.5t35.5 14.5q22 0 36.5 -14.5t14.5 -36.5q0 -21 -14.5 -35.5t-36.5 -14.5
q-21 0 -35.5 14.5zM80 455h64v-455h-64v455z" />
    <glyph glyph-name="uni0458" unicode="&#x458;" horiz-adv-x="227" 
d="M-29 -210v60q24 -10 52 -10q29 0 44.5 20t15.5 57v538h64v-554q0 -58 -29.5 -90t-83.5 -32q-40 0 -63 11zM72.5 564q-16.5 17 -16.5 42q0 26 16.5 43t42.5 17t43 -17t17 -43q0 -25 -17 -42t-43 -17t-42.5 17z" />
    <glyph glyph-name="uni0459" unicode="&#x459;" horiz-adv-x="778" 
d="M49 59q37 0 56 29.5t19 99.5v267h340v-455h-64v395h-212v-204q0 -100 -33 -146.5t-93 -46.5h-32v61h19zM465 455v-171h133q43 0 77 -19t52.5 -51.5t18.5 -71.5t-19.5 -71.5t-54 -51.5t-76.5 -19h-195v455h64zM465 53h125q40 0 64.5 25.5t24.5 63.5t-24 63.5t-62 25.5
h-128v-178z" />
    <glyph glyph-name="uni045A" unicode="&#x45a;" horiz-adv-x="790" 
d="M80 455h64v-199h269v199h64v-455h-64v201h-269v-201h-64v455zM477 455v-171h133q43 0 77 -19t52.5 -51.5t18.5 -71.5t-19.5 -71.5t-54 -51.5t-76.5 -19h-195v455h64zM477 53h125q40 0 64.5 25.5t24.5 63.5t-24 63.5t-62 25.5h-128v-178z" />
    <glyph glyph-name="uni045B" unicode="&#x45b;" horiz-adv-x="565" 
d="M446.5 417.5q43.5 -49.5 43.5 -143.5v-274h-64v249q0 82 -32 122t-98 40q-73 0 -111 -48.5t-38 -130.5v-232h-64v553h-61v53h61v94h64v-94h203v-53h-203v-202q16 53 60 84.5t110 31.5q86 0 129.5 -49.5z" />
    <glyph glyph-name="uni045C" unicode="&#x45c;" horiz-adv-x="479" 
d="M447 0h-82l-221 222v-222h-64v455h64v-205h24q19 0 34.5 11t32.5 38l68 99q23 34 41.5 48t49.5 14h37v-58h-23q-21 0 -32.5 -9.5t-28.5 -34.5l-46 -69q-21 -32 -38 -44.5t-42 -12.5h-5zM189 549l163 143l37 -39l-163 -142z" />
    <glyph glyph-name="uni045E" unicode="&#x45e;" horiz-adv-x="567" 
d="M163 544.5q-46 36.5 -51 100.5h56q4 -42 34.5 -65t76.5 -23q45 0 76 23t35 65h55q-5 -64 -50.5 -100.5t-115.5 -36.5t-116 36.5zM487 455v-470q0 -111 -64 -166q-54 -46 -144 -46q-98 0 -153 46q-50 43 -51 117h65q2 -49 34.5 -78.5t103.5 -29.5q145 0 145 161v112
q-20 -50 -64 -81t-106 -31q-91 0 -134.5 52.5t-43.5 149.5v264h64v-252q0 -77 30 -116.5t104 -39.5q49 0 82.5 25t50.5 65t17 85v233h64z" />
    <glyph glyph-name="uni045F" unicode="&#x45f;" horiz-adv-x="562" 
d="M482 0h-167v-91h-64v91h-171v455h64v-400h274v400h64v-455z" />
    <glyph glyph-name="uni0462" unicode="&#x462;" horiz-adv-x="703" 
d="M221 636h-213v64h495v-64h-215v-636h-67v636zM222 700h67v-307h188q53 0 96.5 -26.5t68 -71.5t24.5 -99q0 -53 -25 -98t-69 -71.5t-98 -26.5h-252v700zM474 61q53 0 89 39.5t36 95.5t-35 96t-87 40h-188v-271h185z" />
    <glyph glyph-name="uni0463" unicode="&#x463;" horiz-adv-x="457" 
d="M354 265q34 -19 52.5 -51.5t18.5 -71.5t-19.5 -71.5t-54 -51.5t-76.5 -19h-195v427h-69v53h69v220h64v-220h125v-53h-125v-143h133q43 0 77 -19zM333.5 78.5q24.5 25.5 24.5 63.5t-24 63.5t-62 25.5h-128v-178h125q40 0 64.5 25.5z" />
    <glyph glyph-name="uni0472" unicode="&#x472;" horiz-adv-x="800" 
d="M590.5 665q81.5 -50 125.5 -133.5t44 -181.5t-44 -181.5t-125.5 -133.5t-190.5 -50t-190.5 50t-125.5 133.5t-44 181.5t44 181.5t125.5 133.5t190.5 50t190.5 -50zM252 616q-64 -38 -100 -102t-41 -141h578q-5 77 -41 141t-100 102t-148 38t-148 -38zM549 84
q64 38 99.5 102t40.5 142h-578q5 -78 40.5 -142t99.5 -102t149 -38t149 38z" />
    <glyph glyph-name="uni0473" unicode="&#x473;" horiz-adv-x="549" 
d="M398 435q53 -32 82 -86.5t29 -120.5q0 -67 -29 -121.5t-82 -86.5t-124 -32q-70 0 -123 32t-82 86.5t-29 121.5q0 66 29 120.5t82 86.5t123 32q71 0 124 -32zM157 365q-45 -44 -52 -114h339q-7 70 -52.5 114t-117.5 44t-117 -44zM391.5 91.5q45.5 44.5 52.5 114.5h-339
q6 -69 51.5 -114t117.5 -45t117.5 44.5z" />
    <glyph glyph-name="uni0474" unicode="&#x474;" horiz-adv-x="607" 
d="M251 0l-248 700h70l203 -597l166 489q20 61 49.5 86.5t81.5 25.5h31v-60h-20q-28 0 -47 -15.5t-32 -53.5l-204 -575h-50z" />
    <glyph glyph-name="uni0475" unicode="&#x475;" horiz-adv-x="500" 
d="M212 0l-207 455h69l161 -369l119 269q23 57 47.5 81t67.5 24h26v-61h-14q-24 0 -39 -13t-30 -49l-154 -337h-46z" />
    <glyph glyph-name="uni048A" unicode="&#x48a;" horiz-adv-x="669" 
d="M219.5 745q-46.5 29 -51.5 79h55q5 -31 36 -46.5t76 -15.5t76 15.5t37 46.5h54q-5 -50 -51.5 -79t-115.5 -29t-115.5 29zM617 61v-181h-64v120h-40v555l-361 -510v-45h-67v700h67v-554l361 509v45h67v-639h37z" />
    <glyph glyph-name="uni048B" unicode="&#x48b;" horiz-adv-x="565" 
d="M161 534.5q-46 36.5 -51 100.5h56q4 -42 34.5 -65t76.5 -23q45 0 76 23t35 65h55q-5 -64 -50.5 -100.5t-115.5 -36.5t-116 36.5zM513 61v-181h-64v120h-37v344l-268 -310v-34h-64v455h64v-346l268 311v35h64v-394h37z" />
    <glyph glyph-name="uni048C" unicode="&#x48c;" horiz-adv-x="567" 
d="M436.5 366.5q43.5 -26.5 68 -71.5t24.5 -99q0 -53 -25 -98t-69 -71.5t-98 -26.5h-252v546h-62v53h62v101h67v-101h199v-53h-199v-153h188q53 0 96.5 -26.5zM426 100.5q36 39.5 36 95.5t-35 96t-87 40h-188v-271h185q53 0 89 39.5z" />
    <glyph glyph-name="uni048D" unicode="&#x48d;" horiz-adv-x="457" 
d="M354 265q34 -19 52.5 -51.5t18.5 -71.5t-19.5 -71.5t-54 -51.5t-76.5 -19h-195v427h-69v53h69v220h64v-220h125v-53h-125v-143h133q43 0 77 -19zM333.5 78.5q24.5 25.5 24.5 63.5t-24 63.5t-62 25.5h-128v-178h125q40 0 64.5 25.5z" />
    <glyph glyph-name="uni048E" unicode="&#x48e;" horiz-adv-x="577" 
d="M532.5 345.5q-26.5 -52.5 -72.5 -83.5l66 -66l-32 -32l-76 76q-42 -17 -89 -17h-177v-223h-67v700h244q66 0 118.5 -30.5t82 -85t29.5 -122.5q0 -64 -26.5 -116.5zM368 289l-87 87l32 32l100 -100q37 23 58 63t21 91q0 50 -21.5 90.5t-59.5 63.5t-86 23h-173v-355h173
q21 0 43 5z" />
    <glyph glyph-name="uni048F" unicode="&#x48f;" horiz-adv-x="590" 
d="M532.5 129q-17.5 -45 -50.5 -78l62 -61l-32 -32l-65 65q-56 -35 -124 -35q-60 0 -108 30t-71 80v-313h-64v670h64v-99q22 52 71.5 81.5t111.5 29.5q65 0 115.5 -30.5t79 -85t28.5 -124.5q0 -53 -17.5 -98zM401 68l-102 102l32 32l106 -106q23 24 36 58t13 73
q0 52 -22 93.5t-60.5 65t-87.5 23.5q-51 0 -90.5 -23.5t-62 -65t-22.5 -93.5t22.5 -93t62.5 -64.5t90 -23.5q47 0 85 22z" />
    <glyph glyph-name="uni0490" unicode="&#x490;" horiz-adv-x="474" 
d="M466 796v-160h-314v-636h-67v700h314v96h67z" />
    <glyph glyph-name="uni0491" unicode="&#x491;" horiz-adv-x="373" 
d="M350 551v-156h-206v-395h-64v455h203v96h67z" />
    <glyph glyph-name="uni0492" unicode="&#x492;" horiz-adv-x="474" 
d="M152 636v-220h184v-53h-184v-363h-67v363h-77v53h77v284h381v-64h-314z" />
    <glyph glyph-name="uni0493" unicode="&#x493;" horiz-adv-x="390" 
d="M161 395v-124h132v-53h-132v-218h-64v218h-62v53h62v184h270v-60h-206z" />
    <glyph glyph-name="uni0494" unicode="&#x494;" horiz-adv-x="600" 
d="M472 377q53 -59 53 -161v-305q0 -63 -33.5 -97.5t-93.5 -34.5q-40 0 -65 11v63q23 -10 56 -10q69 0 69 87v270q0 86 -39 130.5t-122 44.5q-41 0 -75.5 -7.5t-69.5 -30.5v-337h-67v700h381v-64h-314v-239q40 23 78.5 31t83.5 8q105 0 158 -59z" />
    <glyph glyph-name="uni0495" unicode="&#x495;" horiz-adv-x="504" 
d="M420.5 221q53.5 -57 53.5 -164q0 -112 -55.5 -173t-160.5 -61q-25 0 -54 6v59q9 -3 23 -4.5t22 -1.5q81 0 120.5 46.5t39.5 126.5t-37.5 122.5t-99.5 42.5q-68 0 -128 -30v-190h-64v455h270v-60h-206v-144q74 27 139 27q84 0 137.5 -57z" />
    <glyph glyph-name="uni0496" unicode="&#x496;" horiz-adv-x="945" 
d="M927 60v-180h-64v120h-32l-330 356v-356h-67v356l-330 -356h-87l338 359h-16q-52 0 -88 61l-93 153q-25 40 -41.5 54t-41.5 14h-37v61h50q39 0 65.5 -21t55.5 -70l93 -154q36 -64 93 -64h39v307h67v-307h39q57 0 93 64l93 154q29 49 55.5 70t65.5 21h50v-61h-37
q-25 0 -41.5 -14t-41.5 -54l-93 -153q-36 -61 -88 -61h-16l283 -301v2h64z" />
    <glyph glyph-name="uni0497" unicode="&#x497;" horiz-adv-x="767" 
d="M714 58v-178h-64v120h-30l-221 222v-222h-64v222l-221 -222h-82l231 232h-5q-25 0 -42 12.5t-38 44.5l-46 69q-17 25 -28.5 34.5t-32.5 9.5h-23v58h37q31 0 49.5 -14t41.5 -48l68 -99q17 -27 32.5 -38t34.5 -11h24v205h64v-205h24q19 0 34.5 11t32.5 38l68 99
q23 34 41.5 48t49.5 14h37v-58h-23q-21 0 -32.5 -9.5t-28.5 -34.5l-46 -69q-21 -32 -38 -44.5t-42 -12.5h-5l179 -180v6h64z" />
    <glyph glyph-name="uni0498" unicode="&#x498;" horiz-adv-x="555" 
d="M158 88.5q46 -42.5 121 -42.5t118.5 41t43.5 104q0 65 -41 102t-119 37h-55v61h55q72 0 110.5 36.5t38.5 93.5q0 59 -41 96t-109 37q-73 0 -118 -39t-45 -105h-67q0 60 28.5 106.5t80.5 72.5t119 26q63 0 112.5 -22.5t78 -65.5t28.5 -101q0 -62 -35.5 -106.5t-94.5 -55.5
q64 -11 102.5 -57.5t38.5 -115.5q0 -61 -28 -107.5t-79.5 -72.5t-120.5 -26t-122.5 26.5t-83 76t-29.5 115.5h67q0 -72 46 -114.5zM282.5 -195.5q-22.5 19.5 -24.5 50.5h38q1 -17 13.5 -27t31.5 -10q22 0 35 14t13 39q0 24 -12 38t-35 14q-29 0 -44 -24h-33v101h38v-67
q6 9 20 14.5t30 5.5q32 0 54 -22.5t22 -59.5q0 -38 -23.5 -62t-65.5 -24q-35 0 -57.5 19.5z" />
    <glyph glyph-name="uni0499" unicode="&#x499;" horiz-adv-x="472" 
d="M146 66.5q33 -23.5 92 -23.5q56 0 87 22t31 61q0 36 -26 57.5t-73 21.5h-70v50h68q41 0 66.5 22t25.5 59q0 34 -29.5 56t-78.5 22q-56 0 -86 -22.5t-30 -59.5h-66q0 60 50 97.5t132 37.5q77 0 124.5 -35t47.5 -89q0 -44 -26.5 -73t-71.5 -37q48 -5 77.5 -35.5t29.5 -77.5
q0 -59 -52.5 -95t-132.5 -36q-86 0 -136.5 38.5t-50.5 101.5h65q0 -39 33 -62.5zM231.5 -195.5q-22.5 19.5 -24.5 50.5h38q1 -17 13.5 -27t31.5 -10q22 0 35 14t13 39q0 24 -12 38t-35 14q-29 0 -44 -24h-33v101h38v-67q6 9 20 14.5t30 5.5q32 0 54 -22.5t22 -59.5
q0 -38 -23.5 -62t-65.5 -24q-35 0 -57.5 19.5z" />
    <glyph glyph-name="uni049A" unicode="&#x49a;" horiz-adv-x="593" 
d="M575 60v-180h-64v120h-29l-330 356v-356h-67v700h67v-307h39q57 0 93 64l93 154q29 49 55.5 70t65.5 21h50v-61h-37q-25 0 -41.5 -14t-41.5 -54l-93 -153q-36 -61 -88 -61h-16l282 -299h62z" />
    <glyph glyph-name="uni049B" unicode="&#x49b;" horiz-adv-x="506" 
d="M453 58v-178h-64v120h-24l-221 222v-222h-64v455h64v-205h24q19 0 34.5 11t32.5 38l68 99q23 34 41.5 48t49.5 14h37v-58h-23q-21 0 -32.5 -9.5t-28.5 -34.5l-46 -69q-21 -32 -38 -44.5t-42 -12.5h-5l173 -174h64z" />
    <glyph glyph-name="uni049C" unicode="&#x49c;" horiz-adv-x="646" 
d="M542 0l-322 338v-147h-30v155h-38v-346h-67v700h67v-307h38v160h30v-160h21q66 0 103 64l93 154q30 49 56.5 70t64.5 21h50v-61h-37q-25 0 -41.5 -14t-41.5 -54l-93 -153q-19 -31 -44.5 -46t-53.5 -15h-16l348 -359h-87z" />
    <glyph glyph-name="uni049D" unicode="&#x49d;" horiz-adv-x="502" 
d="M387 0l-193 198v-112h-23v126h-27v-212h-64v455h64v-205h27v126h23v-126q17 2 31.5 13t31.5 36l68 99q23 34 42 48t50 14h37v-58h-23q-21 0 -33 -9.5t-28 -34.5l-47 -69q-22 -33 -38 -45t-41 -12h-5l230 -232h-82z" />
    <glyph glyph-name="uni049E" unicode="&#x49e;" horiz-adv-x="654" 
d="M636 0h-87l-330 356v-356h-67v539h-67v53h67v108h67v-108h124v-53h-124v-146h39q57 0 93 64l93 154q29 49 55.5 70t65.5 21h50v-61h-37q-25 0 -41.5 -14t-41.5 -54l-93 -153q-36 -61 -88 -61h-16z" />
    <glyph glyph-name="uni049F" unicode="&#x49f;" horiz-adv-x="479" 
d="M447 0h-82l-221 222v-222h-64v345h-43v41h43v69h64v-69h79v-41h-79v-95h24q19 0 34.5 11t32.5 38l68 99q23 34 41.5 48t49.5 14h37v-58h-23q-21 0 -32.5 -9.5t-28.5 -34.5l-46 -69q-21 -32 -38 -44.5t-42 -12.5h-5z" />
    <glyph glyph-name="uni04A0" unicode="&#x4a0;" horiz-adv-x="719" 
d="M702 0h-87l-330 356v-356h-67v639h-210v61h277v-307h39q57 0 93 64l93 154q29 49 55.5 70t65.5 21h50v-61h-37q-25 0 -41.5 -14t-41.5 -54l-93 -153q-36 -61 -88 -61h-16z" />
    <glyph glyph-name="uni04A1" unicode="&#x4a1;" horiz-adv-x="527" 
d="M494 0h-82l-221 222v-222h-64v396h-104v59h168v-205h24q19 0 34.5 11t32.5 38l68 99q23 34 41.5 48t49.5 14h37v-58h-23q-21 0 -32.5 -9.5t-28.5 -34.5l-46 -69q-21 -32 -38 -44.5t-42 -12.5h-5z" />
    <glyph glyph-name="uni04A2" unicode="&#x4a2;" horiz-adv-x="670" 
d="M618 61v-181h-64v120h-40v317h-362v-317h-67v700h67v-322h362v322h67v-639h37z" />
    <glyph glyph-name="uni04A3" unicode="&#x4a3;" horiz-adv-x="566" 
d="M514 61v-181h-64v120h-37v201h-269v-201h-64v455h64v-199h269v199h64v-394h37z" />
    <glyph glyph-name="uni04A4" unicode="&#x4a4;" horiz-adv-x="903" 
d="M85 700h67v-322h362v322h67v-700h-67v317h-362v-317h-67v700zM895 700v-64h-314v-636h-67v700h381z" />
    <glyph glyph-name="uni04A5" unicode="&#x4a5;" horiz-adv-x="706" 
d="M80 455h64v-199h269v199h64v-455h-64v201h-269v-201h-64v455zM683 395h-206v-395h-64v455h270v-60z" />
    <glyph glyph-name="uni04A6" unicode="&#x4a6;" horiz-adv-x="1025" 
d="M897 401.5q53 -59.5 53 -161.5v-329q0 -63 -33.5 -97.5t-93.5 -34.5q-40 0 -65 11v63q23 -10 56 -10q69 0 69 87v294q0 87 -39 131.5t-122 44.5q-40 0 -75 -8.5t-70 -31.5v-360h-67v639h-358v-639h-67v700h492v-279q39 23 78 31.5t84 8.5q105 0 158 -59.5z" />
    <glyph glyph-name="uni04A7" unicode="&#x4a7;" horiz-adv-x="841" 
d="M757 221q53 -57 53 -164q0 -113 -55 -173.5t-160 -60.5q-25 0 -54 6v59q9 -3 23 -4.5t22 -1.5q81 0 120.5 46.5t39.5 126.5t-37.5 122.5t-99.5 42.5q-67 0 -128 -29v-191h-64v400h-273v-400h-64v455h401v-203q76 26 139 26q84 0 137 -57z" />
    <glyph glyph-name="uni04A8" unicode="&#x4a8;" horiz-adv-x="771" 
d="M678.5 47.5q27.5 7.5 49.5 18.5v-59q-50 -24 -107 -24q-66 0 -117 23q-47 -23 -128 -23q-101 0 -177 45.5t-117.5 128t-41.5 191.5q0 108 46.5 191.5t133.5 130.5t206 47q76 0 142 -21v-64q-67 22 -143 22q-93 0 -164.5 -39.5t-110.5 -109t-39 -157.5q0 -89 33.5 -159
t95 -109t144.5 -39q26 0 56 5q-60 40 -90.5 108t-30.5 152q0 110 54.5 174t146.5 64q90 0 142.5 -60.5t52.5 -162.5q0 -87 -36.5 -162.5t-103.5 -114.5q23 -4 49 -4q27 0 54.5 7.5zM420 161q34 -61 90 -93q67 31 104 96t37 149q0 79 -35 123.5t-96 44.5q-63 0 -98.5 -48
t-35.5 -130q0 -81 34 -142z" />
    <glyph glyph-name="uni04A9" unicode="&#x4a9;" horiz-adv-x="572" 
d="M499 39q22 5 45 15v-48q-47 -19 -91 -19q-48 0 -84 17q-16 -9 -41.5 -14.5t-50.5 -5.5q-107 0 -172 60t-65 175q0 77 33.5 133t94 85.5t141.5 29.5q49 0 91 -13v-55q-44 12 -90 12q-93 0 -149.5 -49.5t-56.5 -142.5q0 -87 45.5 -134.5t127.5 -47.5q15 0 22 1
q-33 25 -50 63t-17 84q0 72 39.5 114t106.5 42t105 -40.5t38 -111.5q0 -47 -23 -87t-64 -68h14q29 0 51 5zM311 103q20 -34 56 -51q45 17 70.5 52t25.5 83q0 46 -20.5 74t-64.5 28q-40 0 -63.5 -26t-23.5 -77q0 -49 20 -83z" />
    <glyph glyph-name="uni04AA" unicode="&#x4aa;" horiz-adv-x="774" 
d="M209.5 33.5q-81.5 48.5 -125.5 131.5t-44 185t44 185t125.5 131.5t191.5 48.5q135 0 221 -65t109 -170h-73q-23 80 -88.5 127t-168.5 47q-89 0 -155 -40t-101 -109t-35 -155t35 -155t101 -109t155 -40q103 0 168.5 47t88.5 127h73q-23 -105 -109 -170t-221 -65
q-110 0 -191.5 48.5zM399.5 -195.5q-22.5 19.5 -24.5 50.5h38q1 -17 13.5 -27t31.5 -10q22 0 35 14t13 39q0 24 -12 38t-35 14q-29 0 -44 -24h-33v101h38v-67q6 9 20 14.5t30 5.5q32 0 54 -22.5t22 -59.5q0 -38 -23.5 -62t-65.5 -24q-35 0 -57.5 19.5z" />
    <glyph glyph-name="uni04AB" unicode="&#x4ab;" horiz-adv-x="516" 
d="M147 18q-51 30 -79 84.5t-28 124.5t28 124.5t79 84.5t119 30q89 0 145 -44.5t65 -120.5h-65q-9 52 -46.5 79.5t-98.5 27.5q-75 0 -118.5 -49t-43.5 -132t43.5 -132t118.5 -49q60 0 98 27.5t47 77.5h65q-9 -74 -65 -118.5t-145 -44.5q-68 0 -119 30zM262.5 -195.5
q-22.5 19.5 -24.5 50.5h38q1 -17 13.5 -27t31.5 -10q22 0 35 14t13 39q0 24 -12 38t-35 14q-29 0 -44 -24h-33v101h38v-67q6 9 20 14.5t30 5.5q32 0 54 -22.5t22 -59.5q0 -38 -23.5 -62t-65.5 -24q-35 0 -57.5 19.5z" />
    <glyph glyph-name="uni04AC" unicode="&#x4ac;" horiz-adv-x="510" 
d="M288 636v-575h37v-181h-64v120h-40v636h-213v64h495v-64h-215z" />
    <glyph glyph-name="uni04AD" unicode="&#x4ad;" horiz-adv-x="426" 
d="M245 395v-334h37v-181h-64v120h-37v395h-148v60h361v-60h-149z" />
    <glyph glyph-name="uni04AE" unicode="&#x4ae;" horiz-adv-x="573" 
d="M252 281l-254 419h78l210 -354l211 354h78l-254 -419v-281h-69v281z" />
    <glyph glyph-name="uni04AF" unicode="&#x4af;" horiz-adv-x="473" 
d="M268 11v-227h-64v229l-199 442h69l162 -369l163 369h69z" />
    <glyph glyph-name="uni04B0" unicode="&#x4b0;" horiz-adv-x="573" 
d="M321 223h121v-53h-121v-170h-69v170h-121v53h121v58l-254 419h78l210 -354l211 354h78l-254 -419v-58z" />
    <glyph glyph-name="uni04B1" unicode="&#x4b1;" horiz-adv-x="473" 
d="M268 -23h137v-53h-137v-140h-64v140h-136v53h136v36l-199 442h69l162 -369l163 369h69l-200 -444v-34z" />
    <glyph glyph-name="uni04B2" unicode="&#x4b2;" horiz-adv-x="627" 
d="M575 61v-181h-64v120h-20l-195 294l-195 -294h-76l233 350l-233 350h76l195 -295l195 295h76l-233 -350l192 -289h49z" />
    <glyph glyph-name="uni04B3" unicode="&#x4b3;" horiz-adv-x="525" 
d="M473 61v-181h-64v120h-24l-134 182l-133 -182h-78l174 228l-173 227h79l131 -179l133 179h79l-174 -227l128 -167h56z" />
    <glyph glyph-name="uni04B4" unicode="&#x4b4;" horiz-adv-x="752" 
d="M699 61v-181h-64v120h-439v636h-188v64h445v-64h-190v-575h333v639h67v-639h36z" />
    <glyph glyph-name="uni04B5" unicode="&#x4b5;" horiz-adv-x="662" 
d="M609 61v-181h-64v120h-374v395h-138v60h341v-60h-139v-340h273v400h65v-394h36z" />
    <glyph glyph-name="uni04B6" unicode="&#x4b6;" horiz-adv-x="581" 
d="M528 61v-181h-64v120h-41v277q-37 -25 -76 -34t-86 -9q-105 0 -158 59.5t-53 161.5v245h67v-229q0 -176 161 -176q43 0 78 9t67 34v362h67v-639h38z" />
    <glyph glyph-name="uni04B7" unicode="&#x4b7;" horiz-adv-x="502" 
d="M449 61v-181h-64v120h-46v180q-26 -16 -63 -24t-70 -8q-87 0 -130.5 38.5t-43.5 119.5v149h65v-141q0 -57 30.5 -84t91.5 -27q33 0 65 7.5t55 25.5v219h64v-394h46z" />
    <glyph glyph-name="uni04B8" unicode="&#x4b8;" horiz-adv-x="575" 
d="M490 700v-700h-67v277q-51 -35 -123 -42v-112h-45v111q-102 2 -153.5 61.5t-51.5 159.5v245h67v-229q0 -164 138 -175v126h45v-127q72 3 123 43v362h67z" />
    <glyph glyph-name="uni04B9" unicode="&#x4b9;" horiz-adv-x="483" 
d="M403 455v-455h-64v180q-34 -21 -88 -28v-103h-33v99h-12q-87 0 -130.5 38.5t-43.5 119.5v149h65v-141q0 -57 30 -84t91 -27v115h33v-113q56 5 88 31v219h64z" />
    <glyph glyph-name="uni04BA" unicode="&#x4ba;" horiz-adv-x="575" 
d="M152 423q37 25 76 34t86 9q105 0 158 -59.5t53 -161.5v-245h-67v229q0 176 -161 176q-43 0 -78 -9t-67 -34v-362h-67v700h67v-277z" />
    <glyph glyph-name="uni04BB" unicode="&#x4bb;" horiz-adv-x="565" 
d="M446.5 417.5q43.5 -49.5 43.5 -143.5v-274h-64v249q0 82 -32 122t-98 40q-73 0 -111 -48.5t-38 -130.5v-232h-64v700h64v-349q16 53 60 84.5t110 31.5q86 0 129.5 -49.5z" />
    <glyph glyph-name="uni04BC" unicode="&#x4bc;" horiz-adv-x="912" 
d="M246 320q4 -76 35.5 -138t93.5 -98.5t154 -36.5q102 0 162 43.5t90 119.5h78q-18 -64 -61.5 -115t-112 -80.5t-156.5 -29.5q-108 0 -186 44.5t-120 120.5t-48 170h-27q-51 0 -82 32t-31 83v34h61v-33q0 -28 16.5 -45t45.5 -17h17q5 95 49 172t123.5 122t184.5 45
q98 0 175.5 -47t121 -128.5t43.5 -180.5v-37h-626zM802 374q-2 78 -36 141t-95.5 100t-141.5 37q-83 0 -147 -35.5t-99.5 -99t-36.5 -143.5h556z" />
    <glyph glyph-name="uni04BD" unicode="&#x4bd;" horiz-adv-x="607" 
d="M197 213q0 -77 43 -122.5t117 -45.5q51 0 87.5 22t51.5 61h65q-14 -62 -70 -101t-134 -39q-99 0 -159.5 61t-65.5 164h-14q-51 0 -82 30.5t-31 79.5v34h56v-33q0 -29 16 -45t46 -16h11q10 94 69 149t150 55q63 0 111.5 -27t75.5 -75t27 -109q0 -11 -2 -43h-368z
M244 373.5q-42 -41.5 -47 -109.5h307q-1 68 -41 109.5t-110 41.5q-67 0 -109 -41.5z" />
    <glyph glyph-name="uni04BE" unicode="&#x4be;" horiz-adv-x="912" 
d="M361.5 773.5q-16.5 16.5 -16.5 39.5q0 25 16.5 41.5t40.5 16.5t41 -16.5t17 -41.5q0 -23 -17 -39.5t-41 -16.5t-40.5 16.5zM595.5 773.5q-16.5 16.5 -16.5 39.5q0 25 16.5 41.5t40.5 16.5t41 -16.5t17 -41.5q0 -23 -17 -39.5t-41 -16.5t-40.5 16.5zM246 320
q4 -76 35.5 -138t93.5 -98.5t154 -36.5q102 0 162 43.5t90 119.5h78q-18 -64 -61.5 -115t-112 -80.5t-156.5 -29.5q-108 0 -186 44.5t-120 120.5t-48 170h-27q-51 0 -82 32t-31 83v34h61v-33q0 -28 16.5 -45t45.5 -17h17q5 95 49 172t123.5 122t184.5 45q98 0 175.5 -47
t121 -128.5t43.5 -180.5v-37h-626zM802 374q-2 78 -36 141t-95.5 100t-141.5 37q-83 0 -147 -35.5t-99.5 -99t-36.5 -143.5h556z" />
    <glyph glyph-name="uni04BF" unicode="&#x4bf;" horiz-adv-x="607" 
d="M197 213q0 -77 43 -122.5t117 -45.5q51 0 87.5 22t51.5 61h65q-10 -45 -43 -78.5t-82 -49.5h1q-48 -14 -71.5 -41t-23.5 -58q0 -28 17.5 -45.5t47.5 -17.5q27 0 62 14l-1 -49q-39 -15 -78 -15q-51 0 -79.5 26.5t-28.5 67.5q0 62 70 106q-97 1 -156 62t-64 163h-14
q-51 0 -82 30.5t-31 79.5v34h56v-33q0 -29 16 -45t46 -16h11q10 94 69 149t150 55q63 0 111.5 -27t75.5 -75t27 -109q0 -11 -2 -43h-368zM244 373.5q-42 -41.5 -47 -109.5h307q-1 68 -41 109.5t-110 41.5q-67 0 -109 -41.5z" />
    <glyph glyph-name="uni04C0" unicode="&#x4c0;" horiz-adv-x="237" 
d="M85 700h67v-700h-67v700z" />
    <glyph glyph-name="uni04C1" unicode="&#x4c1;" horiz-adv-x="935" 
d="M351.5 765q-46.5 29 -51.5 79h55q5 -31 36 -46.5t76 -15.5t76 15.5t37 46.5h54q-5 -50 -51.5 -79t-115.5 -29t-115.5 29zM918 0h-87l-330 356v-356h-67v356l-330 -356h-87l338 359h-16q-52 0 -88 61l-93 153q-25 40 -41.5 54t-41.5 14h-37v61h50q39 0 65.5 -21t55.5 -70
l93 -154q36 -64 93 -64h39v307h67v-307h39q57 0 93 64l93 154q29 49 55.5 70t65.5 21h50v-61h-37q-25 0 -41.5 -14t-41.5 -54l-93 -153q-36 -61 -88 -61h-16z" />
    <glyph glyph-name="uni04C2" unicode="&#x4c2;" horiz-adv-x="734" 
d="M251 544.5q-46 36.5 -51 100.5h56q4 -42 34.5 -65t76.5 -23q45 0 76 23t35 65h55q-5 -64 -50.5 -100.5t-115.5 -36.5t-116 36.5zM702 0h-82l-221 222v-222h-64v222l-221 -222h-82l231 232h-5q-25 0 -42 12.5t-38 44.5l-46 69q-17 25 -28.5 34.5t-32.5 9.5h-23v58h37
q31 0 49.5 -14t41.5 -48l68 -99q17 -27 32.5 -38t34.5 -11h24v205h64v-205h24q19 0 34.5 11t32.5 38l68 99q23 34 41.5 48t49.5 14h37v-58h-23q-21 0 -32.5 -9.5t-28.5 -34.5l-46 -69q-21 -32 -38 -44.5t-42 -12.5h-5z" />
    <glyph glyph-name="uni04C3" unicode="&#x4c3;" horiz-adv-x="604" 
d="M460 380q47 -24 75 -71t28 -115q0 -100 -57.5 -154t-165.5 -54q-37 0 -73 6v58q30 -6 64 -6q85 0 126 39.5t41 109.5q0 75 -42.5 114t-111.5 39h-143v2h-32l-17 44h32q13 0 21 2l1 10h29q30 15 52 53l93 154q30 49 56.5 70t64.5 21h50v-61h-37q-25 0 -41.5 -14t-41.5 -54
l-93 -153q-3 -6 -11 -16h28q58 0 105 -24zM152 700v-700h-67v700h67z" />
    <glyph glyph-name="uni04C4" unicode="&#x4c4;" horiz-adv-x="482" 
d="M400.5 195q51.5 -52 51.5 -145q0 -104 -56 -161t-161 -57q-29 0 -54 7v58q20 -5 50 -5q78 0 117 42t39 115q0 74 -37.5 112.5t-105.5 38.5h-100v-200h-64v455h64v-205h24q18 0 33 11t34 38l68 99q23 34 41.5 48t49.5 14h37v-58h-23q-21 0 -32.5 -9.5t-28.5 -34.5l-46 -69
q-20 -28 -32 -39q80 -3 131.5 -55z" />
    <glyph glyph-name="uni04C5" unicode="&#x4c5;" horiz-adv-x="676" 
d="M630 61l-69 -181h-65l45 120h-18v640h-300v-390q0 -137 -43 -195.5t-120 -58.5h-37v64h26q54 0 80.5 42.5t26.5 149.5v448h434v-639h40z" />
    <glyph glyph-name="uni04C6" unicode="&#x4c6;" horiz-adv-x="544" 
d="M504 61l-69 -181h-65l45 120h-15v395h-212v-204q0 -100 -33 -146.5t-93 -46.5h-32v61h19q37 0 56 29.5t19 99.5v267h340v-394h40z" />
    <glyph glyph-name="uni04C7" unicode="&#x4c7;" horiz-adv-x="666" 
d="M581 700v-789q0 -63 -33.5 -97.5t-93.5 -34.5q-40 0 -65 11v63q23 -10 56 -10q69 0 69 87v387h-362v-317h-67v700h67v-322h362v322h67z" />
    <glyph glyph-name="uni04C8" unicode="&#x4c8;" horiz-adv-x="557" 
d="M477 455v-554q0 -58 -29.5 -90t-83.5 -32q-40 0 -63 11v60q24 -10 52 -10q29 0 44.5 20t15.5 57v284h-269v-201h-64v455h64v-199h269v199h64z" />
    <glyph glyph-name="uni04C9" unicode="&#x4c9;" horiz-adv-x="666" 
d="M621 61l-69 -181h-65l45 120h-18v317h-362v-317h-67v700h67v-322h362v322h67v-639h40z" />
    <glyph glyph-name="uni04CA" unicode="&#x4ca;" horiz-adv-x="557" 
d="M517 61l-69 -181h-65l45 120h-15v201h-269v-201h-64v455h64v-199h269v199h64v-394h40z" />
    <glyph glyph-name="uni04CB" unicode="&#x4cb;" horiz-adv-x="575" 
d="M490 0h-39v-120h-67v181h39v216q-37 -25 -76 -34t-86 -9q-105 0 -158 59.5t-53 161.5v245h67v-229q0 -176 161 -176q43 0 78 9t67 34v362h67v-700z" />
    <glyph glyph-name="uni04CC" unicode="&#x4cc;" horiz-adv-x="483" 
d="M403 0h-36v-120h-67v181h39v119q-26 -16 -63 -24t-70 -8q-87 0 -130.5 38.5t-43.5 119.5v149h65v-141q0 -57 30.5 -84t91.5 -27q33 0 65 7.5t55 25.5v219h64v-455z" />
    <glyph glyph-name="uni04CD" unicode="&#x4cd;" horiz-adv-x="814" 
d="M769 61l-69 -181h-65l45 120h-16v558l-230 -558h-54l-230 561v-561h-65v700h65l257 -606l257 606h65v-639h40z" />
    <glyph glyph-name="uni04CE" unicode="&#x4ce;" horiz-adv-x="692" 
d="M652 61l-69 -181h-65l45 120h-12v393l-183 -393h-43l-183 393v-393h-62v455h98l168 -367l169 367h98l-1 -394h40z" />
    <glyph glyph-name="uni04CF" unicode="&#x4cf;" horiz-adv-x="224" 
d="M80 455h64v-455h-64v455z" />
    <glyph glyph-name="uni04D0" unicode="&#x4d0;" horiz-adv-x="577" 
d="M173.5 765q-46.5 29 -51.5 79h55q5 -31 36 -46.5t76 -15.5t76 15.5t37 46.5h54q-5 -50 -51.5 -79t-115.5 -29t-115.5 29zM443 126h-310l-40 -126h-73l238 700h61l238 -700h-73zM424 187l-136 422l-135 -422h271z" />
    <glyph glyph-name="uni04D1" unicode="&#x4d1;" horiz-adv-x="590" 
d="M162 544.5q-46 36.5 -51 100.5h56q4 -42 34.5 -65t76.5 -23q45 0 76 23t35 65h55q-5 -64 -50.5 -100.5t-115.5 -36.5t-116 36.5zM146.5 19q-51.5 31 -79 85.5t-27.5 122.5t28 122.5t80 86t121 31.5q62 0 109 -30t69 -81v99h63v-455h-63v98q-22 -49 -70.5 -79.5
t-108.5 -30.5q-70 0 -121.5 31zM368.5 70.5q39.5 24.5 60.5 66t21 90.5q0 50 -21 91.5t-60.5 66t-93.5 24.5q-77 0 -124 -51.5t-47 -130.5q0 -52 21 -93t60 -64.5t90 -23.5q54 0 93.5 24.5z" />
    <glyph glyph-name="uni04D2" unicode="&#x4d2;" horiz-adv-x="577" 
d="M131.5 773.5q-16.5 16.5 -16.5 39.5q0 25 16.5 41.5t40.5 16.5t41 -16.5t17 -41.5q0 -23 -17 -39.5t-41 -16.5t-40.5 16.5zM365.5 773.5q-16.5 16.5 -16.5 39.5q0 25 16.5 41.5t40.5 16.5t41 -16.5t17 -41.5q0 -23 -17 -39.5t-41 -16.5t-40.5 16.5zM443 126h-310
l-40 -126h-73l238 700h61l238 -700h-73zM424 187l-136 422l-135 -422h271z" />
    <glyph glyph-name="uni04D3" unicode="&#x4d3;" horiz-adv-x="590" 
d="M146.5 19q-51.5 31 -79 85.5t-27.5 122.5t28 122.5t80 86t121 31.5q62 0 109 -30t69 -81v99h63v-455h-63v98q-22 -49 -70.5 -79.5t-108.5 -30.5q-70 0 -121.5 31zM368.5 70.5q39.5 24.5 60.5 66t21 90.5q0 50 -21 91.5t-60.5 66t-93.5 24.5q-77 0 -124 -51.5t-47 -130.5
q0 -52 21 -93t60 -64.5t90 -23.5q54 0 93.5 24.5zM139.5 563.5q-16.5 16.5 -16.5 39.5q0 25 16.5 41.5t39.5 16.5q25 0 41.5 -16.5t16.5 -41.5q0 -23 -16.5 -39.5t-41.5 -16.5q-23 0 -39.5 16.5zM336.5 563.5q-16.5 16.5 -16.5 39.5q0 25 16.5 41.5t39.5 16.5
q25 0 41.5 -16.5t16.5 -41.5q0 -23 -16.5 -39.5t-41.5 -16.5q-23 0 -39.5 16.5z" />
    <glyph glyph-name="uni04D4" unicode="&#x4d4;" horiz-adv-x="818" 
d="M464 639v-261h284v-61h-284v-256h284v-61h-351v128h-246l-63 -128h-73l353 700h380v-61h-284zM397 187v443l-217 -443h217z" />
    <glyph glyph-name="uni04D5" unicode="&#x4d5;" horiz-adv-x="879" 
d="M837 212h-370q1 -77 45.5 -122.5t118.5 -45.5q50 0 86 23t51 64h65q-14 -65 -69.5 -104.5t-132.5 -39.5q-66 0 -117.5 30.5t-79.5 85.5q-57 -115 -211 -115q-79 0 -128.5 35.5t-49.5 94.5q0 73 53 109q29 19 71.5 27t113.5 8h125v38q0 52 -35.5 83t-105.5 31
q-64 0 -101 -28.5t-40 -80.5h-64q4 74 60 118t146 44q70 0 116 -23.5t66 -66.5q29 43 74.5 66t102.5 23q61 0 109.5 -27t75.5 -75t27 -109q0 -9 -2 -43zM775 262q0 68 -40.5 110.5t-107.5 42.5q-70 0 -113.5 -41.5t-45.5 -111.5h307zM408 200l-1 12h-152q-73 0 -108.5 -23.5
t-35.5 -65.5q0 -41 34 -62t95 -21q71 0 119.5 39.5t48.5 108.5v12z" />
    <glyph glyph-name="uni04D6" unicode="&#x4d6;" horiz-adv-x="547" 
d="M172.5 765q-46.5 29 -51.5 79h55q5 -31 36 -46.5t76 -15.5t76 15.5t37 46.5h54q-5 -50 -51.5 -79t-115.5 -29t-115.5 29zM85 700h391v-61h-324v-261h324v-61h-324v-256h324v-61h-391v700z" />
    <glyph glyph-name="uni04D7" unicode="&#x4d7;" horiz-adv-x="515" 
d="M144 544.5q-46 36.5 -51 100.5h56q4 -42 34.5 -65t76.5 -23q45 0 76 23t35 65h55q-5 -64 -50.5 -100.5t-115.5 -36.5t-116 36.5zM473 213h-368q0 -77 43 -122.5t117 -45.5q51 0 87.5 22t51.5 61h65q-14 -62 -70 -101t-134 -39q-68 0 -119 29.5t-78.5 84t-27.5 126.5
t27.5 126t77.5 83.5t116 29.5q63 0 111.5 -27t75.5 -75t27 -109q0 -11 -2 -43zM412 264q-1 68 -41 109.5t-110 41.5q-67 0 -109 -41.5t-47 -109.5h307z" />
    <glyph glyph-name="uni04D8" unicode="&#x4d8;" horiz-adv-x="778" 
d="M204.5 34q-77.5 47 -121 128.5t-43.5 180.5v37h626q-4 76 -35.5 138t-93.5 98.5t-154 36.5q-102 0 -162 -43.5t-90 -119.5h-78q18 64 61.5 115t112 80.5t156.5 29.5q113 0 193.5 -49t121 -132t40.5 -183t-43 -183t-124 -132t-191 -49q-98 0 -175.5 47zM530 83.5
q64 35.5 99.5 99t36.5 143.5h-556q2 -78 36 -141t95.5 -100t141.5 -37q83 0 147 35.5z" />
    <glyph glyph-name="uni04D9" unicode="&#x4d9;" horiz-adv-x="515" 
d="M369 437.5q51 -29.5 78.5 -84t27.5 -126.5t-27.5 -126t-77.5 -83.5t-116 -29.5q-63 0 -111.5 27t-75.5 75t-27 109q0 11 2 43h368q0 77 -43 122.5t-117 45.5q-51 0 -87.5 -22t-51.5 -61h-65q14 62 70 101t134 39q68 0 119 -29.5zM363 81.5q42 41.5 47 109.5h-307
q1 -68 41 -109.5t110 -41.5q67 0 109 41.5z" />
    <glyph glyph-name="uni04DA" unicode="&#x4da;" horiz-adv-x="778" 
d="M221.5 773.5q-16.5 16.5 -16.5 39.5q0 25 16.5 41.5t40.5 16.5t41 -16.5t17 -41.5q0 -23 -17 -39.5t-41 -16.5t-40.5 16.5zM455.5 773.5q-16.5 16.5 -16.5 39.5q0 25 16.5 41.5t40.5 16.5t41 -16.5t17 -41.5q0 -23 -17 -39.5t-41 -16.5t-40.5 16.5zM204.5 34
q-77.5 47 -121 128.5t-43.5 180.5v37h626q-4 76 -35.5 138t-93.5 98.5t-154 36.5q-102 0 -162 -43.5t-90 -119.5h-78q18 64 61.5 115t112 80.5t156.5 29.5q113 0 193.5 -49t121 -132t40.5 -183t-43 -183t-124 -132t-191 -49q-98 0 -175.5 47zM530 83.5q64 35.5 99.5 99
t36.5 143.5h-556q2 -78 36 -141t95.5 -100t141.5 -37q83 0 147 35.5z" />
    <glyph glyph-name="uni04DB" unicode="&#x4db;" horiz-adv-x="515" 
d="M369 437.5q51 -29.5 78.5 -84t27.5 -126.5t-27.5 -126t-77.5 -83.5t-116 -29.5q-63 0 -111.5 27t-75.5 75t-27 109q0 11 2 43h368q0 77 -43 122.5t-117 45.5q-51 0 -87.5 -22t-51.5 -61h-65q14 62 70 101t134 39q68 0 119 -29.5zM363 81.5q42 41.5 47 109.5h-307
q1 -68 41 -109.5t110 -41.5q67 0 109 41.5zM117.5 563.5q-16.5 16.5 -16.5 39.5q0 25 16.5 41.5t39.5 16.5q25 0 41.5 -16.5t16.5 -41.5q0 -23 -16.5 -39.5t-41.5 -16.5q-23 0 -39.5 16.5zM314.5 563.5q-16.5 16.5 -16.5 39.5q0 25 16.5 41.5t39.5 16.5q25 0 41.5 -16.5
t16.5 -41.5q0 -23 -16.5 -39.5t-41.5 -16.5q-23 0 -39.5 16.5z" />
    <glyph glyph-name="uni04DC" unicode="&#x4dc;" horiz-adv-x="935" 
d="M309.5 773.5q-16.5 16.5 -16.5 39.5q0 25 16.5 41.5t40.5 16.5t41 -16.5t17 -41.5q0 -23 -17 -39.5t-41 -16.5t-40.5 16.5zM543.5 773.5q-16.5 16.5 -16.5 39.5q0 25 16.5 41.5t40.5 16.5t41 -16.5t17 -41.5q0 -23 -17 -39.5t-41 -16.5t-40.5 16.5zM918 0h-87l-330 356
v-356h-67v356l-330 -356h-87l338 359h-16q-52 0 -88 61l-93 153q-25 40 -41.5 54t-41.5 14h-37v61h50q39 0 65.5 -21t55.5 -70l93 -154q36 -64 93 -64h39v307h67v-307h39q57 0 93 64l93 154q29 49 55.5 70t65.5 21h50v-61h-37q-25 0 -41.5 -14t-41.5 -54l-93 -153
q-36 -61 -88 -61h-16z" />
    <glyph glyph-name="uni04DD" unicode="&#x4dd;" horiz-adv-x="734" 
d="M702 0h-82l-221 222v-222h-64v455h64v-205h24q19 0 34.5 11t32.5 38l68 99q23 34 41.5 48t49.5 14h37v-58h-23q-21 0 -32.5 -9.5t-28.5 -34.5l-46 -69q-21 -32 -38 -44.5t-42 -12.5h-5zM32 0h82l221 222v-222h64v455h-64v-205h-24q-19 0 -34.5 11t-32.5 38l-68 99
q-23 34 -41.5 48t-49.5 14h-37v-58h23q21 0 32.5 -9.5t28.5 -34.5l46 -69q21 -32 38 -44.5t42 -12.5h5zM228.5 563.5q-16.5 16.5 -16.5 39.5q0 25 16.5 41.5t39.5 16.5q25 0 41.5 -16.5t16.5 -41.5q0 -23 -16.5 -39.5t-41.5 -16.5q-23 0 -39.5 16.5zM425.5 563.5
q-16.5 16.5 -16.5 39.5q0 25 16.5 41.5t39.5 16.5q25 0 41.5 -16.5t16.5 -41.5q0 -23 -16.5 -39.5t-41.5 -16.5q-23 0 -39.5 16.5z" />
    <glyph glyph-name="uni04DE" unicode="&#x4de;" horiz-adv-x="555" 
d="M116.5 773.5q-16.5 16.5 -16.5 39.5q0 25 16.5 41.5t40.5 16.5t41 -16.5t17 -41.5q0 -23 -17 -39.5t-41 -16.5t-40.5 16.5zM350.5 773.5q-16.5 16.5 -16.5 39.5q0 25 16.5 41.5t40.5 16.5t41 -16.5t17 -41.5q0 -23 -17 -39.5t-41 -16.5t-40.5 16.5zM158 88.5
q46 -42.5 121 -42.5t118.5 41t43.5 104q0 65 -41 102t-119 37h-55v61h55q72 0 110.5 36.5t38.5 93.5q0 59 -41 96t-109 37q-73 0 -118 -39t-45 -105h-67q0 60 28.5 106.5t80.5 72.5t119 26q63 0 112.5 -22.5t78 -65.5t28.5 -101q0 -62 -35.5 -106.5t-94.5 -55.5
q64 -11 102.5 -57.5t38.5 -115.5q0 -61 -28 -107.5t-79.5 -72.5t-120.5 -26t-122.5 26.5t-83 76t-29.5 115.5h67q0 -72 46 -114.5z" />
    <glyph glyph-name="uni04DF" unicode="&#x4df;" horiz-adv-x="472" 
d="M146 66.5q33 -23.5 92 -23.5q56 0 87 22t31 61q0 36 -26 57.5t-73 21.5h-70v50h68q41 0 66.5 22t25.5 59q0 34 -29.5 56t-78.5 22q-56 0 -86 -22.5t-30 -59.5h-66q0 60 50 97.5t132 37.5q77 0 124.5 -35t47.5 -89q0 -44 -26.5 -73t-71.5 -37q48 -5 77.5 -35.5t29.5 -77.5
q0 -59 -52.5 -95t-132.5 -36q-86 0 -136.5 38.5t-50.5 101.5h65q0 -39 33 -62.5zM97.5 563.5q-16.5 16.5 -16.5 39.5q0 25 16.5 41.5t39.5 16.5q25 0 41.5 -16.5t16.5 -41.5q0 -23 -16.5 -39.5t-41.5 -16.5q-23 0 -39.5 16.5zM294.5 563.5q-16.5 16.5 -16.5 39.5
q0 25 16.5 41.5t39.5 16.5q25 0 41.5 -16.5t16.5 -41.5q0 -23 -16.5 -39.5t-41.5 -16.5q-23 0 -39.5 16.5z" />
    <glyph glyph-name="uni04E0" unicode="&#x4e0;" horiz-adv-x="554" 
d="M157.5 13.5q-53.5 26.5 -83 76t-29.5 115.5h67q0 -71 47.5 -113.5t121.5 -42.5q73 0 116 43t43 109q0 72 -41 113t-121 41h-76l202 284h-318v61h430l-214 -295q93 -2 149 -56.5t56 -144.5q0 -63 -29 -112.5t-80.5 -77t-117.5 -27.5q-69 0 -122.5 26.5z" />
    <glyph glyph-name="uni04E1" unicode="&#x4e1;" horiz-adv-x="462" 
d="M49.5 -176.5q-56.5 50.5 -56.5 138.5h63q1 -62 41 -98t104 -36q71 0 110.5 45t39.5 122q0 168 -191 168h-45l199 237h-292v55h402l-206 -247q98 -3 147.5 -59t49.5 -154q0 -104 -57.5 -163t-158.5 -59q-93 0 -149.5 50.5z" />
    <glyph glyph-name="uni04E2" unicode="&#x4e2;" horiz-adv-x="665" 
d="M158 804h354v-52h-354v52zM152 45v-45h-67v700h67v-554l361 509v45h67v-700h-67v555z" />
    <glyph glyph-name="uni04E3" unicode="&#x4e3;" horiz-adv-x="556" 
d="M144 34v-34h-64v455h64v-346l268 311v35h64v-455h-64v344zM118 597h317v-53h-317v53z" />
    <glyph glyph-name="uni04E4" unicode="&#x4e4;" horiz-adv-x="665" 
d="M177.5 753.5q-16.5 16.5 -16.5 39.5q0 25 16.5 41.5t40.5 16.5t41 -16.5t17 -41.5q0 -23 -17 -39.5t-41 -16.5t-40.5 16.5zM411.5 753.5q-16.5 16.5 -16.5 39.5q0 25 16.5 41.5t40.5 16.5t41 -16.5t17 -41.5q0 -23 -17 -39.5t-41 -16.5t-40.5 16.5zM152 45v-45h-67v700
h67v-554l361 509v45h67v-700h-67v555z" />
    <glyph glyph-name="uni04E5" unicode="&#x4e5;" horiz-adv-x="556" 
d="M144 34v-34h-64v455h64v-346l268 311v35h64v-455h-64v344zM138.5 553.5q-16.5 16.5 -16.5 39.5q0 25 16.5 41.5t39.5 16.5q25 0 41.5 -16.5t16.5 -41.5q0 -23 -16.5 -39.5t-41.5 -16.5q-23 0 -39.5 16.5zM335.5 553.5q-16.5 16.5 -16.5 39.5q0 25 16.5 41.5t39.5 16.5
q25 0 41.5 -16.5t16.5 -41.5q0 -23 -16.5 -39.5t-41.5 -16.5q-23 0 -39.5 16.5z" />
    <glyph glyph-name="uni04E6" unicode="&#x4e6;" horiz-adv-x="800" 
d="M242.5 773.5q-16.5 16.5 -16.5 39.5q0 25 16.5 41.5t40.5 16.5t41 -16.5t17 -41.5q0 -23 -17 -39.5t-41 -16.5t-40.5 16.5zM476.5 773.5q-16.5 16.5 -16.5 39.5q0 25 16.5 41.5t40.5 16.5t41 -16.5t17 -41.5q0 -23 -17 -39.5t-41 -16.5t-40.5 16.5zM209.5 35
q-81.5 50 -125.5 133.5t-44 181.5t44 181.5t125.5 133.5t190.5 50t190.5 -50t125.5 -133.5t44 -181.5t-44 -181.5t-125.5 -133.5t-190.5 -50t-190.5 50zM554 87.5q66 41.5 101 111t35 151.5t-35 151.5t-101 111t-154 41.5t-154 -41.5t-101 -111t-35 -151.5t35 -151.5
t101 -111t154 -41.5t154 41.5z" />
    <glyph glyph-name="uni04E7" unicode="&#x4e7;" horiz-adv-x="549" 
d="M151 20q-53 32 -82 86.5t-29 121.5q0 66 29 120.5t82 86.5t123 32q71 0 124 -32t82 -86.5t29 -120.5q0 -67 -29 -121.5t-82 -86.5t-124 -32q-70 0 -123 32zM365 71q39 24 59.5 65t20.5 92t-20.5 92t-59.5 65t-91 24t-90.5 -24t-59 -65.5t-20.5 -92.5q0 -50 20.5 -91
t59 -65t90.5 -24t91 24zM135.5 563.5q-16.5 16.5 -16.5 39.5q0 25 16.5 41.5t39.5 16.5q25 0 41.5 -16.5t16.5 -41.5q0 -23 -16.5 -39.5t-41.5 -16.5q-23 0 -39.5 16.5zM332.5 563.5q-16.5 16.5 -16.5 39.5q0 25 16.5 41.5t39.5 16.5q25 0 41.5 -16.5t16.5 -41.5
q0 -23 -16.5 -39.5t-41.5 -16.5q-23 0 -39.5 16.5z" />
    <glyph glyph-name="uni04E8" unicode="&#x4e8;" horiz-adv-x="800" 
d="M590.5 665q81.5 -50 125.5 -133.5t44 -181.5t-44 -181.5t-125.5 -133.5t-190.5 -50t-190.5 50t-125.5 133.5t-44 181.5t44 181.5t125.5 133.5t190.5 50t190.5 -50zM252 616q-64 -38 -100 -102t-41 -141h578q-5 77 -41 141t-100 102t-148 38t-148 -38zM549 84
q64 38 99.5 102t40.5 142h-578q5 -78 40.5 -142t99.5 -102t149 -38t149 38z" />
    <glyph glyph-name="uni04E9" unicode="&#x4e9;" horiz-adv-x="549" 
d="M398 435q53 -32 82 -86.5t29 -120.5q0 -67 -29 -121.5t-82 -86.5t-124 -32q-70 0 -123 32t-82 86.5t-29 121.5q0 66 29 120.5t82 86.5t123 32q71 0 124 -32zM157 364.5q-45 -44.5 -52 -114.5h339q-7 70 -52.5 114.5t-117.5 44.5t-117 -44.5zM391.5 91q45.5 44 52.5 114
h-339q7 -69 52.5 -113.5t116.5 -44.5q72 0 117.5 44z" />
    <glyph glyph-name="uni04EA" unicode="&#x4ea;" horiz-adv-x="800" 
d="M242.5 773.5q-16.5 16.5 -16.5 39.5q0 25 16.5 41.5t40.5 16.5t41 -16.5t17 -41.5q0 -23 -17 -39.5t-41 -16.5t-40.5 16.5zM476.5 773.5q-16.5 16.5 -16.5 39.5q0 25 16.5 41.5t40.5 16.5t41 -16.5t17 -41.5q0 -23 -17 -39.5t-41 -16.5t-40.5 16.5zM590.5 665
q81.5 -50 125.5 -133.5t44 -181.5t-44 -181.5t-125.5 -133.5t-190.5 -50t-190.5 50t-125.5 133.5t-44 181.5t44 181.5t125.5 133.5t190.5 50t190.5 -50zM252 616q-64 -38 -100 -102t-41 -141h578q-5 77 -41 141t-100 102t-148 38t-148 -38zM549 84q64 38 99.5 102t40.5 142
h-578q5 -78 40.5 -142t99.5 -102t149 -38t149 38z" />
    <glyph glyph-name="uni04EB" unicode="&#x4eb;" horiz-adv-x="549" 
d="M398 435q53 -32 82 -86.5t29 -120.5q0 -67 -29 -121.5t-82 -86.5t-124 -32q-70 0 -123 32t-82 86.5t-29 121.5q0 66 29 120.5t82 86.5t123 32q71 0 124 -32zM157 364.5q-45 -44.5 -52 -114.5h339q-7 70 -52.5 114.5t-117.5 44.5t-117 -44.5zM391.5 91q45.5 44 52.5 114
h-339q7 -69 52.5 -113.5t116.5 -44.5q72 0 117.5 44zM135.5 563.5q-16.5 16.5 -16.5 39.5q0 25 16.5 41.5t39.5 16.5q25 0 41.5 -16.5t16.5 -41.5q0 -23 -16.5 -39.5t-41.5 -16.5q-23 0 -39.5 16.5zM332.5 563.5q-16.5 16.5 -16.5 39.5q0 25 16.5 41.5t39.5 16.5
q25 0 41.5 -16.5t16.5 -41.5q0 -23 -16.5 -39.5t-41.5 -16.5q-23 0 -39.5 16.5z" />
    <glyph glyph-name="uni04EC" unicode="&#x4ec;" horiz-adv-x="753" 
d="M203.5 773.5q-16.5 16.5 -16.5 39.5q0 25 16.5 41.5t40.5 16.5t41 -16.5t17 -41.5q0 -23 -17 -39.5t-41 -16.5t-40.5 16.5zM437.5 773.5q-16.5 16.5 -16.5 39.5q0 25 16.5 41.5t40.5 16.5t41 -16.5t17 -41.5q0 -23 -17 -39.5t-41 -16.5t-40.5 16.5zM542.5 668.5
q80.5 -46.5 125.5 -129.5t45 -189t-45 -189t-125.5 -129.5t-182.5 -46.5q-123 0 -208 62t-110 166h73q21 -76 86.5 -121.5t158.5 -45.5q78 0 139.5 34t99 95.5t43.5 143.5h-377v62h377q-6 82 -43.5 143.5t-99 95.5t-139.5 34q-93 0 -158.5 -45t-85.5 -121h-74
q25 105 111 166t207 61q102 0 182.5 -46.5z" />
    <glyph glyph-name="uni04ED" unicode="&#x4ed;" horiz-adv-x="525" 
d="M42 289q3 48 28 88.5t72.5 65t112.5 24.5q75 0 127 -33t77.5 -87.5t25.5 -118.5t-26 -119t-78 -88t-126 -33q-96 0 -152.5 47t-62.5 121h65q9 -50 47 -80t106 -30q74 0 115.5 44t44.5 113h-206v50h206q-3 69 -43.5 112.5t-116.5 43.5q-70 0 -107 -33.5t-44 -86.5h-65z
M117.5 563.5q-16.5 16.5 -16.5 39.5q0 25 16.5 41.5t39.5 16.5q25 0 41.5 -16.5t16.5 -41.5q0 -23 -16.5 -39.5t-41.5 -16.5q-23 0 -39.5 16.5zM314.5 563.5q-16.5 16.5 -16.5 39.5q0 25 16.5 41.5t39.5 16.5q25 0 41.5 -16.5t16.5 -41.5q0 -23 -16.5 -39.5t-41.5 -16.5
q-23 0 -39.5 16.5z" />
    <glyph glyph-name="uni04EE" unicode="&#x4ee;" horiz-adv-x="542" 
d="M461 772h-354v52h354v-52zM552 700l-357 -700h-74l141 277l-267 423h78l224 -354l181 354h74z" />
    <glyph glyph-name="uni04EF" unicode="&#x4ef;" horiz-adv-x="567" 
d="M487 455v-470q0 -111 -64 -166q-54 -46 -144 -46q-98 0 -153 46q-50 43 -51 117h65q2 -49 34.5 -78.5t103.5 -29.5q145 0 145 161v112q-20 -50 -64 -81t-106 -31q-91 0 -134.5 52.5t-43.5 149.5v264h64v-252q0 -77 30 -116.5t104 -39.5q49 0 82.5 25t50.5 65t17 85v233
h64zM120 607h317v-53h-317v53z" />
    <glyph glyph-name="uni04F0" unicode="&#x4f0;" horiz-adv-x="542" 
d="M126.5 773.5q-16.5 16.5 -16.5 39.5q0 25 16.5 41.5t40.5 16.5t41 -16.5t17 -41.5q0 -23 -17 -39.5t-41 -16.5t-40.5 16.5zM360.5 773.5q-16.5 16.5 -16.5 39.5q0 25 16.5 41.5t40.5 16.5t41 -16.5t17 -41.5q0 -23 -17 -39.5t-41 -16.5t-40.5 16.5zM552 700l-357 -700
h-74l141 277l-267 423h78l224 -354l181 354h74z" />
    <glyph glyph-name="uni04F1" unicode="&#x4f1;" horiz-adv-x="567" 
d="M487 455v-470q0 -111 -64 -166q-54 -46 -144 -46q-98 0 -153 46q-50 43 -51 117h65q2 -49 34.5 -78.5t103.5 -29.5q145 0 145 161v112q-20 -50 -64 -81t-106 -31q-91 0 -134.5 52.5t-43.5 149.5v264h64v-252q0 -77 30 -116.5t104 -39.5q49 0 82.5 25t50.5 65t17 85v233
h64zM140.5 563.5q-16.5 16.5 -16.5 39.5q0 25 16.5 41.5t39.5 16.5q25 0 41.5 -16.5t16.5 -41.5q0 -23 -16.5 -39.5t-41.5 -16.5q-23 0 -39.5 16.5zM337.5 563.5q-16.5 16.5 -16.5 39.5q0 25 16.5 41.5t39.5 16.5q25 0 41.5 -16.5t16.5 -41.5q0 -23 -16.5 -39.5t-41.5 -16.5
q-23 0 -39.5 16.5z" />
    <glyph glyph-name="uni04F2" unicode="&#x4f2;" horiz-adv-x="542" 
d="M190 736l-38 17l129 131l58 -23zM336 753l129 131l57 -24l-148 -125zM552 700l-357 -700h-74l141 277l-267 423h78l224 -354l181 354h74z" />
    <glyph glyph-name="uni04F3" unicode="&#x4f3;" horiz-adv-x="567" 
d="M487 455v-470q0 -111 -64 -166q-54 -46 -144 -46q-98 0 -153 46q-50 43 -51 117h65q2 -49 34.5 -78.5t103.5 -29.5q145 0 145 161v112q-20 -50 -64 -81t-106 -31q-91 0 -134.5 52.5t-43.5 149.5v264h64v-252q0 -77 30 -116.5t104 -39.5q49 0 82.5 25t50.5 65t17 85v233
h64zM142 521l125 166l56 -28l-147 -156zM327 521l125 166l56 -28l-147 -157z" />
    <glyph glyph-name="uni04F4" unicode="&#x4f4;" horiz-adv-x="575" 
d="M114.5 773.5q-16.5 16.5 -16.5 39.5q0 25 16.5 41.5t40.5 16.5t41 -16.5t17 -41.5q0 -23 -17 -39.5t-41 -16.5t-40.5 16.5zM348.5 773.5q-16.5 16.5 -16.5 39.5q0 25 16.5 41.5t40.5 16.5t41 -16.5t17 -41.5q0 -23 -17 -39.5t-41 -16.5t-40.5 16.5zM423 277
q-37 -25 -76 -34t-86 -9q-105 0 -158 59.5t-53 161.5v245h67v-229q0 -176 161 -176q43 0 78 9t67 34v362h67v-700h-67v277z" />
    <glyph glyph-name="uni04F5" unicode="&#x4f5;" horiz-adv-x="483" 
d="M339 180q-26 -16 -63 -24t-70 -8q-87 0 -130.5 38.5t-43.5 119.5v149h65v-141q0 -57 30.5 -84t91.5 -27q33 0 65 7.5t55 25.5v219h64v-455h-64v180zM79.5 563.5q-16.5 16.5 -16.5 39.5q0 25 16.5 41.5t39.5 16.5q25 0 41.5 -16.5t16.5 -41.5q0 -23 -16.5 -39.5
t-41.5 -16.5q-23 0 -39.5 16.5zM276.5 563.5q-16.5 16.5 -16.5 39.5q0 25 16.5 41.5t39.5 16.5q25 0 41.5 -16.5t16.5 -41.5q0 -23 -16.5 -39.5t-41.5 -16.5q-23 0 -39.5 16.5z" />
    <glyph glyph-name="uni04F6" unicode="&#x4f6;" horiz-adv-x="474" 
d="M152 636v-575h37v-181h-64v120h-40v700h381v-64h-314z" />
    <glyph glyph-name="uni04F7" unicode="&#x4f7;" horiz-adv-x="373" 
d="M144 395v-334h37v-181h-64v120h-37v455h270v-60h-206z" />
    <glyph glyph-name="uni04F8" unicode="&#x4f8;" horiz-adv-x="761" 
d="M231.5 773.5q-16.5 16.5 -16.5 39.5q0 25 16.5 41.5t40.5 16.5t41 -16.5t17 -41.5q0 -23 -17 -39.5t-41 -16.5t-40.5 16.5zM465.5 773.5q-16.5 16.5 -16.5 39.5q0 25 16.5 41.5t40.5 16.5t41 -16.5t17 -41.5q0 -23 -17 -39.5t-41 -16.5t-40.5 16.5zM85 700h67v-307h188
q53 0 96.5 -26.5t68 -71.5t24.5 -99q0 -53 -25 -98t-69 -71.5t-98 -26.5h-252v700zM608 700h67v-700h-67v700zM337 61q53 0 89 39.5t36 95.5t-35 96t-87 40h-188v-271h185z" />
    <glyph glyph-name="uni04F9" unicode="&#x4f9;" horiz-adv-x="641" 
d="M144 455v-171h133q43 0 77 -19t52.5 -51.5t18.5 -71.5t-19.5 -71.5t-54 -51.5t-76.5 -19h-195v455h64zM144 53h125q40 0 64.5 25.5t24.5 63.5t-24 63.5t-62 25.5h-128v-178zM497 455h64v-455h-64v455zM177.5 563.5q-16.5 16.5 -16.5 39.5q0 25 16.5 41.5t39.5 16.5
q25 0 41.5 -16.5t16.5 -41.5q0 -23 -16.5 -39.5t-41.5 -16.5q-23 0 -39.5 16.5zM374.5 563.5q-16.5 16.5 -16.5 39.5q0 25 16.5 41.5t39.5 16.5q25 0 41.5 -16.5t16.5 -41.5q0 -23 -16.5 -39.5t-41.5 -16.5q-23 0 -39.5 16.5z" />
    <glyph glyph-name="uni04FC" unicode="&#x4fc;" horiz-adv-x="592" 
d="M369 -208v63q23 -10 53 -10q38 0 55 19.5t17 61.5q0 40 -18 81t-62 107l-118 180l-195 -294h-76l233 350l-233 350h76l195 -295l195 295h76l-233 -350l134 -201q53 -81 73 -130t20 -98q0 -140 -131 -140q-34 0 -61 11z" />
    <glyph glyph-name="uni04FD" unicode="&#x4fd;" horiz-adv-x="469" 
d="M268 -210v55q21 -10 49 -10q66 0 66 78q0 38 -22 81.5t-65 102.5l-62 85l-133 -182h-78l174 228l-173 227h79l131 -179l133 179h79l-174 -227l79 -107q54 -72 73.5 -120.5t19.5 -97.5q0 -59 -30 -91.5t-86 -32.5q-37 0 -60 11z" />
    <glyph glyph-name="uni0510" unicode="&#x510;" horiz-adv-x="555" 
d="M397 88.5q-46 -42.5 -121 -42.5t-118.5 41t-43.5 104q0 65 41 102t119 37h55v61h-55q-72 0 -110.5 36.5t-38.5 93.5q0 59 41 96t109 37q73 0 118 -39t45 -105h67q0 60 -28.5 106.5t-80.5 72.5t-119 26q-63 0 -112.5 -22.5t-78 -65.5t-28.5 -101q0 -62 35.5 -106.5
t94.5 -55.5q-64 -11 -102.5 -57.5t-38.5 -115.5q0 -61 28 -107.5t79.5 -72.5t120.5 -26t122.5 26.5t83 76t29.5 115.5h-67q0 -72 -46 -114.5z" />
    <glyph glyph-name="uni0511" unicode="&#x511;" horiz-adv-x="472" 
d="M326 66.5q-33 -23.5 -92 -23.5q-56 0 -87 22t-31 61q0 36 26 57.5t73 21.5h70v50h-68q-41 0 -66.5 22t-25.5 59q0 34 29.5 56t78.5 22q56 0 86 -22.5t30 -59.5h66q0 60 -50 97.5t-132 37.5q-77 0 -124.5 -35t-47.5 -89q0 -44 26.5 -73t71.5 -37q-48 -5 -77.5 -35.5
t-29.5 -77.5q0 -59 52.5 -95t132.5 -36q86 0 136.5 38.5t50.5 101.5h-65q0 -39 -33 -62.5z" />
    <glyph glyph-name="uni0512" unicode="&#x512;" horiz-adv-x="676" 
d="M590 700v-789q0 -63 -33.5 -97.5t-93.5 -34.5q-40 0 -65 11v63q23 -10 56 -10q69 0 69 87v710h-300v-390q0 -137 -43 -195.5t-120 -58.5h-37v64h26q54 0 80.5 42.5t26.5 149.5v448h434z" />
    <glyph glyph-name="uni0513" unicode="&#x513;" horiz-adv-x="544" 
d="M49 59q37 0 56 29.5t19 99.5v267h340v-455h-64v395h-212v-204q0 -100 -33 -146.5t-93 -46.5h-32v61h19zM288 -210v60q24 -10 52 -10q29 0 44.5 20t15.5 57v129h64v-145q0 -58 -29.5 -90t-83.5 -32q-40 0 -63 11z" />
    <glyph glyph-name="uni051C" unicode="&#x51c;" horiz-adv-x="943" 
d="M5 700h71l193 -591l176 591h53l175 -591l194 591h71l-237 -700h-52l-178 585l-177 -585h-52z" />
    <glyph glyph-name="uni051D" unicode="&#x51d;" horiz-adv-x="726" 
d="M10 455h70l125 -364l123 364h69l123 -364l126 364h70l-169 -455h-56l-129 376l-128 -376h-55z" />
    <glyph glyph-name="uni0524" unicode="&#x524;" horiz-adv-x="662" 
d="M614 61v-181h-64v120h-40v639h-358v-639h-67v700h492v-639h37z" />
    <glyph glyph-name="uni0525" unicode="&#x525;" horiz-adv-x="570" 
d="M518 61v-181h-64v120h-37v400h-273v-400h-64v455h401v-394h37z" />
    <glyph glyph-name="uni0526" unicode="&#x526;" horiz-adv-x="614" 
d="M562 61v-181h-64v120h-40v229q0 86 -39 131t-122 45q-43 0 -78 -9t-67 -34v-362h-67v700h67v-277q37 25 76 34t86 9q105 0 158 -59.5t53 -161.5v-184h37z" />
    <glyph glyph-name="uni0527" unicode="&#x527;" horiz-adv-x="580" 
d="M527 61v-181h-64v120h-37v249q0 82 -32 122t-98 40q-73 0 -111 -48.5t-38 -130.5v-232h-64v700h64v-349q16 53 60 84.5t110 31.5q86 0 129.5 -49.5t43.5 -143.5v-213h37z" />
    <glyph glyph-name="uni0E3F" unicode="&#xe3f;" horiz-adv-x="579" 
d="M490 292.5q39 -43.5 39 -110.5q0 -84 -57 -133t-154 -49h-8v-98h-50v98h-175v681h175v99h50v-99h2q97 0 153.5 -46.5t56.5 -129.5q0 -67 -35.5 -109t-95.5 -51q60 -9 99 -52.5zM152 622v-249h170q59 0 96 34t37 91q0 58 -39 91t-107 33h-157zM423 94q39 34 39 94
q0 56 -37.5 91t-93.5 35h-179v-254h165q67 0 106 34z" />
    <glyph glyph-name="Wgrave" unicode="&#x1e80;" horiz-adv-x="943" 
d="M343 846l24 45l228 -115l-24 -46zM5 700h71l193 -591l176 591h53l175 -591l194 591h71l-237 -700h-52l-178 585l-177 -585h-52z" />
    <glyph glyph-name="wgrave" unicode="&#x1e81;" horiz-adv-x="726" 
d="M10 455h70l125 -364l123 364h69l123 -364l126 364h70l-169 -455h-56l-129 376l-128 -376h-55zM235 653l37 39l163 -143l-37 -38z" />
    <glyph glyph-name="Wacute" unicode="&#x1e82;" horiz-adv-x="943" 
d="M348 776l228 115l24 -45l-228 -116zM5 700h71l193 -591l176 591h53l175 -591l194 591h71l-237 -700h-52l-178 585l-177 -585h-52z" />
    <glyph glyph-name="wacute" unicode="&#x1e83;" horiz-adv-x="726" 
d="M10 455h70l125 -364l123 364h69l123 -364l126 364h70l-169 -455h-56l-129 376l-128 -376h-55zM293 549l163 143l37 -39l-163 -142z" />
    <glyph glyph-name="Wdieresis" unicode="&#x1e84;" horiz-adv-x="943" 
d="M314.5 773.5q-16.5 16.5 -16.5 39.5q0 25 16.5 41.5t40.5 16.5t41 -16.5t17 -41.5q0 -23 -17 -39.5t-41 -16.5t-40.5 16.5zM548.5 773.5q-16.5 16.5 -16.5 39.5q0 25 16.5 41.5t40.5 16.5t41 -16.5t17 -41.5q0 -23 -17 -39.5t-41 -16.5t-40.5 16.5zM5 700h71l193 -591
l176 591h53l175 -591l194 591h71l-237 -700h-52l-178 585l-177 -585h-52z" />
    <glyph glyph-name="wdieresis" unicode="&#x1e85;" horiz-adv-x="726" 
d="M10 455h70l125 -364l123 364h69l123 -364l126 364h70l-169 -455h-56l-129 376l-128 -376h-55zM224.5 563.5q-16.5 16.5 -16.5 39.5q0 25 16.5 41.5t39.5 16.5q25 0 41.5 -16.5t16.5 -41.5q0 -23 -16.5 -39.5t-41.5 -16.5q-23 0 -39.5 16.5zM421.5 563.5
q-16.5 16.5 -16.5 39.5q0 25 16.5 41.5t39.5 16.5q25 0 41.5 -16.5t16.5 -41.5q0 -23 -16.5 -39.5t-41.5 -16.5q-23 0 -39.5 16.5z" />
    <glyph glyph-name="Ygrave" unicode="&#x1ef2;" horiz-adv-x="542" 
d="M383 730l-228 116l24 45l228 -115zM552 700l-357 -700h-74l141 277l-267 423h78l224 -354l181 354h74z" />
    <glyph glyph-name="ygrave" unicode="&#x1ef3;" horiz-adv-x="567" 
d="M487 455v-470q0 -111 -64 -166q-54 -46 -144 -46q-98 0 -153 46q-50 43 -51 117h65q2 -49 34.5 -78.5t103.5 -29.5q145 0 145 161v112q-20 -50 -64 -81t-106 -31q-91 0 -134.5 52.5t-43.5 149.5v264h64v-252q0 -77 30 -116.5t104 -39.5q49 0 82.5 25t50.5 65t17 85v233
h64zM151 653l37 39l163 -143l-37 -38z" />
    <glyph glyph-name="uni2002" unicode="&#x2002;" horiz-adv-x="500" 
 />
    <glyph glyph-name="uni2003" unicode="&#x2003;" horiz-adv-x="1000" 
 />
    <glyph glyph-name="uni2004" unicode="&#x2004;" horiz-adv-x="0" 
 />
    <glyph glyph-name="uni2005" unicode="&#x2005;" horiz-adv-x="250" 
 />
    <glyph glyph-name="uni2009" unicode="&#x2009;" horiz-adv-x="135" 
 />
    <glyph glyph-name="uni200A" unicode="&#x200a;" horiz-adv-x="75" 
 />
    <glyph glyph-name="endash" unicode="&#x2013;" horiz-adv-x="594" 
d="M55 291h484v-53h-484v53z" />
    <glyph glyph-name="emdash" unicode="&#x2014;" horiz-adv-x="778" 
d="M55 296h668v-53h-668v53z" />
    <glyph glyph-name="quoteleft" unicode="&#x2018;" horiz-adv-x="268" 
d="M93.5 542.5q-23.5 27.5 -23.5 75.5q0 54 29 87t79 33q16 0 27 -3v-33q-9 2 -26 2q-22 0 -36.5 -11.5t-19.5 -31.5q-5 -12 -5 -30q0 -12 1 -17q11 14 34 14q24 0 39.5 -15t15.5 -40t-16 -41.5t-43 -16.5q-32 0 -55.5 27.5z" />
    <glyph glyph-name="quoteright" unicode="&#x2019;" horiz-adv-x="268" 
d="M174.5 690.5q23.5 -27.5 23.5 -75.5q0 -54 -29 -87t-79 -33q-16 0 -27 3v33q9 -2 26 -2q22 0 36.5 11.5t19.5 31.5q5 12 5 30q0 12 -1 17q-11 -14 -34 -14q-24 0 -39.5 15t-15.5 40t16 41.5t43 16.5q32 0 55.5 -27.5z" />
    <glyph glyph-name="quotesinglbase" unicode="&#x201a;" horiz-adv-x="268" 
d="M174.5 79.5q23.5 -27.5 23.5 -75.5q0 -54 -29 -87t-79 -33q-16 0 -27 3v33q9 -2 26 -2q22 0 36.5 11.5t19.5 31.5q5 12 5 30q0 12 -1 17q-11 -14 -34 -14q-24 0 -39.5 15t-15.5 40t16 41.5t43 16.5q32 0 55.5 -27.5z" />
    <glyph glyph-name="quotedblleft" unicode="&#x201c;" horiz-adv-x="436" 
d="M93.5 542.5q-23.5 27.5 -23.5 75.5q0 54 29 87t79 33q16 0 27 -3v-33q-9 2 -26 2q-22 0 -36.5 -11.5t-19.5 -31.5q-5 -12 -5 -30q0 -12 1 -17q11 14 34 14q24 0 39.5 -15t15.5 -40t-16 -41.5t-43 -16.5q-32 0 -55.5 27.5zM261.5 542.5q-23.5 27.5 -23.5 75.5q0 54 29 87
t79 33q16 0 27 -3v-33q-9 2 -26 2q-22 0 -36.5 -11.5t-19.5 -31.5q-5 -12 -5 -30q0 -12 1 -17q11 14 34 14q24 0 39.5 -15t15.5 -40t-16 -41.5t-43 -16.5q-32 0 -55.5 27.5z" />
    <glyph glyph-name="quotedblright" unicode="&#x201d;" horiz-adv-x="436" 
d="M342.5 690.5q23.5 -27.5 23.5 -75.5q0 -54 -29 -87t-79 -33q-16 0 -27 3v33q9 -2 26 -2q22 0 36.5 11.5t19.5 31.5q5 12 5 30q0 12 -1 17q-11 -14 -34 -14q-24 0 -39.5 15t-15.5 40t16 41.5t43 16.5q32 0 55.5 -27.5zM174.5 690.5q23.5 -27.5 23.5 -75.5q0 -54 -29 -87
t-79 -33q-16 0 -27 3v33q9 -2 26 -2q22 0 36.5 11.5t19.5 31.5q5 12 5 30q0 12 -1 17q-11 -14 -34 -14q-24 0 -39.5 15t-15.5 40t16 41.5t43 16.5q32 0 55.5 -27.5z" />
    <glyph glyph-name="quotedblbase" unicode="&#x201e;" horiz-adv-x="436" 
d="M342.5 79.5q23.5 -27.5 23.5 -75.5q0 -54 -29 -87t-79 -33q-16 0 -27 3v33q9 -2 26 -2q22 0 36.5 11.5t19.5 31.5q5 12 5 30q0 12 -1 17q-11 -14 -34 -14q-24 0 -39.5 15t-15.5 40t16 41.5t43 16.5q32 0 55.5 -27.5zM174.5 79.5q23.5 -27.5 23.5 -75.5q0 -54 -29 -87
t-79 -33q-16 0 -27 3v33q9 -2 26 -2q22 0 36.5 11.5t19.5 31.5q5 12 5 30q0 12 -1 17q-11 -14 -34 -14q-24 0 -39.5 15t-15.5 40t16 41.5t43 16.5q32 0 55.5 -27.5z" />
    <glyph glyph-name="dagger" unicode="&#x2020;" horiz-adv-x="429" 
d="M182 388h-132v58h132v271h64v-271h133v-58h-133v-570h-64v570z" />
    <glyph glyph-name="daggerdbl" unicode="&#x2021;" horiz-adv-x="429" 
d="M182 19h-132v56h132v315h-132v56h132v271h64v-271h133v-56h-133v-315h133v-56h-133v-201h-64v201z" />
    <glyph glyph-name="bullet" unicode="&#x2022;" horiz-adv-x="363" 
d="M99 230q-34 34 -34 82q0 49 34 83t82 34q49 0 83 -34t34 -83q0 -48 -34 -82t-83 -34q-48 0 -82 34z" />
    <glyph glyph-name="ellipsis" unicode="&#x2026;" horiz-adv-x="751" 
d="M98 8q-18 18 -18 43q0 26 18 44t43 18q26 0 44 -18t18 -44q0 -25 -18 -43t-44 -18q-25 0 -43 18zM331 8q-18 18 -18 43q0 26 18 44t43 18q26 0 44 -18t18 -44q0 -25 -18 -43t-44 -18q-25 0 -43 18zM566 8q-18 18 -18 43q0 26 18 44t43 18q26 0 44 -18t18 -44
q0 -25 -18 -43t-44 -18q-25 0 -43 18z" />
    <glyph glyph-name="perthousand" unicode="&#x2030;" horiz-adv-x="1143" 
d="M121 14l472 682l44 -25l-471 -682zM102 372.5q-39 23.5 -60 62t-21 84.5t21 84.5t60 62t92 23.5t92 -23.5t60 -62t21 -84.5t-21 -84.5t-60 -62t-92 -23.5t-92 23.5zM279 434.5q31 34.5 31 84.5t-31 84.5t-85 34.5t-85 -34.5t-31 -84.5t31 -84.5t85 -34.5t85 34.5z
M478 18.5q-39 23.5 -60 62t-21 84.5t21 84.5t60 62t92 23.5t92 -23.5t60 -62t21 -84.5t-21 -84.5t-60 -62t-92 -23.5t-92 23.5zM857 18.5q-39 23.5 -60 62t-21 84.5t21 84.5t60 62t92 23.5t92 -23.5t60 -62t21 -84.5t-21 -84.5t-60 -62t-92 -23.5t-92 23.5zM655 80.5
q31 34.5 31 84.5t-31 84.5t-85 34.5t-85 -34.5t-31 -84.5t31 -84.5t85 -34.5t85 34.5zM1034 80.5q31 34.5 31 84.5t-31 84.5t-85 34.5t-85 -34.5t-31 -84.5t31 -84.5t85 -34.5t85 34.5z" />
    <glyph glyph-name="guilsinglleft" unicode="&#x2039;" horiz-adv-x="268" 
d="M8 261l204 188l38 -38l-163 -150l163 -150l-38 -38z" />
    <glyph glyph-name="guilsinglright" unicode="&#x203a;" horiz-adv-x="268" 
d="M260 261l-204 188l-38 -38l163 -150l-163 -150l38 -38z" />
    <glyph glyph-name="fraction" unicode="&#x2044;" horiz-adv-x="146" 
d="M-185 14l472 682l44 -28l-472 -682z" />
    <glyph glyph-name="uni2070" unicode="&#x2070;" horiz-adv-x="412" 
d="M87 445.5q-41 52.5 -41 152.5t41 152t119 52t119 -52t41 -152t-41 -152.5t-119 -52.5t-119 52.5zM284.5 480q25.5 39 25.5 118t-25.5 117.5t-78.5 38.5q-52 0 -77.5 -38.5t-25.5 -117.5q0 -80 25.5 -118.5t77.5 -38.5q53 0 78.5 39z" />
    <glyph glyph-name="uni2074" unicode="&#x2074;" horiz-adv-x="384" 
d="M349 527h-64v-128h-55v128h-171v267h55v-218h116v116h55v-116h64v-49z" />
    <glyph glyph-name="uni2075" unicode="&#x2075;" horiz-adv-x="390" 
d="M96.5 422.5q-38.5 29.5 -40.5 80.5h55q1 -29 25.5 -46.5t62.5 -17.5q43 0 68.5 25.5t25.5 69.5q0 43 -23.5 66.5t-65.5 23.5q-35 0 -55.5 -11.5t-32.5 -36.5h-51v218h256v-44h-205v-127q31 44 101 44q60 0 95 -35.5t35 -96.5q0 -65 -40.5 -103.5t-108.5 -38.5
q-63 0 -101.5 29.5z" />
    <glyph glyph-name="uni2076" unicode="&#x2076;" horiz-adv-x="387" 
d="M300.5 636.5q40.5 -40.5 40.5 -102.5q0 -61 -40.5 -101.5t-107.5 -40.5q-66 0 -107 40.5t-41 101.5q0 56 33 95l116 165h65l-87 -118q7 1 21 1q67 0 107.5 -40.5zM261 465.5q25 27.5 25 68.5q0 42 -25 69.5t-68 27.5t-68.5 -27.5t-25.5 -69.5q0 -41 25.5 -68.5
t68.5 -27.5t68 27.5z" />
    <glyph glyph-name="uni2077" unicode="&#x2077;" horiz-adv-x="343" 
d="M249 746h-206v48h289l-214 -394h-64z" />
    <glyph glyph-name="uni2078" unicode="&#x2078;" horiz-adv-x="389" 
d="M87 423q-40 30 -40 81q0 39 22 65.5t63 33.5q-37 8 -57.5 33t-20.5 60q0 48 38.5 76.5t101.5 28.5t102 -28.5t39 -76.5q0 -35 -21 -60t-57 -33q41 -7 63 -33.5t22 -65.5q0 -51 -40.5 -81t-107.5 -30t-107 30zM257.5 642.5q23.5 18.5 23.5 49.5t-24 50.5t-63 19.5
q-38 0 -62 -19.5t-24 -50.5t24 -49.5t62 -18.5q40 0 63.5 18.5zM261 455q25 21 25 54q0 34 -25 54t-67 20q-41 0 -66 -20t-25 -54q0 -33 25 -54t66 -21q42 0 67 21z" />
    <glyph glyph-name="uni2079" unicode="&#x2079;" horiz-adv-x="387" 
d="M309 565l-116 -165h-65l87 118q-7 -1 -21 -1q-67 0 -107.5 40.5t-40.5 102.5q0 61 40.5 101.5t107.5 40.5q66 0 107 -40.5t41 -101.5q0 -56 -33 -95zM126 590.5q25 -27.5 68 -27.5t68.5 27.5t25.5 69.5q0 41 -25.5 68.5t-68.5 27.5t-68 -27.5t-25 -68.5q0 -42 25 -69.5z
" />
    <glyph glyph-name="uni207A" unicode="&#x207a;" horiz-adv-x="393" 
d="M175 565h-104v42h104v106h43v-106h104v-42h-104v-105h-43v105z" />
    <glyph glyph-name="uni207B" unicode="&#x207b;" horiz-adv-x="393" 
d="M71 607h251v-42h-251v42z" />
    <glyph glyph-name="uni207C" unicode="&#x207c;" horiz-adv-x="392" 
d="M63 670h266v-41h-266v41zM63 546h266v-41h-266v41z" />
    <glyph glyph-name="uni207D" unicode="&#x207d;" horiz-adv-x="227" 
d="M85.5 448.5q-31.5 64.5 -31.5 152.5t31.5 152.5t88.5 120.5l38 -32q-55 -53 -81.5 -109.5t-26.5 -131.5t26 -131t82 -109l-38 -32q-57 55 -88.5 119.5z" />
    <glyph glyph-name="uni207E" unicode="&#x207e;" horiz-adv-x="227" 
d="M141.5 448.5q31.5 64.5 31.5 152.5t-31.5 152.5t-88.5 120.5l-38 -32q55 -53 81.5 -109.5t26.5 -131.5t-26 -131t-82 -109l38 -32q57 55 88.5 119.5z" />
    <glyph glyph-name="uni2080" unicode="&#x2080;" horiz-adv-x="412" 
d="M87 -29.5q-41 52.5 -41 152.5t41 152t119 52t119 -52t41 -152t-41 -152.5t-119 -52.5t-119 52.5zM284.5 5q25.5 39 25.5 118t-25.5 117.5t-78.5 38.5q-52 0 -77.5 -38.5t-25.5 -117.5q0 -80 25.5 -118.5t77.5 -38.5q53 0 78.5 39z" />
    <glyph glyph-name="uni2081" unicode="&#x2081;" horiz-adv-x="266" 
d="M125 207h-90v43q56 0 76 15t20 54h48v-394h-54v282z" />
    <glyph glyph-name="uni2082" unicode="&#x2082;" horiz-adv-x="373" 
d="M62.5 33.5q23.5 39.5 81.5 67.5l67 32q58 26 58 82q0 30 -20.5 48t-54.5 18q-41 0 -64.5 -23.5t-23.5 -65.5h-57q0 61 39.5 97.5t104.5 36.5q62 0 98 -29.5t36 -79.5q0 -79 -80 -117l-66 -32q-38 -18 -54.5 -39.5t-19.5 -56.5h220v-47h-288q0 69 23.5 108.5z" />
    <glyph glyph-name="uni2083" unicode="&#x2083;" horiz-adv-x="381" 
d="M81.5 -49q-38.5 33 -38.5 92h57q0 -37 24 -58.5t66 -21.5q40 0 63.5 19.5t23.5 52.5q0 34 -23 53t-65 19h-37v44h37q39 0 60.5 17.5t21.5 49.5q0 29 -22 47t-58 18q-38 0 -61 -19.5t-23 -51.5h-57q0 51 38.5 82.5t103.5 31.5q62 0 99 -28.5t37 -76.5q0 -36 -21 -60
t-62 -32q39 -3 64 -30.5t25 -66.5q0 -51 -39.5 -82.5t-105.5 -31.5q-69 0 -107.5 33z" />
    <glyph glyph-name="uni2084" unicode="&#x2084;" horiz-adv-x="384" 
d="M349 52h-64v-128h-55v128h-171v267h55v-218h116v116h55v-116h64v-49z" />
    <glyph glyph-name="uni2085" unicode="&#x2085;" horiz-adv-x="390" 
d="M96.5 -52.5q-38.5 29.5 -40.5 80.5h55q1 -29 25.5 -46.5t62.5 -17.5q43 0 68.5 25.5t25.5 69.5q0 43 -23.5 66.5t-65.5 23.5q-35 0 -55.5 -11.5t-32.5 -36.5h-51v218h256v-44h-205v-127q31 44 101 44q60 0 95 -35.5t35 -96.5q0 -65 -40.5 -103.5t-108.5 -38.5
q-63 0 -101.5 29.5z" />
    <glyph glyph-name="uni2086" unicode="&#x2086;" horiz-adv-x="387" 
d="M300.5 161.5q40.5 -40.5 40.5 -102.5q0 -61 -40.5 -101.5t-107.5 -40.5q-66 0 -107 40.5t-41 101.5q0 56 33 95l116 165h65l-87 -118q7 1 21 1q67 0 107.5 -40.5zM261 -9.5q25 27.5 25 68.5q0 42 -25 69.5t-68 27.5t-68.5 -27.5t-25.5 -69.5q0 -41 25.5 -68.5t68.5 -27.5
t68 27.5z" />
    <glyph glyph-name="uni2087" unicode="&#x2087;" horiz-adv-x="343" 
d="M249 271h-206v48h289l-214 -394h-64z" />
    <glyph glyph-name="uni2088" unicode="&#x2088;" horiz-adv-x="389" 
d="M87 -52q-40 30 -40 81q0 39 22 65.5t63 33.5q-37 8 -57.5 33t-20.5 60q0 48 38.5 76.5t101.5 28.5t102 -28.5t39 -76.5q0 -35 -21 -60t-57 -33q41 -7 63 -33.5t22 -65.5q0 -51 -40.5 -81t-107.5 -30t-107 30zM257.5 167.5q23.5 18.5 23.5 49.5t-24 50.5t-63 19.5
q-38 0 -62 -19.5t-24 -50.5t24 -49.5t62 -18.5q40 0 63.5 18.5zM261 -20q25 21 25 54q0 34 -25 54t-67 20q-41 0 -66 -20t-25 -54q0 -33 25 -54t66 -21q42 0 67 21z" />
    <glyph glyph-name="uni2089" unicode="&#x2089;" horiz-adv-x="387" 
d="M309 90l-116 -165h-65l87 118q-7 -1 -21 -1q-67 0 -107.5 40.5t-40.5 102.5q0 61 40.5 101.5t107.5 40.5q66 0 107 -40.5t41 -101.5q0 -56 -33 -95zM126 115.5q25 -27.5 68 -27.5t68.5 27.5t25.5 69.5q0 41 -25.5 68.5t-68.5 27.5t-68 -27.5t-25 -68.5q0 -42 25 -69.5z
" />
    <glyph glyph-name="uni208A" unicode="&#x208a;" horiz-adv-x="393" 
d="M175 83h-104v42h104v106h43v-106h104v-42h-104v-105h-43v105z" />
    <glyph glyph-name="uni208B" unicode="&#x208b;" horiz-adv-x="393" 
d="M71 125h251v-42h-251v42z" />
    <glyph glyph-name="uni208C" unicode="&#x208c;" horiz-adv-x="392" 
d="M63 188h266v-41h-266v41zM63 64h266v-41h-266v41z" />
    <glyph glyph-name="uni208D" unicode="&#x208d;" horiz-adv-x="227" 
d="M85.5 -33.5q-31.5 64.5 -31.5 152.5t31.5 152.5t88.5 120.5l38 -32q-55 -53 -81.5 -109.5t-26.5 -131.5t26 -131t82 -109l-38 -32q-57 55 -88.5 119.5z" />
    <glyph glyph-name="uni208E" unicode="&#x208e;" horiz-adv-x="227" 
d="M141.5 -33.5q31.5 64.5 31.5 152.5t-31.5 152.5t-88.5 120.5l-38 -32q55 -53 81.5 -109.5t26.5 -131.5t-26 -131t-82 -109l38 -32q57 55 88.5 119.5z" />
    <glyph glyph-name="uni20A9" unicode="&#x20a9;" horiz-adv-x="770" 
d="M665 396l-20 -94h107v-51h-118l-53 -251h-65l-131 576l-132 -576h-64l-53 251h-118v51h107l-20 94h-87v51h76l-49 233h68l111 -579l133 579h55l134 -579l110 579h69l-49 -233h76v-51h-87z" />
    <glyph glyph-name="Euro" unicode="&#x20ac;" horiz-adv-x="588" 
d="M424 88q38 39 49 105h65q-14 -91 -69 -147t-149 -56q-201 0 -231 256h-66l12 47h50q-1 16 -1 48q0 31 1 46h-60l12 47h52q13 119 68 188.5t163 69.5q94 0 149 -56t69 -147h-65q-11 66 -49 104.5t-104 38.5q-78 0 -117 -52t-49 -146h223l-12 -47h-215q-1 -15 -1 -46
q0 -32 1 -48h225l-13 -47h-208q11 -94 49.5 -145.5t116.5 -51.5q66 0 104 39z" />
    <glyph glyph-name="uni20AE" unicode="&#x20ae;" horiz-adv-x="510" 
d="M288 619v-170l131 62v-53l-131 -63v-81l131 62v-54l-131 -62v-260h-67v228l-132 -63v54l132 63v81l-132 -63v54l132 63v202h-213v61h495v-61h-215z" />
    <glyph glyph-name="uni20B4" unicode="&#x20b4;" horiz-adv-x="567" 
d="M261 300h266l-13 -40h-333q-28 -19 -40.5 -41.5t-12.5 -53.5q0 -56 38 -87t107 -31q77 0 121 36.5t44 98.5h62q0 -88 -60.5 -141.5t-167.5 -53.5q-96 0 -152 46.5t-56 128.5q0 58 28 98h-52l12 40h81q25 18 52 29l123 52h-268l12 39h327q23 19 32.5 43.5t9.5 58.5
q0 51 -35.5 81t-97.5 30q-69 0 -108 -31.5t-39 -89.5h-62q0 83 57 131.5t151 48.5q90 0 143.5 -44.5t53.5 -122.5q0 -62 -28 -105h71l-13 -39h-92q-26 -22 -65 -39z" />
    <glyph glyph-name="uni20B8" unicode="&#x20b8;" horiz-adv-x="510" 
d="M8 680h495v-61h-495v61zM221 469h-213v62h495v-62h-215v-469h-67v469z" />
    <glyph glyph-name="uni20B9" unicode="&#x20b9;" horiz-adv-x="513" 
d="M419.5 561q22.5 -43 26.5 -96h79l-13 -47h-66q-6 -74 -47.5 -128.5t-107.5 -75.5l147 -214h-77l-139 203h-5h-151v61h148q66 0 111.5 43t53.5 111h-314v47h314q-8 68 -53.5 111t-111.5 43h-149v61h460l-13 -47h-152q37 -29 59.5 -72z" />
    <glyph glyph-name="uni20BA" unicode="&#x20ba;" horiz-adv-x="457" 
d="M447 263q0 -131 -76.5 -197t-227.5 -66h-65v224l-51 -25v53l51 25v84l-51 -25v53l51 25v266h67v-233l173 86v-53l-173 -86v-84l173 86v-53l-173 -86v-196q124 0 180.5 51t56.5 151h65z" />
    <glyph glyph-name="uni20BD" unicode="&#x20bd;" horiz-adv-x="579" 
d="M165 203v-69h176v-46h-176v-88h-68v88h-100v46h100v69h-100v61h100v416h234q66 0 118.5 -30.5t82.5 -85t30 -122.5q0 -69 -29.5 -123.5t-82.5 -85t-119 -30.5h-166zM165 264h163q47 0 85.5 23t60 63.5t21.5 91.5q0 50 -21.5 90.5t-60 63.5t-85.5 23h-163v-355z" />
    <glyph glyph-name="uni2113" unicode="&#x2113;" horiz-adv-x="390" 
d="M97 166v12l-64 -55l-30 49l94 75v260q0 105 31 157.5t105 52.5q64 0 99 -45t35 -126q0 -78 -52.5 -153.5t-160.5 -171.5v-57q0 -53 16 -79t37 -32.5t49 -6.5q26 0 47.5 8.5t35.5 20.5l9 -50q-19 -17 -40.5 -26t-58.5 -9q-152 0 -152 176zM274 431q36 58 36 117
q0 56 -18.5 86t-56.5 30q-44 0 -62.5 -38t-18.5 -109v-223q84 79 120 137z" />
    <glyph glyph-name="uni2116" unicode="&#x2116;" horiz-adv-x="1106" 
d="M85 700h72l354 -589v589h64v-700h-72l-353 589v-589h-65v700zM726.5 128.5q-43.5 25.5 -67.5 68.5t-24 94q0 52 24 95.5t67.5 69t100.5 25.5q58 0 102 -25.5t68 -69t24 -95.5q0 -51 -24 -94t-68 -68.5t-102 -25.5q-57 0 -100.5 25.5zM921 198q36 38 36 93q0 56 -36 94.5
t-94 38.5q-56 0 -92 -39t-36 -94t36 -93t92 -38q58 0 94 38zM635 58h386v-58h-386v58z" />
    <glyph glyph-name="trademark" unicode="&#x2122;" horiz-adv-x="827" 
d="M112 654h-104v46h258v-46h-104v-361h-50v361zM345 700h77l121 -323l122 323h77v-407h-49v341l-127 -341h-45l-127 341v-341h-49v407z" />
    <glyph glyph-name="uni2126" unicode="&#x2126;" horiz-adv-x="707" 
d="M63 61h200v38q-66 19 -116.5 63.5t-78.5 106t-28 129.5q0 87 38 159t109.5 114t166.5 42t166 -42t109 -114t38 -159q0 -68 -28 -129.5t-78.5 -106t-116.5 -63.5v-38h200v-61h-255v138q64 12 112 50t73.5 94t25.5 119q0 70 -29 127t-84.5 90t-132.5 33t-133 -33t-85 -90
t-29 -127q0 -63 25.5 -119t73.5 -94t112 -50v-138h-255v61z" />
    <glyph glyph-name="estimated" unicode="&#x212e;" horiz-adv-x="517" 
d="M143.5 21q-51.5 33 -77.5 87.5t-26 119.5q0 69 26.5 123t77.5 85t121 31q58 0 106.5 -27t76.5 -74t28 -105q0 -16 -1 -28h-343v-175q56 -49 136 -49q67 0 114.5 32.5t63.5 80.5h22q-15 -57 -68.5 -95.5t-131.5 -38.5q-73 0 -124.5 33zM386 255v148q-51 43 -121 43
q-80 0 -133 -47v-144h254z" />
    <glyph glyph-name="uni2153" unicode="&#x2153;" horiz-adv-x="758" 
d="M125 568h-90v43q56 0 76 15t20 54h48v-394h-54v282zM76 14l472 682l44 -28l-472 -682zM458.5 26q-38.5 33 -38.5 92h57q0 -37 24 -58.5t66 -21.5q40 0 63.5 19.5t23.5 52.5q0 34 -23 53t-65 19h-37v44h37q39 0 60.5 17.5t21.5 49.5q0 29 -22 47t-58 18q-38 0 -61 -19.5
t-23 -51.5h-57q0 51 38.5 82.5t103.5 31.5q62 0 99 -28.5t37 -76.5q0 -36 -21 -60t-62 -32q39 -3 64 -30.5t25 -66.5q0 -51 -39.5 -82.5t-105.5 -31.5q-69 0 -107.5 33z" />
    <glyph glyph-name="uni2154" unicode="&#x2154;" horiz-adv-x="870" 
d="M62.5 394.5q23.5 39.5 81.5 67.5l67 32q58 26 58 82q0 30 -20.5 48t-54.5 18q-41 0 -64.5 -23.5t-23.5 -65.5h-57q0 61 39.5 97.5t104.5 36.5q62 0 98 -29.5t36 -79.5q0 -79 -80 -117l-66 -32q-38 -18 -54.5 -39.5t-19.5 -56.5h220v-47h-288q0 69 23.5 108.5zM188 14
l472 682l44 -28l-472 -682zM570.5 26q-38.5 33 -38.5 92h57q0 -37 24 -58.5t66 -21.5q40 0 63.5 19.5t23.5 52.5q0 34 -23 53t-65 19h-37v44h37q39 0 60.5 17.5t21.5 49.5q0 29 -22 47t-58 18q-38 0 -61 -19.5t-23 -51.5h-57q0 51 38.5 82.5t103.5 31.5q62 0 99 -28.5
t37 -76.5q0 -36 -21 -60t-62 -32q39 -3 64 -30.5t25 -66.5q0 -51 -39.5 -82.5t-105.5 -31.5q-69 0 -107.5 33z" />
    <glyph glyph-name="arrowleft" unicode="&#x2190;" horiz-adv-x="720" 
d="M10 350l239 216l37 -40l-168 -149h592v-54h-591l167 -149l-37 -40z" />
    <glyph glyph-name="arrowup" unicode="&#x2191;" horiz-adv-x="482" 
d="M214 591l-149 -167l-40 37l216 239l216 -239l-40 -37l-149 168v-592h-54v591z" />
    <glyph glyph-name="arrowright" unicode="&#x2192;" horiz-adv-x="720" 
d="M434 173l168 150h-592v54h591l-167 149l37 39l239 -216l-239 -216z" />
    <glyph glyph-name="arrowdown" unicode="&#x2193;" horiz-adv-x="482" 
d="M25 239l40 37l149 -168v592h54v-591l149 167l40 -37l-216 -239z" />
    <glyph glyph-name="uni2196" unicode="&#x2196;" horiz-adv-x="554" 
d="M77 501l13 -223l-55 -3l-15 322l321 -16l-2 -54l-224 13l419 -418l-39 -39z" />
    <glyph glyph-name="uni2197" unicode="&#x2197;" horiz-adv-x="554" 
d="M20 122l418 418l-223 -13l-3 54l322 16l-16 -322l-54 3l13 224l-418 -419z" />
    <glyph glyph-name="uni2198" unicode="&#x2198;" horiz-adv-x="554" 
d="M212 119l3 54l224 -13l-419 418l39 39l418 -418l-13 223l54 3l16 -322z" />
    <glyph glyph-name="uni2199" unicode="&#x2199;" horiz-adv-x="554" 
d="M35 425l55 -3l-13 -224l418 419l39 -39l-418 -418l223 13l2 -54l-321 -16z" />
    <glyph glyph-name="partialdiff" unicode="&#x2202;" horiz-adv-x="569" 
d="M456.5 626q62.5 -89 62.5 -287q0 -178 -56.5 -266t-181.5 -88q-77 0 -129 30t-77 80.5t-25 111.5q0 65 27.5 118t77.5 83t117 30q53 0 101.5 -22t81.5 -70q-1 167 -45 238t-136 71q-75 0 -114.5 -43.5t-39.5 -111.5h-67q0 61 25.5 109.5t75 77t119.5 28.5
q121 0 183.5 -89zM407 102.5q40 57.5 46 176.5q-27 51 -74.5 75t-99.5 24q-79 0 -122.5 -48.5t-43.5 -122.5q0 -71 41 -116.5t124 -45.5q89 0 129 57.5z" />
    </font>
</defs>
</svg>
